<svg width="199" height="39" viewBox="0 0 199 39" fill="none" xmlns="http://www.w3.org/2000/svg">
<g clip-path="url(#clip0_1_2)">
<path d="M24.9914 29.5559L27.9131 37.8422H34.8523L21.0262 0.916308H13.9305L0.41748 37.8422H7.40878L10.2262 29.5559H24.9914ZM12.1566 23.8073L17.1131 9.3062L17.4783 7.28642L17.8436 9.3062L22.9566 23.8073H12.1566ZM49.8681 38.6191C58.1638 38.6191 63.9551 34.7348 64.6334 25.9306V25.7753H57.4855V25.827C56.8073 30.3845 54.3029 32.6633 49.9203 32.6633C44.9116 32.6633 41.8855 29.3487 41.8855 23.4447V22.7715C41.8855 16.4532 45.1725 13.1386 49.9725 13.1386C54.1464 13.1386 56.8073 15.2102 57.4334 19.8713V20.0266H64.5812V19.923C63.9029 11.2224 58.216 7.3382 49.9203 7.3382C44.129 7.3382 39.4334 9.77231 36.7725 14.3298C35.4681 16.6085 34.7899 19.4569 34.7899 22.7715V23.5483C34.7899 33.2847 40.2681 38.6191 49.8681 38.6191ZM85.4362 37.8422V31.5239H83.297C79.9579 31.5239 78.3927 31.1614 77.9231 29.1934C77.6623 28.2094 77.5057 26.7593 77.5057 24.7913V14.0708H85.4362V8.06326H77.5057V0.0358887H71.6623C71.6623 0.916308 71.6101 2.67715 71.5579 3.97189C71.4014 6.40599 71.0883 7.54536 70.097 8.01147C69.6275 8.21863 68.9492 8.32221 67.9579 8.32221H65.297V14.0708H71.1405V25.9306C71.1405 31.99 72.0796 35.2527 75.1057 36.7546C76.5666 37.4279 78.7579 37.8422 81.5753 37.8422H85.4362ZM96.391 37.8422V12.7243L96.1301 10.1348L97.1736 12.5689L113.295 37.8422H119.608V0.916308H113.139V25.6717L113.347 28.3129L112.356 25.8788L96.4431 0.916308H89.9214V37.8422H96.391ZM137.923 38.6191C144.027 38.6191 148.567 36.2367 151.175 31.731C152.427 29.5041 153.054 26.811 153.054 23.5483V22.7715C153.054 16.1942 150.341 11.5849 145.749 9.15084C143.506 7.90789 140.949 7.3382 137.923 7.3382C132.027 7.3382 127.384 9.77231 124.775 14.3298C123.471 16.6085 122.793 19.4569 122.793 22.7715V23.5483C122.793 33.2847 128.219 38.6191 137.923 38.6191ZM137.923 32.6633C132.81 32.6633 129.784 29.3487 129.784 23.4447V22.7715C129.784 16.4532 133.071 13.1386 137.975 13.1386C142.932 13.1386 146.114 16.6603 146.114 22.7715V23.4447C146.114 29.3487 143.088 32.6633 137.923 32.6633ZM175.869 18.0068L183.017 37.8422H189.121L198.46 8.06326H191.782L185.521 29.1934L178.217 8.06326H173.73L165.852 29.2452L160.582 8.06326H153.799L161.886 37.8422H168.095L175.869 18.0068Z" fill="#00C58B" style="fill:#00C58B;fill:color(display-p3 0.0000 0.7725 0.5451);fill-opacity:1;"/>
</g>
<defs>
<clipPath id="clip0_1_2">
<rect width="199" height="39" fill="white" style="fill:white;fill-opacity:1;"/>
</clipPath>
</defs>
</svg>
