<svg width="154" height="27" viewBox="0 0 154 27" fill="none" xmlns="http://www.w3.org/2000/svg">
<g clip-path="url(#clip0_1_4)">
<path d="M0.0771484 26.8193H153.923V0.180664H0.0771484V26.8193Z" fill="white" style="fill:white;fill-opacity:1;"/>
<path d="M17.2206 11.2363L11.3954 13.8103L17.2206 16.3987V11.2363ZM9.89302 14.3903L8.53564 13.8143L9.89302 13.1934L21.3977 8.03225V9.40699L18.3812 10.7334V16.9016L21.3977 18.2424V19.5544L9.89302 14.3903ZM27.9676 8.16862H36.2249V9.35119H29.2547V13.1831H35.489V14.3679H29.2547V18.3178H36.305V19.498H27.9676V8.16862ZM47.6262 13.9458C48.0516 13.9458 48.4433 13.8929 48.8048 13.7853C49.1635 13.6765 49.4728 13.5246 49.7351 13.3232C49.9985 13.124 50.2023 12.8824 50.3491 12.5941C50.4971 12.3076 50.5696 11.9841 50.5696 11.6158V11.5836C50.5696 10.8821 50.3137 10.336 49.8024 9.94183C49.2888 9.54768 48.571 9.35028 47.6419 9.35028H44.1101V13.9458H47.6262ZM42.8184 8.16771H47.7307C48.4375 8.16771 49.0677 8.26961 49.619 8.46701C50.1663 8.66609 50.6201 8.94579 50.9787 9.30134C51.2613 9.58104 51.4784 9.91196 51.6327 10.2888C51.7848 10.6663 51.8602 11.0813 51.8602 11.5353V11.5663C51.8602 12.0308 51.7848 12.4473 51.6327 12.8231C51.4784 13.1937 51.2648 13.5183 50.9903 13.7933C50.7123 14.069 50.3827 14.2951 49.9985 14.4735C49.619 14.6496 49.2053 14.7831 48.759 14.8694L52.2688 19.4971H50.6874L47.3715 15.0961H44.1101V19.4971H42.8184V8.16771ZM63.875 18.5092C64.5278 18.5092 65.1308 18.3913 65.678 18.1473C66.2269 17.9044 66.6964 17.5707 67.0887 17.1524C67.4804 16.73 67.7897 16.2385 68.012 15.6792C68.2366 15.1175 68.3445 14.5139 68.3445 13.8671V13.8331C68.3445 13.1858 68.2366 12.5787 68.012 12.013C67.7897 11.4456 67.4735 10.9519 67.0759 10.533C66.6709 10.1106 66.195 9.77508 65.6455 9.52764C65.0936 9.27961 64.4924 9.15476 63.8396 9.15476C63.1885 9.15476 62.5878 9.27561 62.0388 9.51962C61.4876 9.76473 61.0163 10.0956 60.6258 10.5151C60.2358 10.9375 59.9271 11.4266 59.7019 11.9883C59.4808 12.5488 59.3694 13.153 59.3694 13.7998V13.8331C59.3694 14.4797 59.4808 15.0877 59.7019 15.6539C59.9271 16.219 60.2399 16.7156 60.6403 17.1339C61.0448 17.5569 61.5206 17.8907 62.0696 18.1386C62.618 18.3872 63.2221 18.5092 63.875 18.5092ZM63.8396 19.6918C62.9696 19.6918 62.1764 19.5359 61.4678 19.2211C60.7534 18.9097 60.1435 18.4862 59.6306 17.9527C59.117 17.4171 58.7247 16.7978 58.4496 16.0924C58.1694 15.3846 58.0301 14.6434 58.0301 13.8671V13.8331C58.0301 13.058 58.1694 12.3117 58.4537 11.6004C58.7368 10.8886 59.1385 10.2636 59.6451 9.72904C60.1598 9.19504 60.7697 8.77154 61.4916 8.45104C62.2095 8.13331 63.0022 7.9751 63.875 7.9751C64.7431 7.9751 65.5341 8.13163 66.2495 8.44237C66.9605 8.75596 67.5721 9.18062 68.0868 9.71411C68.5946 10.2481 68.991 10.869 69.2678 11.5745C69.5463 12.2818 69.6868 13.0241 69.6868 13.7998C69.696 13.8124 69.696 13.8228 69.6868 13.8331C69.6868 14.6112 69.5423 15.3546 69.2608 16.0664C68.9765 16.7783 68.5824 17.4009 68.07 17.935C67.5582 18.469 66.9419 18.8954 66.2247 19.2153C65.5074 19.5335 64.7135 19.6918 63.8396 19.6918ZM80.1804 19.6609C79.2669 19.6609 78.4325 19.5119 77.6746 19.2138C76.9161 18.9169 76.1971 18.464 75.5094 17.8477L76.3114 16.9074C76.9103 17.4489 77.5133 17.8494 78.1226 18.1141C78.7319 18.3788 79.4335 18.51 80.2309 18.51C81.0021 18.51 81.6184 18.3323 82.0786 17.9691C82.5422 17.6072 82.7738 17.1456 82.7738 16.5863V16.5518C82.7738 16.2934 82.7308 16.0586 82.6426 15.8486C82.5544 15.6391 82.4047 15.4458 82.1877 15.2743C81.9688 15.1011 81.6665 14.944 81.2777 14.8047C80.8901 14.6649 80.3974 14.5279 79.7968 14.4002C79.1457 14.2592 78.5729 14.0987 78.0889 13.9145C77.6032 13.7316 77.2004 13.5094 76.8859 13.251C76.5691 12.9927 76.3369 12.69 76.1803 12.3418C76.0277 11.9988 75.9522 11.5943 75.9522 11.1305V11.0989C75.9522 10.6558 76.0445 10.2472 76.2278 9.86741C76.4159 9.48994 76.6747 9.16362 77.0125 8.88682C77.3502 8.61236 77.7477 8.39711 78.2073 8.23948C78.6628 8.08579 79.1625 8.00697 79.7045 8.00697C80.5454 8.00697 81.276 8.1209 81.9033 8.35509C82.53 8.58759 83.133 8.93519 83.7232 9.39839L82.9722 10.3865C82.4383 9.95431 81.9033 9.64066 81.363 9.44733C80.8228 9.25285 80.2639 9.1556 79.6732 9.1556C78.9216 9.1556 78.3297 9.33108 77.8939 9.68327C77.4598 10.0331 77.2428 10.4665 77.2428 10.9855V11.0177C77.2428 11.2864 77.2881 11.5259 77.3716 11.7359C77.4598 11.9476 77.6177 12.1404 77.8475 12.3206C78.0773 12.4995 78.3901 12.6595 78.7946 12.8068C79.1956 12.9524 79.712 13.0905 80.3434 13.2177C81.6155 13.4887 82.5544 13.8743 83.1602 14.3737C83.7632 14.8778 84.0655 15.5586 84.0655 16.4229V16.4545C84.0655 16.9396 83.9692 17.3811 83.7731 17.7746C83.5815 18.1688 83.3117 18.5066 82.9763 18.7857C82.6345 19.0671 82.2242 19.2811 81.7449 19.4342C81.2672 19.5844 80.7473 19.6609 80.1804 19.6609ZM94.7323 14.3192C95.2082 14.3192 95.641 14.2594 96.0246 14.1414C96.4065 14.0223 96.7337 13.8548 97.0141 13.6344C97.2949 13.4117 97.5033 13.1493 97.6495 12.8421C97.7992 12.5365 97.8741 12.1998 97.8741 11.8339V11.8016C97.8741 10.996 97.5909 10.3866 97.0285 9.97054C96.4686 9.5557 95.7217 9.35022 94.7955 9.35022H91.8986V14.3192H94.7323ZM90.6097 8.16771H94.8878C95.5302 8.16771 96.1123 8.25054 96.6421 8.42033C97.1678 8.58772 97.6193 8.82255 97.9965 9.13155C98.3714 9.43886 98.6598 9.81232 98.8577 10.2554C99.0596 10.6985 99.1653 11.2003 99.1653 11.7619V11.7942C99.1653 12.407 99.044 12.9462 98.8061 13.406C98.5634 13.8629 98.2403 14.249 97.8335 14.5603C97.4267 14.874 96.9479 15.1099 96.4065 15.2641C95.8599 15.4229 95.2859 15.5018 94.6719 15.5018H91.8986V19.4977H90.6097V8.16771ZM105.542 8.16836H106.833V19.4978H105.542V8.16836ZM114.095 8.16862H115.387V14.9341L121.947 8.16862H123.61L118.716 13.1198L123.825 19.498H122.21L117.818 14.0123L115.387 16.4556V19.498H114.095V8.16862ZM129.749 8.16862H138.007V9.35119H131.036V13.1831H144.074V14.3679H131.036V18.3178H138.089V19.498H129.749V8.16862Z" fill="black" style="fill:black;fill-opacity:1;"/>
</g>
<defs>
<clipPath id="clip0_1_4">
<rect width="154" height="27" fill="white" style="fill:white;fill-opacity:1;"/>
</clipPath>
</defs>
</svg>
