<svg width="200" height="20" viewBox="0 0 200 20" fill="none" xmlns="http://www.w3.org/2000/svg">
<g clip-path="url(#clip0_1_7)">
<mask id="mask0_1_7" style="mask-type:luminance" maskUnits="userSpaceOnUse" x="0" y="0" width="200" height="20">
<path d="M200 0H0V19.849H200V0Z" fill="white" style="fill:white;fill-opacity:1;"/>
</mask>
<g mask="url(#mask0_1_7)">
<path d="M14.5533 1.38731C14.3328 0.960453 13.8917 0.853734 13.4507 1.06716C13.0097 1.2806 12.8995 1.70745 13.12 2.13432L18.6327 12.4857H7.60731L4.2997 18.5685C4.0792 18.9954 4.18945 19.5289 4.63046 19.6356C4.74072 19.7424 4.85097 19.7424 5.07148 19.7424C5.40224 19.7424 5.733 19.5289 5.84326 19.3155L8.59959 14.1932H19.5147L22.271 19.3155C22.4916 19.7424 22.9326 19.849 23.3736 19.6356C23.7043 19.5289 23.8146 19.2087 23.8146 18.8886C23.8146 18.7819 23.8146 18.6752 23.7043 18.5685L14.5533 1.38731Z" fill="white" style="fill:white;fill-opacity:1;"/>
<path d="M58.6548 18.0349H39.8015C39.3605 18.0349 38.9194 18.355 38.9194 18.8886C38.9194 19.3155 39.2502 19.7424 39.8015 19.7424H58.6548C59.0958 19.7424 59.5368 19.4222 59.5368 18.8886C59.5368 18.355 59.0958 18.0349 58.6548 18.0349Z" fill="white" style="fill:white;fill-opacity:1;"/>
<path d="M58.6549 9.81787H39.8015C39.3605 9.81787 39.0298 10.2447 39.0298 10.7782C39.0298 11.2051 39.3605 11.4186 39.8015 11.5253H58.6549C59.0959 11.5253 59.5369 11.2051 59.6472 10.7782C59.6472 10.3514 59.3165 9.92451 58.8754 9.81787H58.6549Z" fill="white" style="fill:white;fill-opacity:1;"/>
<path d="M58.6548 1.17407H39.8015C39.3605 1.17407 38.9194 1.49422 38.9194 1.92108C38.9194 2.34794 39.2502 2.7748 39.8015 2.7748H58.6548C59.0958 2.7748 59.5368 2.45465 59.5368 1.92108C59.5368 1.49422 59.0958 1.17407 58.6548 1.17407Z" fill="white" style="fill:white;fill-opacity:1;"/>
<path d="M164.057 18.0349H145.204C144.763 18.0349 144.322 18.355 144.322 18.8886C144.322 19.3155 144.653 19.7424 145.204 19.7424H164.057C164.498 19.7424 164.94 19.4222 164.94 18.8886C164.94 18.355 164.498 18.0349 164.057 18.0349Z" fill="white" style="fill:white;fill-opacity:1;"/>
<path d="M164.057 9.81787H145.204C144.763 9.81787 144.322 10.138 144.212 10.5649C144.212 10.9917 144.542 11.4186 144.983 11.5253H163.947C164.388 11.5253 164.718 11.0984 164.718 10.5649C164.718 10.2447 164.388 9.92451 164.057 9.81787Z" fill="white" style="fill:white;fill-opacity:1;"/>
<path d="M164.057 1.17407H145.204C144.763 1.17407 144.322 1.49422 144.322 1.92108C144.322 2.34794 144.653 2.7748 145.204 2.7748H164.057C164.498 2.7748 164.94 2.34794 164.94 1.92108C164.94 1.49422 164.498 1.17407 164.057 1.17407Z" fill="white" style="fill:white;fill-opacity:1;"/>
<path d="M199.669 18.2484L192.062 11.2053H194.597C197.464 11.2053 199.669 8.96423 199.669 6.29635C199.669 3.62847 197.354 1.38745 194.597 1.38745H179.713V18.9954C179.713 19.4223 180.155 19.7424 180.705 19.7424C181.146 19.7424 181.368 19.4223 181.478 18.9954V11.2053H189.746L189.856 11.312L198.677 19.5291C198.787 19.6358 199.007 19.7424 199.229 19.7424C199.449 19.7424 199.669 19.6358 199.89 19.5291C200.11 19.1022 200 18.5686 199.669 18.2484ZM181.368 2.98818H194.708C196.582 3.0949 198.016 4.58891 197.905 6.40307C197.795 8.11052 196.472 9.39107 194.708 9.4978H181.368V2.98818Z" fill="white" style="fill:white;fill-opacity:1;"/>
<path d="M123.043 9.81795H111.577V2.02777C111.577 1.60091 111.135 1.28076 110.584 1.28076C110.143 1.28076 109.923 1.60091 109.812 2.02777V18.8888C109.812 19.3156 110.254 19.6358 110.805 19.6358C111.245 19.6358 111.467 19.3156 111.577 18.8888V11.4187H123.043C123.484 11.4187 123.925 11.0986 124.035 10.6717C124.035 10.2449 123.705 9.81795 123.264 9.71123L123.043 9.81795Z" fill="white" style="fill:white;fill-opacity:1;"/>
<path d="M128.666 1.28076C128.225 1.28076 127.784 1.60091 127.784 2.02777V18.9955C127.784 19.4223 128.115 19.8492 128.555 19.8492C128.997 19.8492 129.438 19.529 129.438 19.1022V2.02777C129.548 1.60091 129.107 1.28076 128.666 1.28076Z" fill="white" style="fill:white;fill-opacity:1;"/>
<path d="M93.9361 1.70755H75.0828C74.6418 1.70755 74.311 2.13441 74.311 2.66798C74.311 3.09485 74.6418 3.30828 75.0828 3.41499H83.6826V19.1022C83.6826 19.529 84.1236 19.8492 84.6749 19.8492C85.1159 19.8492 85.3364 19.529 85.4467 19.1022V3.30828H94.0463C94.4871 3.30828 94.9287 2.98813 95.0389 2.56127C95.1491 2.13441 94.7084 1.70755 94.2667 1.60083C94.0463 1.60083 93.9361 1.60083 93.9361 1.70755Z" fill="white" style="fill:white;fill-opacity:1;"/>
</g>
</g>
<defs>
<clipPath id="clip0_1_7">
<rect width="200" height="20" fill="white" style="fill:white;fill-opacity:1;"/>
</clipPath>
</defs>
</svg>
