<svg width="200" height="33" viewBox="0 0 200 33" fill="none" xmlns="http://www.w3.org/2000/svg">
<g clip-path="url(#clip0_1_23)">
<path d="M110.318 32.2753L102.937 21.7281C102.937 21.7281 102.891 21.6823 102.846 21.6823C106.582 20.986 108.982 16.6178 108.982 11.505C108.982 7.13669 107.643 3.88529 105.8 2.44451C104 0.863523 101.463 0.445312 95.8359 0.445312H68.5751C68.4359 0.445312 68.3447 0.537174 68.3447 0.677382V32.3213C68.3447 32.4615 68.4359 32.5534 68.5751 32.5534H77.7996C77.9389 32.5534 78.0301 32.459 78.0301 32.3213V24.6992C78.0301 24.559 78.1213 24.4671 78.2604 24.4671H93.0666C93.1578 24.4671 93.2971 24.513 93.3427 24.6073L98.7852 32.4132C98.8308 32.5049 98.9701 32.5534 99.0613 32.5534H110.179C110.364 32.5534 110.41 32.413 110.318 32.2753ZM93.1602 16.6154H78.2604C78.1213 16.6154 78.0301 16.5235 78.0301 16.3833V8.53155C78.0301 8.39133 78.1213 8.29947 78.2604 8.29947H93.4818C96.4335 8.29947 97.2639 8.48561 97.9573 9.18182C98.6028 9.92397 98.7877 10.7604 98.7877 12.8514C98.7877 16.011 97.8182 16.6154 93.1602 16.6154Z" fill="#00C58B" style="fill:#00C58B;fill:color(display-p3 0.0000 0.7725 0.5451);fill-opacity:1;"/>
<path d="M199.222 9.15712C198.578 4.04672 196.178 1.48911 191.196 0.560821C189.029 0.188541 186.169 0.0966797 176.99 0.0966797C168.548 0.0966797 165.596 0.28282 162.966 1.02738C159.369 2.1418 157.478 3.90894 156.554 7.34648C155.999 9.52941 155.908 10.8324 155.908 16.3151C155.908 23.2845 156.184 25.7018 157.43 28.025C158.629 30.4423 160.705 31.7889 164.257 32.3933C166.148 32.7655 170.023 32.9033 177.588 32.9033C180.724 32.9033 185.014 32.8574 186.721 32.7631C191.379 32.5769 194.053 31.8348 195.945 30.2079C198.712 27.9307 199.496 24.7712 199.496 17.0113C199.496 13.1072 199.403 10.506 199.221 9.15712M188.66 23.2362C187.598 24.7688 185.893 25.0491 177.496 25.0491C170.208 25.0491 168.593 24.8631 167.302 23.7946C166.102 22.8179 165.733 21.0992 165.733 16.3586C165.733 11.618 166.102 10.1313 167.393 9.06284C168.639 8.22641 170.623 7.94842 177.726 7.94842C189.674 7.94842 189.857 8.04269 189.857 16.1265C189.857 20.4004 189.581 22.0273 188.657 23.2362" fill="#00C58B" style="fill:#00C58B;fill:color(display-p3 0.0000 0.7725 0.5451);fill-opacity:1;"/>
<path d="M141.428 24.3996C140.091 24.958 139.028 25.0038 131.834 25.0038C122.516 25.0038 121.779 24.4454 121.779 16.734C121.779 11.5293 122.055 10.2287 123.116 9.11186C124.315 8.13523 125.791 7.90315 133.725 7.90315C142.167 7.90315 142.904 8.22951 143.043 11.713H152.361V10.6445C152.361 5.90396 151.161 3.07076 148.624 1.77019C145.858 0.469627 143.228 0.189209 131.373 0.189209C122.379 0.189209 119.333 0.60742 116.473 2.28027C113.106 4.23111 112.137 7.2988 112.137 15.8033C112.137 25.3302 113.058 28.7219 116.195 30.7186C118.825 32.3915 121.776 32.8097 130.955 32.8097C137.322 32.8097 141.149 32.7637 143.086 32.5777C148.113 32.2513 150.698 30.9508 151.943 28.1635C152.589 26.7226 152.728 25.1442 152.774 20.4495H143.364C143.364 22.8185 142.81 23.7952 141.428 24.3996Z" fill="#00C58B" style="fill:#00C58B;fill:color(display-p3 0.0000 0.7725 0.5451);fill-opacity:1;"/>
<path d="M53.2271 0.677382V32.3213C53.2271 32.4615 53.3183 32.5534 53.4574 32.5534H62.7755C62.9146 32.5534 63.0058 32.4615 63.0058 32.3213V0.677382C63.0058 0.537174 62.9146 0.445312 62.7755 0.445312H53.4574C53.3183 0.445312 53.2271 0.537174 53.2271 0.677382Z" fill="#00C58B" style="fill:#00C58B;fill:color(display-p3 0.0000 0.7725 0.5451);fill-opacity:1;"/>
<path d="M0.545596 32.2753C0.452007 32.4615 0.500002 32.5534 0.684781 32.5534H11.6635C11.7547 32.5534 11.8939 32.4615 11.9395 32.3672L14.9847 27.4429C15.0495 27.3366 15.2103 27.2569 15.3087 27.2569H37.9238C38.0629 27.2569 38.1541 27.3486 38.1541 27.4889V32.3213C38.1541 32.4615 38.2453 32.5534 38.3845 32.5534H47.657C47.7962 32.5534 47.8874 32.4615 47.8874 32.3213V0.677382C47.8874 0.537174 47.7962 0.445312 47.657 0.445312H30.2543C24.9963 0.445312 19.5058 4.39536 16.9693 8.11333L0.545596 32.2753ZM32.5579 8.29706H37.9213C38.0605 8.29706 38.1517 8.38892 38.1517 8.52912V19.1705C38.1517 19.3108 38.0605 19.4027 37.9213 19.4027H22.0951C21.1712 19.4027 20.5977 19.4364 19.8707 19.7266L19.7434 19.5017C21.0465 18.4066 21.3463 17.7734 21.6703 17.3091L25.222 12.1045C26.6067 10.1077 28.9584 8.29463 32.5555 8.29463" fill="#00C58B" style="fill:#00C58B;fill:color(display-p3 0.0000 0.7725 0.5451);fill-opacity:1;"/>
</g>
<defs>
<clipPath id="clip0_1_23">
<rect width="200" height="33" fill="white" style="fill:white;fill-opacity:1;"/>
</clipPath>
</defs>
</svg>
