<svg width="200" height="60" viewBox="0 0 200 60" fill="none" xmlns="http://www.w3.org/2000/svg">
<g clip-path="url(#clip0_1_38)">
<path d="M0.0144279 41.9915C0.0144279 30.5522 10.0274 25.2981 23.7628 23.9522C37.3395 22.6064 42.3749 21.7474 42.3749 18.7981V18.6836C42.3749 12.8852 37.2384 9.8214 27.9758 9.8214C18.2369 9.8214 12.711 13.1 12.711 20.4589H1.19752C1.19752 7.41616 12.3936 0 28.0335 0C42.4326 0 54.1191 6.55715 54.1191 19.3278V57.9406H42.75V51.4408C38.6379 56.1081 31.1209 59.0716 21.6996 59.0716C8.71447 59.0716 0 52.7292 0 41.9915H0.0144279ZM42.4326 34.7901V29.8507C37.9454 31.1393 32.1454 31.8981 26.4174 32.4852C16.6787 33.4013 11.7587 35.3915 11.7587 41.1325C11.7587 46.8736 15.7697 49.4077 24.1523 49.4077C34.223 49.4077 42.447 44.6832 42.447 34.8044L42.4326 34.7901Z" fill="white" style="fill:white;fill-opacity:1;"/>
<path d="M131.871 0.916504H143.457V57.9407H131.871V0.916504Z" fill="white" style="fill:white;fill-opacity:1;"/>
<path d="M149.834 41.7769V40.3309H161.521V41.4046C161.521 46.6161 166.657 49.3505 175.097 49.3505C182.456 49.3505 188.515 47.1457 188.515 42.321C188.515 37.1668 183.422 35.5491 172.933 33.7881C161.564 31.8552 150.642 27.8322 150.642 16.7652C150.642 5.69822 161.405 0.0144043 174.838 0.0144043C188.27 0.0144043 198.976 6.35681 198.976 17.567V18.5405H187.347V17.7817C187.347 12.1981 181.229 9.67832 174.895 9.67832C168.994 9.67832 162.184 11.3391 162.184 16.393C162.184 21.4468 168.244 23.2078 177.492 24.8257C188.688 26.7584 200 30.3519 200 41.8484C200 53.3449 188.039 59.0859 174.78 59.0859C161.521 59.0859 149.834 53.073 149.834 41.7912V41.7769Z" fill="white" style="fill:white;fill-opacity:1;"/>
<path d="M115.741 0C107.892 0 102.597 3.49334 99.5096 8.48993V0.916283H87.7651V57.9406H99.5096V28.1901C99.5096 20.1296 102.871 10.795 114.717 10.795C121.555 10.795 123.965 13.7729 123.965 13.7729V1.40306C123.316 0.973551 120.344 0 115.741 0Z" fill="white" style="fill:white;fill-opacity:1;"/>
<path d="M79.3534 0.91626H67.7676V29.3782H79.3534V0.91626Z" fill="white" style="fill:white;fill-opacity:1;"/>
<path d="M73.7409 29.3784H62.1553V57.9407H73.7409V29.3784Z" fill="white" style="fill:white;fill-opacity:1;"/>
</g>
<defs>
<clipPath id="clip0_1_38">
<rect width="200" height="60" fill="white" style="fill:white;fill-opacity:1;"/>
</clipPath>
</defs>
</svg>
