<svg width="201" height="34" viewBox="0 0 201 34" fill="none" xmlns="http://www.w3.org/2000/svg">
<g clip-path="url(#clip0_1_45)">
<path d="M157.825 7.85105C157.825 7.58935 157.626 7.39307 157.362 7.39307H155.598C154.672 7.39307 153.9 8.15638 153.9 9.07235V9.33405V10.8171C153.9 11.057 154.098 11.275 154.363 11.275H156.127C157.075 11.275 157.825 10.5117 157.825 9.59576V9.33405V7.85105Z" fill="#00C58B" style="fill:#00C58B;fill:color(display-p3 0.0000 0.7725 0.5451);fill-opacity:1;"/>
<path d="M113.305 0.436035H111.563C110.614 0.436035 109.865 1.19934 109.865 2.11532V33.1493C109.865 33.411 110.063 33.6073 110.328 33.6073H112.07C112.996 33.6073 113.768 32.844 113.768 31.928V0.894021C113.768 0.654124 113.569 0.436035 113.305 0.436035Z" fill="#00C58B" style="fill:#00C58B;fill:color(display-p3 0.0000 0.7725 0.5451);fill-opacity:1;"/>
<path d="M157.34 14.481H155.598C154.672 14.481 153.9 15.2443 153.9 16.1602V33.1493C153.9 33.411 154.098 33.6073 154.363 33.6073H156.105C157.031 33.6073 157.803 32.8658 157.803 31.928V14.9171C157.803 14.6772 157.582 14.481 157.34 14.481Z" fill="#00C58B" style="fill:#00C58B;fill:color(display-p3 0.0000 0.7725 0.5451);fill-opacity:1;"/>
<path d="M105.741 31.6227C105.719 31.5137 105.697 31.4264 105.675 31.3392L97.4721 1.28658C97.3618 0.806786 96.9429 0.436035 96.4136 0.436035C96.0167 0.436035 95.6639 0.654124 95.4655 0.981256L78.5967 32.7349L78.5085 32.8876C78.4864 32.953 78.4644 33.0185 78.4644 33.1057C78.4644 33.3674 78.6849 33.5637 78.9274 33.5637H81.5294C82.213 33.5637 82.8084 33.1711 83.073 32.5823L86.0498 26.9556C86.3806 26.3013 87.0421 25.538 88.4092 25.538H97.9792C98.751 25.538 99.8536 25.9742 100.273 27.1301L101.794 33.1929C101.838 33.411 102.015 33.5637 102.257 33.5637H104.087C105.035 33.5637 105.785 32.8222 105.785 31.8844C105.763 31.819 105.763 31.7317 105.741 31.6227ZM98.6187 20.522C98.7069 20.8491 98.751 21.7215 97.869 21.7215H90.1733C89.2251 21.7215 89.2913 20.8273 89.5118 20.4348L95.0244 9.9665C95.3111 9.44309 95.7962 9.225 96.0167 10.0537L98.6187 20.522Z" fill="#00C58B" style="fill:#00C58B;fill:color(display-p3 0.0000 0.7725 0.5451);fill-opacity:1;"/>
<path d="M75.6859 0.196218L50.6142 10.0538L41.0442 13.8268V13.8049C40.6694 13.9794 40.2504 14.0885 39.7873 14.0885C39.1699 14.0885 38.5746 13.8922 38.1115 13.565L28.7399 7.3059L20.4268 1.76646C19.1699 0.91591 17.5602 1.33028 16.8766 2.66062L1.28678 32.3861C0.581161 33.7164 1.17653 34.3489 2.58778 33.8037L28.7179 23.5535L37.45 20.1295C37.7807 19.9987 38.1115 19.9332 38.4863 19.9332C39.1258 19.9332 39.6991 20.1295 40.1842 20.4785L50.6142 27.4355L57.8469 32.2552C59.1038 33.1058 60.7135 32.6914 61.397 31.3611L76.9869 1.61379C77.6705 0.283453 77.0972 -0.349003 75.6859 0.196218ZM30.8788 17.796L28.7179 18.6465L12.3562 25.0801C11.6727 25.3418 10.8347 25.669 10.5922 25.4291C10.3276 25.1674 10.7024 24.3386 11.0553 23.6625L18.5966 9.29051C18.9494 8.63624 19.4566 8.00379 20.096 7.82932C20.7576 7.65485 21.5293 7.98198 22.1688 8.39635L28.7399 12.7799L31.364 14.5464C31.827 14.8954 32.7752 15.5278 32.7752 16.1385C32.7532 16.9672 31.5845 17.5343 30.8788 17.796ZM50.6142 14.939L65.9395 8.91976C66.0497 8.87614 66.1379 8.85433 66.2482 8.83252C66.8877 8.59263 67.5712 8.35273 67.7917 8.57082C68.0343 8.83252 67.6815 9.66126 67.3287 10.3373L59.7873 24.7094C59.4345 25.3636 58.9274 26.0179 58.3099 26.1706C57.8248 26.3014 57.2956 26.1706 56.7884 25.9089C56.5679 25.8434 56.3695 25.7562 56.149 25.6253L50.6363 21.9396L47.6815 19.955C47.5933 19.8678 46.4026 19.0173 46.3364 18.9082C45.9836 18.6029 45.6528 18.2103 45.6528 17.8614C45.6528 17.2289 46.3805 16.7273 47.02 16.422L50.6142 14.939Z" fill="#00C58B" style="fill:#00C58B;fill:color(display-p3 0.0000 0.7725 0.5451);fill-opacity:1;"/>
<path d="M170.504 13.8704C164.881 13.8704 161.309 18.3848 161.309 23.9242C161.309 29.4637 164.881 33.9781 170.504 33.9781C176.127 33.9781 179.699 29.4637 179.699 23.9242C179.699 18.3848 176.127 13.8704 170.504 13.8704ZM170.504 30.2488C167.152 30.2488 165.278 27.4137 165.278 23.9242C165.278 20.4348 167.174 17.5997 170.504 17.5997C173.856 17.5997 175.73 20.4348 175.73 23.9242C175.73 27.4137 173.834 30.2488 170.504 30.2488Z" fill="#00C58B" style="fill:#00C58B;fill:color(display-p3 0.0000 0.7725 0.5451);fill-opacity:1;"/>
<path d="M149.865 32.1463L149.6 31.6011C149.093 30.5978 147.99 30.0308 146.888 30.2489C145.278 30.5542 143.756 30.3361 142.698 29.4856C141.772 28.7441 141.441 27.9372 141.441 25.4728C141.441 24.4478 141.441 21.6126 141.441 18.603C141.441 18.3413 141.662 18.1232 141.926 18.1232H147.196C148.652 18.1232 149.842 16.9455 149.842 15.5061V14.8519C149.842 14.612 149.644 14.4375 149.424 14.4375H141.904C141.662 14.4375 141.463 14.2412 141.463 14.0013C141.463 11.2534 141.463 8.85442 141.463 7.85121C141.463 7.5677 141.243 7.34961 140.956 7.34961H139.28C138.332 7.34961 137.582 8.11292 137.582 9.02889C137.582 13.0853 137.582 23.2265 137.582 25.4291C137.582 28.7659 138.2 31.2303 140.625 32.7351C142.014 33.5857 144.175 33.9346 145.895 33.9346C147.174 33.9346 148.453 33.6293 149.446 33.2585C149.865 33.1495 150.085 32.6043 149.865 32.1463Z" fill="#00C58B" style="fill:#00C58B;fill:color(display-p3 0.0000 0.7725 0.5451);fill-opacity:1;"/>
<path d="M133.878 22.7465V31.9717C133.878 32.8659 133.15 33.6074 132.224 33.6074H130.46C130.195 33.6074 129.997 33.3893 129.997 33.1494V31.9499C129.997 31.819 129.843 31.7536 129.754 31.8408C128.52 33.0839 126.601 33.9999 124.859 33.9999C122.5 33.9999 120.647 33.4765 119.104 31.9281C118.045 30.8594 117.494 29.4201 117.494 27.8062C117.494 24.7748 119.92 22.9428 122.059 22.0923C123.977 21.3508 126.689 20.9364 129.556 20.7837C129.776 20.7837 129.953 20.6093 129.931 20.3912C129.931 19.6061 129.82 18.6465 128.652 17.8396C127.042 16.7273 124.991 16.9672 122.676 17.905C121.551 18.363 120.383 18.0358 119.501 17.1417C119.413 17.0544 119.28 16.9236 119.148 16.7709C118.817 16.422 118.861 15.8331 119.258 15.5714C122.897 13.1943 128.211 13.4124 130.703 14.9172C133.393 16.531 133.878 19.1263 133.878 22.7465ZM130.019 25.1019V24.4258C130.019 24.2077 129.843 24.0333 129.622 24.0333C127.527 24.0551 125.102 24.3168 123.734 24.862C122.5 25.3636 121.375 26.3014 121.375 27.7408C121.375 29.5291 122.875 30.5977 124.705 30.6195C125.807 30.6195 127.395 30.1179 128.652 28.7004C129.402 27.8498 130.019 26.8466 130.019 25.1019Z" fill="#00C58B" style="fill:#00C58B;fill:color(display-p3 0.0000 0.7725 0.5451);fill-opacity:1;"/>
<path d="M192.665 13.8704C190.526 13.8704 188.784 14.6991 187.285 15.9204C187.174 16.0076 186.998 15.9422 186.998 15.8113V14.9172C186.998 14.6555 186.799 14.4592 186.535 14.4592H184.793C183.867 14.4592 183.095 15.2007 183.095 16.1385V33.1494C183.095 33.4111 183.293 33.6074 183.558 33.6074H185.3C186.226 33.6074 186.998 32.8659 186.998 31.9281V22.6593C186.998 20.3258 188.696 17.6215 192.268 17.6215C195.62 17.6433 197.097 19.7151 197.097 22.3976V33.1494C197.097 33.4111 197.296 33.6074 197.56 33.6074H199.302C200.228 33.6074 201 32.8659 201 31.9281V22.2668C201 16.6401 197.097 13.8704 192.665 13.8704Z" fill="#00C58B" style="fill:#00C58B;fill:color(display-p3 0.0000 0.7725 0.5451);fill-opacity:1;"/>
</g>
<defs>
<clipPath id="clip0_1_45">
<rect width="201" height="34" fill="white" style="fill:white;fill-opacity:1;"/>
</clipPath>
</defs>
</svg>
