<svg width="200" height="61" viewBox="0 0 200 61" fill="none" xmlns="http://www.w3.org/2000/svg">
<g clip-path="url(#clip0_1_56)">
<mask id="mask0_1_56" style="mask-type:luminance" maskUnits="userSpaceOnUse" x="0" y="0" width="200" height="61">
<path d="M199.213 0.905518H0.802246V60.8218H199.213V0.905518Z" fill="white" style="fill:white;fill-opacity:1;"/>
</mask>
<g mask="url(#mask0_1_56)">
<path d="M128.43 14.4221V48.9094H138.257V24.5243C138.257 23.2133 138.999 22.2909 140.216 22.2909C141.656 22.2909 143.158 22.9343 145.583 22.9343C150.731 22.9343 152.308 16.1201 154.459 15.0042C154.118 14.7455 151.507 13.3467 146.851 13.3467C141.104 13.3467 138.664 17.0754 138.056 18.3253C137.515 15.7669 135.987 14.0026 131.662 14.0026C129.976 14.0026 128.85 14.2996 128.43 14.4221ZM162.105 9.88781C165.171 9.88781 167.176 7.88817 167.176 5.33515C167.176 3.01136 165.257 0.903809 162.105 0.903809C158.815 0.903809 157.033 3.04045 157.033 5.33515C157.033 7.94519 159.045 9.88781 162.105 9.88781ZM160.5 13.9265C158.617 13.9265 157.734 14.1729 157.205 14.3283V42.6466C157.205 46.2348 158.364 49.1542 163.783 49.1542C165.501 49.1542 166.957 48.8439 167.059 48.8237V20.5457C167.059 16.1331 165.3 13.9265 160.5 13.9265ZM186.036 13.2686C176.99 13.2686 171.673 18.0325 171.673 23.9467C171.673 29.7897 175.72 33.1684 181.202 34.389C182.294 34.6324 183.81 34.9885 185.024 35.2667C188.152 35.9811 189.287 37.2844 189.287 39.1938C189.287 41.0904 187.367 42.6542 183.084 42.6542C178.106 42.6542 174.169 39.6313 173.589 39.1778C172.507 40.8365 171.251 42.5418 171.251 44.3093C171.251 47.3131 175.931 49.4752 183.672 49.4752C194.472 49.4752 199.21 43.7346 199.21 37.9171C199.21 32.0473 194.966 28.4518 188.567 27.0205C187.651 26.8158 186.158 26.4414 184.968 26.165C182.657 25.6279 181.547 24.6749 181.547 23.0223C181.547 21.4523 182.873 20.0589 186.755 20.0589C191.911 20.0589 195.64 22.8431 196.362 23.4066C197.233 21.9981 198.436 20.0589 198.436 18.4948C198.436 15.3027 193.071 13.2686 186.036 13.2686ZM108.336 38.615C108.336 38.615 103.382 22.9772 102.269 19.4967C101.11 15.8767 99.3704 13.9265 94.4556 13.9265C92.3677 13.9265 91.2588 14.2602 90.9558 14.3539L102.436 48.9137H105.266C104.52 51.1859 103.607 53.9473 99.458 53.9473C96.4458 53.9473 94.5739 52.8214 94.1558 52.5394C93.3715 53.8845 92.5242 55.5432 92.5242 56.8266C92.5242 59.2359 95.1718 60.8207 100.368 60.8207C110.157 60.8207 112.491 54.6253 114.704 47.3017C116.757 40.5041 124.664 14.3344 124.664 14.3344C124.423 14.2652 122.846 13.9265 120.932 13.9265C117.662 13.9265 114.899 15.716 113.795 19.6062C112.631 23.7108 108.336 38.615 108.336 38.615ZM79.4677 48.9094H89.3199V25.8795C89.3199 17.8071 85.1142 13.269 77.7418 13.269C71.0904 13.269 67.8431 17.1374 66.7137 18.3888C65.9688 17.0987 63.8593 13.269 56.9658 13.269C50.8585 13.269 48.1937 16.5828 47.3099 17.6188C46.9331 16.4298 45.6469 13.9265 41.1923 13.9265C39.6796 13.9265 38.3764 14.207 37.9293 14.3333V48.9094H47.7804V26.1299C47.7804 23.3759 49.1569 21.1565 53.2356 21.1565C57.6156 21.1565 58.6983 23.7203 58.6983 26.1299V48.9094H68.5493V26.1299C68.5493 23.3759 69.9256 21.1565 74.0045 21.1565C78.3845 21.1565 79.4677 23.7203 79.4677 26.1299V48.9094ZM10.6533 37.8866C10.6533 40.8368 12.7061 43.0582 16.5019 43.0582C19.5863 43.0582 22.4966 40.7111 22.4966 39.1781V31.7626H21.1947C14.1672 31.7626 10.6533 33.7245 10.6533 37.8866ZM32.348 27.1938V41.7754C32.348 46.0154 33.5085 47.7055 34.0423 48.3784C33.5558 48.6134 32.0969 49.4755 28.6458 49.4755C23.9241 49.4755 23.3122 46.469 23.0457 45.4369C22.3713 46.2661 19.2343 49.4755 12.8334 49.4755C5.61791 49.4755 0.802246 44.6384 0.802246 38.036C0.802246 30.0253 8.25839 26.6304 19.239 26.6304H22.4966V25.6125C22.4966 22.8279 20.8574 20.0911 15.0824 20.0911C9.03542 20.0911 5.6278 23.5141 4.89769 24.1464C4.14483 23.0433 2.76423 21.0719 2.76423 19.124C2.76423 15.9349 7.27129 13.0344 17.162 13.0344C30.1969 13.0344 32.348 21.8603 32.348 27.1938Z" fill="white" style="fill:white;fill-opacity:1;"/>
</g>
</g>
<defs>
<clipPath id="clip0_1_56">
<rect width="200" height="61" fill="white" style="fill:white;fill-opacity:1;"/>
</clipPath>
</defs>
</svg>
