<svg width="200" height="39" viewBox="0 0 200 39" fill="none" xmlns="http://www.w3.org/2000/svg">
<g clip-path="url(#clip0_1_62)">
<mask id="mask0_1_62" style="mask-type:luminance" maskUnits="userSpaceOnUse" x="0" y="0" width="200" height="39">
<path d="M199.675 0H0V39H199.675V0Z" fill="white" style="fill:white;fill-opacity:1;"/>
</mask>
<g mask="url(#mask0_1_62)">
<path d="M67.2063 19.2665V19.2114H67.1741L67.2063 19.2665Z" fill="white" style="fill:white;fill-opacity:1;"/>
<path d="M61.1496 35.3553V13.7849C61.1496 6.35361 54.9246 0.314209 47.2778 0.314209C39.6309 0.314209 33.406 6.35361 33.406 13.7849V35.3553C33.406 36.8888 34.7152 38.1077 36.2494 38.1077C37.7835 38.1077 39.0929 36.8573 39.0929 35.3553V14.0365C39.0929 10.0575 41.9925 6.55021 46.0328 5.93683C51.0931 5.23695 55.4467 9.0273 55.4467 13.7613V35.3317C55.4467 36.8651 56.6996 38.084 58.29 38.084C59.8483 38.1077 61.1496 36.8809 61.1496 35.3553Z" fill="white" style="fill:white;fill-opacity:1;"/>
<path d="M157.33 35.3553V13.7849C157.33 6.35361 151.105 0.314209 143.458 0.314209C135.812 0.314209 129.586 6.35361 129.586 13.7849V35.3553C129.586 36.8888 130.839 38.1077 132.43 38.1077C134.019 38.1077 135.273 36.8573 135.273 35.3553V14.0365C135.273 10.0575 138.173 6.55021 142.213 5.93683C147.273 5.23695 151.627 9.0273 151.627 13.7613V35.3317C151.627 36.8651 152.879 38.084 154.47 38.084C156.077 38.1077 157.33 36.8809 157.33 35.3553Z" fill="white" style="fill:white;fill-opacity:1;"/>
<path d="M96.1787 3.06654V24.637C96.1787 32.0683 102.404 38.1077 110.051 38.1077C117.697 38.1077 123.922 32.0683 123.922 24.637V3.06654C123.922 1.5331 122.669 0.314209 121.079 0.314209C119.489 0.314209 118.235 1.54097 118.235 3.06654V24.3853C118.235 28.3644 115.336 31.8717 111.296 32.4851C106.291 33.185 101.882 29.3946 101.882 24.6606V3.06654C101.882 1.5331 100.629 0.314209 99.0382 0.314209C97.4559 0.314209 96.1787 1.56455 96.1787 3.06654Z" fill="white" style="fill:white;fill-opacity:1;"/>
<path d="M0 21.9714V30.4014C0 34.7186 3.55832 38.1709 7.99216 38.1709H19.9925C24.2817 38.1709 27.6955 34.8052 27.6955 30.6846V12.5899C27.6955 5.79557 22.0648 0.345947 15.0686 0.345947C8.699 0.345947 4.23304 4.52163 2.87557 10.1128C2.44986 11.835 3.89568 13.5335 5.71901 13.5335C7.02829 13.5335 8.16084 12.7 8.50623 11.4182C9.4701 8.10753 11.5746 5.77198 15.3578 5.85061C19.1088 5.93711 22.0086 9.13769 22.0086 12.7786V16.3645H5.68688C2.56231 16.4038 0 18.8809 0 21.9714ZM5.68688 24.0239C5.68688 22.7971 6.70699 21.8221 7.96003 21.8221H19.7595C21.0126 21.8221 21.9765 22.7971 21.9765 23.9689V28.7815C21.9765 30.8968 20.2414 32.564 18.0808 32.564H9.40584C7.33351 32.564 5.67886 30.9755 5.67886 28.978V24.0239H5.68688Z" fill="white" style="fill:white;fill-opacity:1;"/>
<path d="M163.016 21.9714V30.4014C163.016 34.7186 166.566 38.1709 171.008 38.1709H183.009C187.297 38.1709 190.712 34.8052 190.712 30.6846V12.5899C190.712 5.79557 185.081 0.345947 178.092 0.345947C171.723 0.345947 167.257 4.52163 165.9 10.1128C165.474 11.835 166.92 13.5335 168.743 13.5335C170.052 13.5335 171.184 12.7 171.53 11.4182C172.495 8.10753 174.599 5.77198 178.382 5.85061C182.134 5.93711 185.033 9.13769 185.033 12.7786V16.3645H168.743C165.578 16.4038 163.016 18.8809 163.016 21.9714ZM168.76 24.0239C168.76 22.7971 169.779 21.8221 171.033 21.8221H182.833C184.084 21.8221 185.049 22.7971 185.049 23.9689V28.7815C185.049 30.8968 183.314 32.564 181.153 32.564H172.486C170.414 32.564 168.76 30.9755 168.76 28.978V24.0239Z" fill="white" style="fill:white;fill-opacity:1;"/>
<path d="M84.7492 3.122V24.4407C84.7492 28.1682 81.6807 31.9272 77.8976 32.4854C75.4557 32.8472 73.1183 32.1552 71.4476 30.7633C70.5399 30.0084 69.1745 29.9532 68.1222 30.6217C66.4755 31.6518 66.331 33.9088 67.8411 35.0726C70.2588 36.9914 73.3031 38.108 76.5963 38.108C84.2431 38.108 90.4681 32.0686 90.4681 24.6374V3.122C90.4681 1.58856 89.2151 0.36967 87.6246 0.36967C86.0584 0.314624 84.7492 1.56497 84.7492 3.122Z" fill="white" style="fill:white;fill-opacity:1;"/>
<path fill-rule="evenodd" clip-rule="evenodd" d="M195.94 0.629104C194.232 0.629104 192.848 1.98459 192.848 3.65667C192.848 5.32875 194.232 6.68424 195.94 6.68424C197.648 6.68424 199.032 5.32875 199.032 3.65667C199.032 1.98459 197.648 0.629104 195.94 0.629104ZM192.205 3.65667C192.205 1.63714 193.878 0 195.94 0C198.002 0 199.675 1.63714 199.675 3.65667C199.675 5.67619 198.002 7.31333 195.94 7.31333C193.878 7.31333 192.205 5.67619 192.205 3.65667Z" fill="white" style="fill:white;fill-opacity:1;"/>
<path d="M196.499 5.06085L195.944 4.2784H195.334V5.06085H194.67V2.25269H195.913C196.679 2.25269 197.158 2.64194 197.158 3.27183C197.158 3.69333 196.942 4.0016 196.568 4.15808L197.212 5.06085H196.499ZM195.875 2.78192H195.335V3.76096H195.875C196.282 3.76096 196.486 3.57616 196.486 3.27183C196.486 2.9675 196.282 2.78192 195.875 2.78192Z" fill="white" style="fill:white;fill-opacity:1;"/>
</g>
</g>
<defs>
<clipPath id="clip0_1_62">
<rect width="200" height="39" fill="white" style="fill:white;fill-opacity:1;"/>
</clipPath>
</defs>
</svg>
