<svg width="200" height="55" viewBox="0 0 200 55" fill="none" xmlns="http://www.w3.org/2000/svg">
<g clip-path="url(#clip0_1_99)">
<mask id="mask0_1_99" style="mask-type:luminance" maskUnits="userSpaceOnUse" x="0" y="0" width="200" height="55">
<path d="M200 0H0V54.6857H200V0Z" fill="white" style="fill:white;fill-opacity:1;"/>
</mask>
<g mask="url(#mask0_1_99)">
<path d="M14.1406 0V5.46071L15.7422 3.85H150.312L131.445 50.7964H3.82812V15.8321L5.42969 14.2214H0V54.6857H200V0H14.1406ZM143.086 44.4714V37.7536L148.867 41.1321L143.086 44.4714ZM179.062 44.0393L174.453 32.3714H161.094L156.484 44.0393H153.906L167.188 10.8036H168.633L181.602 44.0393H179.062ZM187.773 44.0393H185.547V19.4464H187.773V44.0393ZM187.734 14.1821C187.5 14.575 187.07 14.7714 186.641 14.7714C185.703 14.7714 185.234 14.025 185.234 12.5714C185.234 11.1179 185.703 10.4107 186.641 10.4107C187.07 10.4107 187.5 10.6071 187.734 10.9607C188.008 11.4321 188.164 12.0214 188.125 12.5714C188.164 13.1607 188.008 13.7107 187.734 14.1821Z" fill="#00C58B" style="fill:#00C58B;fill:color(display-p3 0.0000 0.7725 0.5451);fill-opacity:1;"/>
<path d="M166.523 18.4249L161.953 30.2892H173.711L169.219 18.3463C168.828 17.4035 168.398 16.1071 167.852 14.4963C167.5 15.8321 167.031 17.1678 166.523 18.4249Z" fill="#00C58B" style="fill:#00C58B;fill:color(display-p3 0.0000 0.7725 0.5451);fill-opacity:1;"/>
<path d="M19.8828 44.0392L22.2656 36.1428H34.2578L36.6406 44.0392H44.1797L32.5391 10.8035H23.9844L12.3828 44.0392H19.8828ZM28.2812 15.9499C28.3984 16.4999 28.5938 17.2463 28.8672 18.1499C29.1406 19.0928 30.3906 23.1392 32.5781 30.2499H23.9844C26.3672 22.6678 27.8125 17.8749 28.2812 15.9499Z" fill="#00C58B" style="fill:#00C58B;fill:color(display-p3 0.0000 0.7725 0.5451);fill-opacity:1;"/>
<path d="M54.3359 32.1358C54.3359 29.1108 54.7656 26.9893 55.625 25.6929C56.4844 24.3965 57.8516 23.7679 59.7656 23.7679C60.9766 23.65 62.1094 24.2 62.8516 25.1429C63.4766 26.0072 63.8281 27.4215 63.8281 29.2679V44.0393H70.7031V27.5C70.7031 24.5143 69.9609 22.1965 68.4375 20.625C66.9141 19.0143 64.6875 18.2286 61.7969 18.2286C60.2344 18.1893 58.6719 18.5036 57.2266 19.1715C55.9375 19.7608 54.8047 20.7429 54.0625 21.9608H53.6719L52.7344 18.7393H47.5V44.0393H54.375V32.1358H54.3359Z" fill="#00C58B" style="fill:#00C58B;fill:color(display-p3 0.0000 0.7725 0.5451);fill-opacity:1;"/>
<path d="M83.4375 32.1358C83.4375 29.1108 83.8672 26.9893 84.7266 25.6929C85.5859 24.3965 86.9531 23.7679 88.9063 23.7679C90.1172 23.65 91.25 24.2 91.9922 25.1429C92.6172 26.0072 92.9688 27.4215 92.9688 29.2679V44.0393H99.8438V27.5C99.8438 24.5143 99.1016 22.1965 97.5781 20.625C96.0547 19.0143 93.8281 18.2286 90.9375 18.2286C89.375 18.1893 87.8125 18.5036 86.3672 19.1715C85.0781 19.7608 83.9453 20.7429 83.2031 21.9608H82.8125L81.875 18.7393H76.5625V44.0393H83.4375V32.1358Z" fill="#00C58B" style="fill:#00C58B;fill:color(display-p3 0.0000 0.7725 0.5451);fill-opacity:1;"/>
<path d="M110.039 42.8607C111.992 43.9607 114.219 44.5107 116.445 44.4714C120.312 44.4714 123.32 43.3321 125.469 41.0143C127.617 38.6964 128.711 35.475 128.711 31.35C128.75 28.9536 128.242 26.5571 127.226 24.3571C126.289 22.4321 124.805 20.8607 122.969 19.8C121.016 18.7 118.789 18.15 116.562 18.2286C112.656 18.1893 109.648 19.3679 107.5 21.6857C105.351 24.0036 104.297 27.225 104.297 31.35C104.258 33.7464 104.766 36.1429 105.781 38.3429C106.719 40.2286 108.203 41.8 110.039 42.8607ZM112.539 25.7321C113.359 24.5143 114.648 23.8464 116.523 23.8464C118.398 23.8464 119.687 24.4357 120.508 25.6929C121.328 26.95 121.719 28.7964 121.719 31.3107C121.719 33.825 121.328 35.7107 120.508 37.0071C119.687 38.3036 118.398 38.9321 116.562 38.9321C114.726 38.9321 113.398 38.2643 112.578 37.0071C111.719 35.75 111.328 33.825 111.328 31.35C111.328 28.7964 111.719 26.95 112.539 25.7321Z" fill="#00C58B" style="fill:#00C58B;fill:color(display-p3 0.0000 0.7725 0.5451);fill-opacity:1;"/>
<path d="M14.1406 14.2214V5.46069L5.42969 14.2214H14.1406Z" fill="#00C58B" style="fill:#00C58B;fill:color(display-p3 0.0000 0.7725 0.5451);fill-opacity:1;"/>
<path d="M14.1406 5.46071V0L0 14.2214H5.42969L14.1406 5.46071Z" fill="#00C58B" style="fill:#00C58B;fill:color(display-p3 0.0000 0.7725 0.5451);fill-opacity:1;"/>
<path d="M14.1406 5.46071V0L0 14.2214H5.42969L14.1406 5.46071Z" fill="#00C58B" style="fill:#00C58B;fill:color(display-p3 0.0000 0.7725 0.5451);fill-opacity:1;"/>
</g>
</g>
<defs>
<clipPath id="clip0_1_99">
<rect width="200" height="55" fill="white" style="fill:white;fill-opacity:1;"/>
</clipPath>
</defs>
</svg>
