<svg width="200" height="75" viewBox="0 0 200 75" fill="none" xmlns="http://www.w3.org/2000/svg">
<g clip-path="url(#clip0_1_80)">
<mask id="mask0_1_80" style="mask-type:luminance" maskUnits="userSpaceOnUse" x="0" y="0" width="200" height="75">
<path d="M200 0H0V75H200V0Z" fill="white" style="fill:white;fill-opacity:1;"/>
</mask>
<g mask="url(#mask0_1_80)">
<path d="M73.9517 41.1012C73.9517 45.3167 73.5086 48.3434 72.6105 50.1704C71.7123 51.9969 70.4514 52.9132 68.8279 52.9132H68.8222C67.3658 52.9132 66.0763 52.026 64.9593 50.2572C63.8368 48.4887 63.2783 45.6589 63.2783 41.7796V33.6785C63.2783 29.9094 63.7389 27.0101 64.6658 24.9864C65.5927 22.9627 66.9512 21.9481 68.7418 21.9481C72.2133 21.9481 73.9517 26.0826 73.9517 34.3514V41.1012ZM82.812 20.1387C81.7755 18.2542 80.4862 16.7986 78.9491 15.784C77.4063 14.7691 75.6042 14.2588 73.5313 14.2588C70.7337 14.2588 68.3964 15.0882 66.5196 16.7524C64.6428 18.4166 63.2841 20.5444 62.4436 23.1366H62.0232L61.4363 15.0995H51.6089L51.6146 15.1053V75.0001H62.7833V54.8671H63.2037C64.2687 56.7285 65.5984 58.1957 67.193 59.2682C68.788 60.3353 70.6473 60.8747 72.7773 60.8747C74.5102 60.8747 76.1796 60.4223 77.7744 59.5234C79.3692 58.6247 80.7682 57.2679 81.9715 55.4642C83.1744 53.6611 84.1245 51.4171 84.8269 48.7378C85.5235 46.059 85.8744 42.9683 85.8744 39.4719V35.917C85.8744 32.6466 85.6212 29.6718 85.1204 26.9928C84.6193 24.3138 83.8481 22.0292 82.812 20.1387Z" fill="#00C58B" style="fill:#00C58B;fill:color(display-p3 0.0000 0.7725 0.5451);fill-opacity:1;"/>
<path d="M113.811 41.1012C113.811 45.3167 113.368 48.3434 112.469 50.1704C111.577 51.9969 110.316 52.9132 108.693 52.9132H108.681C107.225 52.9132 105.935 52.026 104.819 50.2572C103.696 48.4887 103.138 45.6589 103.138 41.7796V33.6785C103.138 29.9094 103.604 27.0101 104.525 24.9864C105.452 22.9627 106.81 21.9481 108.601 21.9481C112.072 21.9481 113.811 26.0826 113.811 34.3514V41.1012ZM122.676 20.1387C121.64 18.2542 120.351 16.7986 118.814 15.784C117.271 14.7691 115.469 14.2588 113.396 14.2588C110.598 14.2588 108.261 15.0882 106.385 16.7524C104.508 18.4166 103.149 20.5444 102.308 23.1366H101.888L101.301 15.0995H91.4739L91.4796 15.1053V75.0001H102.648V54.8671H103.069C104.133 56.7285 105.463 58.1957 107.058 59.2682C108.652 60.3353 110.512 60.8747 112.642 60.8747C114.375 60.8747 116.045 60.4223 117.639 59.5234C119.234 58.6247 120.633 57.2679 121.836 55.4642C123.039 53.6611 123.99 51.4171 124.692 48.7378C125.389 46.059 125.739 42.9683 125.739 39.4719V35.917C125.739 32.6466 125.492 29.6718 124.985 26.9928C124.484 24.3138 123.713 22.0292 122.676 20.1387Z" fill="#00C58B" style="fill:#00C58B;fill:color(display-p3 0.0000 0.7725 0.5451);fill-opacity:1;"/>
<path d="M197.766 17.129C196.367 15.2196 194.068 14.259 190.876 14.259C188.635 14.259 186.405 15.0054 184.193 16.4983C181.981 17.9909 180.201 20.3401 178.859 23.5457H178.692L178.271 15.1037H167.843V59.9275H179.274V32.4096C179.274 29.5399 179.85 27.1905 180.996 25.3622C182.148 23.5339 183.56 22.6197 185.242 22.6197C186.423 22.6197 187.258 22.9727 187.765 23.6728C188.266 24.3728 188.52 25.4836 188.52 27.0054V59.9275H199.869V24.3903C199.869 21.4627 199.167 19.0441 197.766 17.129Z" fill="#00C58B" style="fill:#00C58B;fill:color(display-p3 0.0000 0.7725 0.5451);fill-opacity:1;"/>
<path d="M142.047 33.4365C142.047 29.6081 142.411 26.735 143.144 24.8178C143.871 22.9008 145.107 21.9452 146.852 21.9452C148.422 21.9452 149.56 22.791 150.264 24.4819C150.963 26.1733 151.315 29.1563 151.315 33.4365H142.047ZM146.852 14.2588C144.097 14.2588 141.683 14.8208 139.604 15.9502C137.525 17.0797 135.769 18.597 134.337 20.5145C132.905 22.4317 131.825 24.6964 131.092 27.3143C130.358 29.9322 129.994 32.7067 129.994 35.6377V39.356C129.994 42.8485 130.416 45.9361 131.259 48.6117C132.102 51.2875 133.292 53.5294 134.839 55.3307C136.381 57.132 138.224 58.4988 140.36 59.4313C142.497 60.3581 144.853 60.8272 147.435 60.8272C149.796 60.8272 151.83 60.4625 153.545 59.7269C153.799 59.6167 154.041 59.5008 154.29 59.3852C160.128 56.5992 162.686 50.216 162.686 44.0131H154.769C154.376 46.857 153.718 49.0868 152.788 50.7088C151.864 52.3305 150.415 53.141 148.451 53.141C146.037 53.141 144.363 51.977 143.438 49.6543C142.515 47.3317 142.047 43.9029 142.047 39.3675V39.1129H162.686L162.692 39.1011V36.6513C162.692 28.9882 161.271 23.3411 158.436 19.7091C155.6 16.0777 151.737 14.2588 146.852 14.2588Z" fill="#00C58B" style="fill:#00C58B;fill:color(display-p3 0.0000 0.7725 0.5451);fill-opacity:1;"/>
<path d="M11.458 0.147461L0.130371 59.9274H10.4361L12.7343 48.1052H21.78V36.4648H15.0768L21.78 0.147461H11.458Z" fill="#00C58B" style="fill:#00C58B;fill:color(display-p3 0.0000 0.7725 0.5451);fill-opacity:1;"/>
<path d="M24.072 0.147461L30.7766 36.4648H24.072V48.1052H33.1192L35.4176 59.9274H45.7388L34.3938 0.147461H24.072Z" fill="#00C58B" style="fill:#00C58B;fill:color(display-p3 0.0000 0.7725 0.5451);fill-opacity:1;"/>
</g>
</g>
<defs>
<clipPath id="clip0_1_80">
<rect width="200" height="75" fill="white" style="fill:white;fill-opacity:1;"/>
</clipPath>
</defs>
</svg>
