<svg width="199" height="23" viewBox="0 0 199 23" fill="none" xmlns="http://www.w3.org/2000/svg">
<g clip-path="url(#clip0_1_76)">
<path d="M8.71768 21.0832C9.98465 21.0832 11.0116 20.0662 11.0116 18.8117C11.0116 17.5571 9.98465 16.54 8.71768 16.54C7.45084 16.54 6.42383 17.5571 6.42383 18.8117C6.42383 20.0662 7.45084 21.0832 8.71768 21.0832Z" fill="#00C58B" style="fill:#00C58B;fill:color(display-p3 0.0000 0.7725 0.5451);fill-opacity:1;"/>
<path d="M0 13.8142V13.4827L6.7309 0.638916H10.7444L17.4335 13.4827V13.8142H13.0855L8.77942 5.07212H8.654L4.30612 13.8142H0Z" fill="#00C58B" style="fill:#00C58B;fill:color(display-p3 0.0000 0.7725 0.5451);fill-opacity:1;"/>
<path d="M33.4274 1.05444H37.7255L44.065 17.8889H40.4813L39.0637 13.8684H32.0778L30.6829 17.8889H27.0879L33.4274 1.05444ZM33.1438 10.8474H37.9977L35.5594 3.90698L33.1438 10.8474ZM44.8938 22.9763V5.6477H48.0238V7.42213C48.4547 6.78573 48.9878 6.29533 49.6229 5.95093C50.2579 5.59904 50.9497 5.4231 51.6982 5.4231C53.2783 5.4231 54.5674 6.01457 55.5654 7.19749C56.5634 8.38046 57.0623 9.91156 57.0623 11.7908C57.0623 13.655 56.5634 15.1749 55.5654 16.3503C54.5674 17.5258 53.2783 18.1136 51.6982 18.1136C50.9497 18.1136 50.2579 17.9413 49.6229 17.5969C48.9953 17.2525 48.4623 16.7659 48.0238 16.137V22.9763H44.8938ZM48.8857 9.17409C48.3111 9.8554 48.0238 10.7276 48.0238 11.7908C48.0238 12.8539 48.3111 13.7224 48.8857 14.3962C49.4603 15.0701 50.1974 15.407 51.0971 15.407C51.9817 15.407 52.7 15.0738 53.2519 14.4075C53.8114 13.7336 54.0911 12.8614 54.0911 11.7908C54.0911 10.7201 53.8114 9.84416 53.2519 9.16284C52.7 8.48153 51.9817 8.14088 51.0971 8.14088C50.1974 8.14088 49.4603 8.48524 48.8857 9.17409ZM58.4355 22.9763V5.6477H61.5655V7.42213C61.9965 6.78573 62.5295 6.29533 63.1646 5.95093C63.7996 5.59904 64.4914 5.4231 65.24 5.4231C66.82 5.4231 68.109 6.01457 69.1071 7.19749C70.1051 8.38046 70.6038 9.91156 70.6038 11.7908C70.6038 13.655 70.1051 15.1749 69.1071 16.3503C68.109 17.5258 66.82 18.1136 65.24 18.1136C64.4914 18.1136 63.7996 17.9413 63.1646 17.5969C62.537 17.2525 62.004 16.7659 61.5655 16.137V22.9763H58.4355ZM62.4274 9.17409C61.8529 9.8554 61.5655 10.7276 61.5655 11.7908C61.5655 12.8539 61.8529 13.7224 62.4274 14.3962C63.002 15.0701 63.7392 15.407 64.6387 15.407C65.5232 15.407 66.2419 15.0738 66.7935 14.4075C67.3529 13.7336 67.6329 12.8614 67.6329 11.7908C67.6329 10.7201 67.3529 9.84416 66.7935 9.16284C66.2419 8.48153 65.5232 8.14088 64.6387 8.14088C63.7392 8.14088 63.002 8.48524 62.4274 9.17409ZM72.0677 0.571533H75.2096V17.8889H72.0677V0.571533ZM77.1722 1.05444H80.3025V3.6936H77.1722V1.05444ZM77.1722 17.8889V5.6477H80.3025V17.8889H77.1722ZM84.6696 12.7566C84.6696 13.5427 84.9645 14.1941 85.5541 14.7107C86.1509 15.2198 86.9109 15.4744 87.8335 15.4744C88.5516 15.4744 89.1567 15.3246 89.6477 15.0252C90.1393 14.7182 90.4793 14.2839 90.6683 13.7224H93.6625C93.4658 15.0626 92.827 16.1295 91.7458 16.9231C90.6722 17.7167 89.3264 18.1136 87.7083 18.1136C85.9393 18.1136 84.4954 17.5146 83.3767 16.3167C82.2574 15.1188 81.698 13.5726 81.698 11.6785C81.698 9.83668 82.2574 8.33555 83.3767 7.17507C84.5032 6.00708 85.9471 5.4231 87.7083 5.4231C89.4703 5.4231 90.9141 6.04826 92.0406 7.29857C93.167 8.54894 93.7303 10.1548 93.7303 12.1164V12.7566H84.6696ZM84.6696 10.7127H90.6909C90.6909 9.94146 90.4077 9.30883 89.8406 8.81471C89.2812 8.32053 88.5703 8.07347 87.7083 8.07347C86.8167 8.07347 86.0871 8.32053 85.52 8.81471C84.9529 9.30883 84.6696 9.94146 84.6696 10.7127ZM106.841 0.571533V17.8889H103.712V16.1145C103.281 16.7509 102.747 17.245 102.112 17.5969C101.477 17.9413 100.785 18.1136 100.037 18.1136C98.4567 18.1136 97.1677 17.5221 96.1696 16.3391C95.1716 15.1562 94.6729 13.6251 94.6729 11.7459C94.6729 9.88159 95.1716 8.36174 96.1696 7.18625C97.1677 6.01082 98.4567 5.4231 100.037 5.4231C100.785 5.4231 101.474 5.59529 102.101 5.9397C102.736 6.2841 103.273 6.77078 103.712 7.39964V0.571533H106.841ZM97.6438 11.7459C97.6438 12.8165 97.92 13.6962 98.4716 14.385C99.0316 15.0663 99.7535 15.407 100.638 15.407C101.53 15.407 102.263 15.0663 102.838 14.385C103.42 13.6962 103.712 12.8165 103.712 11.7459C103.712 10.6827 103.424 9.81796 102.85 9.1516C102.275 8.47776 101.537 8.14088 100.638 8.14088C99.7535 8.14088 99.0316 8.47776 98.4716 9.1516C97.92 9.81796 97.6438 10.6827 97.6438 11.7459ZM114.986 1.05444H118.241V17.8889H114.986V1.05444ZM120.226 5.6477H123.356V7.61303C123.704 6.94667 124.233 6.41511 124.944 6.01831C125.662 5.6215 126.452 5.4231 127.314 5.4231C128.705 5.4231 129.805 5.8536 130.614 6.71462C131.431 7.56811 131.839 8.72482 131.839 10.1848V17.8889H128.721V10.8923C128.721 10.0089 128.486 9.30883 128.017 8.79222C127.556 8.27562 126.932 8.01732 126.146 8.01732C125.284 8.01732 124.604 8.3243 124.104 8.93821C123.606 9.54471 123.356 10.3645 123.356 11.3977V17.8889H120.226V5.6477ZM140.572 5.6477V8.47776H137.443V14.3962C137.443 14.838 137.718 15.0588 138.27 15.0588H140.572V17.8889H137.805C136.656 17.8889 135.783 17.5932 135.186 17.0017C134.595 16.4102 134.301 15.5492 134.301 14.4187V8.47776H132.418V5.6477H134.301V2.36841H137.443V5.6477H140.572ZM153.366 17.8889H150.224V15.9348C149.876 16.6012 149.347 17.1327 148.637 17.5295C147.926 17.9189 147.139 18.1136 146.277 18.1136C144.886 18.1136 143.783 17.6868 142.966 16.8333C142.157 15.9797 141.753 14.823 141.753 13.363V5.6477H144.86V12.6443C144.86 13.5277 145.09 14.2278 145.552 14.7444C146.021 15.261 146.652 15.5193 147.446 15.5193C148.308 15.5193 148.984 15.2161 149.475 14.6096C149.975 13.9957 150.224 13.1721 150.224 12.1389V5.6477H153.366V17.8889ZM155.226 1.05444H158.356V3.6936H155.226V1.05444ZM155.226 17.8889V5.6477H158.356V17.8889H155.226ZM167.181 5.6477V8.47776H164.05V14.3962C164.05 14.838 164.326 15.0588 164.878 15.0588H167.181V17.8889H164.413C163.264 17.8889 162.391 17.5932 161.794 17.0017C161.204 16.4102 160.909 15.5492 160.909 14.4187V8.47776H159.026V5.6477H160.909V2.36841H164.05V5.6477H167.181ZM168.383 1.05444H171.514V3.6936H168.383V1.05444ZM168.383 17.8889V5.6477H171.514V17.8889H168.383ZM178.999 18.1136C177.223 18.1136 175.763 17.5221 174.622 16.3391C173.48 15.1487 172.909 13.6176 172.909 11.7459C172.909 9.88907 173.48 8.37299 174.622 7.19749C175.763 6.01457 177.223 5.4231 178.999 5.4231C180.783 5.4231 182.243 6.01082 183.377 7.18625C184.511 8.36174 185.078 9.88159 185.078 11.7459C185.078 13.6176 184.511 15.1487 183.377 16.3391C182.243 17.5221 180.783 18.1136 178.999 18.1136ZM175.881 11.7459C175.881 12.8165 176.172 13.6962 176.753 14.385C177.336 15.0663 178.084 15.407 178.999 15.407C179.914 15.407 180.663 15.0663 181.244 14.385C181.834 13.6962 182.129 12.8165 182.129 11.7459C182.129 10.6902 181.834 9.82544 181.244 9.1516C180.663 8.47776 179.914 8.14088 178.999 8.14088C178.084 8.14088 177.336 8.47776 176.753 9.1516C176.172 9.82544 175.881 10.6902 175.881 11.7459ZM186.485 5.6477H189.615V7.61303C189.963 6.94667 190.492 6.41511 191.203 6.01831C191.921 5.6215 192.711 5.4231 193.573 5.4231C194.964 5.4231 196.064 5.8536 196.873 6.71462C197.69 7.56811 198.098 8.72482 198.098 10.1848V17.8889H194.979V10.8923C194.979 10.0089 194.745 9.30883 194.276 8.79222C193.815 8.27562 193.191 8.01732 192.405 8.01732C191.543 8.01732 190.863 8.3243 190.364 8.93821C189.864 9.54471 189.615 10.3645 189.615 11.3977V17.8889H186.485V5.6477Z" fill="#00C58B" style="fill:#00C58B;fill:color(display-p3 0.0000 0.7725 0.5451);fill-opacity:1;"/>
</g>
<defs>
<clipPath id="clip0_1_76">
<rect width="199" height="23" fill="white" style="fill:white;fill-opacity:1;"/>
</clipPath>
</defs>
</svg>
