<svg width="200" height="34" viewBox="0 0 200 34" fill="none" xmlns="http://www.w3.org/2000/svg">
<g clip-path="url(#clip0_1_91)">
<path d="M52.687 18.9345V31.8774C52.687 32.9698 52.1105 33.8636 51.3965 33.8636H43.7216C38.159 33.8636 33.5559 27.5014 32.8246 19.2456C32.7084 17.9215 31.9856 16.9285 31.1209 16.9285H15.5734C14.7087 16.9285 13.9859 17.9215 13.8697 19.2456C13.1384 27.5014 8.53525 33.8636 2.96841 33.8636H1.30352C0.585077 33.8636 0 32.9631 0 31.8576V18.9146C0 17.8156 0.580775 16.9285 1.29061 16.9285H11.452C12.3167 16.9285 13.0395 15.9354 13.1556 14.6113C13.8827 6.36224 18.4858 0 24.0484 0H32.3471C33.0654 0 33.6505 0.90038 33.6505 2.006V14.2803C33.6505 15.7434 34.4206 16.9285 35.3714 16.9285H51.3835C52.1019 16.9285 52.687 17.8288 52.687 18.9345Z" fill="white" style="fill:white;fill-opacity:1;"/>
<path d="M81.3047 0H87.4452L100.142 33.3461H93.955L90.8617 24.5192H77.7035L74.6101 33.3461H68.6543L81.3047 0ZM79.2732 20.0824H89.3381L84.398 5.7445H84.2595L79.2732 20.0824Z" fill="white" style="fill:white;fill-opacity:1;"/>
<path d="M101.619 9.2006H106.559V13.871H106.652C106.806 13.2171 107.098 12.5788 107.529 11.9561C107.991 11.3334 108.529 10.773 109.145 10.2748C109.791 9.74547 110.499 9.32513 111.269 9.01379C112.038 8.70243 112.823 8.54675 113.623 8.54675C114.239 8.54675 114.654 8.56232 114.87 8.59346C115.116 8.62459 115.362 8.65573 115.609 8.68686V13.8242C115.239 13.7619 114.854 13.7152 114.454 13.6841C114.085 13.6218 113.716 13.5907 113.346 13.5907C112.454 13.5907 111.607 13.7775 110.807 14.1511C110.037 14.4937 109.36 15.0229 108.775 15.7391C108.191 16.4241 107.729 17.2802 107.39 18.3077C107.052 19.3352 106.882 20.5184 106.882 21.8572V33.3462H101.619V9.2006Z" fill="white" style="fill:white;fill-opacity:1;"/>
<path d="M132.229 17.2802C132.013 15.7857 131.413 14.6649 130.428 13.9176C129.474 13.1392 128.258 12.7501 126.781 12.7501C126.104 12.7501 125.38 12.8746 124.611 13.1237C123.841 13.3416 123.133 13.7775 122.487 14.4314C121.841 15.054 121.302 15.9414 120.871 17.0935C120.44 18.2144 120.225 19.6933 120.225 21.5302C120.225 22.5265 120.332 23.5229 120.548 24.5192C120.794 25.5156 121.164 26.403 121.656 27.1814C122.179 27.9597 122.841 28.598 123.641 29.0962C124.441 29.5632 125.411 29.7967 126.55 29.7967C128.089 29.7967 129.351 29.3142 130.336 28.349C131.351 27.3838 131.983 26.0294 132.229 24.2857H137.492C136.999 27.4304 135.815 29.8435 133.937 31.5247C132.09 33.1749 129.628 34.0001 126.55 34.0001C124.672 34.0001 123.01 33.6887 121.564 33.066C120.148 32.4121 118.947 31.5404 117.962 30.4506C116.978 29.3297 116.223 28.0064 115.7 26.4809C115.208 24.9552 114.961 23.305 114.961 21.5302C114.961 19.7244 115.208 18.0275 115.7 16.4396C116.193 14.8517 116.931 13.4817 117.916 12.3297C118.901 11.1466 120.117 10.2281 121.564 9.57423C123.041 8.88924 124.765 8.54675 126.735 8.54675C128.12 8.54675 129.428 8.73356 130.659 9.1072C131.921 9.44968 133.029 9.97898 133.983 10.6951C134.969 11.4112 135.769 12.3142 136.384 13.4039C136.999 14.4937 137.369 15.7857 137.492 17.2802H132.229Z" fill="white" style="fill:white;fill-opacity:1;"/>
<path d="M138.446 9.20056H142.416V1.96155H147.68V9.20056H152.435V13.1703H147.68V26.0605C147.68 26.6209 147.695 27.1034 147.726 27.5082C147.788 27.9131 147.895 28.2555 148.05 28.5357C148.234 28.816 148.495 29.0338 148.834 29.1895C149.172 29.3141 149.635 29.3764 150.219 29.3764C150.588 29.3764 150.958 29.3764 151.327 29.3764C151.696 29.3453 152.066 29.283 152.435 29.1895V33.2995C151.851 33.3618 151.281 33.424 150.727 33.4863C150.173 33.5485 149.604 33.5796 149.019 33.5796C147.633 33.5796 146.51 33.4552 145.648 33.206C144.818 32.9259 144.156 32.5366 143.663 32.0385C143.201 31.5092 142.878 30.8553 142.693 30.077C142.54 29.2985 142.447 28.4112 142.416 27.4149V13.1703H138.446V9.20056Z" fill="white" style="fill:white;fill-opacity:1;"/>
<path d="M175.289 27.9754C175.289 28.6291 175.366 29.0962 175.52 29.3765C175.705 29.6566 176.043 29.7967 176.536 29.7967C176.69 29.7967 176.874 29.7967 177.091 29.7967C177.306 29.7967 177.551 29.7656 177.829 29.7034V33.3929C177.644 33.4552 177.398 33.5174 177.091 33.5797C176.813 33.6731 176.521 33.7509 176.214 33.8132C175.905 33.8755 175.597 33.9223 175.289 33.9534C174.982 33.9845 174.72 34.0001 174.505 34.0001C173.428 34.0001 172.535 33.782 171.827 33.3462C171.119 32.9103 170.657 32.1475 170.442 31.0577C169.396 32.0852 168.102 32.8325 166.564 33.2995C165.056 33.7665 163.593 34.0001 162.177 34.0001C161.1 34.0001 160.069 33.8443 159.084 33.533C158.099 33.2527 157.222 32.8325 156.453 32.272C155.714 31.6804 155.114 30.9488 154.651 30.077C154.22 29.1741 154.005 28.131 154.005 26.9479C154.005 25.4534 154.267 24.2391 154.79 23.305C155.345 22.371 156.052 21.6393 156.915 21.11C157.807 20.5807 158.791 20.2071 159.868 19.9891C160.976 19.74 162.085 19.5532 163.193 19.4286C164.148 19.2419 165.056 19.1173 165.917 19.055C166.779 18.9616 167.533 18.8215 168.18 18.6346C168.857 18.4479 169.379 18.1676 169.749 17.794C170.149 17.3893 170.349 16.7977 170.349 16.0192C170.349 15.3343 170.18 14.7739 169.842 14.338C169.534 13.9021 169.134 13.5751 168.641 13.3572C168.18 13.1081 167.656 12.9524 167.072 12.8902C166.486 12.7968 165.933 12.7501 165.409 12.7501C163.931 12.7501 162.716 13.0614 161.762 13.6841C160.807 14.3068 160.269 15.272 160.146 16.5797H154.882C154.975 15.0229 155.345 13.7309 155.991 12.7033C156.637 11.6759 157.453 10.8508 158.438 10.2281C159.453 9.60536 160.592 9.16947 161.854 8.92039C163.116 8.6713 164.408 8.54675 165.733 8.54675C166.903 8.54675 168.056 8.6713 169.195 8.92039C170.334 9.16947 171.35 9.57422 172.242 10.1347C173.166 10.6951 173.905 11.4268 174.458 12.3297C175.013 13.2015 175.289 14.2757 175.289 15.5522V27.9754ZM170.027 21.2501C169.226 21.7794 168.24 22.1063 167.072 22.2309C165.902 22.3242 164.732 22.4799 163.562 22.6979C163.009 22.7912 162.47 22.9314 161.946 23.1181C161.424 23.2739 160.962 23.5074 160.561 23.8187C160.161 24.099 159.839 24.4882 159.592 24.9864C159.377 25.4534 159.269 26.0294 159.269 26.7144C159.269 27.3059 159.439 27.804 159.777 28.2089C160.116 28.6136 160.516 28.9406 160.976 29.1896C161.469 29.4076 161.993 29.5632 162.547 29.6566C163.131 29.7501 163.655 29.7967 164.117 29.7967C164.701 29.7967 165.332 29.7189 166.009 29.5632C166.686 29.4076 167.318 29.1429 167.902 28.7692C168.518 28.3956 169.026 27.9286 169.426 27.3681C169.827 26.7765 170.027 26.0605 170.027 25.2199V21.2501Z" fill="white" style="fill:white;fill-opacity:1;"/>
<path d="M184 25.5935C184.154 27.1503 184.739 28.24 185.754 28.8627C186.77 29.4854 187.986 29.7967 189.402 29.7967C189.894 29.7967 190.449 29.7656 191.064 29.7034C191.71 29.61 192.31 29.4543 192.865 29.2364C193.418 29.0184 193.864 28.7071 194.203 28.3022C194.572 27.8663 194.743 27.3059 194.712 26.621C194.681 25.9359 194.434 25.3755 193.973 24.9396C193.511 24.5037 192.911 24.1613 192.172 23.9121C191.464 23.632 190.649 23.3984 189.725 23.2116C188.802 23.0247 187.863 22.8223 186.909 22.6045C185.923 22.3865 184.97 22.1218 184.046 21.8105C183.154 21.4992 182.338 21.0788 181.6 20.5495C180.892 20.0202 180.322 19.3508 179.891 18.5412C179.46 17.7006 179.245 16.6731 179.245 15.4589C179.245 14.1511 179.553 13.0614 180.168 12.1896C180.814 11.2867 181.614 10.5706 182.568 10.0413C183.554 9.48081 184.631 9.09162 185.801 8.87367C187.001 8.65573 188.14 8.54675 189.217 8.54675C190.449 8.54675 191.618 8.68686 192.727 8.96709C193.864 9.21617 194.881 9.63649 195.773 10.2281C196.697 10.8197 197.451 11.598 198.035 12.5632C198.651 13.4973 199.035 14.6338 199.19 15.9726H193.695C193.449 14.6961 192.865 13.8398 191.941 13.4039C191.049 12.968 190.017 12.7501 188.847 12.7501C188.478 12.7501 188.032 12.7812 187.508 12.8435C187.017 12.9057 186.54 13.0303 186.078 13.2171C185.647 13.3728 185.277 13.6218 184.97 13.9644C184.662 14.2757 184.508 14.6961 184.508 15.2254C184.508 15.8791 184.724 16.4085 185.154 16.8132C185.616 17.2181 186.2 17.5605 186.909 17.8407C187.648 18.0898 188.478 18.3077 189.402 18.4946C190.325 18.6814 191.28 18.8838 192.265 19.1017C193.218 19.3197 194.157 19.5843 195.081 19.8956C196.004 20.2071 196.819 20.6273 197.527 21.1566C198.266 21.6859 198.851 22.3553 199.283 23.1649C199.743 23.9744 199.974 24.9707 199.974 26.1539C199.974 27.5862 199.652 28.8004 199.005 29.7967C198.359 30.793 197.512 31.6026 196.466 32.2254C195.451 32.848 194.312 33.2995 193.049 33.5797C191.788 33.86 190.541 34.0001 189.31 34.0001C187.801 34.0001 186.4 33.8288 185.108 33.4864C183.845 33.1438 182.739 32.6301 181.784 31.9451C180.861 31.2291 180.122 30.3572 179.567 29.3297C179.045 28.2711 178.767 27.0257 178.737 25.5935H184Z" fill="white" style="fill:white;fill-opacity:1;"/>
</g>
<defs>
<clipPath id="clip0_1_91">
<rect width="200" height="34" fill="white" style="fill:white;fill-opacity:1;"/>
</clipPath>
</defs>
</svg>
