<svg width="201" height="52" viewBox="0 0 201 52" fill="none" xmlns="http://www.w3.org/2000/svg">
<g clip-path="url(#clip0_1_114)">
<path d="M199.873 31.5732H175.143C175.124 31.804 175.124 32.0252 175.143 32.256C176.309 35.6124 178.514 37.882 182.137 38.4879C185.76 39.0938 189.179 38.4879 191.549 35.1988C191.772 34.8718 192.122 34.6506 192.52 34.5929H199.067C198.718 40.4306 190.548 45.4026 182.409 44.7967C173.735 44.1043 167.256 36.5837 167.955 27.9859C167.955 27.8802 167.974 27.7744 167.984 27.6686C168.79 17.6571 176.007 11.8003 186.313 12.8197C195.182 13.6948 200.952 21.5809 199.873 31.5732ZM175.26 25.2931H192.695C191.724 21.2155 188.217 18.7439 183.545 18.84C179.446 18.9266 175.92 21.6675 175.26 25.2931Z" fill="white" style="fill:white;fill-opacity:1;"/>
<path d="M24.2932 5.49146C25.6239 5.44337 26.8672 6.10696 27.5666 7.23217C34.2397 16.7435 40.9032 26.2645 47.5375 35.7855C48.8488 37.507 48.5088 39.9498 46.7798 41.2577C46.7118 41.3058 46.6438 41.3539 46.5661 41.4019C44.7011 42.6426 42.1659 42.1425 40.9226 40.296C40.8935 40.2479 40.8643 40.2094 40.8352 40.1613C36.2407 33.6217 31.6754 27.0724 27.1392 20.5231L26.8672 20.1961C25.0411 17.6283 23.2344 17.6283 21.4568 20.1961C16.8235 26.7742 12.1999 33.3716 7.57632 39.9786C6.92552 41.0942 5.78905 41.8443 4.50687 42.0271C2.943 42.2675 1.39856 41.527 0.621488 40.1613C-0.262436 38.8053 -0.194442 37.0454 0.786617 35.7567C3.00128 32.5734 5.24509 29.3997 7.47919 26.2164C11.8891 19.9557 16.2893 13.6853 20.6895 7.41489C21.4471 6.17428 22.8264 5.44337 24.2932 5.49146Z" fill="white" style="fill:white;fill-opacity:1;"/>
<path d="M94.4921 44.3063H87.8869V41.7962C87.6538 41.7962 87.5372 41.7962 87.4692 41.8732C82.5931 45.5662 75.9588 46.0085 70.6358 42.9791C64.9243 39.9978 62.5057 34.8142 62.5737 28.5534C62.6319 21.4463 66.5659 15.5991 72.7922 13.6468C77.9403 12.0215 82.9622 12.1946 87.4595 15.6664C87.5955 15.7433 87.7509 15.801 87.9063 15.8299V13.2717H94.5406L94.4921 44.3063ZM69.3245 28.8515C69.3245 29.2266 69.3245 29.8132 69.4314 30.4864C69.8296 34.9392 73.4819 38.4206 77.9986 38.6514C82.3697 39.2092 86.4882 36.4587 87.5858 32.2271C87.8772 31.1885 88.0423 30.121 88.0812 29.0439C88.3629 22.0522 83.1565 17.6187 76.425 19.042C72.19 19.946 69.4119 23.716 69.3245 28.8515Z" fill="white" style="fill:white;fill-opacity:1;"/>
<path d="M154.89 19.2921H138.581V13.2814H164.099V18.5131C164.099 18.8882 163.691 19.2825 163.409 19.6095C158.407 25.4278 153.394 31.2462 148.392 37.0454C148.149 37.3243 147.926 37.6128 147.557 38.0744H164.07V44.239H138.29V38.988C138.29 38.6418 138.649 38.2764 138.912 37.9686L154.201 20.1961C154.385 19.9845 154.55 19.7441 154.89 19.2921Z" fill="white" style="fill:white;fill-opacity:1;"/>
<path d="M108.839 44.5659H102.205V13.464H108.839V16.8108C110.597 15.7625 112.239 14.6084 114.026 13.7525C115.949 12.9831 118.038 12.7235 120.097 13.0024V19.3786C119.757 19.3786 119.427 19.4459 119.125 19.4459C113.938 19.5036 110.325 22.3887 109.237 27.4666C108.985 28.7072 108.868 29.9671 108.878 31.2269V43.2868L108.839 44.5659Z" fill="white" style="fill:white;fill-opacity:1;"/>
<path d="M125.73 13.214H132.277V44.3063H125.73V13.214Z" fill="white" style="fill:white;fill-opacity:1;"/>
<path d="M24.1279 42.3732C26.8088 42.3155 29.0235 44.4313 29.0818 47.0856C29.0818 47.0952 29.0818 47.1145 29.0818 47.1241C29.1012 49.7977 26.9254 51.9808 24.2251 51.9904C21.5247 52.0096 19.3198 49.8554 19.3003 47.1914C19.2615 44.5756 21.3693 42.4117 24.0114 42.3732C24.0502 42.3732 24.0794 42.3732 24.1182 42.3732H24.1279Z" fill="white" style="fill:white;fill-opacity:1;"/>
<path d="M133.618 4.57778C133.666 7.1071 131.636 9.19402 129.082 9.24211C129.072 9.24211 129.053 9.24211 129.043 9.24211C126.469 9.37675 124.264 7.41485 124.138 4.8663C124.011 2.31775 125.973 0.144272 128.557 1.41836e-05C128.693 1.41836e-05 128.839 1.41836e-05 128.975 1.41836e-05C131.52 -0.0192201 133.599 2.00038 133.618 4.52008C133.618 4.53932 133.618 4.55855 133.618 4.57778Z" fill="white" style="fill:white;fill-opacity:1;"/>
</g>
<defs>
<clipPath id="clip0_1_114">
<rect width="201" height="52.0001" fill="white" style="fill:white;fill-opacity:1;"/>
</clipPath>
</defs>
</svg>
