<svg width="149" height="28" viewBox="0 0 149 28" fill="none" xmlns="http://www.w3.org/2000/svg">
<g clip-path="url(#clip0_1_153)">
<path d="M21.009 20.65H6.88925L3.96662 27.2222H0.0571289L12.0892 0.93335H15.8469L27.917 27.2222H23.9316L21.009 20.65ZM19.6805 17.6456L13.9491 4.76402L8.21771 17.6456H19.6805Z" fill="#00C58B" style="fill:#00C58B;fill:color(display-p3 0.0000 0.7725 0.5451);fill-opacity:1;"/>
<path d="M48.1097 7.31775L39.3039 27.2222H35.5842L26.7783 7.31775H30.5739L37.482 23.2789L44.5418 7.31775H48.1097Z" fill="#00C58B" style="fill:#00C58B;fill:color(display-p3 0.0000 0.7725 0.5451);fill-opacity:1;"/>
<path d="M58.206 7.13C60.9894 7.13 63.1213 7.806 64.6016 9.158C66.0819 10.51 66.822 12.5255 66.822 15.2044V27.2222H63.368V24.5933C62.7607 25.5197 61.894 26.227 60.768 26.7152C59.642 27.2035 58.3072 27.4476 56.7636 27.4476C54.5116 27.4476 52.7086 26.9093 51.3549 25.8327C50.0011 24.7561 49.3242 23.3415 49.3242 21.5889C49.3242 19.8363 49.9695 18.428 51.26 17.3639C52.5505 16.2998 54.6001 15.7678 57.4089 15.7678H63.1782V15.0542C63.1782 13.5019 62.7228 12.3127 61.8118 11.4864C60.9009 10.6602 59.5597 10.2471 57.7885 10.2471C56.5992 10.2471 55.4352 10.4412 54.2965 10.8292C53.1578 11.2173 52.1962 11.7368 51.4118 12.3878L49.8936 9.68378C50.931 8.85756 52.1709 8.22538 53.6133 7.78723C55.0556 7.34908 56.5865 7.13 58.206 7.13ZM57.3709 24.6684C58.7627 24.6684 59.9646 24.3617 60.9768 23.7483C61.9889 23.1349 62.7228 22.2649 63.1782 21.1382V18.3591H57.5607C54.4736 18.3591 52.9301 19.3856 52.9301 21.4387C52.9301 22.4402 53.3223 23.2288 54.1067 23.8047C54.8911 24.3805 55.9792 24.6684 57.3709 24.6684Z" fill="#00C58B" style="fill:#00C58B;fill:color(display-p3 0.0000 0.7725 0.5451);fill-opacity:1;"/>
<path d="M84.8895 26.058C84.3581 26.5086 83.7002 26.8529 82.9157 27.0907C82.1313 27.3286 81.3216 27.4475 80.4865 27.4475C78.4622 27.4475 76.8934 26.9092 75.78 25.8326C74.6666 24.756 74.1099 23.2163 74.1099 21.2133V10.2846H70.6938V7.31775H74.1099V2.9613H77.7537V7.31775H83.523V10.2846H77.7537V21.0631C77.7537 22.1397 78.0257 22.9659 78.5698 23.5417C79.1138 24.1176 79.8919 24.4055 80.9041 24.4055C82.0174 24.4055 82.9664 24.0926 83.7508 23.4666L84.8895 26.058Z" fill="#00C58B" style="fill:#00C58B;fill:color(display-p3 0.0000 0.7725 0.5451);fill-opacity:1;"/>
<path d="M108.043 7.31775V27.2222H104.589V24.2178C103.855 25.2443 102.887 26.0392 101.685 26.6025C100.483 27.1659 99.1736 27.4475 97.7566 27.4475C95.0743 27.4475 92.9614 26.7152 91.4179 25.2505C89.8743 23.7859 89.1025 21.6264 89.1025 18.7722V7.31775H92.7463V18.3591C92.7463 20.2869 93.2145 21.7453 94.1507 22.7343C95.087 23.7233 96.4281 24.2178 98.1741 24.2178C100.097 24.2178 101.615 23.6419 102.729 22.4902C103.842 21.3385 104.399 19.7111 104.399 17.608V7.31775H108.043Z" fill="#00C58B" style="fill:#00C58B;fill:color(display-p3 0.0000 0.7725 0.5451);fill-opacity:1;"/>
<path d="M118.48 10.6602C119.113 9.50852 120.049 8.63223 121.289 8.03134C122.529 7.43045 124.035 7.13 125.806 7.13V10.6227C125.603 10.5976 125.325 10.5851 124.971 10.5851C122.997 10.5851 121.447 11.1672 120.321 12.3314C119.195 13.4957 118.632 15.1544 118.632 17.3076V27.2222H114.988V7.31778H118.48V10.6602Z" fill="#00C58B" style="fill:#00C58B;fill:color(display-p3 0.0000 0.7725 0.5451);fill-opacity:1;"/>
<path d="M148.276 17.3827C148.276 17.6581 148.251 18.0211 148.2 18.4718H131.879C132.107 20.2244 132.885 21.6327 134.213 22.6968C135.542 23.7609 137.193 24.2929 139.167 24.2929C141.571 24.2929 143.506 23.4917 144.974 21.8893L146.986 24.2178C146.075 25.2693 144.942 26.0705 143.589 26.6213C142.235 27.1722 140.723 27.4476 139.053 27.4476C136.927 27.4476 135.042 27.0157 133.397 26.1519C131.753 25.2881 130.481 24.0801 129.583 22.5278C128.684 20.9755 128.235 19.2229 128.235 17.27C128.235 15.3422 128.672 13.6021 129.545 12.0498C130.418 10.4975 131.62 9.28945 133.151 8.42567C134.682 7.56189 136.409 7.13 138.332 7.13C140.255 7.13 141.969 7.56189 143.475 8.42567C144.98 9.28945 146.157 10.4975 147.005 12.0498C147.852 13.6021 148.276 15.3797 148.276 17.3827ZM138.332 10.172C136.586 10.172 135.124 10.6978 133.948 11.7493C132.771 12.8009 132.082 14.1779 131.879 15.8804H144.784C144.582 14.203 143.892 12.8322 142.716 11.7681C141.539 10.704 140.078 10.172 138.332 10.172Z" fill="#00C58B" style="fill:#00C58B;fill:color(display-p3 0.0000 0.7725 0.5451);fill-opacity:1;"/>
</g>
<defs>
<clipPath id="clip0_1_153">
<rect width="149" height="28" fill="white" style="fill:white;fill-opacity:1;"/>
</clipPath>
</defs>
</svg>
