<svg width="200" height="49" viewBox="0 0 200 49" fill="none" xmlns="http://www.w3.org/2000/svg">
<g clip-path="url(#clip0_1_142)">
<path fill-rule="evenodd" clip-rule="evenodd" d="M24.3346 43.7393C13.4228 43.7393 4.54601 34.9396 4.54601 24.1234C4.54601 13.3065 13.4228 4.50686 24.3346 4.50686C35.2456 4.50686 44.1224 13.3065 44.1224 24.1234C44.1224 34.9396 35.2456 43.7393 24.3346 43.7393ZM24.3346 0.000366211C10.9163 0.000366211 0 10.8218 0 24.1234C0 37.4251 10.9163 48.2465 24.3346 48.2465C37.7529 48.2465 48.6692 37.4251 48.6692 24.1234C48.6692 10.8218 37.7529 0.000366211 24.3346 0.000366211Z" fill="white" style="fill:white;fill-opacity:1;"/>
<path fill-rule="evenodd" clip-rule="evenodd" d="M24.316 13.7267C27.5 13.7267 30.113 16.1744 30.3548 19.2705C28.6141 18.1488 26.5434 17.4899 24.3168 17.4899C22.0901 17.4899 20.0179 18.1488 18.2772 19.2712C18.519 16.1744 21.132 13.7267 24.316 13.7267ZM30.3791 28.5081C30.3791 31.8228 27.659 34.5193 24.3168 34.5193C20.973 34.5193 18.2529 31.8228 18.2529 28.5081C18.2529 25.195 20.973 22.4992 24.3168 22.4992C27.659 22.4992 30.3791 25.195 30.3791 28.5081ZM31.4552 20.0741H35.4308V19.7379C35.4308 13.6619 30.4453 8.71814 24.316 8.71814C18.1875 8.71814 13.2019 13.6619 13.2019 19.7379V20.0741H17.1784C14.7495 22.0974 13.2012 25.1256 13.2012 28.5081C13.2012 34.5849 18.1875 39.5278 24.3168 39.5278C30.446 39.5278 35.4316 34.5849 35.4316 28.5081C35.4316 25.1256 33.8833 22.0974 31.4552 20.0741Z" fill="white" style="fill:white;fill-opacity:1;"/>
<path fill-rule="evenodd" clip-rule="evenodd" d="M134.72 22.9263V36.2581H139.987V22.9263C139.987 19.2091 143.038 16.1847 146.789 16.1847V10.962C140.123 10.962 134.72 16.3181 134.72 22.9263Z" fill="white" style="fill:white;fill-opacity:1;"/>
<path fill-rule="evenodd" clip-rule="evenodd" d="M75.2676 11.3044V13.8916C73.0326 12.062 70.1657 10.9629 67.0402 10.9629C59.8995 10.9629 54.1094 16.7012 54.1094 23.7813C54.1094 30.8599 59.8995 36.6004 67.0402 36.6004C70.1657 36.6004 73.0326 35.5006 75.2676 33.671V36.2582H80.5352V11.3044H75.2676ZM67.0402 31.3778C62.8151 31.3778 59.3778 27.9689 59.3778 23.7813C59.3778 19.5929 62.8151 16.1848 67.0402 16.1848C71.2653 16.1848 74.7033 19.5929 74.7033 23.7813C74.7033 27.9689 71.2653 31.3778 67.0402 31.3778Z" fill="white" style="fill:white;fill-opacity:1;"/>
<path fill-rule="evenodd" clip-rule="evenodd" d="M159.578 16.1848C163.803 16.1848 167.241 19.5929 167.241 23.7813C167.241 27.9697 163.803 31.377 159.578 31.377C155.352 31.377 151.915 27.9697 151.915 23.7813C151.915 19.5929 155.352 16.1848 159.578 16.1848ZM159.578 10.9629C152.437 10.9629 146.647 16.7012 146.647 23.7813C146.647 30.8599 152.437 36.6004 159.578 36.6004C166.719 36.6004 172.509 30.8599 172.509 23.7813C172.509 16.7012 166.719 10.9629 159.578 10.9629Z" fill="white" style="fill:white;fill-opacity:1;"/>
<path fill-rule="evenodd" clip-rule="evenodd" d="M102.443 11.3043L95.216 27.9802L87.9902 11.3043H82.2563L92.6168 35.2133C93.3347 36.1375 94.2754 36.5996 95.216 36.5996C96.1567 36.5996 97.0982 36.1375 97.816 35.2133L108.176 11.3043H102.443Z" fill="white" style="fill:white;fill-opacity:1;"/>
<path fill-rule="evenodd" clip-rule="evenodd" d="M199.265 22.9263C199.265 16.3181 193.861 10.962 187.196 10.962C180.53 10.962 175.126 16.3181 175.126 22.9263V36.2581H180.395V22.9263C180.395 19.2091 183.446 16.1847 187.196 16.1847C190.946 16.1847 193.996 19.2091 193.996 22.9263V36.2581H199.265V22.9263Z" fill="white" style="fill:white;fill-opacity:1;"/>
<path fill-rule="evenodd" clip-rule="evenodd" d="M126.012 27.1686C124.754 29.6585 122.166 31.3773 119.171 31.3773C114.946 31.3773 111.509 27.9692 111.509 23.7808C111.509 19.5924 114.946 16.185 119.171 16.185C122.47 16.185 125.28 18.2657 126.357 21.1695H113.712V26.3921H131.833C132.009 25.5493 132.102 24.6756 132.102 23.7808C132.102 16.7014 126.312 10.9624 119.171 10.9624C112.03 10.9624 106.24 16.7014 106.24 23.7808C106.24 30.8602 112.03 36.6 119.171 36.6C123.614 36.6 127.533 34.3769 129.861 30.9928L126.012 27.1686Z" fill="white" style="fill:white;fill-opacity:1;"/>
</g>
<defs>
<clipPath id="clip0_1_142">
<rect width="200" height="49" fill="white" style="fill:white;fill-opacity:1;"/>
</clipPath>
</defs>
</svg>
