<svg width="201" height="42" viewBox="0 0 201 42" fill="none" xmlns="http://www.w3.org/2000/svg">
<g clip-path="url(#clip0_1_169)">
<path d="M33.5705 17.1134C33.5747 16.7605 33.7152 16.4231 33.9619 16.1736C34.2086 15.924 34.5421 15.7818 34.891 15.7776H36.7005C37.0494 15.7818 37.3828 15.924 37.6295 16.1736C37.8762 16.4231 38.0167 16.7605 38.021 17.1134V30.1758C38.021 32.7157 38.5838 34.6124 39.7094 35.8658C40.835 37.1193 42.473 37.7476 44.6233 37.7507C46.679 37.7507 48.2929 37.1224 49.4651 35.8658C50.6373 34.6092 51.2271 32.7126 51.2347 30.1758V17.1134C51.2403 16.7608 51.3812 16.4242 51.6279 16.1749C51.8741 15.9255 52.207 15.783 52.5556 15.7776H54.3648C54.7144 15.7806 55.0482 15.9223 55.2955 16.1722C55.5422 16.4221 55.6825 16.7601 55.6856 17.1134V40.1705C55.6825 40.5238 55.5422 40.8618 55.2955 41.1117C55.0482 41.3616 54.7144 41.5033 54.3648 41.5064H52.5556C52.207 41.5009 51.8741 41.3584 51.6279 41.109C51.3812 40.8597 51.2403 40.5231 51.2347 40.1705V38.6367C50.5021 39.561 49.6067 40.3406 48.594 40.9362C47.4467 41.6431 45.8786 41.9965 43.8897 41.9965C42.4522 42.0136 41.0247 41.7529 39.6838 41.2283C38.4327 40.7455 37.3021 39.9898 36.3723 39.015C35.4425 38.04 34.7363 36.87 34.304 35.5878C33.7943 34.0875 33.5461 32.509 33.5705 30.9227V17.1134Z" fill="white" style="fill:white;fill-opacity:1;"/>
<path d="M65.5065 10.533C65.5024 10.886 65.3621 11.2233 65.1154 11.4729C64.8687 11.7226 64.5352 11.8647 64.1862 11.869H61.3915C61.045 11.8611 60.7152 11.7173 60.4715 11.4681C60.2278 11.2189 60.089 10.8836 60.085 10.533V7.7057C60.089 7.35274 60.2298 7.01539 60.4765 6.7658C60.7233 6.5162 61.0567 6.37408 61.4052 6.36975H64.2004C64.5489 6.37408 64.8823 6.5162 65.1291 6.7658C65.3758 7.01539 65.5161 7.35274 65.5206 7.7057L65.5065 10.533ZM65.0176 40.1707C65.0135 40.5237 64.8727 40.861 64.6259 41.1106C64.3792 41.3602 64.0459 41.5023 63.6973 41.5066H61.8876C61.5385 41.5023 61.2051 41.3602 60.9584 41.1106C60.7117 40.861 60.5713 40.5237 60.5672 40.1707V17.1137C60.5713 16.7607 60.7117 16.4234 60.9584 16.1738C61.2051 15.9242 61.5385 15.782 61.8876 15.7778H63.6973C64.0459 15.782 64.3792 15.9242 64.6259 16.1738C64.8727 16.4234 65.0135 16.7607 65.0176 17.1137V40.1707Z" fill="white" style="fill:white;fill-opacity:1;"/>
<path d="M74.3582 40.1706C74.3541 40.5236 74.2144 40.8609 73.9671 41.1104C73.7205 41.3601 73.387 41.5023 73.0383 41.5065H71.2288C70.8801 41.5023 70.5466 41.3601 70.3 41.1104C70.0527 40.8609 69.9123 40.5236 69.9082 40.1706V7.71265C69.9123 7.35964 70.0527 7.02235 70.3 6.77275C70.5466 6.5231 70.8801 6.38098 71.2288 6.37671H73.0383C73.387 6.38098 73.7205 6.5231 73.9671 6.77275C74.2144 7.02235 74.3541 7.35964 74.3582 7.71265V40.1706Z" fill="white" style="fill:white;fill-opacity:1;"/>
<path d="M89.1285 15.2828C91.147 15.2828 92.7607 15.6371 93.9703 16.3455C95.0231 16.9242 95.9532 17.7063 96.7087 18.6474V7.71265C96.7135 7.35964 96.8539 7.02235 97.1005 6.77275C97.347 6.5231 97.6806 6.38098 98.0299 6.37671H99.8388C100.188 6.38098 100.522 6.5231 100.768 6.77275C101.015 7.02235 101.155 7.35964 101.16 7.71265V40.1705C101.155 40.5235 101.015 40.8608 100.768 41.1104C100.522 41.3601 100.188 41.5022 99.8388 41.5065H98.0299C97.6806 41.5022 97.347 41.3601 97.1005 41.1104C96.8539 40.8608 96.7135 40.5235 96.7087 40.1705V38.6367C95.9553 39.6159 95.0018 40.4195 93.9142 40.9928C92.7128 41.662 91.1169 41.9965 89.1285 41.9965C87.6635 42.009 86.21 41.7313 84.8505 41.179C83.5498 40.6474 82.3744 39.8446 81.4011 38.8229C80.3909 37.7496 79.5943 36.4897 79.0539 35.112C78.4402 33.5501 78.0895 31.8952 78.0176 30.2159C77.9847 29.7211 77.9683 29.1847 77.9683 28.6067C77.9683 28.0287 77.9847 27.493 78.0176 26.9998C78.0861 25.3205 78.434 23.6647 79.0443 22.1014C79.5861 20.7355 80.3868 19.49 81.4011 18.4353C82.3806 17.4286 83.5553 16.637 84.8505 16.1099C86.2094 15.5543 87.6628 15.2733 89.1285 15.2828ZM96.7087 30.7696C96.7416 30.2748 96.758 29.623 96.758 28.8141C96.758 28.0051 96.7416 27.3541 96.7087 26.8608C96.6114 24.5188 95.9183 22.7125 94.632 21.4418C93.3443 20.1711 91.6731 19.5365 89.6176 19.538C87.4731 19.538 85.7799 20.2307 84.5381 21.6161C83.2963 23.0015 82.6114 24.8817 82.484 27.2567C82.4518 28.1803 82.4518 29.1039 82.484 30.0275C82.6148 32.4024 83.2991 34.2826 84.5381 35.668C85.7772 37.0534 87.4703 37.7492 89.6176 37.7556C91.6361 37.7556 93.2984 37.1272 94.6059 35.8706C95.9135 34.6141 96.6142 32.9137 96.7087 30.7696Z" fill="white" style="fill:white;fill-opacity:1;"/>
<path d="M104.876 26.1681C104.998 24.6977 105.366 23.2589 105.964 21.9129C106.525 20.632 107.303 19.46 108.263 18.4494C109.226 17.4473 110.382 16.6558 111.66 16.124C113.065 15.5471 114.569 15.2611 116.085 15.2828C117.699 15.2551 119.302 15.5488 120.804 16.1476C122.153 16.7027 123.362 17.557 124.341 18.6474C125.353 19.7953 126.119 21.1431 126.591 22.6057C127.13 24.2784 127.395 26.0296 127.373 27.7891V29.1251C127.369 29.478 127.228 29.8154 126.982 30.0649C126.735 30.3146 126.402 30.4567 126.053 30.4609H109.224V30.7578C109.29 33.0009 109.965 34.724 111.253 35.9271C112.54 37.1304 114.147 37.7398 116.076 37.7555C117.869 37.7555 119.214 37.4995 120.11 36.9874C120.923 36.5429 121.658 35.9667 122.287 35.2816C122.486 35.0657 122.717 34.8821 122.971 34.7374C123.251 34.6228 123.551 34.5721 123.852 34.5889H125.319C125.683 34.5908 126.032 34.7322 126.297 34.9847C126.434 35.0948 126.539 35.2411 126.599 35.4072C126.66 35.5735 126.673 35.7534 126.639 35.9271C126.497 36.6288 126.214 37.2934 125.808 37.8804C125.279 38.6626 124.606 39.3345 123.826 39.8596C122.832 40.5322 121.745 41.0493 120.598 41.3934C119.13 41.8261 117.604 42.0296 116.076 41.9965C114.565 42.0201 113.066 41.7247 111.674 41.1295C110.397 40.5717 109.242 39.7647 108.274 38.7546C107.291 37.7196 106.502 36.5125 105.945 35.1921C105.345 33.77 104.982 32.2574 104.869 30.7154C104.708 29.2039 104.711 27.6792 104.876 26.1681ZM109.229 26.3165H122.969V26.1681C122.969 24.156 122.341 22.5475 121.085 21.3427C119.829 20.138 118.158 19.5364 116.073 19.538C115.172 19.5304 114.277 19.6902 113.432 20.0092C112.637 20.3104 111.906 20.764 111.281 21.3451C110.652 21.9355 110.152 22.6521 109.813 23.4491C109.447 24.3089 109.247 25.2319 109.224 26.1681L109.229 26.3165Z" fill="white" style="fill:white;fill-opacity:1;"/>
<path d="M143.757 15.7776C144.108 15.7787 144.444 15.9195 144.693 16.1694C144.943 16.4194 145.084 16.7584 145.089 17.1134V18.6968C145.085 19.0498 144.945 19.387 144.697 19.6366C144.451 19.8863 144.117 20.0284 143.769 20.0327H140.921C137.178 20.0327 135.308 21.9294 135.308 25.7227V40.1705C135.304 40.5234 135.163 40.8608 134.917 41.1103C134.67 41.36 134.336 41.5021 133.987 41.5063H132.178C131.829 41.5021 131.495 41.36 131.249 41.1103C131.002 40.8608 130.862 40.5234 130.857 40.1705V17.1134C130.862 16.7605 131.002 16.4231 131.249 16.1736C131.495 15.924 131.829 15.7818 132.178 15.7776H133.987C134.336 15.7818 134.67 15.924 134.917 16.1736C135.163 16.4231 135.304 16.7605 135.308 17.1134V18.6473C135.881 17.7269 136.684 16.9759 137.636 16.4703C138.548 16.0084 139.738 15.7776 141.207 15.7776H143.757Z" fill="white" style="fill:white;fill-opacity:1;"/>
<path fill-rule="evenodd" clip-rule="evenodd" d="M16.1228 1H0V41.5347H16.8005L17.1055 41.5323L17.4084 41.523L17.7088 41.5111L18.0069 41.4947L18.3027 41.4711L18.5937 41.4428L18.8825 41.4122L19.1713 41.3745L19.4531 41.3321L19.7349 41.285L20.012 41.2331L20.2868 41.1766L20.5593 41.113L20.8271 41.047L21.0926 40.9763L21.3535 40.8985L21.612 40.8184L21.8682 40.7313L22.1197 40.6394L22.3665 40.5451L22.611 40.4438L22.8532 40.3378L23.0908 40.2294L23.3237 40.1139L23.5542 39.9938L23.7778 39.869L24.0014 39.7393L24.2179 39.6074L24.4323 39.4684L24.6418 39.3247L24.8491 39.1763L25.0494 39.0231L25.2473 38.8676L25.4406 38.705L25.6292 38.5378L25.8133 38.3658L25.9949 38.1914L26.1695 38.0099L26.3396 37.8261L26.5073 37.6353L26.6679 37.4421L26.8263 37.2419L26.9777 37.0392L27.1244 36.8319L27.2688 36.6175L27.4062 36.4008L27.5389 36.1792L27.6647 35.953L27.7882 35.7245L27.9069 35.4889L28.0187 35.2486L28.1258 35.0036L28.226 34.7561L28.3214 34.504L28.4123 34.2472L28.4985 33.9857L28.5799 33.7194L28.6521 33.4485L28.722 33.1728L28.7849 32.8948L28.8408 32.6097L28.8944 32.3223L28.9386 32.0302L28.9782 31.7333L29.0131 31.4316L29.0411 31.1278L29.0621 30.8167L29.0783 30.5033L29.0876 30.1853L29.0899 29.8625L29.0829 29.4643L29.0667 29.0732L29.0388 28.6939L29.0014 28.324L28.9525 27.9658L28.8921 27.6171L28.8245 27.2779L28.7476 26.9479L28.6614 26.6299L28.5684 26.3189L28.4658 26.0173L28.354 25.7252L28.2376 25.4424L28.1119 25.1691L27.9814 24.9052L27.844 24.6484L27.6997 24.401L27.5506 24.1607L27.3969 23.9298L27.2362 23.7083L27.0731 23.4939L26.9032 23.2866L26.7332 23.0863L26.5562 22.8954L26.3792 22.7117L26.1975 22.535L26.0136 22.3653L25.8272 22.2027L25.6386 22.0472L25.4499 21.8964L25.2613 21.7551L25.0703 21.6208L24.8794 21.4912L24.6884 21.3687L24.3088 21.1401L23.9338 20.9352L23.5659 20.7537L23.7359 20.6689L24.0899 20.4734L24.4532 20.2401L24.8234 19.9738L25.0098 19.8254L25.1961 19.6723L25.3824 19.5073L25.5687 19.3353L25.7527 19.1539L25.9367 18.9654L26.116 18.7675L26.2953 18.5602L26.47 18.3481L26.64 18.1243L26.8053 17.8934L26.9684 17.6554L27.1244 17.408L27.2758 17.1536L27.4225 16.8897L27.5599 16.6187L27.6903 16.3407L27.8138 16.0533L27.9302 15.7564L28.035 15.4548L28.1328 15.1438L28.2213 14.8257L28.3005 14.5005L28.3657 14.166L28.4216 13.8267L28.4658 13.4757L28.4985 13.1199L28.5194 12.757L28.5264 12.3871L28.5217 12.0902L28.5147 11.7957L28.5008 11.506L28.4821 11.2208L28.4565 10.9357L28.4262 10.6554L28.3913 10.3797L28.3494 10.1064L28.3028 9.83543L28.2492 9.56921L28.1934 9.30537L28.1305 9.04379L28.0606 8.78699L27.9884 8.53484L27.9092 8.28509L27.8254 8.04011L27.7368 7.79742L27.6414 7.55708L27.5436 7.32385L27.4365 7.09058L27.327 6.86438L27.2129 6.64058L27.0918 6.4191L26.9684 6.20465L26.8379 5.99027L26.7029 5.78292L26.5632 5.57794L26.4164 5.37767L26.2674 5.18212L26.1113 4.98892L25.9507 4.80042L25.7877 4.61665L25.6176 4.43523L25.4429 4.26087L25.2636 4.08887L25.0797 3.92159L24.891 3.75902L24.6953 3.5988L24.4975 3.44566L24.2948 3.29486L24.0875 3.14878L23.8733 3.00741L23.6567 2.87076L23.4355 2.73882L23.2095 2.61159L22.979 2.48907L22.7414 2.36891L22.5016 2.25582L22.2571 2.14743L22.0079 2.0414L21.7564 1.94245L21.4978 1.8482L21.2347 1.75867L20.9692 1.67385L20.6967 1.59374L20.4219 1.51835L20.1425 1.44766L19.8584 1.38169L19.5695 1.32043L19.2784 1.26624L18.9803 1.21676L18.6799 1.172L18.3749 1.13194L18.0651 1.0966L17.7507 1.06833L17.434 1.04241L17.1125 1.02356L16.7865 1.01178L16.4582 1.00236L16.1228 1Z" fill="white" style="fill:white;fill-opacity:1;"/>
<path d="M157.98 40.7902C156.634 40.1389 155.566 39.2549 154.754 38.1384C153.964 37.0218 153.569 35.7656 153.569 34.3932C153.569 32.2531 154.452 30.4852 156.193 29.1128C157.934 27.7403 160.348 26.8332 163.366 26.3679L170.678 25.3444V23.9254C170.678 20.5757 168.752 18.9009 164.875 18.9009C163.389 18.9009 162.182 19.2033 161.276 19.8081C160.371 20.4129 159.698 21.1107 159.28 21.9249C159.141 22.2506 159.002 22.4599 158.862 22.5763C158.723 22.6926 158.514 22.739 158.258 22.739H156.355C156.054 22.739 155.821 22.6227 155.589 22.4134C155.38 22.204 155.264 21.9481 155.264 21.6458C155.264 20.9014 155.612 20.0175 156.308 19.0404C157.005 18.0402 158.096 17.1795 159.558 16.4584C161.021 15.7373 162.808 15.3651 164.921 15.3651C168.566 15.3651 171.166 16.2025 172.744 17.9006C174.323 19.5987 175.112 21.7155 175.112 24.2511V40.1156C175.112 40.4413 174.996 40.7204 174.787 40.9298C174.578 41.1391 174.299 41.2554 173.975 41.2554H171.839C171.514 41.2554 171.258 41.1391 171.049 40.9298C170.864 40.7204 170.748 40.4413 170.748 40.1156V37.9755C170.028 39.0456 168.984 39.9527 167.637 40.6506C166.291 41.3485 164.526 41.7207 162.367 41.7207C160.812 41.7672 159.326 41.4415 157.98 40.7902ZM168.635 36.0913C170.005 34.6956 170.678 32.6486 170.678 29.9967V28.6243L164.967 29.4617C162.623 29.7874 160.858 30.3456 159.652 31.1133C158.444 31.9042 157.841 32.8812 157.841 34.0443C157.841 35.3702 158.375 36.417 159.466 37.1149C160.557 37.8359 161.857 38.1849 163.343 38.1849C165.525 38.1849 167.266 37.487 168.635 36.0913Z" fill="white" style="fill:white;fill-opacity:1;"/>
<path d="M179.731 10.7592C179.522 10.5498 179.407 10.2707 179.407 9.94505V7.40949C179.407 7.08383 179.522 6.80469 179.731 6.57207C179.94 6.33945 180.219 6.22314 180.544 6.22314H183.399C183.725 6.22314 184.003 6.33945 184.235 6.57207C184.467 6.80469 184.583 7.08383 184.583 7.40949V9.96828C184.583 10.294 184.467 10.5731 184.235 10.7825C184.003 10.9918 183.725 11.1081 183.399 11.1081H180.52C180.196 11.0848 179.94 10.9685 179.731 10.7592ZM180.103 40.9529C179.894 40.7436 179.778 40.4644 179.778 40.1388V16.9934C179.778 16.6677 179.894 16.3885 180.103 16.1792C180.312 15.9698 180.59 15.8535 180.916 15.8535H183.051C183.376 15.8535 183.655 15.9698 183.864 16.1792C184.073 16.3885 184.188 16.6677 184.188 16.9934V40.1388C184.188 40.4644 184.073 40.7436 183.864 40.9529C183.655 41.1623 183.376 41.2786 183.051 41.2786H180.916C180.59 41.2786 180.335 41.1623 180.103 40.9529Z" fill="white" style="fill:white;fill-opacity:1;"/>
<path d="M145.56 40.9529C145.352 40.7436 145.236 40.4645 145.236 40.1388V36.7658C145.236 36.4402 145.352 36.1611 145.56 35.9284C145.769 35.6958 146.048 35.5795 146.373 35.5795H149.739C150.064 35.5795 150.343 35.6958 150.552 35.9284C150.76 36.1611 150.877 36.4402 150.877 36.7658V40.1388C150.877 40.4645 150.76 40.7436 150.552 40.9529C150.343 41.1623 150.064 41.2786 149.739 41.2786H146.373C146.025 41.2786 145.769 41.1623 145.56 40.9529Z" fill="white" style="fill:white;fill-opacity:1;"/>
<path d="M199.486 6.12495C199.486 8.67235 197.416 10.7375 194.863 10.7375C192.31 10.7375 190.24 8.67235 190.24 6.12495C190.24 3.57754 192.31 1.51245 194.863 1.51245C197.416 1.51245 199.486 3.57754 199.486 6.12495Z" stroke="white" style="stroke:white;stroke-opacity:1;" stroke-width="1.5"/>
<path d="M194.586 5.71445C194.868 5.71445 195.073 5.65808 195.197 5.55046C195.32 5.44796 195.387 5.27372 195.387 5.02773C195.387 4.78687 195.32 4.61775 195.197 4.51013C195.073 4.40764 194.868 4.35639 194.586 4.35639H194.01V5.71445H194.586ZM194.01 6.65228V8.65092H192.644V3.36731H194.73C195.428 3.36731 195.937 3.48518 196.26 3.72092C196.589 3.95153 196.748 4.32052 196.748 4.82787C196.748 5.17635 196.666 5.46333 196.496 5.68883C196.327 5.90919 196.075 6.0783 195.731 6.1808C195.921 6.22692 196.085 6.32429 196.234 6.47291C196.383 6.62153 196.532 6.84701 196.681 7.1545L197.426 8.65092H195.972L195.326 7.33899C195.197 7.07763 195.063 6.89314 194.93 6.8009C194.796 6.70353 194.617 6.65228 194.395 6.65228H194.01Z" fill="white" style="fill:white;fill-opacity:1;"/>
</g>
<defs>
<clipPath id="clip0_1_169">
<rect width="201" height="42" fill="white" style="fill:white;fill-opacity:1;"/>
</clipPath>
</defs>
</svg>
