<svg width="200" height="24" viewBox="0 0 200 24" fill="none" xmlns="http://www.w3.org/2000/svg">
<path d="M78.937 12.7752H77.0127V24.0008H78.937V12.7752ZM68.3954 0.0141068L66.9736 1.38716L74.587 9.30211L76.0088 7.92905L68.3954 0.0134752V0.0141068ZM88.2242 0.0141068L80.0248 8.0099L81.4473 9.38295L89.6466 1.38716L88.2242 0.0141068ZM20.8742 5.58716C19.1171 1.87221 16.0216 0.0134752 11.4204 0.0134752C8.24087 -0.147577 5.22869 1.144 3.13702 3.40569C-1.04567 8.41284 -1.04567 15.52 3.13702 20.4469C5.22869 22.7888 8.3242 24.0002 11.4197 23.8385C13.7627 23.8385 15.9377 23.0314 17.7787 21.6583C19.6191 20.3661 20.8742 18.5086 21.3761 16.4086L19.2845 15.9242C18.7825 17.62 17.778 19.0739 16.3563 20.2044C15.0178 21.3349 13.2601 21.9811 11.5037 21.9811C8.49151 21.9811 6.23253 21.0931 4.64343 19.2356C3.13702 17.4583 2.30048 14.9547 2.30048 12.0476C2.13381 9.46316 2.96971 6.87874 4.64343 4.77874C6.1492 3.00211 8.49151 2.03263 11.587 2.03263C14.9338 2.03263 17.3601 3.48653 18.9498 6.47453L20.8742 5.58653V5.58716ZM35.1806 0.337475L25.8101 23.6775H28.2364L30.9139 16.8128H41.8742L44.6351 23.6781H46.9774L37.7742 0.336844L35.1806 0.337475ZM37.7742 6.63684L41.037 14.9554H31.6671L35.0133 6.63684L36.2684 3.00274H36.4357L37.7742 6.63684ZM53.3357 0.337475V23.6775H67.9774V21.8206H55.5947V0.336844L53.3357 0.337475ZM96.5069 23.6775V13.9057H103.702C108.554 13.9057 111.065 11.1596 111.065 7.12126C111.065 3.16379 108.554 0.337475 103.702 0.337475H94.2479V23.6775H96.5069ZM104.12 2.19495C107.383 2.19495 108.806 4.13327 108.806 7.12126C108.806 10.1099 107.383 12.0476 104.12 12.0476H96.5069V2.19495H104.12ZM135.495 6.39432C134.909 2.11411 132.064 0.0141068 126.877 0.0141068C124.869 -0.0667353 122.861 0.499159 121.188 1.54884C118.678 3.32548 118.092 6.87937 120.017 9.30211C120.518 10.0284 121.188 10.5135 122.024 10.9171C123.531 11.4829 124.952 11.9674 126.542 12.3709C128.049 12.6943 129.47 13.1787 130.893 13.6632C132.901 14.4709 134.072 15.5206 134.072 17.5398C133.905 18.9937 133.068 20.3667 131.646 21.0937C130.308 21.7398 128.801 22.0625 127.295 21.9008C122.777 21.9008 120.518 20.1242 120.268 15.9248L118.092 16.3284C118.594 21.3356 121.941 23.92 127.463 23.92C130.475 23.92 132.734 23.1937 134.407 21.7398C135.578 20.6093 136.331 18.9937 136.415 17.2973C136.415 14.7937 135.159 12.9362 132.566 11.9667C131.144 11.4823 129.722 10.9979 128.383 10.5943C126.542 10.1099 125.204 9.70569 124.283 9.46379C122.359 8.81769 121.355 7.92905 121.355 6.07158C121.355 3.32548 123.865 2.03326 127.295 2.03326C130.977 2.03326 133.152 3.64884 133.486 6.95958L135.495 6.39432ZM145.869 3.48716C143.879 5.90979 142.794 8.9318 142.794 12.0482C142.794 15.1646 143.879 18.1866 145.869 20.6093C147.877 22.8703 150.721 24.0008 154.319 24.0008C157.917 24.0008 160.761 22.8703 162.769 20.6093C164.758 18.1865 165.844 15.1645 165.844 12.0482C165.844 8.9319 164.758 5.90994 162.769 3.48716C160.761 1.22611 157.917 0.0955805 154.319 0.0955805C150.721 0.0141068 147.877 1.22611 145.869 3.48716ZM161.179 4.77937C162.769 6.87874 163.606 9.46379 163.438 12.0482C163.438 15.0356 162.685 17.3787 161.096 19.2356C159.59 21.0931 157.247 21.9817 154.152 21.9817C151.056 21.9817 148.881 21.0931 147.208 19.2356C145.701 17.4589 144.865 14.9554 144.865 12.0482C144.697 9.46379 145.618 6.87937 147.208 4.77874C148.713 3.00274 151.056 2.03326 154.152 2.03326C157.331 2.03326 159.674 2.9219 161.179 4.77937Z" fill="#00C58B" style="fill:#00C58B;fill:color(display-p3 0.0000 0.7725 0.5451);fill-opacity:1;"/>
<path d="M186.279 18.1858H176.825L174.817 23.6781H170.383L179.669 0.0134277H183.518L192.805 23.6774H188.371L186.279 18.1858ZM177.996 14.8745H185.108L181.594 5.10269L177.996 14.8745ZM200 23.6781H195.733V0.0949014H200V23.6781Z" fill="#00C58B" style="fill:#00C58B;fill:color(display-p3 0.0000 0.7725 0.5451);fill-opacity:1;"/>
</svg>
