<svg width="201" height="44" viewBox="0 0 201 44" fill="none" xmlns="http://www.w3.org/2000/svg">
<g clip-path="url(#clip0_1_130)">
<path d="M55.6399 14.3765C55.0639 13.6371 54.3341 13.0681 53.4516 12.6695C52.5678 12.271 51.6561 12.0717 50.7166 12.0717C49.5647 12.0717 48.523 12.2841 47.5927 12.7115C46.6612 13.1389 45.8649 13.721 45.2028 14.4617C44.5419 15.2011 44.027 16.069 43.6634 17.064C43.2985 18.0604 43.1153 19.1262 43.1153 20.2642C43.1153 21.3261 43.2878 22.3317 43.6329 23.2795C43.9779 24.2274 44.4782 25.0612 45.1298 25.7822C45.7827 26.5033 46.5802 27.0723 47.5198 27.4892C48.4593 27.9074 49.5249 28.1145 50.7153 28.1145C51.9056 28.1145 52.9142 27.8772 53.7966 27.4039C54.6791 26.9307 55.4276 26.266 56.042 25.4138L58.3749 27.1483C58.221 27.3567 57.9529 27.6557 57.5694 28.045C57.1845 28.4344 56.6763 28.8225 56.0433 29.2105C55.4103 29.5999 54.6473 29.9407 53.7555 30.2357C52.8624 30.5294 51.83 30.6762 50.6595 30.6762C49.0472 30.6762 47.5941 30.3721 46.2976 29.7664C45.0024 29.1594 43.8983 28.3636 42.9866 27.3764C42.0749 26.3905 41.3782 25.2775 40.8992 24.0347C40.4201 22.7931 40.1799 21.5359 40.1799 20.2655C40.1799 18.7107 40.4387 17.2751 40.9562 15.9575C41.4738 14.6387 42.1983 13.5007 43.1313 12.5437C44.0615 11.5866 45.1802 10.8407 46.4847 10.311C47.7905 9.78008 49.229 9.51526 50.8042 9.51526C52.1471 9.51526 53.4675 9.7709 54.7614 10.2822C56.0579 10.7948 57.1182 11.5827 57.9436 12.6433L55.6399 14.3791V14.3765Z" fill="#00C58B" style="fill:#00C58B;fill:color(display-p3 0.0000 0.7725 0.5451);fill-opacity:1;"/>
<path d="M62.0029 10.0253H75.1605V12.5844H64.7671V18.5875H74.4425V21.1465H64.7671V27.6032H75.6793V30.1636H62.0043V10.0253H62.0029Z" fill="#00C58B" style="fill:#00C58B;fill:color(display-p3 0.0000 0.7725 0.5451);fill-opacity:1;"/>
<path d="M106.516 10.0253V22.3697C106.516 22.9951 106.602 23.6453 106.774 24.3179C106.947 24.9917 107.235 25.6118 107.638 26.1808C108.042 26.7498 108.57 27.2152 109.223 27.5744C109.874 27.9336 110.681 28.1145 111.641 28.1145C112.6 28.1145 113.407 27.9349 114.06 27.5744C114.711 27.2152 115.24 26.7485 115.643 26.1808C116.048 25.6118 116.336 24.9917 116.508 24.3179C116.681 23.644 116.767 22.9951 116.767 22.3697V10.0253H119.531V22.7958C119.531 23.9718 119.33 25.0389 118.926 25.9959C118.523 26.953 117.967 27.7842 117.257 28.4855C116.545 29.1882 115.712 29.7271 114.751 30.1073C113.792 30.4861 112.755 30.6762 111.641 30.6762C110.526 30.6762 109.492 30.4861 108.531 30.1073C107.572 29.7271 106.736 29.1882 106.026 28.4855C105.316 27.7842 104.76 26.9543 104.357 25.9959C103.953 25.0402 103.751 23.9718 103.751 22.7958V10.0253H106.516Z" fill="#00C58B" style="fill:#00C58B;fill:color(display-p3 0.0000 0.7725 0.5451);fill-opacity:1;"/>
<path d="M124.681 10.0253H137.839V12.5844H127.446V18.5875H137.121V21.1465H127.446V27.6032H138.358V30.1636H124.683V10.0253H124.681Z" fill="#00C58B" style="fill:#00C58B;fill:color(display-p3 0.0000 0.7725 0.5451);fill-opacity:1;"/>
<path d="M142.562 10.0253H146.189L157.418 26.5793H157.475V10.0253H160.238V30.1636H156.727L145.382 13.6082H145.325V30.1636H142.562V10.0253Z" fill="#00C58B" style="fill:#00C58B;fill:color(display-p3 0.0000 0.7725 0.5451);fill-opacity:1;"/>
<path d="M179.96 14.3765C179.385 13.6371 178.655 13.0681 177.772 12.6695C176.888 12.271 175.977 12.0717 175.037 12.0717C173.885 12.0717 172.844 12.2841 171.913 12.7115C170.982 13.1389 170.185 13.721 169.523 14.4617C168.862 15.2011 168.348 16.069 167.984 17.064C167.619 18.0604 167.436 19.1262 167.436 20.2642C167.436 21.3261 167.608 22.3317 167.953 23.2795C168.298 24.2274 168.799 25.0612 169.45 25.7822C170.103 26.5033 170.901 27.0723 171.84 27.4892C172.78 27.9074 173.845 28.1145 175.036 28.1145C176.226 28.1145 177.235 27.8772 178.117 27.4039C179 26.9307 179.748 26.266 180.363 25.4138L182.695 27.1483C182.542 27.3567 182.273 27.6557 181.89 28.045C181.505 28.4344 180.997 28.8225 180.364 29.2105C179.731 29.5999 178.968 29.9407 178.076 30.2357C177.183 30.5294 176.151 30.6762 174.98 30.6762C173.368 30.6762 171.915 30.3721 170.618 29.7664C169.323 29.1594 168.219 28.3636 167.307 27.3764C166.395 26.3905 165.699 25.2775 165.22 24.0347C164.741 22.7931 164.5 21.5359 164.5 20.2655C164.5 18.7107 164.759 17.2751 165.277 15.9575C165.794 14.6387 166.519 13.5007 167.452 12.5437C168.382 11.5866 169.501 10.8407 170.805 10.311C172.111 9.78008 173.55 9.51526 175.125 9.51526C176.468 9.51526 177.788 9.7709 179.082 10.2822C180.378 10.7948 181.439 11.5827 182.264 12.6433L179.96 14.3791V14.3765Z" fill="#00C58B" style="fill:#00C58B;fill:color(display-p3 0.0000 0.7725 0.5451);fill-opacity:1;"/>
<path d="M186.325 10.0253H199.483V12.5844H189.089V18.5875H198.765V21.1465H189.089V27.6032H200.001V30.1636H186.326V10.0253H186.325Z" fill="#00C58B" style="fill:#00C58B;fill:color(display-p3 0.0000 0.7725 0.5451);fill-opacity:1;"/>
<path d="M97.4734 26.9674C98.1263 26.1717 98.6624 25.2762 99.0724 24.2733C99.6006 22.9846 99.8647 21.591 99.8647 20.0925C99.8647 18.594 99.5993 17.2004 99.0724 15.9117C98.5443 14.623 97.8157 13.5047 96.8842 12.5555C95.9526 11.6077 94.8339 10.863 93.5308 10.3229C92.2249 9.78145 90.7957 9.5127 89.2404 9.5127C87.6852 9.5127 86.2546 9.78276 84.9502 10.3229C83.643 10.863 82.527 11.6077 81.5954 12.5555C80.6652 13.5034 79.9353 14.623 79.4071 15.9117C78.879 17.2017 78.6162 18.5953 78.6162 20.0925C78.6162 21.5897 78.8803 22.9859 79.4071 24.2733C79.9353 25.5633 80.6638 26.6816 81.5954 27.6308C82.527 28.5787 83.6443 29.322 84.9502 29.8634C86.2546 30.4049 87.6838 30.6737 89.2404 30.6737C90.7971 30.6737 92.2249 30.4036 93.5308 29.8634C94.3628 29.5187 95.1099 29.0821 95.7907 28.5708C96.6108 29.3626 98.4461 31.2308 100.098 32.943L101.785 31.3528C99.4865 28.972 98.2258 27.6754 97.4734 26.9674ZM92.4068 27.4748C91.4672 27.9009 90.4109 28.1133 89.2404 28.1133C88.07 28.1133 87.0124 27.9009 86.0728 27.4748C85.1333 27.0474 84.3264 26.4745 83.655 25.7534C82.9835 25.0324 82.4646 24.1842 82.101 23.2075C81.7361 22.2308 81.5529 21.1925 81.5529 20.0925C81.5529 18.9926 81.7347 17.9556 82.101 16.9789C82.4646 16.0009 82.9835 15.154 83.655 14.4329C84.3264 13.7118 85.1333 13.1389 86.0728 12.7116C87.0124 12.2842 88.0687 12.0718 89.2404 12.0718C90.4122 12.0718 91.4672 12.2842 92.4068 12.7116C93.3463 13.1389 94.1531 13.7118 94.8246 14.4329C95.4961 15.154 96.015 16.0022 96.3799 16.9789C96.7435 17.9556 96.9266 18.9939 96.9266 20.0925C96.9266 21.1911 96.7448 22.2308 96.3799 23.2075C96.015 24.1855 95.4961 25.0324 94.8246 25.7534C94.1518 26.4745 93.3463 27.0474 92.4068 27.4748Z" fill="#00C58B" style="fill:#00C58B;fill:color(display-p3 0.0000 0.7725 0.5451);fill-opacity:1;"/>
<path d="M31.6458 25.1752V13.54L0.0145974 32.3635L0 32.3726V43.9921L0.0145974 44L31.6458 25.1752Z" fill="#00C58B" style="fill:#00C58B;fill:color(display-p3 0.0000 0.7725 0.5451);fill-opacity:1;"/>
<path d="M0 0V11.6352L13.2465 19.5196L23.0227 13.7013L0 0Z" fill="#00C58B" style="fill:#00C58B;fill:color(display-p3 0.0000 0.7725 0.5451);fill-opacity:1;"/>
</g>
<defs>
<clipPath id="clip0_1_130">
<rect width="201" height="44" fill="white" style="fill:white;fill-opacity:1;"/>
</clipPath>
</defs>
</svg>
