<svg width="200" height="42" viewBox="0 0 200 42" fill="none" xmlns="http://www.w3.org/2000/svg">
<g clip-path="url(#clip0_1_166)">
<path fill-rule="evenodd" clip-rule="evenodd" d="M177.246 33.9C183.234 33.9 188.323 29.775 189.746 24.15C189.746 24.075 189.746 24.075 189.746 24C189.746 23.625 189.446 23.4 189.147 23.4H183.982C183.757 23.4 183.533 23.55 183.458 23.775C182.41 26.1 180.015 27.75 177.32 27.75C173.578 27.75 170.584 24.75 170.584 21C170.584 17.25 173.578 14.25 177.32 14.25C180.015 14.25 182.41 15.9 183.458 18.225C183.533 18.45 183.757 18.6 183.982 18.6H189.147C189.521 18.6 189.746 18.3 189.746 18C189.746 17.925 189.746 17.925 189.746 17.85C188.323 12.225 183.308 8.1 177.246 8.1C170.135 8.1 164.371 13.875 164.371 21C164.371 28.125 170.135 33.9 177.246 33.9ZM199.401 8.7V32.7C199.401 33.075 199.102 33.3 198.802 33.3H193.862C193.488 33.3 193.263 33 193.263 32.7V8.7H199.401ZM196.332 0.075C194.311 0.075 192.665 1.725 192.665 3.75C192.665 5.775 194.311 7.425 196.332 7.425C198.353 7.425 200 5.775 200 3.75C200 1.725 198.353 0.075 196.332 0.075ZM138.997 18.525C140.045 14.625 143.638 11.775 147.829 11.775C152.021 11.775 155.614 14.625 156.662 18.525H138.997ZM147.829 8.1C140.719 8.1 134.955 13.875 134.955 21C134.955 28.125 140.719 33.9 147.829 33.9C152.844 33.9 157.186 30.975 159.356 26.775C159.431 26.7 159.431 26.625 159.431 26.475C159.431 26.1 159.132 25.875 158.832 25.875H155.988C155.763 25.875 155.614 25.95 155.464 26.1C153.817 28.575 151.048 30.15 147.829 30.15C143.189 30.15 139.296 26.7 138.698 22.125H160.03C160.329 22.125 160.629 21.9 160.629 21.525C160.629 21.3 160.629 21.075 160.629 20.85C160.704 13.875 154.94 8.1 147.829 8.1ZM130.689 0.675H128.219C127.844 0.675 127.62 0.975 127.62 1.275V32.625C127.62 33 127.919 33.225 128.219 33.225H130.689C131.063 33.225 131.287 32.925 131.287 32.625V1.275C131.287 0.975 130.988 0.675 130.689 0.675ZM123.353 25.95H120.509C120.284 25.95 120.135 26.025 120.06 26.175C118.413 28.65 115.644 30.225 112.425 30.225C107.335 30.225 103.219 26.1 103.219 21C103.219 15.9 107.335 11.775 112.425 11.775C115.569 11.775 118.413 13.425 120.06 15.825C120.135 15.975 120.359 16.05 120.509 16.05H123.353C123.728 16.05 123.952 15.75 123.952 15.45C123.952 15.375 123.952 15.225 123.877 15.15C121.781 10.95 117.44 8.025 112.35 8.025C105.24 8.025 99.476 13.8 99.476 20.925C99.476 28.05 105.24 33.825 112.35 33.825C117.365 33.825 121.707 30.9 123.877 26.7C123.952 26.625 123.952 26.55 123.952 26.4C123.952 26.175 123.653 25.95 123.353 25.95ZM98.8772 8.1C95.1347 8.25 92.2156 10.05 90.2695 12.75V9.3C90.2695 8.925 89.9701 8.7 89.6707 8.7H87.2006C86.8263 8.7 86.6018 9 86.6018 9.3V32.7C86.6018 33.075 86.9012 33.3 87.2006 33.3H89.6707C90.0449 33.3 90.2695 33 90.2695 32.7V21C90.2695 16.125 94.0868 12.075 98.8772 11.775C99.2515 11.775 99.476 11.475 99.476 11.175V8.7C99.476 8.4 99.2515 8.1 98.8772 8.1ZM82.9341 32.7V8.7H79.2665V32.7C79.2665 33.075 79.5659 33.3 79.8653 33.3H82.3353C82.7096 33.3 82.9341 33 82.9341 32.7ZM83.5329 3.75C83.5329 5.1 82.4102 6.225 81.0629 6.225C79.7156 6.225 78.5928 5.1 78.5928 3.75C78.5928 2.4 79.7156 1.275 81.0629 1.275C82.485 1.275 83.5329 2.4 83.5329 3.75ZM75 25.95H72.1557C71.9311 25.95 71.7814 26.025 71.7066 26.175C70.0599 28.65 67.2904 30.225 64.0719 30.225C58.982 30.225 54.8653 26.1 54.8653 21C54.8653 15.9 58.982 11.775 64.0719 11.775C67.2156 11.775 70.0599 13.425 71.7066 15.825C71.7814 15.975 72.006 16.05 72.1557 16.05H75C75.3742 16.05 75.5988 15.75 75.5988 15.45C75.5988 15.375 75.5988 15.225 75.524 15.15C73.4281 10.95 69.0868 8.025 63.997 8.025C56.8862 8.025 51.1228 13.8 51.1228 20.925C51.1228 28.05 56.8862 33.825 63.997 33.825C69.012 33.825 73.3533 30.9 75.524 26.7C75.5988 26.625 75.5988 26.55 75.5988 26.4C75.5988 26.175 75.2994 25.95 75 25.95ZM20.2844 0C10.5539 0 2.32036 6.75 0 15.825C0 15.9 0 15.975 0 16.05C0 16.575 0.449102 17.025 0.973054 17.025H9.43114C9.80539 17.025 10.1796 16.8 10.3293 16.425C12.0509 12.675 15.8683 9.975 20.2844 9.975C26.3473 9.975 31.2126 14.925 31.2126 21C31.2126 27.075 26.2725 32.025 20.2844 32.025C15.8683 32.025 12.0509 29.4 10.3293 25.575C10.1796 25.2 9.80539 24.975 9.43114 24.975H0.973054C0.449102 24.975 0 25.425 0 25.95C0 26.025 0 26.1 0 26.175C2.32036 35.25 10.5539 42 20.2844 42C31.8114 42 41.1677 32.625 41.1677 21C41.2425 9.375 31.8114 0 20.2844 0ZM15.3443 21C15.3443 18.225 17.5898 15.975 20.3593 15.975C23.1287 15.975 25.3743 18.225 25.3743 21C25.3743 23.775 23.1287 26.025 20.3593 26.025C17.515 26.025 15.3443 23.775 15.3443 21Z" fill="white" style="fill:white;fill-opacity:1;"/>
</g>
<defs>
<clipPath id="clip0_1_166">
<rect width="200" height="42" fill="white" style="fill:white;fill-opacity:1;"/>
</clipPath>
</defs>
</svg>
