<svg width="201" height="60" viewBox="0 0 201 60" fill="none" xmlns="http://www.w3.org/2000/svg">
<g clip-path="url(#clip0_1_182)">
<path d="M25.8064 46.8958C24.3767 46.1964 22.9105 45.497 21.4809 44.7976C21.7008 44.5031 21.6275 44.1718 21.3342 44.0246C20.3445 43.4356 19.2814 42.9203 18.2917 42.2577C17.7785 41.9264 17.9618 40.7117 16.8621 40.9694C16.7155 40.9326 16.5688 40.859 16.4222 40.8221C16.3489 40.8221 16.3122 40.8221 16.2389 40.859C16.1656 40.8221 16.0923 40.8221 16.0556 40.7853C16.019 40.7853 15.9457 40.7853 15.909 40.7853C15.6157 40.3436 15.3225 39.9019 15.0659 39.4602C15.0292 39.0921 15.0292 38.7608 14.9926 38.3927C15.6524 38.8344 16.3489 39.2761 17.0087 39.7179C17.0454 39.9019 17.0454 40.3436 17.302 40.1228C17.7418 39.7179 18.1817 39.1657 18.255 38.6136C18.365 37.8406 17.6319 38.5399 17.3386 38.3191C16.2389 37.4356 15.1392 36.589 14.0762 35.7056C14.0395 35.6688 14.0028 35.5952 13.9662 35.5583C13.7462 35.2639 13.5263 34.9694 13.2697 34.6749C13.563 34.3804 13.3064 34.3436 13.0864 34.27C12.9031 34.0123 12.7565 33.7915 12.5732 33.5338C12.5366 33.3866 12.4999 33.2393 12.4633 33.0921C12.3899 32.7976 12.28 32.5399 12.2067 32.2455C12.0967 31.8774 11.9134 31.5093 11.8401 31.1412C11.5835 29.7424 10.7037 28.3068 11.8401 26.908C11.7301 26.2823 12.5732 26.5399 12.6832 25.9878C12.8298 25.2884 12.7932 24.5522 12.9031 23.8896C13.0498 22.9694 14.0028 22.1964 14.2594 21.1657C14.3328 20.9448 14.5894 20.7608 14.7726 20.5399C14.8093 20.724 14.846 20.9448 14.8826 21.1289C14.8826 21.2393 14.8826 21.3129 14.8826 21.4234C14.6627 21.6074 14.4061 21.7915 14.5527 22.1596C14.5527 22.2332 14.5527 22.27 14.5527 22.3436C13.9295 22.859 14.4794 23.632 14.0762 24.1841C14.0762 24.1841 14.2228 24.3682 14.2961 24.3313C14.3694 24.3313 14.516 24.2209 14.5527 24.1473C14.6993 23.7792 14.8093 23.3743 14.9193 23.0062C14.9926 22.859 15.1026 22.6749 15.1759 22.5277C15.3591 22.1596 15.5424 21.7915 15.7624 21.4602C16.3855 20.135 17.3753 19.2148 18.6949 18.6626C19.4281 18.1841 20.1245 17.5583 21.1143 17.9264C22.214 17.8896 23.3137 17.8896 24.4134 17.816C24.67 17.816 24.9266 17.632 25.1832 17.5583C25.1099 17.4479 25.1099 17.2639 24.9999 17.1902C24.2668 16.7117 23.607 16.1228 22.7272 16.086C20.1979 16.0123 17.8152 15.0921 16.1656 13.178C13.8929 10.4909 11.7301 10.3436 9.56736 11.816C5.71839 14.4295 2.85915 17.7792 1.31956 22.27C-0.586599 27.8283 -0.549942 33.1657 2.34595 38.3927C4.03217 41.4479 6.74478 43.2516 9.64067 44.908C9.89727 45.0185 10.1539 45.1289 10.4105 45.2393C10.4838 45.2761 10.5571 45.3129 10.5938 45.3866C10.9603 45.7915 11.4735 45.7915 11.9501 45.8283C12.3166 45.9755 12.6832 46.0859 13.0498 46.2332C13.453 46.4909 13.8562 46.5277 14.2961 46.3804C14.516 46.454 14.6627 46.4909 14.8826 46.5645C15.8357 47.9264 17.2653 47.4111 18.5116 47.5952C19.8679 47.7056 21.2243 47.8528 22.5806 47.9264C23.7536 47.9632 24.9633 47.9264 26.1363 47.8896C25.6597 47.6688 25.1832 47.4479 25.8064 46.8958ZM11.3635 31.0675C11.4002 31.2516 11.4002 31.5461 11.5102 31.8037C11.4369 31.5461 11.4369 31.2516 11.3635 31.0675ZM15.4325 20.0982C15.1392 20.2823 15.2858 20.6872 15.1392 20.9817C15.2858 20.6872 15.1392 20.2455 15.4325 20.0982C15.5791 20.0246 15.7257 19.9878 15.8723 19.951C15.7257 19.9878 15.5791 19.9878 15.4325 20.0982ZM15.3225 19.6933C15.2858 19.6933 15.2125 19.6933 15.2125 19.6933C15.2125 19.6933 15.2492 19.6933 15.3225 19.6933Z" fill="#00C58B" style="fill:#00C58B;fill:color(display-p3 0.0000 0.7725 0.5451);fill-opacity:1;"/>
<path d="M33.8708 9.31293C33.6509 9.05526 33.3576 8.79759 33.5776 8.39269C33.3576 8.24545 33.1377 8.09821 32.9177 7.95097C32.038 6.5522 30.7183 5.74238 29.2887 5.04299C29.0688 4.89575 28.8122 4.78532 28.5922 4.63809C28.5189 4.60128 28.4089 4.52766 28.3356 4.49085C26.5028 3.2025 24.7066 1.87735 22.8371 0.589006C22.2139 0.147288 20.3078 1.17796 20.2344 1.91416C20.1245 3.42336 24.0468 7.36201 26.0629 7.73011C26.2462 8.24545 27.1626 8.72398 27.4925 8.46631C27.5658 8.50312 27.6025 8.50312 27.6758 8.53993C28.189 8.50312 28.189 9.53379 28.8855 9.12888C29.3254 9.38655 29.8019 9.64422 30.2418 9.90189C30.5717 9.9387 30.9016 9.9387 31.1949 9.86508C31.1582 9.42336 31.3781 9.31293 32.1479 9.90189C32.2212 9.9387 32.4045 9.9387 32.4045 9.9387C32.6978 8.76079 33.2476 10.0123 33.6509 9.79146C33.7608 9.71784 33.9441 9.71784 33.9441 9.68103C33.9808 9.53379 33.9441 9.38655 33.8708 9.31293Z" fill="#00C58B" style="fill:#00C58B;fill:color(display-p3 0.0000 0.7725 0.5451);fill-opacity:1;"/>
<path d="M15.909 9.60737C17.0454 10.0491 18.365 10.3068 19.2448 11.043C20.5278 12.0736 21.9208 12.8466 23.3504 13.5828C23.3504 13.5828 23.3504 13.5828 23.3504 13.546C23.3504 13.546 23.3504 13.546 23.3504 13.5828C23.8269 13.8405 24.3034 14.0982 24.8166 13.6933C24.56 13.4356 24.3035 13.1779 23.9735 13.0307C24.2668 13.1779 24.56 13.4356 24.8166 13.6933C25.2199 13.8405 25.6231 14.0246 25.9897 14.1718C26.0263 14.1718 26.063 14.1718 26.0996 14.1718C26.3196 14.2086 26.5395 14.135 26.7595 14.0614C26.7961 14.0246 26.8694 13.9877 26.9427 13.9141C27.4559 13.6196 27.236 13.2147 27.0894 12.6994C26.5029 10.2331 24.3035 9.79142 22.5439 8.72394C21.2609 7.95093 19.4281 7.69326 18.9515 5.85277C18.8049 5.70553 18.6583 5.55829 18.5117 5.44787C18.1451 5.00615 17.7052 4.78529 17.1554 5.04296C17.0454 5.04296 16.9354 5.07977 16.8254 5.07977C16.7521 5.07977 16.6788 5.07977 16.5688 5.04296C15.6158 5.63191 15.0293 6.18406 14.8826 7.58283C14.736 8.79756 14.8826 9.20247 15.909 9.60737ZM25.843 11.6687C25.843 11.6319 25.8064 11.6319 25.8064 11.5951C25.8064 11.5951 25.8064 11.6319 25.843 11.6687Z" fill="#00C58B" style="fill:#00C58B;fill:color(display-p3 0.0000 0.7725 0.5451);fill-opacity:1;"/>
<path d="M29.472 43.5828C28.5923 43.8773 28.1157 42.1472 27.1627 43.2147C26.7594 41.5951 24.9266 42.6994 24.1935 41.5951C24.0102 41.3006 23.387 41.3374 23.3137 42C23.2404 42.8098 23.3137 43.6565 24.3401 43.4356C25.1832 43.2515 25.3298 44.9448 26.2829 43.9877C26.3929 43.9509 26.5028 43.9509 26.6495 43.9141C26.9061 45.2393 27.9325 44.5031 28.6289 44.6135C29.0688 45.1288 29.5454 45.0184 30.0586 44.7976V44.7607H30.0952C30.0952 44.6871 30.1319 44.6135 30.1319 44.5031C30.0952 44.0982 30.1685 43.362 29.472 43.5828Z" fill="#00C58B" style="fill:#00C58B;fill:color(display-p3 0.0000 0.7725 0.5451);fill-opacity:1;"/>
<path d="M21.8475 41.9632C21.9941 42 22.1408 42.0737 22.2874 42.1105C23.4604 41.5951 22.1041 41.1534 22.2507 40.7117C22.5806 39.5706 21.5542 39.9019 21.261 39.9019C20.5645 39.8651 21.1877 40.3804 21.1144 40.6381C20.8944 41.3007 21.3343 41.6688 21.8475 41.9632Z" fill="#00C58B" style="fill:#00C58B;fill:color(display-p3 0.0000 0.7725 0.5451);fill-opacity:1;"/>
<path d="M26.5028 47.6318C26.7228 47.595 26.9427 47.5582 27.126 47.5582C26.7961 47.3006 26.5028 47.0061 26.1729 46.7484C25.8063 47.2269 25.9163 47.5214 26.5028 47.6318Z" fill="#00C58B" style="fill:#00C58B;fill:color(display-p3 0.0000 0.7725 0.5451);fill-opacity:1;"/>
<path d="M12.8299 25.9141C12.72 25.6564 12.6833 25.3619 12.61 25.1779C12.3534 24.4049 12.1334 23.5582 11.9868 22.7484C12.0968 23.5582 12.3167 24.368 12.61 25.1779C12.6833 25.3619 12.72 25.6932 12.8299 25.9141Z" fill="#00C58B" style="fill:#00C58B;fill:color(display-p3 0.0000 0.7725 0.5451);fill-opacity:1;"/>
<path d="M64.3695 15.3865C61.5835 14.4663 58.6876 13.6565 55.7917 13.6565C46.8108 13.6565 42.9618 20.8344 42.9618 28.9693C42.9618 37.2147 47.1407 42.0368 55.5352 42.0368C58.1744 42.0368 60.7404 41.227 63.2698 40.4908L62.6832 44.0246C60.044 44.6135 57.3313 44.9448 54.692 44.9448C44.5014 44.9448 39.0396 39.0552 39.0396 28.9693C39.0396 19.0307 43.5483 10.7117 55.4252 10.7117C58.3944 10.7117 61.2903 11.1166 64.1495 11.9632L64.3695 15.3865Z" fill="#00C58B" style="fill:#00C58B;fill:color(display-p3 0.0000 0.7725 0.5451);fill-opacity:1;"/>
<path d="M70.3079 44.2822C71.1143 30.6258 71.9574 16.8221 72.1407 0H76.3562C75.3665 14.7239 74.9633 29.5215 74.5234 44.2822H70.3079Z" fill="#00C58B" style="fill:#00C58B;fill:color(display-p3 0.0000 0.7725 0.5451);fill-opacity:1;"/>
<path d="M104.802 44.2823C105.389 38.6504 105.535 30.5522 105.975 24.1105L105.828 23.9632C101.283 28.9326 85.4838 27.681 85.4838 36.5154C85.4838 41.0798 89.846 42.405 93.6217 42.405C96.1877 42.405 98.717 41.8896 101.1 41.0062L100.367 44.2086C98.0572 44.724 95.7478 45.0185 93.4384 45.0185C89.9926 45.0185 81.5249 44.8712 81.5249 36.7363C81.5249 22.6749 105.975 28.1228 105.975 18.6258C105.975 14.2455 100.953 13.3988 97.5806 13.3988C93.5484 13.3988 89.5161 14.2086 85.8871 15.8651L86.3636 12.4786C90.066 11.4847 93.9149 10.8221 96.9941 10.8221C106.048 10.8221 109.934 13.362 109.934 19.1044C109.934 24.6626 108.944 33.7178 108.944 44.3191H104.802V44.2823Z" fill="#00C58B" style="fill:#00C58B;fill:color(display-p3 0.0000 0.7725 0.5451);fill-opacity:1;"/>
<path d="M122.324 17.1165L122.471 16.9693C124.523 12.773 127.676 10.7484 132.698 10.7484C133.541 10.7484 134.421 10.8957 135.337 11.1533L135.484 14.6134C134.237 14.2822 132.954 13.9509 131.635 13.9509C127.089 13.9509 122.984 17.595 122.324 24.5521C121.811 30.1104 121.737 35.9631 121.737 41.595V44.2453H117.632C118.108 34.638 118.768 24.3312 118.768 11.4478H122.617L122.324 17.1165Z" fill="#00C58B" style="fill:#00C58B;fill:color(display-p3 0.0000 0.7725 0.5451);fill-opacity:1;"/>
<path d="M144.941 11.4847C144.208 22.3804 143.768 33.3129 143.695 44.2822H139.406C140.066 33.3865 140.726 22.454 140.799 11.4847H144.941ZM140.689 3.97546L140.836 0H145.528L145.381 3.97546H140.689Z" fill="#00C58B" style="fill:#00C58B;fill:color(display-p3 0.0000 0.7725 0.5451);fill-opacity:1;"/>
<path d="M158.797 14.3926C158.614 21.4969 157.881 28.7116 157.881 35.8895C157.881 39.092 158.614 42.0736 162.427 42.0736C164.149 42.0736 165.799 41.595 167.449 41.0797L166.935 44.2085C165.139 44.7239 163.306 45.0184 161.437 45.0184C155.902 45.0184 153.885 42.773 153.885 37.2515C153.885 33.1288 154.692 24.3681 155.022 14.4294H150.916L151.063 11.5214H155.242L155.572 5.411L159.127 4.6748L158.871 11.5214H168.255L168.108 14.4294H158.797V14.3926Z" fill="#00C58B" style="fill:#00C58B;fill:color(display-p3 0.0000 0.7725 0.5451);fill-opacity:1;"/>
<path d="M168.805 11.4846H173.314C175.953 21.5705 179.912 31.3251 183.028 41.1533H183.175C187.06 31.3251 191.972 21.6441 195.675 11.4846H200.037L182.551 49.9141C180.022 55.4724 177.859 60 171.004 60C169.355 60 167.705 59.7423 166.129 59.2638L165.726 55.73C167.302 56.4662 169.098 57.0552 170.894 57.0552C173.937 57.0552 176.833 55.3987 180.865 45.1656L168.805 11.4846Z" fill="#00C58B" style="fill:#00C58B;fill:color(display-p3 0.0000 0.7725 0.5451);fill-opacity:1;"/>
</g>
<defs>
<clipPath id="clip0_1_182">
<rect width="201" height="60" fill="white" style="fill:white;fill-opacity:1;"/>
</clipPath>
</defs>
</svg>
