<svg width="201" height="34" viewBox="0 0 201 34" fill="none" xmlns="http://www.w3.org/2000/svg">
<g clip-path="url(#clip0_1_204)">
<path d="M34.1379 16.9865C34.1379 20.3461 33.1368 23.6303 31.2612 26.4237C29.3857 29.2171 26.7199 31.3943 23.6009 32.68C20.482 33.9657 17.05 34.3021 13.739 33.6466C10.4279 32.9912 7.38651 31.3734 4.99938 28.9978C2.61225 26.6222 0.986591 23.5955 0.327982 20.3004C-0.330626 17.0054 0.00739578 13.5899 1.2993 10.4861C2.59121 7.38217 4.77898 4.72924 7.58595 2.86274C10.3929 0.996241 13.693 0 17.0689 0C21.5959 0 25.9374 1.78964 29.1385 4.97523C32.3395 8.16082 34.1379 12.4814 34.1379 16.9865Z" fill="#00C58B" style="fill:#00C58B;fill:color(display-p3 0.0000 0.7725 0.5451);fill-opacity:1;"/>
<path d="M58.5113 22.3587C58.6342 22.0872 58.7841 22.0253 58.9054 22.0253C59.0888 22.0253 59.1781 22.1476 59.1781 22.4794C59.1781 24.3495 57.2383 27.8484 52.601 27.8484C48.9033 27.8484 45.5374 25.3083 45.5374 19.2218C45.5374 12.3129 49.0851 9.14734 53.9043 9.14734C55.7835 9.14734 59.0569 9.6236 59.0569 12.3748C59.0569 14.183 57.5717 14.5973 56.3291 14.5973C56.0563 12.7288 55.6016 10.0729 53.2375 10.0729C50.4794 10.0729 49.267 12.9701 49.267 18.428C49.267 22.7429 51.1159 25.4576 53.8756 25.4576C55.7835 25.4655 57.3293 24.9829 58.5113 22.3587Z" fill="#00C58B" style="fill:#00C58B;fill:color(display-p3 0.0000 0.7725 0.5451);fill-opacity:1;"/>
<path d="M62.356 19.2218C62.356 12.2827 65.9947 9.14734 70.9702 9.14734C75.7559 9.14734 78.5778 12.4335 78.5778 17.9533C78.5778 24.8924 74.9088 27.8484 69.9381 27.8484C65.146 27.8484 62.356 24.7416 62.356 19.2218ZM74.845 19.0106C74.845 14.0623 73.5688 10.1713 70.3289 10.1713C67.207 10.1713 66.0553 13.5797 66.0553 18.1359C66.0553 23.0826 67.4495 26.7927 70.7532 26.7927C73.9054 26.7927 74.845 23.5652 74.845 19.0106Z" fill="#00C58B" style="fill:#00C58B;fill:color(display-p3 0.0000 0.7725 0.5451);fill-opacity:1;"/>
<path d="M92.2983 9.65854C92.1406 9.15256 92.0589 8.62617 92.0558 8.09641C92.0558 6.67876 92.6939 5.29285 94.5141 5.29285C95.6307 5.29285 96.3933 6.01517 96.3933 6.98038C96.378 7.55429 96.1508 8.10249 95.7552 8.52028C95.4804 8.24657 95.113 8.08468 94.7247 8.06625C93.9063 8.06625 93.2092 8.94098 93.1773 10.0268C94.9065 10.8651 95.8732 12.3827 95.8732 14.6672C95.8732 18.2867 92.5998 19.7346 89.052 19.7346C88.2912 19.7335 87.5316 19.6725 86.7804 19.552C86.0243 20.0663 85.6638 20.7601 85.6638 21.3919C85.6638 22.1174 86.1423 22.7508 87.1505 22.8715L91.7256 23.4128C94.8172 23.7748 96.8176 25.6163 96.8176 28.5723C96.8176 31.9506 94.3322 34 88.8415 34C84.1132 34 81.0823 32.6745 81.0823 29.7788C81.0823 27.8738 82.7493 26.7625 84.5375 26.7625C85.042 26.7539 85.541 26.8684 85.9908 27.0959C85.0512 27.8214 84.6572 28.4532 84.6572 29.5073C84.6572 31.2282 85.9015 33.0682 89.3264 33.0682C92.4786 33.0682 94.2716 31.8616 94.2716 29.8709C94.2716 28.3008 93.6335 26.8832 90.9057 26.5847L86.7581 26.1291C84.394 25.8592 83.2406 24.9845 83.2406 23.143C83.2406 21.5443 84.5168 19.9774 85.97 19.3139C83.3938 18.6487 81.7571 17.0199 81.7571 14.6688C81.7571 10.9873 85.1198 9.14894 88.6373 9.14894C90.0267 9.14736 91.2694 9.29658 92.2983 9.65854ZM88.6006 18.5868C91.2088 18.5868 92.2393 16.8072 92.2393 14.3655C92.2393 11.8922 91.2391 10.1427 88.784 10.1427C86.2684 10.1427 85.3575 12.1922 85.3575 14.6672C85.3575 17.1104 86.2077 18.5868 88.6006 18.5868Z" fill="#00C58B" style="fill:#00C58B;fill:color(display-p3 0.0000 0.7725 0.5451);fill-opacity:1;"/>
<path d="M105.542 17.9851V19.2805C105.542 21.2998 105.603 23.3827 105.722 24.2272C105.965 26.037 106.027 26.7927 107.906 26.7927C108.3 26.7927 108.482 26.972 108.482 27.1848C108.482 27.3642 108.332 27.5467 108.027 27.5467H99.6922C99.3891 27.5467 99.236 27.3642 99.236 27.1848C99.236 26.972 99.4179 26.7927 99.7832 26.7927C101.602 26.7927 101.964 25.9989 102.115 24.2272C102.176 23.3827 102.299 21.2998 102.299 19.2805V17.2008C102.299 13.4289 102.208 11.0762 100.45 11.0762H99.6524C99.3493 11.0762 99.228 10.9269 99.228 10.7761C99.228 10.6253 99.3205 10.4427 99.6524 10.3523C100.897 10.0205 103.655 9.50928 104.503 9.50928C105.169 9.50928 105.654 9.92997 105.654 10.9857C105.654 12.0414 105.542 14.2131 105.542 17.9851ZM103.754 2.6607C104.189 2.65757 104.614 2.78285 104.978 3.02068C105.341 3.25851 105.625 3.59822 105.794 3.99683C105.964 4.39544 106.01 4.83505 105.929 5.26004C105.847 5.68504 105.64 6.07633 105.335 6.38442C105.029 6.69251 104.639 6.90356 104.213 6.99087C103.787 7.07818 103.345 7.03783 102.942 6.87492C102.539 6.71202 102.194 6.43387 101.95 6.07568C101.706 5.71748 101.574 5.29532 101.571 4.8626C101.574 4.28468 101.804 3.73078 102.212 3.31932C102.62 2.90786 103.173 2.67147 103.754 2.6607Z" fill="#00C58B" style="fill:#00C58B;fill:color(display-p3 0.0000 0.7725 0.5451);fill-opacity:1;"/>
<path d="M115.997 9.68385C117.273 9.68385 119.058 9.44255 120.058 9.44255C120.574 9.44255 120.877 9.77434 120.877 10.1061C120.877 10.4379 120.574 10.7713 119.876 10.7713H115.997V23.5001C115.997 25.34 116.573 26.0322 117.694 26.0322C118.907 26.0322 119.755 25.0987 119.967 23.8096C120.028 23.4778 120.208 23.2953 120.361 23.2953C120.543 23.2953 120.725 23.508 120.725 23.87C120.725 26.5862 118.811 27.8816 116.724 27.8816C113.752 27.8816 112.417 26.4021 112.417 23.689C112.417 20.6124 112.628 13.7035 112.628 10.8078H111.143C110.902 10.8078 110.781 10.7157 110.781 10.5379C110.781 10.3792 110.871 10.2363 111.114 9.99342L114.963 6.22305C115.236 5.98175 115.418 5.83093 115.601 5.83093C115.844 5.83093 115.995 6.01191 115.995 6.43419L115.997 9.68385Z" fill="#00C58B" style="fill:#00C58B;fill:color(display-p3 0.0000 0.7725 0.5451);fill-opacity:1;"/>
<path d="M132.785 16.2944C132.785 12.524 132.027 10.0506 129.512 10.0506C127.572 10.0506 127.057 11.8604 127.057 13.34C127.053 13.7957 127.104 14.2503 127.208 14.6941C126.871 14.7759 126.525 14.817 126.178 14.8164C124.723 14.8164 123.965 13.9417 123.965 12.705C123.965 10.5634 126.451 9.14734 130.269 9.14734C133.846 9.14734 136.181 10.4428 136.181 14.1544C136.181 15.2403 136 18.0756 136 22.5683C136 24.8622 136 25.9179 137.212 25.9179C138.329 25.9179 138.362 24.4701 138.788 24.4701C139 24.4701 139.061 24.6193 139.061 24.9464C139.061 26.3624 138.121 27.842 135.907 27.842C134.06 27.842 133.149 26.7308 132.755 25.7592C132.144 26.4081 131.408 26.9272 130.59 27.2851C129.772 27.6431 128.89 27.8325 127.996 27.842C125.3 27.842 123.298 26.3339 123.298 23.7383C123.298 19.2154 127.724 18.22 131.391 18.22C131.87 18.22 132.331 18.2486 132.785 18.2804V16.2944ZM129.786 25.8576C130.812 25.8921 131.819 25.5724 132.635 24.9527C132.785 23.9573 132.785 20.7601 132.785 19.1599H132.12C129.059 19.1599 126.845 20.368 126.845 23.1414C126.845 24.9527 127.996 25.8576 129.786 25.8576Z" fill="#00C58B" style="fill:#00C58B;fill:color(display-p3 0.0000 0.7725 0.5451);fill-opacity:1;"/>
<path d="M146.632 9.68385C147.908 9.68385 149.694 9.44255 150.693 9.44255C151.208 9.44255 151.513 9.77434 151.513 10.1061C151.513 10.4379 151.208 10.7713 150.513 10.7713H146.632V23.5001C146.632 25.34 147.209 26.0322 148.329 26.0322C149.541 26.0322 150.39 25.0987 150.602 23.8096C150.663 23.4778 150.846 23.2953 150.998 23.2953C151.18 23.2953 151.36 23.508 151.36 23.87C151.36 26.5862 149.446 27.8816 147.361 27.8816C144.387 27.8816 143.054 26.4021 143.054 23.689C143.054 20.6124 143.266 13.7035 143.266 10.8078H141.781C141.54 10.8078 141.418 10.7157 141.418 10.5379C141.418 10.3792 141.508 10.2363 141.752 9.99342L145.601 6.22305C145.874 5.98175 146.056 5.83093 146.239 5.83093C146.483 5.83093 146.633 6.01191 146.633 6.43419L146.632 9.68385Z" fill="#00C58B" style="fill:#00C58B;fill:color(display-p3 0.0000 0.7725 0.5451);fill-opacity:1;"/>
<path d="M159.968 17.9851V19.2805C159.968 21.2998 160.028 23.3826 160.15 24.2272C160.391 26.037 160.453 26.7926 162.332 26.7926C162.726 26.7926 162.908 26.972 162.908 27.1848C162.908 27.3642 162.758 27.5467 162.453 27.5467H154.118C153.813 27.5467 153.662 27.3642 153.662 27.1848C153.662 26.972 153.844 26.7926 154.207 26.7926C156.026 26.7926 156.391 25.9989 156.541 24.2272C156.602 23.3826 156.725 21.2998 156.725 19.2805V17.2008C156.725 13.4289 156.632 11.0762 154.874 11.0762H154.088C153.783 11.0762 153.662 10.9269 153.662 10.7761C153.662 10.6253 153.754 10.4427 154.088 10.3522C155.329 10.0205 158.089 9.50927 158.937 9.50927C159.604 9.50927 160.089 9.92996 160.089 10.9857C160.089 12.0414 159.968 14.2131 159.968 17.9851ZM158.181 2.66069C158.616 2.65787 159.042 2.78342 159.405 3.02144C159.768 3.25947 160.052 3.59929 160.221 3.99793C160.39 4.39657 160.436 4.83613 160.354 5.26102C160.272 5.68592 160.065 6.07706 159.76 6.38499C159.455 6.69292 159.064 6.90381 158.638 6.99099C158.213 7.07817 157.77 7.03773 157.368 6.87477C156.965 6.71182 156.62 6.43367 156.376 6.07551C156.132 5.71734 156 5.29524 155.997 4.86259C156 4.2844 156.23 3.73027 156.638 3.31876C157.046 2.90726 157.6 2.67105 158.181 2.66069Z" fill="#00C58B" style="fill:#00C58B;fill:color(display-p3 0.0000 0.7725 0.5451);fill-opacity:1;"/>
<path d="M178.423 12.3128C178.528 12.0435 178.582 11.7572 178.582 11.4683C178.582 10.6539 177.976 10.1983 176.552 10.1983C176.249 10.1983 176.036 10.0173 176.036 9.83631C176.036 9.65533 176.218 9.5061 176.643 9.5061H182.521C182.977 9.5061 183.159 9.68549 183.159 9.86647C183.159 10.0474 182.977 10.1983 182.644 10.1983C181.007 10.1983 180.702 11.7969 179.827 13.9385L174.243 27.3324C174.093 27.6642 173.88 27.8753 173.637 27.8753C173.395 27.8753 173.159 27.6642 172.97 27.2133L167.18 12.8875C166.272 10.5951 166.092 10.3221 164.696 10.3221C164.647 10.3271 164.598 10.3211 164.551 10.3047C164.505 10.2882 164.463 10.2617 164.428 10.2271C164.393 10.1924 164.366 10.1505 164.35 10.1043C164.333 10.0581 164.327 10.0089 164.332 9.96014C164.327 9.84893 164.365 9.73994 164.438 9.65593C164.512 9.57192 164.615 9.51938 164.726 9.50928H172.604C172.907 9.50928 173.058 9.65851 173.058 9.80932C173.058 9.96014 172.907 10.1427 172.58 10.1713C171.278 10.33 170.665 10.6475 170.665 11.3175C170.67 11.4918 170.7 11.6645 170.755 11.8302L174.543 23.4192L178.423 12.3128Z" fill="#00C58B" style="fill:#00C58B;fill:color(display-p3 0.0000 0.7725 0.5451);fill-opacity:1;"/>
<path d="M183.783 19.2218C183.783 12.2827 187.422 9.14734 192.397 9.14734C197.183 9.14734 200.005 12.4335 200.005 17.9533C200.005 24.8924 196.336 27.8484 191.365 27.8484C186.571 27.8484 183.783 24.7416 183.783 19.2218ZM196.27 19.0106C196.27 14.0623 194.994 10.1713 191.754 10.1713C188.634 10.1713 187.479 13.5797 187.479 18.1359C187.479 23.0826 188.875 26.7927 192.179 26.7927C195.331 26.7927 196.27 23.5652 196.27 19.0106Z" fill="#00C58B" style="fill:#00C58B;fill:color(display-p3 0.0000 0.7725 0.5451);fill-opacity:1;"/>
<path d="M21.1894 8.22023L27.1683 4.80864L27.02 4.68799L20.9868 8.12974C21.057 8.15832 21.1224 8.18848 21.1894 8.22023Z" fill="white" style="fill:white;fill-opacity:1;"/>
<path d="M22.1448 8.74887L27.9036 5.46428C27.8589 5.42142 27.8143 5.37697 27.768 5.33569L21.9709 8.64092C22.03 8.67584 22.0874 8.71236 22.1448 8.74887Z" fill="white" style="fill:white;fill-opacity:1;"/>
<path d="M22.9903 9.341L28.588 6.14849C28.5465 6.10404 28.5034 6.058 28.4603 6.01514L22.8372 9.22194L22.9903 9.341Z" fill="white" style="fill:white;fill-opacity:1;"/>
<path d="M14.9312 7.48997L23.5774 2.55912L23.3748 2.46863L14.282 7.65348C14.4957 7.59316 14.7111 7.53759 14.9312 7.48997Z" fill="white" style="fill:white;fill-opacity:1;"/>
<path d="M23.737 9.99027L29.2246 6.85967L29.1033 6.72314L23.6094 9.86168C23.6477 9.90454 23.6923 9.94582 23.737 9.99027Z" fill="white" style="fill:white;fill-opacity:1;"/>
<path d="M16.9875 7.27082H17.1901L24.5856 3.05277L24.3973 2.95435L16.8296 7.27559L16.9875 7.27082Z" fill="white" style="fill:white;fill-opacity:1;"/>
<path d="M20.084 7.77889L26.3708 4.19267L26.2112 4.07837L19.8542 7.69951C19.9404 7.72332 20.0074 7.75031 20.084 7.77889Z" fill="white" style="fill:white;fill-opacity:1;"/>
<path d="M18.7887 7.43914L25.511 3.60527L25.3387 3.49255L18.5127 7.38993C18.6052 7.40421 18.6961 7.42168 18.7887 7.43914Z" fill="white" style="fill:white;fill-opacity:1;"/>
<path d="M26.2222 13.9464L31.6572 10.846C31.6332 10.7904 31.6077 10.7365 31.5838 10.6873L26.1616 13.7718C26.184 13.8306 26.2031 13.8877 26.2222 13.9464Z" fill="white" style="fill:white;fill-opacity:1;"/>
<path d="M26.6404 15.8578L32.2875 12.6367C32.2715 12.5779 32.2556 12.5192 32.238 12.4589L26.6165 15.6657C26.6212 15.7292 26.6308 15.7942 26.6404 15.8578Z" fill="white" style="fill:white;fill-opacity:1;"/>
<path d="M26.4807 14.8766L32.0002 11.7286C31.9795 11.6698 31.9619 11.6111 31.9412 11.554L26.4329 14.6941L26.4807 14.8766Z" fill="white" style="fill:white;fill-opacity:1;"/>
<path d="M26.6977 16.8976L32.5234 13.5765L32.4804 13.3939L26.6929 16.6944C26.6945 16.7626 26.6977 16.8277 26.6977 16.8976Z" fill="white" style="fill:white;fill-opacity:1;"/>
<path d="M24.3943 10.6887L29.8053 7.60259C29.7702 7.55497 29.7351 7.50576 29.6984 7.45813L24.2747 10.5506C24.3161 10.5972 24.356 10.6432 24.3943 10.6887Z" fill="white" style="fill:white;fill-opacity:1;"/>
<path d="M24.9717 11.4302L30.3381 8.36945C30.3046 8.32023 30.2743 8.26784 30.2408 8.21069L24.8665 11.2889L24.9717 11.4302Z" fill="white" style="fill:white;fill-opacity:1;"/>
<path d="M25.4678 12.2239L30.8245 9.16791L30.7352 9.00916L25.3784 12.0651C25.4087 12.1239 25.439 12.1747 25.4678 12.2239Z" fill="white" style="fill:white;fill-opacity:1;"/>
<path d="M25.8858 13.0637L31.2665 10.0014L31.1851 9.84265L25.8108 12.8986C25.8427 12.9542 25.8618 13.0082 25.8858 13.0637Z" fill="white" style="fill:white;fill-opacity:1;"/>
<path d="M20.8848 25.7878L27.02 29.2882L27.1684 29.166L21.0858 25.6973L20.8848 25.7878Z" fill="white" style="fill:white;fill-opacity:1;"/>
<path d="M26.696 17.0754C26.696 17.1437 26.696 17.212 26.696 17.2786L32.4867 20.5823L32.5298 20.3997L26.696 17.0754Z" fill="white" style="fill:white;fill-opacity:1;"/>
<path d="M18.366 26.5021L25.3403 30.4804C25.3977 30.4455 25.4536 30.4074 25.511 30.3709L18.6515 26.4576L18.366 26.5021Z" fill="white" style="fill:white;fill-opacity:1;"/>
<path d="M23.5327 24.0748L29.1048 27.2498L29.2245 27.1117L23.6683 23.9366C23.6236 23.989 23.579 24.0335 23.5327 24.0748Z" fill="white" style="fill:white;fill-opacity:1;"/>
<path d="M22.759 24.7082L28.462 27.961L28.5896 27.8277L22.9138 24.5907C22.8611 24.6288 22.8117 24.6701 22.759 24.7082Z" fill="white" style="fill:white;fill-opacity:1;"/>
<path d="M21.8818 25.2829L27.7682 28.6405L27.9038 28.5119L22.0605 25.1781L21.8818 25.2829Z" fill="white" style="fill:white;fill-opacity:1;"/>
<path d="M12.0456 25.2544C11.9866 25.2195 11.9275 25.1845 11.8701 25.148L11.2878 25.4814L10.5285 25.0464L11.1778 24.6781C11.1251 24.64 11.0757 24.5987 11.0183 24.5575L10.3419 24.9432L9.58095 24.5098L10.3419 24.0764L10.6274 24.2352C10.4312 24.0653 10.2398 23.8891 10.0579 23.705L9.57936 23.4319L9.72293 23.3494L9.60328 23.2112L9.3975 23.3287L8.63658 22.8953L9.1295 22.6143L9.02422 22.4683L8.45632 22.7858L7.69539 22.3508L8.45472 21.9269L8.78334 22.1143C8.69241 21.973 8.60627 21.8285 8.52172 21.6809L8.45472 21.7206L7.6938 21.2856L8.17237 21.0109C8.14684 20.957 8.12132 20.9014 8.09739 20.8522L7.50875 21.1871L6.74783 20.7538L7.51832 20.3204L7.99689 20.5934C7.96073 20.5045 7.92564 20.4156 7.89161 20.3267L7.70177 20.2172L7.8262 20.1457C7.80546 20.0886 7.78632 20.0314 7.76718 19.9743L7.51992 20.114L6.759 19.6806L7.51992 19.2472L7.56299 19.271C7.54385 19.1916 7.5263 19.1123 7.50875 19.0329L6.759 18.6058L7.36837 18.2566C7.34923 18.1216 7.33328 17.9867 7.32051 17.8502L6.7574 17.5327L7.28382 17.2326C7.28382 17.166 7.28382 17.0977 7.28382 17.0294L6.58352 17.4295L5.81622 16.9866L6.57714 16.5516L7.27744 16.9516C7.27744 16.9516 7.27744 16.9389 7.27744 16.9342C7.27744 16.8707 7.27744 16.8103 7.27744 16.7468L6.75421 16.4484L7.30935 16.1309C7.30935 16.0594 7.32052 15.9864 7.3269 15.915L6.57714 16.3516L5.81622 15.9182L6.57714 15.4832L7.33806 15.9086C7.33806 15.8451 7.35401 15.7816 7.36199 15.7165L6.76378 15.3752L7.48482 14.9641C7.50237 14.8847 7.52151 14.8053 7.54066 14.7259L7.5247 14.7355L6.76378 14.3005L7.5247 13.8671L7.74325 13.9909C7.76239 13.9338 7.78154 13.8766 7.80227 13.8179L7.70656 13.7639L7.84854 13.6829C7.88044 13.594 7.91394 13.5067 7.94903 13.4194L7.5247 13.6607L6.76378 13.2257L7.5247 12.7923L8.07665 13.1098C8.10058 13.0543 8.1261 13.0003 8.15003 12.9511L7.70656 12.6971L8.45472 12.2557L8.47705 12.2684C8.54246 12.151 8.60786 12.0351 8.67805 11.9208L8.45472 12.0494L7.6938 11.6144L8.45472 11.181L8.96998 11.4747C9.00348 11.4255 9.04017 11.3762 9.07367 11.3286L8.63498 11.0778L9.40229 10.6365L9.54745 10.719L9.66869 10.5825L9.58414 10.5333L9.84257 10.3856C10.0021 10.2142 10.1616 10.0491 10.3387 9.88874L9.58414 9.45852L10.3451 9.02513L10.9449 9.36644L11.1044 9.24738L10.5333 8.92988L11.2958 8.49489L11.7919 8.77906C11.8494 8.74255 11.9052 8.70445 11.9626 8.66952L11.4841 8.3917L22.4927 2.1067L22.2694 2.02891L11.2878 8.28693L10.5285 7.85353L21.2803 1.72093L21.0395 1.65108L10.3514 7.75034L9.59052 7.31536L19.9404 1.40819L19.6644 1.35897L9.40229 7.21217L8.64136 6.77878L18.4313 1.19546C18.3244 1.18593 18.2175 1.17958 18.1122 1.17165L8.45472 6.67559L7.6938 6.24061L16.6558 1.13354C16.5298 1.13354 16.4021 1.13354 16.2777 1.14307L7.51832 6.13742L6.7574 5.70403L14.4352 1.32564C14.2582 1.35262 14.0843 1.38437 13.9104 1.4193L6.57235 5.60084L6.12728 5.34842L5.99169 5.47701L6.3905 5.70403L5.62957 6.13742L5.44134 6.03264L5.31212 6.166L5.4525 6.24537L5.00744 6.50096C4.88779 6.6359 4.76656 6.77084 4.6517 6.91054L4.69318 6.88673L5.4525 7.32013L4.69318 7.75511L4.20344 7.47729L4.09816 7.62176L4.51132 7.8583L3.7504 8.28693L3.66904 8.23771C3.63714 8.28693 3.60523 8.33932 3.57173 8.39647H3.56375C3.49356 8.50442 3.42178 8.61237 3.35318 8.7235L3.75199 8.49489L4.51292 8.92988L3.7504 9.36644L3.16973 9.03624L3.0804 9.19499L3.57014 9.4744L2.80921 9.90938L2.72307 9.86016C2.65288 9.99987 2.58269 10.1396 2.51569 10.2824L2.80921 10.1237L3.57014 10.5571L2.80921 10.9921L2.33064 10.7143L2.25886 10.873L2.63533 11.0889L2.03872 11.4286C1.99884 11.5366 1.95896 11.6461 1.92067 11.7557L2.63533 12.1637L1.86643 12.5859L1.67501 12.478C1.65746 12.5351 1.64151 12.5955 1.62555 12.6542L1.68617 12.6891L1.60163 12.7368C1.5777 12.8193 1.55217 12.8955 1.52984 12.9844L1.86643 12.7923L2.62736 13.2257L1.86643 13.6607L1.43572 13.4115C1.42136 13.4718 1.40701 13.5321 1.39425 13.594L1.69255 13.7639L1.3081 13.9798C1.29375 14.056 1.28098 14.1385 1.26663 14.21L1.86643 13.8671L2.62736 14.3005L1.86643 14.7355L1.23632 14.3767C1.22515 14.4386 1.21239 14.5005 1.20282 14.5624L1.68139 14.8386L1.12146 15.1561C1.10551 15.2927 1.09275 15.4292 1.07839 15.5689L1.68139 15.9118L1.03053 16.2817C1.03053 16.3912 1.03053 16.5008 1.03053 16.6103L1.68617 16.9866L1.02734 17.3612C1.02734 17.4708 1.02734 17.5803 1.02734 17.6898L1.6782 18.0613L1.0752 18.4042C1.08956 18.5423 1.10232 18.6789 1.11827 18.817L1.6782 19.1345L1.19963 19.4091C1.2092 19.4726 1.22196 19.5345 1.23313 19.5964L1.86324 19.2377L2.62417 19.6711L1.86324 20.1045L1.26344 19.7631C1.2762 19.8393 1.29056 19.9219 1.30491 19.9933L1.68298 20.2076L1.38308 20.3775L1.43572 20.5648L1.86643 20.3204L2.62736 20.7553L1.86643 21.1887L1.52984 20.9982C1.55217 21.0808 1.5777 21.157 1.60163 21.2443L1.68617 21.2919L1.62396 21.3268C1.64151 21.3856 1.65746 21.4459 1.67501 21.5047L1.86643 21.3951L2.62736 21.8301L1.91429 22.2254C1.95258 22.3349 1.99086 22.4445 2.03234 22.5524L2.62895 22.8937L2.25248 23.1081C2.27481 23.1636 2.30033 23.2192 2.32426 23.2668L2.80283 22.9906L3.56375 23.424L2.80283 23.8589L2.50931 23.6907C2.57631 23.8335 2.6449 23.9733 2.71669 24.113L2.80283 24.0653L3.56375 24.4987L3.07402 24.7781L3.16335 24.9369L3.7504 24.6067L4.51132 25.0401L3.7504 25.475L3.34999 25.2528C3.41859 25.3639 3.49037 25.4719 3.56056 25.5798H3.57014L3.66744 25.7386L3.75518 25.6894L4.51611 26.1228L4.09816 26.353L4.20344 26.499L4.69318 26.2196L5.4525 26.6546L4.69318 27.088L4.6501 27.0642C4.76496 27.2039 4.8862 27.3388 5.00584 27.4737L5.4525 27.7293L5.31212 27.8103L5.43974 27.9437L5.63436 27.8325L6.39528 28.2659L5.99488 28.4945L6.13207 28.6231L6.57714 28.3691L13.9152 32.5538C14.0891 32.5872 14.2645 32.6189 14.44 32.6475L6.76059 28.2659L7.52151 27.8325L16.2825 32.8285C16.4091 32.8285 16.5351 32.8316 16.6606 32.838L7.70018 27.7341L8.45472 27.3055L18.1058 32.811C18.2127 32.811 18.3196 32.7967 18.4249 32.7872L8.64136 27.1959L9.40229 26.7625L19.6692 32.6173L19.9435 32.5681L9.58414 26.6593L10.3451 26.2244L21.0331 32.3236L21.2756 32.2554L10.5285 26.1212L11.291 25.6878L22.2646 31.9474C22.3396 31.9204 22.4161 31.8966 22.4895 31.8696L11.4681 25.5846L12.0456 25.2544ZM10.1648 25.0464L9.40229 25.4814L8.64136 25.0464L9.40229 24.6067L10.1648 25.0464ZM7.51832 24.6067L8.28084 25.0401L7.51832 25.475L6.7574 25.0401L7.51832 24.6067ZM6.57714 24.9369L5.81622 24.5035L6.57714 24.0701L7.33806 24.5098L6.57714 24.9369ZM7.6938 24.5035L8.45472 24.0764L9.21564 24.5098L8.45472 24.9432L7.6938 24.5035ZM7.51194 24.4003L6.7574 23.9717L7.51832 23.5367L8.28084 23.9717L7.51194 24.4003ZM6.57076 23.8637L5.80983 23.4287L6.57076 22.9953L7.33806 23.4351L6.57076 23.8637ZM5.63436 23.3367L4.87344 22.9033L5.63436 22.4683L6.39528 22.9033L5.63436 23.3367ZM5.81622 22.3651L6.57714 21.9317L7.33806 22.3603L6.57714 22.7953L5.81622 22.3651ZM5.63436 22.2619L4.87344 21.8285L5.63436 21.3935L6.39528 21.8285L5.63436 22.2619ZM5.4525 20.2156L4.69318 20.6506L3.93225 20.2156L4.69318 19.7822L5.4525 20.2156ZM3.93225 19.1424L4.69318 18.7074L5.4525 19.1424L4.69318 19.5758L3.93225 19.1424ZM5.4525 21.2903L4.69318 21.7253L3.93225 21.2903L4.69318 20.8569L5.4525 21.2903ZM4.87344 20.7538L5.63436 20.3204L6.39528 20.7553L5.63436 21.1887L4.87344 20.7538ZM4.87344 19.679L5.63436 19.2456L6.39528 19.679L5.63436 20.1124L4.87344 19.679ZM4.87344 18.6042L5.63436 18.1709L6.39528 18.6042L5.63436 19.0392L4.87344 18.6042ZM4.69318 18.5011L3.93225 18.0677L4.69318 17.6216L5.4525 18.0566L4.69318 18.5011ZM4.51132 17.5295L3.7504 17.9629L2.98947 17.5295L3.7504 17.0961L4.51132 17.5295ZM2.98947 16.4547L3.7504 16.0213L4.51132 16.4547L3.7504 16.8897L2.98947 16.4547ZM3.93225 16.9866L4.69318 16.5516L5.4525 16.9866L4.69318 17.42L3.93225 16.9866ZM3.93225 15.9118L4.69318 15.4768L5.4525 15.9118L4.69318 16.3516L3.93225 15.9118ZM3.93225 14.8371L4.69318 14.4021L5.4525 14.8371L4.69318 15.272L3.93225 14.8371ZM5.4525 13.7623L4.69318 14.1957L3.93225 13.7639L4.69318 13.3353L5.4525 13.7623ZM3.93225 12.6875L4.69318 12.2542L5.4525 12.6875L4.69318 13.1209L3.93225 12.6875ZM4.87344 14.2989L5.63436 13.8655L6.39528 14.2989L5.63436 14.7339L4.87344 14.2989ZM4.87344 13.2241L5.63436 12.7907L6.39528 13.2241L5.63436 13.6591L4.87344 13.2241ZM4.87344 12.151L5.63436 11.716L6.39528 12.151L5.63436 12.5844L4.87344 12.151ZM4.87344 11.0762L5.63436 10.6365L6.39528 11.0714L5.63436 11.5048L4.87344 11.0762ZM5.81622 11.6128L6.57714 11.1794L7.33806 11.6144L6.57714 12.0494L5.81622 11.6128ZM5.81622 10.538L6.57714 10.1046L7.33806 10.5396L6.57714 10.9746L5.81622 10.538ZM7.33806 9.46487L6.57714 9.89985L5.81622 9.46487L6.57714 9.03148L7.33806 9.46487ZM6.7574 8.92829L7.51832 8.49331L8.28084 8.92829L7.51832 9.36644L6.7574 8.92829ZM6.7574 10.003L7.51832 9.56806L8.28084 10.0015L7.51832 10.4348L6.7574 10.003ZM7.70018 9.46487L8.45472 9.03148L9.21564 9.46487L8.45472 9.89985L7.70018 9.46487ZM7.70018 8.39012L8.45472 7.95672L9.21564 8.39012L8.45472 8.8251L7.70018 8.39012ZM7.51832 8.28693L6.7574 7.85353L7.51832 7.41855L8.28084 7.85353L7.51832 8.28693ZM6.57714 7.75034L5.81622 7.31536L6.57714 6.88197L7.33806 7.31536L6.57714 7.75034ZM7.33806 8.38535L6.57714 8.82034L5.81622 8.38535L6.57714 7.95196L7.33806 8.38535ZM6.39528 8.92352L5.63436 9.36644L4.87344 8.93305L5.63436 8.49807L6.39528 8.92352ZM6.39528 9.99828L5.63436 10.4317L4.87344 10.0015L5.63436 9.56647L6.39528 9.99828ZM5.4525 10.5349L4.69318 10.9698L3.93225 10.5349L4.69318 10.1015L5.4525 10.5349ZM5.4525 11.6096L4.69318 12.0494L3.93225 11.6144L4.69318 11.181L5.4525 11.6096ZM4.51132 12.1478L3.7504 12.5812L2.98947 12.1478L3.7504 11.7128L4.51132 12.1478ZM4.51132 13.221L3.7504 13.6559L2.98947 13.221L3.7504 12.7876L4.51132 13.221ZM4.51132 14.2957L3.7504 14.7307L2.98947 14.2957L3.7504 13.8623L4.51132 14.2957ZM4.51132 15.3705L3.7504 15.8054L2.98947 15.3705L3.7504 14.9371L4.51132 15.3705ZM3.57014 15.9086L2.80921 16.3516L2.04669 15.9182L2.80921 15.4832L3.57014 15.9086ZM3.57014 16.9834L2.80921 17.4168L2.04669 16.9866L2.80921 16.5516L3.57014 16.9834ZM3.57014 18.0581L2.80921 18.4915L2.04669 18.0581L2.80921 17.6216L3.57014 18.0581ZM3.7504 18.1613L4.51132 18.5947L3.7504 19.0297L2.98947 18.5947L3.7504 18.1613ZM4.51132 19.6695L3.7504 20.1029L2.98947 19.6695L3.7504 19.2361L4.51132 19.6695ZM4.51132 20.7442L3.7504 21.1776L2.98947 20.7442L3.7504 20.3204L4.51132 20.7442ZM4.51132 21.819L3.7504 22.2524L2.98947 21.819L3.7504 21.384L4.51132 21.819ZM4.69318 21.9222L5.4525 22.3556L4.69318 22.7905L3.93225 22.3556L4.69318 21.9222ZM5.4525 23.4303L4.69318 23.8653L3.93225 23.4303L4.69318 22.9969L5.4525 23.4303ZM5.63436 23.5335L6.39528 23.9717L5.63436 24.4051L4.87344 23.9717L5.63436 23.5335ZM6.39528 25.0417L5.63436 25.4766L4.87344 25.0417L5.63436 24.6067L6.39528 25.0417ZM6.57714 25.1464L7.33806 25.5846L6.57714 26.0196L5.81622 25.5846L6.57714 25.1464ZM7.33806 26.6546L6.57714 27.088L5.81622 26.6546L6.57714 26.2196L7.33806 26.6546ZM6.7574 26.1164L7.51832 25.683L8.28084 26.1164L7.51832 26.5514L6.7574 26.1164ZM7.70018 25.5798L8.45472 25.1512L9.21564 25.5846L8.45472 26.0196L7.70018 25.5798ZM10.1648 23.9717L9.40229 24.4051L8.64136 23.9717L9.40229 23.5367L10.1648 23.9717ZM9.22203 23.4335L8.45472 23.8701L7.6938 23.4351L8.45472 23.0017L9.22203 23.4335ZM8.28084 22.8969L7.51832 23.3367L6.7574 22.9033L7.51832 22.4683L8.28084 22.8969ZM8.28084 21.8222L7.51832 22.2556L6.7574 21.8222L7.51832 21.3872L8.28084 21.8222ZM7.33806 21.2856L6.57714 21.7206L5.81622 21.2856L6.57714 20.8522L7.33806 21.2856ZM7.33806 20.2108L6.57714 20.6458L5.81622 20.2108L6.57714 19.7774L7.33806 20.2108ZM7.33806 19.1377L6.57714 19.571L5.81622 19.1377L6.57714 18.7027L7.33806 19.1377ZM7.33806 18.0629L6.57714 18.4963L5.81622 18.0629L6.57714 17.6216L7.33806 18.0629ZM6.39528 17.5247L5.63436 17.9581L4.87344 17.5247L5.63436 17.0913L6.39528 17.5247ZM6.39528 16.45L5.63436 16.885L4.87344 16.45L5.63436 16.0166L6.39528 16.45ZM5.63436 15.815L4.87344 15.38L5.63436 14.9466L6.39528 15.38L5.63436 15.815ZM7.33806 14.8386L6.57714 15.272L5.81622 14.8386L6.57714 14.4037L7.33806 14.8386ZM7.33806 13.7639L6.57714 14.1973L5.81622 13.7639L6.57714 13.3353L7.33806 13.7639ZM6.57714 13.1289L5.81622 12.6955L6.57714 12.2621L7.33806 12.6891L6.57714 13.1289ZM8.28084 12.1589L7.51832 12.5923L6.7574 12.1589L7.51832 11.7239L8.28084 12.1589ZM7.51832 11.5239L6.7574 11.0905L7.51832 10.6365L8.28084 11.0714L7.51832 11.5239ZM8.45472 10.9746L7.6938 10.5396L8.45472 10.1062L9.21564 10.5396L8.45472 10.9746ZM10.1648 10.0015L9.40229 10.4348L8.64136 10.0015L9.40229 9.56647L10.1648 10.0015ZM9.40229 9.36644L8.64136 8.93305L9.40229 8.49807L10.1648 8.93305L9.40229 9.36644ZM11.106 8.39488L10.3451 8.82986L9.58414 8.39488L10.3451 7.96149L11.106 8.39488ZM10.1648 7.8583L9.40229 8.28693L8.64136 7.85353L9.40229 7.41855L10.1648 7.8583ZM9.22203 7.32013L8.45472 7.75034L7.6938 7.31536L8.45472 6.88197L9.22203 7.32013ZM8.28084 6.78354L7.51832 7.21694L6.7574 6.77878L7.51832 6.35015L8.28084 6.78354ZM6.57714 5.80722L7.33806 6.24061L6.57714 6.67559L5.81622 6.24061L6.57714 5.80722ZM4.87344 6.77878L5.63436 6.35015L6.39528 6.78354L5.63436 7.21694L4.87344 6.77878ZM5.63436 7.41379L6.39528 7.84877L5.63436 8.28693L4.87344 7.85353L5.63436 7.41379ZM3.93225 8.39012L4.69318 7.95672L5.4525 8.39012L4.69318 8.8251L3.93225 8.39012ZM4.69318 9.02513L5.4525 9.45852L4.69318 9.8935L3.93225 9.45852L4.69318 9.02513ZM2.98947 10.0015L3.7504 9.56647L4.51132 10.0015L3.7504 10.4348L2.98947 10.0015ZM3.7504 10.6365L4.51132 11.0714L3.7504 11.5048L2.98947 11.0714L3.7504 10.6365ZM2.04669 11.6144L2.80921 11.181L3.57014 11.6144L2.80921 12.0494L2.04669 11.6144ZM2.04669 12.6891L2.80921 12.2557L3.57014 12.6891L2.80921 13.1225L2.04669 12.6891ZM2.04669 13.7639L2.80921 13.3353L3.57014 13.7702L2.80921 14.2036L2.04669 13.7639ZM2.80921 14.3989L3.57014 14.8339L2.80921 15.272L2.04669 14.8386L2.80921 14.3989ZM1.10551 15.3752L1.86643 14.9418L2.62736 15.3752L1.86643 15.8102L1.10551 15.3752ZM1.10551 16.45L1.86643 16.0166L2.62736 16.45L1.86643 16.885L1.10551 16.45ZM1.10551 17.5247L1.86643 17.0913L2.62736 17.5247L1.86643 17.9581L1.10551 17.5247ZM1.10551 18.5995L1.86643 18.1661L2.62736 18.5995L1.86643 19.0345L1.10551 18.5995ZM2.04669 19.1377L2.80921 18.7027L3.57014 19.1377L2.80921 19.571L2.04669 19.1377ZM2.04669 20.2108L2.80921 19.7774L3.57014 20.2108L2.80921 20.6458L2.04669 20.2108ZM2.04669 21.2856L2.80921 20.8522L3.57014 21.2856L2.80921 21.7206L2.04669 21.2856ZM2.04669 22.3603L2.80921 21.9269L3.57014 22.3603L2.80921 22.7953L2.04669 22.3603ZM2.98947 22.8985L3.7504 22.4635L4.51132 22.8985L3.7504 23.3367L2.98947 22.8985ZM2.98947 23.9733L3.7504 23.5383L4.51132 23.9717L3.7504 24.4051L2.98947 23.9733ZM3.93225 24.5098L4.69318 24.0764L5.4525 24.5098L4.69318 24.9432L3.93225 24.5098ZM3.93225 25.5846L4.69318 25.1512L5.4525 25.5846L4.69318 26.0196L3.93225 25.5846ZM4.87344 26.1212L5.63436 25.6878L6.39528 26.1212L5.63436 26.5562L4.87344 26.1212ZM4.87344 27.1959L5.63436 26.7625L6.39528 27.1959L5.63436 27.6309L4.87344 27.1959ZM6.57714 28.1675L5.81622 27.7341L6.57714 27.3055L7.33806 27.7341L6.57714 28.1675ZM7.51832 27.6309L6.7574 27.1959L7.51832 26.7625L8.28084 27.1959L7.51832 27.6309ZM8.45472 27.0927L7.6938 26.6593L8.45472 26.2244L9.21564 26.6593L8.45472 27.0927ZM9.39591 26.5562L8.63498 26.1212L9.39591 25.6878L10.1584 26.1212L9.39591 26.5562ZM10.3387 26.0196L9.57776 25.5846L10.3387 25.1512L11.0996 25.5846L10.3387 26.0196Z" fill="white" style="fill:white;fill-opacity:1;"/>
<path d="M13.8784 26.0909L23.3748 31.5076L23.5758 31.4171L14.6266 26.3116C14.3729 26.2481 14.1241 26.1735 13.8784 26.0909Z" fill="white" style="fill:white;fill-opacity:1;"/>
<path d="M16.9877 26.6006C16.8712 26.6006 16.7547 26.6006 16.6399 26.5911L24.3975 31.0155C24.4597 30.9837 24.5251 30.952 24.5873 30.9171L17.0164 26.6006H16.9877Z" fill="white" style="fill:white;fill-opacity:1;"/>
<path d="M19.7329 26.2068L26.2095 29.901L26.3691 29.7867L19.9674 26.1354L19.7329 26.2068Z" fill="white" style="fill:white;fill-opacity:1;"/>
<path d="M26.4121 19.2694L31.9364 22.4206C31.9571 22.3634 31.9747 22.3047 31.9954 22.2476L26.4536 19.0884C26.4408 19.1487 26.4281 19.209 26.4121 19.2694Z" fill="white" style="fill:white;fill-opacity:1;"/>
<path d="M26.6003 18.3026L32.2347 21.5157C32.2522 21.457 32.2682 21.3982 32.2841 21.3379L26.6259 18.1105C26.6179 18.1756 26.6099 18.2391 26.6003 18.3026Z" fill="white" style="fill:white;fill-opacity:1;"/>
<path d="M26.1345 20.1854L31.5854 23.2953L31.6588 23.1286L26.1935 20.0139C26.1728 20.0711 26.1616 20.1282 26.1345 20.1854Z" fill="white" style="fill:white;fill-opacity:1;"/>
<path d="M25.3323 21.8776L30.7353 24.959L30.8246 24.8003L25.4232 21.7173C25.3929 21.7744 25.3642 21.8268 25.3323 21.8776Z" fill="white" style="fill:white;fill-opacity:1;"/>
<path d="M24.8137 22.6572L30.2375 25.7528C30.2694 25.702 30.2997 25.6512 30.3348 25.602L24.911 22.5095L24.8137 22.6572Z" fill="white" style="fill:white;fill-opacity:1;"/>
<path d="M25.7725 21.0554L31.1835 24.1399C31.2106 24.0875 31.2393 24.0351 31.2648 23.9812L25.8411 20.8903L25.7725 21.0554Z" fill="white" style="fill:white;fill-opacity:1;"/>
<path d="M24.2156 23.389L29.7 26.5116L29.8053 26.3656L24.3352 23.2461L24.2156 23.389Z" fill="white" style="fill:white;fill-opacity:1;"/>
<path d="M22.9713 24.1669L22.6315 24.359L21.8722 23.9224L22.6347 23.4906L23.3095 23.878C23.3558 23.8367 23.4004 23.7922 23.4467 23.7494L22.8118 23.3874L23.5743 22.9556L23.9907 23.1953L24.1103 23.0572L23.7546 22.8604L24.5171 22.4286L24.5889 22.4698C24.7021 22.3111 24.8106 22.1523 24.9079 21.9936L24.5107 22.219L23.7514 21.7824L24.5139 21.3506L25.0993 21.6872L25.1903 21.5284L24.6958 21.2443L25.4583 20.814L25.5364 20.8585C25.5955 20.7283 25.6545 20.5981 25.7087 20.4648L25.4583 20.6061L24.6974 20.1711L25.4615 19.7393L25.8906 19.9854C25.9113 19.9282 25.9305 19.8711 25.9496 19.8123L25.6433 19.6361L26.0756 19.39C26.098 19.3107 26.1187 19.2313 26.1378 19.1487L25.4678 19.5266L24.7085 19.0916L25.471 18.6598L26.165 19.0582C26.1793 18.9963 26.1953 18.9376 26.208 18.8757L25.6513 18.5582L26.3277 18.1756C26.3404 18.0819 26.3548 17.9867 26.3644 17.8914L25.6561 17.4834L26.4122 17.0564C26.4122 17.0199 26.4122 16.9849 26.4122 16.9484C26.4122 16.9119 26.4122 16.877 26.4122 16.8421L25.6577 16.4087L26.3692 16.007C26.3612 15.9102 26.3468 15.8165 26.3356 15.7213L25.6625 15.3339L26.2192 15.0164C26.2064 14.9561 26.1905 14.8958 26.1777 14.8354L25.4822 15.2403L24.7261 14.7973L25.4886 14.3655L26.1618 14.7529C26.1426 14.6719 26.1235 14.5941 26.1027 14.5116L25.6704 14.2623L25.9783 14.0877L25.9209 13.9147L25.4886 14.1591L24.7261 13.7226L25.4886 13.2908L25.739 13.4337C25.6848 13.3019 25.6274 13.1701 25.5683 13.0399L25.4902 13.0844L24.7261 12.6478L25.2238 12.3668C25.1935 12.3144 25.1648 12.2621 25.1344 12.2081L24.549 12.5415L23.7897 12.1049L24.5522 11.6731L24.9478 11.9065C24.8457 11.7477 24.7372 11.5889 24.6288 11.4302L24.557 11.4715L23.796 11.0349L24.1534 10.8333C24.1135 10.7872 24.0736 10.7396 24.0337 10.6952L23.6094 10.9285L22.8501 10.492L23.4882 10.1348C23.4435 10.0919 23.3988 10.0475 23.3526 10.0062L22.6746 10.3888L21.9153 9.95221L22.6762 9.52517L23.016 9.72202C22.1959 9.04131 21.2653 8.50448 20.2642 8.13449L21.5548 8.87587L20.7906 9.30767L17.8108 7.59474C17.6768 7.58362 17.5428 7.5741 17.4056 7.56934L20.6104 9.41086L19.8479 9.84267L15.9762 7.62014C15.8757 7.62966 15.7768 7.64236 15.6779 7.65665L19.666 9.94745L18.9035 10.3793L14.5613 7.88049L14.3188 7.94717L18.7232 10.4872L17.9607 10.919L13.3824 8.27896C13.3138 8.30753 13.2468 8.33929 13.1798 8.36945L17.7789 11.0127L17.0163 11.4445L12.3726 8.77585C12.312 8.80919 12.2514 8.84253 12.1908 8.87904L16.8361 11.5477L16.072 11.9795L11.4857 9.3426L11.3262 9.45849L15.8917 12.0811L15.1292 12.5129L10.7056 9.97285C10.6578 10.0141 10.6147 10.0586 10.5684 10.1014L14.9473 12.6161L14.1848 13.0479L10.0213 10.6539L9.90002 10.792L14.0029 13.1495L13.2404 13.5813L9.42305 11.3873C9.38636 11.435 9.35127 11.4842 9.31777 11.5334L13.0602 13.6845L12.2961 14.1163L8.9046 12.1668C8.87429 12.2176 8.84398 12.2684 8.81527 12.3256L12.1238 14.2179L11.3613 14.6497L8.46911 12.9923C8.44358 13.0463 8.41965 13.1003 8.39413 13.1511L11.1666 14.7529L10.4041 15.1847L8.11656 13.8655C8.09582 13.9242 8.07508 13.9798 8.05754 14.0385L10.227 15.2863L9.46612 15.7165L7.84856 14.7894C7.83421 14.8497 7.81825 14.91 7.80549 14.972L9.28427 15.8213L8.52175 16.2531L7.67468 15.7657C7.66511 15.8292 7.65714 15.8927 7.64916 15.9578L8.33989 16.3547L7.60449 16.7722C7.60449 16.8119 7.60449 16.85 7.60449 16.8897C7.60449 16.9294 7.60449 16.9691 7.60449 17.0088L8.3383 17.4294L7.64597 17.8216C7.64597 17.8867 7.66033 17.9517 7.6683 18.0152L8.51856 17.539L9.27948 17.9756L7.79432 18.8154C7.80709 18.8757 7.82304 18.936 7.8358 18.9979L9.45974 18.0787L10.2191 18.5153L8.03839 19.7488C8.05754 19.8076 8.07827 19.8647 8.09742 19.9219L10.3993 18.6185L11.1571 19.0503L8.36861 20.6378C8.39253 20.6918 8.41806 20.7474 8.44358 20.7966L11.3389 19.1583L12.0982 19.5948L8.78496 21.4665C8.81367 21.5189 8.84398 21.5713 8.87429 21.6253L12.2833 19.6948L13.0426 20.1314L9.28586 22.2587L9.38955 22.4063L13.2181 20.2362L13.9774 20.6728L9.86014 23.0032C9.90002 23.0493 9.93831 23.0969 9.97979 23.1414L14.1593 20.7759L14.9186 21.2125L10.5285 23.7002L10.6625 23.8303L15.1037 21.3157L15.8598 21.7491L11.2799 24.3463L11.4394 24.4622L16.0432 21.8571L16.8026 22.2936L12.1381 24.9321L12.3184 25.0353L16.9796 22.3968L17.739 22.8334L13.1224 25.4464C13.191 25.4782 13.258 25.5099 13.325 25.5385L17.9192 22.9382L18.6802 23.3747L14.2598 25.8767C14.3411 25.9021 14.4193 25.9243 14.5023 25.9465L18.8604 23.4795L19.6197 23.9161L15.6189 26.1799C15.7162 26.1942 15.8151 26.2069 15.914 26.218L19.8016 24.0193L20.5609 24.4558L17.3449 26.2751C17.4821 26.2751 17.6161 26.2624 17.7517 26.2513L20.738 24.559L21.4973 24.9956L20.2036 25.7274C21.2087 25.3679 22.1448 24.8402 22.9713 24.1669ZM21.6951 23.8176L20.9358 23.3811L21.6983 22.9509L22.4577 23.3874L21.6951 23.8176ZM19.0662 15.853L19.8287 15.4212L20.588 15.8578L19.8271 16.2896L19.0662 15.853ZM20.5849 16.9326L19.8223 17.3644L19.063 16.9278L19.8255 16.496L20.5849 16.9326ZM19.6453 16.3928L18.8827 16.8278L18.1234 16.3912L18.8859 15.9594L19.6453 16.3928ZM18.7009 16.9262L17.9384 17.358L17.179 16.9214L17.9416 16.4896L18.7009 16.9262ZM18.8812 17.031L19.6421 17.4675L18.8796 17.8994L18.1186 17.4628L18.8812 17.031ZM19.8223 17.5707L20.5817 18.0073L19.8191 18.4391L19.0598 18.0025L19.8223 17.5707ZM20.7635 18.1121L21.5228 18.5487L20.7587 18.9789L19.9994 18.5423L20.7635 18.1121ZM20.0026 17.4628L20.7651 17.0326L21.526 17.4691L20.7635 17.8994L20.0026 17.4628ZM20.0026 16.3896L20.7651 15.9578L21.5356 16.3991L20.7667 16.8278L20.0026 16.3896ZM20.0026 15.3149L20.7651 14.8831L21.5356 15.3244L20.7731 15.7562L20.0026 15.3149ZM19.8223 15.2101L19.063 14.7735L19.8255 14.3417L20.5849 14.7783L19.8223 15.2101ZM19.6405 15.3133L18.878 15.7451L18.1186 15.3085L18.8812 14.8767L19.6405 15.3133ZM18.6961 15.8467L17.9336 16.2785L17.1743 15.8419L17.9368 15.4101L18.6961 15.8467ZM17.7533 16.3817L16.9908 16.8135L16.2315 16.3769L16.994 15.9451L17.7533 16.3817ZM16.809 16.9151L16.0464 17.3469L15.2871 16.9103L16.0496 16.4785L16.809 16.9151ZM16.9892 17.0199L17.7501 17.4564L16.9876 17.8882L16.2347 17.4628L16.9892 17.0199ZM17.9304 17.5596L18.6897 17.9962L17.9272 18.428L17.1679 17.9914L17.9304 17.5596ZM18.87 18.101L19.6293 18.5375L18.8668 18.9678L18.1075 18.5312L18.87 18.101ZM19.8112 18.6407L20.5785 19.0821L19.816 19.5139L19.055 19.0773L19.8112 18.6407ZM20.7508 19.1805L21.5101 19.6171L20.7476 20.0489L19.9882 19.6123L20.7508 19.1805ZM20.9326 19.0789L21.6951 18.6471L22.4545 19.0836L21.6951 19.5266L20.9326 19.0789ZM20.9326 18.0041L21.6951 17.5723L22.4545 18.0089L21.6919 18.4407L20.9326 18.0041ZM20.9326 16.9294L21.6951 16.4976L22.4561 16.9341L21.6935 17.3659L20.9326 16.9294ZM20.9326 15.8546L21.6967 15.4228L22.4561 15.8594L21.6935 16.2912L20.9326 15.8546ZM20.9326 14.7799L21.6935 14.3481L22.4545 14.7846L21.6919 15.2164L20.9326 14.7799ZM20.7524 14.6767L19.993 14.2401L20.7763 13.8115L21.5356 14.2496L20.7524 14.6767ZM20.0185 13.1765L20.7795 12.7447L21.5356 13.1765L20.7731 13.6083L20.0185 13.1765ZM20.596 13.7146L19.8335 14.1464L19.0742 13.7099L19.8367 13.2781L20.596 13.7146ZM19.6516 14.2496L18.8891 14.6814L18.1298 14.2449L18.8923 13.8115L19.6516 14.2496ZM18.7073 14.783L17.9464 15.2085L17.187 14.7719L17.9495 14.3401L18.7073 14.783ZM17.7645 15.318L17.002 15.7498L16.2426 15.3133L17.0052 14.8815L17.7645 15.318ZM16.8201 15.8514L16.0576 16.2833L15.2983 15.8403L16.0608 15.4085L16.8201 15.8514ZM15.8773 16.3864L15.1148 16.8183L14.3571 16.3753L15.1196 15.9435L15.8773 16.3864ZM14.933 16.9199L14.1704 17.3517L13.4111 16.9151L14.1736 16.4833L14.933 16.9199ZM15.1132 17.0246L15.8742 17.4628L15.1116 17.8946L14.3571 17.4501L15.1132 17.0246ZM16.0544 17.5644L16.8137 18.001L16.0512 18.4328L15.2919 17.9962L16.0544 17.5644ZM16.994 18.1057L17.7533 18.5423L16.9908 18.9741L16.2331 18.5375L16.994 18.1057ZM17.9336 18.6455L18.6945 19.0821L17.932 19.5139L17.1727 19.0773L17.9336 18.6455ZM18.8748 19.1868L19.6341 19.6234L18.8716 20.0536L18.1123 19.6171L18.8748 19.1868ZM19.816 19.7266L20.5785 20.1616L19.8144 20.5934L19.0566 20.1568L19.816 19.7266ZM20.7555 20.2664L21.5149 20.7029L20.7524 21.1347L19.993 20.6982L20.7555 20.2664ZM21.6951 20.7966L22.4561 21.2332L21.6951 21.6697L20.9358 21.2332L21.6951 20.7966ZM20.9374 20.1616L21.6983 19.7298L22.4592 20.1663L21.6951 20.595L20.9374 20.1616ZM21.8802 19.6266L22.6427 19.1948L23.4036 19.6313L22.6395 20.0631L21.8802 19.6266ZM21.8802 18.5518L22.6427 18.12L23.4036 18.5566L22.6523 18.9852L21.8802 18.5518ZM21.8802 17.4771L22.6443 17.0453L23.4036 17.4818L22.6523 17.9105L21.8802 17.4771ZM22.8246 16.9437L23.5935 16.5103L24.3544 16.9468L23.5919 17.3786L22.8246 16.9437ZM22.6443 16.8389L21.885 16.4023L22.6475 15.9721L23.4068 16.4087L22.6443 16.8389ZM21.8882 15.3292L22.6523 14.8942L23.4132 15.3307L22.6523 15.7625L21.8882 15.3292ZM21.8882 14.2544L22.6507 13.8226L23.4116 14.2592L22.6523 14.6878L21.8882 14.2544ZM21.7079 14.1496L20.9486 13.7131L21.7111 13.2812L22.4704 13.7178L21.7079 14.1496ZM20.9518 12.6383L21.7143 12.2065L22.4736 12.6431L21.7111 13.0749L20.9518 12.6383ZM20.7715 12.5351L20.0122 12.0985L20.7747 11.6667L21.534 12.1033L20.7715 12.5351ZM20.5896 12.6367L19.8271 13.0685L19.0678 12.6319L19.8303 12.2017L20.5896 12.6367ZM19.6564 13.1765L18.8923 13.6083L18.133 13.1717L18.8971 12.7399L19.6564 13.1765ZM18.7121 13.7115L17.9495 14.129L17.1886 13.6924L17.9527 13.2622L18.7121 13.7115ZM17.7677 14.2449L17.0052 14.6687L16.2458 14.2322L17.0084 13.8004L17.7677 14.2449ZM16.8233 14.7799L16.0624 15.2117L15.3031 14.764L16.0656 14.3338L16.8233 14.7799ZM15.8805 15.3133L15.118 15.7451L14.3571 15.3006L15.1196 14.8688L15.8805 15.3133ZM14.9362 15.8483L14.1736 16.2801L13.4143 15.8419L14.1768 15.399L14.9362 15.8483ZM13.9934 16.3817L13.2309 16.8135L12.4699 16.3769L13.2404 15.9372L13.9934 16.3817ZM13.049 16.9072L12.2833 17.339L11.524 16.9024L12.2833 16.4722L13.049 16.9072ZM13.2293 17.0119L13.9902 17.4485L13.2277 17.8803L12.4667 17.4437L13.2293 17.0119ZM14.1704 17.5517L14.9298 17.9883L14.1673 18.4153L13.4 17.9835L14.1704 17.5517ZM15.11 18.0978L15.8694 18.5344L15.1068 18.9662L14.3475 18.5296L15.11 18.0978ZM16.0512 18.6376L16.8105 19.0741L16.0464 19.5059L15.2887 19.0694L16.0512 18.6376ZM16.9908 19.1789L17.7501 19.6155L16.9876 20.0457L16.2283 19.6091L16.9908 19.1789ZM17.932 19.7187L18.6897 20.1552L17.9272 20.587L17.1679 20.1505L17.932 19.7187ZM18.8716 20.2584L19.6309 20.695L18.8684 21.1268L18.1091 20.6902L18.8716 20.2584ZM19.8112 20.7998L20.5705 21.2363L19.8096 21.6681L19.0487 21.2316L19.8112 20.7998ZM20.7524 21.3395L21.5117 21.7761L20.7492 22.2079L19.9898 21.7713L20.7524 21.3395ZM21.6951 21.8761L22.4545 22.3127L21.6951 22.7429L20.9358 22.3063L21.6951 21.8761ZM21.877 21.7729L22.6395 21.3411L23.3988 21.7777L22.6363 22.2095L21.877 21.7729ZM21.877 20.6982L22.6395 20.2664L23.4004 20.7029L22.6363 21.1347L21.877 20.6982ZM22.8198 20.1648L23.5823 19.7329L24.3432 20.1695L23.5807 20.6013L22.8198 20.1648ZM22.8198 19.09L23.5823 18.6582L24.3416 19.0948L23.5839 19.5266L22.8198 19.09ZM22.8198 18.0152L23.5823 17.5834L24.3416 18.02L23.5791 18.4518L22.8198 18.0152ZM23.7641 17.4802L24.5267 17.0484L25.286 17.485L24.5235 17.9168L23.7641 17.4802ZM23.7641 16.4055L24.5267 15.9737L25.286 16.4103L24.5235 16.8421L23.7641 16.4055ZM23.5839 16.3023L22.8246 15.8657L23.5871 15.4339L24.3464 15.8705L23.5839 16.3023ZM22.8277 14.791L23.6094 14.3592L24.3687 14.7957L23.6062 15.2276L22.8277 14.791ZM22.8277 13.7162L23.6094 13.2844L24.3687 13.721L23.6094 14.1528L22.8277 13.7162ZM22.6475 13.613L21.9025 13.1765L22.6634 12.7447L23.4244 13.1765L22.6475 13.613ZM21.8913 12.1017L22.6539 11.6699L23.4132 12.1065L22.665 12.5415L21.8913 12.1017ZM21.7111 11.9969L20.9502 11.5604L21.7127 11.1302L22.4927 11.5667L21.7111 11.9969ZM20.7699 11.4572L20.0106 11.0206L20.7731 10.5888L21.5324 11.0254L20.7699 11.4572ZM20.588 11.5604L19.8271 11.9922L19.0662 11.554L19.8287 11.1238L20.588 11.5604ZM19.6453 12.0938L18.8827 12.5256L18.1234 12.089L18.8859 11.6572L19.6453 12.0938ZM18.7009 12.6288L17.9384 13.0606L17.179 12.624L17.9416 12.1922L18.7009 12.6288ZM17.7581 13.1622L16.994 13.594L16.2347 13.1574L16.9972 12.7256L17.7581 13.1622ZM16.8137 13.6972L16.0656 14.129L15.3142 13.6908L16.0751 13.2606L16.8137 13.6972ZM15.8694 14.2306L15.1068 14.6624L14.3571 14.2258L15.1196 13.794L15.8694 14.2306ZM14.9393 14.764L14.1784 15.1958L13.4191 14.764L14.18 14.3322L14.9393 14.764ZM13.9966 15.2974L13.2404 15.7308L12.4747 15.2942L13.2404 14.8624L13.9966 15.2974ZM13.0522 15.8308L12.2833 16.2642L11.5303 15.8276L12.2929 15.399L13.0522 15.8308ZM12.1094 16.3658L11.3469 16.7976L10.586 16.361L11.3485 15.9292L12.1094 16.3658ZM11.1666 16.9008L10.4041 17.3326L9.64479 16.896L10.4073 16.4658L11.1666 16.9008ZM11.3469 17.0056L12.1062 17.4421L11.3437 17.874L10.5844 17.4374L11.3469 17.0056ZM12.2833 17.5469L13.0442 17.9819L12.2833 18.4153L11.524 17.9787L12.2833 17.5469ZM13.2245 18.0867L13.9838 18.5233L13.2213 18.9535L12.462 18.5185L13.2245 18.0867ZM14.1657 18.6264L14.925 19.063L14.1609 19.4948L13.4 19.0582L14.1657 18.6264ZM15.1053 19.1678L15.8646 19.6044L15.1021 20.0362L14.3427 19.5996L15.1053 19.1678ZM16.0448 19.7075L16.8042 20.1441L16.0432 20.5759L15.2839 20.1394L16.0448 19.7075ZM16.986 20.2473L17.7454 20.6855L16.9844 21.1141L16.2251 20.6759L16.986 20.2473ZM17.9256 20.7886L18.6865 21.2252L17.9224 21.657L17.1631 21.2205L17.9256 20.7886ZM18.8668 21.3284L19.6213 21.765L18.8588 22.1968L18.0995 21.7602L18.8668 21.3284ZM19.8064 21.8698L20.5657 22.3063L19.8032 22.7381L19.0439 22.3016L19.8064 21.8698ZM20.746 22.4095L21.5069 22.8461L20.7444 23.2779L19.9835 22.8413L20.746 22.4095ZM22.6283 23.2842L21.8674 22.8477L22.6299 22.4159L23.3909 22.8524L22.6283 23.2842ZM24.3352 22.319L23.5711 22.7492L22.8118 22.3127L23.5743 21.8825L24.3352 22.319ZM23.5759 21.6745L22.8118 21.2379L23.5759 20.8077L24.3352 21.2443L23.5759 21.6745ZM25.2828 20.7093L24.5187 21.1411L23.7689 20.7045L24.5314 20.2727L25.2828 20.7093ZM25.2828 19.6345L24.5187 20.0663L23.7689 19.6298L24.5314 19.1979L25.2828 19.6345ZM24.5235 18.9916L23.7689 18.555L24.5314 18.1232L25.2924 18.5598L24.5235 18.9916ZM26.2288 18.0264L25.4663 18.4582L24.7069 18.0216L25.4694 17.5898L26.2288 18.0264ZM26.2288 16.9516L25.4663 17.3834L24.7053 16.9468L25.4678 16.515L26.2288 16.9516ZM26.2288 15.8768L25.4663 16.3087L24.7261 15.8753L25.4886 15.4435L26.2288 15.8768ZM25.2876 15.3371L24.5251 15.7673L23.7657 15.3307L24.5283 14.9005L25.2876 15.3371ZM25.2876 14.2623L24.5251 14.6941L23.7657 14.2576L24.5283 13.8258L25.2876 14.2623ZM25.2876 13.1876L24.5251 13.6194L23.7865 13.1765L24.549 12.7447L25.2876 13.1876ZM24.348 12.6462L23.6094 13.078L22.8485 12.6415L23.6094 12.2097L24.348 12.6462ZM24.348 11.5715L23.6094 12.0033L22.8501 11.5667L23.6094 11.1349L24.348 11.5715ZM23.4084 11.0317L22.6443 11.4635L21.885 11.027L22.6475 10.5952L23.4084 11.0317ZM22.4672 10.492L21.7047 10.9222L20.9454 10.4872L21.7079 10.0554L22.4672 10.492ZM21.7111 8.98064L22.4927 9.41721L21.7318 9.84267L20.9725 9.4061L21.7111 8.98064ZM20.7667 9.51405L21.526 9.95062L20.7651 10.3824L20.0042 9.94586L20.7667 9.51405ZM19.8239 10.049L20.5833 10.4856L19.8207 10.9174L19.0853 10.4777L19.8239 10.049ZM18.8796 10.5825L19.6389 11.019L18.8764 11.4508L18.117 11.0143L18.8796 10.5825ZM17.9591 11.1127L18.72 11.5493L17.9575 11.9811L17.1966 11.5445L17.9591 11.1127ZM17.0163 11.6461L17.7757 12.0827L17.0131 12.5145L16.2538 12.0779L17.0163 11.6461ZM16.072 12.1811L16.8313 12.6177L16.0688 13.0495L15.3142 12.6177L16.072 12.1811ZM15.1276 12.7145L15.8869 13.1511L15.126 13.5829L14.3667 13.1463L15.1276 12.7145ZM14.1832 13.2495L14.9441 13.6861L14.1816 14.129L13.4223 13.694L14.1832 13.2495ZM13.2404 13.7877L13.9998 14.2242L13.2404 14.656L12.4811 14.2195L13.2404 13.7877ZM12.2961 14.3227L13.0554 14.764L12.2929 15.1958L11.5335 14.7529L12.2961 14.3227ZM11.3533 14.8561L12.1126 15.2926L11.3485 15.7244L10.5908 15.2879L11.3533 14.8561ZM10.4089 15.399L11.1666 15.8276L10.4041 16.2579L9.64479 15.8213L10.4089 15.399ZM9.46453 15.9324L10.2255 16.369L9.46134 16.8008L8.70201 16.3515L9.46453 15.9324ZM7.75923 16.8913L8.52175 16.4595L9.28108 16.896L8.51856 17.3278L7.75923 16.8913ZM8.69882 17.431L9.46134 16.9992L10.2207 17.4358L9.45815 17.8676L8.69882 17.431ZM9.63841 17.9708L10.4025 17.5406L11.1666 17.9756L10.3993 18.4153L9.63841 17.9708ZM10.5796 18.5121L11.3421 18.0803L12.1014 18.5169L11.3389 18.9487L10.5796 18.5121ZM11.5192 19.0519L12.2833 18.6201L13.041 19.0503L12.2833 19.4885L11.5192 19.0519ZM12.4604 19.5917L13.2229 19.1614L13.9822 19.598L13.2197 20.0282L12.4604 19.5917ZM13.4 20.133L14.1625 19.7012L14.9234 20.1378L14.1593 20.5696L13.4 20.133ZM14.3411 20.6728L15.1037 20.2425L15.863 20.6791L15.1005 21.1141L14.3411 20.6728ZM15.2807 21.2141L16.0432 20.7823L16.8026 21.2189L16.0401 21.6507L15.2807 21.2141ZM16.2203 21.7539L16.9828 21.3221L17.7438 21.7586L16.9812 22.1904L16.2203 21.7539ZM17.1615 22.2952L17.924 21.8634L18.6833 22.3L17.9208 22.7318L17.1615 22.2952ZM18.1011 22.835L18.8636 22.4032L19.6229 22.8397L18.862 23.2715L18.1011 22.835ZM19.0407 23.3763L19.8048 22.9445L20.5641 23.3811L19.8016 23.8129L19.0407 23.3763ZM19.9819 23.9161L20.7444 23.4843L21.5037 23.9208L20.738 24.3526L19.9819 23.9161ZM20.923 24.4558L21.684 24.024L22.4449 24.4606L21.6824 24.8924L20.923 24.4558Z" fill="#00C58B" style="fill:#00C58B;fill:color(display-p3 0.0000 0.7725 0.5451);fill-opacity:1;"/>
<path d="M21.9135 25.2671C20.4378 26.1311 18.7586 26.5911 17.0464 26.6005C15.3342 26.6098 13.65 26.1682 12.1648 25.3203C10.6796 24.4725 9.44621 23.2487 8.58994 21.7731C7.73367 20.2975 7.28497 18.6228 7.28938 16.9188C7.2938 15.2149 7.75118 13.5424 8.61508 12.0713C9.47899 10.6001 10.7187 9.38264 12.2082 8.54243C13.6978 7.70223 15.3843 7.26921 17.0964 7.28735C18.8085 7.30549 20.4853 7.77413 21.9566 8.64571L27.7664 5.35001C25.4906 3.25513 22.6503 1.86618 19.5933 1.35323C16.5363 0.840294 13.3954 1.22563 10.5551 2.46206C7.71487 3.69848 5.29855 5.73233 3.60208 8.31455C1.9056 10.8968 1.00261 13.9153 1.00366 17.0004C1.00472 20.0855 1.90979 23.1034 3.60803 25.6845C5.30627 28.2656 7.72398 30.2978 10.5651 31.5323C13.4062 32.7668 16.5474 33.15 19.604 32.635C22.6606 32.1199 25.5 30.7291 27.7744 28.6326L21.9135 25.2671Z" fill="black" style="fill:black;fill-opacity:1;"/>
</g>
<defs>
<clipPath id="clip0_1_204">
<rect width="201" height="34" fill="white" style="fill:white;fill-opacity:1;"/>
</clipPath>
</defs>
</svg>
