<svg width="200" height="37" viewBox="0 0 200 37" fill="none" xmlns="http://www.w3.org/2000/svg">
<g clip-path="url(#clip0_1_200)">
<path fill-rule="evenodd" clip-rule="evenodd" d="M186.516 11.2594H191.844C193.042 11.2594 194.142 11.4556 195.144 11.848C196.145 12.2405 197.007 12.7851 197.731 13.4815C198.454 14.1773 199.014 14.9957 199.408 15.9367C199.803 16.8771 200 17.8955 200 18.9915V19.036C200 20.132 199.803 21.1543 199.408 22.1024C199.014 23.05 198.454 23.8722 197.731 24.5686C197.007 25.2649 196.145 25.8129 195.144 26.213C194.142 26.6126 193.042 26.8127 191.844 26.8127H186.516V11.2594ZM191.844 25.1907C192.809 25.1907 193.686 25.0352 194.475 24.7241C195.264 24.413 195.933 23.9833 196.481 23.4353C197.029 22.8878 197.453 22.2393 197.753 21.4912C198.052 20.7432 198.202 19.9396 198.202 19.0805V19.036C198.202 18.177 198.052 17.3729 197.753 16.6254C197.453 15.8773 197.029 15.2255 196.481 14.6698C195.933 14.1142 195.264 13.6772 194.475 13.359C193.686 13.0407 192.809 12.8813 191.844 12.8813H188.248V25.1907H191.844ZM166.174 11.2594H172.773C173.723 11.2594 174.567 11.3963 175.305 11.67C176.043 11.9442 176.653 12.3257 177.136 12.8148C177.516 13.2001 177.808 13.6519 178.013 14.1697C178.218 14.6885 178.32 15.259 178.32 15.8811V15.9252C178.32 16.577 178.218 17.1585 178.013 17.6697C177.808 18.1808 177.52 18.6249 177.147 19.003C176.774 19.3806 176.332 19.6912 175.82 19.9363C175.309 20.1804 174.754 20.3541 174.154 20.4579L178.868 26.8127H176.741L172.291 20.769H172.247H167.906V26.8127H166.174V11.2594ZM172.63 19.1916C173.204 19.1916 173.73 19.1174 174.213 18.969C174.699 18.8211 175.115 18.6101 175.466 18.3363C175.82 18.0621 176.094 17.729 176.292 17.3366C176.489 16.9436 176.588 16.4957 176.588 15.9922V15.9477C176.588 14.9847 176.245 14.2329 175.554 13.6921C174.867 13.1517 173.898 12.8813 172.652 12.8813H167.906V19.1916H172.63ZM150.172 27.0798C149.002 27.0798 147.939 26.865 146.982 26.4351C146.025 26.0058 145.203 25.4238 144.515 24.6911C143.828 23.9579 143.299 23.1055 142.925 22.1354C142.553 21.1658 142.367 20.1468 142.367 19.0805V19.036C142.367 17.9693 142.557 16.9475 142.937 15.9697C143.316 14.9919 143.85 14.1367 144.537 13.4035C145.224 12.6703 146.05 12.0849 147.015 11.648C147.979 11.211 149.046 10.9928 150.216 10.9928C151.385 10.9928 152.449 11.2072 153.406 11.6365C154.363 12.0663 155.186 12.6483 155.873 13.3815C156.559 14.1142 157.089 14.9661 157.462 15.9367C157.835 16.9068 158.021 17.9247 158.021 18.9915C158.036 19.0064 158.036 19.0212 158.021 19.036C158.021 20.1028 157.831 21.1246 157.451 22.1024C157.071 23.0802 156.538 23.9354 155.851 24.6686C155.163 25.4018 154.338 25.9871 153.373 26.4241C152.408 26.861 151.341 27.0798 150.172 27.0798ZM150.216 25.4578C151.093 25.4578 151.901 25.2908 152.638 24.9577C153.377 24.6246 154.009 24.169 154.535 23.5908C155.061 23.0132 155.474 22.3393 155.774 21.5692C156.073 20.7987 156.223 19.9693 156.223 19.0805V19.036C156.223 18.1468 156.073 17.3136 155.774 16.5363C155.474 15.7582 155.054 15.0809 154.513 14.5033C153.972 13.9256 153.333 13.4662 152.594 13.1254C151.857 12.7851 151.049 12.6143 150.172 12.6143C149.295 12.6143 148.488 12.7813 147.75 13.1144C147.011 13.448 146.379 13.9031 145.853 14.4813C145.327 15.0589 144.914 15.7328 144.614 16.5028C144.314 17.2734 144.165 18.1028 144.165 18.9915V19.036C144.165 19.9248 144.314 20.758 144.614 21.5357C144.914 22.3134 145.334 22.9907 145.875 23.5688C146.415 24.1465 147.055 24.6054 147.793 24.9462C148.531 25.2874 149.339 25.4578 150.216 25.4578ZM129.391 27.0798C128.28 27.0798 127.257 26.872 126.321 26.4576C125.386 26.0427 124.575 25.476 123.888 24.7576C123.201 24.0392 122.664 23.1912 122.277 22.2134C121.889 21.2357 121.695 20.1914 121.695 19.0805V19.036C121.695 17.9401 121.889 16.903 122.277 15.9252C122.664 14.9474 123.201 14.0922 123.888 13.359C124.575 12.6258 125.393 12.0481 126.343 11.6255C127.294 11.2039 128.331 10.9928 129.456 10.9928C130.158 10.9928 130.791 11.0517 131.353 11.1703C131.916 11.2886 132.438 11.4556 132.921 11.67C133.403 11.8849 133.849 12.1443 134.258 12.4477C134.667 12.7516 135.062 13.089 135.442 13.459L134.258 14.7474C133.601 14.1252 132.896 13.6145 132.142 13.2144C131.39 12.8148 130.487 12.6143 129.435 12.6143C128.587 12.6143 127.801 12.7775 127.078 13.1034C126.354 13.4293 125.726 13.8811 125.193 14.4588C124.659 15.0369 124.242 15.7141 123.943 16.4918C123.643 17.2696 123.493 18.1028 123.493 18.9915V19.036C123.493 19.9396 123.643 20.7805 123.943 21.5582C124.242 22.3359 124.659 23.0132 125.193 23.5908C125.726 24.169 126.354 24.6246 127.078 24.9577C127.801 25.2908 128.587 25.4578 129.435 25.4578C130.487 25.4578 131.394 25.2611 132.153 24.8687C132.913 24.4762 133.659 23.9244 134.39 23.2132L135.53 24.3465C135.135 24.7614 134.722 25.1352 134.291 25.4683C133.86 25.8019 133.396 26.0872 132.899 26.324C132.402 26.5609 131.868 26.7462 131.298 26.8792C130.728 27.0127 130.093 27.0798 129.391 27.0798ZM100.564 11.2594H102.186L111.855 23.7243V11.2594H113.543V26.8127H112.162L102.251 14.0587V26.8127H100.564V11.2594ZM84.5617 27.0798C83.3924 27.0798 82.3289 26.865 81.3718 26.4351C80.4146 26.0058 79.5924 25.4238 78.9051 24.6911C78.218 23.9579 77.6882 23.1055 77.3157 22.1354C76.9429 21.1658 76.7564 20.1468 76.7564 19.0805V19.036C76.7564 17.9693 76.9469 16.9475 77.327 15.9697C77.7067 14.9919 78.2397 14.1367 78.9273 13.4035C79.6141 12.6703 80.44 12.0849 81.4048 11.648C82.3691 11.211 83.4363 10.9928 84.6056 10.9928C85.7749 10.9928 86.8384 11.2072 87.7958 11.6365C88.753 12.0663 89.5752 12.6483 90.2622 13.3815C90.949 14.1142 91.4789 14.9661 91.8519 15.9367C92.2244 16.9068 92.4109 17.9247 92.4109 18.9915C92.4252 19.0064 92.4252 19.0212 92.4109 19.036C92.4109 20.1028 92.2212 21.1246 91.8411 22.1024C91.4609 23.0802 90.9273 23.9354 90.2405 24.6686C89.5535 25.4018 88.7276 25.9871 87.7628 26.4241C86.7982 26.861 85.731 27.0798 84.5617 27.0798ZM84.6056 25.4578C85.4826 25.4578 86.2903 25.2908 87.0284 24.9577C87.7665 24.6246 88.3987 24.169 88.9249 23.5908C89.4509 23.0132 89.8641 22.3393 90.1636 21.5692C90.4636 20.7987 90.6128 19.9693 90.6128 19.0805V19.036C90.6128 18.1468 90.4636 17.3136 90.1636 16.5363C89.8641 15.7582 89.444 15.0809 88.9027 14.5033C88.362 13.9256 87.7225 13.4662 86.9845 13.1254C86.2464 12.7851 85.4387 12.6143 84.5617 12.6143C83.6847 12.6143 82.8773 12.7813 82.1392 13.1144C81.4011 13.448 80.7686 13.9031 80.2426 14.4813C79.7165 15.0589 79.3032 15.7328 79.0038 16.5028C78.7046 17.2734 78.5543 18.1028 78.5543 18.9915V19.036C78.5543 19.9248 78.7046 20.758 79.0038 21.5357C79.3032 22.3134 79.7236 22.9907 80.2643 23.5688C80.8056 24.1465 81.4445 24.6054 82.1831 24.9462C82.9207 25.2874 83.7286 25.4578 84.6056 25.4578ZM63.7805 27.0798C62.6696 27.0798 61.6464 26.872 60.7109 26.4576C59.7755 26.0427 58.9646 25.476 58.2773 24.7576C57.5908 24.0392 57.0532 23.1912 56.6659 22.2134C56.2789 21.2357 56.0847 20.1914 56.0847 19.0805V19.036C56.0847 17.9401 56.2789 16.903 56.6659 15.9252C57.0532 14.9474 57.5908 14.0922 58.2773 13.359C58.9646 12.6258 59.7829 12.0481 60.7331 11.6255C61.6831 11.2039 62.7212 10.9928 63.8461 10.9928C64.5479 10.9928 65.1802 11.0517 65.7427 11.1703C66.3056 11.2886 66.8284 11.4556 67.3106 11.67C67.7927 11.8849 68.2384 12.1443 68.6479 12.4477C69.0575 12.7516 69.4516 13.089 69.8318 13.459L68.6479 14.7474C67.99 14.1252 67.285 13.6145 66.5323 13.2144C65.7794 12.8148 64.8765 12.6143 63.8244 12.6143C62.9768 12.6143 62.1908 12.7775 61.4675 13.1034C60.744 13.4293 60.1154 13.8811 59.5821 14.4588C59.0485 15.0369 58.6315 15.7141 58.3321 16.4918C58.0329 17.2696 57.8831 18.1028 57.8831 18.9915V19.036C57.8831 19.9396 58.0329 20.7805 58.3321 21.5582C58.6315 22.3359 59.0485 23.0132 59.5821 23.5908C60.1154 24.169 60.744 24.6246 61.4675 24.9577C62.1908 25.2908 62.9768 25.4578 63.8244 25.4578C64.8765 25.4578 65.7834 25.2611 66.5432 24.8687C67.303 24.4762 68.0487 23.9244 68.7792 23.2132L69.9196 24.3465C69.5249 24.7614 69.1122 25.1352 68.6805 25.4683C68.2498 25.8019 67.7855 26.0872 67.2887 26.324C66.7916 26.5609 66.258 26.7462 65.6884 26.8792C65.1183 27.0127 64.4823 27.0798 63.7805 27.0798Z" fill="#00C58B" style="fill:#00C58B;fill:color(display-p3 0.0000 0.7725 0.5451);fill-opacity:1;"/>
<path fill-rule="evenodd" clip-rule="evenodd" d="M21.6339 25.5655L15.6762 29.0517C15.5124 29.1474 15.3106 29.1474 15.1468 29.0517L6.05952 23.7343C5.89577 23.6385 5.79497 23.4613 5.79497 23.2699V12.6329C5.79497 12.442 5.89524 12.2653 6.0582 12.1694L20.3944 3.72906C20.7471 3.52154 20.7452 3.00461 20.391 2.79977L15.6735 0.0706167C15.5101 -0.0240281 15.3095 -0.0234919 15.1466 0.0719573L0.26455 8.77983C0.100794 8.87582 0 9.05277 0 9.24421V26.6608C0 26.8523 0.100794 27.0293 0.26455 27.1253L15.1468 35.8332C15.3106 35.9291 15.5124 35.9291 15.6759 35.8332L26.8997 29.2659C27.2524 29.0595 27.2524 28.5434 26.8997 28.3369L22.163 25.5655C21.9992 25.4698 21.7976 25.4698 21.6339 25.5655Z" fill="#00C58B" style="fill:#00C58B;fill:color(display-p3 0.0000 0.7725 0.5451);fill-opacity:1;"/>
<path fill-rule="evenodd" clip-rule="evenodd" d="M28.1556 1.1443L16.9314 7.71181C16.5785 7.91826 16.5785 8.43409 16.9314 8.64054L21.6682 11.4121C21.832 11.5081 22.0335 11.5081 22.1973 11.4121L28.1556 7.92604C28.3194 7.83005 28.521 7.83005 28.6847 7.92604L37.7723 13.2436C37.9355 13.3396 38.0369 13.5165 38.0369 13.708V24.3449C38.0369 24.5361 37.9361 24.7125 37.7734 24.8085L23.437 33.2488C23.0843 33.4564 23.0865 33.9733 23.4407 34.1781L28.1583 36.907C28.3215 37.0017 28.522 37.0011 28.685 36.9059L43.5673 28.1981C43.731 28.1024 43.8318 27.9251 43.8318 27.7337V10.3171C43.8318 10.1254 43.731 9.94841 43.5673 9.85269L28.6847 1.1443C28.521 1.04858 28.3194 1.04858 28.1556 1.1443Z" fill="#00C58B" style="fill:#00C58B;fill:color(display-p3 0.0000 0.7725 0.5451);fill-opacity:1;"/>
</g>
<defs>
<clipPath id="clip0_1_200">
<rect width="200" height="37" fill="white" style="fill:white;fill-opacity:1;"/>
</clipPath>
</defs>
</svg>
