<svg width="196" height="29" viewBox="0 0 196 29" fill="none" xmlns="http://www.w3.org/2000/svg">
<g clip-path="url(#clip0_1_254)">
<path d="M44.0623 25.5439C42.3144 25.5439 40.7934 25.143 39.4994 24.3413C38.2282 23.5168 37.252 22.4288 36.571 21.0774C35.9126 19.703 35.5835 18.2143 35.5835 16.6109C35.5835 15.0076 35.9126 13.5301 36.571 12.1788C37.252 10.8045 38.2282 9.7165 39.4994 8.9148C40.7934 8.09028 42.3144 7.67797 44.0623 7.67797C45.4017 7.67797 46.6503 7.94138 47.8081 8.4682C48.9885 8.9721 49.9533 9.70503 50.7024 10.6671C51.4516 11.6061 51.8943 12.7171 52.0305 13.9998H48.7275C48.5685 13.0148 48.0464 12.2017 47.1611 11.5604C46.2984 10.919 45.2883 10.5983 44.1305 10.5983C43.0181 10.5983 42.076 10.8617 41.3042 11.3886C40.555 11.9154 39.9875 12.6369 39.6016 13.5531C39.2156 14.4693 39.0227 15.4885 39.0227 16.6109C39.0227 18.3517 39.4653 19.7947 40.3507 20.94C41.2361 22.0623 42.5074 22.6234 44.1645 22.6234C45.3222 22.6234 46.3098 22.3372 47.127 21.7645C47.9443 21.1919 48.489 20.4131 48.7615 19.4282H52.0305C51.8488 20.6422 51.4062 21.7073 50.7024 22.6234C49.9987 23.5396 49.0793 24.2612 47.9443 24.788C46.8092 25.2919 45.5152 25.5439 44.0623 25.5439ZM61.9621 25.5439C60.2595 25.5439 58.7385 25.1659 57.3991 24.4101C56.0598 23.6313 55.0042 22.5662 54.2323 21.2148C53.4832 19.8634 53.1086 18.3288 53.1086 16.6109C53.1086 14.8931 53.4832 13.3584 54.2323 12.007C55.0042 10.6556 56.0598 9.60198 57.3991 8.84613C58.7385 8.06735 60.2595 7.67797 61.9621 7.67797C63.6419 7.67797 65.1517 8.06735 66.491 8.84613C67.8303 9.60198 68.8746 10.6556 69.6237 12.007C70.3955 13.3584 70.7815 14.8931 70.7815 16.6109C70.7815 18.3288 70.3955 19.8634 69.6237 21.2148C68.8746 22.5662 67.8303 23.6313 66.491 24.4101C65.1517 25.1659 63.6419 25.5439 61.9621 25.5439ZM61.9621 22.6234C63.029 22.6234 63.9712 22.3715 64.7884 21.8676C65.6284 21.3407 66.2753 20.6307 66.7293 19.7374C67.1834 18.8212 67.4104 17.779 67.4104 16.6109C67.4104 15.4427 67.1834 14.4121 66.7293 13.5187C66.2753 12.6026 65.6284 11.8925 64.7884 11.3886C63.9712 10.8617 63.029 10.5983 61.9621 10.5983C60.8951 10.5983 59.9417 10.8617 59.1017 11.3886C58.2618 11.8925 57.6149 12.6026 57.1608 13.5187C56.7068 14.4121 56.4798 15.4427 56.4798 16.6109C56.4798 17.779 56.7068 18.8212 57.1608 19.7374C57.6149 20.6307 58.2618 21.3407 59.1017 21.8676C59.9417 22.3715 60.8951 22.6234 61.9621 22.6234ZM73.1225 7.95284H76.4255V11.0106C76.8796 9.93406 77.5833 9.10954 78.5367 8.53687C79.5129 7.9643 80.648 7.67797 81.9419 7.67797C83.2132 7.67797 84.3369 7.97576 85.313 8.57126C86.2892 9.14392 87.0384 9.95699 87.5605 11.0106C88.0825 12.0414 88.3436 13.2439 88.3436 14.6182V25.269H85.0406V15.271C85.0406 13.8967 84.666 12.7858 83.9169 11.9383C83.1905 11.0908 82.2256 10.6671 81.0225 10.6671C80.1372 10.6671 79.3426 10.8961 78.6389 11.3542C77.9351 11.7894 77.3903 12.4078 77.0045 13.2095C76.6185 13.9883 76.4255 14.8816 76.4255 15.8894V25.269H73.1225V7.95284ZM97.2321 25.5439C95.8474 25.5439 94.6556 25.3148 93.6568 24.8567C92.6579 24.3757 91.8748 23.7 91.3072 22.8296C90.7396 21.9363 90.4105 20.8712 90.3197 19.6344H93.3503C93.4411 20.6422 93.827 21.4324 94.5081 22.005C95.189 22.5547 96.0857 22.8296 97.1982 22.8296C98.2195 22.8296 99.037 22.6006 99.6496 22.1424C100.263 21.6844 100.569 21.0659 100.569 20.2872C100.569 19.6916 100.387 19.2335 100.024 18.9128C99.6836 18.5922 99.2642 18.3632 98.7642 18.2257C98.2651 18.0654 97.5389 17.905 96.5855 17.7447C95.382 17.5385 94.3832 17.3095 93.5886 17.0576C92.8168 16.7827 92.1471 16.3132 91.5796 15.6489C91.0348 14.9846 90.7623 14.0455 90.7623 12.8316C90.7623 11.8466 91.0234 10.9648 91.5455 10.186C92.0677 9.38441 92.7941 8.766 93.7249 8.33076C94.6556 7.89553 95.7112 7.67797 96.8914 7.67797C98.2079 7.67797 99.3438 7.89553 100.297 8.33076C101.273 8.74308 102.033 9.36149 102.579 10.186C103.146 10.9877 103.463 11.9498 103.532 13.0721H100.501C100.411 12.2246 100.036 11.5489 99.3778 11.045C98.7418 10.5411 97.9244 10.2892 96.9253 10.2892C96.0404 10.2892 95.3026 10.5067 94.7123 10.942C94.1221 11.3542 93.827 11.9383 93.827 12.6942C93.827 13.2439 93.9859 13.679 94.3037 13.9998C94.6443 14.2975 95.0642 14.5151 95.5637 14.6526C96.0857 14.79 96.8011 14.9273 97.7088 15.0648C98.9574 15.271 99.9787 15.5 100.774 15.752C101.59 16.0039 102.272 16.4734 102.817 17.1606C103.385 17.8478 103.668 18.8327 103.668 20.1154C103.668 21.2147 103.407 22.1768 102.885 23.0014C102.362 23.803 101.614 24.4329 100.637 24.8911C99.6836 25.3262 98.5486 25.5439 97.2321 25.5439ZM112.243 25.5439C110.972 25.5439 109.848 25.2575 108.872 24.6849C107.919 24.0894 107.169 23.2762 106.624 22.2455C106.102 21.1919 105.841 19.9779 105.841 18.6036V7.95284H109.144V17.9508C109.144 19.3251 109.507 20.4361 110.234 21.2835C110.983 22.131 111.959 22.5547 113.162 22.5547C114.048 22.5547 114.842 22.3372 115.546 21.9019C116.25 21.4439 116.794 20.8255 117.181 20.0467C117.589 19.245 117.793 18.3402 117.793 17.3324V7.95284H121.096V25.269H117.793V22.2112C117.339 23.2877 116.624 24.1123 115.648 24.6849C114.672 25.2575 113.537 25.5439 112.243 25.5439ZM124.537 0.703369H127.84V25.269H124.537V0.703369ZM138.473 25.269C137.316 25.269 136.305 25.04 135.443 24.5818C134.58 24.1237 133.911 23.4709 133.434 22.6234C132.98 21.776 132.753 20.7682 132.753 19.6V10.8388H129.246V7.95284H132.753V2.52433H136.055V7.95284H141.129V10.8388H136.055V19.4969C136.055 20.4131 136.283 21.1232 136.737 21.6271C137.214 22.131 137.872 22.3829 138.712 22.3829H141.129V25.269H138.473ZM148.068 25.5439C146.91 25.5439 145.888 25.3262 145.003 24.8911C144.118 24.4558 143.425 23.8489 142.926 23.0701C142.45 22.2684 142.211 21.3522 142.211 20.3215C142.211 19.2221 142.484 18.2601 143.028 17.4355C143.596 16.588 144.379 15.9352 145.378 15.4771C146.399 15.019 147.568 14.79 148.886 14.79H152.494C152.881 14.79 153.164 14.7212 153.346 14.5838C153.551 14.4234 153.653 14.1944 153.653 13.8967C153.653 12.8431 153.278 11.9955 152.528 11.3542C151.802 10.69 150.792 10.3578 149.498 10.3578C148.704 10.3578 147.988 10.5067 147.353 10.8045C146.74 11.1022 146.252 11.5031 145.888 12.007C145.525 12.4881 145.321 13.0262 145.276 13.6218H142.211C142.302 12.4994 142.677 11.4916 143.335 10.5983C143.993 9.68211 144.867 8.9721 145.956 8.4682C147.047 7.94138 148.261 7.67797 149.6 7.67797C151.053 7.67797 152.336 7.95284 153.448 8.50259C154.56 9.02931 155.412 9.7738 156.002 10.7358C156.615 11.6978 156.921 12.8201 156.921 14.1028V25.269H153.653V22.4173L153.482 22.7608C153.164 23.3106 152.733 23.803 152.188 24.2383C151.643 24.6506 151.019 24.9712 150.316 25.2002C149.612 25.4293 148.862 25.5439 148.068 25.5439ZM148.715 22.8983C150.258 22.8983 151.461 22.4288 152.324 21.4896C153.21 20.5506 153.653 19.2794 153.653 17.676V17.3667H149.225C148.09 17.3667 147.183 17.6301 146.501 18.157C145.843 18.6609 145.514 19.3595 145.514 20.2528C145.514 21.0545 145.798 21.6958 146.365 22.1768C146.955 22.6578 147.739 22.8983 148.715 22.8983ZM167.136 25.5439C165.455 25.5439 164.003 25.1659 162.777 24.4101C161.574 23.6313 160.654 22.5662 160.019 21.2148C159.384 19.8634 159.065 18.3288 159.065 16.6109C159.065 14.8931 159.384 13.3584 160.019 12.007C160.654 10.6556 161.586 9.60198 162.811 8.84613C164.037 8.06735 165.489 7.67797 167.17 7.67797C168.327 7.67797 169.406 7.94138 170.405 8.4682C171.404 8.9721 172.164 9.64783 172.686 10.4953V0.703369H175.989V25.269H172.686V22.6922C172.164 23.5396 171.392 24.2268 170.371 24.7536C169.372 25.2804 168.293 25.5439 167.136 25.5439ZM167.681 22.6234C168.724 22.6234 169.644 22.3715 170.439 21.8676C171.233 21.3636 171.847 20.6651 172.278 19.7718C172.709 18.8556 172.924 17.8019 172.924 16.6109C172.924 14.8014 172.448 13.347 171.494 12.2475C170.541 11.1481 169.27 10.5983 167.681 10.5983C166.614 10.5983 165.683 10.8503 164.888 11.3542C164.117 11.8581 163.504 12.5682 163.05 13.4844C162.619 14.3777 162.403 15.4199 162.403 16.6109C162.403 18.4204 162.88 19.8749 163.833 20.9743C164.787 22.0738 166.069 22.6234 167.681 22.6234ZM186.424 25.5439C184.744 25.5439 183.291 25.1659 182.065 24.4101C180.862 23.6313 179.943 22.5662 179.307 21.2148C178.672 19.8634 178.353 18.3288 178.353 16.6109C178.353 14.8931 178.672 13.3584 179.307 12.007C179.943 10.6556 180.874 9.60198 182.099 8.84613C183.325 8.06735 184.779 7.67797 186.458 7.67797C187.616 7.67797 188.694 7.94138 189.693 8.4682C190.692 8.9721 191.453 9.64783 191.975 10.4953V0.703369H195.278V25.269H191.975V22.6922C191.453 23.5396 190.681 24.2268 189.659 24.7536C188.66 25.2804 187.582 25.5439 186.424 25.5439ZM186.969 22.6234C188.014 22.6234 188.932 22.3715 189.727 21.8676C190.521 21.3636 191.135 20.6651 191.566 19.7718C191.997 18.8556 192.213 17.8019 192.213 16.6109C192.213 14.8014 191.736 13.347 190.783 12.2475C189.829 11.1481 188.558 10.5983 186.969 10.5983C185.902 10.5983 184.971 10.8503 184.177 11.3542C183.405 11.8581 182.792 12.5682 182.338 13.4844C181.907 14.3777 181.691 15.4199 181.691 16.6109C181.691 18.4204 182.168 19.8749 183.121 20.9743C184.075 22.0738 185.357 22.6234 186.969 22.6234Z" fill="white" style="fill:white;fill-opacity:1;"/>
<path d="M26.7385 26.7069H24.1648C21.1664 26.7069 18.7357 24.2543 18.7357 21.229V20.0371C18.7357 19.368 17.9535 19.003 17.4361 19.4216C10.9397 24.6783 4.47765 27.1456 2.60902 24.9521C0.615692 22.6124 4.60405 15.8551 11.5173 9.85938C18.4305 3.86359 25.6507 0.899933 27.644 3.23969C29.3318 5.22091 26.731 10.3693 21.6973 15.5407" stroke="white" style="stroke:white;stroke-opacity:1;" stroke-width="3.9943"/>
</g>
<defs>
<clipPath id="clip0_1_254">
<rect width="196" height="29" fill="white" style="fill:white;fill-opacity:1;"/>
</clipPath>
</defs>
</svg>
