<svg width="200" height="29" viewBox="0 0 200 29" fill="none" xmlns="http://www.w3.org/2000/svg">
<g clip-path="url(#clip0_1_257)">
<path d="M64.7046 18.8836C62.956 24.5451 58.1874 28.1072 51.6686 28.1072C43.5206 28.1072 37.9961 22.4071 37.9961 14.0536C37.9961 5.70013 43.5206 0 51.6686 0C58.1858 0 62.956 3.56202 64.6643 9.22356L57.9086 10.1337C56.8352 7.32302 54.6499 5.62144 51.6686 5.62144C47.5751 5.62144 44.7935 9.02608 44.7935 14.0536C44.7935 19.0812 47.5751 22.4858 51.6686 22.4858C54.6485 22.4858 56.8755 20.7842 57.9474 17.9334L64.7031 18.8836H64.7046Z" fill="white" style="fill:white;fill-opacity:1;"/>
<path d="M65.6646 18.0121V17.6943C65.6646 11.479 70.4734 7.60071 76.1962 7.60071C81.9189 7.60071 86.7278 11.4805 86.7278 17.6943V18.0121C86.7278 24.3062 81.9189 28.1058 76.1962 28.1058C70.4734 28.1058 65.6646 24.3062 65.6646 18.0121ZM80.6876 18.0121V17.6943C80.6876 14.5674 78.6201 12.6668 76.1962 12.6668C73.7723 12.6668 71.7048 14.5674 71.7048 17.6943V18.0121C71.7048 21.1791 73.7709 23.0396 76.1962 23.0396C78.6215 23.0396 80.6876 21.1791 80.6876 18.0121Z" fill="white" style="fill:white;fill-opacity:1;"/>
<path d="M88.4795 7.997H94.4422V11.5991C95.7928 9.22344 97.9394 7.56047 101.119 7.60056H101.159V13.3408H101.119C96.9853 13.3808 94.7597 15.2413 94.4422 19.0023V27.7121H88.4795V7.997Z" fill="white" style="fill:white;fill-opacity:1;"/>
<path d="M111.966 28.1058C106.203 28.1058 101.712 24.3062 101.712 18.0121V17.6943C101.712 11.479 106.163 7.60071 111.847 7.60071C117.531 7.60071 121.942 11.4805 121.942 17.6943V19.5548H107.754C108.231 21.8904 109.741 23.1569 112.007 23.1569C113.557 23.1569 114.63 22.5229 115.385 21.2965L121.584 22.168C120.034 25.8103 116.377 28.1058 111.966 28.1058ZM107.713 15.834H115.981C115.544 13.5384 114.113 12.3506 111.847 12.3506C109.581 12.3506 108.15 13.5384 107.713 15.834Z" fill="white" style="fill:white;fill-opacity:1;"/>
<path d="M131.6 23.791C132.992 23.791 134.343 23.2757 134.343 22.0493C134.343 21.2965 133.826 20.6639 132.594 20.465L129.097 19.9111C125.361 19.3172 123.256 17.2192 123.256 14.0522C123.256 10.0937 126.474 7.59924 131.561 7.59924C135.933 7.59924 139.073 9.73735 139.908 13.378L134.104 13.972C133.866 12.9029 132.992 11.9527 131.323 11.9527C130.011 11.9527 129.018 12.5466 129.018 13.5756C129.018 14.3268 129.536 14.8822 130.807 15.0796L134.504 15.6335C138.24 16.1873 140.227 18.2468 140.227 21.4925C140.227 25.6099 136.969 28.1028 131.601 28.1028C126.594 28.1028 123.613 25.7271 122.778 22.0464L128.422 21.4523C128.661 22.6788 129.575 23.7879 131.601 23.7879L131.6 23.791Z" fill="white" style="fill:white;fill-opacity:1;"/>
<path d="M154.07 7.60067C157.25 7.60067 161.027 9.26365 161.027 14.845V27.7107H155.066V16.508C155.066 14.0936 153.992 12.6683 151.806 12.6683C149.502 12.6683 147.952 14.2511 147.952 16.8242V27.7107H141.989V0H147.952V10.9251C149.302 8.74842 151.409 7.60067 154.073 7.60067H154.07Z" fill="white" style="fill:white;fill-opacity:1;"/>
<path d="M173.245 28.1058C167.482 28.1058 162.99 24.3062 162.99 18.0121V17.6943C162.99 11.479 167.442 7.60071 173.125 7.60071C178.807 7.60071 183.219 11.4805 183.219 17.6943V19.5548H169.031C169.508 21.8904 171.018 23.1569 173.284 23.1569C174.834 23.1569 175.908 22.5229 176.662 21.2965L182.862 22.168C181.311 25.8103 177.654 28.1058 173.244 28.1058H173.245ZM168.993 15.834H177.259C176.823 13.5384 175.391 12.3506 173.126 12.3506C170.861 12.3506 169.429 13.5384 168.993 15.834Z" fill="white" style="fill:white;fill-opacity:1;"/>
<path d="M191.298 27.7107H185.336V0H191.298V27.7107Z" fill="white" style="fill:white;fill-opacity:1;"/>
<path d="M200 27.7107H194.038V0H200V27.7107Z" fill="white" style="fill:white;fill-opacity:1;"/>
<path d="M24.7139 27.7107H13.832C6.20421 27.7107 0 21.5311 0 13.9333C0 6.33563 6.27576 0 13.9885 0H30.2832V5.42693H13.9885C9.27948 5.42693 5.44844 9.24286 5.44844 13.9333C5.44844 18.6238 9.20942 22.2824 13.8305 22.2824H24.7125C25.2358 22.2824 25.6621 21.8577 25.6621 21.3365V21.2326C25.6621 20.7114 25.2358 20.2868 24.7125 20.2868H14.0079C10.4795 20.2868 7.60992 17.4285 7.60992 13.9141V13.6913C7.60992 10.1768 10.481 7.31856 14.0079 7.31856H30.4815V12.7455H14.0079C13.4847 12.7455 13.0583 13.1701 13.0583 13.6913V13.9141C13.0583 14.4352 13.4847 14.8598 14.0079 14.8598H24.7125C28.2408 14.8598 31.1104 17.718 31.1104 21.2326V21.3365C31.1104 24.8511 28.2408 27.7093 24.7125 27.7093L24.7139 27.7107Z" fill="white" style="fill:white;fill-opacity:1;"/>
</g>
<defs>
<clipPath id="clip0_1_257">
<rect width="200" height="29" fill="white" style="fill:white;fill-opacity:1;"/>
</clipPath>
</defs>
</svg>
