<svg width="200" height="24" viewBox="0 0 200 24" fill="none" xmlns="http://www.w3.org/2000/svg">
<g clip-path="url(#clip0_1_268)">
<path d="M31.2939 24H54.3965V0H31.2939V24ZM47.7613 7.11403V16.886H37.9359L37.8918 7.13458L47.7613 7.11403Z" fill="#00C58B" style="fill:#00C58B;fill:color(display-p3 0.0000 0.7725 0.5451);fill-opacity:1;"/>
<path d="M89.9096 0H83.519V24H89.9096V0Z" fill="#00C58B" style="fill:#00C58B;fill:color(display-p3 0.0000 0.7725 0.5451);fill-opacity:1;"/>
<path d="M142.186 0H135.795V24H142.186V0Z" fill="#00C58B" style="fill:#00C58B;fill:color(display-p3 0.0000 0.7725 0.5451);fill-opacity:1;"/>
<path d="M148.006 23.9966H154.396V16.8757H164.711V23.9966H171.102V0H147.999L148.006 23.9966ZM154.396 7.13115H164.711V10.409H154.396V7.13115Z" fill="#00C58B" style="fill:#00C58B;fill:color(display-p3 0.0000 0.7725 0.5451);fill-opacity:1;"/>
<path d="M122.212 0H115.822V23.9966H131.657V16.8757H122.212V0Z" fill="#00C58B" style="fill:#00C58B;fill:color(display-p3 0.0000 0.7725 0.5451);fill-opacity:1;"/>
<path d="M102.141 0H95.75V23.9966H111.687V16.8757H102.141V0Z" fill="#00C58B" style="fill:#00C58B;fill:color(display-p3 0.0000 0.7725 0.5451);fill-opacity:1;"/>
<path d="M176.904 0V23.9966H183.291V7.13115H193.609V23.9966H200V0H176.904Z" fill="#00C58B" style="fill:#00C58B;fill:color(display-p3 0.0000 0.7725 0.5451);fill-opacity:1;"/>
<path d="M76.2453 0H60.2095V23.9966H66.6034V7.13115H76.2453V0Z" fill="#00C58B" style="fill:#00C58B;fill:color(display-p3 0.0000 0.7725 0.5451);fill-opacity:1;"/>
<path d="M76.2451 10.4091H69.8545V14.711L73.2247 23.9966H79.6153L76.2451 14.711V10.4091Z" fill="#00C58B" style="fill:#00C58B;fill:color(display-p3 0.0000 0.7725 0.5451);fill-opacity:1;"/>
<path d="M9.90691 16.886L10.8446 7.11403H23.6937L21.8897 0H6.09159L0 23.9966H27.7332L26.0243 16.886H9.90691Z" fill="#00C58B" style="fill:#00C58B;fill:color(display-p3 0.0000 0.7725 0.5451);fill-opacity:1;"/>
</g>
<defs>
<clipPath id="clip0_1_268">
<rect width="200" height="24" fill="white" style="fill:white;fill-opacity:1;"/>
</clipPath>
</defs>
</svg>
