<svg width="199" height="65" viewBox="0 0 199 65" fill="none" xmlns="http://www.w3.org/2000/svg">
<g clip-path="url(#clip0_1_301)">
<path d="M99.8074 26.4477C99.3304 25.9323 99.4298 24.7032 99.4298 24.0689V16.7538H102.888V14.0181H99.4298V8.28892H95.5544V14.0181H93.1896V16.7538H95.5544V24.9609C95.5147 25.9918 95.5544 27.0028 95.7532 28.0139C95.8327 28.3508 96.0115 28.6878 96.2302 28.9456C96.886 29.7187 97.9791 30.2342 100.106 30.2342C101.04 30.2342 101.974 30.135 102.888 29.9764V26.7253C102.371 26.864 101.835 26.9235 101.298 26.9235C100.761 26.9631 100.225 26.7848 99.8074 26.4477ZM79.5563 30.135V23.1371C79.5563 20.3618 79.9139 19.0137 81.0865 18.0424C81.643 17.5666 82.3783 17.289 83.1136 17.3089C84.4253 17.2494 85.5581 18.1613 85.7965 19.4301C85.9555 20.2429 86.0152 21.0754 85.9555 21.908V30.135H89.7713V20.6591C89.7713 19.0137 89.8707 16.9916 88.8372 15.5049C87.8038 14.1965 86.214 13.4629 84.5446 13.5423C82.9944 13.5423 81.4839 14.0974 80.2718 15.0886C80.0133 15.3463 79.7749 15.6238 79.5563 15.9212V14.0181H75.6412V30.135H79.5563ZM43.5454 27.0622C41.6972 27.0424 40.0875 25.853 39.5111 24.0887C39.2726 23.375 39.1732 22.6415 39.1931 21.8882C39.0738 20.2229 39.8092 18.5974 41.1607 17.6063C41.8164 17.2098 42.5915 16.9916 43.3665 16.9916C46.2085 16.9916 47.6592 19.4102 47.7188 21.9278C47.8182 24.4654 46.4868 27.0424 43.5454 27.0424M51.0974 25.6151C51.5346 24.4654 51.7532 23.2362 51.7333 22.0071C51.6936 17.1701 48.6927 15.0093 46.9438 14.2757C45.8309 13.7802 44.6186 13.5423 43.3864 13.5423C40.0875 13.4233 37.0865 15.3661 35.8344 18.3991C35.3774 19.549 35.1191 20.7781 35.1191 22.0071C34.9601 25.3376 36.8282 28.45 39.8688 29.8773C41.0215 30.3927 42.2537 30.6306 43.5255 30.6107C46.8444 30.7098 49.8851 28.7077 51.0775 25.6151M13.139 11.2229C11.6682 13.4431 10.933 16.0401 11.0323 18.6965C11.0323 25.4367 14.5301 28.5293 17.1136 29.7385C18.5644 30.3927 20.1146 30.7098 21.7044 30.7098C24.8842 30.7892 27.9049 29.3421 29.8526 26.8442C30.568 25.9125 31.1443 24.8817 31.5616 23.7913L27.5274 22.1063C27.4081 22.4829 27.269 22.8596 27.1101 23.2362C26.8516 23.7318 26.5536 24.1878 26.1958 24.6239C25.222 25.9521 23.652 26.7253 22.0025 26.6857C20.8101 26.6857 19.6575 26.3288 18.6836 25.6547C18.0279 25.2186 17.4714 24.6437 17.0341 23.9698C16.1001 22.3243 15.643 20.4807 15.6827 18.5974C15.6827 14.3352 17.6303 12.1546 19.2997 11.322C20.1146 10.9057 21.0287 10.7075 21.9429 10.7075C23.7514 10.6282 25.4407 11.5599 26.3349 13.126C26.6331 13.6811 26.8318 14.2956 26.9113 14.93L31.1443 13.8396C30.7866 12.6304 30.2501 11.4806 29.5544 10.4299C28.521 8.98277 26.2355 6.82194 21.8633 6.82194C18.3855 6.72282 15.1064 8.38804 13.139 11.2427M66.3007 20.8376C66.3007 22.0865 66.3404 23.8309 65.6846 25.06C65.0486 26.1901 63.8561 26.8839 62.5446 26.864C61.8887 26.864 61.2527 26.7055 60.6764 26.3883C59.325 25.6151 59.3847 24.0292 59.3847 22.7208V14.0181H55.4696V23.2957C55.4696 25.0402 55.3702 26.864 56.4036 28.3904C57.0594 29.3619 58.3711 30.5117 61.0541 30.5117C62.9818 30.5513 64.8697 29.8179 66.2609 28.4896L66.3007 30.135H70.1759V14.0181H66.3007V20.8376ZM110.42 20.0049C110.619 18.6569 111.493 17.4872 112.745 16.9124C113.262 16.7142 113.798 16.6151 114.355 16.6151C115.786 16.5357 117.097 17.3683 117.654 18.6767C117.813 19.1128 117.912 19.549 117.972 20.0049H110.42ZM111.334 25.298C110.758 24.6041 110.4 23.7516 110.301 22.8397H122.245C122.145 19.7075 121.41 17.745 120.655 16.6151C119.204 14.5731 116.799 13.4035 114.295 13.5225C111.115 13.3638 108.174 15.1877 106.902 18.1018C106.405 19.331 106.167 20.6393 106.187 21.9675C106.048 24.3861 106.982 26.7451 108.711 28.45C110.301 29.8773 112.367 30.6504 114.494 30.6107C116.859 30.6306 119.144 29.7781 120.893 28.1923C121.45 27.6768 121.946 27.1218 122.384 26.5072L119.085 24.6041C118.926 24.8618 118.747 25.1195 118.528 25.3376C117.554 26.3288 116.223 26.864 114.852 26.8244C113.5 26.9235 112.189 26.3288 111.334 25.2782M131.008 14.0181H127.252V29.9764L131.008 26.4081V23.2362C130.969 22.3441 131.049 21.4521 131.307 20.5996C132.241 17.6261 135.341 17.6261 136.156 17.6261V13.6612H135.838C134.447 13.6414 133.075 14.0974 132.002 14.9895C131.605 15.3661 131.288 15.8221 131.029 16.3177V14.0379L131.008 14.0181ZM121.703 52.1794C120.511 52.1794 119.359 51.8225 118.385 51.1486C117.729 50.7124 117.172 50.1376 116.735 49.4635C115.801 47.8181 115.344 45.9744 115.384 44.0912C115.384 43.0207 115.523 41.9501 115.821 40.8995L110.833 45.6573C111.31 51.3666 114.45 54.1023 116.835 55.2323C118.285 55.8865 119.836 56.2037 121.425 56.2037C124.605 56.283 127.625 54.8358 129.574 52.3379C130.289 51.4062 130.866 50.3754 131.283 49.2851L127.249 47.6C127.129 47.9767 126.99 48.3534 126.832 48.73C126.573 49.2057 126.274 49.6815 125.936 50.1176C124.963 51.4459 123.392 52.219 121.744 52.1794M124.446 32.6527L120.65 36.2607C120.968 36.2012 121.286 36.1814 121.624 36.1814C123.433 36.102 125.122 37.0339 126.016 38.5999C126.314 39.155 126.513 39.7696 126.592 40.4039L130.825 39.3136C130.468 38.1043 129.932 36.9545 129.235 35.9038C128.063 34.2982 126.374 33.1483 124.446 32.6527ZM138.874 55.6288V48.73C138.835 47.8379 138.914 46.9458 139.173 46.0935C140.107 43.1198 143.207 43.1198 144.022 43.1198V39.155H143.703C142.312 39.1352 140.941 39.5911 139.868 40.4832C139.471 40.8599 139.152 41.3158 138.894 41.8114V39.5316H135.138V55.6486H138.874V55.6288ZM157.357 47.6V49.3644C157.417 49.8798 157.336 50.3754 157.138 50.8512C156.78 51.5847 155.528 52.6948 153.382 52.6948C151.235 52.6948 150.739 51.7631 150.739 50.7917C150.739 50.1376 151.096 49.523 151.673 49.1859C152.488 48.8092 153.382 48.5714 154.296 48.512C155.369 48.3732 156.403 48.0758 157.357 47.6199M154.455 39.0361C151.653 39.0361 150.123 39.6902 149.129 40.5228C148.036 41.4347 147.38 42.8026 147.38 44.2299L151.316 44.448C151.275 43.9326 151.434 43.437 151.733 43.0405C152.15 42.4855 153.084 42.0493 154.574 42.0493C156.064 42.0493 156.8 42.5251 157.118 43.1396C157.297 43.5559 157.357 44.0119 157.336 44.4678C155.886 44.9436 154.396 45.3203 152.885 45.5581C151.434 45.7168 150.063 46.1925 148.811 46.9458C147.421 47.8181 146.605 49.3446 146.625 50.9701C146.605 51.882 146.844 52.7741 147.34 53.5472C148.832 55.9261 151.733 56.0252 152.507 56.0252C153.64 56.0252 154.753 55.7675 155.767 55.2918C156.303 55.0737 156.8 54.7764 157.257 54.3799L157.357 55.6288H161.947C161.391 54.8755 161.133 53.9437 161.233 53.0318V44.448C161.312 43.4767 161.152 42.4855 160.814 41.5736C160.536 41.0582 160.139 40.6219 159.662 40.285C158.668 39.5713 157.118 39.0361 154.455 39.0361ZM171.01 55.6288V42.2475H174.528V39.5118H171.01V38.5801C171.01 37.5493 170.95 36.2012 173.295 36.2012C173.713 36.2012 174.111 36.2409 174.528 36.3003V33.0096C173.792 32.9105 173.057 32.8509 172.322 32.8509C168.863 32.8509 167.532 33.9215 167.214 35.7849C167.135 36.3994 167.095 37.0339 167.114 37.6484V39.5118H164.69V42.2475H167.114V55.6288H171.01ZM186.273 55.7477C187.207 55.7477 188.141 55.6486 189.055 55.49V52.2388C188.539 52.3776 188.002 52.437 187.466 52.437C186.929 52.4768 186.393 52.2983 185.974 51.9614C185.497 51.4459 185.597 50.2168 185.597 49.5824V42.2674H189.055V39.5316H185.597V33.8026H181.722V39.5316H179.357V42.2674H181.722V50.4745C181.682 51.5053 181.722 52.5164 181.921 53.5274C182 53.8645 182.179 54.2014 182.397 54.4592C183.053 55.2323 184.146 55.7477 186.273 55.7477Z" fill="#00C58B" style="fill:#00C58B;fill:color(display-p3 0.0000 0.7725 0.5451);fill-opacity:1;"/>
<path d="M187.705 64.8864H198.398V47.4017C198.398 46.5493 197.701 45.8554 196.848 45.8554H192.237L189.355 49.3246H193.886C194.223 49.3246 194.522 49.6021 194.522 49.9589V61.6551H187.944V59.3159H183.889V63.2808C183.889 64.153 184.605 64.8864 185.499 64.8864H187.726H187.705ZM10.8926 0.240479H0.200684V17.7253C0.200684 18.5777 0.896263 19.2716 1.75082 19.2716H6.36148L9.24314 15.8023H4.71197C4.37413 15.8023 4.07602 15.5248 4.07602 15.168V3.47179H10.6542V5.81103H14.7084V1.84623C14.7084 0.973968 13.9929 0.240479 13.0986 0.240479H10.8728H10.8926Z" fill="#00C58B" style="fill:#00C58B;fill:color(display-p3 0.0000 0.7725 0.5451);fill-opacity:1;"/>
</g>
<defs>
<clipPath id="clip0_1_301">
<rect width="199" height="65" fill="white" style="fill:white;fill-opacity:1;"/>
</clipPath>
</defs>
</svg>
