<svg width="201" height="24" viewBox="0 0 201 24" fill="none" xmlns="http://www.w3.org/2000/svg">
<g clip-path="url(#clip0_1_279)">
<path d="M49.9781 13.7778C49.9192 14.4296 49.8308 15.1111 49.7129 15.763C49.595 16.4148 49.4477 17.0667 49.2414 17.7185C49.0646 18.3111 48.8288 18.9037 48.5636 19.4667C48.2395 20.2074 47.768 20.8593 47.1786 21.4222C46.5893 21.9556 45.941 22.4 45.2337 22.7556C44.7033 23.0222 44.1434 23.2296 43.5541 23.3778C42.9647 23.5259 42.4048 23.6148 41.786 23.6741C41.1966 23.7333 40.6072 23.763 39.9884 23.763H28.2012V0H38.2203C39.1928 0 40.1652 0.0592593 41.1671 0.148148C42.1396 0.237037 43.112 0.444444 44.0255 0.77037C44.9391 1.0963 45.7642 1.54074 46.5303 2.13333C47.2965 2.72593 47.9153 3.4963 48.4163 4.44444C48.9467 5.51111 49.3593 6.72593 49.6245 8.11852C49.8602 9.39259 50.0076 10.6667 50.0076 11.9704C50.0665 12.5037 50.037 13.1259 49.9781 13.7778ZM44.2024 8.97778C43.9961 7.94074 43.6719 7.05185 43.2004 6.28148C42.6405 5.36296 41.9038 4.8 41.0493 4.53333C40.1358 4.26667 39.1928 4.14815 38.2498 4.14815H33.2402V19.5852H38.2498C38.8981 19.5852 39.5169 19.5259 40.1358 19.4074C40.843 19.2889 41.4323 19.0815 41.9333 18.8444C42.4637 18.5481 42.8763 18.1333 43.2004 17.5704C43.5246 17.0074 43.7898 16.3852 43.9666 15.7333C44.1434 15.0815 44.2908 14.4 44.3792 13.7185C44.4676 13.1259 44.497 12.5037 44.497 11.9111C44.497 10.9037 44.3792 9.92593 44.2024 8.97778ZM58.7891 23.7333C58.1408 23.7333 57.4925 23.7333 56.8442 23.7037C56.1959 23.7037 55.577 23.6148 54.9582 23.437C53.8679 23.1407 53.0428 22.5481 52.4829 21.6C51.923 20.7111 51.6283 19.6444 51.6283 18.5778C51.6283 17.7185 51.8051 16.8889 52.1293 16.1185C52.4534 15.3185 52.9838 14.637 53.6911 14.1037C54.0152 13.8667 54.3983 13.6593 54.7814 13.5704C55.2234 13.4519 55.6654 13.3333 56.1075 13.2741C56.5789 13.2148 57.021 13.1852 57.463 13.1556C57.905 13.1556 58.3176 13.1259 58.7007 13.1259H64.5353V12.8296C64.5353 12.2074 64.4469 11.7037 64.2996 11.3481C64.1523 10.9926 63.887 10.6963 63.5629 10.4889C63.2093 10.2815 62.8262 10.1333 62.4136 10.1037C61.9127 10.0444 61.4117 10.0148 60.9402 10.0148H52.9249V6.37037H60.9402C61.2644 6.37037 61.5885 6.37037 61.9127 6.4C62.2368 6.4 62.561 6.42963 62.8851 6.42963C64.3585 6.48889 65.5962 6.78519 66.6276 7.34815C67.659 7.91111 68.4251 8.94815 68.8966 10.4593C69.0734 11.0222 69.1913 11.6148 69.2208 12.2074C69.2502 12.7704 69.2797 13.363 69.2797 13.9852V23.7333H58.7891ZM64.5648 16.8889H58.2586C57.7577 16.8889 57.3451 17.0074 56.9915 17.2741C56.6379 17.5407 56.4611 17.9259 56.4905 18.4889C56.4905 18.8741 56.579 19.1407 56.7263 19.3481C56.8736 19.5556 57.0799 19.7037 57.3157 19.7926C57.5809 19.8815 57.8755 19.9407 58.1408 19.9704C58.4354 20 58.7596 20 59.0248 20H64.5353C64.5648 20 64.5648 16.8889 64.5648 16.8889ZM79.7703 23.763C78.5916 23.763 77.5308 23.5556 76.5878 23.1407C75.6448 22.7259 74.967 21.9259 74.4956 20.7407C74.3187 20.1778 74.2009 19.6148 74.1419 19.0222C74.083 18.4296 74.083 17.837 74.083 17.2444V10.1037H71.0773V6.37037H74.083V0H78.7979V6.37037H83.1886V10.0741H78.7979V16.3852C78.7979 16.7704 78.7979 17.2444 78.8274 17.8074C78.8274 18.3704 78.9747 18.8444 79.2104 19.1704C79.4167 19.4667 79.7114 19.6741 80.0356 19.7926C80.3892 19.9111 80.7428 20 81.0964 20.0296C81.4795 20.0593 81.8626 20.0593 82.2162 20.0593C82.5993 20.0296 82.9234 20.0296 83.2181 20.0296V23.7333L79.7703 23.763ZM91.7049 23.7333C91.0566 23.7333 90.4083 23.7333 89.76 23.7037C89.1117 23.7037 88.4929 23.6148 87.8741 23.437C86.7838 23.1407 85.9586 22.5481 85.3987 21.6C84.8389 20.7111 84.5442 19.6444 84.5442 18.5778C84.5442 17.7481 84.721 16.8889 85.0746 16.1185C85.3988 15.3185 85.9292 14.637 86.6069 14.1333C86.9311 13.8963 87.3142 13.6889 87.6973 13.6C88.1393 13.4519 88.5813 13.363 89.0233 13.3037C89.4948 13.2444 89.9368 13.2148 90.3789 13.1852C90.8209 13.1852 91.2334 13.1852 91.6165 13.1556H97.4512V12.8593C97.4512 12.237 97.3628 11.763 97.2155 11.3778C97.0681 11.0222 96.8029 10.7259 96.4788 10.5185C96.1251 10.3111 95.7421 10.163 95.3295 10.1333C94.8285 10.0741 94.3276 10.0444 93.8266 10.0444H85.8113V6.4H93.8266C94.1508 6.4 94.4749 6.4 94.7991 6.42963C95.1232 6.42963 95.4474 6.45926 95.7715 6.45926C97.2449 6.51852 98.4826 6.81481 99.514 7.37778C100.545 7.94074 101.312 8.97778 101.783 10.4889C101.96 11.0519 102.078 11.6444 102.107 12.237C102.137 12.8 102.166 13.3926 102.166 14.0148V23.763C102.196 23.7333 91.7049 23.7333 91.7049 23.7333ZM97.4807 16.8889H91.1745C90.6735 16.8889 90.261 17.0074 89.9074 17.2741C89.5538 17.5407 89.4064 17.9259 89.4064 18.4889C89.4064 18.8741 89.4948 19.1704 89.6422 19.3481C89.7895 19.5556 89.9958 19.7037 90.2315 19.7926C90.4967 19.8815 90.7914 19.9407 91.0566 19.9704C91.3513 20 91.6755 20 91.9407 20H97.4512C97.4807 20 97.4807 16.8889 97.4807 16.8889Z" fill="white" style="fill:white;fill-opacity:1;"/>
<path d="M121.762 23.763C121.585 23.2296 121.468 22.6667 121.409 22.1037C121.35 21.5407 121.291 20.9778 121.232 20.3852C121.114 19.2889 120.908 18.3704 120.642 17.6593C120.377 16.9481 119.994 16.3556 119.493 15.9407C118.992 15.5259 118.373 15.2 117.607 15.0222C116.841 14.8444 115.928 14.7556 114.837 14.7556H110.8V23.763H105.791V0H117.342C118.226 0 119.11 0.0296296 120.024 0.0888889C120.908 0.148148 121.762 0.296296 122.617 0.533333C124.002 0.948148 125.092 1.68889 125.888 2.81481C126.654 3.94074 127.067 5.21481 127.067 6.63704C127.067 8.26667 126.713 9.71852 126.035 10.9333C125.357 12.1481 124.179 13.037 122.558 13.5407C123.088 13.7185 123.53 13.9259 123.884 14.1037C124.238 14.2815 124.562 14.4889 124.856 14.7556C125.151 15.0222 125.387 15.3185 125.593 15.6444C125.829 16.0593 126.035 16.5037 126.241 16.9481C126.566 17.7185 126.742 18.5481 126.801 19.3778C126.831 20.2074 126.89 21.037 127.008 21.8667C127.096 22.5185 127.214 23.1704 127.42 23.7926H121.762V23.763ZM121.202 5.65926C121.026 5.27407 120.79 4.97778 120.436 4.74074C120.083 4.5037 119.699 4.35556 119.287 4.2963C118.815 4.20741 118.314 4.14815 117.843 4.17778H110.8V10.6074H117.843C118.992 10.6074 119.906 10.3704 120.525 9.8963C121.173 9.42222 121.468 8.53333 121.468 7.25926C121.497 6.60741 121.409 6.07407 121.202 5.65926ZM146.339 19.0222C145.897 20.0593 145.248 20.9778 144.423 21.7481C143.569 22.4889 142.596 23.0815 141.506 23.4074C140.386 23.7926 139.148 23.9704 137.822 23.9704C134.934 23.9704 132.724 23.1704 131.133 21.6C129.542 20.0296 128.746 17.7778 128.776 14.8741C128.776 13.5111 129.011 12.2963 129.453 11.2C129.895 10.1037 130.514 9.18519 131.339 8.44444C132.164 7.67407 133.166 7.08148 134.227 6.72593C135.406 6.31111 136.644 6.1037 137.881 6.13333C140.769 6.13333 143.009 6.93333 144.629 8.53333C146.25 10.1333 147.046 12.3852 147.046 15.3185C147.016 16.7111 146.781 17.9556 146.339 19.0222ZM141.918 13.0074C141.801 12.4148 141.565 11.8519 141.211 11.3481C140.858 10.8741 140.416 10.4889 139.885 10.2519C139.325 9.98518 138.677 9.83704 137.852 9.83704C136.997 9.83704 136.319 9.98518 135.76 10.2519C135.229 10.5185 134.787 10.9037 134.463 11.4074C134.139 11.8815 133.933 12.4444 133.785 13.0963C133.638 13.7778 133.579 14.4889 133.579 15.2C133.579 15.8815 133.638 16.563 133.815 17.2148C133.962 17.8074 134.198 18.3407 134.551 18.8148C134.905 19.2889 135.347 19.6444 135.877 19.8815C136.437 20.1481 137.115 20.2667 137.911 20.2667C138.706 20.2667 139.384 20.1185 139.915 19.8519C140.445 19.5852 140.887 19.2 141.211 18.7259C141.535 18.2519 141.771 17.6889 141.889 17.0667C142.007 16.4148 142.095 15.7333 142.095 15.0519C142.154 14.3704 142.066 13.6889 141.918 13.0074ZM166.347 19.2C165.758 20.5333 164.786 21.6296 163.46 22.4889C162.487 23.1111 161.515 23.4667 160.542 23.5852C159.511 23.7037 158.45 23.763 157.389 23.763H149.669V0H154.383V6.37037H158.597C161.308 6.37037 163.43 7.08148 164.962 8.53333C166.495 9.98519 167.232 12.0593 167.261 14.8148C167.232 16.4148 166.937 17.8667 166.347 19.2ZM161.426 11.3778C160.69 10.5185 159.54 10.1037 157.949 10.1037H154.413V20.0593H157.949C159.481 20.0593 160.631 19.5852 161.397 18.6074C162.163 17.6593 162.546 16.4444 162.546 14.9926C162.517 13.4519 162.134 12.237 161.426 11.3778ZM186.297 19.0222C185.855 20.0593 185.207 20.9778 184.382 21.7481C183.557 22.4889 182.614 23.0519 181.494 23.437C180.374 23.8222 179.137 24 177.781 24C174.893 24 172.683 23.2 171.092 21.6296C169.501 20.0593 168.734 17.8074 168.734 14.9037C168.734 13.5407 168.941 12.3259 169.412 11.2296C169.854 10.1333 170.473 9.21481 171.298 8.47407C172.123 7.7037 173.125 7.11111 174.186 6.75556C175.306 6.34074 176.514 6.16296 177.84 6.16296C180.728 6.16296 182.967 6.96296 184.588 8.56296C186.209 10.163 187.005 12.4148 187.005 15.3481C187.005 16.7111 186.769 17.9556 186.297 19.0222ZM181.907 13.0074C181.789 12.4148 181.553 11.8519 181.199 11.3481C180.875 10.8741 180.404 10.4889 179.873 10.2519C179.313 9.98518 178.636 9.83704 177.84 9.83704C176.985 9.83704 176.308 9.98518 175.748 10.2519C175.217 10.5185 174.775 10.9037 174.451 11.4074C174.127 11.9111 173.891 12.5037 173.773 13.0963C173.656 13.7778 173.567 14.4889 173.597 15.2C173.597 15.8815 173.656 16.563 173.832 17.2148C173.98 17.8074 174.215 18.3407 174.569 18.8444C174.923 19.3185 175.365 19.6741 175.895 19.9111C176.455 20.1778 177.103 20.2963 177.928 20.2963C178.724 20.2963 179.402 20.1481 179.932 19.8815C180.463 19.6148 180.905 19.2296 181.229 18.7556C181.582 18.2519 181.818 17.6889 181.907 17.0963C182.025 16.4444 182.083 15.763 182.083 15.0815C182.142 14.3704 182.054 13.6889 181.907 13.0074ZM196.582 23.763C195.403 23.763 194.342 23.5556 193.399 23.1407C192.456 22.7259 191.778 21.9259 191.307 20.7407C191.13 20.1778 191.012 19.6148 190.953 19.0222C190.894 18.4296 190.894 17.837 190.894 17.2444V10.1037H187.889V6.37037H190.894V0H195.609V6.37037H200V10.0741H195.609V16.3852C195.609 16.7704 195.609 17.2444 195.639 17.8074C195.639 18.3704 195.786 18.8148 196.022 19.1704C196.228 19.4667 196.523 19.6741 196.847 19.7926C197.201 19.9111 197.554 20 197.908 20.0296C198.291 20.0593 198.674 20.0593 199.028 20.0593C199.411 20.0296 199.735 20.0296 200.03 20.0296V23.7333L196.582 23.763Z" fill="white" style="fill:white;fill-opacity:1;"/>
<path d="M13.85 6.37042C13.3196 6.37042 12.8776 7.02227 12.8776 7.8519C12.8776 8.68153 13.3196 9.33338 13.85 9.33338C14.3804 9.33338 14.8519 8.68153 14.8519 7.8519C14.8225 7.02227 14.3804 6.37042 13.85 6.37042ZM7.07234 6.37042C6.54192 6.37042 6.0999 7.02227 6.0999 7.8519C6.0999 8.68153 6.54192 9.33338 7.07234 9.33338C7.60277 9.33338 8.04479 8.68153 8.04479 7.8519C8.07426 7.02227 7.63224 6.37042 7.07234 6.37042ZM20.1856 4.53338H20.0972V2.7556C20.0972 1.33338 18.948 0.177823 17.5041 0.148193H3.35936C1.94489 0.148193 0.795639 1.30375 0.766171 2.7556V4.53338H0.677766C0.324149 4.62227 0 4.97782 0 5.39264V8.29634C0 8.71116 0.324149 9.09634 0.736702 9.1556H0.825107V12.0593C0.825107 13.4815 1.97436 14.6371 3.4183 14.6667H7.45543V15.3482H7.07234L5.80522 15.8519V16.0593H5.33373V16.5926C4.33181 16.6519 3.56564 17.4815 3.56564 18.4593V19.0223H3.35936L2.77 19.6149V21.2741L3.35936 21.8667H4.62649L4.8917 21.6V20.7408H5.39266V19.3482C5.39266 19.1408 5.21585 18.963 5.00958 18.963H4.77383V18.4C4.77383 18.0741 5.00958 17.8075 5.33373 17.7482V18.4297H5.89362V20.4445L6.54192 21.2149V22.2519C6.04096 22.2519 5.48107 22.3112 4.74436 22.9334V24H10.1665V21.9852H10.8148V24H16.2369V22.963C15.5002 22.3408 14.9403 22.2815 14.4394 22.2815V21.2445L15.1171 20.4741V18.4593H15.6476V17.7778C15.9717 17.8075 16.2369 18.1037 16.2369 18.4297V18.9926H16.0012C15.7949 18.9926 15.6181 19.1704 15.6181 19.3778V20.7704H16.119V21.6297L16.3843 21.8963H17.6514L18.2408 21.3037V19.6445L17.6514 19.0519H17.4746V18.4889C17.4746 17.4815 16.6789 16.6519 15.7065 16.6223V16.1186H15.235V15.9408L13.9679 15.4371H13.5553V14.7556H17.5335C18.948 14.7556 20.0972 13.6 20.1267 12.1482V9.18523H20.2151C20.6277 9.09634 20.9223 8.74079 20.9518 8.32597V5.42227C20.9223 4.97782 20.5982 4.62227 20.1856 4.53338ZM19.4489 11.4963C19.4489 12.6519 18.5354 13.5704 17.3862 13.5704H3.53617C2.38692 13.5704 1.4734 12.6223 1.4734 11.4963V3.20005C1.4734 2.04449 2.38692 1.12597 3.53617 1.12597H17.3862C18.5354 1.12597 19.4489 2.04449 19.4489 3.20005V11.4963Z" fill="white" style="fill:white;fill-opacity:1;"/>
</g>
<defs>
<clipPath id="clip0_1_279">
<rect width="201" height="24" fill="white" style="fill:white;fill-opacity:1;"/>
</clipPath>
</defs>
</svg>
