<svg width="200" height="61" viewBox="0 0 200 61" fill="none" xmlns="http://www.w3.org/2000/svg">
<g clip-path="url(#clip0_1_306)">
<mask id="mask0_1_306" style="mask-type:luminance" maskUnits="userSpaceOnUse" x="0" y="0" width="200" height="61">
<path d="M200 0.752319H0V60.3851H200V0.752319Z" fill="white" style="fill:white;fill-opacity:1;"/>
</mask>
<g mask="url(#mask0_1_306)">
<path d="M27.0041 41.5769L25.9527 42.9125H21.6509V41.5769H27.0041Z" fill="white" style="fill:white;fill-opacity:1;"/>
<path d="M30.1407 37.6053L29.0893 38.9409H21.6509V37.6053H30.1407Z" fill="white" style="fill:white;fill-opacity:1;"/>
<path d="M31.4822 33.6246H21.6431V34.9603H31.4822V33.6246Z" fill="white" style="fill:white;fill-opacity:1;"/>
<path d="M18.5329 26.0941H8.81641V27.4297H18.5329V26.0941Z" fill="white" style="fill:white;fill-opacity:1;"/>
<path d="M18.5314 22.1224V23.458H10.3481L10.8738 22.7902L11.4082 22.1224H18.5314Z" fill="white" style="fill:white;fill-opacity:1;"/>
<path d="M18.5314 18.1506V19.4863H13.4849L14.5362 18.1506H18.5314Z" fill="white" style="fill:white;fill-opacity:1;"/>
<path d="M34.0556 30.0747H6.43066V31.4103H34.0556V30.0747Z" fill="white" style="fill:white;fill-opacity:1;"/>
<path d="M2.23438 38.5368C2.24314 38.5455 2.2519 38.5544 2.2519 38.5544C2.51475 38.9849 2.80387 39.4067 3.11929 39.8109L3.5486 40.3733L3.89029 40.8126L18.8111 60.3024V46.1727L9.22604 34.0202C8.57769 33.203 8.02571 32.3331 7.57011 31.4104C7.45622 31.1907 7.35107 30.971 7.2547 30.7426C7.15832 30.5229 7.06195 30.3033 6.97433 30.0747C6.87796 29.8287 6.79034 29.5827 6.70272 29.3366C6.61512 29.0818 6.53626 28.8182 6.46616 28.5546C6.35227 28.704 6.23838 28.8534 6.11571 29.0027C6.06314 29.0731 6.01058 29.1433 5.958 29.2048C5.79154 29.4157 5.62506 29.6266 5.46736 29.8376C5.55498 30.0923 5.64259 30.3384 5.73897 30.5844C5.83534 30.8217 5.93172 31.0589 6.03685 31.2962C6.59759 32.5527 7.31604 33.7566 8.18342 34.8549L17.4793 46.6473V50.2851L6.74653 36.6739L6.08942 35.8391C5.73021 35.391 5.44107 34.978 5.22204 34.6001C4.88034 34.0026 4.72263 33.4754 4.72263 33.0097H3.39089C3.39089 34.1168 3.91658 35.2855 5.05557 36.6827L17.4706 52.438V56.3746L4.17066 39.0025C3.90781 38.6597 3.65373 38.2995 3.42593 37.9305C3.17186 37.5262 2.9353 37.1133 2.73378 36.6827C2.54978 36.3137 2.38332 35.9358 2.23438 35.5403" fill="white" style="fill:white;fill-opacity:1;"/>
<path d="M3.1201 21.2437C0.149958 25.1187 -0.769998 30.4262 0.658124 35.1009C1.02611 36.2959 1.51675 37.5086 2.23519 38.5366C2.24395 38.5455 2.24395 38.5542 2.25272 38.5542L3.54942 40.382L3.89111 40.8653L3.88235 40.8213L3.66331 39.4417L3.44427 38.0709C3.43551 38.027 3.42675 37.9831 3.42675 37.9391C3.28657 36.8847 3.4618 35.8742 3.86482 34.8813C3.96997 34.6089 4.10138 34.3365 4.24157 34.0552C4.32042 33.9059 4.39928 33.7564 4.48689 33.5983C4.56574 33.4665 4.6446 33.3259 4.73221 33.1854C5.11771 32.5615 5.55579 31.9376 6.03767 31.296C6.1691 31.1203 6.30052 30.9446 6.43193 30.7688C6.4407 30.7601 6.44946 30.7512 6.44946 30.7425C6.46698 30.725 6.47574 30.7074 6.49327 30.6897C6.65097 30.4877 6.80869 30.2855 6.96639 30.0747C7.03648 29.9869 7.09781 29.9078 7.1679 29.8198C7.76368 29.0553 8.36823 28.2733 8.97277 27.4385C9.12171 27.2277 9.27065 27.0168 9.41961 26.7971L9.44589 26.762L9.97157 26.0941L12.0481 23.458L12.5738 22.7901L13.0994 22.1224L15.1847 19.4862L16.236 18.1505L18.8032 14.8905V0.752075L3.1201 21.2437ZM17.4714 14.4248L14.5363 18.1505L13.485 19.4862L11.4085 22.1224L10.8828 22.7901L10.3571 23.458L8.36823 25.9886L8.34194 26.0239C7.72863 26.9113 7.09781 27.7461 6.46698 28.5545C6.35309 28.7039 6.23918 28.8533 6.11653 29.0027C6.06396 29.0729 6.01138 29.1433 5.95882 29.2048C5.79235 29.4157 5.62588 29.6265 5.46818 29.8374C3.98749 31.7706 2.71708 33.572 2.24395 35.5403C2.15634 35.3118 2.07748 35.0833 1.99863 34.8549C1.98111 34.5561 1.98111 34.2749 1.98111 34.0025C2.04244 31.3224 3.11134 29.7759 4.63584 27.544C4.69716 27.4561 4.74973 27.3683 4.81107 27.2892C4.99506 27.0255 5.17028 26.762 5.36303 26.4807C5.45065 26.3489 5.53827 26.2172 5.62588 26.0765C5.72226 25.9448 5.82739 25.7953 5.95006 25.6371C6.96639 24.2576 8.6924 21.9554 10.5674 19.495C10.7339 19.2754 10.909 19.0557 11.0756 18.8272C11.242 18.6075 11.4173 18.379 11.5837 18.1594C12.4336 17.0346 13.301 15.901 14.107 14.829L14.1158 14.8203C15.4475 13.0717 16.6478 11.5075 17.4801 10.4179V14.4248H17.4714ZM5.72226 20.0398L6.57212 18.9326L17.4714 4.6887V8.20354C16.7355 9.17013 13.1783 13.8185 9.89273 18.1505C9.72625 18.379 9.55102 18.5987 9.38456 18.8184C9.21809 19.0468 9.04285 19.2665 8.87639 19.4862C7.7812 20.936 6.74735 22.2981 5.92377 23.414C5.66969 23.7568 5.43313 24.0731 5.22285 24.3542C4.97753 24.6882 4.75849 24.9781 4.58327 25.233C4.56574 25.2505 4.54822 25.2769 4.53946 25.2945L4.52193 25.3209C4.18024 25.8393 3.85606 26.3225 3.54065 26.7795C2.63822 28.0975 1.84093 29.2575 1.31524 30.6107C1.31524 30.5931 1.31524 30.5755 1.31524 30.5492V30.5052C1.31524 30.4173 1.31524 30.3383 1.31524 30.2504C1.36781 27.2979 2.38413 24.3982 4.18024 22.052L5.72226 20.0398Z" fill="white" style="fill:white;fill-opacity:1;"/>
<path d="M38.2628 22.5265C38.254 22.5178 38.2452 22.5089 38.2452 22.5089C37.9823 22.0784 37.6932 21.6566 37.3778 21.2525L36.9485 20.6901L36.6068 20.2507L21.6948 0.752075V14.8817L31.2798 27.0431C31.9282 27.8603 32.4801 28.7302 32.9358 29.6529C33.0496 29.8726 33.1548 30.0923 33.2512 30.3207C33.3475 30.5404 33.4439 30.76 33.5315 30.9886C33.6279 31.2346 33.7156 31.4806 33.8032 31.7267C33.8908 31.9815 33.9696 32.2451 34.0397 32.5087C34.1537 32.3593 34.2675 32.2099 34.3902 32.0606C34.4428 31.9902 34.4954 31.92 34.5478 31.8585C34.7143 31.6476 34.8809 31.4367 35.0385 31.2258C34.9509 30.971 34.8633 30.7249 34.7669 30.4789C34.6705 30.2416 34.5742 30.0044 34.469 29.7671C33.9083 28.5106 33.1898 27.3067 32.3224 26.2084L23.0266 14.416V10.7782L33.7506 24.3894L34.4077 25.2242C34.7669 25.6723 35.0561 26.0853 35.275 26.4632C35.6167 27.0607 35.7745 27.5879 35.7745 28.0536H37.1063C37.1063 26.9465 36.5805 25.7778 35.4416 24.3806L23.0266 8.62533V4.6887L36.3265 22.0608C36.5893 22.4036 36.8434 22.7638 37.0712 23.1328C37.3253 23.5371 37.5618 23.95 37.7633 24.3806C37.9473 24.7496 38.1138 25.1275 38.2628 25.523" fill="white" style="fill:white;fill-opacity:1;"/>
<path d="M37.3866 39.8106C40.3479 35.9355 41.2679 30.6369 39.8398 25.9621C39.4719 24.7671 38.9812 23.5544 38.2628 22.5264C38.254 22.5175 38.254 22.5088 38.2452 22.5088L36.9485 20.6811L36.6068 20.1978L36.6156 20.2417L36.8346 21.6213L37.0537 22.9921C37.0624 23.036 37.0712 23.08 37.0712 23.1239C37.2113 24.1783 37.0361 25.1888 36.6331 26.1819C36.5279 26.4543 36.3965 26.7266 36.2564 27.0078C36.1775 27.1572 36.0986 27.3066 36.011 27.4647C35.9322 27.5965 35.8533 27.7371 35.7657 27.8778C35.3802 28.5016 34.9421 29.1255 34.4602 29.767C34.3288 29.9427 34.1975 30.1185 34.066 30.2942C34.0573 30.3029 34.0485 30.3118 34.0485 30.3205C34.0309 30.3382 34.0222 30.3557 34.0047 30.3733C33.847 30.5753 33.6892 30.7775 33.5315 30.9883C33.4615 31.0763 33.4001 31.1554 33.3301 31.2432C32.7343 32.0077 32.1297 32.7897 31.5252 33.6245C31.3762 33.8354 31.2273 34.0462 31.0783 34.2659L31.0521 34.3011L30.5264 34.9689L28.4499 37.6051L27.9242 38.2729L27.3985 38.9407L25.3132 41.5768L24.2619 42.9125L21.6948 46.1725V60.3022C21.6948 60.3109 37.3866 39.8106 37.3866 39.8106ZM23.0266 46.6382L25.9616 42.9125L27.013 41.5768L29.0894 38.9407L29.6151 38.2729L30.1409 37.6051L32.1297 35.0744L32.156 35.0393C32.7693 34.1517 33.4001 33.317 34.0309 32.5085C34.1449 32.3592 34.2587 32.2098 34.3814 32.0604C34.434 31.9901 34.4866 31.9197 34.5392 31.8583C34.7056 31.6473 34.8721 31.4365 35.0297 31.2256C36.5105 29.2924 37.7809 27.491 38.254 25.5227C38.3416 25.7513 38.4204 25.9797 38.4993 26.2081C38.5168 26.5069 38.5168 26.7881 38.5168 27.0606C38.4555 29.7406 37.3866 31.2871 35.8621 33.519C35.8008 33.6069 35.7482 33.6947 35.6869 33.7738C35.5029 34.0375 35.3276 34.3011 35.1349 34.5823C35.0473 34.7141 34.9597 34.8459 34.8721 34.9865C34.7757 35.1184 34.6706 35.2677 34.5478 35.4259C33.5315 36.8054 31.8055 39.1076 29.9306 41.5681C29.7641 41.7878 29.5889 42.0074 29.4224 42.2359C29.256 42.4555 29.0808 42.684 28.9143 42.9037C28.0643 44.0285 27.197 45.162 26.3909 46.234L26.3822 46.2428C25.0505 47.9915 23.8501 49.5556 23.0178 50.6452V46.6382H23.0266ZM34.7757 41.0144L33.9258 42.1217L23.0266 56.3743V52.8595C23.7624 51.8929 27.3197 47.2445 30.6052 42.9125C30.7717 42.684 30.9469 42.4643 31.1133 42.2446C31.2798 42.0162 31.455 41.7965 31.6216 41.5768C32.7167 40.127 33.7506 38.765 34.5742 37.649C34.8283 37.3063 35.0648 36.99 35.275 36.7088C35.5204 36.3748 35.7395 36.0849 35.9147 35.8301C35.9322 35.8125 35.9497 35.7861 35.9585 35.7685L35.976 35.7422C36.3177 35.2237 36.6419 34.7405 36.9573 34.2835C37.8509 32.9742 38.6483 31.8055 39.1827 30.4524C39.1827 30.4699 39.1827 30.4875 39.1827 30.5139V30.5578C39.1827 30.6457 39.1827 30.7248 39.1827 30.8126C39.1302 33.7651 38.1138 36.6648 36.3177 39.011L34.7757 41.0144Z" fill="white" style="fill:white;fill-opacity:1;"/>
<path d="M51.5366 14.0128H58.1002C63.6288 14.0128 67.3146 17.2402 67.3146 22.0884C67.3146 26.9365 63.6288 30.1639 58.1002 30.1639H51.5366V14.0128ZM58.1002 26.5669C60.7937 26.5669 62.5798 24.8039 62.5798 22.0742C62.5798 19.3444 60.8078 17.5814 58.1002 17.5814H56.1156V26.5526H58.1002V26.5669Z" fill="white" style="fill:white;fill-opacity:1;"/>
<path d="M74.0335 14.0128H81.0081L86.0406 30.1497H81.1641L80.3986 27.6901H74.6147L73.8492 30.1497H68.9727L74.0335 14.0128ZM79.4771 24.3063L77.6342 18.0364H77.4074L75.5645 24.3063H79.4771Z" fill="white" style="fill:white;fill-opacity:1;"/>
<path d="M91.0312 24.6475L85.4316 14.0128H90.3507L93.271 20.5103H93.4978L96.2338 14.0128H101.224L95.7801 24.6475V30.1497H91.0312V24.6475Z" fill="white" style="fill:white;fill-opacity:1;"/>
<path d="M104.412 14.0131H109.161V19.9561H114.661V13.9989H119.41V30.1357H114.661V23.6668H109.161V30.1357H104.412V14.0131Z" fill="white" style="fill:white;fill-opacity:1;"/>
<path d="M123.013 22.0745C123.013 16.9277 126.655 13.6862 132.042 13.6862C137.415 13.6862 141.058 16.9277 141.058 22.0745C141.058 27.2212 137.415 30.477 132.042 30.477C126.655 30.4912 123.013 27.2212 123.013 22.0745ZM136.324 22.0745C136.324 19.3731 134.594 17.5675 132.056 17.5675C129.519 17.5675 127.761 19.3731 127.761 22.0745C127.761 24.8042 129.519 26.5815 132.056 26.5815C134.594 26.5957 136.324 24.8042 136.324 22.0745Z" fill="white" style="fill:white;fill-opacity:1;"/>
<path d="M144.715 14.0128H157.035V18.0648H149.465V20.7661H156V24.3348H149.465V30.1497H144.715V14.0128Z" fill="white" style="fill:white;fill-opacity:1;"/>
<path d="M160.508 14.0128H172.827V18.0648H165.257V20.7661H171.792V24.3348H165.257V30.1497H160.508V14.0128Z" fill="white" style="fill:white;fill-opacity:1;"/>
<path d="M54.5562 40.5855H51.5366V38.7515H59.7729V40.5855H56.7534V48.2345H54.542V40.5855H54.5562Z" fill="white" style="fill:white;fill-opacity:1;"/>
<path d="M63.7144 38.7379H70.689V40.5293H65.8691V42.6193H70.3346V44.1832H65.8691V46.4438H70.8307V48.2352H63.7144V38.7379Z" fill="white" style="fill:white;fill-opacity:1;"/>
<path d="M74.6704 43.4862C74.6704 40.5432 76.7826 38.4817 79.7171 38.4817C82.0845 38.4817 84.0408 39.9745 84.3952 42.1071L82.3396 42.3488C82.0703 41.1687 80.9928 40.3299 79.7596 40.3299C78.0585 40.3299 76.8818 41.6095 76.8818 43.472C76.8818 45.3345 78.0726 46.6282 79.7596 46.6282C80.9646 46.6282 82.0419 45.8037 82.3396 44.6521L84.4094 44.9364C84.0833 47.0121 82.127 48.4765 79.7171 48.4765C76.7968 48.4907 74.6704 46.4293 74.6704 43.4862Z" fill="white" style="fill:white;fill-opacity:1;"/>
<path d="M88.7764 38.7379H90.9878V42.4202H94.9288V38.7379H97.1402V48.2352H94.9288V44.2116H90.9878V48.2352H88.7764V38.7379Z" fill="white" style="fill:white;fill-opacity:1;"/>
<path d="M102.005 38.738H104.557L108.143 45.3634H108.271V38.738H110.368V48.2353H107.817L104.231 41.6242H104.103V48.2353H102.005V38.738Z" fill="white" style="fill:white;fill-opacity:1;"/>
<path d="M114.733 43.4862C114.733 40.4863 116.874 38.4817 119.964 38.4817C123.055 38.4817 125.195 40.4863 125.195 43.4862C125.195 46.5004 123.055 48.4907 119.964 48.4907C116.874 48.4907 114.733 46.5004 114.733 43.4862ZM123.012 43.4862C123.012 41.6237 121.764 40.3442 119.979 40.3442C118.193 40.3442 116.945 41.6237 116.945 43.4862C116.945 45.3487 118.193 46.6425 119.979 46.6425C121.764 46.6425 123.012 45.3487 123.012 43.4862Z" fill="white" style="fill:white;fill-opacity:1;"/>
<path d="M129.588 38.738H131.8V46.3444H136.124V48.2353H129.603V38.738H129.588Z" fill="white" style="fill:white;fill-opacity:1;"/>
<path d="M139.585 43.4862C139.585 40.4863 141.726 38.4817 144.816 38.4817C147.907 38.4817 150.047 40.4863 150.047 43.4862C150.047 46.5004 147.907 48.4907 144.816 48.4907C141.726 48.4907 139.585 46.5004 139.585 43.4862ZM147.85 43.4862C147.85 41.6237 146.602 40.3442 144.816 40.3442C143.03 40.3442 141.783 41.6237 141.783 43.4862C141.783 45.3487 143.03 46.6425 144.816 46.6425C146.602 46.6425 147.85 45.3487 147.85 43.4862Z" fill="white" style="fill:white;fill-opacity:1;"/>
<path d="M153.958 43.4862C153.958 40.5432 156.154 38.4817 159.188 38.4817C161.329 38.4817 163.171 39.6901 163.654 41.3678L161.626 41.8228C161.329 40.9556 160.294 40.33 159.174 40.33C157.416 40.33 156.154 41.6237 156.154 43.472C156.154 45.3061 157.444 46.6567 159.245 46.6567C160.762 46.6567 161.981 45.6331 162.052 44.2967H158.295V42.8465H164.179C164.49 46.1592 162.378 48.5192 159.174 48.5192C156.154 48.5192 153.958 46.4293 153.958 43.4862Z" fill="white" style="fill:white;fill-opacity:1;"/>
<path d="M168.502 38.738H170.714V48.2353H168.502V38.738Z" fill="white" style="fill:white;fill-opacity:1;"/>
<path d="M175.564 38.738H182.539V40.5294H177.718V42.6194H182.184V44.1833H177.718V46.4439H182.68V48.2353H175.564V38.738Z" fill="white" style="fill:white;fill-opacity:1;"/>
<path d="M186.663 45.1212H188.761C188.775 46.1591 189.555 46.8131 190.944 46.8131C192.092 46.8131 192.758 46.3581 192.758 45.6046C192.758 44.6947 191.794 44.5098 190.66 44.3392C189.001 44.0975 186.747 43.799 186.747 41.51C186.747 39.6901 188.25 38.4958 190.674 38.4958C193.127 38.4958 194.686 39.8039 194.686 41.7943H192.659C192.673 40.7706 191.922 40.1878 190.731 40.1878C189.611 40.1878 188.959 40.6569 188.959 41.3678C188.959 42.2919 190.022 42.4483 191.213 42.6189C192.872 42.8748 194.956 43.2303 194.956 45.4909C194.956 47.325 193.367 48.5192 190.858 48.5192C188.307 48.4908 186.676 47.1401 186.663 45.1212Z" fill="white" style="fill:white;fill-opacity:1;"/>
</g>
</g>
<defs>
<clipPath id="clip0_1_306">
<rect width="200" height="61" fill="white" style="fill:white;fill-opacity:1;"/>
</clipPath>
</defs>
</svg>
