<svg width="200" height="28" viewBox="0 0 200 28" fill="none" xmlns="http://www.w3.org/2000/svg">
<g clip-path="url(#clip0_1_284)">
<path d="M37.7583 6.95496H43.1009C47.6025 6.95496 50.7125 9.99553 50.7125 13.9584V13.9882C50.7125 17.9511 47.6025 21.0303 43.1009 21.0303H37.7583V6.95496ZM43.1009 18.79C46.108 18.79 48.0745 16.7967 48.0745 14.0298V13.9882C48.0745 11.2303 46.108 9.1982 43.1009 9.1982H40.2783V18.7781L43.1009 18.79Z" fill="white" style="fill:white;fill-opacity:1;"/>
<path d="M53.7017 6.95496H64.3234V9.16845H56.2186V12.8309H63.4007V15.0473H56.2186V18.8287H64.4383V21.0422H53.7017V6.95496Z" fill="white" style="fill:white;fill-opacity:1;"/>
<path d="M66.4473 14.0387V13.9881C66.4473 9.98359 69.4968 6.70203 73.835 6.70203C76.4761 6.70203 78.0704 7.60944 79.4438 8.89469L77.8253 10.7274C76.6788 9.68013 75.4535 8.97502 73.8138 8.97502C71.0729 8.97502 69.0884 11.1885 69.0884 13.9465V13.9881C69.0884 16.7461 71.0729 18.9982 73.8138 18.9982C75.5745 18.9982 76.7 18.2961 77.9282 17.1685L79.5437 18.7781C78.0522 20.3073 76.4125 21.2742 73.7321 21.2742C69.5573 21.2861 66.4473 18.0849 66.4473 14.0387Z" fill="white" style="fill:white;fill-opacity:1;"/>
<path d="M82.0757 6.95496H84.5928V21.0422H82.0757V6.95496Z" fill="white" style="fill:white;fill-opacity:1;"/>
<path d="M87.3486 18.9892L88.8614 17.2041C90.2318 18.3704 91.6052 19.0368 93.3841 19.0368C94.9391 19.0368 95.9223 18.3317 95.9223 17.2666V17.225C95.9223 16.2194 95.3475 15.6749 92.6883 15.071C89.6388 14.345 87.9204 13.4614 87.9204 10.8641V10.8255C87.9204 8.40969 89.9655 6.74064 92.8124 6.74064C94.709 6.70399 96.5563 7.33733 98.0188 8.52572L96.6665 10.397C95.3777 9.45098 94.0889 8.94819 92.779 8.94819C91.3057 8.94819 90.4465 9.69197 90.4465 10.6172V10.6588C90.4465 11.7448 91.1 12.2267 93.844 12.8723C96.8692 13.5983 98.4484 14.6574 98.4484 16.9988V17.0375C98.4484 19.6735 96.3307 21.2444 93.3327 21.2444C91.121 21.2578 88.9849 20.4528 87.3486 18.9892Z" fill="white" style="fill:white;fill-opacity:1;"/>
<path d="M101.477 6.95496H103.994V21.0422H101.477V6.95496Z" fill="white" style="fill:white;fill-opacity:1;"/>
<path d="M107.043 14.0387V13.9881C107.043 10.0223 110.154 6.70203 114.553 6.70203C118.951 6.70203 122.021 9.97467 122.021 13.9465V13.9881C122.021 17.951 118.911 21.2742 114.513 21.2742C110.114 21.2742 107.043 18.0045 107.043 14.0387ZM119.384 14.0387V13.9881C119.384 11.251 117.357 8.97502 114.513 8.97502C111.669 8.97502 109.673 11.2093 109.673 13.9465V13.9881C109.673 16.7252 111.699 18.9982 114.543 18.9982C117.387 18.9982 119.384 16.7758 119.384 14.0387Z" fill="white" style="fill:white;fill-opacity:1;"/>
<path d="M125.053 6.95496H127.386L135.058 16.6956V6.95496H137.536V21.0422H135.417L127.527 11.0131V21.0422H125.053V6.95496Z" fill="white" style="fill:white;fill-opacity:1;"/>
<path d="M147.353 6.95496H149.873V18.7901H157.402V21.0422H147.353V6.95496Z" fill="white" style="fill:white;fill-opacity:1;"/>
<path d="M159.734 6.95496H170.357V9.16845H162.264V12.8309H169.449V15.0473H162.264V18.8287H170.472V21.0422H159.734V6.95496Z" fill="white" style="fill:white;fill-opacity:1;"/>
<path d="M173.503 6.95496H175.835L183.507 16.6956V6.95496H185.985V21.0422H183.868L175.978 11.0131V21.0422H173.503V6.95496Z" fill="white" style="fill:white;fill-opacity:1;"/>
<path d="M188.66 18.9893L190.172 17.2042C191.543 18.3705 192.913 19.0369 194.71 19.0369C196.265 19.0369 197.249 18.3318 197.249 17.2667V17.225C197.249 16.2194 196.674 15.675 194.014 15.071C190.965 14.3451 189.247 13.4615 189.247 10.8642V10.8255C189.247 8.40974 191.291 6.74069 194.135 6.74069C196.027 6.70208 197.872 7.3299 199.335 8.5109L197.983 10.3823C196.694 9.43616 195.406 8.93336 194.096 8.93336C192.622 8.93336 191.764 9.67714 191.764 10.6024V10.6441C191.764 11.73 192.417 12.212 195.161 12.8576C198.186 13.5835 199.765 14.6426 199.765 16.9841V17.0227C199.765 19.6587 197.648 21.2296 194.65 21.2296C192.437 21.2474 190.3 20.4478 188.66 18.9893Z" fill="white" style="fill:white;fill-opacity:1;"/>
<path d="M28.3045 13.0271C28.3045 7.46663 23.0133 0.513752 15.1265 0.00500488C15.1265 2.47436 15.1265 5.53279 15.1265 7.08284C15.1265 9.76045 17.8492 13.0123 21.5219 13.0331C23.449 13.0331 25.4306 13.0331 28.3015 13.0331" fill="white" style="fill:white;fill-opacity:1;"/>
<path d="M28.3045 14.9729C28.3045 20.5334 23.0133 27.4863 15.1265 27.995C15.1265 25.5227 15.1265 22.4642 15.1265 20.9172C15.1265 18.2396 17.8492 14.9848 21.5219 14.9669C23.449 14.9669 25.4306 14.9669 28.3015 14.9669" fill="white" style="fill:white;fill-opacity:1;"/>
<path d="M0 13.0271C0 7.46663 5.29121 0.513752 13.175 0.00500488C13.175 2.47436 13.175 5.53279 13.175 7.08284C13.175 9.76045 10.4523 13.0123 6.77965 13.0331C4.85255 13.0331 2.87099 13.0331 0 13.0331" fill="white" style="fill:white;fill-opacity:1;"/>
<path d="M0 14.9729C0 20.5334 5.29121 27.4863 13.175 27.995C13.175 25.5227 13.175 22.4642 13.175 20.9172C13.175 18.2396 10.4523 14.9848 6.77965 14.9669C4.85255 14.9669 2.87099 14.9669 0 14.9669" fill="white" style="fill:white;fill-opacity:1;"/>
</g>
<defs>
<clipPath id="clip0_1_284">
<rect width="200" height="28" fill="white" style="fill:white;fill-opacity:1;"/>
</clipPath>
</defs>
</svg>
