<svg width="199" height="40" viewBox="0 0 199 40" fill="none" xmlns="http://www.w3.org/2000/svg">
<g clip-path="url(#clip0_1_304)">
<path fill-rule="evenodd" clip-rule="evenodd" d="M22.7788 5.31008C25.6 8.16409 27.1172 11.9365 27.0577 15.9312V15.9263C26.9338 23.9698 20.1458 30.5123 11.9298 30.5123H0.386752C0.168585 30.5123 0.0595003 30.2507 0.213209 30.0926L5.83103 24.4685C5.92523 24.3746 6.0492 24.3203 6.18308 24.3203H12.0389C16.7494 24.3203 20.6962 20.5677 20.8351 15.9608C20.9045 13.6105 20.0368 11.3884 18.3906 9.69974C16.7443 8.01103 14.5379 7.08272 12.1827 7.08272H6.22274V16.6718C6.22274 16.7558 6.15828 16.8199 6.07398 16.8199H0.148751C0.0644586 16.8199 0 16.7558 0 16.6718V1.03398C0 0.95005 0.0644586 0.885864 0.148751 0.885864H12.1827C16.194 0.885864 19.9574 2.45606 22.7788 5.31008ZM39.6966 8.83128C32.4375 8.83128 29.1254 14.3715 29.1254 19.7832L29.1205 19.7881C29.1205 25.1603 32.8591 30.824 40.1182 30.824C45.3145 30.824 49.3506 27.9404 50.2728 23.4371C50.2926 23.3433 50.2183 23.2544 50.124 23.2544H44.6451C44.5806 23.2544 44.526 23.2988 44.5063 23.3631C44.0054 25.1109 42.4485 26.0047 40.1182 26.0047C37.148 26.0047 35.2391 24.1432 34.8126 21.141H50.0448C50.124 21.141 50.1885 21.0867 50.1935 21.0077C50.2331 20.5534 50.2678 19.9658 50.2678 19.235C50.2678 14.3715 46.9557 8.83128 39.6966 8.83128ZM39.6966 13.1419C42.5428 13.1419 44.1988 15.0429 44.3674 17.4131H34.8969C35.4077 14.4504 37.0242 13.1419 39.6966 13.1419ZM52.8557 19.7832C52.8557 14.3715 56.1678 8.83128 63.4269 8.83128C70.686 8.83128 73.9982 14.3715 73.9982 19.235C73.9982 19.9658 73.9634 20.5534 73.9238 21.0077C73.9188 21.0867 73.8543 21.141 73.7751 21.141H58.5429C58.9694 24.1432 60.8783 26.0047 63.8485 26.0047C66.1788 26.0047 67.7357 25.1109 68.2366 23.3631C68.2563 23.2988 68.3109 23.2544 68.3754 23.2544H73.8543C73.9486 23.2544 74.0229 23.3433 74.0031 23.4371C73.0809 27.9404 69.0448 30.824 63.8485 30.824C56.5894 30.824 52.8508 25.1603 52.8508 19.7881L52.8557 19.7832ZM68.0977 17.4131C67.9291 15.0429 66.2731 13.1419 63.4269 13.1419C60.7543 13.1419 59.138 14.4504 58.6272 17.4131H68.0977ZM83.0382 9.17198H77.4351V9.16209C77.3509 9.16209 77.2865 9.22629 77.2865 9.31024V38.9514C77.2865 39.0354 77.3509 39.0997 77.4351 39.0997H83.0382C83.1223 39.0997 83.1868 39.0354 83.1868 38.9514V28.5724C84.3322 30.0093 86.4148 30.814 88.8345 30.814C94.9928 30.814 99.1528 26.459 99.1528 19.8226C99.1528 13.1864 95.3298 8.83128 89.3005 8.83128C86.5388 8.83128 84.4611 9.84844 83.1868 11.4977V9.3201C83.1868 9.23617 83.1223 9.17198 83.0382 9.17198ZM93.292 19.8277C93.292 23.3778 91.2145 25.748 88.0708 25.748C84.9322 25.748 82.8497 23.4174 82.8497 19.8277C82.8497 16.2378 84.9322 13.8678 88.0708 13.8678C91.2095 13.8678 93.292 16.2774 93.292 19.8277ZM107.78 34.6406C107.874 34.5468 107.998 34.4974 108.132 34.4974H114.151C115.976 34.4974 117.25 33.0605 117.25 31.115V28.3253C116.144 29.8905 113.893 30.8188 111.389 30.8188C105.062 30.8188 101.284 26.4636 101.284 19.8274C101.284 13.1911 105.062 8.83597 111.305 8.83597C113.938 8.83597 116.016 9.8087 117.25 11.29V9.3248C117.25 9.24086 117.315 9.17666 117.399 9.17666H123.002C123.086 9.17666 123.151 9.24086 123.151 9.3248V31.757C123.151 36.1565 119.967 39.1141 115.128 39.1141H103.907C103.684 39.1141 103.575 38.8476 103.734 38.6944L107.78 34.6504V34.6406ZM112.326 25.7428C115.554 25.7428 117.592 23.4171 117.592 19.8225C117.592 16.2277 115.554 13.8626 112.326 13.8626C109.099 13.8626 107.105 16.2326 107.105 19.8225C107.105 23.4122 109.188 25.7428 112.326 25.7428ZM133.4 30.3293V20.1181H133.405C133.405 16.479 134.719 14.0694 137.649 14.0694H141.026C141.11 14.0694 141.175 14.0052 141.175 13.9213V9.31435C141.175 9.2304 141.11 9.1662 141.026 9.1662H138.795C136.162 9.1662 134.545 10.0501 133.4 12.7164V9.31435C133.4 9.2304 133.336 9.1662 133.251 9.1662H127.648C127.564 9.1662 127.5 9.2304 127.5 9.31435V30.3293C127.5 30.4134 127.564 30.4774 127.648 30.4774H133.251C133.336 30.4774 133.4 30.4134 133.4 30.3293ZM143.064 24.434C143.064 20.2467 146.207 17.7088 150.918 17.7088H154.483C155.545 17.7088 156.094 17.0324 156.094 16.1435C156.094 14.366 154.735 13.1414 152.316 13.1414C149.896 13.1414 148.439 14.6671 148.329 16.3855C148.329 16.4645 148.265 16.5238 148.186 16.5238H143.222C143.133 16.5238 143.064 16.4498 143.069 16.3608C143.361 12.1637 146.827 8.82582 152.614 8.82582C158.048 8.82582 161.995 11.9563 161.995 16.7756V30.3247C161.995 30.4088 161.931 30.4728 161.846 30.4728H156.243C156.158 30.4728 156.094 30.4088 156.094 30.3247V27.5152C155.371 29.5001 152.995 30.8136 150.065 30.8136C145.944 30.8136 143.059 28.0632 143.059 24.4291L143.064 24.434ZM151.597 26.5474C154.443 26.5474 156.098 24.434 156.098 21.7281V21.4319H151.81C149.986 21.4319 148.751 22.5329 148.751 24.1822C148.751 25.5795 149.941 26.5523 151.597 26.5523V26.5474ZM171.346 9.17198H165.743L165.752 9.16705C165.669 9.16705 165.605 9.23125 165.605 9.31518V30.3302C165.605 30.4141 165.669 30.4784 165.752 30.4784H171.355C171.44 30.4784 171.505 30.4141 171.505 30.3302V18.3857C171.505 15.6355 173.071 13.8184 175.535 13.8184C177.826 13.8184 179.314 15.6355 179.314 18.3857V30.3302C179.314 30.4141 179.378 30.4784 179.463 30.4784H185.066C185.149 30.4784 185.214 30.4141 185.214 30.3302V18.3857C185.214 15.6355 186.782 13.8184 189.246 13.8184C191.537 13.8184 193.023 15.6355 193.023 18.3857V30.3302C193.023 30.4141 193.088 30.4784 193.172 30.4784H198.775C198.86 30.4784 198.925 30.4141 198.925 30.3302V16.5243C198.925 12.2581 195.909 8.83128 191.283 8.83128C187.848 8.83128 185.169 10.6484 184.109 12.7222C183.088 10.1842 180.92 8.83128 177.569 8.83128C174.678 8.83128 172.64 10.2286 171.495 12.1741V9.3201C171.495 9.23617 171.431 9.17198 171.346 9.17198Z" fill="white" style="fill:white;fill-opacity:1;"/>
</g>
<defs>
<clipPath id="clip0_1_304">
<rect width="199" height="40" fill="white" style="fill:white;fill-opacity:1;"/>
</clipPath>
</defs>
</svg>
