<svg width="200" height="53" viewBox="0 0 200 53" fill="none" xmlns="http://www.w3.org/2000/svg">
<g clip-path="url(#clip0_1_364)">
<path d="M27.5761 23.5009L34.4025 39.5958H19.1313L27.5761 23.5009Z" fill="#0A6148" style="fill:#0A6148;fill:color(display-p3 0.0392 0.3823 0.2813);fill-opacity:1;"/>
<path d="M26.1929 0.232788L14.1449 15.4425L7.58643 8.32896L26.1929 0.232788Z" fill="#0A6148" style="fill:#0A6148;fill:color(display-p3 0.0392 0.3823 0.2813);fill-opacity:1;"/>
<path d="M14.1447 15.4426L7.58627 8.32898L0.226807 27.0793L14.1447 15.4426Z" fill="#00C58B" style="fill:#00C58B;fill:color(display-p3 0.0000 0.7725 0.5451);fill-opacity:1;"/>
<path d="M8.41462 45.4912L14.8501 27.6856L0.226807 27.0792L8.41462 45.4912Z" fill="#00C58B" style="fill:#00C58B;fill:color(display-p3 0.0000 0.7725 0.5451);fill-opacity:1;"/>
<path d="M27.3411 52.7889L19.1314 39.593L8.41479 45.4912L27.3411 52.7889Z" fill="#00C58B" style="fill:#00C58B;fill:color(display-p3 0.0000 0.7725 0.5451);fill-opacity:1;"/>
<path d="M14.8502 27.6855L19.1314 39.5957L8.41479 45.4885L14.8502 27.6855Z" fill="#00C58B" fill-opacity="0.772549" style="fill:#00C58B;fill:color(display-p3 0.0000 0.7725 0.5451);fill-opacity:0.772549;"/>
<path d="M27.5761 23.5009L19.1313 39.5958L14.8501 27.6856L27.5761 23.5009Z" fill="#00B295" style="fill:#00B295;fill:color(display-p3 0.0000 0.6980 0.5843);fill-opacity:1;"/>
<path d="M14.1448 15.4425L14.8501 27.6856L27.5761 23.5008L14.1448 15.4425Z" fill="#0A6148" style="fill:#0A6148;fill:color(display-p3 0.0392 0.3823 0.2813);fill-opacity:1;"/>
<path d="M0.226807 27.0792L14.8501 27.6856L14.142 15.4425L0.226807 27.0792Z" fill="#00B295" style="fill:#00B295;fill:color(display-p3 0.0000 0.6980 0.5843);fill-opacity:1;"/>
<path d="M26.1929 0.232788L34.4026 13.4043L24.5471 11.339L26.1929 0.232788Z" fill="#00C58B" fill-opacity="0.772549" style="fill:#00C58B;fill:color(display-p3 0.0000 0.7725 0.5451);fill-opacity:0.772549;"/>
<path d="M27.5762 23.5008L24.5471 11.339L34.4026 13.4043L27.5762 23.5008Z" fill="#0A6148" style="fill:#0A6148;fill:color(display-p3 0.0392 0.3823 0.2813);fill-opacity:1;"/>
<path d="M14.1448 15.4425L24.547 11.339L26.1928 0.232788L14.1448 15.4425Z" fill="#00B295" style="fill:#00B295;fill:color(display-p3 0.0000 0.6980 0.5843);fill-opacity:1;"/>
<path d="M27.5761 23.5008L24.547 11.339L14.1448 15.4426L27.5761 23.5008Z" fill="#00C58B" fill-opacity="0.772549" style="fill:#00C58B;fill:color(display-p3 0.0000 0.7725 0.5451);fill-opacity:0.772549;"/>
<path d="M26.1929 0.232788L45.1192 7.50879L34.4026 13.4043L26.1929 0.232788Z" fill="#00C58B" style="fill:#00C58B;fill:color(display-p3 0.0000 0.7725 0.5451);fill-opacity:1;"/>
<path d="M27.341 52.7889L34.4025 39.593H19.1313L27.341 52.7889Z" fill="#00B295" style="fill:#00B295;fill:color(display-p3 0.0000 0.6980 0.5843);fill-opacity:1;"/>
<path d="M34.4025 13.4043L43.9436 27.0576L27.5762 23.5008L34.4025 13.4043Z" fill="#00B295" style="fill:#00B295;fill:color(display-p3 0.0000 0.6980 0.5843);fill-opacity:1;"/>
<path d="M45.1192 7.50879L43.9436 27.0549L34.4026 13.4043L45.1192 7.50879Z" fill="#0A6148" style="fill:#0A6148;fill:color(display-p3 0.0392 0.3823 0.2813);fill-opacity:1;"/>
<path d="M53.3042 25.9424L45.1192 7.50879L43.9436 27.0576L53.3042 25.9424Z" fill="#00C58B" style="fill:#00C58B;fill:color(display-p3 0.0000 0.7725 0.5451);fill-opacity:1;"/>
<path d="M27.3411 52.7889L45.9448 44.6873L34.4025 39.593L27.3411 52.7889Z" fill="#00C58B" fill-opacity="0.772549" style="fill:#00C58B;fill:color(display-p3 0.0000 0.7725 0.5451);fill-opacity:0.772549;"/>
<path d="M43.9436 27.0576L53.3042 25.9424L45.9448 44.6873L43.9436 27.0576Z" fill="#0A6148" style="fill:#0A6148;fill:color(display-p3 0.0392 0.3823 0.2813);fill-opacity:1;"/>
<path d="M27.5762 23.5009L38.6181 32.3631L43.9463 27.0576L27.5762 23.5009Z" fill="#0A6148" style="fill:#0A6148;fill:color(display-p3 0.0392 0.3823 0.2813);fill-opacity:1;"/>
<path d="M45.9448 44.6873L38.6182 32.363L43.9464 27.0576L45.9448 44.6873Z" fill="#00B295" style="fill:#00B295;fill:color(display-p3 0.0000 0.6980 0.5843);fill-opacity:1;"/>
<path d="M34.4026 39.5957L38.6182 32.363L45.9475 44.6873L34.4026 39.5957Z" fill="#0A6148" style="fill:#0A6148;fill:color(display-p3 0.0392 0.3823 0.2813);fill-opacity:1;"/>
<path d="M27.5762 23.5009L38.6181 32.3631L34.4025 39.5958L27.5762 23.5009Z" fill="#00C58B" style="fill:#00C58B;fill:color(display-p3 0.0000 0.7725 0.5451);fill-opacity:1;"/>
<path d="M26.2037 0.221992C26.2037 0.230099 26.1981 0.232802 26.1928 0.232802C26.1846 0.232802 26.1819 0.23003 26.1819 0.221992C26.1819 0.216448 26.1847 0.211182 26.1928 0.211182C26.1984 0.211182 26.2037 0.216725 26.2037 0.221992Z" fill="#00C58B" style="fill:#00C58B;fill:color(display-p3 0.0000 0.7725 0.5451);fill-opacity:1;"/>
<path d="M26.1927 0.446615H25.9767L25.9658 0.221946V0.0108101L26.1927 0H26.406L26.4196 0.22196V0.435798L26.1927 0.446615Z" fill="black" style="fill:black;fill-opacity:1;"/>
<path d="M7.60285 8.31275C7.60845 8.3183 7.60845 8.32356 7.60285 8.32897C7.59725 8.33451 7.59193 8.33451 7.58647 8.32897C7.58088 8.32342 7.58088 8.31816 7.58647 8.31275C7.59207 8.30721 7.59739 8.30721 7.60285 8.31275Z" fill="#00C58B" style="fill:#00C58B;fill:color(display-p3 0.0000 0.7725 0.5451);fill-opacity:1;"/>
<path d="M7.59461 8.54554H7.50713L7.28296 8.32899L7.4962 8.10161L7.68483 8.09607L7.90627 8.31262L7.69303 8.54L7.59461 8.54554Z" fill="black" style="fill:black;fill-opacity:1;"/>
<path d="M0.226982 27.0576C0.232581 27.0576 0.2379 27.0604 0.2379 27.0684C0.2379 27.074 0.232301 27.0792 0.226982 27.0792C0.221383 27.0792 0.216064 27.0737 0.216064 27.0684C0.216064 27.0603 0.221663 27.0576 0.226982 27.0576Z" fill="#00C58B" style="fill:#00C58B;fill:color(display-p3 0.0000 0.7725 0.5451);fill-opacity:1;"/>
<path d="M0.226888 27.2904H0.0136473L0 27.0684V26.8546L0.226909 26.8438H0.442878L0.453796 27.0684V27.2796L0.226888 27.2904Z" fill="black" style="fill:black;fill-opacity:1;"/>
<path d="M8.39824 45.475C8.40104 45.4694 8.40916 45.4694 8.41462 45.475C8.42022 45.4778 8.42022 45.4858 8.41462 45.4912C8.40902 45.494 8.40097 45.494 8.39824 45.4912C8.39264 45.4857 8.39264 45.4777 8.39824 45.475Z" fill="#00C58B" style="fill:#00C58B;fill:color(display-p3 0.0000 0.7725 0.5451);fill-opacity:1;"/>
<path d="M8.40638 45.705H8.31616L8.09473 45.4912L8.30796 45.2611L8.49386 45.2583L8.71804 45.4748L8.50207 45.7022L8.40638 45.705Z" fill="black" style="fill:black;fill-opacity:1;"/>
<path d="M27.3274 52.778C27.3274 52.7699 27.333 52.7645 27.341 52.7645C27.3466 52.7645 27.352 52.7701 27.352 52.778C27.352 52.7836 27.3464 52.7889 27.341 52.7889C27.3329 52.7889 27.3274 52.7833 27.3274 52.778Z" fill="#00C58B" style="fill:#00C58B;fill:color(display-p3 0.0000 0.7725 0.5451);fill-opacity:1;"/>
<path d="M27.3409 53H27.1249L27.114 52.778V52.5642L27.3409 52.5533H27.5542L27.5651 52.778V52.9891L27.3409 53Z" fill="black" style="fill:black;fill-opacity:1;"/>
<path d="M45.931 44.6872C45.9254 44.6817 45.9254 44.6737 45.931 44.671C45.9338 44.6655 45.9419 44.6655 45.9446 44.671C45.9502 44.6738 45.9502 44.6818 45.9446 44.6872C45.9418 44.69 45.9337 44.69 45.931 44.6872Z" fill="#00C58B" style="fill:#00C58B;fill:color(display-p3 0.0000 0.7725 0.5451);fill-opacity:1;"/>
<path d="M45.9393 44.9039H45.8491L45.6277 44.6873L45.8409 44.4572L46.0268 44.4545L46.2483 44.671L46.035 44.8984L45.9393 44.9039Z" fill="black" style="fill:black;fill-opacity:1;"/>
<path d="M53.3041 25.9424C53.2985 25.9424 53.2932 25.9369 53.2932 25.9316C53.2932 25.926 53.2988 25.9208 53.3041 25.9208C53.3123 25.9208 53.315 25.9263 53.315 25.9316C53.315 25.9371 53.3123 25.9424 53.3041 25.9424Z" fill="#00C58B" style="fill:#00C58B;fill:color(display-p3 0.0000 0.7725 0.5451);fill-opacity:1;"/>
<path d="M53.3043 26.1562H53.091L53.0801 25.9316V25.7177L53.3043 25.7069H53.5202L53.5311 25.9316V26.1454L53.3043 26.1562Z" fill="black" style="fill:black;fill-opacity:1;"/>
<path d="M45.1356 7.52501C45.13 7.53056 45.1219 7.53056 45.1192 7.52501C45.1136 7.52224 45.1136 7.5142 45.1192 7.5088C45.122 7.50325 45.1301 7.50325 45.1356 7.5088C45.1384 7.51434 45.1384 7.52231 45.1356 7.52501Z" fill="#00C58B" style="fill:#00C58B;fill:color(display-p3 0.0000 0.7725 0.5451);fill-opacity:1;"/>
<path d="M45.1273 7.74158H45.0371L44.8157 7.52503L45.0289 7.29766L45.2148 7.29211L45.439 7.50866L45.223 7.73874L45.1273 7.74158Z" fill="black" style="fill:black;fill-opacity:1;"/>
<path d="M36.0292 33.5703C30.4221 33.5703 25.8594 29.0525 25.8594 23.5008C25.8594 22.5615 26.6276 21.8009 27.5762 21.8009C28.5249 21.8009 29.2931 22.5615 29.2931 23.5008C29.2931 27.1767 32.3167 30.1705 36.0292 30.1705C39.7445 30.1705 42.7681 27.1767 42.7681 23.5008C42.7681 22.5615 43.5363 21.8009 44.4849 21.8009C45.4308 21.8009 46.2018 22.5615 46.2018 23.5008C46.2018 29.0525 41.639 33.5703 36.0292 33.5703Z" fill="black" style="fill:black;fill-opacity:1;"/>
<path d="M19.123 34.2741L9.4562 24.7027C8.78641 24.0395 8.78641 22.9622 9.4562 22.299C10.126 21.6331 11.2141 21.6331 11.8838 22.299L19.123 29.4667L26.3622 22.299C27.032 21.6331 28.12 21.6331 28.7898 22.299C29.4596 22.9622 29.4596 24.0395 28.7898 24.7027L19.123 34.2741Z" fill="black" style="fill:black;fill-opacity:1;"/>
<path d="M86.3144 8.42264C86.3144 7.98955 86.0519 7.85962 85.6583 7.85962C85.527 7.85962 85.3958 7.90293 85.2646 7.90293L81.9293 8.33602C81.2295 8.42264 80.9233 8.81243 80.7811 9.50538L79.0752 19.2717C78.0692 18.0157 76.1336 17.2361 74.1652 17.2361C67.0136 17.2361 62.2786 24.5771 62.2786 31.041C62.2786 35.7293 64.4328 39.4214 69.8677 39.4214C72.1532 39.4214 74.7776 38.2521 76.2648 36.8662L76.1773 38.0355C76.1773 38.0788 76.1773 38.1221 76.1773 38.1655C76.1773 38.6419 76.3961 38.9017 77.0631 38.9017H80.1687C80.8358 38.9017 80.9233 38.5552 81.0545 37.819L86.2706 8.72581C86.2706 8.63919 86.3144 8.50926 86.3144 8.42264ZM78.2879 23.5701L76.6257 33.0008C75.5212 34.0835 73.3779 35.1663 71.7485 35.1663C69.1241 35.1663 67.8993 33.4339 67.8993 31.041C67.8993 27.782 69.0803 24.707 70.7862 23.0504C71.836 22.0543 73.1592 21.448 74.6027 21.448C76.2648 21.448 77.6317 22.4008 78.2879 23.5701Z" fill="#00C58B" style="fill:#00C58B;fill:color(display-p3 0.0000 0.7725 0.5451);fill-opacity:1;"/>
<path d="M107.362 24.5771C107.362 20.0621 104.595 17.2794 99.8601 17.2794C92.0961 17.2794 86.8362 23.4402 86.8799 30.9977C86.9237 36.2057 90.4339 39.4214 96.3499 39.4214C98.6354 39.4214 101.402 38.945 103.72 38.0355C104.245 37.819 104.551 37.6024 104.551 37.0827C104.551 37.0394 104.551 36.9961 104.551 36.9528L104.333 34.5599C104.289 34.2134 104.114 34.0402 103.808 34.0402C103.633 34.0402 103.458 34.1268 103.283 34.1701C101.577 34.7765 99.4665 35.2096 97.6293 35.2096C94.4253 35.2096 92.4569 33.4339 92.4569 30.3048C92.4569 30.0449 92.5007 29.7417 92.5007 29.5685H105.295C106.399 29.5685 106.793 29.4819 106.968 28.4424C107.143 27.5221 107.362 25.4433 107.362 24.5771ZM102.277 24.7936C102.277 25.2267 102.233 25.7031 102.146 26.1362H93.2443C93.9441 23.8841 96.3499 21.318 99.1603 21.318C101.533 21.318 102.277 22.7039 102.277 24.7936Z" fill="#00C58B" style="fill:#00C58B;fill:color(display-p3 0.0000 0.7725 0.5451);fill-opacity:1;"/>
<path d="M129.946 24.5771C129.946 20.0621 127.179 17.2794 122.444 17.2794C114.68 17.2794 109.42 23.4402 109.464 30.9977C109.508 36.2057 113.018 39.4214 118.934 39.4214C121.22 39.4214 123.986 38.945 126.305 38.0355C126.829 37.819 127.136 37.6024 127.136 37.0827C127.136 37.0394 127.136 36.9961 127.136 36.9528L126.917 34.5599C126.873 34.2134 126.698 34.0402 126.392 34.0402C126.217 34.0402 126.042 34.1268 125.867 34.1701C124.161 34.7765 122.051 35.2096 120.214 35.2096C117.01 35.2096 115.041 33.4339 115.041 30.3048C115.041 30.0449 115.085 29.7417 115.085 29.5685H127.879C128.984 29.5685 129.377 29.4819 129.552 28.4424C129.727 27.5221 129.946 25.4433 129.946 24.5771ZM124.861 24.7936C124.861 25.2267 124.817 25.7031 124.73 26.1362H115.828C116.528 23.8841 118.934 21.318 121.744 21.318C124.117 21.318 124.861 22.7039 124.861 24.7936Z" fill="#00C58B" style="fill:#00C58B;fill:color(display-p3 0.0000 0.7725 0.5451);fill-opacity:1;"/>
<path d="M154.017 25.7031C154.017 21.0149 151.874 17.3228 146.439 17.3228C144.154 17.3228 141.518 18.4921 140.031 19.8888L140.162 18.7087C140.162 18.6653 140.162 18.622 140.162 18.5787C140.162 18.1456 139.9 17.8425 139.244 17.8425H136.127C135.471 17.8425 135.384 18.1889 135.252 18.9252L130.08 48.0184C130.08 48.1483 130.036 48.2349 130.036 48.3215C130.036 48.7546 130.299 48.8846 130.649 48.8846C130.78 48.8846 130.911 48.8413 131.042 48.8413L134.377 48.4082C135.077 48.3215 135.384 47.9318 135.515 47.2388L137.264 37.4725C138.281 38.7285 140.162 39.5081 142.142 39.5081C149.282 39.5081 154.017 32.1671 154.017 25.7031ZM148.451 25.7031C148.451 28.9622 147.226 32.0372 145.51 33.6938C144.46 34.6899 143.148 35.2962 141.693 35.2962C140.031 35.2962 138.675 34.3434 138.019 33.174L139.681 23.7542C140.775 22.6607 142.929 21.5779 144.547 21.5779C147.183 21.5779 148.451 23.3103 148.451 25.7031Z" fill="#00C58B" style="fill:#00C58B;fill:color(display-p3 0.0000 0.7725 0.5451);fill-opacity:1;"/>
<path d="M177.743 18.3621C177.743 18.059 177.481 17.8424 176.956 17.8424H173.796C173.008 17.8424 172.615 18.0156 172.265 18.7519L167.049 28.9621C166.436 30.1748 165.769 31.6906 165.376 32.5243H165.332C165.244 31.5607 165.026 30.1315 164.851 28.8322L163.32 18.7086C163.232 18.1456 162.97 17.8424 162.226 17.8424H158.366C157.797 17.8424 157.437 18.0156 157.437 18.492C157.437 18.5787 157.491 18.6653 157.491 18.7519L161.559 38.1221C161.69 38.7284 162.095 38.9017 162.751 38.9017H165.026C165.682 38.9017 166.075 38.7284 166.48 38.0788L177.568 18.8818C177.7 18.6653 177.743 18.5354 177.743 18.3621Z" fill="#00C58B" style="fill:#00C58B;fill:color(display-p3 0.0000 0.7725 0.5451);fill-opacity:1;"/>
<path d="M199.975 18.8385C200.106 18.1023 199.712 17.8424 199.056 17.8424H195.94C195.24 17.8424 194.802 18.1023 194.671 18.8385L192.222 32.6976C190.811 33.7803 188.536 34.7764 186.732 34.7764C184.982 34.7764 184.064 34.0402 184.064 32.2536C184.064 31.8206 184.108 31.2575 184.195 30.7378L186.338 18.8385C186.47 18.1023 186.076 17.8424 185.42 17.8424H182.347C181.647 17.8424 181.166 18.1023 181.035 18.8385L178.749 31.6473C178.618 32.3944 178.531 33.174 178.531 33.9535C178.531 37.689 180.597 39.4214 184.282 39.4214C186.951 39.4214 189.542 38.4686 191.686 36.9527C191.642 37.3425 191.554 37.7756 191.554 38.1654C191.554 38.6851 191.948 38.9017 192.44 38.9017H195.24C196.115 38.9017 196.475 38.5119 196.607 37.689L199.975 18.8385Z" fill="#00C58B" style="fill:#00C58B;fill:color(display-p3 0.0000 0.7725 0.5451);fill-opacity:1;"/>
</g>
<defs>
<clipPath id="clip0_1_364">
<rect width="200" height="53" fill="white" style="fill:white;fill-opacity:1;"/>
</clipPath>
</defs>
</svg>
