<svg width="200" height="44" viewBox="0 0 200 44" fill="none" xmlns="http://www.w3.org/2000/svg">
<g clip-path="url(#clip0_1_341)">
<mask id="mask0_1_341" style="mask-type:luminance" maskUnits="userSpaceOnUse" x="0" y="0" width="200" height="44">
<path d="M199.824 0H0V44H199.824V0Z" fill="white" style="fill:white;fill-opacity:1;"/>
</mask>
<g mask="url(#mask0_1_341)">
<path d="M0 20.8013H0.00866989C0.277437 31.5813 9.04272 40.3002 19.8801 40.5677V40.585H20.9031C24.2064 40.4901 27.4489 39.6189 30.3186 38.0235C28.5153 37.0232 26.8853 35.7641 25.4808 34.2892L20.3916 39.3517L1.23979 20.2924L20.4003 1.23324L39.5608 20.2924L30.3186 29.4857L35.1564 34.298C38.685 30.6327 40.6705 25.8722 40.7918 20.8013H40.8006V19.7836H40.7918C40.5232 9.00353 31.758 0.284594 20.9118 0.0172481V0H19.8888V0.0172481C9.05137 0.284594 0.286106 9.00353 0.00866989 19.7836H0V20.8013Z" fill="#00C58B" style="fill:#00C58B;fill:color(display-p3 0.0000 0.7725 0.5451);fill-opacity:1;"/>
<path d="M19.8193 20.8013H19.828C20.0968 31.5813 28.8621 40.3002 39.6993 40.5677V40.585H40.7223V40.5677C51.5685 40.3002 60.3252 31.5813 60.6026 20.8013H60.6111V19.7836H60.6026C60.3426 9.00353 51.5773 0.284594 40.7312 0.0172481V0H39.7081C36.4048 0.0948646 33.1625 0.974518 30.2926 2.56135C32.0873 3.56174 33.7173 4.82086 35.1302 6.29558L40.2197 1.23324L59.3802 20.2924L40.2197 39.3517L21.0591 20.2924L30.3013 11.0992L25.4634 6.28694C21.9435 9.95217 19.9581 14.7127 19.828 19.7836H19.8193V20.8013Z" fill="#00C58B" style="fill:#00C58B;fill:color(display-p3 0.0000 0.7725 0.5451);fill-opacity:1;"/>
<path d="M76.5032 31.158C83.3869 31.158 87.3057 27.6049 87.3057 20.7574C87.3057 13.9099 83.3437 10.3568 76.5032 10.3568H72.0729V31.158H76.5032ZM66.8188 5.98438H76.8846C86.5689 5.98438 92.5945 11.4607 92.5945 20.7488C92.5945 30.0369 86.5689 35.5131 76.8846 35.5131H66.8188V5.99302V5.98438Z" fill="#00C58B" style="fill:#00C58B;fill:color(display-p3 0.0000 0.7725 0.5451);fill-opacity:1;"/>
<path d="M94.9612 27.4775V13.2737H100.129V26.6324C100.129 29.9267 102.322 31.5999 105.252 31.5999C108.183 31.5999 110.411 29.9267 110.411 26.6324V13.2737H115.535V27.4862C115.535 32.3243 111.616 36.136 105.252 36.136C98.8888 36.136 94.97 32.3243 94.97 27.4862" fill="#00C58B" style="fill:#00C58B;fill:color(display-p3 0.0000 0.7725 0.5451);fill-opacity:1;"/>
<path d="M136.568 24.3972C136.568 20.3266 133.811 17.2047 129.858 17.2047C125.904 17.2047 123.147 20.3266 123.147 24.3972C123.147 28.4678 125.904 31.6329 129.858 31.6329C133.811 31.6329 136.568 28.4678 136.568 24.3972ZM117.807 24.3541C117.807 17.7222 122.497 12.6685 128.774 12.6685C132.216 12.6685 135.016 14.2553 136.343 16.2647H136.43V13.2721H141.554V35.531H136.69V32.2363H136.603C135.311 34.4184 132.259 36.1344 128.774 36.1344C122.618 36.1344 117.807 31.0809 117.807 24.3627" fill="#00C58B" style="fill:#00C58B;fill:color(display-p3 0.0000 0.7725 0.5451);fill-opacity:1;"/>
<path d="M150.215 4.66577H145.091V35.5312H150.215V4.66577Z" fill="#00C58B" style="fill:#00C58B;fill:color(display-p3 0.0000 0.7725 0.5451);fill-opacity:1;"/>
<path d="M153.908 13.2733H159.075V35.5321H153.908V13.2733ZM153.353 7.40891C153.353 5.69272 154.732 4.28699 156.492 4.28699C158.252 4.28699 159.674 5.70134 159.674 7.40891C159.674 9.21134 158.252 10.5308 156.492 10.5308C154.732 10.5308 153.353 9.20273 153.353 7.40891Z" fill="#00C58B" style="fill:#00C58B;fill:color(display-p3 0.0000 0.7725 0.5451);fill-opacity:1;"/>
<path d="M164.884 30.6064V17.5496H161.225V13.2721H164.884V7.27832H170.043V13.2721H175.167V17.5496H170.043V29.7526C170.043 31.2101 170.858 31.6759 172.453 31.6759C173.571 31.6759 174.603 31.4603 175.297 31.2877V35.5652C174.395 35.7378 172.54 35.9534 171.17 35.9534C168.075 35.9534 164.884 34.8839 164.884 30.6064Z" fill="#00C58B" style="fill:#00C58B;fill:color(display-p3 0.0000 0.7725 0.5451);fill-opacity:1;"/>
<path d="M199.824 13.2737L190.01 38.8269C188.588 42.5524 186.958 44.0098 182.692 44.0098C181.66 44.0098 180.368 43.9236 179.467 43.7942V39.5167C180.368 39.6028 181.357 39.7754 182.354 39.7754C183.689 39.7754 185.024 39.4306 185.839 37.1624L186.273 35.9204L177.195 13.2737H183.004L188.683 29.1161L194.275 13.2737H199.824Z" fill="#00C58B" style="fill:#00C58B;fill:color(display-p3 0.0000 0.7725 0.5451);fill-opacity:1;"/>
</g>
</g>
<defs>
<clipPath id="clip0_1_341">
<rect width="200" height="44" fill="white" style="fill:white;fill-opacity:1;"/>
</clipPath>
</defs>
</svg>
