<svg width="194" height="37" viewBox="0 0 194 37" fill="none" xmlns="http://www.w3.org/2000/svg">
<g clip-path="url(#clip0_1_422)">
<path fill-rule="evenodd" clip-rule="evenodd" d="M10.0248 0.896729C14.3665 0.896729 17.854 4.44512 17.854 8.77415C17.854 13.1032 14.3665 16.5806 10.0248 16.5806C8.03197 16.5806 6.25261 15.8709 4.90029 14.6645C5.25617 14.5935 5.68321 14.4516 6.03908 14.2387C7.17787 15.0903 8.53019 15.5161 10.096 15.5161C13.8683 15.5161 16.9288 12.4645 16.9288 8.70318C16.9288 4.94189 13.8683 1.89028 10.096 1.89028C8.60136 1.89028 7.17787 2.38705 6.03908 3.1677C5.68321 3.02576 5.32734 2.88383 4.90029 2.74189C6.25261 1.67737 8.03197 0.896729 10.0248 0.896729ZM4.0462 13.8129C3.83268 13.6 3.69033 13.3161 3.47681 13.0322C3.83268 13.0322 4.25972 12.9612 4.6156 12.8903C4.82912 13.1032 4.97147 13.3161 5.18499 13.529C4.82912 13.6709 4.40207 13.8129 4.0462 13.8129ZM3.47681 4.44512C3.69033 4.16124 3.83268 3.94834 4.0462 3.66447C4.40207 3.73544 4.82912 3.80641 5.18499 3.94834C4.97147 4.16124 4.75795 4.37415 4.6156 4.58705C4.25972 4.51608 3.83268 4.44512 3.47681 4.44512ZM10.0248 2.74189C13.37 2.74189 16.0747 5.43866 16.0747 8.77415C16.0747 12.1096 13.37 14.8064 10.0248 14.8064C8.81488 14.8064 7.67609 14.4516 6.75083 13.8838C8.38784 12.8193 9.52663 10.9032 9.52663 8.84512C9.52663 6.71608 8.45901 4.87092 6.75083 3.73544C7.74727 3.09673 8.81488 2.74189 10.0248 2.74189ZM5.96791 13.1741C5.75439 12.9612 5.54086 12.8193 5.39851 12.5354C6.822 11.8258 7.74727 10.4064 7.74727 8.70318C7.74727 6.99995 6.822 5.5806 5.39851 4.87092C5.61204 4.65802 5.75439 4.44512 5.96791 4.23221C7.53375 5.08383 8.53019 6.78705 8.53019 8.70318C8.53019 10.6903 7.46257 12.3225 5.96791 13.1741Z" fill="white" style="fill:white;fill-opacity:1;"/>
<path fill-rule="evenodd" clip-rule="evenodd" d="M29.5979 0.470947C32.1602 0.470947 34.2954 2.52901 34.2954 5.15482C34.2954 7.78062 32.1602 9.83869 29.5979 9.83869C26.9644 9.83869 24.9004 7.78062 24.9004 5.15482C24.9004 2.52901 27.0356 0.470947 29.5979 0.470947ZM29.5979 1.81933C31.4484 1.81933 32.9431 3.30966 32.9431 5.15482C32.9431 6.99998 31.4484 8.4903 29.5979 8.4903C27.7474 8.4903 26.2527 6.99998 26.2527 5.15482C26.2527 3.30966 27.7474 1.81933 29.5979 1.81933ZM29.5979 1.18062C31.7331 1.18062 33.5125 2.95482 33.5125 5.08385C33.5125 7.21288 31.7331 8.98708 29.5979 8.98708C27.3915 8.98708 25.6121 7.21288 25.6121 5.08385C25.6121 2.95482 27.4627 1.18062 29.5979 1.18062Z" fill="white" style="fill:white;fill-opacity:1;"/>
<path fill-rule="evenodd" clip-rule="evenodd" d="M4.8291 22.542C7.46255 22.542 9.52661 24.671 9.52661 27.2259C9.52661 29.7807 7.46255 31.9097 4.8291 31.9097C2.19565 31.9097 0.131592 29.7807 0.131592 27.2259C0.131592 24.671 2.26682 22.542 4.8291 22.542ZM4.8291 23.8904C6.67963 23.8904 8.1743 25.3807 8.1743 27.2259C8.1743 29.071 6.67963 30.5613 4.8291 30.5613C2.97857 30.5613 1.48391 29.071 1.48391 27.2259C1.48391 25.3807 2.97857 23.8904 4.8291 23.8904ZM4.8291 23.3226C7.03551 23.3226 8.74369 25.0968 8.74369 27.2968C8.74369 29.4259 6.96433 31.2001 4.8291 31.2001C2.69387 31.2001 0.91451 29.4259 0.91451 27.2259C0.91451 25.0968 2.62269 23.3226 4.8291 23.3226Z" fill="white" style="fill:white;fill-opacity:1;"/>
<path fill-rule="evenodd" clip-rule="evenodd" d="M18.0675 31.6968C19.491 31.6968 20.701 32.9032 20.701 34.3226C20.701 35.7419 19.5622 36.9484 18.0675 36.9484C16.5729 36.9484 15.4341 35.7419 15.4341 34.3226C15.4341 32.9032 16.5729 31.6968 18.0675 31.6968ZM18.0675 32.6194C19.064 32.6194 19.8469 33.4 19.8469 34.3936C19.8469 35.3871 19.064 36.1677 18.0675 36.1677C17.0711 36.1677 16.2882 35.3871 16.2882 34.3936C16.2882 33.4 17.0711 32.6194 18.0675 32.6194ZM18.0675 32.1936C19.2775 32.1936 20.2739 33.1871 20.2739 34.3936C20.2739 35.6 19.2775 36.5936 18.0675 36.5936C16.8576 36.5936 15.8611 35.6 15.8611 34.3936C15.8611 33.1871 16.8576 32.1936 18.0675 32.1936Z" fill="white" style="fill:white;fill-opacity:1;"/>
<path fill-rule="evenodd" clip-rule="evenodd" d="M24.6156 18.9935C26.0391 18.9935 27.2491 20.129 27.2491 21.6193C27.2491 23.1097 26.0391 24.2451 24.6156 24.2451C23.1921 24.2451 21.9822 23.1097 21.9822 21.6193C21.9822 20.129 23.121 18.9935 24.6156 18.9935ZM24.6156 19.8451C25.6121 19.8451 26.395 20.6258 26.395 21.6193C26.395 22.6129 25.6121 23.3935 24.6156 23.3935C23.6192 23.3935 22.8363 22.6129 22.8363 21.6193C22.8363 20.6258 23.6192 19.8451 24.6156 19.8451ZM24.6156 19.4193C25.8256 19.4193 26.822 20.4129 26.822 21.6193C26.822 22.8258 25.8256 23.8193 24.6156 23.8193C23.4057 23.8193 22.4092 22.8258 22.4092 21.6193C22.4092 20.4129 23.4057 19.4193 24.6156 19.4193Z" fill="white" style="fill:white;fill-opacity:1;"/>
<path fill-rule="evenodd" clip-rule="evenodd" d="M41.2704 13.8129C42.6939 13.8129 43.9039 14.9483 43.9039 16.4387C43.9039 17.929 42.7651 19.0645 41.2704 19.0645C39.8469 19.0645 38.637 17.929 38.637 16.4387C38.637 14.9483 39.7758 13.8129 41.2704 13.8129ZM41.2704 14.5935C42.2669 14.5935 43.0498 15.3742 43.0498 16.3677C43.0498 17.3613 42.2669 18.1419 41.2704 18.1419C40.274 18.1419 39.4911 17.3613 39.4911 16.3677C39.4911 15.4451 40.274 14.5935 41.2704 14.5935ZM41.2704 14.2387C42.4804 14.2387 43.4768 15.2322 43.4768 16.4387C43.4768 17.6451 42.4804 18.6387 41.2704 18.6387C40.0605 18.6387 39.064 17.6451 39.064 16.4387C39.064 15.2322 40.0605 14.2387 41.2704 14.2387Z" fill="white" style="fill:white;fill-opacity:1;"/>
<path fill-rule="evenodd" clip-rule="evenodd" d="M12.6583 17.5032L16.6441 32.4064C16.5729 32.0516 18.4946 31.6967 18.4946 31.9096L13.0854 17.4322C13.0854 17.3613 13.0142 17.2903 13.0142 17.2903C12.943 17.2903 12.8719 17.2903 12.8007 17.2903C12.7295 17.2903 12.6583 17.2903 12.6583 17.3613C12.5872 17.4322 12.6583 17.5032 12.6583 17.5032Z" fill="white" style="fill:white;fill-opacity:1;"/>
<path fill-rule="evenodd" clip-rule="evenodd" d="M18.4946 10.7613L38.7793 17.2903C38.7793 17.2903 38.8505 16.6516 38.9217 16.1548C38.9929 15.6581 39.2064 15.2323 39.064 15.2323L18.637 10.3355C18.5658 10.3355 18.4946 10.2645 18.4235 10.3355C18.3523 10.3355 18.3523 10.4774 18.3523 10.5484C18.3523 10.6194 18.3523 10.6194 18.3523 10.6903C18.3523 10.6903 18.4235 10.7613 18.4946 10.7613Z" fill="white" style="fill:white;fill-opacity:1;"/>
<path fill-rule="evenodd" clip-rule="evenodd" d="M24.9004 5.15479L17.6406 6.92898V7.49672L25.3986 7.21285C25.3986 7.21285 25.2563 6.29027 24.9004 5.15479Z" fill="white" style="fill:white;fill-opacity:1;"/>
<path fill-rule="evenodd" clip-rule="evenodd" d="M23.1921 19.4193L16.0747 13.0322V13.3871L22.4092 20.8387C22.3381 20.6258 22.4804 20.4129 23.1921 19.4193Z" fill="white" style="fill:white;fill-opacity:1;"/>
<path fill-rule="evenodd" clip-rule="evenodd" d="M7.8898 16.2968L5.25635 22.9677L7.03571 23.3226L8.24567 16.3677L7.8898 16.2968Z" fill="white" style="fill:white;fill-opacity:1;"/>
<path d="M58.8506 2.95488C59.9894 2.95488 61.057 3.16778 62.0534 3.59359C63.0498 4.01939 63.9039 4.58714 64.6157 5.29681C65.3274 6.00649 65.8968 6.92907 66.395 7.92262C66.8221 8.91617 67.0356 9.98069 67.0356 11.0452C67.0356 12.1807 66.8221 13.2452 66.395 14.2387C65.968 15.2323 65.3986 16.0839 64.6157 16.8646C63.9039 17.5742 63.0498 18.142 62.0534 18.5678C61.057 18.9936 59.9894 19.2065 58.8506 19.2065H55.9324L57.0712 16.4387H58.7794C59.4911 16.4387 60.2029 16.2968 60.8434 16.0129C61.484 15.7291 62.0534 15.3742 62.6228 14.8775C63.121 14.3807 63.4769 13.8129 63.7616 13.1742C64.0463 12.5355 64.1886 11.8968 64.1886 11.1162C64.1886 10.4065 64.0463 9.69681 63.7616 9.0581C63.4769 8.41939 63.121 7.85165 62.6228 7.35488C62.1246 6.8581 61.5552 6.50327 60.8434 6.21939C60.2029 5.93552 59.4911 5.79359 58.7794 5.79359H54.7936V12.5355V16.4387V19.2065H52.0178V2.95488H58.8506ZM82.6228 2.95488H85.8968L79.6335 12.9613L79.42 13.3162V13.671V19.1355H76.6442V13.2452L70.0961 2.88391H73.3701L77.9965 10.1936L82.6228 2.95488ZM101.199 2.88391H103.975V19.1355H100.915L94.4377 8.06456V19.1355H91.6619V2.88391H94.7224L101.27 13.9549V2.88391H101.199ZM120.061 2.95488L127.391 19.2065H124.331L123.05 16.4387L121.769 13.671L118.495 6.36133L115.221 13.671H119.42L120.701 16.4387H113.94L112.658 19.2065H109.598L116.929 2.95488H120.061ZM146.395 2.88391H149.456V19.1355H146.68V7.63875L141.342 15.871L136.004 7.63875V19.1355H133.228V2.88391H136.288L141.342 10.7613L146.395 2.88391ZM158.637 2.95488V19.1355H155.861V2.95488H158.637ZM177 2.95488V5.72262H172.231V19.2065H169.456V5.72262H164.687V2.95488H169.456H172.231H177ZM193.868 5.72262H185.683V9.69681H191.733L192.445 12.4646H185.683V16.3678H193.868V19.1355H182.908V2.95488H193.868V5.72262Z" fill="white" style="fill:white;fill-opacity:1;"/>
<path d="M58.4234 32.7612H59.3487L56.1458 25.5935H55.2917L52.0889 32.7612H52.943L53.7259 30.9161H57.6405L58.4234 32.7612ZM54.0817 30.2064L55.7188 26.5161L57.3558 30.2064H54.0817ZM71.1636 25.6645V32.8322H72.0177V27.0129L76.2882 32.8322H77.1422V25.6645H76.3593V31.4838L72.0889 25.6645H71.1636ZM95.3629 32.7612H96.217L93.0853 25.6645H92.2312L89.0284 32.8322H89.8825L90.6654 30.9871H94.58L95.3629 32.7612ZM91.0213 30.2064L92.6583 26.5161L94.2953 30.2064H91.0213ZM108.103 25.6645V32.8322H112.089V32.0516H108.957V25.6645H108.103ZM129.384 25.6645H128.53L126.253 29.4258L123.904 25.6645H123.05L125.826 30.3483V32.8322H126.608V30.3483L129.384 25.6645ZM140.274 25.6645V26.3741H142.623V32.7612H143.477V26.3741H145.826V25.6645H140.274ZM157.712 25.6645V32.8322H158.495V25.6645H157.712ZM176.573 27.2258L177.071 26.658C176.359 26.0193 175.434 25.5935 174.438 25.5935C172.374 25.5935 170.737 27.1548 170.737 29.1419C170.737 31.129 172.374 32.7612 174.438 32.7612C175.434 32.7612 176.359 32.3354 177.071 31.6967L176.573 31.2C176.003 31.6967 175.221 32.0516 174.438 32.0516C172.801 32.0516 171.519 30.7742 171.519 29.2129C171.519 27.6516 172.801 26.3741 174.438 26.3741C175.221 26.3741 176.003 26.729 176.573 27.2258ZM193.37 27.0129L193.726 26.3032C193.085 25.9483 192.302 25.6645 191.448 25.6645C189.954 25.6645 188.957 26.3742 188.957 27.5096C188.957 30.0645 192.943 29.0709 192.943 30.9161C192.943 31.6258 192.302 32.0516 191.235 32.0516C190.452 32.0516 189.527 31.6967 188.886 31.058L188.53 31.7677C189.242 32.4064 190.238 32.8322 191.306 32.8322C192.872 32.8322 193.868 32.0516 193.868 30.9161C193.868 28.3612 189.882 29.2838 189.882 27.4387C189.882 26.8 190.523 26.4451 191.448 26.4451C191.947 26.4451 192.729 26.5871 193.37 27.0129Z" fill="white" style="fill:white;fill-opacity:1;"/>
</g>
<defs>
<clipPath id="clip0_1_422">
<rect width="194" height="37" fill="white" style="fill:white;fill-opacity:1;"/>
</clipPath>
</defs>
</svg>
