<svg width="197" height="35" viewBox="0 0 197 35" fill="none" xmlns="http://www.w3.org/2000/svg">
<g clip-path="url(#clip0_1_355)">
<path d="M8.04152 2.70163C8.04152 2.85746 7.96233 3.00345 7.83036 3.09039L0.850527 7.61278C0.548634 7.79323 0.203849 7.45203 0.385315 7.15022L4.9335 0.209962C5.0193 0.0787359 5.16611 0 5.32448 0H7.57631C7.83366 0 8.04152 0.206681 8.04152 0.462574V2.70163Z" fill="#00C58B" style="fill:#00C58B;fill:color(display-p3 0.0000 0.7725 0.5451);fill-opacity:1;"/>
<path d="M16.9532 2.73771C16.9532 2.87386 16.8922 3.00345 16.7882 3.09202L0.858834 16.4755C0.542094 16.733 0.123073 16.3164 0.382074 16.0015L13.8435 0.164033C13.9326 0.0606924 14.0629 0 14.1999 0H16.488C16.7437 0 16.9532 0.206681 16.9532 0.462574V2.73771Z" fill="#00C58B" style="fill:#00C58B;fill:color(display-p3 0.0000 0.7725 0.5451);fill-opacity:1;"/>
<path d="M25.8586 2.74593C25.8586 2.87715 25.8024 3.00182 25.7051 3.09039L0.857381 25.3351C0.538989 25.6138 0.0985206 25.176 0.378968 24.8594L22.7505 0.152552C22.8379 0.0557715 22.9632 0 23.0953 0H25.3917C25.6489 0 25.8586 0.206683 25.8586 0.462576V2.74593Z" fill="#00C58B" style="fill:#00C58B;fill:color(display-p3 0.0000 0.7725 0.5451);fill-opacity:1;"/>
<path d="M9.28766 33.7186L31.6592 9.01193C31.7483 8.91514 31.8737 8.85938 32.0056 8.85938H34.3019C34.5593 8.85938 34.7673 9.06605 34.7673 9.32194V11.6053C34.7673 11.7365 34.7111 11.8612 34.6138 11.9498L9.76607 34.1943C9.44769 34.4733 9.00721 34.0353 9.28766 33.7186Z" fill="#00C58B" style="fill:#00C58B;fill:color(display-p3 0.0000 0.7725 0.5451);fill-opacity:1;"/>
<path d="M18.196 33.7185L31.6574 17.8795C31.7465 17.7761 31.8769 17.7155 32.0138 17.7155H34.3019C34.5593 17.7155 34.7672 17.922 34.7672 18.178V20.4532C34.7672 20.5893 34.706 20.7189 34.6022 20.8075L18.6728 34.1927C18.356 34.4501 17.9371 34.0334 18.196 33.7185Z" fill="#00C58B" style="fill:#00C58B;fill:color(display-p3 0.0000 0.7725 0.5451);fill-opacity:1;"/>
<path d="M27.1129 33.7249L31.661 26.7847C31.7469 26.6535 31.8938 26.5748 32.052 26.5748H34.3039C34.5612 26.5748 34.7691 26.7814 34.7691 27.0373V29.2764C34.7691 29.4322 34.69 29.5783 34.5579 29.6652L27.5781 34.1875C27.2762 34.368 26.9313 34.0268 27.1129 33.7249Z" fill="#00C58B" style="fill:#00C58B;fill:color(display-p3 0.0000 0.7725 0.5451);fill-opacity:1;"/>
<path d="M34.7675 2.75085C34.7675 2.88043 34.713 3.00346 34.6189 3.09039L0.857973 34.1928C0.539584 34.4815 0.0892174 34.0337 0.379563 33.7171L31.6594 0.14763C31.7468 0.0541311 31.8706 0 32.0009 0H34.3006C34.5578 0 34.7675 0.206683 34.7675 0.462574V2.75085Z" fill="#00C58B" style="fill:#00C58B;fill:color(display-p3 0.0000 0.7725 0.5451);fill-opacity:1;"/>
<path d="M54.1066 28.2857H48.5128V25.2931H53.909C55.6419 25.2931 57.0759 24.9708 58.2109 24.3259C59.3459 23.681 60.1971 22.739 60.7647 21.4996C61.3321 20.2603 61.6159 18.7589 61.6159 16.9956C61.6159 15.2323 61.3321 13.7411 60.7647 12.5219C60.2073 11.2926 59.3712 10.3606 58.2564 9.72584C57.1519 9.08097 55.7686 8.75853 54.1066 8.75853H48.3912V5.76599H54.3347C56.5642 5.76599 58.4743 6.21436 60.0654 7.11112C61.6564 8.00788 62.8774 9.29761 63.7288 10.9803C64.5902 12.663 65.0209 14.6681 65.0209 16.9956C65.0209 19.3332 64.5902 21.3484 63.7288 23.0412C62.8674 24.724 61.6261 26.0186 60.0045 26.9255C58.3831 27.8323 56.4171 28.2857 54.1066 28.2857ZM50.2 5.76599V28.2857H46.7495V5.76599H50.2ZM68.0312 34.422L68.6697 31.7165L69.3537 31.7921C69.8705 31.9031 70.3366 31.9181 70.7521 31.8376C71.1676 31.7568 71.5274 31.5453 71.8314 31.2028C72.1455 30.8702 72.3988 30.3715 72.5914 29.7064L73.0323 28.3159L66.6328 11.6H70.2049L73.5338 21.016C73.8887 22.0235 74.1926 23.0311 74.4459 24.0388C74.7093 25.0363 74.978 26.0337 75.2516 27.0312H74.2635C74.5473 26.0337 74.8259 25.0312 75.0995 24.0237C75.3731 23.016 75.6873 22.0135 76.0421 21.016L79.4014 11.6H82.9431L75.5861 30.7343C75.2516 31.6007 74.8361 32.3261 74.3395 32.9105C73.8531 33.5051 73.2755 33.9484 72.6066 34.2407C71.9378 34.5429 71.1676 34.6941 70.2961 34.6941C69.8199 34.6941 69.379 34.6637 68.9736 34.6034C68.5785 34.553 68.2643 34.4925 68.0312 34.422ZM88.4161 18.4617V28.2857H85.1023V11.6H88.2945L88.3097 15.6958H87.884C88.3805 14.2046 89.1 13.1113 90.0426 12.4161C90.985 11.7108 92.12 11.3581 93.4474 11.3581C94.5926 11.3581 95.6009 11.6 96.4724 12.0836C97.344 12.5672 98.023 13.2826 98.5093 14.2298C98.9959 15.1668 99.239 16.3306 99.239 17.7211V28.2857H95.9252V18.1444C95.9252 16.915 95.6061 15.9578 94.9676 15.2726C94.3393 14.5875 93.4678 14.2449 92.3531 14.2449C91.6133 14.2449 90.9445 14.4061 90.3466 14.7286C89.7486 15.051 89.2774 15.5245 88.933 16.1492C88.5883 16.774 88.4161 17.5447 88.4161 18.4617ZM107.691 28.6334C106.617 28.6334 105.649 28.4419 104.788 28.0591C103.927 27.666 103.242 27.0917 102.736 26.3361C102.239 25.5804 101.991 24.6533 101.991 23.555C101.991 22.608 102.173 21.8321 102.538 21.2275C102.913 20.6129 103.41 20.1293 104.028 19.7765C104.646 19.4239 105.34 19.157 106.11 18.9756C106.891 18.7943 107.686 18.6581 108.497 18.5675C109.5 18.4466 110.306 18.3458 110.914 18.2652C111.532 18.1847 111.983 18.0587 112.267 17.8874C112.561 17.7161 112.708 17.434 112.708 17.041V16.9503C112.708 16.3357 112.586 15.8167 112.343 15.3936C112.1 14.9603 111.735 14.6278 111.248 14.396C110.762 14.1643 110.164 14.0484 109.455 14.0484C108.735 14.0484 108.112 14.1643 107.585 14.396C107.058 14.6177 106.627 14.9099 106.293 15.2726C105.968 15.6253 105.741 16.0082 105.609 16.4213L102.462 15.7865C102.766 14.7789 103.263 13.9527 103.952 13.3078C104.641 12.6529 105.457 12.1642 106.399 11.8418C107.342 11.5194 108.35 11.3581 109.424 11.3581C110.174 11.3581 110.934 11.4539 111.704 11.6453C112.485 11.8267 113.199 12.134 113.848 12.5672C114.496 12.9904 115.018 13.5749 115.413 14.3205C115.819 15.0661 116.021 16.0032 116.021 17.1317V28.2857H112.799V25.9884H112.647C112.434 26.4216 112.115 26.8399 111.689 27.2429C111.263 27.646 110.721 27.9784 110.063 28.2405C109.404 28.5024 108.613 28.6334 107.691 28.6334ZM108.421 25.9884C109.343 25.9884 110.123 25.812 110.762 25.4594C111.4 25.1068 111.887 24.6432 112.221 24.0689C112.556 23.4947 112.723 22.8799 112.723 22.2251V20.1242C112.601 20.2351 112.378 20.3357 112.054 20.4264C111.74 20.5171 111.375 20.6028 110.96 20.6834C110.544 20.754 110.133 20.8195 109.728 20.8799C109.323 20.9303 108.968 20.9757 108.664 21.016C108.046 21.0965 107.478 21.2327 106.962 21.424C106.445 21.6053 106.029 21.8724 105.715 22.2251C105.411 22.5676 105.259 23.0261 105.259 23.6004C105.259 24.1243 105.391 24.5627 105.654 24.9153C105.928 25.2679 106.303 25.535 106.779 25.7164C107.256 25.8977 107.803 25.9884 108.421 25.9884ZM119.701 28.2857V11.6H122.877L122.938 15.3936H122.68C122.933 14.4666 123.313 13.7058 123.82 13.1113C124.327 12.5068 124.92 12.0584 125.598 11.7662C126.277 11.4639 126.987 11.3128 127.727 11.3128C128.953 11.3128 129.961 11.6856 130.751 12.4312C131.542 13.1768 132.064 14.1945 132.317 15.4842H131.876C132.099 14.6076 132.479 13.857 133.016 13.2323C133.553 12.6076 134.202 12.134 134.962 11.8116C135.732 11.4791 136.558 11.3128 137.44 11.3128C138.443 11.3128 139.35 11.5294 140.161 11.9627C140.971 12.3859 141.615 13.0257 142.091 13.8822C142.578 14.7386 142.821 15.8067 142.821 17.0863V28.2857H139.492V17.4189C139.492 16.2802 139.173 15.459 138.534 14.9552C137.906 14.4515 137.161 14.1996 136.3 14.1996C135.601 14.1996 134.992 14.3457 134.476 14.6379C133.969 14.9301 133.579 15.3381 133.305 15.8621C133.032 16.376 132.895 16.9755 132.895 17.6606V28.2857H129.627V17.1921C129.627 16.2853 129.333 15.5598 128.745 15.0157C128.167 14.4716 127.422 14.1996 126.511 14.1996C125.892 14.1996 125.315 14.3457 124.778 14.6379C124.251 14.92 123.825 15.3432 123.501 15.9074C123.176 16.4616 123.014 17.1518 123.014 17.9781V28.2857H119.701ZM153.599 28.6334C152.018 28.6334 150.635 28.2756 149.449 27.5603C148.273 26.8348 147.356 25.8273 146.698 24.5375C146.049 23.2377 145.725 21.7313 145.725 20.0184C145.725 18.2853 146.049 16.7689 146.698 15.4691C147.356 14.1693 148.273 13.1617 149.449 12.4463C150.635 11.7209 152.018 11.3581 153.599 11.3581C155.19 11.3581 156.573 11.7209 157.749 12.4463C158.934 13.1617 159.851 14.1693 160.5 15.4691C161.159 16.7689 161.488 18.2853 161.488 20.0184C161.488 21.7313 161.159 23.2377 160.5 24.5375C159.851 25.8273 158.934 26.8348 157.749 27.5603C156.573 28.2756 155.19 28.6334 153.599 28.6334ZM153.599 25.8372C154.602 25.8372 155.438 25.5804 156.107 25.0665C156.786 24.5426 157.293 23.8423 157.627 22.9656C157.962 22.079 158.129 21.0965 158.129 20.0184C158.129 18.9302 157.962 17.9428 157.627 17.0561C157.293 16.1694 156.786 15.4641 156.107 14.9401C155.438 14.4162 154.602 14.1542 153.599 14.1542C152.596 14.1542 151.76 14.4162 151.091 14.9401C150.422 15.4641 149.92 16.1694 149.586 17.0561C149.251 17.9327 149.084 18.9201 149.084 20.0184C149.084 21.0965 149.251 22.079 149.586 22.9656C149.92 23.8423 150.422 24.5426 151.091 25.0665C151.76 25.5804 152.596 25.8372 153.599 25.8372ZM170.397 28.2857L178.498 5.76599H182.71L190.903 28.2857H187.179L182.771 15.711C182.426 14.6832 182.047 13.4942 181.631 12.1441C181.224 10.7838 180.748 9.14142 180.202 7.21693H180.962C180.424 9.1515 179.948 10.804 179.533 12.1743C179.128 13.5446 178.762 14.7235 178.438 15.711L174.121 28.2857H170.397ZM174.805 22.3763V19.5045H186.495V22.3763H174.805ZM196.802 5.76599V28.2857H193.35V5.76599H196.802Z" fill="#00C58B" style="fill:#00C58B;fill:color(display-p3 0.0000 0.7725 0.5451);fill-opacity:1;"/>
</g>
<defs>
<clipPath id="clip0_1_355">
<rect width="197" height="35" fill="white" style="fill:white;fill-opacity:1;"/>
</clipPath>
</defs>
</svg>
