<svg width="200" height="40" viewBox="0 0 200 40" fill="none" xmlns="http://www.w3.org/2000/svg">
<g clip-path="url(#clip0_1_436)">
<path d="M8.34671 23.7126H25.0803V15.7286H8.34671V8.82241H26.244V0.838379H0V40.0001H26.8459V31.9761H8.34671V23.7126Z" fill="#00C58B" style="fill:#00C58B;fill:color(display-p3 0.0000 0.7725 0.5451);fill-opacity:1;"/>
<path d="M118.339 0.838323L109.39 14.9701L100.442 0.838323H99.8397H76.6054H63.2025V8.82236H74.7595V31.9361H62.4802C63.1222 31.1377 63.6439 30.2994 64.1254 29.4212C65.5701 26.6267 66.3325 23.4331 66.3325 19.9601C66.3325 17.1257 65.8108 14.4112 64.8478 12.016C63.8445 9.58084 62.44 7.42515 60.6744 5.66866C58.9087 3.87226 56.7819 2.47505 54.3341 1.47705C51.9264 0.479042 49.2779 0 46.5091 0C43.7001 0 41.0516 0.518962 38.6439 1.47705C36.2362 2.47505 34.1094 3.87226 32.3036 5.66866C30.538 7.46507 29.1335 9.58084 28.1303 12.016C27.127 14.4511 26.6455 17.1257 26.6455 19.9601C26.6455 22.8343 27.1672 25.509 28.1303 27.9042C29.1335 30.3393 30.538 32.495 32.3036 34.2515C34.0693 36.0479 36.1961 37.4451 38.6439 38.4431C41.0516 39.4411 43.7001 39.9202 46.5091 39.9202H68.66H74.7595H83.1062V8.78244H95.5059L105.217 23.4331V39.9202H113.564V23.513L128.532 0.838323H118.339ZM56.8622 24.6307C56.3405 26.0679 55.6182 27.3453 54.6551 28.4232C53.6921 29.501 52.5283 30.3792 51.164 31.018C49.7996 31.6567 48.2346 31.976 46.4689 31.976C44.7033 31.976 43.0982 31.6567 41.7338 31.018C40.3694 30.3792 39.1656 29.501 38.2426 28.4232C37.2795 27.3453 36.5171 26.0679 36.0356 24.6307C35.5139 23.1537 35.233 21.5968 35.233 19.9601C35.233 18.3234 35.5139 16.7665 36.0356 15.2894C36.5572 13.8523 37.2795 12.5749 38.2426 11.497C39.2057 10.4192 40.3694 9.54092 41.7338 8.9022C43.0982 8.26347 44.7033 7.94411 46.4689 7.94411C48.2346 7.94411 49.7996 8.26347 51.164 8.9022C52.5283 9.54092 53.7322 10.4192 54.6551 11.497C55.6182 12.5749 56.3807 13.8523 56.8622 15.2894C57.3839 16.7665 57.6648 18.3234 57.6648 19.9601C57.6648 21.5968 57.3839 23.1537 56.8622 24.6307Z" fill="#00C58B" style="fill:#00C58B;fill:color(display-p3 0.0000 0.7725 0.5451);fill-opacity:1;"/>
<path d="M158.186 3.23352L144.422 34.6906H130.377V3.23352H127.167V37.6048H143.178H146.509H146.549L150.441 28.4631H168.74L172.512 37.6048H176.124L161.597 3.23352H158.186ZM151.685 25.5489L159.751 6.70657L167.576 25.5489H151.685Z" fill="#00C58B" style="fill:#00C58B;fill:color(display-p3 0.0000 0.7725 0.5451);fill-opacity:1;"/>
<path d="M199.398 24.6706C199.037 23.6726 198.515 22.7944 197.793 22.0758C197.111 21.3573 196.308 20.7585 195.345 20.3193C194.382 19.8802 193.379 19.6008 192.215 19.5209V19.4411C194.262 19.002 195.827 18.1637 196.83 16.8862C197.873 15.6088 198.395 14.0519 198.395 12.3353C198.395 10.3792 198.074 8.82234 197.392 7.66466C196.71 6.46705 195.867 5.54889 194.824 4.91016C193.78 4.23152 192.576 3.7924 191.252 3.5928C189.928 3.3932 188.604 3.27344 187.32 3.27344H177.368V37.6447H188.403C189.567 37.6447 190.851 37.5249 192.175 37.2455C193.539 37.006 194.783 36.487 195.947 35.8084C197.111 35.0898 198.074 34.1317 198.836 32.8543C199.599 31.6168 200 29.98 200 28.0239C199.96 26.7864 199.759 25.6686 199.398 24.6706ZM187.721 6.14769C188.724 6.14769 189.687 6.22753 190.61 6.42713C191.533 6.62673 192.336 6.94609 193.018 7.42513C193.7 7.90418 194.262 8.5429 194.663 9.30138C195.064 10.0998 195.265 11.0978 195.265 12.2954C195.265 12.8543 195.185 13.4531 194.984 14.1317C194.783 14.8104 194.382 15.4092 193.82 16.008C193.218 16.6068 192.416 17.0858 191.372 17.485C190.329 17.8842 188.965 18.0838 187.32 18.0838H180.618L180.578 6.14769H187.721ZM196.429 30.1397C196.228 30.8982 195.787 31.6168 195.185 32.2954C194.583 32.974 193.66 33.5329 192.536 34.012C191.372 34.4511 189.848 34.6906 187.962 34.6906H180.578V20.998H188.443C189.446 20.998 190.45 21.1177 191.453 21.3972C192.456 21.6367 193.339 22.0758 194.101 22.6347C194.864 23.1936 195.506 23.9521 195.987 24.8303C196.469 25.7485 196.71 26.8263 196.71 28.0639C196.75 28.7026 196.629 29.3812 196.429 30.1397Z" fill="#00C58B" style="fill:#00C58B;fill:color(display-p3 0.0000 0.7725 0.5451);fill-opacity:1;"/>
</g>
<defs>
<clipPath id="clip0_1_436">
<rect width="200" height="40" fill="white" style="fill:white;fill-opacity:1;"/>
</clipPath>
</defs>
</svg>
