<svg width="200" height="34" viewBox="0 0 200 34" fill="none" xmlns="http://www.w3.org/2000/svg">
<g clip-path="url(#clip0_1_420)">
<path d="M43.8889 10.8194L33.4722 0.472209C33.2639 0.194431 32.8472 0.055542 32.5 0.055542H11.7361C11.3889 0.055542 11.0417 0.194431 10.7639 0.472209L0.416667 10.8194C0.138889 11.0972 0 11.4444 0 11.7917C0 12.1389 0.138889 12.4861 0.416667 12.7639L10.7639 23.1111L21.1111 33.4583C21.3889 33.7361 21.7361 33.875 22.0833 33.875C22.4306 33.875 22.7778 33.7361 23.0556 33.4583L33.4028 23.1111L43.75 12.7639C44.0278 12.4861 44.1667 12.1389 44.1667 11.7917C44.1667 11.4444 44.0972 11.0972 43.8889 10.8194ZM3.33333 11.7917L11.7361 3.38888L20.1389 11.7917L11.7361 20.2639L3.33333 11.7917ZM22.1528 30.6111L13.6806 22.2083L22.0833 13.8055L30.5556 22.2083L22.1528 30.6111ZM32.5 20.2639L15.0694 2.83332H31.9444L40.9722 11.8611L32.5 20.2639ZM54.0278 2.4861H71.0417V7.06943H59.0278V13.6667H68.3333V18.25H59.0278V27H71.4583V31.5833H54.0278V2.4861ZM72.4306 11.5833H77.5L83.0555 24.2917L88.5417 11.5833H93.4028L84.6528 31.5833H81.25L72.4306 11.5833ZM104.514 15.2639C102.014 15.2639 100.139 17.0694 99.7222 19.2222H109.167C108.75 16.9305 106.875 15.2639 104.514 15.2639ZM113.889 22.7639H99.4444C99.7222 25.75 102.222 27.8333 105.417 27.8333C107.847 27.8333 109.722 26.6528 110.833 25.4722L113.611 28.1111C111.597 30.6111 108.333 32 105.347 32C99.1667 32 94.8611 27.6944 94.8611 21.5833C94.8611 15.8194 98.6111 11.1667 104.583 11.1667C110.208 11.1667 113.958 15.75 113.958 21.4444C113.958 21.8611 113.958 22.4167 113.889 22.7639ZM118.611 11.5833H123.194V13.875C124.306 12.4861 126.458 11.375 129.167 11.375C129.653 11.375 130.069 11.4444 130.694 11.5139V15.8889C130.208 15.8194 129.722 15.75 129.028 15.75C126.875 15.75 124.722 16.7222 123.403 18.875V31.5833H118.611V11.5833ZM134.514 2.06943H139.306V31.5833H134.514V2.06943ZM159.653 25.125V18.0417C158.403 16.5139 156.597 15.5417 154.653 15.5417C151.25 15.5417 148.819 18.1805 148.819 21.5833C148.819 24.9861 151.25 27.625 154.444 27.625C156.597 27.625 158.403 26.7222 159.653 25.125ZM159.931 31.5833V29.7083C158.542 30.8889 156.458 32 153.819 32C151.597 32 149.514 31.2361 147.847 29.8472C145.486 27.9028 144.097 24.9167 144.097 21.5833C144.097 18.25 145.556 15.2639 147.847 13.3194C149.514 11.9305 151.667 11.1667 154.028 11.1667C156.458 11.1667 158.542 12.2778 159.931 13.4583V11.5833H164.444V31.5139H159.931V31.5833ZM195.208 11.5833L190.625 23.9444L185.625 11.5833H182.361L177.5 23.9444L172.917 11.5833H167.986L175.486 31.5833H178.819L183.958 18.7361L189.167 31.5833H192.5L200 11.5833H195.208Z" fill="#00C58B" style="fill:#00C58B;fill:color(display-p3 0.0000 0.7725 0.5451);fill-opacity:1;"/>
</g>
<defs>
<clipPath id="clip0_1_420">
<rect width="200" height="34" fill="white" style="fill:white;fill-opacity:1;"/>
</clipPath>
</defs>
</svg>
