<svg width="199" height="51" viewBox="0 0 199 51" fill="none" xmlns="http://www.w3.org/2000/svg">
<g clip-path="url(#clip0_1_457)">
<path d="M0 43.1226C8.13631e-08 41.2716 1.83878 40.0008 3.57424 40.6293C5.69538 41.389 7.86472 41.9829 10.096 42.197C13.6014 42.5356 17.3271 41.8725 20.1163 39.7107C22.8366 37.6041 24.3999 34.3234 25.4054 31.0219C26.4108 27.7204 26.9687 24.115 28.167 20.8827C29.3654 17.6502 31.2522 14.0034 34.2963 12.408C36.7208 11.135 39.6833 10.8789 42.3606 11.296C45.1599 11.7321 47.8791 13.0386 49.4473 15.4677C49.8054 16.0203 50.1014 16.6212 50.2047 17.2704C50.308 17.9196 50.2047 18.6173 49.8329 19.1559C49.4679 19.6809 48.8755 20.0055 48.2558 20.1644C47.6222 20.3301 46.9404 20.3647 46.2861 20.3577C42.829 20.3439 39.6541 20.5373 36.9545 22.9409C34.6199 25.0198 33.1461 27.9275 32.0304 30.8078C30.3501 35.159 29.1519 39.8764 25.798 43.2055C25.3434 43.6545 25.185 44.3658 25.4743 44.9391C26.0459 46.065 27.3888 45.5055 28.1739 44.8078C34.2412 39.4206 33.3459 28.6666 40.8731 24.4742C42.1748 23.749 43.6279 23.3276 45.1017 23.1895C47.0575 23.0099 49.5229 23.2724 50.2736 25.7589C50.618 26.9123 50.432 28.1694 49.8741 29.2329C48.6345 31.5882 46.2242 32.79 44.0893 34.2198C42.1059 35.5458 40.2878 37.1759 38.8967 39.1304C38.0289 40.353 37.113 41.6722 36.6997 43.1295C36.1419 45.0841 37.7534 46.5484 39.1583 44.5316C41.3828 41.3268 43.0838 37.4935 46.6512 35.7393C47.209 35.4629 47.8288 35.311 48.4418 35.4077C50.5559 35.7254 50.9554 38.0945 50.9554 40.0214V40.132C50.9554 46.0442 46.1759 50.8375 40.2809 50.8375H22.568C17.9126 50.8375 13.2571 50.8375 8.59473 50.8375C5.2684 50.8375 2.22444 49.5874 0.729997 46.4103C0.247922 45.3811 -4.97834e-08 44.2553 0 43.1226Z" fill="white" style="fill:white;fill-opacity:1;"/>
<path d="M50.9554 7.88296C50.9554 9.73367 49.1167 11.0043 47.3811 10.3759C45.26 9.61627 43.0907 9.02238 40.8594 8.80832C37.354 8.46993 33.6283 9.13288 30.8391 11.2943C28.1189 13.4006 26.5555 16.6807 25.5501 19.9817C24.5446 23.2825 23.9868 26.8872 22.7884 30.1191C21.5901 33.3509 19.7032 36.9971 16.6591 38.5922C14.2345 39.8651 11.2721 40.1211 8.59473 39.7041C7.17604 39.4831 5.82623 39.0619 4.5866 38.3781C3.34698 37.6945 2.27953 36.7278 1.5082 35.5331C1.15009 34.9806 0.853957 34.3799 0.750659 33.7307C0.647356 33.0816 0.750659 32.3842 1.12255 31.8455C1.48754 31.3206 2.07981 30.996 2.69962 30.8373C3.33321 30.6715 4.01499 30.637 4.66925 30.6438C8.12642 30.6576 11.3012 30.4643 14.0009 28.0612C16.3355 25.9826 17.8093 23.0754 18.925 20.1956C20.6054 15.8452 21.8036 11.1286 25.1575 7.8001C25.612 7.35123 25.8543 6.80163 25.4811 6.06678C24.9096 4.94117 23.5666 5.50052 22.7815 6.19799C16.7143 11.5844 17.6096 22.3364 10.0823 26.5281C8.78066 27.2532 7.32755 27.6744 5.85378 27.8126C3.89792 27.9921 1.43246 27.7298 0.68179 25.2436C0.337451 24.0904 0.523395 22.8337 1.08123 21.7701C2.32085 19.4154 4.73124 18.2137 6.86614 16.7843C8.84954 15.4584 10.6676 13.8287 12.0588 11.8744C12.9265 10.6521 13.8424 9.33314 14.2557 7.87605C14.8135 5.92176 13.202 4.45777 11.7971 6.47421C9.57265 9.67842 7.87161 13.5111 4.30424 15.2651C3.74642 15.5412 3.12661 15.6933 2.51368 15.5965C0.399435 15.2719 -8.43796e-08 12.8964 0 10.9767L4.85734e-09 10.8662C2.64673e-07 4.95498 4.77944 0.162475 10.6745 0.162476L28.3874 0.162476C33.0428 0.169382 37.6983 0.169382 42.3538 0.169383C45.687 0.169383 48.731 1.4193 50.2253 4.59588C50.7075 5.62483 50.9554 6.75044 50.9554 7.88296Z" fill="white" style="fill:white;fill-opacity:1;"/>
<path d="M77.2463 40.027C68.6578 40.027 63.6943 34.2934 63.6943 25.5277C63.6943 16.9274 69.5501 10.9733 77.0233 10.9733C84.4964 10.9733 90.0175 15.8798 90.0175 24.3699C90.0175 25.0071 89.9918 25.695 89.9402 26.3473C89.8999 26.8566 89.4649 27.2368 88.9513 27.2368H69.7974C69.6025 27.2368 69.4471 27.4006 69.4634 27.5938C69.8714 32.4482 73.0551 35.2857 77.3021 35.2857C80.7914 35.2857 83.2261 33.6992 84.4397 30.6495C84.6509 30.1188 85.2272 29.8045 85.7746 29.9763L88.5421 30.8453C89.0794 31.0141 89.3798 31.5875 89.1787 32.1111C87.0299 37.7009 82.6889 40.027 77.2463 40.027ZM69.4709 22.795C69.4501 22.9901 69.6064 23.1572 69.8036 23.1572H84.1524C84.3417 23.1572 84.4951 23.0026 84.4864 22.8146C84.2891 18.4812 81.3712 15.549 77.0233 15.549C73.0592 15.549 69.9411 18.3715 69.4709 22.795Z" fill="white" style="fill:white;fill-opacity:1;"/>
<path d="M101.502 39.3655C101.072 39.3655 100.687 39.096 100.542 38.6925L91.1807 12.5926C91.0229 12.1526 91.3509 11.6899 91.8206 11.6899H96.2102C96.6445 11.6899 97.031 11.9636 97.1732 12.3716L103.823 31.4584C104.034 32.0643 104.895 32.0643 105.107 31.4584L111.756 12.3716C111.898 11.9636 112.285 11.6899 112.719 11.6899H116.603C117.074 11.6899 117.402 12.1545 117.242 12.5949L107.775 38.6958C107.629 39.0976 107.246 39.3655 106.816 39.3655H101.502Z" fill="white" style="fill:white;fill-opacity:1;"/>
<path d="M121.654 39.3655C121.091 39.3655 120.635 38.9117 120.635 38.352V12.3657C120.635 11.9925 120.939 11.69 121.314 11.69H125.588C125.963 11.69 126.268 11.9925 126.268 12.3657V13.9024C126.268 14.2617 126.83 14.4112 127.053 14.1284C128.456 12.3477 130.707 11.3041 133.182 11.3041C138.314 11.3041 141.381 14.7773 141.381 19.4082V23.611C141.381 24.1707 140.925 24.6245 140.362 24.6245H136.6C136.037 24.6245 135.581 24.1707 135.581 23.611V19.6839C135.581 17.589 133.909 15.9902 131.454 15.9902C128.61 15.9902 126.435 17.9198 126.435 22.4404V38.352C126.435 38.9117 125.979 39.3655 125.416 39.3655H121.654Z" fill="white" style="fill:white;fill-opacity:1;"/>
<path d="M146.401 39.3655C145.84 39.3655 145.382 38.9117 145.382 38.352V12.7034C145.382 12.1437 145.84 11.6899 146.401 11.6899H150.163C150.726 11.6899 151.182 12.1437 151.182 12.7034V38.352C151.182 38.9117 150.726 39.3655 150.163 39.3655H146.401Z" fill="white" style="fill:white;fill-opacity:1;"/>
<path d="M157.196 39.3655C156.633 39.3655 156.177 38.9117 156.177 38.352V12.7034C156.177 12.1437 156.633 11.69 157.196 11.69H160.902C161.465 11.69 161.921 12.1437 161.921 12.7035V15.1631C161.921 15.5376 162.536 15.6739 162.736 15.3571C164.442 12.6625 167.365 11.2489 170.566 11.2489C174.813 11.2489 177.887 13.2921 179.356 16.6113C179.486 16.906 179.952 16.9112 180.091 16.6203C181.758 13.126 185.32 11.2489 189.024 11.2489C195.272 11.2489 198.896 15.4939 198.896 21.6686V38.352C198.896 38.9117 198.44 39.3655 197.877 39.3655H194.06C193.497 39.3655 193.041 38.9117 193.041 38.352V22.716C193.041 18.3607 191.144 16.1004 187.241 16.1004C183.615 16.1004 180.436 18.471 180.436 24.0391V38.352C180.436 38.9117 179.98 39.3655 179.417 39.3655H175.6C175.037 39.3655 174.581 38.9117 174.581 38.352V22.7711C174.581 18.471 172.684 16.1004 168.781 16.1004C165.212 16.1004 161.977 18.471 161.977 24.0391V38.352C161.977 38.9117 161.52 39.3655 160.958 39.3655H157.196Z" fill="white" style="fill:white;fill-opacity:1;"/>
</g>
<defs>
<clipPath id="clip0_1_457">
<rect width="199" height="51" fill="white" style="fill:white;fill-opacity:1;"/>
</clipPath>
</defs>
</svg>
