<svg width="201" height="41" viewBox="0 0 201 41" fill="none" xmlns="http://www.w3.org/2000/svg">
<g clip-path="url(#clip0_1_442)">
<path d="M120.648 24.8411H116.032L110.769 18.1686H128.502V40.0353H121.7V35.1313C120.567 36.6588 118.947 37.9451 117.004 38.9098C115.061 39.8745 112.793 40.3568 110.121 40.3568C106.397 40.3568 103.077 39.5529 100.243 37.8647C97.4087 36.1764 95.2225 33.8451 93.6031 30.8706C92.0646 27.8157 91.2549 24.3588 91.2549 20.3392C91.2549 16.3196 92.0646 12.7823 93.6031 9.80781C95.1415 6.8333 97.4897 4.42153 100.405 2.81369C103.401 1.20585 106.882 0.321533 110.85 0.321533C114.818 0.321533 116.761 0.884278 119.271 2.09016C121.7 3.21565 123.805 4.98428 125.344 7.15487C126.559 8.92349 127.449 10.9333 127.935 13.1039H119.352C118.785 11.5764 117.895 10.3706 116.68 9.40585C115.061 8.11957 113.117 7.47644 110.769 7.47644C108.421 7.47644 106.639 8.03918 105.02 9.08428C103.401 10.2098 102.186 11.6568 101.295 13.6666C100.405 15.596 99.9998 17.847 99.9998 20.3392C99.9998 24.198 100.971 27.3333 102.834 29.6647C104.696 31.996 107.368 33.2019 110.688 33.2019C113.117 33.2019 115.384 32.5588 117.166 31.1921C118.542 30.147 120.243 28.5392 120.567 25.3235V24.8411H120.648Z" fill="#00C58B" style="fill:#00C58B;fill:color(display-p3 0.0000 0.7725 0.5451);fill-opacity:1;"/>
<path d="M134.818 0.643188V39.955H162.024V32.7197H143.32V23.9569H158.057V16.7216H143.32V7.95887H162.024V0.643188H134.818Z" fill="#00C58B" style="fill:#00C58B;fill:color(display-p3 0.0000 0.7725 0.5451);fill-opacity:1;"/>
<path fill-rule="evenodd" clip-rule="evenodd" d="M188.34 25.1628C193.603 24.8412 195.871 22.3491 197.085 20.4197C198.3 18.4902 198.867 16.2393 198.867 13.7471C198.867 11.255 198.3 8.84319 197.085 6.83338C195.871 4.82358 194.089 3.21574 191.984 2.25103C189.798 1.20593 187.207 0.643188 184.373 0.643188H168.259V39.955H176.761V26.7706H180.324L190.688 39.955H200.081L188.421 25.0824L188.34 25.1628ZM176.68 19.7765V7.7177H183.644C185.668 7.7177 187.207 8.28044 188.421 9.32554C189.636 10.451 190.203 11.8981 190.203 13.7471C190.203 15.5961 189.636 17.0432 188.421 18.1687C187.207 19.2942 185.668 19.7765 183.644 19.7765H176.68Z" fill="#00C58B" style="fill:#00C58B;fill:color(display-p3 0.0000 0.7725 0.5451);fill-opacity:1;"/>
<path d="M77.4897 0.643188H85.9918V39.955H77.4897V0.643188Z" fill="#00C58B" style="fill:#00C58B;fill:color(display-p3 0.0000 0.7725 0.5451);fill-opacity:1;"/>
<path d="M0.32373 0.643188V39.955H27.5302V32.7197H8.82575V23.9569H23.5626V16.7216H8.82575V7.95887H27.5302V0.643188H0.32373Z" fill="#00C58B" style="fill:#00C58B;fill:color(display-p3 0.0000 0.7725 0.5451);fill-opacity:1;"/>
<path d="M63.0771 0.643188L57.3281 7.95887L62.4293 14.3902L73.1986 0.643188H63.0771Z" fill="#00C58B" style="fill:#00C58B;fill:color(display-p3 0.0000 0.7725 0.5451);fill-opacity:1;"/>
<path d="M32.0649 40.0353L47.5305 20.3393L32.0649 0.643188H42.1864L57.652 20.3393L42.1864 40.0353H32.0649Z" fill="#00C58B" style="fill:#00C58B;fill:color(display-p3 0.0000 0.7725 0.5451);fill-opacity:1;"/>
<path d="M62.3484 26.2079L73.1986 39.9549H63.0771L57.3281 32.6393L62.4293 26.2079H62.3484Z" fill="#00C58B" style="fill:#00C58B;fill:color(display-p3 0.0000 0.7725 0.5451);fill-opacity:1;"/>
</g>
<defs>
<clipPath id="clip0_1_442">
<rect width="201" height="41" fill="white" style="fill:white;fill-opacity:1;"/>
</clipPath>
</defs>
</svg>
