<svg width="200" height="45" viewBox="0 0 200 45" fill="none" xmlns="http://www.w3.org/2000/svg">
<g clip-path="url(#clip0_1_510)">
<path fill-rule="evenodd" clip-rule="evenodd" d="M22.2338 44.8721C34.5133 44.8721 44.4675 34.8558 44.4675 22.5001C44.4675 10.1444 34.5133 0.128174 22.2338 0.128174C9.95442 0.128174 0 10.1444 0 22.5001C0 34.8558 9.95442 44.8721 22.2338 44.8721ZM12.8539 24.3644L22.2338 41.1432L38.9092 11.3141H5.55844L10.7695 20.6357H17.9872C18.702 18.9896 20.3344 17.8392 22.2338 17.8392C24.792 17.8392 26.8659 19.926 26.8659 22.5001C26.8659 25.0741 24.792 27.1609 22.2338 27.1609C20.3344 27.1609 18.702 26.0105 17.9872 24.3644H12.8539ZM53.7317 22.5059H58.4978V40.5811H64.275V22.5059H69.6192V17.6285H64.275V13.4683C64.275 12.8307 64.3153 12.225 64.3956 11.6512C64.4758 11.0774 64.6522 10.5753 64.925 10.1449C65.1978 9.71455 65.575 9.37185 66.0564 9.11681C66.5378 8.86179 67.1797 8.73428 67.9822 8.73428C68.3994 8.73428 68.8006 8.76614 69.1858 8.8299C69.5708 8.89368 69.9722 8.97337 70.3894 9.06901L70.7744 4.19154C69.6511 3.96839 68.4314 3.85681 67.1156 3.85681C65.3183 3.85681 63.8578 4.10389 62.7344 4.598C61.6111 5.09213 60.7367 5.80143 60.1108 6.72591C59.4847 7.65039 59.0597 8.75818 58.835 10.0493C58.6103 11.3404 58.4978 12.7829 58.4978 14.3768V17.6285H53.7317V22.5059ZM79.015 17.5348H73.2092V40.5811H79.015V17.5348ZM73.6669 7.32771C72.9872 8.01777 72.6472 8.82819 72.6472 9.75897C72.6472 10.6897 72.9872 11.5002 73.6669 12.1902C74.3467 12.8803 75.2083 13.2253 76.2519 13.2253C77.2953 13.2253 78.1728 12.8963 78.8842 12.2384C79.5956 11.5804 79.9514 10.7539 79.9514 9.75897C79.9514 8.76399 79.5956 7.93753 78.8842 7.27958C78.1728 6.6216 77.2953 6.29262 76.2519 6.29262C75.2083 6.29262 74.3467 6.63767 73.6669 7.32771ZM103.028 37.1265H103.124V40.5694H108.606V4.41895H102.835V20.5337H102.691C102.403 20.1511 102.034 19.7606 101.585 19.3621C101.136 18.9636 100.591 18.5891 99.95 18.2384C99.3089 17.8877 98.5717 17.6008 97.7381 17.3777C96.9047 17.1545 95.9431 17.0429 94.8531 17.0429C93.2181 17.0429 91.7114 17.3538 90.3328 17.9754C88.9544 18.597 87.7764 19.4498 86.7986 20.5337C85.8208 21.6176 85.0595 22.8927 84.5145 24.3591C83.9695 25.8256 83.6969 27.4035 83.6969 29.0933C83.6969 30.7826 83.9533 32.3606 84.4664 33.8272C84.9792 35.2935 85.7328 36.5686 86.7264 37.6525C87.7203 38.7364 88.9144 39.5892 90.3089 40.2108C91.7033 40.8324 93.2983 41.1432 95.0933 41.1432C96.7283 41.1432 98.2511 40.8246 99.6617 40.187C101.072 39.5495 102.194 38.5293 103.028 37.1265ZM89.9569 31.7513C89.6542 30.917 89.5028 30.0503 89.5028 29.1517C89.5028 28.2531 89.6542 27.3864 89.9569 26.5519C90.26 25.7174 90.7061 24.9792 91.2958 24.3373C91.8856 23.6954 92.595 23.1819 93.4239 22.7967C94.2525 22.4116 95.1931 22.219 96.245 22.219C97.2969 22.219 98.2372 22.4116 99.0661 22.7967C99.895 23.1819 100.604 23.6954 101.194 24.3373C101.784 24.9792 102.23 25.7174 102.533 26.5519C102.836 27.3864 102.987 28.2531 102.987 29.1517C102.987 30.0503 102.836 30.917 102.533 31.7513C102.23 32.5859 101.784 33.3241 101.194 33.9661C100.604 34.6079 99.895 35.1216 99.0661 35.5065C98.2372 35.8916 97.2969 36.0842 96.245 36.0842C95.1931 36.0842 94.2525 35.8916 93.4239 35.5065C92.595 35.1216 91.8856 34.6079 91.2958 33.9661C90.7061 33.3241 90.26 32.5859 89.9569 31.7513ZM133.18 37.1265H133.276V40.5694H138.758V4.41895H132.988V20.5337H132.844C132.555 20.1511 132.186 19.7606 131.738 19.3621C131.289 18.9636 130.744 18.5891 130.103 18.2384C129.462 17.8877 128.724 17.6008 127.891 17.3777C127.057 17.1545 126.096 17.0429 125.006 17.0429C123.371 17.0429 121.864 17.3538 120.486 17.9754C119.107 18.597 117.929 19.4498 116.951 20.5337C115.973 21.6176 115.212 22.8927 114.667 24.3591C114.122 25.8256 113.85 27.4035 113.85 29.0933C113.85 30.7826 114.106 32.3606 114.619 33.8272C115.132 35.2935 115.885 36.5686 116.879 37.6525C117.873 38.7364 119.067 39.5892 120.461 40.2108C121.856 40.8324 123.451 41.1432 125.246 41.1432C126.881 41.1432 128.404 40.8246 129.814 40.187C131.225 39.5495 132.347 38.5293 133.18 37.1265ZM120.11 31.7513C119.807 30.917 119.655 30.0503 119.655 29.1517C119.655 28.2531 119.807 27.3864 120.11 26.5519C120.413 25.7174 120.859 24.9792 121.449 24.3373C122.038 23.6954 122.748 23.1819 123.576 22.7967C124.405 22.4116 125.346 22.219 126.398 22.219C127.449 22.219 128.39 22.4116 129.219 22.7967C130.048 23.1819 130.757 23.6954 131.347 24.3373C131.936 24.9792 132.383 25.7174 132.686 26.5519C132.988 27.3864 133.14 28.2531 133.14 29.1517C133.14 30.0503 132.988 30.917 132.686 31.7513C132.383 32.5859 131.936 33.3241 131.347 33.9661C130.757 34.6079 130.048 35.1216 129.219 35.5065C128.39 35.8916 127.449 36.0842 126.398 36.0842C125.346 36.0842 124.405 35.8916 123.576 35.5065C122.748 35.1216 122.038 34.6079 121.449 33.9661C120.859 33.3241 120.413 32.5859 120.11 31.7513ZM151.306 4.41895H145.501V40.5811H151.306V4.41895ZM164.479 35.1006C163.332 34.1414 162.663 32.7986 162.472 31.0721H179.961V29.4896C179.961 27.4754 179.698 25.693 179.172 24.1423C178.646 22.5917 177.914 21.2889 176.974 20.2338C176.034 19.1787 174.903 18.3715 173.581 17.812C172.259 17.2524 170.802 16.9727 169.209 16.9727C167.489 16.9727 165.864 17.2604 164.335 17.8359C162.806 18.4114 161.484 19.2267 160.369 20.2818C159.254 21.3368 158.37 22.6077 157.717 24.0944C157.064 25.5811 156.738 27.2356 156.738 29.058C156.738 30.8804 157.064 32.5351 157.717 34.0217C158.37 35.5084 159.254 36.779 160.369 37.8342C161.484 38.8893 162.806 39.7046 164.335 40.2801C165.864 40.8556 167.489 41.1432 169.209 41.1432C171.025 41.1432 172.761 40.7916 174.418 40.0884C176.074 39.3848 177.571 38.202 178.909 36.5395L174.8 33.4222C174.067 34.3175 173.215 35.0606 172.243 35.6521C171.272 36.2438 170.069 36.5395 168.636 36.5395C167.011 36.5395 165.625 36.0599 164.479 35.1006ZM172.572 22.9233C173.595 23.8925 174.123 25.2191 174.155 26.9032H162.356C162.58 25.2509 163.195 23.9322 164.203 22.9471C165.21 21.9621 166.577 21.4695 168.303 21.4695C170.126 21.4695 171.549 21.9541 172.572 22.9233ZM190.988 17.5485H185.205V40.5811H190.988V28.2492C190.988 27.9292 191.06 27.4494 191.205 26.8096C191.349 26.1698 191.638 25.53 192.072 24.8902C192.506 24.2504 193.133 23.6826 193.952 23.1867C194.771 22.6909 195.855 22.443 197.205 22.443C197.654 22.443 198.113 22.483 198.578 22.5629C199.044 22.6429 199.518 22.7469 200 22.8748V17.3086C199.647 17.2126 199.301 17.1326 198.964 17.0687C198.626 17.0047 198.281 16.9727 197.928 16.9727C196.386 16.9727 195.02 17.3406 193.831 18.0763C192.643 18.8121 191.727 19.8518 191.084 21.1953H190.988V17.5485Z" fill="white" style="fill:white;fill-opacity:1;"/>
</g>
<defs>
<clipPath id="clip0_1_510">
<rect width="200" height="45" fill="white" style="fill:white;fill-opacity:1;"/>
</clipPath>
</defs>
</svg>
