<svg width="200" height="28" viewBox="0 0 200 28" fill="none" xmlns="http://www.w3.org/2000/svg">
<path d="M199.976 6.19226H137.725V21.5384H199.976V6.19226Z" fill="white" style="fill:white;fill-opacity:1;"/>
<path d="M173.288 13.7185H179.891V17.4931H184.067V13.7185H190.671V10.5H173.302V13.7185H173.288ZM163.765 17.5H176.586V14.2815H167.898V10.5069H163.765V17.5ZM142.228 17.5H146.361V15.6787H153.603V17.5H157.737V10.5069H153.603V12.3282H146.361V10.5069H142.228V17.5ZM195.737 10.5H191.604V17.4931H195.737V10.5ZM162.817 17.5H158.684V10.5069H162.817V17.5Z" fill="black" style="fill:black;fill-opacity:1;"/>
<mask id="mask0_1_576" style="mask-type:luminance" maskUnits="userSpaceOnUse" x="0" y="0" width="28" height="28">
<path d="M0.367188 14.0967C0.367188 21.571 6.33359 27.635 13.6877 27.635C21.0418 27.635 27.0082 21.571 27.0082 14.0967C27.0082 6.62235 21.0488 0.55127 13.6877 0.55127C6.32655 0.55127 0.367188 6.61519 0.367188 14.0967Z" fill="white" style="fill:white;fill-opacity:1;"/>
</mask>
<g mask="url(#mask0_1_576)">
<path d="M27.0082 0.55127H0.367188V27.6277H27.0082V0.55127Z" fill="black" style="fill:black;fill-opacity:1;"/>
</g>
<path d="M13.7791 0C11.0531 0 8.39037 0.823319 6.12215 2.36257C3.85394 3.90183 2.0929 6.0854 1.05037 8.64126C0.000787887 11.2043 -0.26689 14.0179 0.268466 16.7313C0.796776 19.4447 2.11403 21.9432 4.03709 23.8977C5.96014 25.8594 8.41855 27.191 11.0883 27.7281C13.758 28.2649 16.5334 27.9927 19.0482 26.9333C21.5629 25.8737 23.7184 24.0767 25.2259 21.7786C26.7404 19.4804 27.5433 16.7671 27.5433 13.9964C27.5433 10.2879 26.0853 6.72258 23.5071 4.10227C20.929 1.48197 17.428 0 13.7791 0ZM20.1893 11.1971H10.2782L10.1444 11.147L10.081 11.0182C9.92599 9.22834 10.6868 6.47917 12.4548 5.68448C12.8 5.62719 13.1522 5.59857 13.4974 5.59857H14.1243C15.6247 5.59857 17.0687 6.13553 18.217 7.1235C19.3651 8.10433 20.1259 9.46459 20.3795 10.968V11.0539L20.3373 11.1327L20.2668 11.19L20.1823 11.2114L20.1893 11.1971ZM20.4711 12.6362V13.0657L20.4218 13.1803L20.3091 13.2304H12.5957L12.4971 13.2017L12.4407 13.123C12.3985 12.987 12.3562 12.8438 12.3069 12.6934V12.6147L12.3281 12.5431L12.3844 12.493L12.4548 12.4715H20.295L20.3584 12.4858L20.4147 12.5216L20.4499 12.5789L20.464 12.6433L20.4711 12.6362ZM16.0755 15.1276C16.1742 15.1276 16.2587 15.1634 16.3291 15.235C16.3925 15.2994 16.4348 15.3996 16.4348 15.4927V15.55C16.4277 15.7003 16.3784 15.8435 16.308 15.9652C16.2305 16.0941 16.1249 16.1943 15.998 16.2659L15.9276 16.3661V16.4879L15.998 16.5881L16.1108 16.631C16.4066 16.6525 16.6954 16.5738 16.949 16.4234C17.3223 16.1943 17.59 15.822 17.7027 15.3925C17.7239 15.3137 17.7661 15.2421 17.8295 15.192C17.8929 15.1419 17.9704 15.1133 18.0479 15.1133H18.7875L18.9355 15.1419L19.0623 15.235L19.1327 15.371L19.1468 15.5285L18.7593 18.292V18.3206C18.6607 18.9721 18.5973 19.6451 18.9002 20.0174L21.4361 23.5111L21.4995 23.64V23.7832L21.4573 23.9192L21.3587 24.0266C20.4781 24.628 19.5553 25.1578 18.5973 25.616L18.3931 25.6446L18.2029 25.5587L15.4697 23.1245C15.2161 22.8954 15.04 22.5876 14.9766 22.2511C14.9133 21.9146 14.9626 21.5638 15.1175 21.2488L15.1527 21.1772C15.4838 20.9767 15.7726 20.7047 15.984 20.3825C16.2023 20.0603 16.3432 19.6881 16.3925 19.2943L16.4489 18.922C16.47 18.7574 16.463 18.5855 16.4277 18.428C16.3855 18.2705 16.315 18.113 16.2164 17.977C16.1178 17.841 15.998 17.7264 15.8572 17.6476C15.7163 17.5617 15.5613 17.5045 15.3993 17.483L15.1668 19.1153C15.1316 19.3659 15.026 19.6022 14.871 19.7954C14.709 19.9887 14.4977 20.1391 14.2652 20.2107L13.0677 20.6116C12.8634 20.6188 12.6591 20.5543 12.4971 20.4183C12.3351 20.2823 12.2365 20.0961 12.2013 19.8885L11.9195 17.8768C11.9054 17.7193 11.8561 17.5689 11.7786 17.4329C11.7011 17.2969 11.6025 17.1751 11.4828 17.0821C11.4828 17.0821 10.8417 16.4879 10.405 16.1657C10.2782 16.0726 10.1796 15.9509 10.1091 15.8149C10.0387 15.6717 10.0035 15.5213 10.0035 15.3638V15.0989H16.1108L16.0755 15.1276ZM22.1687 22.7666L19.7315 19.416C19.7033 19.3301 19.6962 19.101 19.7807 18.5068L20.302 14.8627C20.3161 14.7696 20.3584 14.6837 20.4288 14.6264C20.4993 14.5692 20.5908 14.5405 20.6824 14.5405H21.0276L21.2318 14.4976L21.4009 14.383L21.5136 14.2112L21.5559 14.0036V12.0419C21.5559 11.0539 21.3657 10.0731 20.9924 9.15673C20.619 8.24035 20.0696 7.41704 19.3863 6.71542C18.696 6.01381 17.8788 5.46253 16.9842 5.0831C16.0826 4.70365 15.1175 4.51034 14.1454 4.51034H13.5185C11.6448 4.51034 9.84851 5.23344 8.47489 6.52928C7.10833 7.82511 6.27007 9.60061 6.13625 11.4978C6.13625 11.5766 6.10806 11.6553 6.07286 11.7269L5.91786 11.8987L3.60035 13.5525L3.53696 13.6241V13.7172L3.57921 13.9535C3.63556 14.2255 3.89619 14.5405 4.45974 14.5405H6.24192C6.34051 14.5405 6.43209 14.5763 6.4955 14.6479C6.56594 14.7195 6.60115 14.8126 6.60115 14.9056V17.7694C6.60115 17.9197 6.65752 18.0629 6.76316 18.1703C6.86178 18.2777 7.00268 18.3421 7.1506 18.3493L7.60141 18.3707C7.74231 18.3779 7.88319 18.4352 7.98886 18.5282C8.10157 18.6213 8.17905 18.7502 8.20721 18.8934L8.81301 21.5065V21.5423C8.85529 21.7285 8.93982 21.9074 9.0666 22.0578C9.26385 22.3155 9.53153 22.5017 9.84146 22.5947C10.1444 22.695 10.4754 22.695 10.7783 22.5947L11.4546 22.3728H11.5884L11.6941 22.4659L12.0322 23.0315C12.321 23.4896 12.7366 23.8548 13.2297 24.0767C13.3354 24.134 13.4269 24.2056 13.5115 24.2986C13.7791 24.5993 14.1173 25.3868 14.392 26.1171L14.4131 26.2889L14.3497 26.4536L14.2229 26.5681L14.0609 26.6111H13.8003C10.9263 26.6111 8.13678 25.6016 5.91084 23.7545C3.68488 21.9074 2.1563 19.3301 1.57868 16.4664C1.0081 13.6027 1.42371 10.6244 2.7621 8.03988C4.10048 5.45537 6.27712 3.41498 8.92573 2.27666C11.5743 1.13833 14.5258 0.959345 17.2871 1.78266C20.0484 2.59882 22.4435 4.36717 24.0707 6.77985C25.6978 9.19253 26.4516 12.0992 26.205 15.013C25.9585 17.9269 24.7328 20.6617 22.7322 22.7594L22.6055 22.8453L22.4575 22.874L22.3096 22.8381L22.1899 22.7379H22.1758L22.1687 22.7666Z" fill="white" style="fill:white;fill-opacity:1;"/>
<path d="M34.0947 8.56972C34.0947 8.46232 34.13 8.42651 34.2357 8.42651H41.2304C41.3361 8.42651 41.3713 8.46232 41.3713 8.56972V10.3023C41.3713 10.4096 41.3361 10.4526 41.2304 10.4526H36.5602C36.4897 10.4526 36.4545 10.4884 36.4545 10.56V12.8868C36.4545 12.9584 36.4897 12.9941 36.5602 12.9941H40.4346C40.54 12.9941 40.5824 13.03 40.5824 13.1445V14.877C40.5824 14.9844 40.5472 15.0202 40.4346 15.0202H36.5249C36.4545 15.0202 36.4192 15.056 36.4192 15.1276V19.3015C36.4192 19.4089 36.384 19.4518 36.2786 19.4518H34.2497C34.144 19.4518 34.1019 19.416 34.1019 19.3015V8.55539L34.0947 8.56972Z" fill="white" style="fill:white;fill-opacity:1;"/>
<path d="M43.6888 8.42651H45.7177C45.7951 8.42651 45.8584 8.49097 45.8584 8.56972V19.3158C45.8584 19.3946 45.7951 19.4662 45.7105 19.4662H43.6819C43.6043 19.4662 43.541 19.4017 43.541 19.323V8.57688C43.541 8.49813 43.6043 8.43368 43.6819 8.43368L43.6888 8.42651Z" fill="white" style="fill:white;fill-opacity:1;"/>
<path d="M48.5068 8.56972C48.5068 8.46232 48.5421 8.42651 48.6478 8.42651H55.6427C55.7484 8.42651 55.7837 8.46232 55.7837 8.56972V10.3023C55.7837 10.4096 55.7484 10.4526 55.6427 10.4526H50.937C50.8668 10.4526 50.8316 10.4884 50.8316 10.56V12.7794C50.8316 12.851 50.8668 12.8868 50.937 12.8868H54.8467C54.9524 12.8868 54.9945 12.9226 54.9945 13.03V14.7697C54.9945 14.877 54.9593 14.9128 54.8467 14.9128H50.937C50.8668 14.9128 50.8316 14.9486 50.8316 15.0202V17.3112C50.8316 17.3828 50.8668 17.4186 50.937 17.4186H55.6427C55.7484 17.4186 55.7837 17.4544 55.7837 17.5618V19.2943C55.7837 19.4017 55.7484 19.4447 55.6427 19.4447H48.6478C48.5421 19.4447 48.5068 19.4089 48.5068 19.2943V8.54823V8.56972Z" fill="white" style="fill:white;fill-opacity:1;"/>
<path d="M58.0731 8.56972C58.0731 8.46232 58.1084 8.42651 58.2138 8.42651H60.2427C60.3484 8.42651 60.3836 8.46232 60.3836 8.56972V17.2897C60.3836 17.3613 60.4188 17.3971 60.489 17.3971H65.2721C65.3778 17.3971 65.4202 17.4329 65.4202 17.5475V19.3588C65.4202 19.4662 65.3849 19.5091 65.2721 19.5091H58.1717C58.066 19.5091 58.0308 19.4733 58.0308 19.3588V8.57688H58.066L58.0731 8.56972Z" fill="white" style="fill:white;fill-opacity:1;"/>
<path d="M67.4136 8.56972C67.4136 8.46232 67.4488 8.42651 67.5545 8.42651H71.612C72.5558 8.42651 73.3871 8.64847 74.0001 9.05654C74.6552 9.46461 75.0848 10.0875 75.3736 10.9394C75.4088 11.0826 75.444 11.233 75.4793 11.4191C75.5145 11.6052 75.5497 11.7914 75.585 12.0062C75.6202 12.2281 75.6202 12.5216 75.6554 12.8223V15.1133C75.6554 15.4498 75.6202 15.7004 75.585 15.9295C75.5497 16.1514 75.5145 16.3733 75.4793 16.5165C75.444 16.7027 75.4088 16.853 75.3736 16.9962C75.1201 17.8482 74.648 18.471 74.0001 18.8791C73.345 19.2872 72.5558 19.5091 71.612 19.5091H67.5897C67.484 19.5091 67.4488 19.4733 67.4488 19.3588V8.57688H67.4136V8.56972ZM69.7664 17.2468C69.7664 17.3184 69.8017 17.3542 69.8721 17.3542H71.1047C71.6472 17.3542 72.084 17.2826 72.408 17.0964C72.732 16.9103 72.9855 16.5809 73.0983 16.1371C73.1336 16.0655 73.1688 15.9509 73.1688 15.8794C73.204 15.772 73.204 15.6574 73.2393 15.4713C73.2393 15.3281 73.2745 15.099 73.2745 14.8413V13.03C73.2745 12.7722 73.2745 12.5861 73.2393 12.4429C73.2393 12.2997 73.204 12.1494 73.1688 12.0348C73.1336 11.9274 73.1336 11.8487 73.0983 11.7413C72.9503 11.2974 72.7391 10.9609 72.408 10.7819C72.084 10.5958 71.6472 10.5242 71.1047 10.5242H69.8721C69.8017 10.5242 69.7664 10.56 69.7664 10.6316V17.2468Z" fill="white" style="fill:white;fill-opacity:1;"/>
<path d="M85.8124 19.4662C85.7067 19.4662 85.6293 19.4304 85.5941 19.323L83.7133 12.4143H83.6781L81.7549 19.323C81.7197 19.4304 81.6495 19.4662 81.5366 19.4662H79.9446C79.8392 19.4662 79.8039 19.4304 79.7615 19.323L76.9369 8.57689C76.9017 8.4695 76.9721 8.43372 77.0778 8.43372H79.1417C79.2474 8.43372 79.3247 8.4695 79.3247 8.57689L80.8815 15.5572H80.9168L82.7623 8.57689C82.7976 8.4695 82.868 8.43372 82.9806 8.43372H84.3544C84.4601 8.43372 84.4953 8.4695 84.5374 8.57689L86.4606 15.5572H86.4958L88.0172 8.57689C88.0172 8.4695 88.0876 8.43372 88.2005 8.43372H90.2643C90.37 8.43372 90.4124 8.4695 90.4124 8.57689L87.6227 19.323C87.5875 19.4304 87.517 19.4662 87.4045 19.4662H85.8124Z" fill="white" style="fill:white;fill-opacity:1;"/>
<path d="M92.3356 8.42651H94.3642C94.4418 8.42651 94.5051 8.49097 94.5051 8.56972V19.3158C94.5051 19.3946 94.4418 19.4662 94.3573 19.4662H92.3284C92.2511 19.4662 92.1875 19.4017 92.1875 19.323V8.57688C92.1875 8.49813 92.2511 8.43368 92.3284 8.43368L92.3356 8.42651Z" fill="white" style="fill:white;fill-opacity:1;"/>
<path d="M103.198 19.4661C103.092 19.4661 103.015 19.4303 102.944 19.3229L101.064 15.2565H99.6124C99.542 15.2565 99.5068 15.2922 99.5068 15.3638V19.3158C99.5068 19.4232 99.4715 19.459 99.3658 19.459H97.3372C97.2315 19.459 97.1963 19.4232 97.1963 19.3158V8.56968C97.1963 8.46228 97.2315 8.41931 97.3372 8.41931H101.683C102.226 8.41931 102.733 8.4909 103.205 8.67705C103.677 8.86319 104.036 9.08515 104.36 9.37866C104.684 9.6722 104.938 10.0445 105.121 10.4883C105.304 10.8964 105.375 11.3761 105.375 11.8916C105.375 12.5932 105.192 13.2232 104.867 13.7745C104.543 14.2899 104.036 14.698 103.459 14.9916L105.593 19.3516V19.5019L105.487 19.5735H103.205V19.4661H103.198ZM101.528 13.2232C101.965 13.2232 102.325 13.1158 102.613 12.8509C102.867 12.5932 103.008 12.2638 103.008 11.8558C103.008 11.4477 102.86 11.1184 102.613 10.8606C102.36 10.6029 101.993 10.4883 101.528 10.4883H99.6053C99.5351 10.4883 99.4999 10.5242 99.4999 10.5957V13.1087C99.4999 13.1803 99.5351 13.216 99.6053 13.216H101.528V13.2232Z" fill="white" style="fill:white;fill-opacity:1;"/>
<path d="M107.685 8.56972C107.685 8.46232 107.72 8.42651 107.826 8.42651H114.821C114.926 8.42651 114.962 8.46232 114.962 8.56972V10.3023C114.962 10.4096 114.926 10.4526 114.821 10.4526H110.15C110.08 10.4526 110.045 10.4884 110.045 10.56V12.7794C110.045 12.851 110.08 12.8868 110.15 12.8868H114.06C114.166 12.8868 114.208 12.9226 114.208 13.03V14.7697C114.208 14.877 114.173 14.9128 114.06 14.9128H110.15C110.08 14.9128 110.045 14.9486 110.045 15.0202V17.3112C110.045 17.3828 110.08 17.4186 110.15 17.4186H114.821C114.926 17.4186 114.962 17.4544 114.962 17.5618V19.2943C114.962 19.4017 114.926 19.4447 114.821 19.4447H107.826C107.72 19.4447 107.685 19.4089 107.685 19.2943V8.54823V8.56972Z" fill="white" style="fill:white;fill-opacity:1;"/>
<path d="M125.344 14.3472C125.147 14.0895 124.865 13.9105 124.506 13.8031C124.781 13.6599 124.992 13.4809 125.133 13.259C125.274 13.0299 125.352 12.7793 125.352 12.5144C125.352 12.2352 125.267 11.9631 125.105 11.7054C124.943 11.4477 124.718 11.2544 124.429 11.1327C124.14 11.0038 123.759 10.9465 123.288 10.9465H120.956V17.0605H123.33C123.724 17.0605 124.055 17.0248 124.33 16.9603C124.605 16.8888 124.83 16.7885 125.013 16.6525C125.197 16.5165 125.344 16.3303 125.471 16.0797C125.598 15.8292 125.661 15.5643 125.661 15.2779C125.661 14.9199 125.563 14.6121 125.352 14.3472M124.598 14.698C124.71 14.8627 124.774 15.056 124.774 15.2779C124.774 15.4712 124.732 15.6359 124.654 15.7862C124.577 15.9294 124.471 16.0439 124.351 16.1155C124.224 16.1943 124.069 16.2444 123.886 16.2802C123.781 16.3017 123.598 16.3088 123.33 16.3088H121.808V14.247H123.224C123.619 14.247 123.914 14.2828 124.119 14.3472C124.323 14.4116 124.485 14.5262 124.598 14.6908M123.964 11.7627V11.777C124.14 11.8343 124.281 11.9345 124.379 12.0848H124.393V12.0777H124.379C124.478 12.2352 124.527 12.407 124.527 12.6075C124.527 12.8151 124.471 12.9941 124.372 13.1301H124.387V13.1373H124.372C124.274 13.2661 124.119 13.3664 123.914 13.4236C123.759 13.4737 123.499 13.4952 123.14 13.4952H121.815V11.6839H123.034C123.478 11.6839 123.788 11.7126 123.971 11.7698V11.7555L123.964 11.7627Z" fill="white" style="fill:white;fill-opacity:1;"/>
<path d="M132.072 10.9465H131.079L129.881 12.7435H129.895V12.7507H129.881C129.62 13.1301 129.402 13.4809 129.219 13.7959C129.029 13.4594 128.825 13.1229 128.606 12.7865L127.387 10.9537H127.38H126.359L126.373 10.9752L128.754 14.4761V17.0605H129.599V14.4761L132.065 10.9752L132.079 10.9537L132.072 10.9465Z" fill="white" style="fill:white;fill-opacity:1;"/>
</svg>
