<svg width="200" height="56" viewBox="0 0 200 56" fill="none" xmlns="http://www.w3.org/2000/svg">
<g clip-path="url(#clip0_1_451)">
<path d="M86.1564 19.7445H78.7284V17.1875C78.7284 15.5355 78.9273 14.6261 79.4167 14.0493C79.9307 13.4423 80.7966 13.1847 82.3094 13.1847H86.1553V8.98914H81.8994C79.0558 8.98914 77.143 9.53234 75.877 10.6938C74.5653 11.9 73.9273 13.8555 73.9273 16.669V19.7445H69.7988V23.9389H73.9251V46.0701H78.7273V23.9389H86.1541V19.7456L86.1564 19.7445ZM97.7385 25.9728C99.2536 24.5504 101.712 24.0005 105.464 24.2413V19.3312C99.6793 19.3447 97.9106 20.8208 96.5184 23.7205C96.3061 24.1909 96.134 24.7621 95.9966 25.2235C95.8804 25.6055 95.7921 25.9056 95.7117 26.0434C95.6178 26.2024 95.5206 26.2495 95.3821 26.1968C95.2055 26.1296 95.2547 25.8362 95.315 25.5864C95.5262 24.7543 95.5597 22.932 95.5653 22.5747V19.7456H90.7653V46.0723H95.5675V33.4768C95.562 29.6968 96.2312 27.3818 97.7385 25.9706V25.9728ZM189.916 23.5234C193.422 23.5234 195.197 25.4979 195.197 29.3911V46.0712H200V30.0115C200 26.2215 199.124 23.3991 197.392 21.6216C195.911 20.1018 193.794 19.3312 191.102 19.3312C187.859 19.3312 185.216 21.3696 183.85 24.92C183.75 25.1731 183.631 25.3815 183.213 25.3815C182.885 25.3815 182.688 25.2235 182.625 24.9066C181.833 21.5712 179.146 19.3312 175.942 19.3312C174.316 19.3312 172.751 19.824 171.418 20.7592C169.936 21.7963 168.821 23.352 168.285 25.1339L168.257 25.2235C168.142 25.6055 168.052 25.9056 167.973 26.0434C167.878 26.2024 167.782 26.2495 167.644 26.1968C167.467 26.1296 167.516 25.8362 167.576 25.5864C167.784 24.7655 167.82 22.9522 167.826 22.5949V19.7445H163.026V46.0712H167.829V32.2885C167.829 29.82 168.544 27.5576 169.841 25.9191C171.048 24.3959 172.67 23.5267 174.296 23.5267C175.955 23.5267 177.197 24.0946 177.984 25.2123C178.745 26.2875 179.113 27.8578 179.113 30.0115V46.0712H183.916V31.1517C183.916 28.2755 184.95 26.4925 185.816 25.5035C186.913 24.2447 188.409 23.5234 189.916 23.5234ZM147.907 49.2711L159.315 19.7411H154.114L147.022 39.9515C146.85 40.4394 146.721 40.9416 146.638 41.4523C146.61 41.6276 146.588 41.804 146.574 41.981C146.563 42.1703 146.492 42.2643 146.366 42.2643C146.242 42.2643 146.173 42.1703 146.16 41.981C146.146 41.8239 146.125 41.6677 146.096 41.5128C145.995 40.9344 145.841 40.3664 145.637 39.816L138.33 19.7445H133.127L143.928 47.18L143.195 48.9653C142.772 50.0114 142.402 50.6655 141.664 51.1146C140.882 51.5917 139.678 51.8045 137.764 51.8045H135.467V56H138.797C143.502 55.9978 146.057 54.1117 147.907 49.2711ZM109.246 44.2826C110.925 45.7027 113.183 46.4811 115.611 46.4811C119.325 46.4811 122.408 44.8952 124.296 42.0168C124.573 41.5991 124.984 40.8386 125.245 40.2013C125.316 40.0109 125.366 39.8597 125.402 39.7522C125.436 39.6514 125.458 39.5887 125.477 39.5439C125.546 39.3893 125.67 39.3109 125.779 39.3579C125.878 39.3994 125.922 39.5192 125.913 39.7163C125.902 39.856 125.882 39.9948 125.852 40.1319C125.847 40.1655 125.839 40.1957 125.837 40.2181C125.676 41.188 125.599 43.0987 125.588 43.6867V46.0656H130.39V31.0408C130.39 28.7224 130.084 26.7311 129.478 25.1239C128.925 23.6533 128.104 22.4538 127.039 21.5578C125.252 20.0547 122.712 19.3256 119.264 19.3256C113.096 19.3256 109.249 22.0181 108.137 27.1096H112.838C113.134 25.9191 113.682 25.0936 114.566 24.5135C115.587 23.8448 117.055 23.5178 119.059 23.5178C121.559 23.5178 123.289 23.9669 124.346 24.8931C125.162 25.6055 125.557 26.5731 125.587 27.9351C125.607 28.9655 124.984 29.6128 123.632 29.9667C122.438 30.2803 120.768 30.3386 118.999 30.4002C118.009 30.4281 117.019 30.4759 116.031 30.5435C113.145 30.7519 110.985 31.4003 109.431 32.5349C107.562 33.8957 106.613 35.9845 106.613 38.7453C106.611 40.88 107.545 42.8467 109.246 44.2826ZM112.665 35.6787C113.451 35.0493 114.649 34.6282 116.322 34.384C117.032 34.2843 117.73 34.1981 118.401 34.1175C121.489 33.7434 124.155 33.4197 125.455 31.8248L125.588 31.6613L125.584 31.8719C125.56 34.9832 124.711 37.4808 123.058 39.2975C121.29 41.2384 119.076 41.8813 117.527 42.0807C117.027 42.1479 116.552 42.1815 116.101 42.1815C114.591 42.1815 113.378 41.8096 112.547 41.0805C111.812 40.4343 111.408 39.5159 111.408 38.4899C111.411 37.2703 111.822 36.3507 112.665 35.6787Z" fill="#00C58B" style="fill:#00C58B;fill:color(display-p3 0.0000 0.7725 0.5451);fill-opacity:1;"/>
<path d="M20.9419 21H34.9028V34.9989H20.9419V21Z" fill="#00C58B" style="fill:#00C58B;fill:color(display-p3 0.0000 0.7725 0.5451);fill-opacity:1;"/>
<path d="M37.7699 37.1124L50.5721 44.3711C54.0068 39.6074 55.8518 33.8776 55.8436 28C55.8425 12.5239 43.3531 3.27533e-05 27.9207 3.27533e-05C22.0583 -0.00897699 16.3432 1.84102 11.5933 5.28531L18.8336 18.1228C19.0179 18.4442 19.0179 18.7432 18.8526 18.9068C18.6883 19.0703 18.3956 19.068 18.0704 18.8877L5.26596 11.629C1.83322 16.3929 -0.00984721 22.1223 3.95696e-05 27.9989C3.95696e-05 43.4728 12.4894 55.9978 27.9218 55.9978C34.0179 55.9978 39.6593 54.0378 44.2492 50.7125L37.009 37.8751C36.8134 37.5648 36.8246 37.2535 36.9911 37.0911C37.1542 36.9264 37.4492 36.9253 37.7699 37.1124ZM36.828 47.0109C34.0421 48.3247 31.0006 49.0036 27.9218 48.9989C16.3553 49 6.97881 39.5965 6.97881 28C6.97881 24.8058 7.68942 21.7773 8.96205 19.0692L20.9397 21.0012L19.0123 8.99027C21.7982 7.67651 24.8397 6.99759 27.9185 7.00227C39.485 7.00003 48.8604 16.4036 48.8604 28C48.8604 31.1943 48.1498 34.2228 46.8783 36.9309L34.9006 34.9989L36.828 47.0109Z" fill="#00C58B" style="fill:#00C58B;fill:color(display-p3 0.0000 0.7725 0.5451);fill-opacity:1;"/>
</g>
<defs>
<clipPath id="clip0_1_451">
<rect width="200" height="56" fill="white" style="fill:white;fill-opacity:1;"/>
</clipPath>
</defs>
</svg>
