<svg width="200" height="55" viewBox="0 0 200 55" fill="none" xmlns="http://www.w3.org/2000/svg">
<g clip-path="url(#clip0_1_480)">
<path d="M24.5313 35.3577C26.5256 34.7827 32.8298 35.3577 32.8298 35.3577C34.0923 35.3577 35.1116 34.344 35.1136 33.0983V22.2758C35.1136 21.0293 34.0923 20.014 32.8326 20.014H21.9281C20.6684 20.014 19.6462 21.0293 19.6462 22.2758C19.6462 22.2758 20.1881 28.5747 19.6462 30.5817C18.861 33.4702 18.2222 34.2359 15.1605 34.9591C13.1421 35.4342 6.86439 34.9591 6.86439 34.9591C5.60471 34.9591 4.58203 35.9739 4.58203 37.2238V48.0401C4.58203 49.2919 5.60471 50.3038 6.86439 50.3038H17.7699C19.0262 50.3038 20.0499 49.2919 20.0499 48.0401C20.0499 48.0401 19.8938 41.8617 20.0523 39.8049C20.2416 37.3089 21.72 36.1737 24.5313 35.3577Z" fill="#00C58B" style="fill:#00C58B;fill:color(display-p3 0.0000 0.7725 0.5451);fill-opacity:1;"/>
<path d="M44.5061 40.0545C46.5004 39.4823 52.8046 40.0545 52.8046 40.0545C54.0652 40.0545 55.0865 39.0435 55.0865 37.7969V26.9716C55.0865 25.7274 54.0652 24.7131 52.806 24.7131H41.901C40.6408 24.7131 39.6191 25.7274 39.6191 26.9716C39.6191 26.9716 40.161 33.2743 39.6191 35.2765C38.8353 38.1669 38.1956 38.9322 35.1348 39.6558C33.115 40.1338 26.8373 39.6558 26.8373 39.6558C25.5791 39.6558 24.5549 40.6734 24.5549 41.9234V52.7358C24.5549 53.9915 25.5786 54.9995 26.8373 54.9995H37.7419C39.0001 54.9995 40.0228 53.9915 40.0228 52.7358C40.0228 52.7358 39.8677 46.5603 40.0237 44.5016C40.2159 42.0056 41.6929 40.8694 44.5061 40.0545Z" fill="#00C58B" style="fill:#00C58B;fill:color(display-p3 0.0000 0.7725 0.5451);fill-opacity:1;"/>
<path d="M19.9507 15.3413C21.9445 14.7687 28.2492 15.3413 28.2492 15.3413C29.5103 15.3413 30.5315 14.3304 30.5315 13.0833V2.25751C30.5315 1.01523 29.5103 0 28.2506 0H17.3456C16.0854 0 15.0632 1.01523 15.0632 2.25751C15.0632 2.25751 15.6061 8.56066 15.0632 10.5639C14.2799 13.4538 13.6397 14.219 10.5799 14.9427C8.55958 15.4202 2.28188 14.9427 2.28188 14.9427C1.02364 14.9427 0 15.9603 0 17.2102V28.0222C0 29.2779 1.02364 30.2869 2.28188 30.2869H13.1864C14.4447 30.2869 15.4669 29.2779 15.4669 28.0222C15.4669 28.0222 15.3122 21.8476 15.4683 19.7889C15.66 17.291 17.1379 16.1563 19.9507 15.3413Z" fill="#00C58B" style="fill:#00C58B;fill:color(display-p3 0.0000 0.7725 0.5451);fill-opacity:1;"/>
<path d="M46.3381 17.7245H39.2395C38.4182 17.7245 37.7549 17.0659 37.7549 16.2504V9.20544C37.7549 8.39383 38.4177 7.7323 39.241 7.7323H46.3381C47.1594 7.7323 47.8242 8.39383 47.8242 9.20544V16.2504C47.8227 17.0659 47.1579 17.7245 46.3381 17.7245Z" fill="#00C58B" style="fill:#00C58B;fill:color(display-p3 0.0000 0.7725 0.5451);fill-opacity:1;"/>
<path d="M79.1597 21.6764C78.4704 21.5975 77.7025 21.6764 77.3754 21.7581C77.1741 21.8404 76.8085 21.88 76.9732 22.1998C77.3754 22.9631 77.5802 23.8073 77.5802 24.6944C77.5802 28.5097 74.2164 31.2423 70.0871 31.2423C69.721 31.2423 69.3588 31.2853 69.154 31.2853C67.9401 31.4459 66.888 32.5715 66.6833 33.6537C66.6443 33.8573 66.7228 33.9778 66.9666 33.9357C68.3847 33.6164 70.3275 33.4549 71.1387 33.4549C75.149 33.4549 79.4001 34.9017 79.4001 39.0406C79.4001 41.3717 77.5797 43.3022 75.4722 44.2257C75.0266 44.4274 74.6215 44.4666 74.4201 44.1072L73.3652 42.4175C73.1638 42.0973 73.2862 41.8152 73.6918 41.5743C74.3811 41.1317 75.5546 40.0883 75.5546 39.162C75.5546 37.3528 73.6918 36.7505 71.2211 36.7505C69.5192 36.7505 66.9275 37.0708 64.9414 37.3528C64.2521 37.4742 64.0122 37.2735 63.8075 36.9494C63.2795 36.2276 62.9958 35.2645 62.9958 34.0963C62.9958 32.7321 64.0907 31.2031 65.5879 30.4407C65.8326 30.3202 65.8326 30.0784 65.5879 29.8786C64.0122 28.7529 62.9558 26.9419 62.9558 24.6949C62.9558 21.0761 66.3991 18.2216 70.0861 18.2216C71.8275 18.2216 73.487 18.7464 74.8252 19.6684C75.0261 19.8319 75.1885 19.7893 75.3498 19.6684C76.768 18.7459 77.8629 18.3028 79.1587 18.3028C79.6443 18.3028 79.7657 18.5456 79.7657 18.9447V21.1965C79.7667 21.5975 79.6838 21.719 79.1597 21.6764ZM70.328 21.5975C68.1419 21.5975 66.7233 23.1261 66.7233 24.8932C66.7233 26.6216 67.9801 28.1502 70.0871 28.1502C72.3955 28.1502 73.6923 26.6613 73.6923 24.8932C73.6923 23.1261 72.3131 21.5975 70.328 21.5975Z" fill="#00C58B" style="fill:#00C58B;fill:color(display-p3 0.0000 0.7725 0.5451);fill-opacity:1;"/>
<path d="M92.5715 21.7189C92.4891 22.239 92.2449 22.239 91.9212 22.1993C91.4766 22.1219 91.031 22.0406 90.6654 22.0406C87.7924 22.0406 86.8589 23.9286 86.8589 26.46V35.7037C86.8589 36.0661 86.658 36.2267 86.3319 36.2267H83.5384C83.1723 36.2267 82.9709 36.0661 82.9709 35.7439V19.026C82.9709 18.6632 83.1723 18.5021 83.4984 18.5021H85.9296C86.2519 18.5021 86.4537 18.6632 86.4537 18.9858V20.5541C86.4537 20.8356 86.6975 20.9532 86.8988 20.6726C87.7924 19.4681 89.4119 18.2206 91.4771 18.2206C91.8432 18.2206 92.4496 18.2626 92.7329 18.3812C93.218 18.5021 93.2565 18.7454 93.1785 19.1044L92.5715 21.7189Z" fill="#00C58B" style="fill:#00C58B;fill:color(display-p3 0.0000 0.7725 0.5451);fill-opacity:1;"/>
<path d="M107.976 36.2268H105.298C105.015 36.2268 104.857 36.0662 104.857 35.8234V35.2632C104.857 34.9008 104.612 34.8617 104.329 35.0997C103.52 35.744 101.979 36.428 100.319 36.428C96.3487 36.428 94.0808 34.1772 94.0808 30.2797C94.0808 26.539 96.5106 24.0889 100.683 24.0889C101.656 24.0889 102.991 24.3293 104.005 24.932C104.367 25.1744 104.612 25.0926 104.612 24.6935V24.1305C104.612 22.4814 103.643 21.3161 101.29 21.3161C100.199 21.3161 98.0911 21.7186 96.9995 22.2386C96.6729 22.4016 96.3882 22.2386 96.2663 21.9184L95.5385 20.1087C95.459 19.8305 95.5814 19.5495 95.8212 19.4281C97.4827 18.6623 99.7096 18.1805 101.777 18.1805C106.637 18.1805 108.418 20.7138 108.418 24.7332V35.744C108.418 36.0666 108.3 36.2268 107.976 36.2268ZM101.05 26.9037C98.8584 26.9037 97.645 28.3487 97.645 30.1588C97.645 32.0473 98.6581 33.4148 100.928 33.4148C103.113 33.4148 104.29 31.8045 104.29 30.1588C104.29 28.3879 103.152 26.9037 101.05 26.9037Z" fill="#00C58B" style="fill:#00C58B;fill:color(display-p3 0.0000 0.7725 0.5451);fill-opacity:1;"/>
<path d="M121.03 36.5068C119.242 36.5068 118.069 35.9447 117.462 35.4629C117.02 35.1417 116.735 35.0996 116.735 35.6627V42.9811C116.735 43.3013 116.571 43.461 116.248 43.461H113.452C113.089 43.461 112.924 43.3013 112.924 42.9381V19.026C112.924 18.7053 113.089 18.5447 113.452 18.5447H116.168C116.571 18.5447 116.571 18.7847 116.571 19.026V19.3869C116.571 19.7889 116.815 19.8701 117.1 19.6278C118.478 18.5447 119.771 18.3024 121.228 18.3024C125.647 18.3024 127.632 21.2783 127.632 25.0935V29.7166C127.632 33.3732 125.278 36.5068 121.03 36.5068ZM123.781 25.0931C123.781 23.0836 122.528 21.5976 120.258 21.5976C118.233 21.5976 116.735 23.1654 116.735 25.0931V29.7161C116.735 31.6438 118.194 33.2517 120.298 33.2517C122.403 33.2517 123.781 31.6443 123.781 29.7161V25.0931Z" fill="#00C58B" style="fill:#00C58B;fill:color(display-p3 0.0000 0.7725 0.5451);fill-opacity:1;"/>
<path d="M145.904 36.2267H143.067C142.704 36.2267 142.54 36.0661 142.54 35.7439V25.0931C142.54 23.044 141.405 21.5593 139.057 21.5593C136.953 21.5593 135.574 23.0832 135.574 25.0931C135.574 27.907 135.574 25.9377 135.534 35.7043C135.534 36.0666 135.37 36.2272 135.047 36.2272H132.21C131.846 36.2272 131.689 36.0666 131.689 35.7444C131.728 25.8985 131.728 29.5579 131.689 11.1489C131.689 10.7847 131.846 10.626 132.17 10.626H135.007C135.33 10.626 135.495 10.7847 135.495 11.1489V19.1862C135.495 19.5499 135.818 19.6675 136.142 19.4285C137.198 18.6628 138.616 18.2627 139.908 18.2627C144.162 18.2627 146.391 21.0345 146.391 25.0534L146.431 35.7043C146.431 36.0666 146.226 36.2267 145.904 36.2267Z" fill="#00C58B" style="fill:#00C58B;fill:color(display-p3 0.0000 0.7725 0.5451);fill-opacity:1;"/>
<path d="M164.59 21.0752C163.897 21.0346 163.008 21.1565 162.439 21.3171C162.196 21.3964 162.196 21.5159 162.281 21.6765C162.803 22.5216 163.086 23.5253 163.086 24.6128C163.086 28.5097 159.887 31.0426 156.161 31.0426C155.592 31.0426 154.947 31.0426 154.663 31.164C153.33 31.684 152.236 33.0123 152.196 34.2169C152.196 34.6203 152.276 34.7025 152.638 34.6203C154.136 34.256 156.404 34.0572 157.256 34.0572C161.061 34.0572 165.111 35.5041 165.111 39.3227C165.111 41.453 163.614 43.3023 161.629 44.1857C161.345 44.3453 161.107 44.2679 160.944 44.0251L160.256 42.9396C160.13 42.7398 160.171 42.54 160.454 42.4176C161.51 41.7341 162.518 40.6486 162.518 39.4441C162.518 37.111 159.405 36.309 157.334 36.309C155.638 36.309 153.37 36.6292 151.344 36.9495C150.777 37.0317 150.533 36.8281 150.368 36.591C149.966 35.9457 149.801 35.1833 149.801 34.2169C149.801 32.9306 150.817 31.3638 152.315 30.4809C152.678 30.2811 152.394 30.0393 152.149 29.8787C150.493 28.6708 149.517 26.942 149.517 24.695C149.517 21.3175 152.598 18.464 156.206 18.464C157.743 18.464 159.445 18.8674 160.618 19.8707C160.777 19.9931 160.862 19.9931 161.06 19.832C162.077 19.0658 163.329 18.5032 164.59 18.5032C165.032 18.464 165.157 18.6643 165.157 19.0271V20.6345C165.158 21.0346 165.032 21.1168 164.59 21.0752ZM156.326 20.5121C153.654 20.5121 151.911 22.5632 151.911 24.7734C151.911 26.941 153.37 29.0723 156.206 29.0723C159.162 29.0723 160.619 26.9855 160.619 24.7337C160.619 22.4819 158.799 20.5121 156.326 20.5121Z" fill="#00C58B" style="fill:#00C58B;fill:color(display-p3 0.0000 0.7725 0.5451);fill-opacity:1;"/>
<path d="M176.582 20.7143C176.541 20.9533 176.424 21.0752 176.218 21.0346C175.895 20.9954 175.572 20.9954 175.248 20.9954C172.531 21.0752 170.711 22.8853 170.711 25.7379V35.9051C170.711 36.1479 170.631 36.2272 170.389 36.2272H168.566C168.363 36.2272 168.199 36.1479 168.199 35.9452V19.0261C168.199 18.7847 168.324 18.7053 168.522 18.7053H170.103C170.348 18.7053 170.426 18.8229 170.426 19.0261V20.9141C170.426 21.2353 170.672 21.2353 170.791 21.0346C171.68 19.5887 173.508 18.463 175.652 18.463C175.935 18.463 176.218 18.5022 176.541 18.5447C176.787 18.5844 176.991 18.6633 176.951 18.9439L176.582 20.7143Z" fill="#00C58B" style="fill:#00C58B;fill:color(display-p3 0.0000 0.7725 0.5451);fill-opacity:1;"/>
<path d="M180.407 19.026C180.407 18.7846 180.532 18.6632 180.776 18.6632H182.596C182.841 18.6632 182.921 18.7846 182.921 19.026V35.905C182.921 36.1478 182.841 36.2271 182.596 36.2271H180.776C180.571 36.2271 180.407 36.1057 180.407 35.905V19.026Z" fill="#00C58B" style="fill:#00C58B;fill:color(display-p3 0.0000 0.7725 0.5451);fill-opacity:1;"/>
<path d="M199.671 36.2267H198.014C197.77 36.2267 197.692 36.1053 197.692 35.8654V34.939C197.692 34.658 197.408 34.5366 197.123 34.7794C196.314 35.6235 194.571 36.4279 192.626 36.4279C188.411 36.4279 186.267 33.7737 186.267 29.9556V25.1356C186.267 21.6765 188.536 18.463 192.783 18.463C194.895 18.463 196.273 19.2684 196.958 20.07C197.282 20.3897 197.487 20.1914 197.487 19.8697V10.9883C197.487 10.7474 197.565 10.626 197.81 10.626H199.631C199.874 10.626 200 10.7474 200 10.9457V35.9046C200 36.1058 199.915 36.2267 199.671 36.2267ZM197.527 25.0931C197.527 22.6425 195.707 20.6335 193.153 20.6335C190.192 20.6335 188.734 22.6821 188.734 25.1356V29.9169C188.734 32.4487 190.112 34.3372 193.153 34.3372C195.661 34.3372 197.488 32.4487 197.488 29.9561L197.527 25.0931Z" fill="#00C58B" style="fill:#00C58B;fill:color(display-p3 0.0000 0.7725 0.5451);fill-opacity:1;"/>
<path d="M182.564 17.6949H180.777C180.572 17.6949 180.407 17.5271 180.407 17.3211V15.5516C180.407 15.3442 180.572 15.1779 180.777 15.1779H182.564C182.776 15.1779 182.941 15.3447 182.941 15.5516V17.3211C182.941 17.5271 182.776 17.6949 182.564 17.6949Z" fill="#00C58B" style="fill:#00C58B;fill:color(display-p3 0.0000 0.7725 0.5451);fill-opacity:1;"/>
</g>
<defs>
<clipPath id="clip0_1_480">
<rect width="200" height="55" fill="white" style="fill:white;fill-opacity:1;"/>
</clipPath>
</defs>
</svg>
