<svg width="200" height="49" viewBox="0 0 200 49" fill="none" xmlns="http://www.w3.org/2000/svg">
<g clip-path="url(#clip0_1_512)">
<path d="M25.7948 33.9781H14.2595C14.0962 33.9781 13.9874 34.0324 13.8785 34.141C13.7697 34.2497 13.7153 34.3583 13.7153 34.5214V37.5092C13.7153 37.6721 13.7697 37.7807 13.8785 37.8894C13.9874 37.9981 14.0962 38.0523 14.2595 38.0523H21.714V42.018C20.789 42.67 19.7551 43.2131 18.6669 43.5934C17.2521 44.1367 15.7829 44.4082 14.2595 44.4082C12.5726 44.4082 10.9403 44.028 9.36233 43.3218C7.8932 42.67 6.69612 41.5291 5.93436 40.171C5.06376 38.487 4.68287 36.6399 4.73729 34.7386C4.73729 33.0546 5.06376 31.3706 5.7167 29.8495C6.0976 28.9802 6.69612 28.1655 7.34908 27.5135C8.11085 26.753 9.09027 26.1555 10.1241 25.7751C11.43 25.2862 12.7903 25.0689 14.205 25.1233C15.4021 25.1233 16.6536 25.3406 17.7962 25.7751C18.7212 26.1011 19.4831 26.6987 20.136 27.4049C20.789 28.274 21.2787 29.2519 21.5507 30.2841C21.6595 30.5557 21.9315 30.7186 22.2037 30.61L25.4683 29.7951C25.5772 29.7408 25.7405 29.6864 25.7948 29.5779C25.8493 29.4692 25.9037 29.3062 25.8493 29.1975C25.4683 27.6222 24.7066 26.1011 23.6728 24.8516C22.5845 23.6565 21.2243 22.7331 19.7007 22.1898C17.905 21.5379 16.0551 21.2663 14.1507 21.2663C11.5932 21.212 9.03587 21.7552 6.75054 22.896C4.57405 23.9825 2.83285 25.7209 1.7446 27.8938C0.601944 30.1211 0.00340471 32.5657 0.00340471 35.0645C-0.0510077 37.5092 0.547531 39.9538 1.7446 42.0724C2.94168 44.191 4.73729 45.875 6.91378 46.9072C9.25351 48.048 11.8653 48.5912 14.4771 48.5912C16.4903 48.5912 18.5036 48.2653 20.4625 47.5591C22.4757 46.8528 24.3801 45.8207 26.067 44.5169C26.1757 44.4082 26.2845 44.2453 26.2845 44.0824V34.6843C26.2845 34.1954 26.067 33.9781 25.7948 33.9781Z" fill="#00C58B" style="fill:#00C58B;fill:color(display-p3 0.0000 0.7725 0.5451);fill-opacity:1;"/>
<path d="M97.3728 33.9781H85.8374C85.6742 33.9781 85.5653 34.0324 85.4565 34.141C85.3477 34.2497 85.2932 34.3583 85.2932 34.5214V37.5092C85.2932 37.6721 85.3477 37.7807 85.4565 37.8894C85.5653 37.9981 85.6742 38.0523 85.8374 38.0523H93.2918V42.018C92.3668 42.67 91.3329 43.2131 90.2447 43.5934C88.83 44.1367 87.3609 44.4082 85.8374 44.4082C84.1506 44.4082 82.5182 44.028 80.9402 43.3218C79.4711 42.67 78.274 41.5291 77.5122 40.171C76.6416 38.487 76.2608 36.6399 76.3151 34.7386C76.3151 33.0546 76.6416 31.3706 77.2947 29.8495C77.6755 28.9802 78.274 28.1655 78.9269 27.5135C79.6888 26.753 80.6681 26.1555 81.702 25.7751C83.0079 25.2862 84.3682 25.0689 85.7829 25.1233C86.9801 25.1233 88.2315 25.3406 89.3742 25.7751C90.2992 26.1011 91.0609 26.6987 91.7139 27.4049C92.3668 28.274 92.8565 29.2519 93.1286 30.2841C93.2375 30.5557 93.5095 30.7186 93.7815 30.61L97.0463 29.7951C97.1551 29.7408 97.3183 29.6864 97.3728 29.5779C97.4272 29.4692 97.4815 29.3062 97.4272 29.1975C97.0463 27.6222 96.2845 26.1011 95.2507 24.8516C94.1624 23.6565 92.8021 22.7331 91.2786 22.1898C89.483 21.5379 87.6329 21.2663 85.7285 21.2663C83.1711 21.212 80.6138 21.7552 78.3284 22.896C76.152 23.9825 74.4107 25.7209 73.3225 27.8938C72.1798 30.1211 71.5813 32.5657 71.5813 35.0645C71.5269 37.5092 72.1255 39.9538 73.3225 42.0724C74.5196 44.191 76.3151 45.875 78.4917 46.9072C80.8313 48.048 83.4432 48.5912 86.055 48.5912C88.0683 48.5912 90.0815 48.2653 92.0403 47.5591C94.0536 46.8528 95.9581 45.8207 97.6448 44.5169C97.7537 44.4082 97.8625 44.2453 97.8625 44.0824V34.6843C97.8625 34.1954 97.6448 33.9781 97.3728 33.9781Z" fill="#00C58B" style="fill:#00C58B;fill:color(display-p3 0.0000 0.7725 0.5451);fill-opacity:1;"/>
<path d="M41.1163 29.1977C41.1163 29.1977 41.0618 29.1977 41.0618 29.1433C39.9736 28.4914 38.6677 28.1112 37.4161 28.1112C36.5456 28.1112 35.7294 28.3285 34.9677 28.8174C34.4779 29.1434 33.9882 29.6323 33.6618 30.1212V29.0347C33.6618 28.763 33.4441 28.4914 33.1176 28.4914H30.125C29.8528 28.4914 29.5808 28.7088 29.5808 29.0347V47.4505C29.5808 47.6135 29.6352 47.7221 29.744 47.8308C29.8528 47.9394 29.9617 47.9937 30.125 47.9937H33.4441C33.7161 47.9937 33.9882 47.7765 33.9882 47.4505V37.7809C33.9882 36.5858 34.1515 35.4449 34.5323 34.3041C34.6955 33.7065 35.0765 33.2176 35.5662 32.8374C36.0559 32.5114 36.6544 32.2941 37.253 32.2941C38.0147 32.2941 38.7765 32.5114 39.4294 32.8916C39.6471 33.0547 39.9736 32.946 40.1368 32.7287L40.1912 32.6201L41.3339 29.7409C41.4426 29.6323 41.3339 29.3606 41.1163 29.1977Z" fill="#00C58B" style="fill:#00C58B;fill:color(display-p3 0.0000 0.7725 0.5451);fill-opacity:1;"/>
<path d="M67.7376 21.5378H64.4184C64.1464 21.5378 63.8744 21.7552 63.8744 22.0811V29.9037C63.3846 29.5235 62.8949 29.1975 62.3508 28.9259C61.2626 28.3827 60.1199 28.1653 58.9228 28.1653C57.2905 28.1653 55.6581 28.6 54.2433 29.4148C52.8286 30.284 51.7404 31.5877 51.0874 33.1088C50.38 34.7386 50.0536 36.5312 50.0536 38.324C49.9992 40.1167 50.4345 41.9093 51.1962 43.5391C51.9036 45.0058 53.0463 46.2553 54.461 47.1244C55.8757 47.9937 57.4536 48.4282 59.086 48.4282C60.9361 48.4826 62.7317 47.8306 64.0919 46.5813V47.5047C64.0919 47.6677 64.1464 47.7764 64.2552 47.885C64.3641 47.9937 64.4729 48.0479 64.6361 48.0479H67.7376C68.0097 48.0479 68.2817 47.8306 68.2817 47.5047V22.0811C68.2274 21.7552 68.0097 21.5378 67.7376 21.5378ZM62.786 43.3218C61.9698 44.2996 60.664 44.8429 59.4125 44.8429C58.1067 44.8429 56.9096 44.2453 56.0934 43.2674C55.1684 42.1809 54.6242 40.4969 54.6242 38.324C54.6242 36.151 55.1139 34.3583 55.9846 33.3261C56.8008 32.3483 58.0522 31.8051 59.3037 31.8051C60.664 31.8051 61.9155 32.3483 62.7317 33.3805C63.6567 34.467 64.1464 36.2054 64.1464 38.5956C64.1464 40.6598 63.7111 42.2896 62.786 43.3218Z" fill="#00C58B" style="fill:#00C58B;fill:color(display-p3 0.0000 0.7725 0.5451);fill-opacity:1;"/>
<path fill-rule="evenodd" clip-rule="evenodd" d="M47.2586 26.1558H43.9393C43.6129 26.1558 43.3953 25.8843 43.3953 25.6126V22.0815C43.3953 21.7556 43.6673 21.5383 43.9393 21.5383H47.2586C47.585 21.5383 47.8026 21.8099 47.8026 22.0815V25.6126C47.8026 25.9385 47.5306 26.1558 47.2586 26.1558Z" fill="#00C58B" style="fill:#00C58B;fill:color(display-p3 0.0000 0.7725 0.5451);fill-opacity:1;"/>
<path fill-rule="evenodd" clip-rule="evenodd" d="M47.2046 47.9941H43.94C43.6135 47.9941 43.3413 47.7225 43.3413 47.3965V29.0894C43.3413 28.7634 43.6135 28.4917 43.94 28.4917H47.2046C47.5311 28.4917 47.8031 28.7634 47.8031 29.0894V47.3965C47.8031 47.7225 47.5311 47.9941 47.2046 47.9941Z" fill="#00C58B" style="fill:#00C58B;fill:color(display-p3 0.0000 0.7725 0.5451);fill-opacity:1;"/>
<path fill-rule="evenodd" clip-rule="evenodd" d="M190.886 0L187.567 1.84701L184.52 3.69404C183.595 4.23728 182.67 4.7805 181.691 5.37807L179.078 6.95347C179.132 7.33373 179.242 7.76833 179.296 8.20292C179.459 9.12643 179.568 10.1043 179.623 11.0821C179.623 11.408 179.677 11.7883 179.677 12.1142C179.677 12.3316 179.731 12.5488 179.731 12.7118C181.799 11.6797 183.867 10.6475 185.989 9.66967C188.492 8.47454 190.995 7.33373 193.552 6.19293C193.172 5.05212 192.736 3.91133 192.247 2.77052C191.811 1.90135 191.375 0.977832 190.886 0ZM175.542 9.01778L173.31 10.3759L171.243 11.734C169.937 12.5488 168.686 13.418 167.434 14.2329C167.434 14.6131 167.434 14.9934 167.325 15.428C167.271 15.6996 167.271 15.9712 167.217 16.2429C167.217 16.4058 167.217 16.5689 167.162 16.7318C167.054 17.6553 166.945 18.6331 166.782 19.6109C168.196 18.796 169.557 18.0356 170.972 17.2751C172.55 16.4058 174.128 15.5367 175.759 14.7218V13.0921C175.759 12.6032 175.759 12.1142 175.705 11.6253C175.705 10.8105 175.596 10.0499 175.542 9.23507V9.01778ZM158.62 20.4802C160.687 18.9591 162.755 17.4923 164.822 16.0256C164.768 16.4058 164.714 16.7861 164.659 17.1664V17.2751C164.605 17.6553 164.551 18.0356 164.496 18.4702C164.442 18.9047 164.332 19.3393 164.278 19.8282C164.224 20.3171 164.115 20.8061 164.006 21.295L162.211 22.3815L160.524 23.4679C159.49 24.1199 158.402 24.8261 157.368 25.5323C157.477 25.0977 157.64 24.6088 157.748 24.1742C157.858 23.7395 157.967 23.305 158.075 22.8704C158.293 22.0555 158.456 21.2406 158.62 20.4802ZM161.829 25.1519L163.68 24.1199V24.1742C163.571 24.7174 163.407 25.2606 163.244 25.8039C162.918 26.999 162.591 28.2485 162.211 29.4436C162.048 30.0954 161.829 30.7474 161.612 31.4536C160.361 31.9968 159 32.6487 157.858 33.192C156.715 33.7352 155.573 34.3327 154.485 34.876C154.702 34.224 154.919 33.6265 155.137 33.0289C155.355 32.4314 155.573 31.8882 155.736 31.2905C156.117 30.2585 156.443 29.172 156.769 28.1398C158.456 27.1077 160.144 26.1299 161.829 25.1519ZM160.687 34.9847C159.382 35.4736 158.13 35.9624 156.878 36.5057C155.627 37.0489 154.593 37.5378 153.45 38.0811C152.525 40.58 151.6 43.0788 150.675 45.5778C150.458 46.1754 150.24 46.7729 149.968 47.3705C149.805 47.6965 149.696 48.0767 149.532 48.457C150.077 48.294 150.675 48.131 151.22 47.9681C152.471 47.6421 153.667 47.3705 154.919 47.0989C155.573 46.9903 156.28 46.8272 156.932 46.7186C157.314 45.6321 157.64 44.5457 158.021 43.4592C158.347 42.427 158.674 41.3948 159 40.417C159.326 39.4392 159.599 38.5157 159.871 37.6465C160.088 36.886 160.361 36.1255 160.578 35.3649L160.687 34.9847ZM174.78 30.693C174.617 31.7252 174.454 32.8116 174.291 33.9525C174.128 34.9303 173.964 35.8538 173.8 36.886L173.692 37.5378C173.474 38.7873 173.256 40.0911 172.984 41.4492C172.713 42.8073 172.44 44.2741 172.114 45.7408C171.732 45.7408 171.298 45.7408 170.917 45.7408C170.155 45.7408 169.393 45.7408 168.686 45.7408C167.598 45.7408 166.509 45.795 165.584 45.8494C164.659 45.9037 163.68 45.9581 162.81 46.0123C161.939 46.0667 161.069 46.1754 160.251 46.2841C160.959 44.0568 161.612 41.8295 162.265 39.6022C162.81 37.7008 163.353 35.7995 163.843 33.8982C164.605 33.6265 165.421 33.3549 166.237 33.0833C167.108 32.8116 167.924 32.54 168.849 32.2685C170.807 31.7252 172.767 31.182 174.78 30.693ZM186.369 12.5488C189.036 11.408 191.702 10.3216 194.423 9.23507H194.477C194.967 10.9734 195.402 12.7661 195.729 14.5589C196.218 16.7861 196.6 19.0133 196.926 21.295C195.13 21.6753 193.28 22.1099 191.702 22.4901C190.124 22.8704 188.601 23.2506 187.131 23.5766C184.574 24.2285 182.017 24.9348 179.459 25.641C179.514 24.989 179.568 24.2285 179.568 23.5766C179.568 23.305 179.623 22.979 179.623 22.7075V22.4901C179.677 21.6753 179.731 20.8061 179.731 20.0999V17.7096V15.5367C180.656 15.102 181.582 14.7218 182.561 14.2872L182.887 14.1243C183.867 13.6896 184.847 13.3094 185.826 12.8748L186.369 12.5488ZM192.028 27.2706C193.771 26.999 195.62 26.673 197.579 26.4014C197.742 27.8681 197.905 29.2263 198.069 30.9103C198.232 32.5944 198.341 34.3327 198.504 36.0168C198.612 37.9182 198.775 39.8737 198.885 41.8295C198.994 43.9481 199.048 46.121 199.157 48.4027C196.654 48.0223 194.26 47.6965 192.191 47.4248C190.124 47.1532 188.056 46.9359 186.315 46.7186C184.574 46.5556 182.833 46.3927 181.309 46.2297C179.786 46.0667 178.372 46.0123 176.957 45.9581C177.447 42.9703 177.881 40.0368 178.263 37.0489C178.589 34.6044 178.861 32.1598 179.132 29.7152C180.33 29.4436 181.582 29.1719 182.942 28.9003C184.302 28.6287 185.663 28.3572 187.24 28.0855C188.492 27.8681 189.797 27.6509 191.212 27.3792C191.431 27.325 191.757 27.325 192.028 27.2706Z" fill="#00C58B" style="fill:#00C58B;fill:color(display-p3 0.0000 0.7725 0.5451);fill-opacity:1;"/>
<path fill-rule="evenodd" clip-rule="evenodd" d="M118.229 39.8396C118.175 41.5236 118.283 43.2078 118.447 44.8918C118.447 45.0004 118.555 45.4349 118.555 45.4893C118.719 46.0869 118.936 46.6844 119.263 47.1733C119.317 47.2277 119.317 47.3364 119.317 47.445C119.317 47.608 119.263 47.7166 119.154 47.8253C119.045 47.9339 118.936 47.9882 118.773 47.9882H115.291C115.073 47.9882 114.91 47.8796 114.855 47.7166C114.583 47.2277 114.366 46.6844 114.257 46.1412C113.332 46.8474 112.298 47.3907 111.21 47.7709C109.958 48.2055 108.652 48.4228 107.346 48.4228C105.442 48.5315 103.538 47.9882 102.014 46.7931C100.763 45.7609 100.055 44.2398 100.055 42.6102C100.055 41.6323 100.327 40.6545 100.817 39.8396C101.252 39.0248 101.905 38.3729 102.667 37.8839C103.483 37.395 104.299 37.0148 105.224 36.7975C106.204 36.5801 107.238 36.4172 108.271 36.3086C110.121 36.1456 111.971 35.8197 113.767 35.385C113.767 35.385 113.767 34.5702 113.767 34.3529C113.713 33.701 113.55 33.2121 112.842 32.6146C112.189 32.017 111.046 31.7453 109.523 31.7453C107.999 31.7453 106.857 32.017 106.204 32.5602C105.66 32.9948 105.061 33.9183 104.898 34.8419C104.844 35.1135 104.571 35.2764 104.299 35.2221L101.035 34.7875C100.871 34.7332 100.763 34.6788 100.708 34.5702C100.654 34.4615 100.599 34.2986 100.654 34.1899C100.926 32.9404 101.47 31.7997 102.232 30.8218C103.102 29.844 104.191 29.1922 105.442 28.8118C106.911 28.3229 108.489 28.1056 110.067 28.1056C111.536 28.0513 112.951 28.2686 114.366 28.7033C115.345 28.9749 116.216 29.518 116.923 30.2242C117.522 30.8762 117.902 31.6911 118.066 32.5602C118.229 33.5381 118.283 34.5702 118.229 35.5481V39.8396ZM104.626 42.5558C104.626 42.1212 104.735 41.741 105.007 41.3607C105.279 40.9805 105.66 40.7088 106.095 40.5458C107.02 40.2743 107.945 40.0569 108.87 39.9483C110.502 39.7854 112.135 39.4594 113.767 39.0248V39.4594C113.822 40.4372 113.658 41.415 113.277 42.3385C112.842 43.1534 112.135 43.8596 111.264 44.2942C110.285 44.7831 109.197 45.0547 108.054 45.0004C107.129 45.0547 106.204 44.8374 105.442 44.2942C104.898 43.914 104.626 43.262 104.626 42.5558Z" fill="#00C58B" style="fill:#00C58B;fill:color(display-p3 0.0000 0.7725 0.5451);fill-opacity:1;"/>
<path fill-rule="evenodd" clip-rule="evenodd" d="M144.872 30.5015C145.091 30.8274 145.688 31.751 145.961 32.8374C146.287 34.1412 146.233 35.5536 146.233 36.1512V47.4506C146.233 47.6135 146.179 47.7221 146.07 47.8308C145.961 47.9395 145.853 47.9938 145.688 47.9938H142.315C142.043 47.9938 141.772 47.7765 141.772 47.4506V36.3142C141.772 35.7166 141.717 34.5214 141.444 33.6523C141.227 33.109 140.791 32.6745 140.302 32.4028C139.649 32.0769 138.942 31.9139 138.234 31.9139C136.983 31.8596 135.787 32.2942 134.861 33.0547C133.936 33.7609 133.501 35.282 133.501 37.4549V47.5049C133.501 47.7765 133.283 48.0481 132.957 48.0481H129.637C129.474 48.0481 129.366 47.9938 129.256 47.8852C129.147 47.7765 129.093 47.6679 129.093 47.5049V29.089C129.093 28.8174 129.31 28.5459 129.637 28.5459H132.629C132.902 28.5459 133.174 28.7632 133.174 29.089V30.2841C134.698 28.8174 136.82 28.057 138.942 28.1112C140.139 28.1112 141.336 28.3286 142.425 28.7632C143.35 29.089 144.22 29.6866 144.872 30.5015Z" fill="#00C58B" style="fill:#00C58B;fill:color(display-p3 0.0000 0.7725 0.5451);fill-opacity:1;"/>
<path fill-rule="evenodd" clip-rule="evenodd" d="M125.198 26.1557H121.879C121.552 26.1557 121.335 25.884 121.335 25.6124V22.0814C121.335 21.7554 121.607 21.5382 121.879 21.5382H125.198C125.524 21.5382 125.742 21.8098 125.742 22.0814V25.6124C125.742 25.9384 125.524 26.1557 125.198 26.1557Z" fill="#00C58B" style="fill:#00C58B;fill:color(display-p3 0.0000 0.7725 0.5451);fill-opacity:1;"/>
<path fill-rule="evenodd" clip-rule="evenodd" d="M125.198 47.9941H121.933C121.607 47.9941 121.335 47.7225 121.335 47.3965V29.0894C121.335 28.7634 121.607 28.4917 121.933 28.4917H125.198C125.524 28.4917 125.796 28.7634 125.796 29.0894V47.3965C125.742 47.7225 125.47 47.9941 125.198 47.9941Z" fill="#00C58B" style="fill:#00C58B;fill:color(display-p3 0.0000 0.7725 0.5451);fill-opacity:1;"/>
</g>
<defs>
<clipPath id="clip0_1_512">
<rect width="200" height="49" fill="white" style="fill:white;fill-opacity:1;"/>
</clipPath>
</defs>
</svg>
