<svg width="201" height="47" viewBox="0 0 201 47" fill="none" xmlns="http://www.w3.org/2000/svg">
<g clip-path="url(#clip0_1_465)">
<path d="M68.0278 36.47V25.6592H58.571V36.47H53.7559V10.835H58.571V21.3795H68.0278V10.835H72.8429V36.47H68.0278Z" fill="white" style="fill:white;fill-opacity:1;"/>
<path d="M90.4951 36.47H86.6719L86.3252 35.2016C84.6727 36.2815 82.7443 36.8566 80.7734 36.8573C77.3643 36.8573 75.9102 34.5092 75.9102 31.2752C75.9102 27.4651 77.5569 26.003 81.3464 26.003H85.8245V24.0374C85.8245 21.9604 85.2515 21.2294 82.2661 21.2294C80.5297 21.2415 78.7989 21.428 77.0995 21.7861L76.5265 18.2084C78.6094 17.6287 80.7598 17.3307 82.9209 17.3224C88.7761 17.3224 90.4999 19.3993 90.4999 24.1003L90.4951 36.47ZM85.8245 29.3871H82.3817C80.8505 29.3871 80.4315 29.8083 80.4315 31.2365C80.4315 32.5436 80.8505 33.1246 82.3094 33.1246C83.545 33.1046 84.7556 32.7716 85.8293 32.1563L85.8245 29.3871Z" fill="white" style="fill:white;fill-opacity:1;"/>
<path d="M99.5328 36.8525C97.347 36.8164 95.1788 36.4525 93.0999 35.7728L93.7499 32.1951C95.5559 32.7146 97.4233 32.9865 99.3017 33.0036C101.367 33.0036 101.676 32.5194 101.676 31.1154C101.676 29.9632 101.444 29.3822 98.4205 28.6512C93.8654 27.5328 93.331 26.3806 93.331 22.7641C93.331 18.9927 94.9777 17.3369 100.298 17.3369C102.181 17.3386 104.056 17.5579 105.889 17.9905L105.407 21.7232C103.715 21.4091 102 21.2294 100.279 21.1858C98.252 21.1858 97.9053 21.6699 97.9053 22.8028C97.9053 24.3036 98.0209 24.4198 100.549 25.0734C105.768 26.4629 106.269 27.1552 106.269 30.9847C106.269 34.6206 105.157 36.8525 99.5328 36.8525Z" fill="white" style="fill:white;fill-opacity:1;"/>
<path d="M120.166 36.47V23.3983C120.166 22.3962 119.747 21.8975 118.673 21.8975C117.527 21.8975 115.495 22.5898 113.81 23.4758V36.47H109.139V10.0652L113.81 9.41162V19.1476C115.924 18.0564 118.249 17.4386 120.623 17.3369C123.724 17.3369 124.832 19.5301 124.832 22.8803V36.47H120.166Z" fill="white" style="fill:white;fill-opacity:1;"/>
<path d="M128.279 15.0712V9.64404H132.95V15.0712H128.279ZM128.279 36.4701V17.7243H132.95V36.4701H128.279Z" fill="white" style="fill:white;fill-opacity:1;"/>
<path d="M136.205 17.8792C136.205 13.183 138.921 10.4525 145.276 10.4525C147.612 10.452 149.938 10.7365 152.205 11.2998L151.676 15.4924C149.611 15.099 147.517 14.8804 145.416 14.8388C142.084 14.8388 141.015 15.9959 141.015 18.7119V28.5641C141.015 31.2946 142.089 32.4372 145.416 32.4372C147.517 32.3956 149.611 32.177 151.676 31.7836L152.21 35.981C149.943 36.5443 147.617 36.8288 145.281 36.8283C138.925 36.8283 136.21 34.0978 136.21 29.4016L136.205 17.8792Z" fill="white" style="fill:white;fill-opacity:1;"/>
<path d="M161.787 36.8525C155.393 36.8525 153.674 33.3135 153.674 29.4646V24.7297C153.674 20.8808 155.398 17.3418 161.787 17.3418C168.177 17.3418 169.901 20.8808 169.901 24.7297V29.4646C169.886 33.3135 168.167 36.8525 161.787 36.8525ZM161.787 21.3601C159.298 21.3601 158.344 22.4785 158.344 24.5942V29.6195C158.344 31.7352 159.307 32.8535 161.787 32.8535C164.267 32.8535 165.23 31.7352 165.23 29.6195V24.5748C165.22 22.4591 164.262 21.3408 161.787 21.3408V21.3601Z" fill="white" style="fill:white;fill-opacity:1;"/>
<path d="M182.29 21.6506C180.576 22.4315 178.924 23.3444 177.35 24.3811V36.4845H172.679V17.7242H176.623L176.931 19.8012C178.45 18.7669 180.098 17.9383 181.833 17.3369L182.29 21.6506Z" fill="white" style="fill:white;fill-opacity:1;"/>
<path d="M200 30.2344C200 34.3931 198.161 36.8525 193.837 36.8525C192.164 36.8349 190.496 36.6533 188.858 36.3103V44.0565L184.187 44.7101V17.7243H187.9L188.381 19.3026C190.083 18.025 192.151 17.3369 194.275 17.3418C198.026 17.3418 200.015 19.5737 200.015 23.8486L200 30.2344ZM188.863 32.3501C190.222 32.6508 191.607 32.813 192.999 32.8342C194.684 32.8342 195.334 32.0257 195.334 30.3312V23.7227C195.334 22.1832 194.761 21.336 193.037 21.336C191.491 21.3919 190.014 21.9916 188.863 23.0304V32.3501Z" fill="white" style="fill:white;fill-opacity:1;"/>
<path d="M18.4033 0L0 10.6752V10.6801V36.3103L6.91448 40.3238V14.6887L18.4033 8.0173V0Z" fill="white" style="fill:white;fill-opacity:1;"/>
<path d="M25.7463 0V20.416H18.4033V12.7957L11.4888 16.8092V42.9671L18.4033 46.9903V26.6324H25.7463V34.1994L32.6608 30.1908V4.01349L25.7463 0Z" fill="white" style="fill:white;fill-opacity:1;"/>
<path d="M25.7463 47L44.1497 36.3248V36.3151V10.6898L37.2352 6.67627V32.3113L25.7463 38.9827V47Z" fill="white" style="fill:white;fill-opacity:1;"/>
</g>
<defs>
<clipPath id="clip0_1_465">
<rect width="201" height="47" fill="white" style="fill:white;fill-opacity:1;"/>
</clipPath>
</defs>
</svg>
