<svg width="201" height="41" viewBox="0 0 201 41" fill="none" xmlns="http://www.w3.org/2000/svg">
<g clip-path="url(#clip0_1_498)">
<path d="M31.201 39.1773H23.8155V23.5179H7.34008V39.1773H0V1.43701H7.34576V16.6024H23.8212V1.43701H31.2067L31.201 39.1773Z" fill="#00C58B" style="fill:#00C58B;fill:color(display-p3 0.0000 0.7725 0.5451);fill-opacity:1;"/>
<path d="M35.7913 4.41784C35.7823 3.84073 35.8899 3.26773 36.1075 2.73312C36.3252 2.19851 36.6486 1.71327 37.0582 1.30641C37.4537 0.886849 37.9322 0.554088 38.4632 0.329272C38.9943 0.104456 39.5664 -0.00749907 40.1431 0.000521577C40.7182 -0.00852302 41.289 0.100149 41.8205 0.319849C42.352 0.53955 42.8329 0.865631 43.2336 1.27802C43.6502 1.68624 43.9785 2.17548 44.1984 2.71553C44.4182 3.25558 44.5249 3.83495 44.5119 4.41784C44.5172 4.98365 44.4065 5.54455 44.1867 6.06599C43.9668 6.58743 43.6425 7.05837 43.2336 7.44978C42.4144 8.26768 41.3039 8.72711 40.1459 8.72711C38.988 8.72711 37.8774 8.26768 37.0582 7.44978C36.6514 7.05739 36.3292 6.58602 36.1113 6.06463C35.8934 5.54324 35.7845 4.98283 35.7913 4.41784ZM43.7108 39.1772H36.6321V12.9856H43.7108V39.1772Z" fill="#00C58B" style="fill:#00C58B;fill:color(display-p3 0.0000 0.7725 0.5451);fill-opacity:1;"/>
<path d="M65.0609 12.8778V20.0091C64.3596 19.8671 63.646 19.7948 62.9305 19.7933C61.1387 19.7041 59.3825 20.3149 58.0333 21.4967C56.7872 22.6322 56.1661 24.5248 56.1699 27.1744V39.1773H49.0854V12.9857H55.954V16.8693C57.2341 14.1364 59.7187 12.7699 63.4077 12.7699C63.7997 12.7699 64.3508 12.804 65.0609 12.8778Z" fill="#00C58B" style="fill:#00C58B;fill:color(display-p3 0.0000 0.7725 0.5451);fill-opacity:1;"/>
<path d="M164.186 39.2057V36.3668C163.498 37.5488 162.443 38.4739 161.181 39.0013C159.846 39.5852 158.405 39.883 156.948 39.8756C153.858 39.8756 151.426 38.8915 149.653 36.9232C147.851 34.8955 146.897 32.2529 146.989 29.5421V13.0254H154.073V28.134C154.009 29.5076 154.443 30.8583 155.295 31.9381C155.739 32.4379 156.291 32.8297 156.909 33.0835C157.527 33.3374 158.196 33.4467 158.863 33.403C159.531 33.4371 160.199 33.3292 160.823 33.0865C161.447 32.8438 162.012 32.4717 162.482 31.9949C163.4 30.9667 163.878 29.6187 163.811 28.2419V13.0254H170.895V39.2057H164.186Z" fill="#00C58B" style="fill:#00C58B;fill:color(display-p3 0.0000 0.7725 0.5451);fill-opacity:1;"/>
<path d="M124.139 9.77764L121.1 1.11902H112.993L115.743 8.55692L124.139 9.77764Z" fill="#00C58B" style="fill:#00C58B;fill:color(display-p3 0.0000 0.7725 0.5451);fill-opacity:1;"/>
<path d="M140.967 1.11902L131.031 29.3944L126.429 16.2957L120.657 21.8486L127.059 39.1602H134.684L148.801 1.11902H140.967Z" fill="#00C58B" style="fill:#00C58B;fill:color(display-p3 0.0000 0.7725 0.5451);fill-opacity:1;"/>
<path fill-rule="evenodd" clip-rule="evenodd" d="M106.289 28.0829L95.6311 33.5903L97.6706 21.9168L89.0466 13.65L100.96 11.9466L106.289 1.32349L111.618 11.9466L123.531 13.65L114.913 21.9168L116.947 33.5903L106.289 28.0829Z" fill="#00C58B" style="fill:#00C58B;fill:color(display-p3 0.0000 0.7725 0.5451);fill-opacity:1;"/>
<path d="M193.228 31.0126C192.154 32.9544 190.331 33.9366 187.757 33.9366C186.07 33.9698 184.433 33.3609 183.178 32.2333C182.561 31.7049 182.062 31.0527 181.714 30.3191C181.365 29.5854 181.175 28.7868 181.156 27.9749H199.903L199.96 27.6059C199.96 27.3901 199.96 27.1062 199.989 26.7542C200.017 26.4022 199.989 26.0786 199.989 25.7947C199.989 21.5742 198.852 18.2565 196.58 15.8415C194.307 13.4266 191.139 12.221 187.075 12.2248C185.383 12.2135 183.705 12.5504 182.149 13.2146C180.592 13.8788 179.188 14.8561 178.025 16.0857C175.469 18.6596 174.19 21.966 174.19 26.0047C174.19 30.2631 175.503 33.6698 178.127 36.2248C179.391 37.4654 180.889 38.441 182.535 39.0943C184.181 39.7476 185.941 40.0654 187.712 40.0289C190.802 40.0289 193.385 39.2491 195.461 37.6896C197.152 36.4472 198.465 34.761 199.256 32.8181L193.228 31.0126ZM183.002 19.5661C183.549 19.0319 184.2 18.6149 184.914 18.3406C185.628 18.0662 186.39 17.9404 187.155 17.9707C189.049 17.9707 190.476 18.4684 191.438 19.4639C192.409 20.4431 192.972 21.7541 193.012 23.1318H181.315C181.406 21.7694 182.016 20.4937 183.019 19.5661H183.002Z" fill="#00C58B" style="fill:#00C58B;fill:color(display-p3 0.0000 0.7725 0.5451);fill-opacity:1;"/>
<path d="M84.695 31.0126C83.6155 32.9374 81.8032 33.9083 79.241 33.9083C77.5538 33.9415 75.9169 33.3326 74.662 32.205C74.045 31.6766 73.5461 31.0244 73.1976 30.2908C72.8492 29.5571 72.6591 28.7585 72.6395 27.9466H91.3874L91.4442 27.5719C91.4442 27.3618 91.4442 27.0779 91.4442 26.7202C91.4442 26.3625 91.4726 26.0503 91.4726 25.7664C91.4884 24.0737 91.2627 22.3875 90.8022 20.7586L82.3259 12.6109C81.082 12.3206 79.8082 12.1777 78.5309 12.1851C76.8385 12.1734 75.1619 12.5096 73.605 13.1728C72.0481 13.836 70.6443 14.8121 69.4808 16.0403C66.9243 18.618 65.646 21.9263 65.646 25.9651C65.646 30.2234 66.9583 33.6301 69.583 36.1851C70.8461 37.4257 72.3447 38.4014 73.9906 39.0547C75.6366 39.708 77.3966 40.0257 79.1672 39.9892C81.9429 40.0785 84.67 39.2459 86.922 37.6216C88.6017 36.3862 89.9087 34.7126 90.7 32.7841L84.695 31.0126ZM74.4689 19.5265C75.0161 18.9923 75.6667 18.5752 76.3808 18.3009C77.0948 18.0266 77.8574 17.9007 78.6218 17.931C80.5155 17.931 81.9434 18.4288 82.9054 19.4243C83.876 20.4035 84.4385 21.7144 84.4791 23.0921H72.7815C72.8734 21.7297 73.4832 20.454 74.4859 19.5265H74.4689Z" fill="#00C58B" style="fill:#00C58B;fill:color(display-p3 0.0000 0.7725 0.5451);fill-opacity:1;"/>
</g>
<defs>
<clipPath id="clip0_1_498">
<rect width="201" height="41.0005" fill="white" style="fill:white;fill-opacity:1;"/>
</clipPath>
</defs>
</svg>
