<svg width="200" height="47" viewBox="0 0 200 47" fill="none" xmlns="http://www.w3.org/2000/svg">
<g clip-path="url(#clip0_1_524)">
<mask id="mask0_1_524" style="mask-type:luminance" maskUnits="userSpaceOnUse" x="0" y="0" width="63" height="47">
<path d="M5.52081 29.375C2.48433 29.375 0 26.7313 0 23.5C0 20.2674 2.48433 17.625 5.52081 17.625H57.3549C60.3914 17.625 62.8758 20.2674 62.8758 23.5C62.8758 26.7313 60.3914 29.375 57.3549 29.375H5.52081ZM47.3793 11.75H15.8895C13.2021 11.75 11.0033 9.10625 11.0033 5.875C11.0033 2.64375 13.2021 0 15.8895 0H47.3793C50.0668 0 52.2655 2.64375 52.2655 5.875C52.2655 9.10625 50.0668 11.75 47.3793 11.75ZM37.3901 47H47.3793C50.0668 47 52.2655 44.3563 52.2655 41.125C52.2655 37.8938 50.0668 35.25 47.3793 35.25H15.8895C13.2021 35.25 11.0033 37.8938 11.0033 41.125C11.0033 44.3563 13.2021 47 15.8895 47H26.2717C27.0808 44.7181 29.2643 43.0833 31.8309 43.0833C34.3975 43.0833 36.5809 44.7181 37.3901 47Z" fill="white" style="fill:white;fill-opacity:1;"/>
</mask>
<g mask="url(#mask0_1_524)">
<path d="M5.52081 29.375C2.48433 29.375 0 26.7313 0 23.5C0 20.2674 2.48433 17.625 5.52081 17.625H57.3549C60.3914 17.625 62.8758 20.2674 62.8758 23.5C62.8758 26.7313 60.3914 29.375 57.3549 29.375H5.52081ZM47.3793 11.75H15.8895C13.2021 11.75 11.0033 9.10625 11.0033 5.875C11.0033 2.64375 13.2021 0 15.8895 0H47.3793C50.0668 0 52.2655 2.64375 52.2655 5.875C52.2655 9.10625 50.0668 11.75 47.3793 11.75ZM37.3901 47H47.3793C50.0668 47 52.2655 44.3563 52.2655 41.125C52.2655 37.8938 50.0668 35.25 47.3793 35.25H15.8895C13.2021 35.25 11.0033 37.8938 11.0033 41.125C11.0033 44.3563 13.2021 47 15.8895 47H26.2717C27.0808 44.7181 29.2643 43.0833 31.8309 43.0833C34.3975 43.0833 36.5809 44.7181 37.3901 47Z" fill="#00C58B" style="fill:#00C58B;fill:color(display-p3 0.0000 0.7725 0.5451);fill-opacity:1;"/>
</g>
<path d="M193.736 26.6838C193.599 22.8359 191 17.8883 184.555 17.8883C178.521 17.8883 175.609 22.6983 175.266 26.6838H193.736ZM199.999 28.5259C199.999 30.4235 198.472 31.826 196.511 31.826H174.808C175.281 36.7053 179.172 41.0627 185.258 41.0627C187.625 41.0627 190.33 40.3173 192.561 38.8939C193.034 38.6231 193.576 38.4874 194.049 38.4874C195.536 38.4874 197.092 39.7072 197.092 41.4692C197.092 45.1963 188.707 46.8903 184.514 46.8903C174.71 46.8903 167.407 40.0459 167.407 29.6779C167.407 20.1907 174.304 12.5333 183.973 12.5333C191.615 12.5333 197.159 17.1414 199.188 24.1889C199.593 25.5443 199.999 27.103 199.999 28.5259ZM162.797 16.222C162.797 14.3072 161.28 12.5975 159.004 12.5975C157.556 12.5975 156.177 13.4183 155.625 14.8543L147.028 37.9917L137.903 14.786C137.351 13.4183 136.041 12.5975 134.523 12.5975C132.317 12.5975 130.8 14.3755 130.8 16.1538C130.8 16.564 130.868 17.0427 131.075 17.453L141.558 42.9618C142.385 45.0138 144.615 46.9541 146.89 46.9541H147.028C149.304 46.9541 151.143 45.0138 152.039 42.9618L162.521 17.453C162.728 17.0427 162.797 16.564 162.797 16.222ZM122.661 43.1523V16.3538C122.661 14.4299 120.766 12.5975 118.731 12.5975C116.405 12.5975 114.801 14.4299 114.801 16.3538V43.1523C114.801 45.1446 116.7 46.9541 118.881 46.9541C121.061 46.9541 122.661 45.1446 122.661 43.1523ZM118.731 0C116.588 0 114.801 1.73391 114.801 3.8869C114.801 6.09943 116.588 7.83333 118.731 7.83333C120.874 7.83333 122.661 6.09943 122.661 3.8869C122.661 1.73391 120.874 0 118.731 0ZM106.889 42.7665V3.96014C106.889 1.84357 105.171 0 102.972 0C100.567 0 99.0293 1.84357 99.0293 3.96014V18.8H74.6649V3.96014C74.6649 1.84357 72.9338 0 70.7352 0C68.3989 0 66.8054 1.84357 66.8054 3.96014V42.7665C66.8054 44.9516 68.5365 46.9541 70.7352 46.9541C73.0714 46.9541 74.6649 44.9516 74.6649 42.7665V25.4672H99.0293V42.7665C99.0293 44.9516 100.705 46.9541 102.972 46.9541C105.309 46.9541 106.889 44.9516 106.889 42.7665Z" fill="#00C58B" style="fill:#00C58B;fill:color(display-p3 0.0000 0.7725 0.5451);fill-opacity:1;"/>
</g>
<defs>
<clipPath id="clip0_1_524">
<rect width="200" height="47" fill="white" style="fill:white;fill-opacity:1;"/>
</clipPath>
</defs>
</svg>
