<svg width="200" height="31" viewBox="0 0 200 31" fill="none" xmlns="http://www.w3.org/2000/svg">
<g clip-path="url(#clip0_1_596)">
<path d="M38.8223 3.16889L38.343 2.54889L30.3321 7.57778C29.442 7.30222 27.7302 6.88889 25.95 7.30222C24.3752 7.64667 23.2112 8.54222 22.3896 10.1267C21.9788 10.9533 21.6364 11.9178 21.2941 13.02C21.1571 13.5711 20.9517 14.0533 20.8148 14.6044C20.6778 14.9489 20.5409 15.2933 20.404 15.6378C13.8309 14.3289 10.3389 8.95556 11.0921 1.03333L11.1606 0L10.1335 0.275556C10.065 0.275556 8.14789 0.757778 6.02533 2.41111C2.19103 5.37333 0 9.85111 0 14.6733C0 18.2556 1.23245 21.5622 3.28655 24.18C3.42349 24.3867 3.56042 24.5244 3.69736 24.6622C6.50462 27.9689 10.6813 30.1044 15.3372 30.1044C19.3085 30.1044 22.9373 28.7267 25.4707 26.1778C27.5248 24.1111 29.0996 21.4244 29.9897 18.1178C30.7429 15.5 31.1537 12.4689 31.2222 9.02444L38.8223 3.16889ZM4.79288 23.6289C3.69736 22.32 2.80726 20.8044 2.2595 19.1511C4.72441 21.0111 8.14789 22.1133 11.8453 22.1133C12.0507 22.1133 12.2561 22.1133 12.393 22.1133C14.3786 22.0444 16.1588 21.7 17.5967 21.1489C15.9534 23.4911 14.1048 24.8 11.8453 25.2822C7.80554 26.1089 5.68298 24.5244 4.79288 23.6289ZM6.98391 3.58222C7.94248 2.82444 8.83259 2.34222 9.51729 2.06667C9.38035 6.13111 10.2705 9.64444 12.1876 12.2622C13.9678 14.6044 16.4327 16.2578 19.5139 16.9467C16.4327 17.7044 12.5984 17.0156 9.44882 15.0178C6.36768 13.1578 4.38206 10.3333 3.76583 7.09556C4.65594 5.71778 5.75145 4.54667 6.98391 3.58222ZM2.73879 9.02444C3.69736 11.9867 5.75145 14.5356 8.69565 16.3956C11.229 17.98 14.2417 18.8067 17.049 18.8067C17.7337 18.8067 18.4183 18.7378 19.0346 18.6689C17.9391 19.7711 15.3372 20.5289 12.393 20.5978C7.87402 20.7356 3.90277 19.22 1.64327 16.5333C1.30092 13.9844 1.64327 11.3667 2.73879 9.02444ZM24.4437 25.0756C22.1842 27.3489 18.9661 28.5889 15.3372 28.5889C13.0777 28.5889 10.8182 28.0378 8.83259 26.9356C9.10647 26.9356 9.38035 27.0044 9.65423 27.0044C10.4759 27.0044 11.2975 26.9356 12.1191 26.7289C16.5012 25.8333 19.7193 22.1133 22.1842 15.0867C22.3896 14.5356 22.5265 13.9844 22.7319 13.5022C23.0743 12.4689 23.3482 11.5733 23.6905 10.8844C24.3067 9.71333 25.1284 9.09333 26.2239 8.81778C27.5248 8.54222 28.8942 8.81778 29.6474 9.02444C29.5789 12.2622 29.2366 15.2244 28.4834 17.7044C27.7302 20.7356 26.2924 23.2156 24.4437 25.0756ZM58.4731 25.0067H55.392V17.2222H47.3126V25.0067H44.2314V6.82H47.3126V14.3289H55.392V6.82H58.4731V25.0067ZM62.4444 24.0422C61.4858 23.0778 61.1434 21.7 61.1434 20.1156V11.78H64.1561V19.7022C64.1561 20.5978 64.3615 21.3556 64.7723 21.8378C65.1832 22.3889 65.8679 22.6644 66.8264 22.6644C67.7165 22.6644 68.5382 22.32 69.0859 21.6311C69.5652 21.08 69.8391 20.2533 69.8391 19.0133V11.78H72.8518V25.0067H70.5238V22.3889H70.1814C69.4967 24.3178 67.785 25.3511 65.8678 25.3511C64.43 25.3511 63.266 24.8689 62.4444 24.0422ZM95.7891 16.6711V25.0067H92.7764V17.0844C92.7764 16.1889 92.571 15.4311 92.1602 14.9489C91.7494 14.3978 91.1332 14.1222 90.2431 14.1222C89.353 14.1222 88.5998 14.4667 87.9836 15.1556C87.5727 15.7067 87.3673 16.4644 87.3673 17.4289V25.0067H84.2177V17.0844C84.2177 16.1889 84.0123 15.4311 83.6015 14.9489C83.1907 14.3978 82.5745 14.1222 81.6843 14.1222C80.7942 14.1222 79.9726 14.4667 79.4249 15.1556C79.014 15.7067 78.8086 16.4644 78.8086 17.4289V25.0067H75.796V11.78H78.1924V14.3978H78.5347C79.0825 12.7444 80.3834 11.4356 82.6429 11.4356C84.6285 11.4356 86.2034 12.4689 86.8196 14.26C87.4358 12.6067 89.1476 11.4356 91.1332 11.4356C92.571 11.4356 93.735 11.9178 94.5567 12.7444C95.3783 13.64 95.7891 15.0178 95.7891 16.6711ZM118.453 16.6711V25.0067H115.44V17.0844C115.44 16.1889 115.234 15.4311 114.824 14.9489C114.413 14.3978 113.797 14.1222 112.907 14.1222C112.016 14.1222 111.263 14.4667 110.647 15.1556C110.236 15.7067 110.031 16.4644 110.031 17.4289V25.0067H107.018V17.0844C107.018 16.1889 106.813 15.4311 106.402 14.9489C105.991 14.3978 105.375 14.1222 104.485 14.1222C103.595 14.1222 102.841 14.4667 102.225 15.1556C101.814 15.7067 101.609 16.4644 101.609 17.4289V25.0067H98.5964V11.78H100.993V14.3978H101.335C101.883 12.7444 103.184 11.4356 105.443 11.4356C107.429 11.4356 109.004 12.4689 109.62 14.26C110.236 12.6067 111.948 11.4356 113.934 11.4356C115.371 11.4356 116.535 11.9178 117.357 12.7444C118.042 13.64 118.453 15.0178 118.453 16.6711ZM120.986 7.64667C120.986 6.47556 121.808 5.71778 122.903 5.71778C123.999 5.71778 124.82 6.47556 124.82 7.64667C124.82 8.74889 124.067 9.50667 122.903 9.50667C121.739 9.50667 120.986 8.74889 120.986 7.64667ZM121.397 11.78H124.409V25.0067H121.397V11.78ZM137.966 12.7444C138.925 13.7089 139.267 15.0867 139.267 16.6711V25.0067H136.255V17.0844C136.255 16.1889 136.049 15.4311 135.638 14.9489C135.228 14.3978 134.543 14.1222 133.584 14.1222C132.694 14.1222 131.873 14.4667 131.325 15.1556C130.846 15.7067 130.572 16.5333 130.572 17.7733V25.0756H127.559V11.78H129.955V14.3978H130.298C130.983 12.4689 132.694 11.4356 134.611 11.4356C136.049 11.4356 137.145 11.9178 137.966 12.7444ZM155.152 12.8133H152.14C153.167 13.64 153.714 14.8111 153.714 16.1889C153.714 17.7733 153.03 19.0133 151.523 19.84C150.496 20.3911 149.195 20.5978 147.689 20.6667C146.731 20.7356 145.909 20.7356 145.43 20.8733C144.813 21.0111 144.471 21.2178 144.471 21.6311C144.471 21.8378 144.54 22.0444 144.745 22.1822C145.019 22.3889 145.361 22.3889 145.772 22.3889H150.359C151.797 22.3889 152.756 22.5956 153.578 23.2156C154.262 23.7667 154.81 24.6622 154.81 25.9711C154.81 28.7956 152.619 31 147.621 31C145.087 31 143.307 30.38 142.28 29.4844C141.39 28.7267 141.048 27.9 141.048 26.9356C141.048 25.9711 141.732 25.0067 143.102 24.8C141.938 24.3178 141.39 23.56 141.39 22.5267C141.39 20.3222 144.745 20.0467 144.745 20.0467V19.7022C142.348 19.22 141.527 17.5667 141.527 16.12C141.527 13.5022 143.923 11.4356 147.621 11.4356C149.059 11.4356 150.291 11.78 151.25 12.2622C151.455 11.8489 151.729 11.2289 152.345 10.7467C153.578 9.71333 155.152 9.92 155.152 9.92V12.8133ZM143.786 24.8689C143.718 24.9378 143.718 25.2133 143.718 25.5578C143.718 27.2111 144.813 28.2444 148.031 28.2444C150.633 28.2444 152.003 27.4867 152.003 26.2467C152.003 25.4889 151.523 25.0067 150.291 25.0067H145.498C144.54 25.0067 144.129 24.9378 143.786 24.8689ZM150.702 16.2578C150.702 14.9489 149.469 13.9156 147.621 13.9156C145.772 13.9156 144.54 14.9489 144.54 16.2578C144.54 17.4978 145.772 18.5311 147.621 18.5311C149.401 18.5311 150.702 17.4978 150.702 16.2578ZM159.671 14.6044C160.356 12.4 162.41 11.4356 164.122 11.4356C167.819 11.4356 170.01 14.6044 170.01 18.3933C170.01 22.1822 167.819 25.3511 164.122 25.3511C161.52 25.3511 159.945 23.6978 159.329 22.3889H158.987V25.0756H156.59V5.85556H159.603L159.671 14.6044ZM163.3 22.6644C165.56 22.6644 166.998 20.8044 166.998 18.3933C166.998 15.9822 165.56 14.1222 163.3 14.1222C160.972 14.1222 159.603 15.9822 159.603 18.3933C159.534 20.8044 160.972 22.6644 163.3 22.6644ZM172.064 7.64667C172.064 6.47556 172.886 5.71778 173.982 5.71778C175.077 5.71778 175.899 6.47556 175.899 7.64667C175.899 8.74889 175.145 9.50667 173.982 9.50667C172.886 9.50667 172.064 8.74889 172.064 7.64667ZM172.475 11.78H175.488V25.0067H172.475V11.78ZM185.69 14.4667C185.69 14.4667 185.347 14.3978 185.005 14.3978C183.978 14.3978 183.088 14.6733 182.472 15.2933C181.856 15.9133 181.582 16.8089 181.582 18.1178V25.0067H178.569V11.78H181.376V14.3978H181.719C182.061 12.1933 183.225 11.6422 185.074 11.6422C185.347 11.6422 185.69 11.6422 185.69 11.6422V14.4667ZM196.919 14.6044V5.85556H199.932V25.0067H197.535V22.32H197.193C196.577 23.6978 195.002 25.2822 192.4 25.2822C188.702 25.2822 186.511 22.1133 186.511 18.3244C186.511 14.5356 188.702 11.3667 192.4 11.3667C194.249 11.4356 196.234 12.3311 196.919 14.6044ZM193.358 22.6644C195.686 22.6644 197.056 20.8044 197.056 18.3933C197.056 15.9822 195.686 14.1222 193.358 14.1222C191.099 14.1222 189.661 15.9822 189.661 18.3933C189.661 20.8044 191.03 22.6644 193.358 22.6644Z" fill="#00C58B" style="fill:#00C58B;fill:color(display-p3 0.0000 0.7725 0.5451);fill-opacity:1;"/>
</g>
<defs>
<clipPath id="clip0_1_596">
<rect width="200" height="31" fill="white" style="fill:white;fill-opacity:1;"/>
</clipPath>
</defs>
</svg>
