<svg width="200" height="14" viewBox="0 0 200 14" fill="none" xmlns="http://www.w3.org/2000/svg">
<g clip-path="url(#clip0_1_534)">
<path d="M59.0743 1.12V13.3H56.9774V8.04999H51.5544V13.3H49.4575V1.12H51.5544V6.08999H56.9774V1.12H59.0743Z" fill="#00C58B" style="fill:#00C58B;fill:color(display-p3 0.0000 0.7725 0.5451);fill-opacity:1;"/>
<path d="M68.5466 8.47V13.3H66.4497V8.47L62.1113 1.12H64.4974L67.5343 6.51L70.5712 1.12H72.9573L68.5466 8.47Z" fill="#00C58B" style="fill:#00C58B;fill:color(display-p3 0.0000 0.7725 0.5451);fill-opacity:1;"/>
<path d="M84.7433 5.11C84.7433 7.35 82.9356 9.09999 80.5495 9.09999H77.9465V13.3H75.9219V1.12H80.5495C82.9356 1.12 84.7433 2.87 84.7433 5.11ZM82.6464 5.11C82.6464 3.85 81.7787 3.01 80.5495 3.01H77.9465V7.27999H80.5495C81.7787 7.27999 82.6464 6.37 82.6464 5.11Z" fill="#00C58B" style="fill:#00C58B;fill:color(display-p3 0.0000 0.7725 0.5451);fill-opacity:1;"/>
<path d="M95.8061 11.41V13.3H88.2139V1.12H95.7337V3.01H90.2385V6.16H95.2999V8.04999H90.2385V11.34L95.8061 11.41Z" fill="#00C58B" style="fill:#00C58B;fill:color(display-p3 0.0000 0.7725 0.5451);fill-opacity:1;"/>
<path d="M103.832 8.88999H101.374V13.3H99.2769V1.12H104.338C106.58 1.12 108.387 2.87 108.387 5.03999C108.387 6.58 107.375 7.97999 105.857 8.53999L108.749 13.3H106.508L103.832 8.88999ZM101.446 7.06999H104.411C105.495 7.06999 106.363 6.16 106.363 5.03999C106.363 3.92 105.495 3.01 104.411 3.01H101.446V7.06999Z" fill="#00C58B" style="fill:#00C58B;fill:color(display-p3 0.0000 0.7725 0.5451);fill-opacity:1;"/>
<path d="M111.208 10.5L113.015 9.51997C113.449 10.78 114.461 11.55 116.124 11.55C117.787 11.55 118.438 10.85 118.438 9.93997C118.438 8.88997 117.426 8.46997 115.546 7.90997C113.594 7.34997 111.714 6.64997 111.714 4.33997C111.714 2.09997 113.666 0.839966 115.763 0.839966C117.86 0.839966 119.378 1.88997 120.174 3.49997L118.438 4.47997C118.004 3.49997 117.209 2.79997 115.763 2.79997C114.534 2.79997 113.811 3.35997 113.811 4.33997C113.811 5.24997 114.534 5.66997 116.341 6.22997C118.438 6.85997 120.535 7.48997 120.535 9.93997C120.535 12.18 118.727 13.51 116.052 13.51C113.521 13.51 111.858 12.32 111.208 10.5Z" fill="#00C58B" style="fill:#00C58B;fill:color(display-p3 0.0000 0.7725 0.5451);fill-opacity:1;"/>
<path d="M123.21 7.20991C123.21 3.70991 125.958 0.909912 129.79 0.909912C132.104 0.909912 134.129 2.02991 135.213 3.77991L133.406 4.75991C132.755 3.56991 131.381 2.79991 129.79 2.79991C127.043 2.79991 125.307 4.68991 125.307 7.13991C125.307 9.58991 127.115 11.4799 129.79 11.4799C131.381 11.4799 132.755 10.7099 133.406 9.51991L135.213 10.4999C134.201 12.2499 132.104 13.4399 129.79 13.4399C125.958 13.5099 123.21 10.7099 123.21 7.20991Z" fill="#00C58B" style="fill:#00C58B;fill:color(display-p3 0.0000 0.7725 0.5451);fill-opacity:1;"/>
<path d="M140.564 1.12V13.3H138.467V1.12C138.539 1.12 140.564 1.12 140.564 1.12Z" fill="#00C58B" style="fill:#00C58B;fill:color(display-p3 0.0000 0.7725 0.5451);fill-opacity:1;"/>
<path d="M152.422 11.41V13.3H144.758V1.12H152.278V3.01H146.782V6.16H151.844V8.04999H146.782V11.34L152.422 11.41Z" fill="#00C58B" style="fill:#00C58B;fill:color(display-p3 0.0000 0.7725 0.5451);fill-opacity:1;"/>
<path d="M165.582 1.12V13.3H163.991L158.062 5.03999V13.3H155.965V1.12H157.556L163.485 9.37999V1.12H165.582Z" fill="#00C58B" style="fill:#00C58B;fill:color(display-p3 0.0000 0.7725 0.5451);fill-opacity:1;"/>
<path d="M169.053 7.20991C169.053 3.70991 171.8 0.909912 175.633 0.909912C177.946 0.909912 179.971 2.02991 181.056 3.77991L179.248 4.75991C178.597 3.56991 177.223 2.79991 175.633 2.79991C172.885 2.79991 171.15 4.68991 171.15 7.13991C171.15 9.58991 172.957 11.4799 175.633 11.4799C177.223 11.4799 178.597 10.7099 179.248 9.51991L181.056 10.4999C180.043 12.2499 177.946 13.4399 175.633 13.4399C171.8 13.5099 169.053 10.7099 169.053 7.20991Z" fill="#00C58B" style="fill:#00C58B;fill:color(display-p3 0.0000 0.7725 0.5451);fill-opacity:1;"/>
<path d="M192.046 11.41V13.3H184.382V1.12H191.902V3.01H186.406V6.16H191.468V8.04999H186.406V11.34L192.046 11.41Z" fill="#00C58B" style="fill:#00C58B;fill:color(display-p3 0.0000 0.7725 0.5451);fill-opacity:1;"/>
<path d="M39.841 1.18994H37.7441C38.6841 3.07994 39.2626 5.10994 39.2626 7.20994C39.2626 9.30994 38.6841 11.4099 37.7441 13.2299H39.841C40.781 11.3399 41.3595 9.30994 41.3595 7.20994C41.3595 5.10994 40.781 3.07994 39.841 1.18994Z" fill="#00C58B" style="fill:#00C58B;fill:color(display-p3 0.0000 0.7725 0.5451);fill-opacity:1;"/>
<path d="M11.1351 5.03997C10.1951 5.03997 9.54436 5.38997 9.18283 5.87997V2.58997H7.08594V11.97H9.18283V8.32997C9.18283 7.34997 9.68897 6.92997 10.4843 6.92997C11.1351 6.92997 11.7136 7.34997 11.7136 8.11997V11.97H13.8104V7.83997C13.6658 6.01997 12.5089 5.03997 11.1351 5.03997Z" fill="#00C58B" style="fill:#00C58B;fill:color(display-p3 0.0000 0.7725 0.5451);fill-opacity:1;"/>
<path d="M1.66297 1.18994C0.722984 3.07994 0.144531 5.10994 0.144531 7.20994C0.144531 9.30994 0.722984 11.4099 1.66297 13.2299H3.75986C2.74757 11.4099 2.16912 9.44994 2.16912 7.27994C2.16912 5.10994 2.74757 3.07994 3.68755 1.25994H1.66297V1.18994Z" fill="#00C58B" style="fill:#00C58B;fill:color(display-p3 0.0000 0.7725 0.5451);fill-opacity:1;"/>
<path d="M16.9922 13.2999H20.3906V11.4099H19.0168V3.14994H20.3906V1.18994H16.9922V13.2999Z" fill="#00C58B" style="fill:#00C58B;fill:color(display-p3 0.0000 0.7725 0.5451);fill-opacity:1;"/>
<path d="M25.2348 7.20992C25.2348 6.99992 25.4517 6.85992 25.8132 6.85992C26.247 6.85992 26.5363 7.06992 26.7532 7.41992L28.4885 6.50992C27.9101 5.52992 26.8978 5.03992 25.8132 5.03992C24.3671 5.03992 23.1379 5.80992 23.1379 7.20992C23.1379 9.51992 26.5363 9.16992 26.5363 9.86992C26.5363 10.1499 26.3193 10.2899 25.8132 10.2899C25.2348 10.2899 24.8009 10.0099 24.6563 9.51992L22.8486 10.4999C23.3548 11.6199 24.4394 12.1099 25.8132 12.1099C27.3316 12.1099 28.7055 11.4799 28.7055 9.93992C28.6332 7.48992 25.2348 7.97992 25.2348 7.20992Z" fill="#00C58B" style="fill:#00C58B;fill:color(display-p3 0.0000 0.7725 0.5451);fill-opacity:1;"/>
<path d="M31.0195 3.14994H32.3934V11.4099H31.0195V13.2999H34.4902V1.18994H31.0195V3.14994Z" fill="#00C58B" style="fill:#00C58B;fill:color(display-p3 0.0000 0.7725 0.5451);fill-opacity:1;"/>
<path d="M197.686 1.12C196.457 1.12 195.444 2.1 195.444 3.28999C195.444 4.48 196.457 5.46 197.686 5.46C198.915 5.46 199.927 4.48 199.927 3.28999C199.855 2.1 198.915 1.12 197.686 1.12ZM199.494 3.28999C199.494 4.26999 198.698 5.11 197.614 5.11C196.601 5.11 195.734 4.33999 195.734 3.28999C195.734 2.31 196.529 1.47 197.614 1.47C198.698 1.47 199.494 2.31 199.494 3.28999Z" fill="#00C58B" style="fill:#00C58B;fill:color(display-p3 0.0000 0.7725 0.5451);fill-opacity:1;"/>
<path d="M198.409 2.86999C198.409 2.65999 198.337 2.51999 198.192 2.37999C198.047 2.30999 197.903 2.23999 197.614 2.23999H197.035V4.26999H197.397V3.49999H197.686L198.192 4.26999H198.626L198.047 3.35999C198.264 3.28999 198.409 3.14999 198.409 2.86999ZM198.047 2.86999C198.047 2.93999 198.047 3.07999 197.975 3.07999C197.903 3.14999 197.831 3.14999 197.686 3.14999H197.397V2.58999H197.614C197.758 2.58999 197.903 2.58999 197.975 2.65999C197.975 2.72999 198.047 2.79999 198.047 2.86999Z" fill="#00C58B" style="fill:#00C58B;fill:color(display-p3 0.0000 0.7725 0.5451);fill-opacity:1;"/>
</g>
<defs>
<clipPath id="clip0_1_534">
<rect width="200" height="14" fill="white" style="fill:white;fill-opacity:1;"/>
</clipPath>
</defs>
</svg>
