<svg width="201" height="46" viewBox="0 0 201 46" fill="none" xmlns="http://www.w3.org/2000/svg">
<g clip-path="url(#clip0_1_628)">
<path d="M86.44 26.5569H82.6758V9.37842H86.44V26.5569Z" fill="#00C58B" style="fill:#00C58B;fill:color(display-p3 0.0000 0.7725 0.5451);fill-opacity:1;"/>
<path d="M107.075 9.37842V25.1616C107.075 26.0537 106.644 26.5341 105.76 26.5341H103.401C103.061 26.5341 102.789 26.4426 102.517 26.2596C102.245 26.0308 102.041 25.7335 101.905 25.4132L97.4377 16.2635C97.0068 15.4172 96.6894 14.5022 96.3946 13.6101H96.1225C96.2585 14.5022 96.3039 15.4172 96.3039 16.355V26.5569H92.6758V10.7737C92.6758 9.88165 93.152 9.40129 94.0363 9.40129H96.3492C96.6894 9.40129 96.9615 9.49279 97.2336 9.67578C97.5057 9.90452 97.7098 10.2019 97.8458 10.5221L102.177 19.4431C102.608 20.2437 102.971 21.2044 103.401 22.188H103.628C103.537 20.907 103.492 19.9234 103.492 19.3058V9.42417H107.075V9.37842Z" fill="#00C58B" style="fill:#00C58B;fill:color(display-p3 0.0000 0.7725 0.5451);fill-opacity:1;"/>
<path d="M124.512 12.3749H118.413C118.027 12.3292 117.664 12.4207 117.37 12.6494C117.143 12.9239 117.029 13.267 117.029 13.5873V16.538H123.515V19.2829H117.029V26.534H113.265V12.8553C113.22 11.8488 113.605 10.911 114.308 10.2476C115.057 9.58427 116.054 9.24116 117.029 9.30978C120.658 9.30978 123.197 9.40128 124.694 9.58427L124.512 12.3749Z" fill="#00C58B" style="fill:#00C58B;fill:color(display-p3 0.0000 0.7725 0.5451);fill-opacity:1;"/>
<path d="M133.583 26.5569H129.818V9.37842H133.583V26.5569Z" fill="#00C58B" style="fill:#00C58B;fill:color(display-p3 0.0000 0.7725 0.5451);fill-opacity:1;"/>
<path d="M154.218 9.37842V25.1616C154.218 26.0537 153.787 26.5341 152.902 26.5341H150.544C150.204 26.5341 149.932 26.4426 149.66 26.2596C149.388 26.0308 149.183 25.7335 149.047 25.4132L144.58 16.2635C144.149 15.4172 143.832 14.5022 143.537 13.6101H143.265C143.401 14.5022 143.447 15.4172 143.447 16.355V26.5569H139.864V10.7737C139.864 9.88165 140.34 9.40129 141.224 9.40129H143.537C143.877 9.40129 144.149 9.49279 144.422 9.67578C144.694 9.90452 144.898 10.2019 145.034 10.5221L149.365 19.3973C149.796 20.1979 150.159 21.1586 150.589 22.1422H150.816C150.725 20.8613 150.68 19.8777 150.68 19.2601V9.37842H154.218Z" fill="#00C58B" style="fill:#00C58B;fill:color(display-p3 0.0000 0.7725 0.5451);fill-opacity:1;"/>
<path d="M164.263 26.5569H160.499V9.37842H164.263V26.5569Z" fill="#00C58B" style="fill:#00C58B;fill:color(display-p3 0.0000 0.7725 0.5451);fill-opacity:1;"/>
<path d="M183.22 12.4664H178.14V26.5569H174.376V12.4664H169.297V9.37842H183.22V12.4664Z" fill="#00C58B" style="fill:#00C58B;fill:color(display-p3 0.0000 0.7725 0.5451);fill-opacity:1;"/>
<path d="M199.524 23.6062L199.705 26.3968C198.163 26.5341 195.533 26.6256 191.814 26.6256C190.816 26.6713 189.841 26.3511 189.093 25.6877C188.39 25.0244 188.005 24.1323 188.05 23.1716V12.8096C188.005 11.8717 188.39 10.9567 189.093 10.2934C189.841 9.63005 190.839 9.28693 191.814 9.35556C195.533 9.35556 198.163 9.44705 199.705 9.5843L199.524 12.3749H192.993C192.653 12.3292 192.336 12.4664 192.109 12.6494C191.928 12.9239 191.837 13.267 191.837 13.5873V16.1949H198.594V18.9398H191.837V22.2566C191.791 22.5997 191.882 22.9657 192.109 23.2631C192.336 23.4918 192.676 23.6062 192.993 23.5376H199.524V23.6062Z" fill="#00C58B" style="fill:#00C58B;fill:color(display-p3 0.0000 0.7725 0.5451);fill-opacity:1;"/>
<path d="M82.4492 38.5887V33.808C82.3585 32.8015 82.7213 31.8637 83.3789 31.1546C84.0818 30.5827 84.9208 30.2625 85.8732 30.3083C86.7576 30.2625 87.6646 30.537 88.3675 31.1089C88.9344 31.5892 89.2972 32.2983 89.2972 33.0532C89.3426 33.2362 89.2519 33.4878 89.1612 33.625C89.0251 33.7165 88.821 33.808 88.6396 33.7623C88.2088 33.7623 87.982 33.625 87.982 33.2819C87.9367 32.0467 87.2337 31.4291 85.9186 31.4291C84.5127 31.4291 83.8097 32.1839 83.8097 33.6936V38.4743C83.8097 39.984 84.5127 40.7389 85.9639 40.7389C86.304 40.7389 86.6669 40.6931 87.007 40.5559C87.2337 40.4644 87.4832 40.2814 87.6192 40.0298C87.7099 39.8468 87.8006 39.6409 87.8913 39.4579C87.9367 39.2749 87.982 39.0233 87.982 38.7946C88.0274 38.4515 88.2088 38.3142 88.6396 38.3142C88.821 38.3142 89.0251 38.36 89.1612 38.4515C89.2972 38.6345 89.3426 38.8403 89.2972 39.0233C89.2972 39.8239 88.9571 40.533 88.3675 41.0591C87.6646 41.631 86.7802 41.9055 85.8732 41.8597C84.9889 41.9055 84.0818 41.5852 83.4242 41.0134C82.6759 40.4873 82.3585 39.5494 82.4492 38.5887Z" fill="#00C58B" style="fill:#00C58B;fill:color(display-p3 0.0000 0.7725 0.5451);fill-opacity:1;"/>
<path d="M95.0796 38.5888V33.8081C94.9889 32.8016 95.3064 31.8638 96.0093 31.1547C97.4606 30.0109 99.524 30.0109 100.998 31.1547C101.656 31.8638 102.041 32.8245 101.928 33.8081V38.5888C102.018 39.5952 101.701 40.5331 100.998 41.2422C99.5467 42.3859 97.4832 42.3859 96.0093 41.2422C95.3744 40.5331 95.0343 39.5952 95.0796 38.5888ZM96.4401 38.5888C96.4401 40.0985 97.1431 40.8533 98.5036 40.8533C99.0705 40.8991 99.6374 40.6703 100.046 40.2815C100.431 39.8011 100.658 39.1835 100.612 38.5659V33.7852C100.658 33.1676 100.476 32.55 100.046 32.0696C99.6148 31.6808 99.0479 31.452 98.5036 31.4978C97.1431 31.4978 96.4401 32.2526 96.4401 33.7623V38.5888Z" fill="#00C58B" style="fill:#00C58B;fill:color(display-p3 0.0000 0.7725 0.5451);fill-opacity:1;"/>
<path d="M108.345 41.4938V30.9259C108.299 30.5828 108.526 30.3083 108.866 30.2625C108.912 30.2625 108.957 30.2625 109.048 30.2625C109.478 30.2625 109.841 30.537 110.136 31.1089L112.63 35.8896L115.125 31.1089C115.465 30.537 115.782 30.2625 116.213 30.2625C116.553 30.2168 116.825 30.3998 116.871 30.7429C116.871 30.7887 116.871 30.8344 116.871 30.9259V41.4938C116.871 41.631 116.78 41.7683 116.689 41.8369C116.417 42.0199 116.032 42.0199 115.76 41.8369C115.624 41.7454 115.578 41.6539 115.578 41.4938V33.0989L113.175 37.6509C113.084 37.8797 112.902 38.0398 112.653 38.0398C112.426 38.0398 112.222 37.9025 112.177 37.6509L109.751 33.0532V41.5395C109.751 41.6768 109.66 41.814 109.569 41.8826C109.297 42.0656 108.912 42.0656 108.639 41.8826C108.435 41.7683 108.345 41.6768 108.345 41.4938Z" fill="#00C58B" style="fill:#00C58B;fill:color(display-p3 0.0000 0.7725 0.5451);fill-opacity:1;"/>
<path d="M123.333 41.4938V30.72C123.333 30.5828 123.379 30.4913 123.47 30.3769C123.56 30.2625 123.696 30.2397 123.855 30.2397H126.871C127.755 30.1939 128.617 30.4684 129.32 31.0402C129.977 31.7493 130.318 32.7101 130.25 33.6479V33.7852C130.34 34.7916 129.977 35.7295 129.32 36.4386C128.617 37.0104 127.733 37.3307 126.826 37.2849H124.671V41.4023C124.671 41.5395 124.581 41.6767 124.49 41.7454C124.218 41.9284 123.832 41.9284 123.492 41.7454C123.379 41.7682 123.333 41.631 123.333 41.4938ZM124.649 36.2327H126.803C127.37 36.2784 127.982 36.0954 128.39 35.6608C128.776 35.1805 129.002 34.5629 128.957 33.9453V33.7623C129.002 33.1447 128.821 32.5271 128.39 32.0467C127.959 31.6121 127.392 31.4291 126.803 31.4749H124.649V36.2327Z" fill="#00C58B" style="fill:#00C58B;fill:color(display-p3 0.0000 0.7725 0.5451);fill-opacity:1;"/>
<path d="M135.987 38.5888V33.8081C135.896 32.8016 136.214 31.8638 136.916 31.1547C138.368 30.0109 140.431 30.0109 141.905 31.1547C142.563 31.8638 142.948 32.8245 142.835 33.8081V38.5888C142.926 39.5952 142.608 40.5331 141.905 41.2422C140.454 42.3859 138.39 42.3859 136.916 41.2422C136.214 40.5331 135.873 39.5952 135.987 38.5888ZM137.302 38.5888C137.302 40.0985 138.005 40.8533 139.365 40.8533C139.932 40.8991 140.499 40.6703 140.907 40.2815C141.293 39.8011 141.52 39.1835 141.474 38.5659V33.7852C141.52 33.1676 141.338 32.55 140.907 32.0696C140.477 31.6808 139.91 31.452 139.365 31.4978C138.005 31.4978 137.302 32.2526 137.302 33.7623V38.5888Z" fill="#00C58B" style="fill:#00C58B;fill:color(display-p3 0.0000 0.7725 0.5451);fill-opacity:1;"/>
<path d="M148.572 40.3501C148.572 40.1671 148.617 39.9612 148.753 39.8697C148.844 39.7325 148.98 39.641 149.184 39.641C149.32 39.641 149.456 39.7325 149.57 39.824C149.706 39.9612 149.842 40.0984 150.046 40.2586C150.272 40.4416 150.522 40.6017 150.794 40.6932C151.179 40.8304 151.542 40.8762 151.928 40.8762C152.495 40.9219 153.062 40.7389 153.515 40.3501C153.946 39.9612 154.127 39.458 154.082 38.8861C154.082 38.36 153.901 37.8339 153.56 37.4679C153.175 37.0791 152.767 36.8046 152.245 36.6216C151.724 36.4386 151.202 36.2327 150.703 36.004C150.182 35.7752 149.706 35.4321 149.388 34.9975C149.003 34.4714 148.821 33.8538 148.867 33.2362C148.867 32.7101 148.957 32.2297 149.207 31.7722C149.388 31.3834 149.683 31.0631 150.046 30.8344C150.386 30.6514 150.749 30.4455 151.134 30.354C151.565 30.2625 151.928 30.2168 152.359 30.2168C153.016 30.2168 153.628 30.3083 154.241 30.4913C154.853 30.6743 155.125 30.9716 155.125 31.2919C155.125 31.4749 155.08 31.635 154.989 31.7722C154.898 31.9095 154.762 32.001 154.558 32.001C154.331 31.9095 154.037 31.818 153.81 31.7265C153.334 31.4977 152.88 31.3834 152.359 31.3834C151.792 31.3376 151.225 31.4749 150.771 31.7722C150.34 32.0467 150.159 32.5271 150.159 33.0532C150.159 33.5336 150.34 33.9453 150.681 34.2427C151.066 34.5858 151.52 34.8145 151.996 34.9518C152.517 35.1347 153.039 35.3406 153.538 35.5694C154.059 35.7981 154.535 36.2327 154.853 36.7131C155.238 37.2849 155.42 37.994 155.374 38.7031C155.42 39.641 155.102 40.5559 154.445 41.2193C153.742 41.7911 152.857 42.0656 151.905 42.0199C151.066 42.0656 150.25 41.8369 149.501 41.4023C148.912 41.1049 148.572 40.7389 148.572 40.3501Z" fill="#00C58B" style="fill:#00C58B;fill:color(display-p3 0.0000 0.7725 0.5451);fill-opacity:1;"/>
<path d="M161.406 41.4937V30.72C161.406 30.5827 161.497 30.4455 161.588 30.3769C161.86 30.2396 162.245 30.2396 162.517 30.3769C162.653 30.4226 162.699 30.5599 162.699 30.72V41.4937C162.699 41.631 162.608 41.7682 162.517 41.8368C162.245 42.0198 161.86 42.0198 161.52 41.8368C161.452 41.7682 161.406 41.631 161.406 41.4937Z" fill="#00C58B" style="fill:#00C58B;fill:color(display-p3 0.0000 0.7725 0.5451);fill-opacity:1;"/>
<path d="M168.367 30.8572C168.367 30.72 168.413 30.5827 168.504 30.4226C168.594 30.3311 168.685 30.2396 168.844 30.2396H175.284C175.42 30.2396 175.556 30.2854 175.624 30.4226C175.714 30.5599 175.76 30.6971 175.76 30.8572C175.76 31.0173 175.714 31.2003 175.624 31.2918C175.533 31.4291 175.442 31.4748 175.284 31.4748H172.699V41.4709C172.699 41.6081 172.608 41.7453 172.517 41.814C172.245 41.997 171.86 41.997 171.587 41.814C171.451 41.7225 171.406 41.631 171.406 41.4709V31.4748H168.821C168.685 31.4748 168.549 31.4291 168.481 31.2918C168.367 31.2003 168.322 31.0173 168.367 30.8572Z" fill="#00C58B" style="fill:#00C58B;fill:color(display-p3 0.0000 0.7725 0.5451);fill-opacity:1;"/>
<path d="M181.383 41.4937V30.72C181.383 30.5827 181.429 30.4455 181.565 30.3769C181.701 30.2854 181.837 30.2396 181.996 30.2396H187.642C187.778 30.2396 187.914 30.2854 187.982 30.4226C188.073 30.5599 188.118 30.6971 188.118 30.8572C188.118 30.9945 188.073 31.2003 187.982 31.2918C187.891 31.3833 187.801 31.4748 187.642 31.4748H182.698V35.5464H185.193C185.329 35.5464 185.42 35.5922 185.533 35.7294C185.624 35.8209 185.669 36.0039 185.669 36.164C185.669 36.3242 185.624 36.4385 185.533 36.5529C185.442 36.6444 185.352 36.7359 185.193 36.7359H182.698V40.8075H187.642C187.778 40.8075 187.914 40.8532 187.982 40.9905C188.073 41.1277 188.118 41.265 188.118 41.4251C188.118 41.5624 188.073 41.6996 187.982 41.8597C187.891 41.9512 187.801 42.0427 187.642 42.0427H181.996C181.859 42.0427 181.723 41.997 181.565 41.9055C181.429 41.7682 181.383 41.631 181.383 41.4937Z" fill="#00C58B" style="fill:#00C58B;fill:color(display-p3 0.0000 0.7725 0.5451);fill-opacity:1;"/>
<path d="M193.175 40.3501C193.175 40.1671 193.22 39.9612 193.356 39.8697C193.447 39.7325 193.583 39.641 193.787 39.641C193.923 39.641 194.059 39.7325 194.173 39.824C194.309 39.9612 194.445 40.0984 194.649 40.2586C194.875 40.4416 195.125 40.6017 195.397 40.6932C195.783 40.8304 196.145 40.8762 196.531 40.8762C197.098 40.9219 197.665 40.7389 198.118 40.3501C198.549 39.9612 198.73 39.458 198.685 38.8861C198.685 38.36 198.504 37.8339 198.163 37.4679C197.778 37.0791 197.37 36.8046 196.848 36.6216C196.327 36.4386 195.805 36.2327 195.306 36.004C194.785 35.7752 194.309 35.4321 193.991 34.9975C193.606 34.4714 193.424 33.8538 193.47 33.2362C193.47 32.7101 193.56 32.2297 193.81 31.7722C193.991 31.3834 194.286 31.0631 194.649 30.8344C194.989 30.6514 195.352 30.4455 195.783 30.354C196.213 30.2625 196.576 30.2168 197.007 30.2168C197.665 30.2168 198.277 30.3083 198.889 30.4913C199.501 30.6743 199.773 30.9716 199.773 31.2919C199.773 31.4749 199.728 31.635 199.637 31.7722C199.547 31.9095 199.411 32.001 199.207 32.001C198.98 31.9095 198.685 31.818 198.458 31.7265C197.982 31.5435 197.461 31.3834 197.007 31.452C196.44 31.4063 195.873 31.5435 195.42 31.8409C194.989 32.1154 194.807 32.5957 194.807 33.1218C194.807 33.6022 194.989 34.0139 195.329 34.3113C195.714 34.6544 196.168 34.8831 196.644 35.0204C197.166 35.2034 197.687 35.4092 198.186 35.638C198.685 35.8667 199.184 36.3013 199.501 36.7817C199.887 37.3535 200.068 38.0626 200.023 38.7717C200.068 39.7096 199.751 40.6246 199.093 41.2879C198.39 41.8598 197.506 42.1342 196.553 42.0885C195.714 42.1342 194.898 41.9055 194.15 41.4709C193.515 41.1049 193.175 40.7389 193.175 40.3501Z" fill="#00C58B" style="fill:#00C58B;fill:color(display-p3 0.0000 0.7725 0.5451);fill-opacity:1;"/>
<path d="M58.753 0H41.8369L32.1997 9.05818L40.6578 17.0184L58.753 0Z" fill="#00C58B" style="fill:#00C58B;fill:color(display-p3 0.0000 0.7725 0.5451);fill-opacity:1;"/>
<path d="M0 39.3436H16.9161L32.1995 24.9787L23.7415 17.0184L0 39.3436Z" fill="#00C58B" style="fill:#00C58B;fill:color(display-p3 0.0000 0.7725 0.5451);fill-opacity:1;"/>
<path d="M28.662 9.01246L30.4987 10.8195L30.544 10.8653L30.5894 10.911L65.5554 43.6211H55.5554L18.662 9.01246H28.662ZM29.6143 6.63354H12.6982L54.535 45.9772H71.4511L32.1087 9.14971L29.6143 6.63354Z" fill="#00C58B" style="fill:#00C58B;fill:color(display-p3 0.0000 0.7725 0.5451);fill-opacity:1;"/>
<path d="M39.9547 39.3436H23.0386L64.8526 0H81.7914L39.9547 39.3436Z" fill="#00C58B" style="fill:#00C58B;fill:color(display-p3 0.0000 0.7725 0.5451);fill-opacity:1;"/>
</g>
<defs>
<clipPath id="clip0_1_628">
<rect width="201" height="46" fill="white" style="fill:white;fill-opacity:1;"/>
</clipPath>
</defs>
</svg>
