<svg width="200" height="15" viewBox="0 0 200 15" fill="none" xmlns="http://www.w3.org/2000/svg">
<g clip-path="url(#clip0_1_653)">
<path fill-rule="evenodd" clip-rule="evenodd" d="M0 7.5V0H3.65169H7.30337V7.5V15H3.65169H0V7.5ZM8.98876 7.5V0H13.9326C19.6067 0 20.1685 0.288462 22.4719 4.32692L24.1573 7.21154V3.57692V0H27.809H31.4607V7.5V15H26.6292C23.9888 15 21.3483 14.7692 20.7865 14.4231C20.2247 14.1346 19.0449 12.6346 18.2022 11.1346L16.573 8.36538L16.4045 11.6538L16.236 15H12.6404H8.98876V7.5ZM33.5393 1.03846C34.3258 0.115385 35.3933 5.76923e-05 41.9663 5.76923e-05H49.4382V2.01929V3.98083L44.8315 4.1539C42.191 4.26929 40.1685 4.55775 40.1685 4.9039C40.1685 5.25 42.191 5.53846 44.8315 5.65385L49.4382 5.82692V7.78846V9.75L44.8315 9.92308L40.1685 10.0962L40 12.5192L39.8315 15H36.1798H32.5843V8.53846C32.5843 3.34615 32.7528 1.90385 33.5393 1.03846ZM50.5618 7.5V0H58.8764C68.4831 0 69.1011 0.230769 69.4944 4.09615C69.7191 6.05769 69.5506 6.98077 68.6517 8.07692L67.5281 9.51923L69.2697 11.9423C70.2247 13.3269 71.1798 14.4231 71.3483 14.4231C71.573 14.4231 74.2135 11.1923 77.191 7.21154L82.6405 0H88.4831H94.382V7.5V15H90.7303H87.1348L86.9663 10.6154L86.7978 6.17308L83.7079 10.6154L80.6742 15H71.236H61.8539L60.3371 12.9808C59.5506 11.8846 58.6517 10.9615 58.3708 10.9615C58.0899 10.9615 57.8652 11.8846 57.8652 12.9808V15H54.2135H50.5618V7.5ZM61.5169 5.48077C61.5169 4.61538 61.0674 4.26923 59.7191 4.15385C58.0337 3.98077 57.8652 4.09615 57.8652 5.48077C57.8652 6.86538 58.0337 6.98077 59.7191 6.80769C61.0674 6.69231 61.5169 6.34615 61.5169 5.48077ZM95.5056 6.80769V0H99.1573H102.753L102.921 5.30769L103.09 10.6731L107.753 10.8462L112.36 11.0192V12.9808V15H104.607C99.3258 15 96.6292 14.7692 96.1798 14.3077C95.7303 13.8462 95.5056 11.3077 95.5056 6.80769ZM113.483 3.98077V0H117.079H120.73L120.899 2.71154C121.067 5.36538 121.124 5.48077 122.753 5.48077C124.382 5.48077 124.438 5.36538 124.607 2.71154L124.775 0H128.427H132.022V6.40385C132.022 9.92308 131.742 13.2692 131.461 13.9038C130.899 14.9423 130.169 15 122.191 15H113.483V12.9808V10.9615H118.764C121.742 10.9615 124.27 10.7308 124.438 10.3846C124.663 10.0385 123.202 9.80769 120.393 9.80769C114.213 9.80769 113.483 9.23077 113.483 3.98077ZM133.708 2.01923V0H142.697H151.685V2.01923C151.685 4.03846 151.685 4.03846 149.157 4.03846H146.629V9.51923V15H142.697H138.764V9.51923V4.03846H136.236C133.708 4.03846 133.708 4.03846 133.708 2.01923ZM152.809 7.5V0H156.461H160.112V7.5V15H156.461H152.809V7.5ZM161.798 7.5V0H165.449H169.101V2.01923V4.09615L170.843 2.01923C172.472 0.115385 172.753 0 176.18 0H179.775V2.01923C179.775 3.75 179.607 4.03846 178.483 4.03846C176.742 4.03846 174.719 5.59615 174.719 6.98077C174.719 8.48077 177.135 10.9615 178.652 10.9615C179.551 10.9615 179.775 11.3077 179.775 12.9808V15H175.899C172.247 15 171.91 14.8846 170.562 13.2115L169.101 11.4231V13.2115V15H165.449H161.798V7.5ZM182.416 1.03846C183.202 0.115385 184.27 0 191.685 0H200V2.01923V3.98077L194.551 4.15385C190.843 4.26923 189.045 4.55769 188.876 5.01923C188.708 5.59615 189.831 5.76923 193.258 5.76923C199.326 5.76923 200 6.17308 200 9.92308C200 14.8269 199.607 15 189.775 15H181.461V12.9808V10.9615H186.742C189.719 10.9615 192.247 10.7308 192.416 10.3846C192.64 10.0385 191.124 9.80769 188.258 9.80769C184.438 9.80769 183.539 9.63462 182.584 8.65385C181.124 7.15385 181.011 2.59615 182.416 1.03846Z" fill="white" style="fill:white;fill-opacity:1;"/>
<path fill-rule="evenodd" clip-rule="evenodd" d="M71.3481 15H80.674L83.7077 10.6154L86.7976 6.17308L86.9661 10.6154L87.1347 15H90.7302H94.3819V7.5V0H88.483H82.6403L77.1908 7.21154C74.2133 11.1923 71.3481 14.4231 71.3481 14.4231C71.3481 14.4231 71.3481 14.6154 71.3481 15Z" fill="#7A7A7A" style="fill:#7A7A7A;fill:color(display-p3 0.4767 0.4767 0.4767);fill-opacity:1;"/>
</g>
<defs>
<clipPath id="clip0_1_653">
<rect width="200" height="15" fill="white" style="fill:white;fill-opacity:1;"/>
</clipPath>
</defs>
</svg>
