<svg width="200" height="49" viewBox="0 0 200 49" fill="none" xmlns="http://www.w3.org/2000/svg">
<g clip-path="url(#clip0_1_658)">
<path d="M38.3834 0.438721V17.1197L49.8862 22.7232L32.5801 31.2699V48.7836L63.6752 33.0569C65.0742 32.3534 65.9534 30.906 65.9534 29.3293V16.9742C65.9534 15.3975 65.0742 13.9501 63.6752 13.2466L38.3834 0.45489V0.438721Z" fill="white" style="fill:white;fill-opacity:1;"/>
<path d="M33.4427 0.438782L2.34751 16.1657C0.948635 16.8691 0.0693359 18.3165 0.0693359 19.8932V32.2484C0.0693359 33.8251 0.948635 35.2724 2.34751 35.9759L27.6393 48.7676V31.2538L16.1365 25.6503L33.4427 17.1036V0.422607V0.438782Z" fill="white" style="fill:white;fill-opacity:1;"/>
<path d="M79.686 9.72949H85.6731V35.9113H79.686V9.72949Z" fill="white" style="fill:white;fill-opacity:1;"/>
<path d="M119.254 9.72949V35.9113H114.338L101.428 20.0146V35.9113H95.5132V9.72949H100.469L113.339 25.6262V9.72949H119.254Z" fill="white" style="fill:white;fill-opacity:1;"/>
<path d="M139.909 25.6262L136.432 29.289V35.9113H130.476V9.72949H136.432V21.9633L147.895 9.72949H154.553L143.825 21.3973L155.177 35.9113H148.19L139.909 25.6262Z" fill="white" style="fill:white;fill-opacity:1;"/>
<path d="M162.251 9.72949H168.238V35.9113H162.251V9.72949Z" fill="white" style="fill:white;fill-opacity:1;"/>
<path d="M185.625 14.6699H177.344V9.72949H199.902V14.6699H191.62V35.9194H185.633V14.6699H185.625Z" fill="white" style="fill:white;fill-opacity:1;"/>
</g>
<defs>
<clipPath id="clip0_1_658">
<rect width="200" height="49" fill="white" style="fill:white;fill-opacity:1;"/>
</clipPath>
</defs>
</svg>
