<svg width="201" height="68" viewBox="0 0 201 68" fill="none" xmlns="http://www.w3.org/2000/svg">
<g clip-path="url(#clip0_1_666)">
<path d="M34.408 28.9166L42.3875 27.7111L42.8344 23.714H16.9167L17.3636 27.7111L25.3432 28.9166C25.8539 28.9801 26.1731 29.4242 26.1731 29.8683V39.1316C26.1731 39.6392 25.79 40.0199 25.3432 40.0833L17.3636 41.2888L16.9167 45.286H42.7706L42.3237 41.2888L34.3441 40.0833C33.8334 40.0199 33.5143 39.5757 33.5143 39.1316V29.8683C33.5781 29.3608 33.8973 28.9801 34.408 28.9166Z" fill="#00C58B" style="fill:#00C58B;fill:color(display-p3 0.0000 0.7725 0.5451);fill-opacity:1;"/>
<path d="M57.2614 15.9735L32.3013 1.63445C30.7692 0.746197 28.918 0.746197 27.3859 1.63445L2.42579 15.9735C0.957549 16.8617 0 18.4479 0 20.161V48.7756C0 50.4886 0.957549 52.1382 2.42579 52.9631L27.3859 67.3021C28.1519 67.7462 28.9818 67.9365 29.8117 67.9365C30.6416 67.9365 31.5353 67.6828 32.2375 67.3021L57.2614 53.0265C58.7935 52.1382 59.6872 50.5521 59.6872 48.839V20.161C59.6872 18.4479 58.7935 16.8617 57.2614 15.9735ZM43.345 39.5123C43.7919 39.5757 44.1111 39.9564 44.1749 40.3371L44.8133 46.1742C44.8133 46.428 44.7494 46.7453 44.5579 46.9356C44.3664 47.1259 44.1111 47.2528 43.8557 47.2528H15.8315C15.5761 47.2528 15.3208 47.1259 15.1293 46.9356C14.9378 46.7453 14.8739 46.428 14.8739 46.1742L15.5123 40.3371C15.5761 39.893 15.8953 39.5757 16.3422 39.5123L24.1941 38.3703V30.7566L16.3422 29.5511C15.8953 29.4877 15.5761 29.107 15.5123 28.7263L14.8739 22.8892C14.8739 22.6354 14.9378 22.3182 15.1293 22.1278C15.3208 21.9375 15.5761 21.8106 15.8315 21.8106H43.8557C44.1111 21.8106 44.3664 21.9375 44.5579 22.1278C44.7494 22.3182 44.8133 22.6354 44.8133 22.8892L44.1749 28.7263C44.1111 29.1704 43.7919 29.4877 43.345 29.5511L35.4931 30.6932V38.3068L43.345 39.5123Z" fill="#00C58B" style="fill:#00C58B;fill:color(display-p3 0.0000 0.7725 0.5451);fill-opacity:1;"/>
<path d="M147.207 22.6355C138.142 22.6355 130.801 29.6781 130.801 38.3703C130.801 47.0626 138.142 54.1052 147.207 54.1052C156.272 54.1052 163.613 47.0626 163.613 38.3703C163.613 29.7415 156.272 22.6355 147.207 22.6355ZM155.442 38.4338C155.442 43.1923 151.74 47.0626 147.207 47.0626C142.675 47.0626 138.972 43.1923 138.972 38.4338C138.972 33.6752 142.675 29.805 147.207 29.805C151.74 29.805 155.442 33.6118 155.442 38.4338ZM102.394 15.7832H94.7974C94.5421 15.7832 94.3506 15.9735 94.3506 16.2273V53.4073C94.3506 53.661 94.5421 53.8514 94.7974 53.8514H102.394C102.649 53.8514 102.841 53.661 102.841 53.4073V16.1639C102.841 15.9735 102.649 15.7832 102.394 15.7832ZM128.503 22.6355C126.077 22.6989 123.971 23.2065 122.119 24.2851C120.715 25.1099 119.566 26.1885 118.608 27.5843V23.3334C118.608 23.0796 118.417 22.8893 118.162 22.8893H110.82C110.565 22.8893 110.374 23.0796 110.374 23.3334V53.4073C110.374 53.661 110.565 53.8514 110.82 53.8514H118.162C118.417 53.8514 118.608 53.661 118.608 53.4073V38.8779C118.608 36.2766 119.502 34.1194 121.29 32.5966C122.886 31.2008 124.992 30.5029 127.546 30.5029H128.439C128.567 30.5029 128.631 30.4395 128.758 30.376C128.822 30.3126 128.886 30.1857 128.886 30.0588V23.0162C128.886 22.8893 128.822 22.7624 128.758 22.6989C128.758 22.6355 128.631 22.6355 128.503 22.6355ZM196.872 25.8713C194.829 23.7141 191.957 22.6355 188.382 22.6355C183.658 22.6989 180.211 24.3485 177.976 27.4574V23.3334C177.976 23.0796 177.785 22.8893 177.53 22.8893H170.188C169.933 22.8893 169.742 23.0796 169.742 23.3334V53.4073C169.742 53.661 169.933 53.8514 170.188 53.8514H177.53C177.785 53.8514 177.976 53.661 177.976 53.4073V38.6241C177.976 36.2131 178.679 34.2463 180.019 32.7235C181.36 31.2008 183.147 30.4395 185.509 30.376C187.424 30.376 189.02 30.947 190.105 32.0891C191.255 33.2311 191.765 34.8173 191.765 36.7842V53.4073C191.765 53.661 191.957 53.8514 192.212 53.8514H199.617C199.872 53.8514 200.064 53.661 200.064 53.4073V34.627C200 30.947 198.979 28.0285 196.872 25.8713Z" fill="#00C58B" style="fill:#00C58B;fill:color(display-p3 0.0000 0.7725 0.5451);fill-opacity:1;"/>
</g>
<defs>
<clipPath id="clip0_1_666">
<rect width="201" height="68" fill="white" style="fill:white;fill-opacity:1;"/>
</clipPath>
</defs>
</svg>
