<svg width="177" height="38" viewBox="0 0 177 38" fill="none" xmlns="http://www.w3.org/2000/svg">
<g clip-path="url(#clip0_1_682)">
<mask id="mask0_1_682" style="mask-type:luminance" maskUnits="userSpaceOnUse" x="2" y="12" width="37" height="26">
<path d="M5.66362 37.8806H20.4904C21.0925 37.8826 21.6849 37.8141 22.2677 37.6753C22.8505 37.5355 23.4055 37.3303 23.9325 37.0577C24.4596 36.7851 24.9416 36.4552 25.3788 36.0669C25.8159 35.6787 26.194 35.2451 26.5133 34.7674L38.4069 16.6794C39.5253 14.9774 38.184 12.8108 36.0114 12.8108H21.085C20.4979 12.8078 19.9205 12.8751 19.3516 13.0109C18.7839 13.1467 18.2429 13.3479 17.7286 13.6135C17.2144 13.8791 16.7441 14.2009 16.3177 14.5791C15.8913 14.9574 15.5228 15.3798 15.2111 15.8465L3.2682 34.0169C2.14976 35.7129 3.4921 37.8806 5.66362 37.8806Z" fill="white" style="fill:white;fill-opacity:1;"/>
</mask>
<g mask="url(#mask0_1_682)">
<path d="M2.86475 12.8077V37.8826H38.8605V12.8077H2.86475Z" fill="white" style="fill:white;fill-opacity:1;"/>
</g>
<mask id="mask1_1_682" style="mask-type:luminance" maskUnits="userSpaceOnUse" x="0" y="0" width="37" height="26">
<path d="M2.9583 25.4908H17.7851C18.3872 25.4928 18.9796 25.4244 19.5624 25.2856C20.1452 25.1458 20.7002 24.9405 21.2272 24.6679C21.7543 24.3953 22.2363 24.0654 22.6734 23.6771C23.1105 23.2889 23.4887 22.8553 23.8079 22.3775L35.7015 4.28964C36.8199 2.58768 35.4787 0.420996 33.3061 0.420996H18.3797C17.7926 0.417974 17.2152 0.485369 16.6463 0.621174C16.0786 0.756967 15.5376 0.958137 15.0233 1.22369C14.509 1.48925 14.0388 1.81114 13.6124 2.18935C13.186 2.56757 12.8175 2.99004 12.5058 3.45677L0.562875 21.6272C-0.555563 23.323 0.786774 25.4908 2.9583 25.4908Z" fill="white" style="fill:white;fill-opacity:1;"/>
</mask>
<g mask="url(#mask1_1_682)">
<path d="M0.159424 0.417969V25.4928H36.1552V0.417969H0.159424Z" fill="white" fill-opacity="0.7" style="fill:white;fill-opacity:0.7;"/>
</g>
<path d="M169.875 31.241H160.011L160.054 30.9878C162.945 30.9878 163.54 29.0894 164.178 25.9678L168.515 5.80339C169.152 2.68171 169.408 0.783386 166.517 0.783386L166.558 0.530273H176.422L176.38 0.783386C173.489 0.783386 172.893 2.68171 172.256 5.80339L167.919 25.9678C167.282 29.0894 167.027 30.9878 169.918 30.9878L169.875 31.241Z" fill="white" style="fill:white;fill-opacity:1;"/>
<path d="M153.474 0.0240479L157.045 25.8412C157.555 29.3848 158.024 30.8191 159.809 30.9877L159.766 31.2409H150.073L150.116 30.9877C152.624 30.8191 153.772 29.5957 153.389 26.8115L152.539 20.4837H142.506L140.89 23.3523C138.084 28.3302 137.191 30.6925 140.38 30.9877L140.337 31.2409H133.323L133.365 30.9877C135.406 30.6503 137.107 28.2035 140.039 23.1414L153.134 0.0240479H153.474ZM150.626 6.05649L143.058 19.4713H152.411L150.626 6.05649Z" fill="white" style="fill:white;fill-opacity:1;"/>
<path d="M136.334 27.6553L136.971 28.3303C135.016 30.4395 132.465 31.7472 130.254 31.7472C127.108 31.7472 125.28 30.0177 125.28 26.432V10.8657H123.069V9.85326L123.664 9.60018C125.747 8.67203 126.981 6.98466 128.214 3.60986H128.724V9.13605H136.674L136.079 10.8657H128.724V25.8413C128.724 28.3303 129.871 29.6379 132.082 29.6379C133.783 29.6379 135.271 28.5834 136.334 27.6553Z" fill="white" style="fill:white;fill-opacity:1;"/>
<path d="M113.821 32.0909C111.654 32.0909 109.23 31.5426 107.7 30.741L107.36 25.5101H107.87C109.443 29.2646 111.228 30.9942 114.247 30.9942C116.841 30.9942 118.881 29.6443 118.881 27.1553C118.881 24.6665 117.138 23.654 114.205 22.0932L112.589 21.2494C110.336 20.0261 107.955 18.634 107.955 15.1326C107.955 11.2938 110.93 8.97363 114.97 8.97363C116.67 8.97363 119.009 9.35336 120.624 10.2391V14.5421H120.114C119.051 11.4204 117.181 10.0705 114.672 10.0705C112.291 10.0705 110.718 11.5048 110.718 13.614C110.718 16.1873 112.887 17.3263 114.29 18.0434L115.863 18.8871C118.924 20.4901 121.645 21.7979 121.645 25.5101C121.645 29.5177 118.499 32.0909 113.821 32.0909Z" fill="white" style="fill:white;fill-opacity:1;"/>
<path d="M101.726 5.12852C100.365 5.12852 99.3023 4.0739 99.3023 2.76617C99.3023 1.45844 100.365 0.403809 101.726 0.403809C103.044 0.403809 104.106 1.45844 104.106 2.76617C104.106 4.0739 103.044 5.12852 101.726 5.12852ZM105.765 31.241H98.5796V30.7348C100.323 30.7348 100.45 29.3005 100.45 26.6006V14.7045C100.45 12.0047 99.7275 11.1188 98.282 10.7391V10.2329L103.554 8.71428H103.894V26.6006C103.894 29.3005 104.021 30.7348 105.765 30.7348V31.241Z" fill="white" style="fill:white;fill-opacity:1;"/>
<path d="M96.2815 8.97339C96.7493 8.97339 97.3444 9.05779 97.9396 9.31087L97.0894 12.9388H96.6642C95.7714 12.306 94.7935 12.0529 94.0283 12.0529C92.7529 12.0529 91.6475 12.7279 90.4996 14.4153V26.9442C90.4996 29.644 90.6271 31.0783 92.3703 31.0783V31.5845H85.1853V31.0783C86.9284 31.0783 87.0559 29.644 87.0559 26.9442V15.0481C87.0559 12.3482 86.3332 11.4623 84.8877 11.0826V10.5764L90.1595 9.05779H90.4996V13.0231C92.2852 10.5764 94.1984 8.97339 96.2815 8.97339Z" fill="white" style="fill:white;fill-opacity:1;"/>
<path d="M81.2829 8.71423V25.9678C81.2829 28.6677 81.9631 29.6801 83.4511 30.1019V30.6082L78.9021 31.7471H78.562L77.9242 27.9084C75.671 30.1442 72.865 31.7471 70.0591 31.7471C66.743 31.7471 64.6598 29.4269 64.6598 25.1663V13.5654C64.6598 10.8656 63.852 10.1063 62.4065 9.72666V9.22039L67.7633 8.71423H68.1035V24.2383C68.1035 27.4443 69.1238 29.3004 72.0998 29.3004C73.9704 29.3004 76.0111 28.3301 77.8392 26.8959V13.5654C77.8392 10.8656 77.0314 10.1063 75.5859 9.72666V9.22039L80.9428 8.71423H81.2829Z" fill="white" style="fill:white;fill-opacity:1;"/>
<path d="M51.5691 37.9905L51.1865 37.1468C54.3326 34.1094 54.9702 32.4221 54.9702 27.4442V6.0565C54.9702 2.93482 54.8002 1.03649 51.9092 1.03649V0.530273H61.7726V1.03649C58.8816 1.03649 58.7116 2.93482 58.7116 6.0565V24.7444C58.7116 31.4096 57.4361 34.7001 51.5691 37.9905Z" fill="white" style="fill:white;fill-opacity:1;"/>
</g>
<defs>
<clipPath id="clip0_1_682">
<rect width="177" height="38" fill="white" style="fill:white;fill-opacity:1;"/>
</clipPath>
</defs>
</svg>
