<svg width="195" height="40" viewBox="0 0 195 40" fill="none" xmlns="http://www.w3.org/2000/svg">
<g clip-path="url(#clip0_1_701)">
<path d="M19.5282 39.6883V19.4383L2.44067 9.24994L17.6414 0.186523L34.6226 10.3115V30.6883L19.5282 39.6883Z" fill="#00C58B" style="fill:#00C58B;fill:color(display-p3 0.0000 0.7725 0.5451);fill-opacity:1;"/>
<path d="M0.6604 30.6883V12.5616L6.32078 15.9366V27.1866L15.7547 32.8116V39.6883L0.6604 30.6883Z" fill="#00C58B" style="fill:#00C58B;fill:color(display-p3 0.0000 0.7725 0.5451);fill-opacity:1;"/>
<path fill-rule="evenodd" clip-rule="evenodd" d="M61.3608 7.375V27.9218H69.3432V31.7483H57.2642V7.375H61.3608ZM83.6464 14.7302H87.62V31.7483H83.6464V29.9661C82.0172 31.4804 80.2649 32.2375 78.3894 32.2375C76.0217 32.2375 74.0642 31.3872 72.517 29.6866C70.9813 27.9509 70.2136 25.7843 70.2136 23.1869C70.2136 20.6359 70.9813 18.5101 72.517 16.8094C74.0525 15.1088 75.9747 14.2585 78.284 14.2585C80.2766 14.2585 82.0642 15.0738 83.6464 16.7046V14.7302ZM74.2576 23.1869C74.2576 24.8176 74.6972 26.1454 75.5762 27.1705C76.4789 28.2072 77.6159 28.7256 78.9872 28.7256C80.4525 28.7256 81.6362 28.2246 82.5389 27.223C83.4413 26.1863 83.8926 24.8701 83.8926 23.2743C83.8926 21.6784 83.4413 20.3622 82.5389 19.3255C81.6362 18.3121 80.4642 17.8054 79.0223 17.8054C77.6626 17.8054 76.5257 18.3179 75.6113 19.3429C74.7089 20.3796 74.2576 21.661 74.2576 23.1869ZM95.1191 5.5V16.7046C96.7015 15.0738 98.4949 14.2585 100.499 14.2585C102.808 14.2585 104.731 15.1146 106.266 16.8269C107.802 18.5275 108.569 20.6476 108.569 23.1869C108.569 25.8077 107.796 27.9743 106.249 29.6866C104.713 31.3872 102.773 32.2375 100.429 32.2375C98.4479 32.2375 96.6781 31.4804 95.1191 29.9661V31.7483H91.163V5.5H95.1191ZM104.525 23.3616C104.525 21.7308 104.08 20.4029 103.189 19.3778C102.287 18.3295 101.156 17.8054 99.796 17.8054C98.3425 17.8054 97.1587 18.3121 96.2443 19.3255C95.3417 20.3271 94.8906 21.6318 94.8906 23.2392C94.8906 24.8933 95.3359 26.2154 96.2268 27.2056C97.1176 28.2188 98.2898 28.7256 99.7432 28.7256C101.115 28.7256 102.252 28.2188 103.154 27.2056C104.069 26.1805 104.525 24.8991 104.525 23.3616ZM126.899 24.1652H114.627C114.732 25.5631 115.189 26.6755 115.998 27.5026C116.807 28.3178 117.844 28.7256 119.11 28.7256C120.095 28.7256 120.909 28.4926 121.554 28.0266C122.187 27.5607 122.908 26.6988 123.717 25.4408L127.057 27.2927C126.542 28.1665 125.997 28.9148 125.422 29.5381C124.848 30.1611 124.232 30.6738 123.576 31.0756C122.92 31.4774 122.211 31.7716 121.449 31.9579C120.687 32.1443 119.86 32.2375 118.97 32.2375C116.414 32.2375 114.363 31.4221 112.816 29.7914C111.269 28.1491 110.495 25.9707 110.495 23.2568C110.495 20.566 111.245 18.3878 112.745 16.7221C114.258 15.0797 116.262 14.2585 118.759 14.2585C121.279 14.2585 123.271 15.0564 124.737 16.6522C126.19 18.2363 126.917 20.4319 126.917 23.2392L126.899 24.1652ZM122.838 20.9504C122.287 18.8538 120.956 17.8054 118.846 17.8054C118.366 17.8054 117.915 17.8782 117.493 18.0237C117.071 18.1694 116.687 18.379 116.341 18.6528C115.995 18.9265 115.699 19.2556 115.453 19.6399C115.207 20.0243 115.019 20.4612 114.891 20.9504H122.838ZM133.73 5.5V31.7483H129.774V5.5H133.73ZM141.247 5.5V16.7046C142.829 15.0738 144.622 14.2585 146.627 14.2585C148.936 14.2585 150.858 15.1146 152.394 16.8269C153.929 18.5275 154.697 20.6476 154.697 23.1869C154.697 25.8077 153.923 27.9743 152.376 29.6866C150.841 31.3872 148.901 32.2375 146.556 32.2375C144.575 32.2375 142.806 31.4804 141.247 29.9661V31.7483H137.291V5.5H141.247ZM150.653 23.3616C150.653 21.7308 150.208 20.4029 149.317 19.3778C148.414 18.3295 147.283 17.8054 145.924 17.8054C144.47 17.8054 143.286 18.3121 142.372 19.3255C141.469 20.3271 141.018 21.6318 141.018 23.2392C141.018 24.8933 141.463 26.2154 142.354 27.2056C143.245 28.2188 144.417 28.7256 145.871 28.7256C147.242 28.7256 148.379 28.2188 149.282 27.2056C150.196 26.1805 150.653 24.8991 150.653 23.3616ZM156.622 23.1169C156.622 20.6592 157.508 18.5684 159.277 16.8443C161.047 15.1204 163.204 14.2585 165.748 14.2585C168.303 14.2585 170.472 15.1263 172.253 16.8619C174.011 18.5974 174.89 20.7291 174.89 23.2568C174.89 25.8077 174.005 27.9451 172.235 29.6691C170.454 31.3814 168.268 32.2375 165.677 32.2375C163.11 32.2375 160.959 31.3639 159.225 29.6166C157.49 27.8927 156.622 25.7262 156.622 23.1169ZM160.666 23.1869C160.666 24.8875 161.124 26.2328 162.038 27.223C162.975 28.2246 164.212 28.7256 165.748 28.7256C167.295 28.7256 168.532 28.2304 169.458 27.2404C170.384 26.2502 170.847 24.9282 170.847 23.2743C170.847 21.6201 170.384 20.2981 169.458 19.3081C168.52 18.3062 167.283 17.8054 165.748 17.8054C164.236 17.8054 163.011 18.3062 162.073 19.3081C161.135 20.3097 160.666 21.6027 160.666 23.1869ZM182.073 22.5404L175.919 14.7302H180.631L184.447 19.6924L188.332 14.7302H193.185L186.855 22.5404L194.187 31.7483H189.475L184.447 25.3883L179.295 31.7483H174.46L182.073 22.5404Z" fill="#00C58B" style="fill:#00C58B;fill:color(display-p3 0.0000 0.7725 0.5451);fill-opacity:1;"/>
</g>
<defs>
<clipPath id="clip0_1_701">
<rect width="195" height="40" fill="white" style="fill:white;fill-opacity:1;"/>
</clipPath>
</defs>
</svg>
