<svg width="198" height="39" viewBox="0 0 198 39" fill="none" xmlns="http://www.w3.org/2000/svg">
<g clip-path="url(#clip0_1_705)">
<path d="M23.1303 23.5393L17.6584 20.4906V0.312866L23.1303 3.3616V23.5393Z" fill="#00C58B" style="fill:#00C58B;fill:color(display-p3 0.0000 0.7725 0.5451);fill-opacity:1;"/>
<path d="M31.8759 28.6619L26.4031 25.6132V5.09949L31.8759 8.14821V28.6619Z" fill="#00C58B" style="fill:#00C58B;fill:color(display-p3 0.0000 0.7725 0.5451);fill-opacity:1;"/>
<path d="M8.84058 23.5393L14.3124 20.4906V0.312866L8.84058 3.3616V23.5393Z" fill="url(#paint0_linear_1_705)"/>
<path d="M23.275 35.5377L17.8021 38.5854L0.238525 28.6619V8.14824L5.7104 5.09851V25.6132L23.275 35.5377Z" fill="#00C58B" style="fill:#00C58B;fill:color(display-p3 0.0000 0.7725 0.5451);fill-opacity:1;"/>
<path d="M64.9147 23.7852V27.1135H51.1511V10.6H54.9126V23.7852H64.9147Z" fill="#00C58B" style="fill:#00C58B;fill:color(display-p3 0.0000 0.7725 0.5451);fill-opacity:1;"/>
<path d="M73.6221 18.8367L72.9514 20.3923L73.6314 18.8418L73.6221 18.8367ZM73.6221 18.8367L72.9514 20.3923L73.6314 18.8418L73.6221 18.8367Z" fill="#00C58B" style="fill:#00C58B;fill:color(display-p3 0.0000 0.7725 0.5451);fill-opacity:1;"/>
<path d="M85.8967 27.1135H81.5847L81.5747 27.092L72.2927 21.9213L72.9513 20.3924L73.6313 18.8419L79.3707 22.0381L76.9727 16.5407L75.9447 13.9764H75.6687L74.6413 16.5407L73.6313 18.8419L73.622 18.8367L72.9513 20.3924L70.0033 27.1135H65.792L73.1373 10.6H78.502L85.8967 27.1135Z" fill="#00C58B" style="fill:#00C58B;fill:color(display-p3 0.0000 0.7725 0.5451);fill-opacity:1;"/>
<path d="M94.3961 27.3593C92.7074 27.3593 91.2701 27.1422 90.0834 26.7059C88.8968 26.2717 87.9948 25.6214 87.3761 24.7591C86.7574 23.8958 86.4488 22.8246 86.4488 21.5424V21.3939H90.2081V21.8383C90.2081 22.3484 90.3221 22.758 90.5468 23.0703C90.7721 23.3817 91.1868 23.6121 91.7888 23.7596C92.3894 23.9071 93.2581 23.9808 94.3961 23.9808C95.3988 23.9808 96.1668 23.9286 96.7021 23.821C97.2368 23.7135 97.6041 23.5455 97.8041 23.3161C98.0054 23.0857 98.1061 22.7908 98.1061 22.4283C98.1061 21.9193 97.9348 21.5496 97.5928 21.3192C97.2501 21.0898 96.6534 20.9003 95.8001 20.7528L91.0868 20.0872C90.0834 19.9233 89.2274 19.653 88.5181 19.2741C87.8061 18.8961 87.2594 18.3902 86.8748 17.7584C86.4908 17.1255 86.2981 16.3584 86.2981 15.4542C86.2981 14.8295 86.4368 14.2129 86.7114 13.6046C86.9874 12.9974 87.4261 12.4505 88.0281 11.9651C88.6294 11.4807 89.4188 11.0905 90.3968 10.7945C91.3748 10.4985 92.5741 10.3511 93.9941 10.3511C95.7154 10.3511 97.1321 10.5928 98.2428 11.0782C99.3541 11.5626 100.185 12.2447 100.737 13.1233C101.289 14.002 101.565 15.0169 101.565 16.1669V16.3144H97.7794V15.9693C97.7794 15.4439 97.6668 15.0169 97.4414 14.6881C97.2168 14.3594 96.8021 14.1177 96.2001 13.9611C95.5988 13.8043 94.7374 13.7265 93.6181 13.7265C92.7148 13.7265 92.0094 13.7839 91.5001 13.8986C90.9908 14.0143 90.6274 14.1864 90.4094 14.4168C90.1914 14.6471 90.0821 14.9421 90.0821 15.3047C90.0821 15.616 90.1501 15.8751 90.2834 16.0809C90.4168 16.2867 90.6248 16.4465 90.9094 16.5612C91.1941 16.6759 91.5701 16.7743 92.0374 16.8572L96.7514 17.5956C98.0041 17.7932 99.0021 18.1138 99.7468 18.5572C100.489 19.0016 101.029 19.5393 101.363 20.1722C101.698 20.8051 101.865 21.4984 101.865 22.2542C101.865 23.142 101.613 23.9756 101.113 24.756C100.613 25.5363 99.8108 26.1652 98.7061 26.6414C97.6034 27.1176 96.1654 27.3552 94.3948 27.3552L94.3961 27.3593Z" fill="#00C58B" style="fill:#00C58B;fill:color(display-p3 0.0000 0.7725 0.5451);fill-opacity:1;"/>
<path d="M119.491 10.6V13.9262H113.248V27.1135H109.487V13.9262H103.245V10.6H119.491Z" fill="#00C58B" style="fill:#00C58B;fill:color(display-p3 0.0000 0.7725 0.5451);fill-opacity:1;"/>
<path d="M130.17 27.1124H124.578L120.618 10.5989H124.83L126.861 19.9642L127.437 23.5875H127.713L128.489 19.9642L131.298 10.5989H136.887L139.67 19.9642L140.447 23.5875H140.723L141.3 19.9642L143.33 10.5989H147.442L143.456 27.1124H137.867L135.359 18.8552L134.181 14.0992H133.905L132.727 18.8552L130.17 27.1124Z" fill="#00C58B" style="fill:#00C58B;fill:color(display-p3 0.0000 0.7725 0.5451);fill-opacity:1;"/>
<path d="M181.994 23.7852V27.1135H168.23V10.6H171.991V23.7852H181.994Z" fill="#00C58B" style="fill:#00C58B;fill:color(display-p3 0.0000 0.7725 0.5451);fill-opacity:1;"/>
<path d="M197.761 23.7852V27.1135H183.998V10.6H187.759V23.7852H197.761Z" fill="#00C58B" style="fill:#00C58B;fill:color(display-p3 0.0000 0.7725 0.5451);fill-opacity:1;"/>
<path d="M154.507 18.8367L153.865 20.3268L154.517 18.8418L154.507 18.8367ZM154.507 18.8367L153.865 20.3268L154.517 18.8418L154.507 18.8367Z" fill="#00C58B" style="fill:#00C58B;fill:color(display-p3 0.0000 0.7725 0.5451);fill-opacity:1;"/>
<path d="M166.783 27.1135H162.471L162.461 27.092L153.179 21.9213L153.865 20.3268L154.517 18.8419L160.257 22.0391L157.859 16.5407L156.83 13.9764H156.555L155.527 16.5407L154.517 18.8419L154.507 18.8367L153.865 20.3268L150.889 27.1135H146.677L154.024 10.6H159.389L166.783 27.1135Z" fill="#00C58B" style="fill:#00C58B;fill:color(display-p3 0.0000 0.7725 0.5451);fill-opacity:1;"/>
</g>
<defs>
<linearGradient id="paint0_linear_1_705" x1="11.577" y1="23.5393" x2="11.577" y2="0.312866" gradientUnits="userSpaceOnUse">
<stop stop-color="#007481" stop-opacity="0" style="stop-color:none;stop-opacity:0;"/>
<stop offset="0.11" stop-color="#007481" stop-opacity="0.2" style="stop-color:#007481;stop-color:color(display-p3 0.0000 0.4549 0.5059);stop-opacity:0.2;"/>
<stop offset="0.29" stop-color="#007481" stop-opacity="0.49" style="stop-color:#007481;stop-color:color(display-p3 0.0000 0.4549 0.5059);stop-opacity:0.49;"/>
<stop offset="0.47" stop-color="#007481" stop-opacity="0.71" style="stop-color:#007481;stop-color:color(display-p3 0.0000 0.4549 0.5059);stop-opacity:0.71;"/>
<stop offset="0.65" stop-color="#007481" stop-opacity="0.87" style="stop-color:#007481;stop-color:color(display-p3 0.0000 0.4549 0.5059);stop-opacity:0.87;"/>
<stop offset="0.83" stop-color="#007481" stop-opacity="0.97" style="stop-color:#007481;stop-color:color(display-p3 0.0000 0.4549 0.5059);stop-opacity:0.97;"/>
<stop offset="1" stop-color="#007481" style="stop-color:#007481;stop-color:color(display-p3 0.0000 0.4549 0.5059);stop-opacity:1;"/>
</linearGradient>
<clipPath id="clip0_1_705">
<rect width="198" height="39" fill="white" style="fill:white;fill-opacity:1;"/>
</clipPath>
</defs>
</svg>
