<svg width="200" height="52" viewBox="0 0 200 52" fill="none" xmlns="http://www.w3.org/2000/svg">
<g clip-path="url(#clip0_1_720)">
<path d="M32.8053 0.984544C32.4352 1.38111 32.0537 1.81168 31.6458 2.21958C31.0755 2.78611 30.4863 3.33376 29.9084 3.89274C29.036 4.73498 28.1711 5.57722 27.3024 6.41947C27.1702 6.54788 27.0191 6.66496 26.8983 6.80471C26.7472 6.98222 26.5697 7.03132 26.3393 7.02377C23.4047 6.93312 20.5947 7.49587 17.9509 8.7649C12.6255 11.3218 9.17718 15.4726 7.59089 21.1644C7.29252 22.2332 7.10367 23.3248 7.05457 24.4352C7.0168 25.3227 6.97526 26.2141 7.02058 27.0979C7.14522 29.4433 7.71553 31.6868 8.69751 33.8207C9.50576 35.5769 10.5595 37.1746 11.855 38.6098C11.9607 38.7269 12.0061 38.8364 11.9909 38.995C11.9192 39.8108 11.855 40.6266 11.7908 41.4462C11.7341 42.1865 11.685 42.9305 11.6246 43.6708C11.5679 44.3959 11.5 45.1173 11.4395 45.8425C11.4018 46.2957 11.3678 46.7527 11.33 47.2059C11.33 47.2362 11.3187 47.2701 11.3111 47.3041C1.6612 40.993 -3.40359 27.2338 2.57142 14.6757C9.27915 1.16961 23.5708 -1.88211 32.8053 0.984544Z" fill="white" style="fill:white;fill-opacity:1;"/>
<path d="M40.4536 4.50439C50.3679 11.0648 55.1456 24.722 49.3519 36.9591C43.2296 49.8835 29.3873 53.9626 18.9443 50.8618C19.1331 50.6767 19.3068 50.4954 19.4844 50.3217C20.4172 49.4228 21.3501 48.5239 22.2792 47.625C23.2046 46.7299 24.1299 45.8385 25.0553 44.9434C25.1308 44.8679 25.2063 44.8339 25.3196 44.8414C26.3809 44.9094 27.4309 44.8225 28.4847 44.6866C31.1322 44.3391 33.5948 43.4666 35.8496 42.0465C40.3591 39.1988 43.222 35.1688 44.4193 29.9643C44.7252 28.6386 44.8574 27.2941 44.8536 25.9382C44.8499 22.9393 44.1813 20.0878 42.8254 17.41C42.1003 15.9785 41.2165 14.6491 40.1401 13.4518C40.0306 13.331 39.989 13.2176 40.0079 13.0439C40.0532 12.6247 40.0608 12.2017 40.0834 11.7787C40.0985 11.4916 40.1137 11.2046 40.1288 10.9175C40.1665 10.0564 40.2005 9.19527 40.2458 8.33037C40.2836 7.56366 40.3365 6.79318 40.378 6.02648C40.4045 5.52793 40.4271 5.02938 40.4498 4.50439H40.4536Z" fill="white" style="fill:white;fill-opacity:1;"/>
<path d="M15.9604 45.3138C16.0095 44.4451 16.0587 43.5613 16.104 42.6737C16.1305 42.1412 16.1455 41.6087 16.1719 41.0761C16.2135 40.2981 16.2588 39.5238 16.3041 38.7458C16.3268 38.3303 16.3457 37.9187 16.3683 37.5032C16.3834 37.2237 16.3986 36.9442 16.41 36.6685C16.4477 35.8074 16.4854 34.9425 16.5269 34.0814C16.5647 33.3109 16.6138 32.5442 16.6591 31.7775C16.678 31.4224 16.7007 31.0674 16.7158 30.7124C16.7573 29.8513 16.7913 28.9864 16.8329 28.1252C16.8706 27.3472 16.9235 26.5729 16.9651 25.7949C16.9877 25.3568 17.018 24.9149 17.0294 24.4768C17.0634 23.1511 17.5505 22.0294 18.5023 21.1078C20.2207 19.4497 21.9355 17.7879 23.6502 16.1299C25.2403 14.5927 26.8265 13.0593 28.4166 11.5221C29.3797 10.593 30.339 9.66386 31.3021 8.73475C32.3823 7.69611 33.4662 6.66125 34.5389 5.61505C34.8486 5.3129 35.3698 5.34312 35.6228 5.58484C35.7852 5.74347 35.8798 5.92476 35.8684 6.14759C35.8533 6.49507 35.8306 6.83876 35.8041 7.18624C35.7626 7.72633 35.7097 8.26264 35.6644 8.80274C35.6191 9.35794 35.5701 9.91314 35.5285 10.4683C35.487 10.9744 35.453 11.4805 35.4114 11.9866C35.3699 12.5267 35.3207 13.0631 35.2791 13.6031C35.2376 14.1168 35.1998 14.6305 35.1583 15.1441C35.1129 15.6842 35.0676 16.2205 35.0261 16.7606C34.9845 17.2818 34.9469 17.8068 34.9053 18.328C34.8638 18.8492 34.8184 19.3704 34.7768 19.8954C34.7353 20.4166 34.6937 20.9416 34.6522 21.4628C34.6068 22.0105 34.5616 22.5581 34.5163 23.1058C34.4748 23.6043 34.4408 24.0991 34.3992 24.5976C34.3539 25.1528 34.3047 25.708 34.2632 26.2632C34.2216 26.7958 34.1725 27.3245 34.1461 27.8571C34.0894 28.9826 33.81 30.025 33.0811 30.9126C32.9451 31.075 32.8015 31.2298 32.6504 31.3771C31.3096 32.6801 29.9652 33.9832 28.6206 35.2824C27.6273 36.2417 26.634 37.2011 25.6444 38.1566C24.1639 39.5843 22.6833 41.0157 21.2065 42.4434C20.2132 43.4027 19.2237 44.362 18.2304 45.3176C17.9207 45.6159 17.6109 45.9181 17.2937 46.2127C16.9991 46.4884 16.6365 46.5262 16.3154 46.3222C16.1002 46.1862 15.9794 45.9936 15.9681 45.7368C15.9643 45.6008 15.9681 45.4649 15.9681 45.31L15.9604 45.3138ZM30.1199 28.4954C27.0191 27.0866 23.9674 25.6967 20.8741 24.2917C20.6362 28.9108 20.4058 33.4771 20.1716 38.0395L20.217 38.0584C23.5066 34.8821 26.7963 31.7057 30.1199 28.4954Z" fill="white" style="fill:white;fill-opacity:1;"/>
<path d="M127.986 6.24951V44.8001H136.447V18.9285L149.715 41.907C150.225 42.787 150.954 43.5159 151.83 44.022C152.71 44.5281 153.707 44.7963 154.719 44.7963H161.797V6.24951H153.329V30.9465L140.529 9.10861C140.023 8.2437 139.298 7.52232 138.426 7.01999C137.553 6.51767 136.571 6.25329 135.567 6.24951H127.99H127.986Z" fill="white" style="fill:white;fill-opacity:1;"/>
<path d="M85.5003 44.8001V36.642H68.1606V6.24951H59.708V44.8001H85.5041H85.5003Z" fill="white" style="fill:white;fill-opacity:1;"/>
<path d="M166.076 6.24951V44.8001H192.847C194.743 44.8001 196.563 44.0447 197.904 42.7039C199.245 41.3631 200 39.5427 200 37.6467V13.4029C200 11.5069 199.248 9.68647 197.904 8.34568C196.563 7.00489 194.743 6.24951 192.847 6.24951H166.076ZM174.529 36.3437V14.7022H190.539C190.811 14.7022 191.071 14.8117 191.264 15.0043C191.457 15.1969 191.566 15.4575 191.566 15.7295V35.3126C191.566 35.5845 191.457 35.8451 191.264 36.0377C191.071 36.2303 190.811 36.3399 190.539 36.3399H174.529V36.3437Z" fill="white" style="fill:white;fill-opacity:1;"/>
<path d="M114.231 36.3438H99.2405C98.9685 36.3438 98.7079 36.2343 98.5115 36.0416C98.3189 35.849 98.2094 35.5884 98.2094 35.3165V15.7334C98.2094 15.5974 98.2358 15.4652 98.2887 15.3406C98.3416 15.2159 98.4171 15.1026 98.5115 15.0082C98.6059 14.9138 98.7193 14.8383 98.8439 14.7854C98.9685 14.7325 99.1007 14.7061 99.2367 14.7061H114.945C115.081 14.7061 115.213 14.7325 115.338 14.7854C115.462 14.8383 115.576 14.9138 115.67 15.0082C115.764 15.1026 115.84 15.2159 115.893 15.3406C115.946 15.4652 115.972 15.5974 115.972 15.7334V19.1401H123.715V13.4068C123.715 11.5108 122.959 9.69037 121.615 8.34958C120.274 7.00879 118.454 6.25342 116.554 6.25342H96.9215C95.0255 6.25342 93.205 7.00879 91.8642 8.34958C90.5234 9.69037 89.7681 11.5108 89.7681 13.4068V37.6468C89.7681 39.5428 90.5234 41.3633 91.8642 42.704C93.205 44.0448 95.0255 44.8002 96.9215 44.8002H116.554C118.45 44.8002 120.27 44.0448 121.615 42.704C122.956 41.3633 123.711 39.5428 123.715 37.6468V22.3656H106.741V30.8258H115.255V35.3165C115.255 35.5884 115.145 35.849 114.952 36.0416C114.76 36.2343 114.499 36.3438 114.223 36.3438H114.231Z" fill="white" style="fill:white;fill-opacity:1;"/>
</g>
<defs>
<clipPath id="clip0_1_720">
<rect width="200" height="52" fill="white" style="fill:white;fill-opacity:1;"/>
</clipPath>
</defs>
</svg>
