<svg width="198" height="71" viewBox="0 0 198 71" fill="none" xmlns="http://www.w3.org/2000/svg">
<g clip-path="url(#clip0_1_728)">
<path d="M83.7496 2.32478H74.6433C73.5462 2.21438 72.3393 2.76638 71.9005 3.87038C71.5713 4.53278 71.3519 5.30558 71.0228 5.96798L62.5748 26.1712L59.9416 32.3536L51.3839 13.3648L47.3245 4.31198C46.9953 3.20798 46.0079 2.43518 44.8011 2.43518C42.9359 2.32478 41.0708 2.43518 39.2056 2.43518C37.6696 2.43518 36.1336 2.32478 34.5976 2.43518C33.2811 2.43518 32.2936 3.53918 32.4033 4.86398C32.4033 5.30558 32.5131 5.63678 32.7325 5.96798C33.8296 8.17598 34.9268 10.4944 36.0239 12.7024L47.7633 37.1008L51.7131 45.2704C52.1519 45.9328 52.3713 46.816 52.3713 47.5888C52.0422 48.5824 51.7131 49.576 51.1645 50.5696L45.6788 62.7136C45.1302 64.0384 44.4719 65.3632 43.9233 66.688C43.2651 67.792 43.7039 69.2272 44.8011 69.8896C45.1302 70.1104 45.5691 70.2208 46.0079 70.2208C47.8731 70.3312 49.8479 70.2208 51.7131 70.2208C53.0296 70.2208 55.6628 70.4416 56.7599 69.7792C57.8571 69.1168 58.2959 67.1296 58.8445 66.0256L67.8411 45.9328L79.2513 20.4304C81.4456 15.6832 83.7496 10.936 85.7245 6.07838C86.2731 4.97438 85.9439 3.53918 84.8468 2.98718C84.4079 2.43518 84.0788 2.32478 83.7496 2.32478Z" fill="#00C58B" style="fill:#00C58B;fill:color(display-p3 0.0000 0.7725 0.5451);fill-opacity:1;"/>
<path d="M39.7541 44.7184L37.9987 42.0688C37.3404 41.1856 36.9015 39.8608 35.6947 39.8608C33.6101 39.8608 31.3061 39.9712 29.2215 39.8608C21.7609 39.64 15.8364 33.568 15.6169 26.0608C15.6169 22.528 15.6169 18.9952 15.6169 15.352V7.18243C15.6169 5.96803 16.0558 3.53923 14.9587 2.65603C14.0809 2.21443 13.0935 1.99363 12.1061 2.21443H4.42609C3.43866 2.10403 2.56094 2.21443 1.79294 2.43523C0.586086 3.09763 0.805515 4.42243 0.805515 5.52643C0.805515 6.29923 0.805515 7.40323 0.805515 8.06563C0.695801 9.83203 0.695801 11.3776 0.695801 13.0336C0.695801 17.4496 0.695801 21.7552 0.695801 26.1712C0.805515 34.0096 4.09694 41.4064 9.9118 46.7056C14.9587 51.3424 21.4318 53.8816 28.2341 53.7712C30.6478 53.7712 33.0615 53.7712 35.3655 53.6608C36.2432 53.6608 37.0112 53.1088 37.3404 52.336L39.4249 49.024C40.3027 47.6992 40.7415 46.264 39.7541 44.7184Z" fill="#00C58B" style="fill:#00C58B;fill:color(display-p3 0.0000 0.7725 0.5451);fill-opacity:1;"/>
<path d="M119.297 1C113.592 1 107.557 3.6496 104.595 8.728C104.595 7.1824 105.034 4.312 103.937 2.9872C103.059 1.9936 99.8775 2.3248 98.4512 2.3248H94.9403C94.282 2.2144 93.514 2.3248 92.8558 2.4352C91.4295 2.8768 91.3198 4.0912 91.3198 5.416V28.9312C91.3198 36.2176 91.21 43.6144 91.3198 51.0112C91.21 52.336 92.1975 53.44 93.514 53.5504C93.6238 53.5504 93.7335 53.5504 93.8432 53.5504C95.9278 53.5504 98.0123 53.5504 100.097 53.5504C101.852 53.5504 104.705 53.992 105.034 51.6736C105.144 50.7904 105.144 49.9072 105.034 48.9136C105.034 40.744 105.034 32.5744 105.034 24.5152C105.034 18.8848 108.216 13.696 114.25 13.5856C117.322 13.3648 120.394 14.6896 122.259 17.1184C123.466 19.1056 124.124 21.5344 124.015 23.8528C124.015 31.912 124.015 39.9712 124.015 47.92C124.015 49.024 123.905 50.128 124.015 51.232C124.124 53.44 125.989 53.5504 127.745 53.5504H134.437C136.083 53.5504 137.729 53.2192 137.729 51.1216C137.839 47.92 137.729 44.7184 137.729 41.5168V26.944C137.839 23.8528 137.729 20.872 137.509 17.7808C136.741 11.8192 133.999 6.0784 128.623 3.208C125.77 1.6624 122.479 0.889601 119.297 1Z" fill="#00C58B" style="fill:#00C58B;fill:color(display-p3 0.0000 0.7725 0.5451);fill-opacity:1;"/>
<path d="M193.244 41.5169C200.485 30.0353 197.633 14.8001 186.881 6.63046C176.019 -1.31834 160.878 -0.435144 151.004 8.72806C141.24 18.0017 140.033 33.2369 148.261 44.0561C152.869 49.9073 159.672 53.5505 167.022 54.2129C170.862 54.5441 174.702 54.2129 178.433 52.9985C179.31 52.6673 180.188 52.4465 180.956 52.0049C181.395 51.7841 181.834 51.6737 182.163 51.4529C182.382 51.3425 183.26 50.6801 183.589 50.6801C184.028 50.6801 185.016 52.1153 185.235 52.4465C185.784 52.9985 186.332 53.6609 186.881 54.2129C187.649 54.8753 188.636 55.0961 189.514 54.7649L192.805 54.4337C193.683 54.4337 194.451 54.3233 195.219 53.9921C197.194 52.9985 196.755 49.4657 196.865 47.6993C197.084 46.8161 196.974 45.9329 196.645 45.1601C196.097 44.4977 195.438 43.8353 194.78 43.2833L193.244 41.5169ZM161.537 40.3025C154.625 35.8865 152.65 26.7233 156.929 19.8785C157.477 18.9953 158.136 18.2225 158.794 17.5601C165.267 10.9361 176.677 11.3777 182.273 18.7745C185.454 22.8593 186.113 28.3793 184.248 33.1265C178.542 28.9313 171.082 35.8865 174.812 41.9585C170.424 43.3937 165.596 42.8417 161.537 40.3025Z" fill="#00C58B" style="fill:#00C58B;fill:color(display-p3 0.0000 0.7725 0.5451);fill-opacity:1;"/>
</g>
<defs>
<clipPath id="clip0_1_728">
<rect width="198" height="71" fill="white" style="fill:white;fill-opacity:1;"/>
</clipPath>
</defs>
</svg>
