<svg width="198" height="45" viewBox="0 0 198 45" fill="none" xmlns="http://www.w3.org/2000/svg">
<g clip-path="url(#clip0_1_734)">
<path d="M147.65 12.4501C145.175 12.4501 142.8 13.4751 141.075 15.2751V5.75007C141.075 5.45007 140.825 5.20007 140.525 5.20007H137.175C136.875 5.20007 136.625 5.45007 136.625 5.75007V31.5001C136.625 31.8001 136.875 32.0501 137.175 32.0501H140.525C140.825 32.0501 141.075 31.8001 141.075 31.5001V29.7251C142.8 31.5251 145.15 32.5501 147.65 32.5501C152.875 32.5501 157.1 28.0501 157.1 22.5001C157.1 16.9501 152.875 12.4501 147.65 12.4501ZM146.875 28.5251C143.7 28.5251 141.125 25.8751 141.1 22.5751V22.4251C141.15 19.1251 143.7 16.4751 146.875 16.4751C150.075 16.4751 152.65 19.1751 152.65 22.5001C152.65 25.8251 150.05 28.5251 146.875 28.5251Z" fill="#00C58B" style="fill:#00C58B;fill:color(display-p3 0.0000 0.7725 0.5451);fill-opacity:1;"/>
<path d="M169.425 12.4501C163.775 12.4501 159.2 16.9501 159.2 22.5001C159.2 28.0501 163.775 32.5501 169.425 32.5501C175.075 32.5501 179.65 28.0501 179.65 22.5001C179.65 16.9501 175.075 12.4501 169.425 12.4501ZM169.4 28.5251C166.2 28.5251 163.625 25.8251 163.625 22.5001C163.625 19.1751 166.225 16.4751 169.4 16.4751C172.575 16.4751 175.175 19.1751 175.175 22.5001C175.175 25.8251 172.575 28.5251 169.4 28.5251Z" fill="#00C58B" style="fill:#00C58B;fill:color(display-p3 0.0000 0.7725 0.5451);fill-opacity:1;"/>
<path d="M106.9 12.9501H103.55C103.25 12.9501 103 13.2001 103 13.5001V15.2751C101.275 13.4751 98.9246 12.4501 96.4246 12.4501C91.1996 12.4501 86.9746 16.9501 86.9746 22.5001C86.9746 28.0501 91.1996 32.5501 96.4246 32.5501C98.8996 32.5501 101.275 31.5251 103 29.7251V31.5001C103 31.8001 103.25 32.0501 103.55 32.0501H106.9C107.2 32.0501 107.45 31.8001 107.45 31.5001V13.5001C107.45 13.2001 107.2 12.9501 106.9 12.9501ZM97.1996 28.5251C93.9996 28.5251 91.4246 25.8251 91.4246 22.5001C91.4246 19.1751 94.0246 16.4751 97.1996 16.4751C100.375 16.4751 102.95 19.1251 102.975 22.4251V22.5751C102.95 25.8751 100.375 28.5251 97.1996 28.5251Z" fill="#00C58B" style="fill:#00C58B;fill:color(display-p3 0.0000 0.7725 0.5451);fill-opacity:1;"/>
<path d="M123.625 12.4501C121.15 12.4501 118.775 13.4751 117.05 15.2751V13.5001C117.05 13.2001 116.8 12.9501 116.5 12.9501H113.15C112.85 12.9501 112.6 13.2001 112.6 13.5001V39.2501C112.6 39.5501 112.85 39.8001 113.15 39.8001H116.5C116.8 39.8001 117.05 39.5501 117.05 39.2501V29.7251C118.775 31.5251 121.125 32.5501 123.625 32.5501C128.85 32.5501 133.075 28.0501 133.075 22.5001C133.075 16.9501 128.85 12.4501 123.625 12.4501ZM122.85 28.5251C119.675 28.5251 117.1 25.8751 117.075 22.5751V22.4251C117.125 19.1251 119.675 16.4751 122.85 16.4751C126.05 16.4751 128.625 19.1751 128.625 22.5001C128.625 25.8251 126.05 28.5251 122.85 28.5251Z" fill="#00C58B" style="fill:#00C58B;fill:color(display-p3 0.0000 0.7725 0.5451);fill-opacity:1;"/>
<path d="M76.9498 12.45C74.4498 12.475 72.1748 13.925 71.0998 16.2C69.8748 13.875 67.4248 12.425 64.7998 12.45C62.7498 12.45 60.8248 13.45 59.6248 15.1V13.5C59.6248 13.2 59.3748 12.95 59.0748 12.95H55.7248C55.4248 12.95 55.1748 13.2 55.1748 13.5V31.5C55.1748 31.8 55.4248 32.05 55.7248 32.05H59.0748C59.3748 32.05 59.6248 31.8 59.6248 31.5V20.725C59.7498 18.325 61.4248 16.4 63.4748 16.4C65.5998 16.4 67.3748 18.175 67.3748 20.5V31.5C67.3748 31.8 67.6248 32.05 67.9248 32.05H71.2998C71.5998 32.05 71.8498 31.8 71.8498 31.5L71.8248 20.3C72.1248 18.1 73.6998 16.4 75.6248 16.4C77.7498 16.4 79.5248 18.175 79.5248 20.5V31.5C79.5248 31.8 79.7748 32.05 80.0748 32.05H83.4498C83.7498 32.05 83.9998 31.8 83.9998 31.5L83.9748 19.125C83.9748 15.425 80.8248 12.45 76.9498 12.45Z" fill="#00C58B" style="fill:#00C58B;fill:color(display-p3 0.0000 0.7725 0.5451);fill-opacity:1;"/>
<path d="M197.675 31.275L191.875 22.45L197.625 13.7C197.775 13.475 197.7 13.15 197.475 13C197.4 12.95 197.3 12.925 197.2 12.925H193.325C193.025 12.925 192.75 13.075 192.6 13.325L189.225 19L185.85 13.35C185.7 13.1 185.425 12.95 185.125 12.95H181.25C180.975 12.95 180.75 13.175 180.75 13.45C180.75 13.55 180.775 13.65 180.825 13.725L186.575 22.475L180.775 31.3C180.625 31.525 180.7 31.85 180.925 32C181 32.05 181.1 32.0751 181.2 32.0751H185.075C185.375 32.0751 185.65 31.925 185.8 31.675L189.25 25.925L192.7 31.675C192.85 31.925 193.125 32.0751 193.425 32.0751H197.25C197.525 32.0751 197.75 31.85 197.75 31.5751C197.75 31.475 197.725 31.375 197.675 31.275Z" fill="#00C58B" style="fill:#00C58B;fill:color(display-p3 0.0000 0.7725 0.5451);fill-opacity:1;"/>
<path d="M22.475 0.275024C10.2 0.275024 0.25 10.225 0.25 22.5C0.25 34.775 10.2 44.725 22.475 44.725C34.75 44.725 44.7 34.775 44.7 22.5C44.7 10.225 34.75 0.275024 22.475 0.275024ZM33.025 27.95C25.425 35.55 11.85 33.125 11.85 33.125C11.85 33.125 9.4 19.575 17.025 11.95C21.25 7.72502 28.25 7.90002 32.675 12.3C37.1 16.7 37.25 23.725 33.025 27.95Z" fill="#00C58B" style="fill:#00C58B;fill:color(display-p3 0.0000 0.7725 0.5451);fill-opacity:1;"/>
<path d="M25.025 13.3L22.85 17.775L18.375 19.95L22.85 22.125L25.025 26.6L27.2 22.125L31.675 19.95L27.2 17.775L25.025 13.3Z" fill="#00C58B" style="fill:#00C58B;fill:color(display-p3 0.0000 0.7725 0.5451);fill-opacity:1;"/>
</g>
<defs>
<clipPath id="clip0_1_734">
<rect width="198" height="45" fill="white" style="fill:white;fill-opacity:1;"/>
</clipPath>
</defs>
</svg>
