<svg width="200" height="30" viewBox="0 0 200 30" fill="none" xmlns="http://www.w3.org/2000/svg">
<g clip-path="url(#clip0_1_746)">
<path d="M5.93821 11.6978V26.6978C5.93821 28.4888 4.48163 29.4963 3.02504 29.4963C1.73653 29.4963 0.560059 28.4888 0.560059 26.6978V3.86198C0.560059 1.73512 2.35278 1.06348 3.02504 1.06348C4.20152 1.06348 4.87378 1.73512 5.60208 2.5187L14.5657 14.5523L23.7533 2.07094C25.0979 0.391835 28.4032 1.06348 28.4032 3.86198V26.6978C28.4032 28.4888 27.2827 29.4963 25.9942 29.4963C24.5377 29.4963 23.4172 28.4888 23.4172 26.6978V11.6978L16.6945 20.2053C15.2379 21.9963 13.3892 21.9963 12.0447 20.2053L5.93821 11.6978Z" fill="#00C58B" style="fill:#00C58B;fill:color(display-p3 0.0000 0.7725 0.5451);fill-opacity:1;"/>
<path d="M40.2239 6.38057V24.5709H46.9465C57.9269 24.5709 58.4311 6.38057 46.9465 6.38057H40.2239ZM37.6468 29.4962C36.3023 29.4962 34.8457 28.7686 34.8457 26.9776V3.97386C34.8457 2.51863 36.3023 1.4552 37.6468 1.4552H46.9465C65.49 1.4552 65.0978 29.5522 47.3387 29.5522H37.6468V29.4962Z" fill="#00C58B" style="fill:#00C58B;fill:color(display-p3 0.0000 0.7725 0.5451);fill-opacity:1;"/>
<path d="M65.3223 15C65.3223 7.16417 70.2522 0.447754 79.608 0.447754C83.1374 0.447754 85.9385 1.51119 88.9077 4.08581C90.0281 5.09328 90.1402 6.88432 89.0197 8.00372C87.8993 8.95522 86.2746 8.84328 85.2662 7.89178C83.5856 6.15671 81.9049 5.65298 79.552 5.65298C73.2774 5.65298 70.3083 10.0746 70.3083 15.056C70.3083 20.0933 73.2774 24.7388 79.552 24.7388C81.8489 24.7388 84.0338 23.7873 85.8825 22.1642C87.115 21.2127 88.9077 21.6604 89.636 22.6679C90.3083 23.5634 90.5884 25.0746 89.1878 26.4739C86.3307 29.1045 82.9133 29.6642 79.552 29.6642C69.748 29.5522 65.3223 22.8358 65.3223 15Z" fill="#00C58B" style="fill:#00C58B;fill:color(display-p3 0.0000 0.7725 0.5451);fill-opacity:1;"/>
<path d="M130.532 29.5522C127.171 29.5522 123.753 29.0485 120.896 26.3619C119.496 24.9627 119.776 23.4515 120.448 22.556C121.176 21.6045 122.913 21.1007 124.202 22.0522C126.05 23.7313 128.235 24.6269 130.532 24.6269C136.807 24.6269 139.776 19.9813 139.776 14.944C139.776 10.0187 136.751 5.54104 130.532 5.54104C128.235 5.54104 126.498 6.04477 124.818 7.77984C123.865 8.73134 122.185 8.89925 121.064 7.89179C119.944 6.77238 120.112 4.98134 121.176 3.97388C124.146 1.39925 126.947 0.335815 130.476 0.335815C139.832 0.335815 144.762 7.05223 144.762 14.8881C144.762 22.7239 140.392 29.5522 130.532 29.5522Z" fill="#00C58B" style="fill:#00C58B;fill:color(display-p3 0.0000 0.7725 0.5451);fill-opacity:1;"/>
<path d="M95.7983 3.86198C95.7983 2.51869 96.9188 1.39929 98.3754 1.39929C99.6639 1.39929 100.784 2.51869 100.784 3.86198V24.1791H111.821C115.798 24.1791 115.91 29.4963 111.821 29.4963H98.3754C96.9748 29.4963 95.7983 28.4888 95.7983 27.0336V3.86198Z" fill="#00C58B" style="fill:#00C58B;fill:color(display-p3 0.0000 0.7725 0.5451);fill-opacity:1;"/>
<path d="M149.748 4.25378C149.748 2.79855 150.084 1.3993 152.213 1.3993C153.67 1.3993 154.006 1.79109 155.07 2.79855L168.516 19.5896V3.86198C168.516 2.5187 169.692 1.06348 171.093 1.06348C172.549 1.06348 173.95 2.5187 173.95 3.86198V26.6978C173.95 28.4888 172.829 29.1605 171.821 29.4963C170.42 29.4963 169.692 29.1605 168.516 28.0971L155.07 11.0262V26.6978C155.07 28.4888 153.95 29.4963 152.493 29.4963C151.037 29.4963 149.748 28.4888 149.748 26.6978V4.25378Z" fill="#00C58B" style="fill:#00C58B;fill:color(display-p3 0.0000 0.7725 0.5451);fill-opacity:1;"/>
<path d="M182.073 29.4962C180.672 29.4962 179.552 28.3768 179.552 26.9776V3.97386C179.552 2.51863 180.672 1.4552 182.073 1.4552H196.639C200.392 1.4552 200.28 6.71639 196.639 6.71639H184.93V12.8171H195.182C198.823 12.8171 198.823 18.1343 195.182 18.1343H184.93V24.2351H196.471C200.168 24.2351 200.448 29.5522 196.471 29.5522H182.073V29.4962Z" fill="#00C58B" style="fill:#00C58B;fill:color(display-p3 0.0000 0.7725 0.5451);fill-opacity:1;"/>
<path d="M5.93821 11.6978V26.6978C5.93821 28.4888 4.48163 29.4963 3.02504 29.4963C1.73653 29.4963 0.560059 28.4888 0.560059 26.6978V3.86198C0.560059 1.73512 2.35278 1.06348 3.02504 1.06348C4.20152 1.06348 4.87378 1.73512 5.60208 2.5187L14.5657 14.5523L23.7533 2.07094C25.0979 0.391835 28.4032 1.06348 28.4032 3.86198V26.6978C28.4032 28.4888 27.2827 29.4963 25.9942 29.4963C24.5377 29.4963 23.4172 28.4888 23.4172 26.6978V11.6978L16.6945 20.2053C15.2379 21.9963 13.3892 21.9963 12.0447 20.2053L5.93821 11.6978Z" fill="#00C58B" style="fill:#00C58B;fill:color(display-p3 0.0000 0.7725 0.5451);fill-opacity:1;"/>
<path d="M40.2239 6.38057V24.5709H46.9465C57.9269 24.5709 58.4311 6.38057 46.9465 6.38057H40.2239ZM37.6468 29.4962C36.3023 29.4962 34.8457 28.7686 34.8457 26.9776V3.97386C34.8457 2.51863 36.3023 1.4552 37.6468 1.4552H46.9465C65.49 1.4552 65.0978 29.5522 47.3387 29.5522H37.6468V29.4962Z" fill="#00C58B" style="fill:#00C58B;fill:color(display-p3 0.0000 0.7725 0.5451);fill-opacity:1;"/>
<path d="M65.3223 15C65.3223 7.16417 70.2522 0.447754 79.608 0.447754C83.1374 0.447754 85.9385 1.51119 88.9077 4.08581C90.0281 5.09328 90.1402 6.88432 89.0197 8.00372C87.8993 8.95522 86.2746 8.84328 85.2662 7.89178C83.5856 6.15671 81.9049 5.65298 79.552 5.65298C73.2774 5.65298 70.3083 10.0746 70.3083 15.056C70.3083 20.0933 73.2774 24.7388 79.552 24.7388C81.8489 24.7388 84.0338 23.7873 85.8825 22.1642C87.115 21.2127 88.9077 21.6604 89.636 22.6679C90.3083 23.5634 90.5884 25.0746 89.1878 26.4739C86.3307 29.1045 82.9133 29.6642 79.552 29.6642C69.748 29.5522 65.3223 22.8358 65.3223 15Z" fill="#00C58B" style="fill:#00C58B;fill:color(display-p3 0.0000 0.7725 0.5451);fill-opacity:1;"/>
<path d="M130.532 29.5522C127.171 29.5522 123.753 29.0485 120.896 26.3619C119.496 24.9627 119.776 23.4515 120.448 22.556C121.176 21.6045 122.913 21.1007 124.202 22.0522C126.05 23.7313 128.235 24.6269 130.532 24.6269C136.807 24.6269 139.776 19.9813 139.776 14.944C139.776 10.0187 136.751 5.54104 130.532 5.54104C128.235 5.54104 126.498 6.04477 124.818 7.77984C123.865 8.73134 122.185 8.89925 121.064 7.89179C119.944 6.77238 120.112 4.98134 121.176 3.97388C124.146 1.39925 126.947 0.335815 130.476 0.335815C139.832 0.335815 144.762 7.05223 144.762 14.8881C144.762 22.7239 140.392 29.5522 130.532 29.5522Z" fill="#00C58B" style="fill:#00C58B;fill:color(display-p3 0.0000 0.7725 0.5451);fill-opacity:1;"/>
<path d="M95.7983 3.86198C95.7983 2.51869 96.9188 1.39929 98.3754 1.39929C99.6639 1.39929 100.784 2.51869 100.784 3.86198V24.1791H111.821C115.798 24.1791 115.91 29.4963 111.821 29.4963H98.3754C96.9748 29.4963 95.7983 28.4888 95.7983 27.0336V3.86198Z" fill="#00C58B" style="fill:#00C58B;fill:color(display-p3 0.0000 0.7725 0.5451);fill-opacity:1;"/>
<path d="M149.748 4.25378C149.748 2.79855 150.084 1.3993 152.213 1.3993C153.67 1.3993 154.006 1.79109 155.07 2.79855L168.516 19.5896V3.86198C168.516 2.5187 169.692 1.06348 171.093 1.06348C172.549 1.06348 173.95 2.5187 173.95 3.86198V26.6978C173.95 28.4888 172.829 29.1605 171.821 29.4963C170.42 29.4963 169.692 29.1605 168.516 28.0971L155.07 11.0262V26.6978C155.07 28.4888 153.95 29.4963 152.493 29.4963C151.037 29.4963 149.748 28.4888 149.748 26.6978V4.25378Z" fill="#00C58B" style="fill:#00C58B;fill:color(display-p3 0.0000 0.7725 0.5451);fill-opacity:1;"/>
<path d="M182.073 29.4962C180.672 29.4962 179.552 28.3768 179.552 26.9776V3.97386C179.552 2.51863 180.672 1.4552 182.073 1.4552H196.639C200.392 1.4552 200.28 6.71639 196.639 6.71639H184.93V12.8171H195.182C198.823 12.8171 198.823 18.1343 195.182 18.1343H184.93V24.2351H196.471C200.168 24.2351 200.448 29.5522 196.471 29.5522H182.073V29.4962Z" fill="#00C58B" style="fill:#00C58B;fill:color(display-p3 0.0000 0.7725 0.5451);fill-opacity:1;"/>
</g>
<defs>
<clipPath id="clip0_1_746">
<rect width="200" height="30" fill="white" style="fill:white;fill-opacity:1;"/>
</clipPath>
</defs>
</svg>
