<svg width="200" height="61" viewBox="0 0 200 61" fill="none" xmlns="http://www.w3.org/2000/svg">
<path d="M180.765 51.2166C180.765 49.375 181.319 48.5588 182.537 48.5588C183.755 48.5588 184.333 49.279 184.333 50.8017V52.7222C184.333 54.2414 183.759 54.9445 182.537 54.9445C181.316 54.9445 180.765 54.1282 180.765 52.3038V51.2166ZM184.867 56.6318H186.694V43.0716H184.333V47.3448C184.273 47.3185 184.215 47.2864 184.161 47.2487C183.914 47.0601 183.914 47.0601 183.797 47.0224C183.256 46.7819 182.668 46.6647 182.076 46.6794C179.54 46.6794 178.436 48.0066 178.436 51.0486V52.4718C178.436 55.5275 179.54 56.8375 182.114 56.8375C183.298 56.8375 183.965 56.6283 184.612 56.059L184.746 55.9459L184.867 56.6318ZM167.865 56.6318H170.226V51.5973C170.226 49.471 170.7 48.6925 171.98 48.6925C173.164 48.6925 173.622 49.4333 173.622 51.3126V56.6318H175.982V51.0486C175.982 49.8517 175.907 49.1109 175.697 48.5588C175.239 47.3276 174.135 46.6794 172.459 46.6794C171.196 46.6794 170.473 46.9847 169.844 47.7426L169.634 46.8886H167.865V56.6318ZM162.986 52.3209C162.986 54.1831 162.453 54.9445 161.138 54.9445C159.824 54.9445 159.266 54.1831 159.266 52.3209V51.1789C159.266 49.3201 159.8 48.5588 161.138 48.5588C162.477 48.5588 162.986 49.3201 162.986 51.1789V52.3209ZM156.906 52.4924C156.906 55.5515 158.162 56.841 161.138 56.841C164.115 56.841 165.346 55.5515 165.346 52.4924V51.028C165.346 47.9689 164.09 46.6794 161.138 46.6794C158.186 46.6794 156.906 47.9689 156.906 51.028V52.4924ZM149.89 56.4603L149.604 57.2971C149.033 58.8918 148.785 59.0838 147.223 59.0838V61.0009C150.406 60.9838 150.939 60.5825 152.04 57.4857L155.585 46.8886H153.176L151.135 53.9156L148.944 46.8886H146.535L149.89 56.4603ZM139.333 50.7091V50.4999C139.333 49.1864 140.021 48.4422 141.219 48.4422C142.416 48.4422 143.125 49.1624 143.125 50.4999V50.7091H139.333ZM139.35 52.3381H145.355V51.4876C145.355 48.0821 144.137 46.6863 141.164 46.6863C138.191 46.6863 136.969 48.0889 136.969 51.4876V52.1734C136.969 55.4452 138.246 56.8478 141.201 56.8478C143.266 56.8478 144.402 56.3162 145.22 55.0062L143.5 54.0014C143.287 54.336 142.986 54.6063 142.63 54.7834C142.274 54.9604 141.877 55.0375 141.48 55.0062C140.104 55.0062 139.364 54.19 139.364 52.6501L139.35 52.3381ZM127.895 54.6392V50.7056H130.755C132.031 50.7056 132.606 51.3126 132.606 52.6844C132.606 54.0562 132.052 54.6392 130.755 54.6392H127.895ZM127.895 48.7131V45.0642H130.49C131.784 45.0642 132.355 45.6129 132.355 46.8886C132.355 48.1644 131.787 48.6994 130.49 48.6994L127.895 48.7131ZM125.418 56.6318H130.923C132.393 56.6318 133.153 56.4431 133.841 55.9116C134.657 55.284 135.077 54.2414 135.077 52.8731C135.104 52.0977 134.94 51.3274 134.598 50.6302C134.395 50.2432 134.094 49.9158 133.724 49.6802C133.659 49.6408 133.595 49.5973 133.535 49.5499C134.43 48.9017 134.829 48.0306 134.829 46.6966C134.856 46.1806 134.774 45.6648 134.588 45.1826C134.402 44.7004 134.116 44.2627 133.748 43.8981C133.06 43.2877 132.241 43.0613 130.652 43.0613H125.418V56.6318ZM116.472 52.3209C116.472 54.1831 115.938 54.9445 114.624 54.9445C113.309 54.9445 112.752 54.1831 112.752 52.3209V51.1789C112.752 49.3201 113.285 48.5588 114.624 48.5588C115.962 48.5588 116.472 49.3201 116.472 51.1789V52.3209ZM110.391 52.4924C110.391 55.5515 111.651 56.841 114.624 56.841C117.597 56.841 118.832 55.5515 118.832 52.4924V51.028C118.832 47.9689 117.576 46.6794 114.624 46.6794C111.671 46.6794 110.391 47.9689 110.391 51.028V52.4924ZM103.227 51.1H105.533V51.9951C105.533 53.9328 104.731 54.8279 102.98 54.8279C101.111 54.8279 100.461 53.8779 100.461 51.1377V48.5965C100.461 45.8529 101.111 44.9064 102.942 44.9064C104.353 44.9064 105.134 45.5546 105.306 46.9023L107.611 46.7309C107.477 44.1656 105.915 42.8967 102.883 42.8967C101.111 42.8967 99.9311 43.3323 99.0536 44.32C98.2519 45.2116 97.9663 46.3125 97.9663 48.4353V51.3195C97.9663 53.2606 98.2141 54.3237 98.8609 55.1777C99.7384 56.3334 100.998 56.8478 103.035 56.8478C104.924 56.8478 106.18 56.354 107.057 55.2737C107.763 54.3992 108.007 53.4115 108.007 51.4704V49.1932H103.227V51.1Z" fill="white" style="fill:white;fill-opacity:1;"/>
<path d="M189.653 54.2208H192.148V56.6215H189.653V54.2208Z" fill="white" style="fill:white;fill-opacity:1;"/>
<path d="M177.362 0.000982256H154.191C152.231 0.00248276 150.32 0.619124 148.731 1.76345C147.142 2.90779 145.955 4.52172 145.338 6.37637L175.274 6.27691C175.544 6.28 175.813 6.31336 176.075 6.37637L176.313 6.45182C177.024 6.66998 177.646 7.10924 178.089 7.70534C178.532 8.30143 178.771 9.02307 178.773 9.76469V17.0969L144.873 17.1998V34.186H152.804V23.3728H178.773V26.281C178.773 28.3775 179.609 30.3882 181.096 31.8707C182.583 33.3531 184.601 34.186 186.704 34.186V9.30857C186.705 8.08574 186.464 6.87473 185.995 5.74485C185.526 4.61497 184.838 3.5884 183.97 2.72388C183.102 1.85937 182.072 1.17389 180.938 0.706657C179.804 0.239429 178.589 -0.000370767 177.362 0.000982256Z" fill="white" style="fill:white;fill-opacity:1;"/>
<path d="M137.355 0.309605V0.000952488H103.496C100.327 -0.0196243 97.9423 3.20408 97.9905 6.07797V6.37977H113.537V34.1585H121.464V6.37977H131.835C135.001 6.39006 137.386 3.1835 137.355 0.309605Z" fill="white" style="fill:white;fill-opacity:1;"/>
<path d="M85.6789 6.37979C87.311 6.36124 88.8715 5.70865 90.0282 4.56089C91.1849 3.41312 91.8467 1.86079 91.8726 0.234181V0.000976562H53.5751V0.385077V18.1532H53.5545C49.6618 19.4004 45.877 20.9602 42.2373 22.8172V0.000976562H34.3232L21.1169 13.8835L7.93132 0.000976562H0V34.1859C1.04156 34.1859 2.07291 33.9815 3.03518 33.5842C3.99746 33.187 4.8718 32.6047 5.60829 31.8706C6.34478 31.1366 6.929 30.2652 7.32758 29.3061C7.72617 28.347 7.93132 27.3191 7.93132 26.281V9.13366L16.7814 18.4447L21.1169 23.0093L25.4628 18.4447L34.3094 9.13709V27.6117L34.3369 27.5945C26.6878 33.3389 25.2047 35.9075 25.2047 35.9075C25.8379 35.4171 36.5357 26.648 53.5545 22.6732V24.8749C53.5545 26.0963 53.7958 27.3057 54.2648 28.4342C54.7338 29.5626 55.4212 30.5879 56.2877 31.4515C58.0377 33.1958 60.4113 34.1757 62.8862 34.1757H91.8726C91.8726 32.5112 91.2091 30.9149 90.0282 29.7379C88.8473 28.5609 87.2457 27.8997 85.5757 27.8997H64.9852C64.5257 27.8997 64.0706 27.8095 63.646 27.6342C63.2215 27.459 62.8357 27.2021 62.5107 26.8782C62.1858 26.5543 61.928 26.1698 61.7522 25.7467C61.5763 25.3235 61.4858 24.87 61.4858 24.412V21.0168C67.6871 19.9722 73.9634 19.4331 80.2526 19.4049C80.9622 19.4072 81.6652 19.2694 82.321 18.9995C82.9769 18.7296 83.5727 18.3329 84.074 17.8323C84.5752 17.3318 84.9721 16.7372 85.2417 16.083C85.5112 15.4288 85.6481 14.7279 85.6445 14.0207V13.8526C77.533 13.6185 69.4226 14.3519 61.4858 16.0372V6.37979H85.6789Z" fill="white" style="fill:white;fill-opacity:1;"/>
<path d="M200 5.07999C200 8.0019 197.794 10.1625 194.839 10.1625C191.883 10.1625 189.677 8.0019 189.677 5.09714C189.66 2.12721 191.845 0.000941722 194.901 0.000941722C195.574 -0.0120952 196.242 0.110345 196.867 0.360932C197.491 0.611519 198.058 0.985099 198.534 1.45931C199.011 1.93352 199.386 2.4986 199.638 3.12073C199.889 3.74286 200.013 4.40925 200 5.07999ZM191.883 2.08949C191.138 2.90933 190.726 3.97578 190.726 5.0817C190.726 6.18763 191.138 7.25408 191.883 8.07392C192.69 8.80411 193.74 9.20864 194.83 9.20864C195.92 9.20864 196.971 8.80411 197.777 8.07392C198.531 7.25927 198.945 6.18835 198.933 5.07999C198.94 3.97356 198.527 2.90548 197.777 2.08949C197.398 1.71416 196.945 1.41991 196.448 1.22473C195.95 1.02956 195.418 0.93755 194.883 0.954335C193.583 0.954335 192.643 1.31443 191.883 2.08949ZM193.889 7.54578H192.895V2.6142H195.117C196.528 2.6142 197.144 3.04631 197.144 4.07172C197.144 4.84678 196.8 5.2446 196.022 5.46066L197.306 7.54578H196.205L195.045 5.5464H193.889V7.54578ZM195.117 4.91537C195.806 4.91537 196.15 4.64445 196.15 4.12317C196.15 3.60189 195.806 3.33096 195.045 3.33096H193.872V4.91537H195.117Z" fill="white" style="fill:white;fill-opacity:1;"/>
</svg>
