<svg width="200" height="60" viewBox="0 0 200 60" fill="none" xmlns="http://www.w3.org/2000/svg">
<g clip-path="url(#clip0_1_770)">
<path d="M153.477 56.5737C152.683 56.5737 152.005 56.1485 152.005 55.4098C152.005 54.6712 152.621 54.1785 153.717 54.1785C154.294 54.1783 154.868 54.2611 155.421 54.4245V54.9727C155.421 55.9025 154.553 56.5433 153.475 56.5433M153.309 57.276C153.714 57.2879 154.116 57.2043 154.483 57.0321C154.85 56.8599 155.171 56.6039 155.421 56.2848V57.1531H156.276V53.5717C156.296 53.2577 156.252 52.9429 156.146 52.6465C156.04 52.3501 155.875 52.0784 155.661 51.8478C155.137 51.4 154.457 51.1786 153.77 51.2321C153.031 51.2317 152.302 51.4024 151.64 51.7307L151.899 52.4449C152.451 52.1712 153.06 52.028 153.676 52.0263C154.779 52.0263 155.413 52.5679 155.413 53.6154V53.794C154.831 53.622 154.227 53.5368 153.621 53.5414C152.139 53.5414 151.115 54.2 151.115 55.4624C151.115 56.7248 152.205 57.3101 153.301 57.3101M149.397 57.3101C149.764 57.3158 150.126 57.2289 150.45 57.0575V56.2596C150.187 56.3942 149.895 56.4638 149.6 56.4626C149.467 56.4831 149.331 56.4722 149.203 56.4308C149.075 56.3893 148.959 56.3185 148.863 56.224C148.767 56.1294 148.695 56.0138 148.652 55.8863C148.609 55.7589 148.596 55.6231 148.615 55.4898V52.0656H150.462V51.2958H148.615V49.5289H147.765V51.2966H146.947V52.0663H147.765V55.601C147.74 55.8247 147.765 56.0513 147.839 56.2639C147.913 56.4765 148.035 56.6696 148.194 56.8288C148.353 56.9881 148.546 57.1093 148.759 57.1835C148.971 57.2578 149.198 57.2831 149.422 57.2575M143.265 56.5737C142.476 56.5737 141.793 56.1485 141.793 55.4098C141.793 54.6712 142.408 54.1785 143.505 54.1785C144.084 54.1787 144.66 54.2615 145.216 54.4245V54.9727C145.216 55.9025 144.342 56.5433 143.265 56.5433M143.099 57.2457C143.503 57.2576 143.904 57.174 144.27 57.0018C144.636 56.8295 144.956 56.5735 145.205 56.2544V57.1538H146.067V53.5717C146.086 53.2577 146.042 52.9429 145.936 52.6465C145.83 52.3501 145.665 52.0784 145.451 51.8478C144.925 51.4003 144.243 51.179 143.555 51.2321C142.816 51.2317 142.087 51.4024 141.425 51.7307L141.689 52.4449C142.24 52.1708 142.847 52.0275 143.462 52.0263C144.565 52.0263 145.199 52.5679 145.199 53.6154V53.794C144.617 53.6209 144.013 53.5357 143.407 53.5414C141.925 53.5414 140.901 54.2 140.901 55.4624C140.901 56.7248 141.99 57.3101 143.093 57.3101M133.982 56.3618V50.0497H135.829C136.252 50.0313 136.675 50.0988 137.072 50.2482C137.469 50.3975 137.831 50.6257 138.137 50.9188C138.443 51.212 138.687 51.5641 138.853 51.954C139.02 52.3438 139.105 52.7633 139.105 53.1872C139.105 53.6111 139.02 54.0306 138.853 54.4205C138.687 54.8103 138.443 55.1625 138.137 55.4556C137.831 55.7488 137.469 55.9769 137.072 56.1263C136.675 56.2757 136.252 56.3432 135.829 56.3248L133.982 56.3618ZM133.089 57.1871H135.841C136.382 57.2202 136.924 57.1422 137.434 56.9579C137.944 56.7735 138.41 56.4868 138.805 56.1153C139.2 55.7438 139.515 55.2954 139.73 54.7977C139.945 54.3 140.056 53.7635 140.056 53.2213C140.056 52.6791 139.945 52.1426 139.73 51.6449C139.515 51.1472 139.2 50.6988 138.805 50.3273C138.41 49.9558 137.944 49.6691 137.434 49.4847C136.924 49.3004 136.382 49.2224 135.841 49.2555H133.089V57.1871ZM125.542 56.5352C125.256 56.5293 124.974 56.465 124.713 56.3463C124.453 56.2276 124.219 56.057 124.026 55.8448C123.834 55.6327 123.687 55.3835 123.594 55.1126C123.501 54.8416 123.464 54.5545 123.486 54.2689C123.458 53.981 123.49 53.6904 123.58 53.4156C123.67 53.1408 123.817 52.8878 124.01 52.6728C124.204 52.4578 124.44 52.2855 124.704 52.167C124.968 52.0484 125.253 51.9861 125.542 51.9841C126.127 52.012 126.678 52.2639 127.082 52.6876C127.486 53.1113 127.711 53.6742 127.711 54.2596C127.711 54.845 127.486 55.4079 127.082 55.8316C126.678 56.2553 126.127 56.5073 125.542 56.5352ZM125.388 57.3109C125.842 57.3069 126.288 57.185 126.681 56.9572C127.074 56.7295 127.401 56.4035 127.63 56.0114V57.1508H128.504V48.8821H127.63V52.4167C127.391 52.0385 127.06 51.7271 126.668 51.5117C126.276 51.2963 125.836 51.1841 125.388 51.1854C124.65 51.2853 123.973 51.6495 123.483 52.2106C122.993 52.7717 122.722 53.4915 122.722 54.2367C122.722 54.9818 122.993 55.7016 123.483 56.2627C123.973 56.8238 124.65 57.188 125.388 57.2879M116.368 57.1523H117.236V53.8021C117.219 53.5629 117.252 53.3227 117.333 53.0969C117.414 52.8711 117.541 52.6646 117.706 52.4907C117.871 52.3168 118.071 52.1793 118.292 52.087C118.513 51.9946 118.751 51.9495 118.991 51.9544C119.219 51.9431 119.447 51.982 119.658 52.0685C119.87 52.1551 120.059 52.2871 120.214 52.4552C120.368 52.6232 120.484 52.8233 120.553 53.0411C120.621 53.2589 120.641 53.4891 120.61 53.7155V57.1516H121.485V53.5132C121.514 53.2069 121.478 52.8978 121.377 52.607C121.276 52.3162 121.114 52.0506 120.901 51.8284C120.688 51.6061 120.43 51.4325 120.144 51.3194C119.858 51.2062 119.55 51.1562 119.243 51.1728C118.835 51.1599 118.432 51.2601 118.078 51.4622C117.723 51.6644 117.432 51.9606 117.236 52.3182V51.2958H116.368V57.1523ZM112.19 56.5352C111.898 56.5313 111.61 56.4691 111.342 56.3522C111.074 56.2352 110.833 56.0659 110.631 55.8542C110.43 55.6425 110.273 55.3927 110.17 55.1194C110.066 54.8462 110.018 54.555 110.029 54.263C110.012 53.9702 110.055 53.677 110.155 53.4013C110.255 53.1256 110.41 52.873 110.61 52.6588C110.811 52.4447 111.052 52.2734 111.321 52.1554C111.589 52.0374 111.879 51.9751 112.172 51.9722C112.466 51.9777 112.755 52.0416 113.024 52.1602C113.293 52.2787 113.536 52.4495 113.738 52.6627C113.94 52.8758 114.098 53.1271 114.202 53.4018C114.307 53.6766 114.355 53.9693 114.345 54.263C114.36 54.5554 114.316 54.8479 114.214 55.1226C114.113 55.3974 113.956 55.6486 113.755 55.8611C113.553 56.0736 113.311 56.2429 113.042 56.3588C112.773 56.4746 112.483 56.5347 112.19 56.5352ZM112.19 57.3175C112.801 57.3258 113.4 57.1522 113.912 56.8189C114.424 56.4856 114.825 56.0077 115.064 55.4458C115.303 54.884 115.37 54.2636 115.256 53.6637C115.142 53.0637 114.852 52.5112 114.424 52.0764C113.995 51.6416 113.446 51.3442 112.848 51.222C112.25 51.0998 111.629 51.1583 111.064 51.3901C110.499 51.6219 110.015 52.0165 109.675 52.5237C109.335 53.0309 109.154 53.6278 109.153 54.2385C109.143 54.6425 109.215 55.0443 109.364 55.4199C109.513 55.7955 109.736 56.1373 110.02 56.4248C110.304 56.7122 110.643 56.9394 111.016 57.0928C111.39 57.2462 111.791 57.3226 112.195 57.3175M104.523 58.9986C105.404 58.9986 105.976 58.554 106.469 57.3479L108.932 51.2943H108.002L106.116 56.1796L103.986 51.2966H103.023L105.69 57.1345C105.339 57.9599 105.006 58.231 104.489 58.231C104.168 58.2408 103.849 58.1665 103.565 58.0154L103.269 58.7052C103.65 58.8998 104.072 59.0014 104.5 59.0015M98.146 53.8777C98.1575 53.3703 98.3596 52.8857 98.7121 52.5205C99.0645 52.1553 99.5416 51.9363 100.048 51.907C100.3 51.9129 100.547 51.9688 100.777 52.0715C101.006 52.1741 101.213 52.3215 101.385 52.5049C101.557 52.6884 101.691 52.9043 101.778 53.14C101.866 53.3757 101.906 53.6265 101.896 53.8777H98.146ZM98.146 54.58H102.819C102.824 54.4796 102.824 54.379 102.819 54.2785C102.819 52.5545 101.822 51.1995 100.092 51.1995C99.3445 51.301 98.6603 51.6735 98.1693 52.2462C97.6782 52.819 97.4145 53.5521 97.4282 54.3065C97.4419 55.0608 97.7321 55.7839 98.2436 56.3384C98.7551 56.8929 99.4524 57.2403 100.203 57.3146C100.662 57.3258 101.118 57.233 101.535 57.0431C101.953 56.8532 102.323 56.5712 102.616 56.2181L102.072 55.7202C101.843 55.9854 101.56 56.1972 101.24 56.3408C100.921 56.4845 100.575 56.5564 100.225 56.5515C99.6898 56.5548 99.175 56.3484 98.7906 55.9765C98.4062 55.6046 98.1828 55.0969 98.1683 54.5623M90.946 56.33V53.5503H93.4498C94.8349 53.5503 95.5616 54.0488 95.5616 54.9112C95.5616 55.7736 94.8164 56.3463 93.5853 56.3463L90.946 56.33ZM90.946 52.7397V50.0275H93.366C94.4986 50.0275 95.1209 50.5327 95.1209 51.3143C95.1209 52.2686 94.3697 52.7553 93.2735 52.7553L90.946 52.7397ZM90.0653 57.1368H93.5868C95.3231 57.1368 96.4683 56.33 96.4683 54.9749C96.4683 53.8636 95.7046 53.3184 94.769 53.0354C95.1407 52.8935 95.459 52.6393 95.6796 52.3082C95.9002 51.977 96.0123 51.5854 96.0001 51.1876C96.0047 50.9489 95.962 50.7117 95.8742 50.4896C95.7865 50.2676 95.6555 50.0652 95.489 49.8941C95.208 49.6456 94.8804 49.4555 94.5252 49.3349C94.17 49.2143 93.7943 49.1656 93.4201 49.1918H90.0423L90.0653 57.1368ZM81.2727 53.8733C81.2841 53.3658 81.4862 52.8813 81.8387 52.5161C82.1912 52.1509 82.6683 51.9319 83.1749 51.9026C83.4263 51.9085 83.674 51.9644 83.9035 52.067C84.133 52.1697 84.3398 52.317 84.5118 52.5005C84.6838 52.6839 84.8175 52.8998 84.9051 53.1355C84.9928 53.3712 85.0326 53.622 85.0223 53.8733H81.2727ZM81.2727 54.563H85.9149C85.92 54.4626 85.92 54.3619 85.9149 54.2615C85.9149 52.5375 84.9172 51.1825 83.1875 51.1825C82.44 51.284 81.7558 51.6565 81.2648 52.2292C80.7738 52.802 80.5101 53.5351 80.5238 54.2894C80.5375 55.0438 80.8276 55.7668 81.3392 56.3213C81.8507 56.8759 82.548 57.2232 83.2986 57.2975C83.7576 57.3088 84.2131 57.216 84.631 57.0261C85.049 56.8362 85.4185 56.5541 85.712 56.2011L85.1638 55.7084C84.9353 55.9735 84.6515 56.1854 84.3323 56.329C84.0131 56.4726 83.6664 56.5445 83.3164 56.5396C82.7858 56.5399 82.2758 56.3339 81.8943 55.965C81.5128 55.5962 81.2904 55.0934 81.2727 54.563ZM75.0164 53.8607C75.0279 53.3532 75.2299 52.8687 75.5824 52.5035C75.9349 52.1383 76.412 51.9193 76.9186 51.89C77.1702 51.8953 77.4181 51.9508 77.648 52.0532C77.8778 52.1557 78.0848 52.303 78.2569 52.4866C78.429 52.6702 78.5627 52.8863 78.6501 53.1222C78.7375 53.3582 78.777 53.6093 78.766 53.8607H75.0164ZM75.0164 54.563H79.6586C79.6637 54.4626 79.6637 54.3619 79.6586 54.2615C79.6586 52.5375 78.6609 51.1825 76.9312 51.1825C76.1837 51.284 75.4995 51.6565 75.0085 52.2292C74.5175 52.802 74.2538 53.5351 74.2675 54.2894C74.2812 55.0438 74.5713 55.7668 75.0829 56.3213C75.5944 56.8759 76.2917 57.2232 77.0423 57.2975C77.4976 57.3037 77.9483 57.207 78.3609 57.0146C78.7736 56.8221 79.1374 56.539 79.4253 56.1862L78.8838 55.6936C78.6548 55.9581 78.3708 56.1694 78.0518 56.313C77.7327 56.4566 77.3862 56.5288 77.0364 56.5248C76.5068 56.5268 75.997 56.323 75.6145 55.9565C75.2321 55.59 75.0068 55.0894 74.986 54.56M70.5342 57.2509C72.1105 57.2509 73.2372 56.3618 73.2372 55.0031C73.2372 53.7718 72.4223 53.1554 70.6572 52.7368C68.892 52.3182 68.5023 51.9485 68.5023 51.1973C68.5023 50.446 69.1609 49.8919 70.1957 49.8919C71.0361 49.8949 71.8472 50.2011 72.4801 50.7542L73.0038 50.0645C72.2174 49.4055 71.2142 49.0623 70.189 49.1014C68.6868 49.1014 67.5846 50.0186 67.5846 51.2632C67.5846 52.5079 68.4216 53.1783 70.2512 53.5784C71.9135 53.9296 72.3075 54.3482 72.3075 55.0809C72.3075 55.8136 71.6068 56.4611 70.5416 56.4611C70.0371 56.4651 69.5368 56.368 69.0704 56.1755C68.604 55.9829 68.1809 55.6989 67.826 55.3402L67.272 55.9929C68.1446 56.8229 69.3063 57.2803 70.5105 57.2679" fill="white" style="fill:white;fill-opacity:1;"/>
<path d="M67.2969 40.1014H68.9591V29.856C68.9591 26.2658 71.4221 23.4764 74.5006 23.4764C77.5791 23.4764 79.5739 25.7427 79.5739 29.4374V40.1058H81.2732V29.7493C81.2732 25.7709 83.828 23.4742 86.7591 23.4742C89.9672 23.4742 91.9065 25.7035 91.9065 29.5396V40.1014H93.5872V29.3181C93.5872 24.8655 91.0072 21.9288 86.8821 21.9288C85.5818 21.9113 84.3031 22.2623 83.1939 22.9411C82.0846 23.62 81.1902 24.599 80.6139 25.765C80.1345 24.6131 79.3205 23.6318 78.2772 22.9478C77.2339 22.2639 76.0093 21.9089 74.7621 21.9288C71.6835 21.9288 70.0887 23.6713 68.968 25.519V22.3229H67.2969V40.1014Z" fill="white" style="fill:white;fill-opacity:1;"/>
<path d="M99.1474 21.8302H97.4785V40.1013H99.1474V21.8302Z" fill="white" style="fill:white;fill-opacity:1;"/>
<path d="M99.3502 15.4995H97.2754V17.7843H99.3502V15.4995Z" fill="white" style="fill:white;fill-opacity:1;"/>
<path d="M103.001 40.1006H104.67V29.8167C104.67 26.122 107.293 23.4742 110.698 23.4742C114.207 23.4742 116.239 25.876 116.239 29.5396V40.1006H117.908V29.2255C117.908 24.97 115.353 21.9035 110.957 21.9035C109.663 21.8577 108.384 22.1837 107.269 22.8428C106.155 23.502 105.253 24.4667 104.67 25.6227V22.3221H103.001V40.1006Z" fill="white" style="fill:white;fill-opacity:1;"/>
<path d="M134.378 30.1864H121.737C122.045 26.3339 124.704 23.4127 128.141 23.4127C132.13 23.4127 134.141 26.6517 134.378 30.1864ZM136.182 31.0058C136.182 25.8575 133.103 21.9043 128.177 21.9043C123.479 21.9043 119.933 25.9257 119.933 30.9687C119.933 36.4556 123.885 40.1013 128.451 40.1013C129.817 40.1288 131.172 39.8493 132.415 39.2833C133.659 38.7173 134.76 37.8793 135.636 36.8312L134.479 35.8088C133.748 36.668 132.84 37.3585 131.817 37.8327C130.794 38.3068 129.68 38.5533 128.553 38.5552C125.145 38.5552 122.044 36.0362 121.738 31.7074H136.151C136.178 31.4827 136.188 31.2564 136.182 31.0302" fill="white" style="fill:white;fill-opacity:1;"/>
<path d="M138.331 40.0999H140V32.7113C140 26.8585 143.51 23.7202 147.53 23.7202H147.703V21.8362C144.261 21.6947 141.367 24.0225 139.999 27.2304V22.1185H138.331V40.0999Z" fill="white" style="fill:white;fill-opacity:1;"/>
<path d="M160.989 29.7279H151.753C152.129 27.0059 153.902 25.1153 156.42 25.1153C159.148 25.1153 160.73 27.1415 160.989 29.7279ZM165.077 31.2489C165.077 26.211 162.177 21.8333 156.457 21.8333C151.31 21.8333 147.665 25.9465 147.665 30.9533C147.665 36.4216 151.685 40.1044 156.9 40.1044C158.295 40.1488 159.681 39.8765 160.956 39.3081C162.23 38.7396 163.359 37.8898 164.258 36.8224L161.838 34.7346C161.213 35.3988 160.458 35.927 159.62 36.2862C158.782 36.6454 157.879 36.8279 156.968 36.8224C155.703 36.8826 154.464 36.458 153.502 35.6352C152.54 34.8125 151.928 33.6535 151.791 32.395H165.01C165.042 32.1979 165.078 31.5393 165.078 31.2681" fill="white" style="fill:white;fill-opacity:1;"/>
<path d="M170.016 45.3785C172.91 45.3785 174.516 44.0116 175.942 40.3347L183.096 21.8606H178.787L174.12 35.2176L169.009 21.8606H164.616L172.109 39.8546C171.432 41.4186 170.711 41.9291 169.554 41.9291C168.704 41.9081 167.872 41.6753 167.134 41.2519L165.742 44.3309C167.039 45.0644 168.508 45.4405 169.997 45.4207" fill="white" style="fill:white;fill-opacity:1;"/>
<path d="M195.912 29.7279H186.676C187.052 27.0059 188.824 25.1153 191.343 25.1153C194.07 25.1153 195.653 27.1415 195.912 29.7279ZM200 31.2489C200 26.211 197.1 21.8333 191.38 21.8333C186.233 21.8333 182.587 25.9465 182.587 30.9533C182.587 36.4216 186.608 40.1044 191.823 40.1044C193.218 40.1488 194.604 39.8765 195.879 39.3081C197.153 38.7396 198.282 37.8898 199.181 36.8224L196.761 34.7346C196.136 35.3985 195.381 35.9265 194.543 36.2857C193.705 36.6449 192.802 36.8276 191.89 36.8224C190.627 36.8831 189.387 36.4595 188.425 35.6379C187.463 34.8163 186.851 33.6586 186.713 32.4009H199.926C199.971 32.0269 199.996 31.6508 200 31.2741" fill="white" style="fill:white;fill-opacity:1;"/>
<path d="M13.4161 23.5646H17.5724V19.4158H13.4161V23.5646ZM20.9339 26.9207H10.0605V16.0597H20.9339V26.9207Z" fill="white" style="fill:white;fill-opacity:1;"/>
<path d="M55.0563 55.0653H0V24.7003H3.35556V51.7121H51.7037V3.3561H3.35556V13.8067H0V0H55.0563V55.0653Z" fill="white" style="fill:white;fill-opacity:1;"/>
</g>
<defs>
<clipPath id="clip0_1_770">
<rect width="200" height="60" fill="white" style="fill:white;fill-opacity:1;"/>
</clipPath>
</defs>
</svg>
