<svg width="200" height="30" viewBox="0 0 200 30" fill="none" xmlns="http://www.w3.org/2000/svg">
<g clip-path="url(#clip0_1_784)">
<path d="M0 15.5V1.00004H3.33333C5.51724 1.00004 6.66667 1.00004 6.66667 1.00004H6.72414C6.78161 1.00004 8.33333 2.45004 12.1839 6.22004L17.5862 11.44L17.7586 11.266C17.8736 11.15 20.2874 8.83004 23.1609 6.04604C27.069 2.27604 28.3908 1.05804 28.4483 1.05804C28.5057 1.05804 28.5057 1.05804 28.5057 1.05804C28.5057 1.05804 29.6552 1.05804 31.8391 1.05804C34.6552 1.05804 35.1724 1.05804 35.1724 1.11604C35.2299 1.17404 35.2299 29.942 35.1724 30C35.2299 30 34.7701 30 32.069 30C30 30 28.908 30 28.908 30H28.8506C28.7931 30 27.7586 29.014 24.6552 25.998C21.1494 22.634 20.5172 21.996 20.5172 21.938C20.5172 21.88 20.8046 21.59 22.4713 19.966C23.6782 18.806 24.4253 18.11 24.4828 18.11C24.5402 18.11 25.0575 18.632 27.1839 20.662L29.8276 23.214V19.328C29.8276 17.182 29.8276 13.702 29.8276 11.556V7.67004L20.1724 16.834C12.5287 24.142 10.5172 26.056 10.4598 26.056H10.4023V22.228V18.4L12.0115 16.892C12.8736 16.08 13.6207 15.384 13.6207 15.326C13.6207 15.268 11.7816 13.528 9.5977 11.44L5.57471 7.55404V18.748C5.57471 28.376 5.57471 29.942 5.51724 29.942C5.34483 30 4.94253 30 2.70115 30H0V15.5ZM55.8621 29.942C55.8621 29.884 55.8046 28.608 55.8046 23.562V17.298L50.2874 9.17804C45.5172 2.16004 44.8276 1.05804 44.8276 1.05804C44.8851 1.00004 45.3448 1.00004 48.1609 1.00004C50.3448 1.00004 51.4943 1.00004 51.4943 1.00004L51.5517 1.05804C51.6092 1.05804 52.8161 2.85604 55.0575 6.16204C56.954 9.00404 58.5632 11.266 58.5632 11.324C58.5632 11.324 60.1724 9.00404 62.069 6.22004C64.4253 2.74004 65.5747 1.05804 65.5747 1.05804H65.6322C65.6322 1.05804 66.7816 1.05804 69.023 1.05804C71.0919 1.05804 72.3563 1.05804 72.3563 1.05804V1.11604C72.3563 1.11604 70.2299 4.24804 66.8391 9.23604L61.3218 17.356V23.62C61.3218 29.072 61.3218 29.942 61.2644 30C61.2644 30 55.9195 30 55.8621 29.942ZM91.2069 29.942C91.2069 29.884 91.1494 27.506 91.1494 18.11V6.33604H86.0345H81.0345V3.72604C81.0345 1.46404 81.0345 1.05804 81.092 1.05804C81.1494 1.00004 106.839 1.00004 106.897 1.05804C106.954 1.11604 106.954 1.46404 106.954 3.72604V6.33604H101.897H96.8391V18.11C96.8391 28.26 96.8391 29.884 96.7816 29.942C96.6667 30 91.2644 30 91.2069 29.942ZM118.908 29.942C118.908 29.884 118.851 26.984 118.851 15.5C118.851 3.03004 118.851 1.05804 118.908 1.05804C118.966 1.00004 124.31 1.00004 124.368 1.05804C124.425 1.11604 124.425 1.92804 124.425 6.97404V12.832H131.034H137.644V6.91604C137.644 1.87004 137.644 1.05804 137.701 1.00004C137.759 0.942043 143.103 0.942043 143.161 1.00004C143.218 1.05804 143.218 29.826 143.161 29.884C143.103 29.942 137.759 29.942 137.701 29.884C137.644 29.826 137.644 29.014 137.644 23.968V18.226H131.034H124.425V24.084C124.425 29.13 124.425 29.942 124.368 30C124.368 30 118.966 30 118.908 29.942ZM157.471 29.942C157.471 29.884 157.414 26.984 157.414 15.5C157.414 3.03004 157.414 1.05804 157.471 1.05804C157.529 1.00004 162.874 1.00004 162.931 1.05804C162.989 1.11604 162.989 29.884 162.931 29.942C162.931 30 157.529 30 157.471 29.942ZM188.678 30C188.678 30 188.391 30 188.046 29.942C187.184 29.884 186.264 29.71 185.115 29.362C179.885 27.622 176.092 22.924 175.402 17.414C175.345 16.718 175.287 16.196 175.287 15.268C175.287 14.398 175.345 14.108 175.402 13.47C175.92 9.64204 177.989 6.16204 181.034 3.84204C183.161 2.21804 185.977 1.17404 188.276 1.05804C189.713 1.00004 191.379 1.05804 192.069 1.17404C194.828 1.63804 197.414 2.91404 199.483 4.82804C199.713 5.06004 199.77 5.11804 199.77 5.17604C199.77 5.23404 199.138 5.87204 197.931 7.09004C196.494 8.54004 196.092 8.94604 196.034 8.94604C195.977 8.94604 195.862 8.88804 195.69 8.71404C195.345 8.36604 194.885 8.01804 194.425 7.78604C194.023 7.55404 193.218 7.09004 192.816 6.97404C190.92 6.27804 189.023 6.22004 187.184 6.74204C184.828 7.43804 182.816 9.12004 181.609 11.382C180.862 12.832 180.46 14.63 180.575 16.196C180.747 18.458 181.724 20.546 183.333 22.112C184.368 23.098 185.517 23.852 186.839 24.258C187.816 24.606 188.621 24.722 189.655 24.722C190.69 24.722 191.494 24.606 192.471 24.258C193.736 23.852 194.828 23.156 195.862 22.228C196.092 21.996 196.207 21.938 196.264 21.938C196.322 21.938 196.552 22.17 198.103 23.678C199.08 24.664 199.885 25.476 199.885 25.476C199.885 25.476 199.885 25.534 199.943 25.592C199.943 25.65 199.943 25.65 199.943 25.708C199.943 25.766 199.885 25.766 199.885 25.824C199.885 25.882 199.31 26.404 198.851 26.81C197.988 27.564 196.839 28.318 195.747 28.782C194.31 29.478 192.644 29.942 191.437 30C190.977 30 188.678 30 188.678 30Z" fill="#00C58B" style="fill:#00C58B;fill:color(display-p3 0.0000 0.7725 0.5451);fill-opacity:1;"/>
</g>
<defs>
<clipPath id="clip0_1_784">
<rect width="200" height="30" fill="white" style="fill:white;fill-opacity:1;"/>
</clipPath>
</defs>
</svg>
