<svg width="200" height="60" viewBox="0 0 200 60" fill="none" xmlns="http://www.w3.org/2000/svg">
<g clip-path="url(#clip0_1_787)">
<path d="M192.432 38.1765C190.386 38.0339 189.196 37.6535 188.196 36.6076C187.435 35.7043 186.959 34.1354 186.959 32.2812V21.917H192.099C192.337 21.917 192.527 21.7268 192.527 21.4891V16.5447C192.527 16.307 192.337 16.1168 192.099 16.1168H186.959V9.3183C186.959 9.08059 186.768 8.89042 186.53 8.89042H179.867C179.629 8.89042 179.438 9.08059 179.438 9.3183V32.2812C179.438 36.3699 180.628 39.365 183.151 41.4569C185.055 43.1209 188.196 44.0242 191.861 44.0242H192.527C192.765 44.0242 192.956 43.834 192.956 43.5963V38.6519C192.861 38.3666 192.67 38.1765 192.432 38.1765ZM109.091 38.0814H108.71C106.806 38.0814 105.616 37.6535 104.76 36.7502C103.998 35.7994 103.57 34.278 103.57 32.0911V4.80178C103.57 4.56407 103.379 4.3739 103.141 4.3739H96.4779C96.2399 4.3739 96.0495 4.56407 96.0495 4.80178V32.1386C96.0495 36.3699 97.2395 39.5077 99.7145 41.5995C101.523 43.1684 104.331 43.9766 107.615 43.9766C108.091 43.9766 108.567 43.9766 109.091 43.9291C109.329 43.9291 109.519 43.6914 109.519 43.5012V38.4617C109.519 38.3191 109.472 38.224 109.377 38.1765C109.329 38.1289 109.234 38.0814 109.091 38.0814ZM31.3185 15.4037C28.2247 15.4037 25.9877 16.7824 24.0838 18.3989L23.941 16.4972C23.941 16.2595 23.7507 16.0693 23.5127 16.0693H17.5155C17.2775 16.0693 17.0872 16.2595 17.0872 16.4972V43.1684C17.0872 43.4061 17.2775 43.5963 17.5155 43.5963H24.179C24.417 43.5963 24.6074 43.4061 24.6074 43.1684V24.8646C27.0824 22.1072 28.1295 21.6793 29.7002 21.6793C31.9372 21.6793 34.317 23.1531 34.317 27.4319V43.311C34.317 43.5488 34.5074 43.7389 34.7454 43.7389H41.4089C41.6469 43.7389 41.8373 43.5488 41.8373 43.311V26.0532C41.9801 19.0645 36.6017 15.4037 31.3185 15.4037ZM71.3946 27.8598C71.6802 23.7236 73.8696 21.3465 77.2014 21.3465C80.9139 21.3465 82.5798 23.2482 82.5798 27.527V27.9073C82.6274 27.8598 71.3946 27.8598 71.3946 27.8598ZM77.1062 15.4037C68.0153 15.4037 63.922 22.6301 63.922 29.809C63.922 36.9879 68.0629 44.2143 77.2966 44.2143C81.485 44.2143 85.3404 42.7881 87.7678 40.2208C87.9582 40.0306 87.9582 39.7929 87.8154 39.6027L85.1976 35.9895C85.0548 35.7994 84.7692 35.7518 84.5788 35.8469C82.437 37.4158 80.1523 38.224 78.0105 38.224H77.4869C74.3932 38.0814 72.3465 36.0846 71.6326 32.3763H89.2433C89.4812 32.3763 89.6716 32.1861 89.6716 31.996C89.862 30.6648 89.9096 29.5238 89.9096 28.8106C89.7668 20.4907 85.0072 15.4037 77.1062 15.4037ZM130.129 15.4037C127.035 15.4037 124.798 16.7824 122.894 18.3989L122.751 16.4972C122.751 16.2595 122.561 16.0693 122.323 16.0693H116.326C116.088 16.0693 115.897 16.2595 115.897 16.4972V43.1684C115.897 43.4061 116.088 43.5963 116.326 43.5963H122.989C123.227 43.5963 123.417 43.4061 123.417 43.1684V24.8646C125.892 22.1072 126.94 21.6793 128.51 21.6793C130.747 21.6793 133.127 23.1531 133.127 27.4319V43.311C133.127 43.5488 133.318 43.7389 133.555 43.7389H140.219C140.457 43.7389 140.647 43.5488 140.647 43.311V26.0532C140.79 19.0645 135.459 15.4037 130.129 15.4037ZM154.688 27.8598C154.974 23.7236 157.163 21.3465 160.495 21.3465C164.208 21.3465 165.873 23.2482 165.873 27.527V27.9073C165.873 27.8598 154.688 27.8598 154.688 27.8598ZM160.4 15.4037C151.309 15.4037 147.216 22.6301 147.216 29.809C147.216 36.9879 151.357 44.2143 160.59 44.2143C164.779 44.2143 168.634 42.7881 171.061 40.2208C171.252 40.0306 171.252 39.7929 171.109 39.6027L168.491 35.9895C168.348 35.7994 168.063 35.7518 167.872 35.8469C165.731 37.4158 163.446 38.224 161.304 38.224H160.781C157.687 38.0814 155.64 36.0846 154.926 32.3763H172.537C172.775 32.3763 172.965 32.1861 172.965 31.996C173.156 30.6648 173.203 29.5238 173.203 28.8106C172.965 20.4907 168.301 15.4037 160.4 15.4037ZM197.001 40.9339H197.763C197.906 40.9339 197.953 40.9339 198.001 40.8864C198.049 40.8388 198.144 40.8389 198.191 40.7438C198.239 40.6962 198.239 40.5536 198.239 40.4585C198.239 40.3159 198.239 40.2683 198.191 40.2208C198.144 40.1733 198.144 40.0782 198.049 40.0782C198.001 40.0306 197.906 40.0306 197.858 40.0306H196.954L197.001 40.9339ZM197.001 42.5504H196.621V39.6978H197.763C198.049 39.6978 198.287 39.7454 198.477 39.888C198.62 40.0306 198.667 40.2683 198.667 40.5061C198.667 40.6487 198.667 40.7438 198.62 40.8864C198.572 41.029 198.477 41.0766 198.429 41.1241C198.382 41.1716 198.287 41.2667 198.191 41.3143C198.144 41.3618 198.001 41.3618 197.906 41.3618L198.763 42.5979H198.334L197.477 41.3618H196.954V42.5979H197.001V42.5504ZM195.431 41.1241C195.431 41.4094 195.478 41.7422 195.621 41.9799C195.764 42.2176 195.859 42.4553 196.097 42.6455C196.288 42.8356 196.525 43.0258 196.763 43.1209C197.001 43.2635 197.287 43.311 197.62 43.311C197.953 43.311 198.239 43.2635 198.477 43.1209C198.715 42.9783 198.953 42.8832 199.143 42.6455C199.334 42.4553 199.524 42.2176 199.619 41.9799C199.762 41.7422 199.81 41.4569 199.81 41.1241C199.81 40.7913 199.762 40.5061 199.619 40.2683C199.476 40.0306 199.381 39.7929 199.143 39.6027C198.953 39.4126 198.715 39.2224 198.477 39.1273C198.239 38.9847 197.953 38.9372 197.62 38.9372C197.287 38.9372 197.001 38.9847 196.763 39.1273C196.525 39.27 196.288 39.365 196.097 39.6027C195.907 39.7929 195.716 40.0306 195.621 40.2683C195.478 40.5061 195.431 40.8388 195.431 41.1241ZM195.05 41.1241C195.05 40.7438 195.098 40.4585 195.24 40.1733C195.383 39.888 195.526 39.6503 195.764 39.4126C196.002 39.1749 196.24 38.9847 196.525 38.8896C196.811 38.747 197.144 38.6994 197.477 38.6994C197.811 38.6994 198.144 38.747 198.429 38.8896C198.715 39.0322 198.953 39.1749 199.191 39.4126C199.429 39.6503 199.619 39.888 199.714 40.1733C199.857 40.4585 199.905 40.7913 199.905 41.1241C199.905 41.5044 199.857 41.7897 199.714 42.0749C199.572 42.3602 199.429 42.5979 199.191 42.8356C198.953 43.0733 198.715 43.2635 198.429 43.3586C198.144 43.4537 197.811 43.5488 197.477 43.5488C197.144 43.5488 196.811 43.5012 196.525 43.3586C196.24 43.216 196.002 43.0733 195.764 42.8356C195.526 42.5979 195.336 42.3602 195.24 42.0749C195.145 41.7897 195.05 41.4094 195.05 41.1241Z" fill="white" style="fill:white;fill-opacity:1;"/>
<path d="M29.5573 0C13.2794 0 0 13.2168 0 29.5238C0 45.8308 13.2318 59.0476 29.5573 59.0476C45.8829 59.0476 59.1147 45.8308 59.1147 29.5238C59.1147 13.2168 45.8353 0 29.5573 0ZM53.0224 29.5238C53.0224 42.4553 42.456 52.9621 29.5573 52.9621C16.6587 52.9621 6.09233 42.4077 6.09233 29.5238C6.09233 16.6398 16.6587 6.08542 29.5573 6.08542C42.456 6.13296 53.0224 16.5923 53.0224 29.5238Z" fill="white" style="fill:white;fill-opacity:1;"/>
</g>
<defs>
<clipPath id="clip0_1_787">
<rect width="200" height="60" fill="white" style="fill:white;fill-opacity:1;"/>
</clipPath>
</defs>
</svg>
