<svg width="200" height="38" viewBox="0 0 200 38" fill="none" xmlns="http://www.w3.org/2000/svg">
<g clip-path="url(#clip0_1_791)">
<path d="M46.8701 8.98543H51.1887L51.5849 10.8458H51.783C51.783 10.8458 53.4866 8.5896 57.0524 8.5896C61.3709 8.5896 64.5801 11.7563 64.5801 16.625V28.025H59.8654V17.0208C59.8654 14.6063 58.1617 12.9042 55.7449 12.9042C53.3281 12.9042 51.6245 14.5667 51.6245 17.0208V28.025H46.9097L46.8701 8.98543Z" fill="white" style="fill:white;fill-opacity:1;"/>
<path d="M86.1332 22.4042C85.7766 23.9083 83.3202 28.3813 77.298 28.3813C71.672 28.3813 67.512 24.2646 67.512 18.4854C67.512 12.7063 71.6324 8.5896 77.298 8.5896C82.5674 8.5896 86.6879 12.7063 86.6879 18.0896C86.6879 18.7229 86.6483 19.3563 86.4898 19.95H72.1871C72.5833 22.5625 74.6435 24.4229 77.2584 24.4229C79.5167 24.4229 80.8242 23.1167 81.2204 22.3646L86.1332 22.4042ZM82.0128 16.8229C81.6562 14.4083 79.9525 12.5479 77.298 12.5479C74.485 12.5479 72.7814 14.4083 72.2267 16.8229H82.0128Z" fill="white" style="fill:white;fill-opacity:1;"/>
<path d="M87.6782 8.98547H92.5514L95.7606 21.4938H96.038L99.2472 8.98547H104.041L107.25 21.4938H107.528L110.737 8.98547H115.61L110.737 28.0251H105.032L101.822 15.7146H101.545L98.3755 28.0251H92.6307L87.6782 8.98547Z" fill="white" style="fill:white;fill-opacity:1;"/>
<path d="M124.921 8.98547H128.883L129.239 10.648H129.437C129.834 10.1334 130.349 9.69797 130.943 9.42089C131.537 9.14381 132.171 8.98547 132.845 8.98547H136.133V13.4584H133.241C130.784 13.4584 129.675 14.5667 129.675 16.9813V27.9855H124.96V8.98547H124.921Z" fill="white" style="fill:white;fill-opacity:1;"/>
<path d="M155.309 22.4042C154.913 23.9083 152.496 28.3813 146.474 28.3813C140.848 28.3813 136.688 24.2646 136.688 18.4854C136.688 12.7063 140.808 8.5896 146.474 8.5896C151.743 8.5896 155.864 12.7063 155.864 18.0896C155.864 18.7229 155.824 19.3563 155.666 19.95H141.363C141.759 22.5625 143.819 24.4229 146.434 24.4229C148.693 24.4229 150 23.1167 150.396 22.3646L155.309 22.4042ZM151.189 16.8229C150.832 14.4083 149.128 12.5479 146.474 12.5479C143.661 12.5479 141.957 14.4083 141.402 16.8229H151.189Z" fill="white" style="fill:white;fill-opacity:1;"/>
<path d="M168.304 1.90002H173.019V6.05627H168.304V1.90002ZM168.304 8.98544H173.019V28.025H168.304V8.98544Z" fill="white" style="fill:white;fill-opacity:1;"/>
<path d="M194.968 20.9396C194.414 23.9084 191.957 28.3813 185.935 28.3813C180.309 28.3813 176.149 24.2646 176.149 18.4854C176.149 12.7063 180.269 8.5896 185.935 8.5896C191.957 8.5896 194.374 13.0625 194.968 15.8729H190.254C189.897 14.7646 188.748 12.9042 185.935 12.9042C183.122 12.9042 180.864 15.1604 180.864 18.4854C180.864 21.8104 183.122 24.0667 185.935 24.0667C188.748 24.0667 189.897 22.2063 190.254 20.9H194.968V20.9396Z" fill="white" style="fill:white;fill-opacity:1;"/>
<path d="M156.616 1.90002V6.05627H159.271V28.025H163.986V1.90002H156.616Z" fill="white" style="fill:white;fill-opacity:1;"/>
<path d="M195.721 26.2438C195.721 25.8083 195.84 25.4125 196.117 25.0958C196.355 24.7396 196.672 24.5021 197.068 24.3438C197.464 24.1854 197.9 24.1458 198.296 24.225C198.693 24.3042 199.089 24.5021 199.366 24.8188C199.644 25.1354 199.842 25.4917 199.921 25.8875C200 26.2833 199.96 26.7188 199.802 27.1146C199.644 27.5104 199.366 27.8271 199.01 28.0646C198.653 28.3021 198.257 28.4208 197.821 28.4208C197.544 28.4208 197.266 28.3813 196.989 28.2625C196.712 28.1438 196.474 27.9854 196.276 27.7875C196.078 27.5896 195.919 27.3521 195.8 27.075C195.761 26.7979 195.721 26.5208 195.721 26.2438ZM199.644 26.2438C199.644 25.8875 199.525 25.5313 199.327 25.2542C199.128 24.9771 198.851 24.7396 198.495 24.6208C198.178 24.5021 197.821 24.4625 197.464 24.5417C197.108 24.6208 196.791 24.7792 196.553 25.0563C196.315 25.2938 196.117 25.6104 196.078 25.9667C195.999 26.3229 196.038 26.6792 196.197 26.9958C196.315 27.3125 196.553 27.5896 196.87 27.7875C197.147 27.9854 197.504 28.1042 197.861 28.1042C198.098 28.1042 198.336 28.0646 198.574 27.9854C198.812 27.9063 199.01 27.7479 199.168 27.5896C199.327 27.4313 199.485 27.2333 199.564 26.9958C199.644 26.7188 199.683 26.4813 199.644 26.2438ZM196.989 25.0958H197.94C198.059 25.0958 198.138 25.0958 198.257 25.1354C198.336 25.175 198.455 25.2146 198.534 25.2938C198.613 25.3729 198.653 25.4521 198.693 25.5313C198.732 25.6104 198.772 25.7292 198.772 25.8479C198.772 26.0458 198.693 26.2042 198.574 26.3625C198.455 26.4813 198.257 26.5604 198.059 26.5604L198.851 27.3521H198.415L197.623 26.5604H197.346V27.3521H197.029L196.989 25.0958ZM197.98 26.2438C198.296 26.2438 198.455 26.0854 198.455 25.8479C198.455 25.7688 198.455 25.7292 198.415 25.6896C198.376 25.65 198.336 25.5708 198.296 25.5313C198.257 25.4917 198.178 25.4521 198.138 25.4521C198.098 25.4521 198.019 25.4125 197.94 25.4521H197.306V26.2438H197.98Z" fill="white" style="fill:white;fill-opacity:1;"/>
<path d="M26.7828 13.1417V24.8188L16.6006 30.6771V38L33.2012 28.5V9.5L26.7828 13.1417Z" fill="white" style="fill:white;fill-opacity:1;"/>
<path d="M16.6006 7.32292L26.8225 13.1813L33.1616 9.5L16.6006 0L0 9.5L6.37876 13.1417L16.6006 7.32292Z" fill="#7E7E7E" style="fill:#7E7E7E;fill:color(display-p3 0.4931 0.4931 0.4931);fill-opacity:1;"/>
<path d="M10.2219 22.6417V34.3187L16.6006 38V19L0 9.5V16.8229L10.2219 22.6417Z" fill="white" style="fill:white;fill-opacity:1;"/>
</g>
<defs>
<clipPath id="clip0_1_791">
<rect width="200" height="38" fill="white" style="fill:white;fill-opacity:1;"/>
</clipPath>
</defs>
</svg>
