<svg width="200" height="55" viewBox="0 0 200 55" fill="none" xmlns="http://www.w3.org/2000/svg">
<g clip-path="url(#clip0_1_805)">
<path d="M84.8208 8.17212H81.8241V25.0353L68.4039 8.17212H65.6677V30.6132H68.6645V13.2311L82.3452 30.4834V30.6132H84.8208V8.17212Z" fill="#00C58B" style="fill:#00C58B;fill:color(display-p3 0.0000 0.7725 0.5451);fill-opacity:1;"/>
<path d="M101.889 28.0188C97.1987 28.0188 93.5505 24.257 93.5505 19.3278C93.5505 14.3985 97.0684 10.6367 101.889 10.6367C106.71 10.6367 110.228 14.3985 110.228 19.4575C110.228 24.3867 106.58 28.0188 101.889 28.0188ZM101.889 7.78296C95.3746 7.78296 90.2932 12.8419 90.2932 19.4575C90.2932 26.0731 95.2443 31.0023 101.759 31.0023C108.274 31.0023 113.355 25.9433 113.355 19.3278C113.355 12.7122 108.404 7.78296 101.889 7.78296Z" fill="#00C58B" style="fill:#00C58B;fill:color(display-p3 0.0000 0.7725 0.5451);fill-opacity:1;"/>
<path d="M117.134 10.8962H130.554L116.743 28.5377V30.6132H134.984V27.7594H121.042L134.853 10.2476H134.984V8.17212H117.134V10.8962Z" fill="#00C58B" style="fill:#00C58B;fill:color(display-p3 0.0000 0.7725 0.5451);fill-opacity:1;"/>
<path d="M149.707 28.0188C145.016 28.0188 141.368 24.257 141.368 19.3278C141.368 14.3985 144.886 10.6367 149.707 10.6367C154.397 10.6367 158.046 14.3985 158.046 19.4575C158.046 24.3867 154.397 28.0188 149.707 28.0188ZM161.173 19.3278C161.173 12.7122 156.222 7.78296 149.707 7.78296C143.192 7.78296 138.111 12.8419 138.111 19.4575C138.111 26.0731 143.062 31.0023 149.577 31.0023C156.091 31.0023 161.173 25.8136 161.173 19.3278Z" fill="#00C58B" style="fill:#00C58B;fill:color(display-p3 0.0000 0.7725 0.5451);fill-opacity:1;"/>
<path d="M177.589 19.8466L169.772 8.17212H166.775V30.6132H169.772V13.6202L177.329 24.6462H177.72L185.277 13.6202V30.6132H188.404V8.17212H185.407L177.589 19.8466Z" fill="#00C58B" style="fill:#00C58B;fill:color(display-p3 0.0000 0.7725 0.5451);fill-opacity:1;"/>
<path d="M198.176 8.17212H195.049V30.6132H198.176V8.17212Z" fill="#00C58B" style="fill:#00C58B;fill:color(display-p3 0.0000 0.7725 0.5451);fill-opacity:1;"/>
<path d="M72.3127 42.1581L67.4918 35.9316H65.6677V46.0496H67.7524V39.6934L72.7036 46.0496H74.5277V35.9316H72.3127V42.1581Z" fill="#00C58B" style="fill:#00C58B;fill:color(display-p3 0.0000 0.7725 0.5451);fill-opacity:1;"/>
<path d="M85.9934 41.8986H90.8142V39.9529H85.9934V38.0071H91.4657V35.9316H83.9087V46.0496H91.4657V43.9741H85.9934V41.8986Z" fill="#00C58B" style="fill:#00C58B;fill:color(display-p3 0.0000 0.7725 0.5451);fill-opacity:1;"/>
<path d="M99.8044 38.0071H102.801V46.0496H104.886V38.0071H108.013V35.9316H99.8044V38.0071Z" fill="#00C58B" style="fill:#00C58B;fill:color(display-p3 0.0000 0.7725 0.5451);fill-opacity:1;"/>
<path d="M126.384 42.5472L124.3 35.9316H122.476L120.261 42.5472L118.176 35.9316H115.831L119.348 46.0496H121.173L123.388 39.6934L125.472 46.0496H127.296L130.814 35.9316H128.599L126.384 42.5472Z" fill="#00C58B" style="fill:#00C58B;fill:color(display-p3 0.0000 0.7725 0.5451);fill-opacity:1;"/>
<path d="M143.713 44.1038C142.02 44.1038 140.717 42.8066 140.717 40.8608C140.717 39.0448 142.02 37.7476 143.713 37.7476C145.407 37.7476 146.71 39.0448 146.71 40.9906C146.71 42.8066 145.407 44.1038 143.713 44.1038ZM143.713 35.8019C140.717 35.8019 138.502 38.1368 138.502 40.9906C138.502 43.974 140.717 46.1792 143.713 46.1792C146.71 46.1792 148.925 43.8443 148.925 40.9906C148.925 38.0071 146.71 35.8019 143.713 35.8019Z" fill="#00C58B" style="fill:#00C58B;fill:color(display-p3 0.0000 0.7725 0.5451);fill-opacity:1;"/>
<path d="M160 38.0071H162.215C162.867 38.0071 163.909 38.1368 163.909 39.434C163.909 40.2123 163.257 40.8609 162.215 40.8609H160V38.0071ZM166.124 39.1746C166.124 38.2665 165.863 37.4882 165.212 36.9694C164.56 36.3208 163.518 35.9316 162.215 35.9316H157.655V45.9198H159.87V42.5472H161.564L163.909 45.9198H166.515L163.909 42.1581C165.472 41.7689 166.124 40.7312 166.124 39.1746Z" fill="#00C58B" style="fill:#00C58B;fill:color(display-p3 0.0000 0.7725 0.5451);fill-opacity:1;"/>
<path d="M184.235 35.9316H181.498L177.329 40.4717V35.9316H175.114V46.0496H177.329V43.0661L178.632 41.7689L181.759 46.0496H184.365L180.065 40.342L184.235 35.9316Z" fill="#00C58B" style="fill:#00C58B;fill:color(display-p3 0.0000 0.7725 0.5451);fill-opacity:1;"/>
<path d="M196.352 39.9528C194.397 39.5636 194.267 39.1745 194.267 38.6556C194.267 38.1367 194.788 37.7476 195.57 37.7476C196.352 37.7476 197.133 38.007 198.045 38.6556L198.176 38.7853L199.348 37.099L199.218 36.9693C198.176 36.191 197.003 35.6721 195.57 35.6721C193.485 35.6721 192.052 36.9693 192.052 38.6556C192.052 40.6014 193.225 41.25 195.44 41.7688C197.264 42.158 197.394 42.5471 197.394 43.066C197.394 43.7146 196.873 43.974 195.961 43.974C194.918 43.974 194.006 43.5849 193.094 42.8066L192.964 42.6768L191.661 44.2334L191.791 44.3632C192.964 45.4009 194.397 45.9198 195.961 45.9198C198.176 45.9198 199.609 44.7523 199.609 42.8066C199.609 40.9905 198.045 40.3419 196.352 39.9528Z" fill="#00C58B" style="fill:#00C58B;fill:color(display-p3 0.0000 0.7725 0.5451);fill-opacity:1;"/>
<path d="M41.9544 12.4528L29.4463 0V9.72877L41.9544 22.1816V12.4528Z" fill="#00C58B" style="fill:#00C58B;fill:color(display-p3 0.0000 0.7725 0.5451);fill-opacity:1;"/>
<path d="M51.9871 22.3113V32.1698L56.9382 27.2405L51.9871 22.3113Z" fill="#00C58B" style="fill:#00C58B;fill:color(display-p3 0.0000 0.7725 0.5451);fill-opacity:1;"/>
<path d="M44.0391 14.3986V27.1108L29.4463 12.5825V54.6108L35.4398 48.6438V27.3703L46.1238 38.007L49.9023 34.1155V20.3655L44.0391 14.3986Z" fill="#00C58B" style="fill:#00C58B;fill:color(display-p3 0.0000 0.7725 0.5451);fill-opacity:1;"/>
<path d="M44.6905 39.434L37.394 32.1698V46.6981L44.6905 39.434Z" fill="#00C58B" style="fill:#00C58B;fill:color(display-p3 0.0000 0.7725 0.5451);fill-opacity:1;"/>
<path d="M4.95114 22.3113L0 27.2405L4.95114 32.1698V22.3113Z" fill="#00C58B" style="fill:#00C58B;fill:color(display-p3 0.0000 0.7725 0.5451);fill-opacity:1;"/>
<path d="M14.8535 42.0283L27.492 54.6108V44.7523L14.8535 32.1698V42.0283Z" fill="#00C58B" style="fill:#00C58B;fill:color(display-p3 0.0000 0.7725 0.5451);fill-opacity:1;"/>
<path d="M12.2476 15.0472L19.544 22.1816V7.91272L12.2476 15.0472Z" fill="#00C58B" style="fill:#00C58B;fill:color(display-p3 0.0000 0.7725 0.5451);fill-opacity:1;"/>
<path d="M21.4984 5.83726V27.1108L10.8143 16.4741L6.90552 20.3656V34.1156L12.899 40.0825V27.3703L27.4918 41.8986V0L21.4984 5.83726Z" fill="#00C58B" style="fill:#00C58B;fill:color(display-p3 0.0000 0.7725 0.5451);fill-opacity:1;"/>
</g>
<defs>
<clipPath id="clip0_1_805">
<rect width="200" height="55" fill="white" style="fill:white;fill-opacity:1;"/>
</clipPath>
</defs>
</svg>
