<svg width="153" height="29" viewBox="0 0 153 29" fill="none" xmlns="http://www.w3.org/2000/svg">
<g clip-path="url(#clip0_1_829)">
<path d="M46.317 7.91895H37.0024V25.3339H39.1192V9.80234H46.3859C48.2015 9.80234 49.1093 10.7096 49.1093 12.5242V25.3339H51.2302V12.8639C51.2302 9.57015 49.5955 7.92325 46.3214 7.92325L46.317 7.91895Z" fill="#00C58B" style="fill:#00C58B;fill:color(display-p3 0.0000 0.7725 0.5451);fill-opacity:1;"/>
<path d="M68.6165 23.485H61.3843C59.5472 23.485 58.6265 22.5648 58.6265 20.7287V7.91897H56.5098V20.389C56.5098 23.6828 58.1576 25.3297 61.4531 25.3297H70.7376V7.91467H68.6165V23.4807V23.485Z" fill="#00C58B" style="fill:#00C58B;fill:color(display-p3 0.0000 0.7725 0.5451);fill-opacity:1;"/>
<path d="M80.9595 7.91897C77.6639 7.91897 76.0161 9.56587 76.0161 12.8597V20.389C76.0161 23.6828 77.6639 25.3297 80.9595 25.3297H87.6539L88.7983 24.4568V23.4807H80.895C79.0536 23.4807 78.1372 22.5605 78.1372 20.7244V12.52C78.1372 10.7054 79.0579 9.79807 80.895 9.79807H88.7983V8.78757L87.6539 7.91467H80.9595V7.91897Z" fill="#00C58B" style="fill:#00C58B;fill:color(display-p3 0.0000 0.7725 0.5451);fill-opacity:1;"/>
<path d="M115.301 17.4649V12.8596C115.301 9.56585 113.662 7.91895 110.392 7.91895H106.021C102.725 7.91895 101.077 9.56585 101.077 12.8596V20.3889C101.077 23.6827 102.725 25.3296 106.021 25.3296H113.489L114.634 24.4567V23.4806H105.956C104.115 23.4806 103.198 22.5604 103.198 20.7243V17.4649H115.306H115.301ZM103.194 12.5242C103.194 10.7096 104.115 9.80235 105.952 9.80235H110.46C112.277 9.80235 113.184 10.7096 113.184 12.5242V15.6847H103.194V12.5242Z" fill="#00C58B" style="fill:#00C58B;fill:color(display-p3 0.0000 0.7725 0.5451);fill-opacity:1;"/>
<path d="M132.554 23.485H125.321C123.479 23.485 122.563 22.5648 122.563 20.7287V7.91897H120.447V20.389C120.447 23.6828 122.094 25.3297 125.39 25.3297H134.674V7.91467H132.557V23.4807L132.554 23.485Z" fill="#00C58B" style="fill:#00C58B;fill:color(display-p3 0.0000 0.7725 0.5451);fill-opacity:1;"/>
<path d="M148.024 15.8869L143.885 15.1817C142.384 14.9366 141.631 14.0293 141.631 12.4598C141.631 10.6925 142.538 9.80674 144.355 9.80674H151.315V8.79624L150.171 7.92334H144.487C141.171 7.92334 139.509 9.47994 139.509 12.5974C139.509 15.1086 140.921 16.5964 143.748 17.0694L147.852 17.7746C149.285 17.9982 150.003 19.0087 150.003 20.8018C150.003 22.5949 149.103 23.4893 147.314 23.4893H139.509V24.4654L140.655 25.3383H147.146C150.464 25.3383 152.124 23.7817 152.124 20.6642C152.124 17.9294 150.756 16.3384 148.02 15.8912L148.024 15.8869Z" fill="#00C58B" style="fill:#00C58B;fill:color(display-p3 0.0000 0.7725 0.5451);fill-opacity:1;"/>
<path d="M96.1299 0.458618H94.0132V25.3342H96.1299V0.458618Z" fill="#00C58B" style="fill:#00C58B;fill:color(display-p3 0.0000 0.7725 0.5451);fill-opacity:1;"/>
<path d="M14.3132 4.45609C15.4951 4.45609 16.6127 5.2228 17.6277 6.73479C18.3771 6.50352 19.148 6.31072 19.9145 6.14802C18.5141 2.72565 16.6684 0.763916 14.8398 0.763916H14.6515C12.4418 0.930965 10.5661 4.0192 9.76099 8.82936L9.82947 8.96638C11.0242 6.05376 12.6088 4.45181 14.3089 4.45181L14.3132 4.45609Z" fill="#00C58B" style="fill:#00C58B;fill:color(display-p3 0.0000 0.7725 0.5451);fill-opacity:1;"/>
<path d="M22.4065 15.7639C22.2609 13.4595 21.8798 11.1637 21.2802 8.9364C20.6722 9.14629 20.0727 9.39046 19.4902 9.66031C20.6336 13.0611 21.2031 16.5991 21.1817 20.1886C21.1817 24.2277 20.9163 26.2922 20.5051 27.8985L20.7107 28.284C22.0897 25.1015 22.7363 20.4927 22.4108 15.7597L22.4065 15.7639Z" fill="#00C58B" style="fill:#00C58B;fill:color(display-p3 0.0000 0.7725 0.5451);fill-opacity:1;"/>
<path d="M29.4431 21.7518C28.7879 20.274 27.5674 18.6378 25.9144 17.0188H25.6746C27.2934 19.5802 27.6659 21.7561 26.7195 23.1609C26.09 24.099 24.9295 24.6301 23.268 24.7415C23.1009 25.551 22.8953 26.3606 22.647 27.1487C23.4735 27.2858 24.3129 27.3629 25.1479 27.3672C27.3791 27.3672 28.9207 26.7418 29.6058 25.5639C30.1669 24.5831 30.1069 23.2681 29.4388 21.7518H29.4431Z" fill="#00C58B" style="fill:#00C58B;fill:color(display-p3 0.0000 0.7725 0.5451);fill-opacity:1;"/>
<path d="M19.868 24.292C16.2494 23.3625 12.8577 21.8205 9.78298 19.7003C6.54984 17.5586 4.96961 16.1923 3.82194 14.8988L3.78345 15.5926C5.75763 18.3682 8.97368 21.1781 12.7207 23.3325C14.9004 24.5832 17.2172 25.5984 19.6153 26.348C19.7309 25.6669 19.8166 24.9773 19.868 24.292Z" fill="#00C58B" style="fill:#00C58B;fill:color(display-p3 0.0000 0.7725 0.5451);fill-opacity:1;"/>
<path d="M4.6268 24.1805C3.93726 22.9897 4.19854 21.2208 5.34622 19.3191C4.81087 18.7921 4.29273 18.2396 3.80878 17.6656C2.46416 19.2762 1.51347 20.8481 1.05526 22.2145C0.571356 23.658 0.63131 24.8315 1.22228 25.714C1.88176 26.6819 3.19644 27.196 5.02505 27.196C6.94354 27.1231 8.83203 26.7376 10.6306 26.0481L10.7034 25.9067C10.1638 25.9709 9.61564 26.0052 9.0761 26.0095C6.85784 26.0095 5.32052 25.3798 4.6268 24.1848V24.1805Z" fill="#00C58B" style="fill:#00C58B;fill:color(display-p3 0.0000 0.7725 0.5451);fill-opacity:1;"/>
<path d="M14.9983 10.6323C18.891 8.36218 20.8566 7.64257 22.5738 7.2443L22.3811 7.01721C19.2807 7.3984 14.8912 8.76905 10.5275 11.6989C8.92171 12.7697 7.39288 13.9818 5.97974 15.3054C6.40369 15.6952 6.88322 16.0935 7.43567 16.5218C9.65822 14.2003 12.1976 12.2214 14.994 10.6366L14.9983 10.6323Z" fill="#00C58B" style="fill:#00C58B;fill:color(display-p3 0.0000 0.7725 0.5451);fill-opacity:1;"/>
<path d="M15.6759 18.7463C16.7238 18.7463 17.5732 17.8974 17.5732 16.85C17.5732 15.8028 16.7238 14.9537 15.6759 14.9537C14.628 14.9537 13.7786 15.8028 13.7786 16.85C13.7786 17.8974 14.628 18.7463 15.6759 18.7463Z" fill="#00C58B" style="fill:#00C58B;fill:color(display-p3 0.0000 0.7725 0.5451);fill-opacity:1;"/>
</g>
<defs>
<clipPath id="clip0_1_829">
<rect width="153" height="29" fill="white" style="fill:white;fill-opacity:1;"/>
</clipPath>
</defs>
</svg>
