<svg width="200" height="67" viewBox="0 0 200 67" fill="none" xmlns="http://www.w3.org/2000/svg">
<g clip-path="url(#clip0_1_844)">
<path d="M66.1933 22.2307C66.6255 19.3364 69.0954 15.8879 73.9735 15.8879C78.4193 15.8879 81.0127 19.0901 81.3214 22.2307H66.1933ZM60.0803 24.4476C60.0803 32.33 65.761 37.5643 74.0352 37.5643C79.4072 37.5643 83.0503 34.9164 85.088 32.5763C85.335 32.33 85.335 32.0221 85.2115 31.7757C85.2115 31.7757 85.2115 31.7757 85.088 31.6526L82.1859 28.8814C81.9389 28.6351 81.5066 28.6351 81.1979 28.8814C79.6542 30.2362 77.4313 32.2068 73.85 32.2068C69.7129 32.2068 66.8107 29.7436 66.0698 26.5414H86.2612C86.6934 26.5414 87.0639 26.295 87.2492 25.864V25.7408V24.5092C87.2492 17.0579 82.4329 10.8382 74.0969 10.8382C65.3288 10.8998 60.0803 16.9963 60.0803 24.4476ZM91.0775 36.4559C91.0775 36.7022 91.201 37.1333 91.6332 37.1333H91.7567H96.079C96.326 37.1333 96.7583 37.0101 96.7583 36.579V36.4559V0.554228C96.7583 0.307904 96.6348 0 96.2025 0H91.6332C91.201 0 91.0775 0.246323 91.0775 0.554228V36.4559ZM51.0651 36.4559C51.0651 36.7022 51.1886 37.1333 51.6209 37.1333H51.7444H56.0667C56.3137 37.1333 56.7459 37.0101 56.7459 36.579V36.4559V22.1075C56.7459 16.011 53.1646 10.8998 45.3844 10.8998H45.2609C41.4943 10.8998 38.5922 12.1314 36.925 13.671V12.3162C36.925 11.8851 36.678 11.6388 36.3693 11.6388H32.0469C31.7999 11.6388 31.3677 11.7619 31.3677 12.193V12.3162V36.6406C31.3677 36.8869 31.4912 37.318 31.9234 37.318H32.1087H36.431C36.678 37.318 37.1102 37.1949 37.1102 36.7638V36.6406V23.0928C37.1102 18.9669 39.3331 15.7647 44.3347 15.7647C49.3362 15.7647 51.2504 18.7822 51.2504 23.0312L51.0651 36.4559ZM132.881 44.0303C134.795 46.3704 138.994 49.1415 144.921 49.1415C153.072 49.1415 158.073 44.1535 158.073 36.148V12.3162C158.073 12.0699 157.95 11.6388 157.518 11.6388H157.394H153.257C153.01 11.6388 152.578 11.7619 152.578 12.193V12.3162V13.671C150.787 12.1314 148.441 10.8998 144.551 10.8998C137.203 10.8998 130.719 16.2574 130.719 24.2629C130.719 32.2684 136.956 37.6259 144.551 37.6259C147.453 37.6259 150.232 36.6406 152.454 34.9779V36.6406C152.454 41.1976 149.799 44.0919 144.86 44.0919C140.846 44.0919 138.067 41.875 136.4 40.2123C136.153 39.966 135.597 39.966 135.289 40.2123L132.942 42.9835C132.634 43.2298 132.634 43.6608 132.881 44.0303ZM21.8586 24.3244C21.8586 28.8814 18.4007 32.4531 13.9549 32.4531C9.38561 32.4531 6.17475 28.5735 6.17475 24.3244V24.0165C6.17475 19.7059 9.38561 16.1342 13.9549 16.1342C18.4007 16.011 21.8586 19.7675 21.8586 24.3244ZM0 24.3244C0 31.6526 5.92776 37.6875 13.8314 37.6875C21.8586 37.6875 27.6629 31.591 27.6629 24.3244V24.0165C27.6629 16.6884 21.7351 10.8998 13.8314 10.8998C5.92776 10.8998 0 16.6884 0 24.3244ZM121.951 24.3244C121.951 28.8814 118.493 32.4531 114.048 32.4531C109.602 32.4531 106.267 28.5735 106.267 24.3244V24.0165C106.267 19.7059 109.478 16.1342 114.048 16.1342C118.617 16.011 121.951 19.7675 121.951 24.3244ZM100.093 24.3244C100.093 31.6526 106.02 37.6875 113.924 37.6875C121.828 37.6875 127.755 31.591 127.755 24.3244V24.0165C127.755 16.6884 121.828 10.8998 113.924 10.8998C106.02 10.8998 100.093 16.6884 100.093 24.3244ZM163.507 36.4559C163.507 36.7022 163.631 37.1333 164.063 37.1333H164.186H168.509C168.756 37.1333 169.188 37.0101 169.188 36.579V36.4559V12.1314C169.188 11.8851 169.065 11.5772 168.632 11.5772H164.063C163.631 11.5772 163.507 11.8235 163.507 12.1314V36.4559ZM163.507 5.11121C163.507 5.35754 163.631 5.7886 164.063 5.7886H164.186H168.509C168.756 5.7886 169.188 5.66544 169.188 5.23437V5.11121V0.554228C169.188 0.307904 169.065 0 168.632 0H164.063C163.631 0 163.507 0.246323 163.507 0.554228V5.11121ZM194.257 36.4559C194.257 36.7022 194.381 37.1333 194.813 37.1333H194.937H199.259C199.506 37.1333 199.938 37.0101 199.938 36.579V36.4559V22.1075C199.938 16.011 196.357 10.8998 188.577 10.8998H188.453C184.687 10.8998 181.785 12.1314 180.117 13.671V12.3162C180.117 11.8851 179.87 11.6388 179.562 11.6388H175.239C174.992 11.6388 174.56 11.7619 174.56 12.193V12.3162V36.6406C174.56 36.8869 174.684 37.318 175.116 37.318H175.239H179.562C179.809 37.318 180.241 37.1949 180.241 36.7638V36.6406V23.0928C180.241 18.9669 182.464 15.7647 187.465 15.7647C192.467 15.7647 194.381 18.7822 194.381 23.0928L194.257 36.4559ZM152.578 24.3244C152.578 28.8814 149.12 32.4531 144.674 32.4531C140.105 32.4531 136.894 28.5735 136.894 24.3244V24.0165C136.894 19.7059 140.105 16.1342 144.674 16.1342C149.12 16.011 152.578 19.7675 152.578 24.3244Z" fill="white" style="fill:white;fill-opacity:1;"/>
<path d="M82.124 53.6985H83.1737V57.5781C83.7295 56.7775 84.6557 56.3465 85.5819 56.3465C87.4343 56.3465 88.7928 57.8244 88.7928 60.1029C88.7928 62.3814 87.4343 63.8593 85.5819 63.8593C84.5322 63.8593 83.7295 63.3051 83.1737 62.6277V63.6746H82.124V53.6985ZM85.3349 62.7509C86.8168 62.7509 87.6195 61.5193 87.6195 59.9182C87.6195 58.3171 86.8168 57.0854 85.3349 57.0854C84.4087 57.0854 83.606 57.6397 83.1737 58.3171V61.5193C83.606 62.2582 84.5322 62.7509 85.3349 62.7509Z" fill="white" style="fill:white;fill-opacity:1;"/>
<path d="M91.1392 65.4605C91.6949 65.4605 91.9419 65.3373 92.1889 64.6599L92.7446 63.613L89.7808 56.4081H91.0157L93.4239 62.2583L95.832 56.4081H97.067L93.4239 65.091C92.9916 66.1379 92.1889 66.5689 91.2627 66.5689C91.0157 66.5689 90.5835 66.5689 90.46 66.4458L90.5835 65.3989C90.5835 65.4605 90.8305 65.4605 91.1392 65.4605Z" fill="white" style="fill:white;fill-opacity:1;"/>
<path d="M115.591 53.8216C115.591 53.6985 115.715 53.5753 115.838 53.5753H116.024C116.147 53.5753 116.271 53.6985 116.394 53.7601L121.766 58.9329V54.0064C121.766 53.8832 121.89 53.7601 122.013 53.7601H123.68C123.804 53.7601 123.927 53.8832 123.927 54.0064V63.3667C123.927 63.5514 123.804 63.613 123.68 63.613H123.557C123.433 63.613 123.31 63.5514 123.186 63.4898L117.752 58.0091V63.1819C117.752 63.3051 117.629 63.4283 117.505 63.4283H115.838C115.715 63.4283 115.591 63.3051 115.591 63.1819V53.8216Z" fill="white" style="fill:white;fill-opacity:1;"/>
<path d="M125.718 53.9448C125.718 53.8216 125.842 53.6985 125.965 53.6985H131.769C131.893 53.6985 132.016 53.8216 132.016 53.9448V55.4843C132.016 55.6075 131.893 55.7307 131.769 55.7307H127.879V57.4549H131.09C131.214 57.4549 131.337 57.5781 131.337 57.7012V59.2408C131.337 59.3639 131.214 59.4871 131.09 59.4871H127.879V61.3961H131.769C131.893 61.3961 132.016 61.5193 132.016 61.6424V63.1819C132.016 63.3051 131.893 63.4283 131.769 63.4283H125.965C125.842 63.4283 125.718 63.3051 125.718 63.1819V53.9448Z" fill="white" style="fill:white;fill-opacity:1;"/>
<path d="M138.994 53.9448C138.994 53.8216 139.117 53.6985 139.241 53.6985H140.908C141.031 53.6985 141.155 53.8216 141.155 53.9448V63.1819C141.155 63.3051 141.031 63.4283 140.908 63.4283H139.241C139.117 63.4283 138.994 63.3051 138.994 63.1819V53.9448Z" fill="white" style="fill:white;fill-opacity:1;"/>
<path d="M142.945 53.9448C142.945 53.8216 143.069 53.6985 143.192 53.6985H146.588C149.305 53.6985 151.466 55.9154 151.466 58.5634C151.466 61.2729 149.244 63.4283 146.588 63.4283H143.192C143.069 63.4283 142.945 63.3051 142.945 63.1819V53.9448ZM146.588 61.3961C148.194 61.3961 149.182 60.1645 149.182 58.5634C149.182 56.9623 148.132 55.7307 146.588 55.7307H145.106V61.3961H146.588Z" fill="white" style="fill:white;fill-opacity:1;"/>
<path d="M153.01 53.9448C153.01 53.8216 153.134 53.6985 153.257 53.6985H159.062C159.185 53.6985 159.308 53.8216 159.308 53.9448V55.4843C159.308 55.6075 159.185 55.7307 159.062 55.7307H155.171V57.4549H158.382C158.506 57.4549 158.629 57.5781 158.629 57.7012V59.2408C158.629 59.3639 158.506 59.4871 158.382 59.4871H155.171V61.3961H159.062C159.185 61.3961 159.308 61.5193 159.308 61.6424V63.1819C159.308 63.3051 159.185 63.4283 159.062 63.4283H153.257C153.134 63.4283 153.01 63.3051 153.01 63.1819V53.9448Z" fill="white" style="fill:white;fill-opacity:1;"/>
<path d="M160.852 53.7601C160.852 53.637 160.976 53.5138 161.099 53.5138H161.285C161.408 53.5138 161.532 53.637 161.655 53.6985L167.027 58.8713V53.9449C167.027 53.8217 167.151 53.6985 167.274 53.6985H168.941C169.065 53.6985 169.188 53.8217 169.188 53.9449V63.3052C169.188 63.4899 169.065 63.5515 168.941 63.5515H168.818C168.694 63.5515 168.571 63.4899 168.447 63.4283L163.013 57.9476V63.1204C163.013 63.2436 162.89 63.3667 162.766 63.3667H161.099C160.976 63.3667 160.852 63.2436 160.852 63.1204V53.7601Z" fill="white" style="fill:white;fill-opacity:1;"/>
<path d="M173.325 55.7307H171.349C171.226 55.7307 171.102 55.6075 171.102 55.4843V53.9448C171.102 53.8216 171.226 53.6985 171.349 53.6985H177.586C177.709 53.6985 177.833 53.8216 177.833 53.9448V55.4843C177.833 55.6075 177.709 55.7307 177.586 55.7307H175.61V63.1819C175.61 63.3051 175.486 63.4283 175.363 63.4283H173.696C173.572 63.4283 173.449 63.3051 173.449 63.1819V55.7307" fill="white" style="fill:white;fill-opacity:1;"/>
<path d="M179.623 53.9448C179.623 53.8216 179.747 53.6985 179.87 53.6985H181.537C181.661 53.6985 181.784 53.8216 181.784 53.9448V63.1819C181.784 63.3051 181.661 63.4283 181.537 63.4283H179.87C179.747 63.4283 179.623 63.3051 179.623 63.1819V53.9448Z" fill="white" style="fill:white;fill-opacity:1;"/>
<path d="M185.86 55.7307H183.884C183.76 55.7307 183.637 55.6075 183.637 55.4843V53.9448C183.637 53.8216 183.76 53.6985 183.884 53.6985H190.12C190.244 53.6985 190.367 53.8216 190.367 53.9448V55.4843C190.367 55.6075 190.244 55.7307 190.12 55.7307H188.145V63.1819C188.145 63.3051 188.021 63.4283 187.898 63.4283H186.23C186.107 63.4283 185.983 63.3051 185.983 63.1819V55.7307" fill="white" style="fill:white;fill-opacity:1;"/>
<path d="M194.628 58.7482L191.541 54.068C191.417 53.8833 191.541 53.637 191.788 53.637H193.578C193.702 53.637 193.764 53.6985 193.825 53.7601L195.739 56.5928L197.654 53.7601C197.715 53.6985 197.777 53.637 197.901 53.637H199.691C199.938 53.637 200 53.8833 199.938 54.068L196.789 58.6866V63.1204C196.789 63.2436 196.666 63.3667 196.542 63.3667H194.875C194.751 63.3667 194.628 63.2436 194.628 63.1204V58.7482Z" fill="white" style="fill:white;fill-opacity:1;"/>
<path d="M108.737 51.2969C111.207 51.2969 113.554 52.6517 114.789 54.807L114.048 55.238C112.936 53.329 110.96 52.2206 108.737 52.2206V51.2969Z" fill="white" style="fill:white;fill-opacity:1;"/>
<path d="M113.06 65.8299C110.343 67.3694 107.008 67.3694 104.353 65.8299C101.636 64.2904 99.9692 61.3961 99.9692 58.317C99.9692 55.1764 101.636 52.3437 104.353 50.8042C107.07 49.2647 110.405 49.2647 113.06 50.8042L112.627 51.5431C110.219 50.1268 107.194 50.1268 104.786 51.5431C102.377 52.9595 100.834 55.5459 100.834 58.317C100.834 61.0882 102.316 63.6746 104.786 65.0909C107.194 66.5073 110.219 66.5073 112.627 65.0909L113.06 65.8299Z" fill="white" style="fill:white;fill-opacity:1;"/>
<path d="M108.737 53.0826C111.639 53.0826 113.986 55.4227 113.986 58.317C113.986 61.2113 111.639 63.5514 108.737 63.5514C105.835 63.5514 103.489 61.2113 103.489 58.317C103.489 55.4227 105.835 53.0826 108.737 53.0826ZM105.65 58.317C105.65 59.9797 107.008 61.3345 108.676 61.3345C110.343 61.3345 111.701 59.9797 111.701 58.317C111.701 56.6543 110.343 55.2996 108.676 55.2996C107.008 55.2996 105.65 56.5928 105.65 58.317Z" fill="white" style="fill:white;fill-opacity:1;"/>
<path d="M113.986 61.3345C112.875 63.2435 110.899 64.3519 108.676 64.3519C106.453 64.3519 104.477 63.1819 103.365 61.3345C102.254 59.4255 102.254 57.147 103.365 55.2379L102.624 54.8069C101.39 56.9622 101.39 59.6102 102.624 61.7655C103.859 63.9209 106.206 65.2756 108.676 65.2756C111.146 65.2756 113.492 63.9209 114.727 61.7655L113.986 61.3345Z" fill="white" style="fill:white;fill-opacity:1;"/>
</g>
<defs>
<clipPath id="clip0_1_844">
<rect width="200" height="67" fill="white" style="fill:white;fill-opacity:1;"/>
</clipPath>
</defs>
</svg>
