<svg width="201" height="46" viewBox="0 0 201 46" fill="none" xmlns="http://www.w3.org/2000/svg">
<g clip-path="url(#clip0_1_869)">
<path fill-rule="evenodd" clip-rule="evenodd" d="M137.134 1.8999C137.735 1.2999 138.515 0.939904 139.355 0.999904C140.196 0.999904 140.976 1.2999 141.576 1.8999C142.176 2.4999 142.477 3.2799 142.477 4.1199C142.477 5.0199 142.176 5.7399 141.576 6.3399C140.976 6.9399 140.196 7.2999 139.355 7.2399C138.515 7.2399 137.675 6.9399 137.134 6.3399C136.534 5.7399 136.174 4.9599 136.234 4.1199C136.234 3.2799 136.534 2.5599 137.134 1.8999ZM141.456 12.1599H137.314V36.7599H141.456V12.1599ZM158.083 11.4399C161.564 11.4399 164.805 12.9399 167.206 15.5799V2.1399H171.348V36.6999H167.206V33.2799C164.866 35.9199 161.564 37.4199 158.083 37.4199C151.24 37.4199 145.598 31.5999 145.598 24.4599C145.598 17.3199 151.18 11.4399 158.083 11.4399ZM158.323 33.4599C163.125 33.4599 167.026 29.3799 167.026 24.3999C167.026 19.4199 163.125 15.3999 158.323 15.3999C153.521 15.3999 149.619 19.4799 149.619 24.4599C149.619 29.4399 153.521 33.4599 158.323 33.4599ZM175.07 24.3999C175.07 17.2599 180.892 11.4399 188.035 11.4399C195.178 11.4399 201 17.2599 201 24.3999C201 31.5399 195.178 37.3599 188.035 37.3599C180.892 37.4199 175.07 31.5399 175.07 24.3999ZM188.035 33.4599C192.837 33.4599 196.738 29.3799 196.738 24.3999C196.738 19.4199 192.837 15.3999 188.035 15.3999C183.233 15.3999 179.331 19.4799 179.331 24.4599C179.331 29.4399 183.173 33.4599 188.035 33.4599ZM125.49 7.2999V12.1599H132.513V15.9999H125.49V36.7599H121.348V15.9999H116.726V12.1599H121.348V7.2399C121.348 3.9999 123.989 1.3599 127.23 1.3599H132.513V5.1399H127.651C126.45 5.0799 125.49 6.0999 125.49 7.2999ZM104.481 11.4399C100.88 11.4399 98.1188 12.8799 96.5582 15.6999V12.1599H92.4165V36.7599H96.5582V23.9199C96.5582 21.3399 97.2185 19.2399 98.479 17.6799C99.7395 16.1199 101.54 15.3999 103.761 15.3999C105.622 15.3999 107.182 15.9999 108.263 17.2599C109.343 18.5199 109.944 20.3799 109.944 22.8399V36.6999H114.085V22.0599C114.085 18.5799 113.245 15.8799 111.564 14.0799C109.944 12.3999 107.423 11.4399 104.481 11.4399ZM62.5246 24.3999C62.5246 17.2599 68.3469 11.4399 75.4898 11.4399C82.6326 11.4399 88.455 17.2599 88.455 24.3999C88.455 31.5399 82.6326 37.3599 75.4898 37.3599C68.3469 37.4199 62.5246 31.5399 62.5246 24.3999ZM75.4898 33.4599C80.2917 33.4599 84.1933 29.3799 84.1933 24.3999C84.1933 19.4199 80.2917 15.3999 75.4898 15.3999C70.6879 15.3999 66.7863 19.4799 66.7863 24.4599C66.7863 29.4399 70.6879 33.4599 75.4898 33.4599ZM32.1524 23.2599C32.1524 27.6999 28.551 31.2999 24.1092 31.2999C19.6674 31.2999 16.066 27.6999 16.066 23.2599C16.066 18.8199 19.6674 15.2199 24.1092 15.2199C28.551 15.2199 32.1524 18.8199 32.1524 23.2599ZM12.2845 39.9399C12.7047 39.6399 13.1849 39.3399 13.605 39.0399C20.4478 34.9599 28.9712 34.9599 35.7539 39.0999C35.994 39.2199 35.994 39.6399 35.7539 39.7599L35.5738 39.8799C35.2137 40.1199 34.8535 40.3599 34.4934 40.5999C32.0924 42.0399 29.5114 43.2399 26.8103 44.1999C25.0096 44.8599 23.1488 45.3999 21.168 45.8199C19.3073 46.2399 17.4466 45.7599 16.006 44.4999C14.6254 43.3599 13.3649 42.0999 12.1644 40.7799C11.9244 40.5399 11.9244 40.1799 12.1644 39.9399C12.2245 39.9999 12.2845 39.9999 12.2845 39.9399Z" fill="#00C58B" style="fill:#00C58B;fill:color(display-p3 0.0000 0.7725 0.5451);fill-opacity:1;"/>
<path opacity="0.5" fill-rule="evenodd" clip-rule="evenodd" d="M34.1333 7.89995C34.6135 7.59995 35.0337 7.29995 35.4539 6.99995C35.754 6.81995 35.814 6.45995 35.6339 6.15995L35.5739 6.09995C34.3734 4.77995 33.0529 3.57995 31.7324 2.37995C30.2918 1.17995 28.371 0.699952 26.5703 1.11995C24.6495 1.53995 22.7288 2.07995 20.9281 2.73995C18.287 3.69995 15.706 4.89995 13.245 6.33995C12.8848 6.57995 12.5247 6.81995 12.1645 7.05995L11.9845 7.17995C11.7444 7.35995 11.7444 7.71995 11.9845 7.83995C18.8272 12.04 27.3506 12.04 34.1333 7.89995ZM7.90285 13.24C7.60273 12.76 7.30261 12.34 7.00249 11.86C6.82241 11.56 6.46227 11.5 6.16215 11.6799L6.10213 11.74C4.7816 12.9399 3.58112 14.2599 2.38064 15.5799C1.18016 17.0199 0.699966 18.94 1.12013 20.74C1.5403 22.66 2.08052 24.5199 2.74078 26.3799C3.70117 29.0199 4.90165 31.5999 6.34222 34.0599C6.58232 34.4199 6.82241 34.7799 7.06251 35.1999L7.18256 35.3799C7.36263 35.6199 7.72277 35.6199 7.84282 35.3799C11.9845 28.6599 11.9845 20.08 7.90285 13.24ZM40.3758 35.5599C35.4539 28.5999 35.0937 19.2999 39.5355 11.9799C39.6555 11.7999 39.8956 11.74 40.0757 11.86C40.1357 11.92 40.1958 11.92 40.1958 11.9799L40.3158 12.16C40.5559 12.52 40.796 12.88 41.0361 13.3C42.4767 15.76 43.6772 18.2799 44.6375 20.9799C45.2978 22.8399 45.838 24.6999 46.2582 26.6199C46.6784 28.4799 46.1982 30.3999 44.9977 31.7799C43.8572 33.16 42.5967 34.4199 41.3362 35.6199C41.0961 35.86 40.736 35.86 40.4959 35.6199C40.3758 35.6199 40.3758 35.6199 40.3758 35.5599Z" fill="#00C58B" style="fill:#00C58B;fill:color(display-p3 0.0000 0.7725 0.5451);fill-opacity:1;"/>
</g>
<defs>
<clipPath id="clip0_1_869">
<rect width="201" height="46" fill="white" style="fill:white;fill-opacity:1;"/>
</clipPath>
</defs>
</svg>
