<svg width="201" height="93" viewBox="0 0 201 93" fill="none" xmlns="http://www.w3.org/2000/svg">
<g clip-path="url(#clip0_1_873)">
<path d="M6.10735 10.4267C5.29019 11.6533 4.67732 12.6756 3.86016 14.1067C7.53738 16.9689 9.98886 21.4667 9.98886 26.5778C9.98886 31.6889 7.74167 35.9822 4.06445 38.8445C4.67732 40.0711 5.49448 41.2978 6.31164 42.32C11.4189 39.0489 14.8918 33.12 14.8918 26.3733C14.8918 19.6267 11.4189 13.6978 6.10735 10.4267ZM7.94596 26.3733C7.94596 22.2845 6.10735 18.4 3.043 15.9467C0.182934 22.6933 0.182934 30.2578 3.043 36.8C6.31164 34.3467 7.94596 30.4622 7.94596 26.3733ZM16.3219 2.2489C14.8918 2.86223 13.4618 3.68001 12.2361 4.49779C16.3219 7.36001 19.5905 11.2445 21.6334 15.7422C23.0634 14.9245 24.6977 14.5156 26.1278 14.3111C24.2892 9.6089 20.8162 5.31557 16.3219 2.2489ZM16.5261 30.2578C15.5047 35.7778 12.236 40.6845 7.53738 43.7511C8.55883 44.7733 9.58028 45.7956 10.6017 46.6133C14.8918 43.9556 18.1605 40.0711 19.9991 35.3689C18.3648 34.1422 17.139 32.3022 16.5261 30.2578ZM21.8377 36.8C19.9991 41.5022 16.7304 45.3867 12.4403 48.2489C13.6661 49.0667 15.0961 49.8845 16.5261 50.4978C20.8162 47.4311 24.2892 43.1378 26.3321 38.0267C24.902 37.8222 23.2677 37.4133 21.8377 36.8ZM10.6017 5.9289C9.58028 6.74668 8.55883 7.7689 7.53738 8.79112C12.236 11.8578 15.5047 16.7645 16.5261 22.2845C17.139 20.24 18.3648 18.4 19.9991 16.9689C18.1605 12.4711 14.8918 8.58668 10.6017 5.9289Z" fill="white" style="fill:white;fill-opacity:1;"/>
<path d="M65.3513 71.76C65.3513 70.5333 66.5771 69.92 68.0071 69.92C69.4371 69.92 70.6629 70.5333 71.48 71.9645L74.7487 70.1245C73.5229 67.6711 71.0714 66.4445 68.0071 66.4445C64.3299 66.4445 61.4698 68.4889 61.4698 71.9645C61.4698 78.3022 71.0714 76.6667 71.0714 79.7333C71.0714 81.1645 69.6414 81.7778 68.0071 81.7778C65.9642 81.7778 64.5342 80.7556 64.1256 79.12L60.8569 80.96C62.0827 83.6178 64.5342 85.2533 68.2114 85.2533C72.0929 85.2533 75.1572 83.4133 75.1572 79.7333C74.9529 72.9867 65.3513 75.0311 65.3513 71.76Z" fill="white" style="fill:white;fill-opacity:1;"/>
<path d="M97.0165 75.8489C97.0165 70.7378 93.3393 66.4445 88.0277 66.4445C82.3076 66.4445 78.6304 70.5333 78.6304 75.8489C78.6304 81.1645 82.5119 85.2533 88.4363 85.2533C91.9092 85.2533 94.565 83.8222 96.1993 81.3689L92.9307 79.5289C92.1135 80.7556 90.4792 81.7778 88.232 81.7778C85.3719 81.7778 83.1248 80.3467 82.5119 77.4845H96.8122C97.0165 76.8711 97.0165 76.4622 97.0165 75.8489ZM82.5119 74.2133C83.1248 71.5556 84.9634 69.7156 87.8234 69.7156C90.0706 69.7156 92.5221 71.1467 92.9307 74.2133H82.5119Z" fill="white" style="fill:white;fill-opacity:1;"/>
<path d="M115.198 78.7111C114.381 80.3467 112.542 81.5734 110.499 81.5734C107.435 81.5734 104.984 79.12 104.984 75.8489C104.984 72.5778 107.435 70.1245 110.499 70.1245C112.542 70.1245 114.381 71.1467 115.198 72.9867L118.467 71.1467C117.037 68.2845 113.972 66.4445 110.499 66.4445C105.188 66.4445 101.102 70.5333 101.102 75.8489C101.102 81.1645 105.188 85.2533 110.499 85.2533C113.972 85.2533 117.037 83.4134 118.671 80.5511L115.198 78.7111Z" fill="white" style="fill:white;fill-opacity:1;"/>
<path d="M135.219 66.8534V76.4623C135.219 80.1423 133.176 81.5734 130.724 81.5734C128.273 81.5734 126.638 80.1423 126.638 77.4845V66.8534H122.757V77.8934C122.757 82.5956 125.617 85.2534 129.703 85.2534C132.154 85.2534 133.993 84.4356 135.219 82.3911V84.64H139.1V66.6489H135.219V66.8534Z" fill="white" style="fill:white;fill-opacity:1;"/>
<path d="M149.111 69.92V66.8533H145.229V84.8445H149.111V75.6445C149.111 71.5556 152.175 70.5333 154.626 70.5333V66.4445C152.379 66.4445 150.132 67.4667 149.111 69.92Z" fill="white" style="fill:white;fill-opacity:1;"/>
<path d="M159.121 66.8533V84.8444H163.002V66.8533H159.121Z" fill="white" style="fill:white;fill-opacity:1;"/>
<path d="M179.141 70.5333V66.8533H174.647V61.7422L170.765 62.9689V66.8533H167.497V70.5333H170.765V79.12C170.765 83.8222 173.217 85.4577 179.141 84.64V81.1644C176.281 81.3689 174.647 81.3689 174.647 79.12V70.5333H179.141Z" fill="white" style="fill:white;fill-opacity:1;"/>
<path d="M196.71 66.8533L192.215 79.9377L186.904 66.8533H182.614L190.172 84.4355L189.968 84.8444C189.151 87.2977 187.721 88.5244 185.27 88.3199V91.9999C189.355 92.2044 192.42 89.9555 194.054 85.4577L201 66.8533H196.71Z" fill="white" style="fill:white;fill-opacity:1;"/>
<path d="M90.4792 0.408936V17.3778C84.3505 16.3556 75.566 18.8089 75.566 28.8267V51.3156H60.6528V1.43116H69.0287C71.8888 1.43116 74.5446 3.27116 75.3617 6.13338C79.2432 2.45338 84.5548 0.61338 89.8663 0.408936C90.0706 0.408936 90.2749 0.408936 90.4792 0.408936Z" fill="white" style="fill:white;fill-opacity:1;"/>
<path d="M27.3533 0C24.4933 0 21.4289 0.408889 18.5688 1.43111C23.0632 4.90667 26.3319 9.40444 28.3748 14.5156C34.2992 15.1289 38.7936 19.6267 38.7936 26.1689C38.7936 32.7111 34.5035 37.2089 28.5791 37.8222C26.5362 42.9333 23.2675 47.6356 18.7731 51.1111C21.4289 51.9289 24.4933 52.5422 27.3533 52.5422C42.0622 52.5422 53.7067 41.0933 53.7067 26.1689C53.7067 11.2444 42.0622 0 27.3533 0Z" fill="white" style="fill:white;fill-opacity:1;"/>
<path d="M130.929 32.5067C129.09 35.9822 125.413 38.0267 121.123 38.0267C114.585 38.0267 109.682 33.3244 109.682 26.1689C109.682 19.0133 114.585 14.3111 121.123 14.3111C125.413 14.3111 129.09 16.3556 130.929 19.8311L143.799 12.4711C139.1 5.11111 130.52 0 120.918 0C106.209 0 94.5649 11.4489 94.5649 26.3733C94.5649 41.2978 106.414 52.7467 120.918 52.7467C130.52 52.7467 139.1 47.6356 143.595 39.8667L130.929 32.5067Z" fill="white" style="fill:white;fill-opacity:1;"/>
<path d="M192.624 1.43111C189.764 1.43111 187.108 3.27111 186.291 6.13333C183.023 2.24889 177.915 0 171.174 0C158.303 0 147.476 11.4489 147.476 26.3733C147.476 41.2978 158.303 52.5422 171.174 52.5422C177.915 52.5422 182.818 50.2933 186.291 46.4089C187.108 49.2711 189.56 51.1111 192.624 51.1111H201V1.43111H192.624ZM173.83 38.0267C167.292 38.0267 162.389 33.3244 162.389 26.1689C162.389 19.0133 167.292 14.5156 173.83 14.5156C180.367 14.5156 185.27 19.2178 185.27 26.1689C185.27 33.12 180.367 38.0267 173.83 38.0267Z" fill="white" style="fill:white;fill-opacity:1;"/>
</g>
<defs>
<clipPath id="clip0_1_873">
<rect width="201" height="93" fill="white" style="fill:white;fill-opacity:1;"/>
</clipPath>
</defs>
</svg>
