<svg width="200" height="38" viewBox="0 0 200 38" fill="none" xmlns="http://www.w3.org/2000/svg">
<g clip-path="url(#clip0_1_889)">
<path fill-rule="evenodd" clip-rule="evenodd" d="M12.2128 19.8355C12.3954 21.5699 13.2265 23.1765 14.5454 24.3444C15.8645 25.5123 17.5777 26.1588 19.3541 26.1588C21.1303 26.1588 22.8436 25.5123 24.1626 24.3444C25.4817 23.1765 26.3128 21.5699 26.4954 19.8355C26.5195 19.5984 26.5315 19.3581 26.5315 19.1148C26.5396 18.1844 26.3599 17.2618 26.0028 16.3999C25.6458 15.5381 25.1183 14.7543 24.4511 14.0936C23.7837 13.4329 22.9898 12.9085 22.115 12.5506C21.2401 12.1927 20.3018 12.0085 19.3541 12.0085C18.4063 12.0085 17.4679 12.1927 16.593 12.5506C15.7183 12.9085 14.9243 13.4329 14.257 14.0936C13.5897 14.7543 13.0623 15.5381 12.7053 16.3999C12.3482 17.2618 12.1685 18.1844 12.1766 19.1148C12.1766 19.3572 12.1887 19.5981 12.2128 19.8355ZM7.10602e-09 19.0005C-0.000103702 15.2426 1.13498 11.5691 3.26169 8.44444C5.38841 5.31981 8.41125 2.88447 11.9479 1.44634C15.4846 0.00823349 19.3763 -0.368044 23.1308 0.365101C26.8854 1.09825 30.3341 2.90789 33.0409 5.56516C35.7477 8.22244 37.5911 11.608 38.3378 15.2937C39.0846 18.9795 38.7012 22.7997 37.2361 26.2716C35.7711 29.7434 33.2902 32.7108 30.1071 34.7984C26.924 36.8861 23.1819 38.0003 19.3538 38C16.8121 38 14.2955 37.5085 11.9473 36.5537C9.59915 35.5989 7.46557 34.1994 5.66841 32.4352C3.87124 30.6709 2.44565 28.5764 1.47307 26.2713C0.50048 23.9661 -6.88565e-05 21.4956 7.10602e-09 19.0005Z" fill="white" style="fill:white;fill-opacity:1;"/>
<path d="M62.6818 18.8719C62.6818 24.6502 58.5964 27.1684 54.7406 27.1684C50.4251 27.1684 47.0967 24.0701 47.0967 19.1303C47.0967 13.9003 50.5884 10.8339 55.0038 10.8339C59.5847 10.8339 62.6818 14.0938 62.6818 18.8719ZM50.0288 19.0331C50.0288 22.4557 52.0395 25.0383 54.8729 25.0383C57.6407 25.0383 59.7166 22.4876 59.7166 18.9692C59.7166 16.3213 58.3647 12.964 54.9381 12.964C51.5115 12.964 50.0288 16.0639 50.0288 19.0331Z" fill="white" style="fill:white;fill-opacity:1;"/>
<path d="M79.6858 22.5524C79.6858 24.1661 79.7183 25.5895 79.8176 26.8136H77.248L77.0836 24.2635H77.0167C76.4794 25.1617 75.7084 25.9041 74.7822 26.4146C73.856 26.9251 72.8081 27.1854 71.7456 27.1688C69.2405 27.1688 66.2427 25.8134 66.2427 20.3224V11.189H69.1423V19.8406C69.1423 22.8108 70.0654 24.8118 72.7013 24.8118C73.5272 24.7981 74.3307 24.5456 75.0108 24.0862C75.6909 23.6268 76.2173 22.9807 76.524 22.2292C76.6987 21.7642 76.7877 21.2724 76.7867 20.7769V11.189H79.6858V22.5524Z" fill="white" style="fill:white;fill-opacity:1;"/>
<path d="M94.5545 23.9083C95.7025 24.6126 97.0218 25.0036 98.3757 25.0407C100.485 25.0407 101.475 24.0081 101.475 22.7166C101.475 21.3602 100.652 20.6174 98.5101 19.8427C95.6432 18.8419 94.2923 17.292 94.2923 15.4203C94.2923 12.9021 96.3687 10.8358 99.7953 10.8358C101.166 10.8227 102.516 11.1564 103.716 11.8046L102.992 13.8709C102.011 13.2783 100.882 12.9651 99.7296 12.9665C98.0158 12.9665 97.0601 13.9347 97.0601 15.0975C97.0601 16.3891 98.0158 16.9693 100.092 17.7445C102.86 18.7781 104.276 20.133 104.276 22.4582C104.276 25.2018 102.101 27.1719 98.3126 27.1719C96.7471 27.1904 95.2032 26.8118 93.8311 26.0729L94.5545 23.9083Z" fill="white" style="fill:white;fill-opacity:1;"/>
<path d="M122.893 23.9083C124.041 24.6125 125.361 25.0035 126.716 25.0407C128.823 25.0407 129.815 24.0081 129.815 22.7166C129.815 21.3602 128.992 20.6174 126.85 19.8427C123.983 18.8419 122.633 17.292 122.633 15.4203C122.633 12.9021 124.708 10.8358 128.134 10.8358C129.504 10.8227 130.855 11.1564 132.055 11.8046L131.33 13.8709C130.35 13.2783 129.221 12.9652 128.069 12.9665C126.355 12.9665 125.399 13.9347 125.399 15.0975C125.399 16.3891 126.355 16.9693 128.431 17.7445C131.199 18.7782 132.615 20.133 132.615 22.4582C132.615 25.2018 130.44 27.1719 126.651 27.1719C125.086 27.1901 123.543 26.8117 122.171 26.0729L122.893 23.9083Z" fill="white" style="fill:white;fill-opacity:1;"/>
<path d="M162.92 15.4178C162.92 13.8034 162.887 12.4789 162.789 11.1889H165.324L165.456 13.7061H165.555C166.032 12.8172 166.755 12.0771 167.64 11.5695C168.525 11.0618 169.538 10.8068 170.563 10.8332C171.556 10.8227 172.528 11.1198 173.338 11.6822C174.149 12.2446 174.758 13.0435 175.078 13.965H175.143C175.583 13.1722 176.19 12.4792 176.923 11.9307C177.931 11.1732 179.178 10.785 180.448 10.8332C182.558 10.8332 185.687 12.1896 185.687 17.6132V26.8141H182.853V17.9678C182.853 14.9652 181.733 13.1579 179.394 13.1579C178.621 13.1898 177.876 13.4552 177.263 13.9174C176.649 14.3798 176.196 15.0165 175.967 15.7405C175.816 16.1997 175.738 16.6789 175.737 17.1612V26.8141H172.903V17.4515C172.903 14.9652 171.783 13.1579 169.574 13.1579C167.763 13.1579 166.444 14.5786 165.983 15.9989C165.821 16.4447 165.743 16.9156 165.754 17.3887V26.8141H162.919L162.92 15.4178Z" fill="white" style="fill:white;fill-opacity:1;"/>
<path d="M189.965 23.9084C191.114 24.6126 192.434 25.0037 193.787 25.0409C195.896 25.0409 196.888 24.0083 196.888 22.7167C196.888 21.3603 196.063 20.6176 193.923 19.8427C191.052 18.8395 189.702 17.2895 189.702 15.4179C189.702 12.8996 191.777 10.8334 195.204 10.8334C196.574 10.8203 197.925 11.154 199.125 11.8022L198.4 13.8684C197.42 13.2758 196.291 12.9627 195.138 12.964C193.425 12.964 192.469 13.9322 192.469 15.0952C192.469 16.3866 193.425 16.9668 195.501 17.7421C198.266 18.7757 199.684 20.1332 199.684 22.4558C199.684 25.1995 197.509 27.1694 193.722 27.1694C192.156 27.1879 190.612 26.8093 189.24 26.0704L189.965 23.9084Z" fill="white" style="fill:white;fill-opacity:1;"/>
<path d="M117.741 11.382L114.578 20.3389C114.183 21.4714 113.854 22.9477 113.557 23.3924H113.491C113.228 22.9477 112.832 21.4363 112.469 20.4068L108.977 11.382H105.813L111.712 25.6837C111.815 25.9035 111.881 26.1378 111.909 26.3781C111.873 26.6081 111.795 26.8298 111.679 27.0328C111.128 28.2557 110.293 29.3347 109.24 30.1838C108.492 30.7991 107.631 31.2682 106.703 31.5653L107.491 33.94C108.795 33.6298 109.998 33.0001 110.986 32.11C112.963 30.4319 114.38 27.7835 116.456 22.4237L120.805 11.382H117.741Z" fill="white" style="fill:white;fill-opacity:1;"/>
<path d="M159.23 19.3903C159.307 18.972 159.341 18.5472 159.329 18.1223C159.329 15.2423 157.941 10.7731 152.723 10.7731C148.066 10.7731 145.225 14.5103 145.225 19.2348C145.225 23.9593 148.168 27.1704 153.087 27.1704C154.903 27.1857 156.702 26.8014 158.348 26.0456L157.623 23.8836C155.191 24.8529 153.374 25.0464 152.017 24.7937C151.463 24.6814 150.932 24.4848 150.441 24.2111C148.29 22.92 148.031 20.1392 148.001 19.5576C148.001 19.52 147.998 19.3882 147.998 19.3882L159.23 19.3903ZM152.492 12.9825C155.761 12.9825 156.554 15.8297 156.521 17.6097H148.032C148.265 15.8297 149.552 12.9825 152.492 12.9825Z" fill="white" style="fill:white;fill-opacity:1;"/>
<path d="M90.9776 23.9371C90.4479 24.32 89.8262 24.5624 89.1729 24.6408C88.1688 24.6254 87.4769 23.9443 87.4769 22.0361V13.16H91.5639V11.382H87.4769V5.64648L84.2979 7.76732V21.8719C84.2979 23.7127 84.7665 25.1 85.5902 25.9385C86.0581 26.4197 86.6489 26.7693 87.3015 26.9511C88.0449 27.1729 88.8329 27.2109 89.5951 27.0618C90.3573 26.9127 91.07 26.5811 91.6696 26.0966L90.9776 23.9371Z" fill="white" style="fill:white;fill-opacity:1;"/>
<path d="M142.765 23.9371C142.231 24.3197 141.608 24.5621 140.951 24.6408C139.949 24.6254 139.248 23.9443 139.248 22.0361V13.16H143.337V11.382H139.248V5.64648L136.07 7.76733V21.8719C136.07 23.7127 136.546 25.1 137.37 25.9385C137.839 26.4201 138.431 26.7699 139.085 26.9511C139.829 27.1728 140.617 27.2108 141.379 27.0617C142.141 26.9126 142.854 26.581 143.454 26.0966L142.765 23.9371Z" fill="white" style="fill:white;fill-opacity:1;"/>
</g>
<defs>
<clipPath id="clip0_1_889">
<rect width="200" height="38" fill="white" style="fill:white;fill-opacity:1;"/>
</clipPath>
</defs>
</svg>
