<svg width="201" height="41" viewBox="0 0 201 41" fill="none" xmlns="http://www.w3.org/2000/svg">
<g clip-path="url(#clip0_1_901)">
<path d="M0 23.7185H4.73943V32.3285H0V23.7185ZM17.8498 1.5785C15.3057 0.2255 13.5412 0 9.37628 0H0V19.598H9.33525C13.0488 19.598 15.8186 19.3725 18.2602 17.753C20.9274 15.99 22.302 13.0585 22.302 9.676C22.302 6.0065 20.5991 3.075 17.8498 1.5785ZM10.4227 15.498H4.73943V4.2025L10.0944 4.1615C14.9774 4.1 17.419 5.822 17.419 9.717C17.419 13.899 14.403 15.498 10.4227 15.498Z" fill="white" style="fill:white;fill-opacity:1;"/>
<path d="M195.014 8.5895L190.5 21.3815C189.68 23.6775 189.269 24.9895 188.51 27.2035H188.428C187.833 25.297 187.279 23.7595 186.52 21.5045L182.15 8.569H176.898L185.987 32.308C185.782 32.8205 185.576 33.3535 185.351 33.907C184.592 35.752 182.786 36.9615 180.796 36.9615H178.539V41H180.857C184.612 41 187.997 38.704 189.393 35.219C192.285 27.9825 197.21 15.662 200.02 8.5895H195.014ZM68.9781 27.757C68.9781 36.3465 65.0388 41 57.0782 41C51.1488 41 47.5788 37.884 46.3068 33.1895H51.1078C51.9284 35.3625 53.6519 37.31 57.1603 37.31C62.5973 37.31 64.5259 33.9275 64.5259 27.4905C64.4849 27.4905 64.4849 27.4495 64.4438 27.4495C63.2744 29.479 60.6482 31.283 56.4832 31.283C49.7947 31.283 45.5476 26.445 45.5476 19.6595C45.5476 12.6075 50.164 7.872 56.5448 7.872C60.6687 7.872 63.1513 9.635 64.5054 11.5825C64.4643 11.0905 64.4643 10.5985 64.4643 10.086V8.5895H68.9781V27.757ZM50.5128 19.6185C50.5128 24.231 53.0979 27.5315 57.5296 27.5315C61.5099 27.5315 64.5874 24.723 64.5874 19.4955C64.5874 14.842 61.8792 11.726 57.5296 11.726C53.18 11.726 50.5128 14.8215 50.5128 19.6185ZM76.4668 21.648C76.6515 25.8095 79.3187 29.11 83.935 29.11C87.1972 29.11 88.777 27.5725 89.9875 25.543H94.5628C93.2087 29.8275 89.4541 32.9025 83.7504 32.9025C76.4258 32.9025 71.8505 27.9825 71.8505 20.5615C71.8505 13.1405 76.5899 7.913 83.7504 7.913C91.4853 7.913 95.0552 13.7965 95.0552 20.172V21.6685L76.4668 21.648ZM90.2953 18.04C89.8849 14.2885 87.5255 11.6235 83.6478 11.6235C79.9342 11.6235 77.0823 14.063 76.6309 18.04H90.2953ZM102.38 8.5895V11.6235C103.139 9.4095 105.457 7.995 108.125 7.995C108.514 7.995 108.904 8.0155 109.294 8.077V12.2385C108.761 12.136 108.248 12.095 107.714 12.095C103.406 12.095 102.606 15.252 102.606 20.008V32.308H98.0302V12.833C98.0302 11.3365 98.0302 10.0245 97.9892 8.5895H102.38ZM156.278 28.9255C155.047 30.955 152.749 32.9025 148.728 32.9025C143.209 32.9025 140.5 29.52 140.5 23.37V8.5895H145.055V21.648C145.055 26.3015 146.594 29.11 150.308 29.11C155.191 29.11 156.052 24.682 156.052 19.475V8.5895H160.628V28.741C160.628 29.971 160.628 31.1395 160.669 32.308H156.278V28.9255ZM170.907 8.5895H175.338V12.1155H170.907V26.363C170.907 28.618 172.035 29.2945 173.8 29.2945C174.169 29.2945 174.559 29.2535 174.928 29.2125V32.595C174.354 32.6975 173.759 32.759 173.164 32.7795C168.958 32.7795 166.29 31.3855 166.29 26.6295V12.1155H162.7V8.5895H166.27V2.173H170.907V8.5895ZM112.084 0H120.004C131.863 0.082 137.567 5.863 137.608 16.236C137.649 25.0715 133.073 32.226 120.784 32.3285H112.084V0ZM116.885 28.29H119.655C128.252 28.29 132.745 25.01 132.745 16.2155C132.724 8.487 128.272 4.059 120.107 4.059C118.527 4.059 116.885 4.1 116.885 4.1V28.29ZM38.9206 32.3285C38.777 31.3855 38.777 30.791 38.695 29.069C36.8895 31.652 34.489 32.7795 30.6933 32.7795C25.7077 32.7795 22.0967 30.34 22.0967 25.912C22.0967 20.8075 26.9797 19.1265 33.3195 18.2655C34.8993 18.04 36.6638 17.8555 38.2025 17.7325C38.2025 13.038 35.5969 11.6235 32.8681 11.6235C30.1394 11.6235 28.1492 13.5505 28.1492 16.031H23.7175C23.7175 11.2135 27.5132 7.995 32.9502 7.995C38.3872 7.995 42.6137 10.25 42.6137 18.942V23.5545C42.6137 27.4085 42.7984 30.1965 43.2087 32.3695H38.9206V32.3285ZM27.0208 25.8505C27.0208 28.0645 28.8263 29.4585 31.7192 29.4585C35.9662 29.4585 38.2436 26.8755 38.2436 22.263C38.2231 21.8325 38.2436 21.4225 38.2846 20.992C30.5497 21.7915 27.0208 22.55 27.0208 25.8505Z" fill="white" style="fill:white;fill-opacity:1;"/>
</g>
<defs>
<clipPath id="clip0_1_901">
<rect width="201" height="41" fill="white" style="fill:white;fill-opacity:1;"/>
</clipPath>
</defs>
</svg>
