<svg width="200" height="49" viewBox="0 0 200 49" fill="none" xmlns="http://www.w3.org/2000/svg">
<g clip-path="url(#clip0_1_904)">
<path d="M71.5902 23.9092V32.6219C71.5902 33.635 71.3805 34.6818 70.0529 34.6818C68.7252 34.6818 68.5156 33.6687 68.5156 32.6219V20.0595C68.5156 18.9788 68.6554 17.8307 70.0529 17.8307C71.4505 17.8307 71.5902 18.9451 71.5902 20.0257V20.3634V20.431L74.1058 18.8438C74.9094 18.3373 75.7828 17.8307 76.7961 17.8307H79.102C80.29 17.8307 81.0237 18.1347 81.967 18.9113C83.3649 20.0595 83.2944 21.3428 83.3649 22.9637L83.6788 32.3855C83.7141 33.4324 83.5395 34.6481 82.1764 34.6481C80.9189 34.6481 80.6743 33.635 80.6394 32.6219L80.3249 23.3689C80.2551 21.5116 80.1153 20.8025 78.2286 20.8025H77.1804C76.866 20.8025 76.5515 20.9037 76.2021 21.0726L71.5902 23.9092Z" fill="white" style="fill:white;fill-opacity:1;"/>
<path d="M96.9206 20.8698C96.0124 20.8698 94.7894 20.6672 94.7894 19.384C94.7894 18.1007 95.8722 17.8981 96.9206 17.8981H101.183C102.79 17.8981 103.943 18.067 105.201 19.2488C106.389 20.3971 106.563 21.3088 106.598 22.7947L106.913 32.9594C106.948 33.8374 106.494 34.7154 105.445 34.7154C104.642 34.7154 103.839 34.0739 103.873 33.2296L101.742 34.2765C100.868 34.7154 100.834 34.7154 99.8206 34.7154H96.8509C95.4534 34.7154 94.4747 34.5466 93.3214 33.6686C92.0288 32.6555 91.7148 31.5411 91.7148 29.9877V28.6706C91.7148 27.2185 92.064 26.3405 93.2165 25.3275C94.2648 24.4156 95.4878 24.213 96.8157 24.213H103.454V23.5376C103.454 21.2751 102.93 20.9036 100.694 20.9036H96.9206V20.8698ZM96.8853 27.151C96.0468 27.151 94.8239 27.3536 94.8239 28.468V30.4604C94.8239 31.4735 96.0821 31.6761 96.8157 31.6761H100.239L103.663 29.9539V29.3123C103.663 27.6576 103.175 27.151 101.462 27.151H96.8853Z" fill="white" style="fill:white;fill-opacity:1;"/>
<path d="M120.259 20.8698C119.63 20.8698 118.512 20.7348 118.512 21.7141C118.512 22.2206 118.897 22.3895 119.351 22.5921L127.107 26.0028C129.099 26.8808 130.147 28.0966 130.147 30.2578C130.147 33.2971 128.015 34.7154 125.046 34.7154H120.259C118.652 34.7154 117.534 34.6479 116.381 33.7699C115.787 33.3309 114.948 32.7568 114.948 32.0139C114.948 31.1696 115.682 30.528 116.556 30.528C117.045 30.528 117.394 30.6969 117.743 31.0683C118.302 31.6761 119.246 31.7099 120.224 31.7099H124.417C125.5 31.7099 127.002 31.8113 127.002 30.0552C127.002 29.346 126.094 28.8733 125.395 28.5694L118.093 25.3612C116.381 24.6183 115.368 23.639 115.368 21.7141C115.368 19.3502 117.289 17.8981 119.63 17.8981H124.906C126.618 17.8981 127.317 17.9994 128.505 18.9111C129.099 19.384 129.728 19.7554 129.728 20.5997C129.728 21.444 128.994 22.0855 128.156 22.0855C127.561 22.0855 127.212 21.8829 126.828 21.4777C126.304 20.9374 125.779 20.8698 124.906 20.8698H120.259Z" fill="white" style="fill:white;fill-opacity:1;"/>
<path d="M143.877 34.6815C142.584 34.6815 142.061 34.6815 141.117 33.871L139.789 32.7566C138.566 31.7097 138.217 31.0006 138.217 29.3796V23.605C138.217 22.0179 138.427 21.0722 139.72 20.0254L140.803 19.1136C142.271 17.8979 142.969 17.8641 144.227 17.8641H147.057C148.559 17.8641 149.293 18.033 150.48 18.9447L151.739 19.9241C153.171 21.0047 153.346 22.1867 153.346 23.8414V26.2391C153.346 27.9613 153.066 28.4679 151.215 28.4679H141.257V29.481C141.257 29.7511 141.466 30.1226 141.712 30.359L142.48 31.1694C142.899 31.6085 143.528 31.7436 144.541 31.7436H151.18C152.228 31.7436 153.311 31.9462 153.311 33.2294C153.311 34.5464 152.088 34.7153 151.18 34.7153H143.877V34.6815ZM141.292 25.4623H150.271V23.6388C150.271 23.0647 150.306 22.6257 149.887 22.2205L148.699 21.2073C148.315 20.8696 147.685 20.8359 147.231 20.8359H144.611C144.017 20.8359 143.563 20.8359 143.039 21.1736L141.991 21.9165C141.607 22.1867 141.362 22.4231 141.362 23.3011V25.4623H141.292Z" fill="white" style="fill:white;fill-opacity:1;"/>
<path d="M167.112 34.682C165.819 34.682 165.294 34.682 164.352 33.8715L163.024 32.7571C161.801 31.7102 161.452 31.0011 161.452 29.3801V23.6055C161.452 22.0183 161.661 21.0727 162.954 20.0259L164.037 19.1141C165.504 17.8984 166.203 17.8646 167.461 17.8646H170.291C171.793 17.8646 172.527 18.0335 173.715 18.9452L174.973 19.9246C176.405 21.0052 176.58 22.1872 176.58 23.8419V26.2395C176.58 27.9618 176.3 28.4684 174.448 28.4684H164.491V29.4815C164.491 29.7516 164.701 30.123 164.945 30.3595L165.714 31.1699C166.133 31.609 166.762 31.744 167.775 31.744H174.414C175.462 31.744 176.545 31.9467 176.545 33.2299C176.545 34.5469 175.322 34.7158 174.414 34.7158H167.112V34.682ZM164.526 25.4628H173.505V23.6393C173.505 23.0652 173.54 22.6262 173.121 22.221L171.933 21.2078C171.548 20.8701 170.92 20.8364 170.466 20.8364H167.845C167.251 20.8364 166.797 20.8364 166.273 21.1741L165.225 21.917C164.84 22.1872 164.596 22.4236 164.596 23.3016V25.4628H164.526Z" fill="white" style="fill:white;fill-opacity:1;"/>
<path d="M184.686 20.093C184.686 19.0123 184.826 17.8641 186.224 17.8641C187.447 17.8641 187.761 18.8772 187.761 19.8566V21.0722L190.172 19.1474C191.045 18.472 191.953 17.8641 192.932 17.8641H195.412C196.601 17.8641 197.614 18.2356 198.452 19.0461C199.501 20.0592 199.85 21.0722 199.85 22.4568C199.85 23.4699 199.64 24.5506 198.348 24.5506C197.229 24.5506 196.775 23.6725 196.775 22.6932C196.775 22.1867 196.775 21.8153 196.461 21.3762C196.076 20.8359 195.343 20.8359 194.574 20.8359H193.666C193.071 20.8359 192.652 21.1061 192.129 21.5451L187.796 25.0234V32.6215C187.796 33.6346 187.586 34.6815 186.259 34.6815C184.931 34.6815 184.721 33.6684 184.721 32.6215V20.093H184.686Z" fill="white" style="fill:white;fill-opacity:1;"/>
<path d="M46.4336 15.4328V4.11992H12.0189V6.21365H7.75635V0H50.6961V15.4328H46.4336Z" fill="#949494" style="fill:#949494;fill:color(display-p3 0.5816 0.5816 0.5816);fill-opacity:1;"/>
<path d="M33.3318 23.369L31.0258 21.5116C30.7463 21.2753 30.3969 20.9713 29.9777 20.9713H29.1741C28.7199 20.9713 28.1609 21.5454 27.8464 21.8493L25.9247 23.6054C25.2959 24.1794 25.0513 24.5509 25.0513 25.1926V28.1305C25.0513 28.5695 25.191 29.1098 25.5054 29.4138L27.8464 31.5751C28.3006 32.014 28.7897 32.4193 29.1741 32.4193H29.9777C30.3969 32.4193 30.7463 32.1491 31.0258 31.879L33.3318 30.0216C33.8209 29.6164 33.9607 29.2787 33.9607 28.7046V24.6522C33.9607 24.1119 33.8209 23.7742 33.3318 23.369Z" fill="white" style="fill:white;fill-opacity:1;"/>
<path d="M0 8.64514V49.0002H41.7518V8.64514H0ZM37.07 28.2655C37.07 30.4267 36.8953 31.2034 35.1134 32.588L33.2617 34.0063C32.6328 34.5129 31.6196 35.3571 30.7811 35.3571H28.6848C27.2872 35.3571 26.6583 34.4791 25.6451 33.6011L25.0511 33.027V38.8692C25.0511 39.8822 24.8415 40.9291 23.5138 40.9291C22.1861 40.9291 21.9765 39.916 21.9765 38.8692V20.1944C21.9765 19.1476 22.1162 17.9994 23.5138 17.9994C24.7716 17.9994 25.0511 18.9788 25.0511 19.9581V20.3295L25.6451 19.7892C26.4487 19.1138 27.6715 17.9994 28.545 17.9994H30.6762C31.4099 17.9994 32.4232 18.7423 33.2617 19.384L35.1134 20.7686C36.9302 22.1531 37.07 22.9636 37.07 25.0911V28.2655Z" fill="white" style="fill:white;fill-opacity:1;"/>
<path d="M50.6609 37.3494H44.2671V41.4693H50.6609V37.3494Z" fill="white" style="fill:white;fill-opacity:1;"/>
<path d="M50.4512 20.8698C49.5428 20.8698 48.3199 20.6672 48.3199 19.384C48.3199 18.1007 49.4031 17.8981 50.4512 17.8981H54.7137C56.3209 17.8981 57.4739 18.067 58.7317 19.2488C59.9196 20.3971 60.0943 21.3088 60.1292 22.7947L60.4437 32.9594C60.4786 33.8374 60.0245 34.7154 58.9763 34.7154C58.1727 34.7154 57.369 34.0739 57.404 33.2296L55.2727 34.2765C54.3993 34.7154 54.3644 34.7154 53.3861 34.7154H50.4163C49.0187 34.7154 48.0404 34.5466 46.8875 33.6686C45.5947 32.6555 45.2803 31.5411 45.2803 29.9877V28.6706C45.2803 27.2185 45.6296 26.3405 46.7827 25.3275C47.8308 24.4156 49.0536 24.213 50.3813 24.213H57.0197V23.5376C57.0197 21.2751 56.4956 20.9036 54.2595 20.9036H50.4512V20.8698ZM50.4163 27.151C49.5777 27.151 48.3549 27.3536 48.3549 28.468V30.4604C48.3549 31.4735 49.6127 31.6761 50.3464 31.6761H53.7704L57.1944 29.9539V29.3123C57.1944 27.6576 56.7053 27.151 54.9932 27.151H50.4163Z" fill="white" style="fill:white;fill-opacity:1;"/>
</g>
<defs>
<clipPath id="clip0_1_904">
<rect width="200" height="49" fill="white" style="fill:white;fill-opacity:1;"/>
</clipPath>
</defs>
</svg>
