<svg width="200" height="46" viewBox="0 0 200 46" fill="none" xmlns="http://www.w3.org/2000/svg">
<g clip-path="url(#clip0_1_916)">
<mask id="mask0_1_916" style="mask-type:luminance" maskUnits="userSpaceOnUse" x="0" y="0" width="200" height="46">
<path d="M0 0H200V45.6188H0V0Z" fill="white" style="fill:white;fill-opacity:1;"/>
</mask>
<g mask="url(#mask0_1_916)">
<path d="M2.84641 28.9806C1.96779 27.047 1.51405 24.9529 1.51483 22.835C1.51483 20.7121 1.96922 18.6151 2.84583 16.6894C2.80819 15.5453 2.88517 14.4004 3.07565 13.2711C1.25752 15.7993 0.200213 18.8106 0.0317923 21.9392C-0.138997 25.0584 0.586952 28.1618 2.12653 30.8942C2.41977 31.4097 2.74089 31.9093 3.08852 32.391C2.92223 31.4291 2.83773 30.4554 2.83589 29.4797V28.9801M22.3792 8.1093C22.23 8.0426 22.0809 7.97302 21.9295 7.90862L21.6616 7.79822C21.4485 7.71434 21.2341 7.63383 21.0183 7.55672L20.7803 7.47392C20.4934 7.37697 20.2028 7.29123 19.909 7.2169L19.74 7.1755C19.4969 7.11491 19.2528 7.05836 19.0078 7.00587L18.7248 6.94952C18.4957 6.90758 18.2658 6.86982 18.0353 6.83625L17.8031 6.8029C17.6868 6.78737 17.571 6.7799 17.4546 6.76667C17.0276 7.22675 16.632 7.71407 16.2704 8.22545C17.8423 8.27605 19.3955 8.58712 20.8686 9.14545C21.3547 8.77646 21.8605 8.43327 22.3838 8.11735M30.0634 24.7084C30.4993 24.1629 30.8919 23.5853 31.2376 22.9805C31.268 22.9236 31.2961 22.8672 31.3259 22.8132C30.9587 22.1508 30.5364 21.5194 30.0634 20.9255C30.225 22.1816 30.225 23.4522 30.0634 24.7084ZM27.9593 33.2322C27.6979 33.2456 27.4362 33.2525 27.1745 33.2529C26.7575 33.2529 26.3441 33.2322 25.9347 33.2011C25.4147 33.7258 24.8542 34.2101 24.2581 34.6496C24.7476 34.933 25.2534 35.186 25.7727 35.408C26.5717 34.7541 27.3036 34.0254 27.9593 33.2322ZM13.0353 38.6999C12.671 38.1193 12.3414 37.5184 12.0482 36.9001C10.2609 36.4002 8.59111 35.5593 7.13413 34.4253C7.49764 35.3777 7.96675 36.2879 8.53296 37.1393C9.94166 37.8833 11.4584 38.4097 13.03 38.6999M20.4523 36.6529C20.1844 36.7449 19.9166 36.8277 19.6464 36.9099L19.4066 36.9743C19.2078 37.026 19.0055 37.0743 18.8031 37.118L18.5505 37.1698C18.2803 37.2215 18.0102 37.2698 17.74 37.3061H17.7248C17.447 37.3423 17.1692 37.3676 16.8914 37.3883C16.8107 37.3883 16.7277 37.3883 16.6394 37.4038C16.5131 37.4038 16.3868 37.4193 16.2575 37.4216C16.6161 37.9344 17.0111 38.4217 17.4394 38.8798C19.1484 38.7018 20.8148 38.2429 22.3692 37.5223C21.845 37.2073 21.3391 36.8637 20.854 36.493C20.7148 36.5471 20.5762 36.6011 20.4347 36.65M27.202 12.3608C27.4546 12.3608 27.7072 12.3608 27.9447 12.3815C27.8616 12.2809 27.7833 12.1757 27.692 12.0779L27.6493 12.0319C27.4524 11.8073 27.2486 11.5885 27.0382 11.3759L26.8335 11.1746C26.664 11.0107 26.4926 10.8486 26.3283 10.6945C26.2629 10.6323 26.1956 10.5721 26.1265 10.5139C26.0102 10.4116 25.8891 10.3161 25.768 10.2184C25.2476 10.4438 24.7417 10.7014 24.2528 10.99C24.8465 11.4257 25.4062 11.9045 25.9271 12.4224C26.3482 12.3919 26.7727 12.3706 27.1897 12.3706M7.11893 11.2344C8.57741 10.0853 10.2553 9.23524 12.0534 8.73432C12.3527 8.11486 12.69 7.51384 13.0634 6.93457H13.0359C12.8388 6.97022 12.6417 7.00875 12.4447 7.05245L12.3435 7.07545C12.1242 7.1272 11.902 7.18355 11.6821 7.24507L11.5183 7.29107C11.316 7.35087 11.1166 7.4124 10.9166 7.4791L10.8411 7.5021C10.6242 7.57685 10.4043 7.65907 10.1873 7.74417L10.0277 7.80857C9.82068 7.8908 9.61366 7.9782 9.40957 8.0656L9.36863 8.084C9.15226 8.18175 8.93939 8.28697 8.7277 8.39737L8.57097 8.4796L8.54056 8.49512C8.35928 8.76767 8.18442 9.0431 8.03589 9.32887C7.68159 9.9403 7.37506 10.5773 7.11893 11.2344ZM34.5429 21.6247C34.8921 20.6443 35.1459 19.6335 35.3008 18.6059C34.8549 18.2575 34.3867 17.9377 33.899 17.6485C33.8255 18.3919 33.6955 19.1288 33.5102 19.8531C33.8885 20.4223 34.2335 21.0146 34.5429 21.6247ZM7.41659 23.8367C7.16045 24.4117 6.9429 25.0039 6.76746 25.6088C7.76202 27.0167 8.98352 28.2557 10.3838 29.2768C10.3885 28.6575 10.4277 28.0394 10.5002 27.4247C9.27869 26.4037 8.23642 25.1914 7.41659 23.8367ZM35.392 14.5596C35.2236 12.8329 34.7821 11.1425 34.0833 9.54967C33.4816 9.40081 32.8699 9.29416 32.2528 9.23054C32.9958 10.6467 33.5069 12.1692 33.7675 13.742C34.323 13.9846 34.8657 14.2572 35.392 14.5596ZM15.8306 30.241C15.5786 30.172 15.3259 30.0944 15.0733 30.0093L14.9797 29.9737C14.7429 29.8909 14.5078 29.8012 14.2727 29.7161L14.0207 29.6108C13.9318 29.5723 13.8411 29.539 13.7528 29.4976C13.7528 30.0703 13.7903 30.643 13.864 31.2111C14.8137 31.587 15.799 31.8693 16.8055 32.054C16.664 31.83 16.5277 31.6028 16.3967 31.3726C16.1908 31.0056 15.9979 30.6316 15.8183 30.2514M25.816 2.9757L26.0406 3.08667C26.2932 3.21777 26.5458 3.34369 26.7979 3.50067C27.8634 4.12664 28.8414 4.88648 29.7072 5.761C30.1121 5.72945 30.518 5.71315 30.9242 5.71212C31.1973 5.71212 31.4675 5.71212 31.74 5.73512C30.7143 4.49372 29.5008 3.41469 28.1417 2.53582C27.82 2.50927 27.4973 2.49565 27.1745 2.495C26.4871 2.49583 25.8008 2.54908 25.1218 2.65427L25.24 2.71062C25.4318 2.79342 25.6242 2.88312 25.816 2.96822" fill="white" style="fill:white;fill-opacity:1;"/>
<path d="M20.7802 0.0414547L20.5053 0.0259297C20.2782 0.0136791 20.0509 0.0060108 19.8235 0.00292969H19.3007C19.0732 0.00292969 18.8434 0.00292969 18.6165 0.0311047H18.596C18.3714 0.0466297 18.1492 0.0667547 17.927 0.0926297L17.7498 0.11333C17.5229 0.14208 17.2931 0.172555 17.0656 0.21108C16.8404 0.248455 16.6153 0.292155 16.3913 0.34218L16.217 0.380705C13.9393 0.890103 11.8077 1.89797 9.98078 3.3293C8.31856 4.63166 6.93403 6.24369 5.90651 8.07305C5.61524 8.59093 5.35153 9.12333 5.11645 9.6681C4.83665 10.3125 4.5995 10.974 4.40651 11.6484C4.40651 11.6898 4.3837 11.7335 4.37376 11.7772C4.10553 12.739 3.9272 13.7229 3.84101 14.7166L3.82581 14.8713C3.7761 15.5325 3.76733 16.1967 3.79832 16.8591C3.85095 18.0309 4.02639 19.193 4.32347 20.3263C4.43926 20.7656 4.5761 21.1951 4.72464 21.612C5.03456 21.0015 5.38117 20.4098 5.76265 19.8399C5.29194 18.0167 5.17116 16.1233 5.40651 14.2566C5.48609 13.6394 5.60524 13.0277 5.76323 12.4252C6.0862 11.1715 6.57414 9.96454 7.2147 8.83493C7.42873 8.45543 7.65739 8.09203 7.90183 7.74415C9.82756 4.9324 12.6703 2.9061 15.9241 2.02693C16.2024 1.95218 16.4796 1.88778 16.7603 1.82855L17.0129 1.77968C17.22 1.73885 17.4293 1.70493 17.6363 1.67445L17.889 1.63823C18.0556 1.6181 18.2223 1.5997 18.3942 1.58648C19.3428 0.987534 20.3512 0.485444 21.4036 0.0880297C21.2048 0.0667547 21.0053 0.0437547 20.8059 0.0288047M12.634 20.9203C12.8415 20.5556 13.0631 20.1988 13.2983 19.8508C13.1118 19.1309 12.9809 18.3982 12.9065 17.6589C12.42 17.9464 11.9515 18.2649 11.5053 18.6134C11.6612 19.6366 11.9147 20.6431 12.2627 21.6195C12.3837 21.386 12.5153 21.1514 12.6387 20.9203M31.8281 23.8212C31.765 23.9247 31.7071 24.027 31.6439 24.1276C31.6211 24.161 31.5983 24.1915 31.5784 24.2254L31.4322 24.441C31.3086 24.6249 31.1804 24.8059 31.048 24.9838L30.896 25.1868C30.7185 25.4176 30.5342 25.6433 30.3434 25.8636L30.3053 25.9021C30.127 26.1062 29.9417 26.3043 29.7498 26.4961L29.7124 26.5398L29.5685 26.6789C29.4141 26.8284 29.2574 26.9745 29.0983 27.1159L28.9194 27.2781C28.7299 27.4402 28.5381 27.6001 28.3434 27.7513L28.2626 27.8128L28.1866 27.8697C27.9849 28.0215 27.7802 28.1682 27.5732 28.3067L27.3586 28.4482C27.1829 28.563 27.0045 28.6736 26.8235 28.78L26.6235 28.8984C26.3714 29.0347 26.1363 29.1554 25.8866 29.2894L25.7726 29.3435C25.5574 29.4464 25.3398 29.5441 25.1211 29.6367H25.1036C25.788 29.7463 26.4803 29.8013 27.1738 29.8012H27.3638C27.6165 29.8012 27.8685 29.7856 28.1211 29.7678C28.2878 29.6568 28.4545 29.5436 28.6264 29.4286C29.5071 28.8105 30.3211 28.1053 31.0556 27.3241C31.5311 26.8181 31.9738 26.281 32.3814 25.7169C32.3989 25.6192 32.4118 25.5214 32.427 25.4214C32.26 24.8754 32.0584 24.3401 31.8235 23.8189M41.0527 19.8479C41.4328 20.4212 41.7779 21.0175 42.0884 21.6327C42.634 20.0935 42.9446 18.4832 43.01 16.8545C42.8714 16.5612 42.7246 16.268 42.5609 15.9822C42.2178 15.3798 41.8277 14.8044 41.3942 14.2612C41.6417 16.1279 41.5255 18.0238 41.0527 19.8479ZM36.2907 27.4218C36.3626 28.0333 36.403 28.648 36.4118 29.2635C37.8074 28.2391 39.0267 27.0009 40.0229 25.5962C39.8472 24.9918 39.6303 24.3998 39.3738 23.824C38.5521 25.1811 37.5107 26.3973 36.2907 27.4247" fill="white" style="fill:white;fill-opacity:1;"/>
<path d="M30.9672 30.2382C30.1353 30.471 29.2831 30.6269 28.4216 30.7039C28.245 30.7194 28.0678 30.735 27.8889 30.7424C27.6515 30.7424 27.414 30.7603 27.1743 30.7603H26.4017C25.3818 30.7041 24.3713 30.5369 23.3889 30.2617L23.2953 30.287L23.3836 30.2589C21.5813 29.7579 19.9004 28.904 18.4421 27.7484C18.6906 28.4091 18.9906 29.0479 19.3386 29.6597C19.3684 29.7138 19.4017 29.7649 19.4345 29.819C19.5655 30.0455 19.7047 30.2692 19.8485 30.4854C20.0199 30.5774 20.1941 30.6677 20.369 30.7424C21.3296 31.2082 22.3365 31.5753 23.3737 31.8378C24.0382 32.0043 24.7131 32.1272 25.3941 32.2058L25.5684 32.2265C25.9646 32.2661 26.3621 32.2901 26.7602 32.2984H27.1696C27.6947 32.2984 28.2123 32.2702 28.7222 32.2213C29.141 32.1772 29.5579 32.1172 29.9719 32.0414C30.9799 31.8577 31.9665 31.5741 32.9164 31.195C32.9889 30.6315 33.0263 30.0634 33.0275 29.4953C32.3605 29.801 31.6698 30.0538 30.962 30.2514M27.1743 0.00524902C26.5912 0.00524902 26.0088 0.038024 25.4292 0.102999C24.7481 0.179496 24.073 0.301487 23.4088 0.468124C22.3711 0.72941 21.3634 1.09492 20.4017 1.5589C19.8104 1.84456 19.2385 2.16742 18.6895 2.52547C16.9712 3.64316 15.4857 5.07309 14.3129 6.7385C13.926 7.28353 13.5735 7.85135 13.2573 8.43877C13.0669 8.79632 12.8902 9.16074 12.7275 9.53127C12.0157 11.1339 11.5665 12.8373 11.3965 14.578C11.9248 14.2748 12.4695 13.9999 13.0281 13.7546C13.2829 12.1781 13.7943 10.6523 14.5427 9.23572C14.7275 8.89072 14.924 8.55952 15.1316 8.23292C15.4741 7.69492 15.8519 7.1794 16.2626 6.68962C16.5263 6.37563 16.8026 6.07199 17.0906 5.7794C18.845 4.0084 21.0205 2.73075 23.4041 2.07065C24.3833 1.798 25.3902 1.63312 26.4064 1.57902C27.0799 1.53871 27.7555 1.5516 28.4269 1.61755C30.5171 1.80875 32.5368 2.46002 34.3363 3.5231C36.1576 4.60034 37.7166 6.05709 38.9035 7.79075C39.8923 8.33532 40.8229 8.97621 41.6813 9.70377C40.4444 6.82877 38.4123 4.38215 35.8333 2.6629C33.2538 0.943649 30.2392 0.026524 27.1567 0.023649M37.3661 35.876L37.1386 35.9864C36.9497 36.079 36.7579 36.1693 36.5655 36.244C36.4871 36.2774 36.4117 36.313 36.3333 36.3441C36.0807 36.4522 35.8129 36.5551 35.5503 36.6448C35.2854 36.7374 35.0205 36.8173 34.7526 36.9024C34.4518 37.5211 34.1146 38.1221 33.7427 38.7022C35.3283 38.4092 36.8576 37.8739 38.2748 37.1157C38.4544 36.8587 38.624 36.5752 38.7801 36.2929C39.1257 35.6823 39.4239 35.0468 39.6719 34.392C39.1776 34.7813 38.6569 35.1371 38.1134 35.4569C37.8645 35.6009 37.612 35.7389 37.3561 35.8709" fill="white" style="fill:white;fill-opacity:1;"/>
<path d="M30.0505 37.3963H30.0353C29.7546 37.3756 29.4739 37.3475 29.1944 37.3112L28.9423 37.275C28.7337 37.2439 28.5256 37.2088 28.3183 37.1698L28.0657 37.1209C27.7852 37.0621 27.5064 36.996 27.2295 36.9225C26.7827 36.8001 26.342 36.657 25.909 36.4936C25.5666 36.3618 25.2297 36.2168 24.899 36.0589C24.3772 35.8148 23.8714 35.539 23.3844 35.2332C23.0923 35.0484 22.8075 34.8528 22.5306 34.6467C21.9347 34.208 21.3749 33.7239 20.8564 33.1988C20.5647 32.9052 20.2867 32.5988 20.023 32.2806C19.736 31.932 19.4629 31.5725 19.2043 31.203C19.0987 31.0493 18.9953 30.894 18.8944 30.7373C18.7651 30.5338 18.6413 30.3272 18.523 30.1174C18.4499 29.9915 18.3868 29.8604 18.3183 29.7368C18.2499 29.6131 18.2072 29.5309 18.1546 29.4257C16.8414 26.7812 16.3471 23.8156 16.733 20.8973C16.2978 21.4499 15.9051 22.0336 15.5581 22.6436C15.5254 22.6999 15.4979 22.7568 15.4675 22.8103C15.3412 23.042 15.2148 23.2738 15.1113 23.5101C15.1113 23.7056 15.1289 23.9034 15.1441 24.1018V24.1351C15.2265 25.1718 15.4084 26.1976 15.6868 27.1981C15.6868 27.2315 15.7043 27.2677 15.7148 27.3016C15.9055 27.9744 16.14 28.6351 16.4166 29.2762L16.4751 29.4228C16.6388 29.7908 16.8207 30.1559 17.0154 30.5188C17.0809 30.6424 17.1441 30.7758 17.2125 30.8868C17.4706 31.3453 17.7521 31.7907 18.0558 32.2213C18.3084 32.5709 18.561 32.9056 18.8312 33.2322C19.4854 34.0274 20.218 34.757 21.0183 35.4103C21.2955 35.6368 21.5786 35.8582 21.8686 36.0641L22.0306 35.9893C21.978 36.0152 21.9271 36.0434 21.8739 36.0664C22.3599 36.4097 22.8659 36.7249 23.3891 37.0105C23.7259 37.1939 24.0628 37.3653 24.399 37.5246C25.186 37.886 26.002 38.1828 26.8388 38.4118C27.6534 38.636 28.4844 38.7924 29.3236 38.8798C29.7535 38.4212 30.1507 37.9339 30.5125 37.4216C30.3564 37.4216 30.1996 37.4216 30.0429 37.4015M44.6792 14.7373C44.5154 14.4469 44.3412 14.1635 44.1593 13.8886C44.1072 13.807 44.0534 13.7265 43.9979 13.6471C43.9066 13.5131 43.8131 13.3895 43.7201 13.2532L43.5762 13.0503C43.5201 12.9755 43.4651 12.8985 43.4066 12.826C43.2136 12.5692 43.0107 12.3197 42.7985 12.0779L42.7528 12.0319C42.638 11.9013 42.519 11.7741 42.3961 11.6507C42.3131 11.5587 42.23 11.4656 42.1447 11.3782C42.0779 11.3098 42.0105 11.2421 41.9423 11.1752C41.7727 11.0107 41.6014 10.8509 41.4371 10.6939L41.2347 10.5139C40.9998 10.3092 40.7582 10.112 40.5102 9.92283L40.4195 9.85325C40.2704 9.74285 40.1189 9.63993 39.9698 9.53413L39.7499 9.37485L39.4979 9.21788C39.3055 9.09138 39.109 8.96085 38.9119 8.85563L38.6844 8.72165C38.5534 8.6469 38.4166 8.5779 38.2833 8.50833C38.1488 8.43875 38.0125 8.35883 37.8762 8.29213L37.74 8.22773C37.5065 8.11511 37.2699 8.0087 37.0306 7.9086L36.7628 7.7982C36.5505 7.7131 36.3359 7.63375 36.1189 7.5567L35.8815 7.4739C35.5946 7.37697 35.3039 7.29123 35.0102 7.21688L34.8406 7.17548C34.5891 7.11395 34.3564 7.0576 34.109 7.00585L33.8259 6.9495H33.7604C33.5539 6.91125 33.3467 6.87675 33.1388 6.846L32.9043 6.81323C32.7757 6.7954 32.6517 6.78735 32.5154 6.7747C32.3412 6.7563 32.1692 6.7333 31.995 6.72295H31.8055C31.5581 6.71145 31.3107 6.7034 31.0628 6.69995H30.4827C30.2605 6.69995 30.0382 6.71778 29.816 6.7333H29.6593L29.3564 6.76435C29.2628 6.76435 29.1669 6.77988 29.0733 6.79253H28.9546C28.7324 6.82128 28.5102 6.85405 28.2903 6.89258L28.1265 6.92363C27.9295 6.95985 27.7324 6.99838 27.5359 7.04208L27.4347 7.06508C27.2143 7.11683 26.9944 7.17318 26.7757 7.2347L26.609 7.2807C26.4096 7.3405 26.2072 7.40203 26.0078 7.46873L25.9347 7.49173C25.7148 7.56648 25.4979 7.64928 25.2803 7.7338L25.1189 7.7982C24.9119 7.88043 24.7049 7.96783 24.5002 8.05523L24.4593 8.07305L24.399 8.1041C24.2049 8.19438 24.0102 8.28695 23.8183 8.387L23.6616 8.46923L23.4096 8.61298C23.2879 8.68313 23.1569 8.74983 23.0429 8.8217C22.6529 9.05264 22.273 9.29973 21.9043 9.5623C21.609 9.77333 21.316 9.98953 21.0382 10.2184C20.2426 10.8688 19.5134 11.5941 18.861 12.3838C19.1137 12.3712 19.3815 12.3631 19.6447 12.3631C20.0634 12.3631 20.4751 12.3838 20.8844 12.4149C21.4017 11.8944 21.9589 11.4138 22.5511 10.9774C22.8283 10.7715 23.1183 10.5783 23.4143 10.3909C23.5429 10.311 23.6669 10.2287 23.7985 10.154C24.0505 10.0022 24.3031 9.86648 24.5558 9.7348C24.6341 9.6934 24.7148 9.65775 24.7932 9.61923L24.9143 9.5623C25.0605 9.4933 25.2125 9.42603 25.361 9.3622L25.6137 9.2564C25.7172 9.2127 25.8183 9.17418 25.9195 9.13565C26.0201 9.09713 26.1721 9.03503 26.3131 8.98903L26.4143 8.9528C26.6821 8.8631 26.9499 8.7803 27.2201 8.69578L27.4575 8.63655C27.654 8.5848 27.854 8.5388 28.0534 8.49798C28.1412 8.47958 28.2277 8.45888 28.3055 8.44393C28.5277 8.40253 28.7499 8.364 28.9698 8.33295L29.1318 8.30995C29.4043 8.27373 29.6768 8.24843 29.9523 8.23003L30.1721 8.21738L30.533 8.19955H31.0482C31.2552 8.19955 31.4599 8.19955 31.6669 8.22025H31.8891C32.164 8.24038 32.4394 8.26625 32.7148 8.30248L32.9195 8.33295C33.1312 8.3617 33.3406 8.39735 33.5511 8.43645L33.8031 8.48475C34.0306 8.53075 34.2552 8.58538 34.4797 8.64403L34.6189 8.67795L34.7452 8.7136C34.9698 8.7757 35.192 8.8447 35.4143 8.91715L35.6137 8.98903C35.816 9.05803 36.0154 9.13278 36.2148 9.2127L36.4423 9.30815C36.6669 9.40015 36.8891 9.50078 37.109 9.606C37.1417 9.6244 37.1768 9.63705 37.2096 9.652C37.4622 9.7762 37.7148 9.9096 37.9523 10.0488L38.1394 10.1592C38.3259 10.2673 38.5078 10.3805 38.6891 10.4984L38.8938 10.6353C39.1061 10.7767 39.316 10.9256 39.5207 11.0826L39.5862 11.1286L39.6721 11.1982C39.8686 11.35 40.0581 11.507 40.2476 11.6691L40.4195 11.8232C40.5809 11.9698 40.74 12.1165 40.8944 12.2683L41.0482 12.4178L41.0733 12.4459C41.2651 12.6414 41.4523 12.8392 41.6341 13.0451L41.6669 13.0807C41.8587 13.2992 42.0429 13.5287 42.2224 13.7598C42.2727 13.8242 42.3207 13.8938 42.3716 13.9611C42.5026 14.1382 42.6236 14.3176 42.7552 14.5033L42.9014 14.7195C42.9271 14.758 42.9499 14.7988 42.9721 14.8374V14.8351C43.342 15.4142 43.6693 16.0185 43.9517 16.6434C44.8338 18.5796 45.2894 20.6773 45.2885 22.7988C45.2885 24.9257 44.8324 27.0268 43.9523 28.9548C43.9885 30.0953 43.9123 31.2367 43.7248 32.3628C45.5464 29.8351 46.6066 26.8221 46.7768 23.6912C46.949 20.5699 46.223 17.464 44.6821 14.7298" fill="white" style="fill:white;fill-opacity:1;"/>
<path d="M21.0103 42.6559L20.7729 42.5426C20.5209 42.4086 20.2682 42.2723 20.0027 42.1228C17.6793 40.7522 15.7898 38.7725 14.546 36.4056C14.0235 35.4013 13.6161 34.3429 13.3314 33.25C13.2127 32.7959 13.1149 32.3368 13.0384 31.874C12.9792 31.5063 12.9337 31.1365 12.9022 30.7654C12.8474 30.1833 12.8279 29.5984 12.8437 29.014C12.8437 28.6667 12.8817 28.3194 12.9168 27.9727C12.9899 27.2292 13.1215 26.4926 13.3109 25.7704C13.4156 25.3714 13.5349 24.9763 13.6694 24.5853C13.8215 24.1581 13.9875 23.7389 14.1747 23.3249C14.2554 23.1524 14.3337 22.9799 14.4273 22.8103C14.5355 22.5976 14.6519 22.3837 14.7706 22.1726C14.8413 22.049 14.9168 21.9283 14.9905 21.8075C15.0636 21.6868 15.1115 21.6017 15.1747 21.5039C16.7443 19.0262 19.0226 17.0988 21.7027 15.9822C21.022 15.8747 20.3337 15.8205 19.6443 15.82H19.4571C19.1899 15.82 18.925 15.8379 18.6618 15.8563C18.508 15.9563 18.3542 16.0569 18.2051 16.1622C17.7666 16.4701 17.345 16.8006 16.9419 17.1523C16.0013 17.9649 15.1612 18.8836 14.439 19.8893L14.3437 20.0198C14.1094 20.3537 13.8896 20.6971 13.6846 21.0491C13.6144 21.167 13.5384 21.2854 13.47 21.4062C12.9998 22.2369 12.6036 23.1061 12.2858 24.004C11.937 24.9847 11.6832 25.9957 11.5279 27.0233C11.3817 27.9782 11.3226 28.944 11.3513 29.9093C11.3513 30.2922 11.3864 30.6809 11.4244 31.0616C11.6318 33.1977 12.2569 35.2743 13.2653 37.1773C13.5793 37.7683 13.9302 38.3396 14.3162 38.8879C14.5688 39.2352 14.8209 39.5744 15.0864 39.901C16.1147 41.1371 17.328 42.2125 18.6846 43.0906C19.0071 43.1169 19.3306 43.1306 19.6542 43.1314C20.3425 43.1314 21.0296 43.0768 21.7098 42.9692L21.6115 42.9255C21.4197 42.841 21.2279 42.753 21.0384 42.6685M43.0057 28.7777C42.9346 27.151 42.6242 25.5431 42.084 24.004C41.9407 23.6022 41.7823 23.2058 41.6092 22.8155C41.3403 22.2046 41.0341 21.6103 40.6922 21.0359C40.4852 20.6909 40.263 20.3574 40.0308 20.0279C39.0354 18.6131 37.8112 17.3681 36.4068 16.3421C36.1019 16.1214 35.7887 15.9122 35.4677 15.7148C35.3466 15.6378 35.2279 15.5578 35.1016 15.486C34.8277 15.3257 34.5488 15.1738 34.2653 15.0306L34.0133 14.9069L33.9022 14.8552C33.7279 14.7735 33.556 14.6907 33.3793 14.6137L33.1267 14.5033L32.922 14.4234C32.7058 14.3355 32.4886 14.2498 32.2706 14.1663H32.253C31.9613 14.0668 31.6667 13.9759 31.3694 13.8938L31.0963 13.8219C30.8782 13.7635 30.6584 13.7112 30.4372 13.6649L30.1624 13.6057C30.1016 13.5931 30.0408 13.585 29.9805 13.5747C29.7481 13.53 29.5147 13.4905 29.2805 13.4562H29.2501C29.0788 13.4332 28.9068 13.4229 28.7454 13.405C28.6139 13.405 28.4928 13.374 28.3536 13.3636L28.0788 13.3487C27.8513 13.3487 27.6244 13.328 27.3946 13.3257H26.7758C26.5788 13.3257 26.384 13.3383 26.1875 13.351H26.1671C25.9729 13.3636 25.7753 13.3843 25.5811 13.405H25.4448C25.5255 13.4338 25.6016 13.4694 25.6823 13.5005C26.3413 13.7569 26.9834 14.0582 27.6039 14.4004C27.8916 14.5573 28.1747 14.7247 28.4501 14.8995C28.9022 14.9403 29.3513 14.9995 29.7987 15.0846C30.1975 15.1594 30.594 15.2491 30.9875 15.3595C31.6951 15.5624 32.3852 15.82 33.0536 16.1311C33.3665 16.2749 33.677 16.4324 33.9829 16.5992C34.1115 16.6687 34.2355 16.7354 34.3688 16.8102C35.0553 17.2155 35.7066 17.6757 36.3162 18.1862C37.5385 19.212 38.5811 20.4285 39.4022 21.7868C39.601 22.1197 39.7858 22.4584 39.9577 22.8028C40.2484 23.3778 40.5016 23.9712 40.715 24.5796C40.8513 24.9706 40.9677 25.3645 41.0764 25.7658C41.546 27.5937 41.6642 29.4917 41.425 31.3623C41.3478 31.9751 41.2306 32.5824 41.0741 33.1804C41.0741 33.2144 41.056 33.2477 41.046 33.2811C40.8336 34.0831 40.5523 34.866 40.2051 35.6213C40.1367 35.776 40.0688 35.9272 39.9928 36.079C39.8764 36.3107 39.7554 36.5373 39.6291 36.7633C39.4787 37.0245 39.3213 37.2818 39.1571 37.5349C39.1092 37.6097 39.0612 37.6787 39.0109 37.7534L38.9396 37.8592C38.839 38.0058 38.7326 38.1525 38.6267 38.2939L38.4776 38.4969C38.2995 38.7272 38.115 38.9527 37.9244 39.1731L37.887 39.2116C37.7074 39.4175 37.5209 39.6158 37.3314 39.8085L37.1495 39.9884C36.9963 40.1379 36.8396 40.2846 36.6799 40.4283L36.5004 40.5882C36.2858 40.7733 36.0688 40.9533 35.8437 41.1252L35.7653 41.1821C35.5665 41.3339 35.3618 41.4777 35.1519 41.6191L34.9396 41.7583C34.763 41.8733 34.584 41.9843 34.4016 42.0924L34.2051 42.2079C33.9525 42.3442 33.7174 42.4782 33.4677 42.5989L33.3542 42.653C33.1384 42.7565 32.9215 42.8542 32.7027 42.9462L32.4653 43.0417C32.2706 43.121 32.0735 43.1958 31.8764 43.2654L31.6671 43.3372C31.4144 43.4246 31.1419 43.504 30.8741 43.5764L30.7302 43.6127C30.508 43.6719 30.2834 43.7231 30.0583 43.7696L29.8063 43.8185C29.5963 43.857 29.387 43.8933 29.177 43.9209L28.97 43.9519C28.8033 43.9726 28.639 43.9904 28.4653 44.006C27.5148 44.6061 26.5045 45.1093 25.4501 45.5079C25.6846 45.5366 25.922 45.5567 26.1595 45.5746H26.3641C26.4653 45.5746 26.5636 45.5878 26.6647 45.5901H27.1694C30.6063 45.5981 33.9525 44.4671 36.7027 42.3684C39.453 40.2696 41.4589 37.3164 42.4168 33.955C42.9005 32.2645 43.106 30.5089 43.0255 28.7547" fill="white" style="fill:white;fill-opacity:1;"/>
<path d="M35.4194 28.0957C35.3884 27.732 35.347 27.3692 35.2954 27.0078C35.077 25.5627 34.6626 24.1529 34.0633 22.816C33.7911 22.2058 33.4815 21.6122 33.1364 21.0387C32.9297 20.6962 32.7098 20.3615 32.4773 20.0354L32.3966 19.9198C31.3584 18.4862 30.0891 17.229 28.6387 16.1978C28.465 16.0747 28.2878 15.9563 28.1089 15.8407C27.5637 15.4854 26.9959 15.1648 26.4089 14.881C24.8312 14.1159 23.1313 13.6236 21.3837 13.4257L21.2399 13.4073C20.842 13.3678 20.4426 13.3438 20.0428 13.3354H19.6311C19.1089 13.3354 18.5908 13.3642 18.0814 13.4125C17.6568 13.4562 17.2399 13.5183 16.8183 13.5953C15.812 13.7778 14.8272 14.0604 13.8791 14.4389C13.5448 14.5706 13.2153 14.7138 12.8914 14.8684C12.3574 15.1254 11.837 15.4123 11.3335 15.7274C11.0101 15.9304 10.6972 16.1472 10.3919 16.3703C8.99233 17.3924 7.76791 18.628 6.76503 20.0302C6.14397 20.9051 5.61198 21.8381 5.17673 22.8155C5.00539 23.2042 4.8434 23.6003 4.69954 24.004C4.1571 25.5388 3.84735 27.1438 3.78024 28.7673C3.78024 28.9984 3.7627 29.233 3.7627 29.4688C3.7627 29.9115 3.7855 30.3462 3.82117 30.7786C3.84632 31.0972 3.88141 31.4163 3.92644 31.7303C4.12355 33.1892 4.52134 34.615 5.10889 35.9686C6.34866 38.8355 8.38024 41.2735 10.9557 42.9865C13.5317 44.6988 16.5405 45.6125 19.6165 45.6159C20.8885 45.6138 22.1555 45.4583 23.389 45.1531C25.0764 44.7311 26.679 44.0312 28.1288 43.0831C29.4772 42.2039 30.6837 41.1304 31.7077 39.8987C31.9797 39.5727 32.2399 39.234 32.4873 38.8827C32.8733 38.3386 33.2251 37.7718 33.5405 37.1853C33.7323 36.8299 33.9066 36.4648 34.0709 36.0922C34.7796 34.493 35.2253 32.7932 35.3913 31.0564C35.4294 30.678 35.4469 30.2847 35.4574 29.9121C35.4574 29.7649 35.4697 29.6212 35.4697 29.4745C35.4697 29.0117 35.4446 28.5563 35.4095 28.1009L35.4194 28.0957ZM33.8943 30.7706C33.8621 31.1417 33.8157 31.5115 33.7551 31.8792C33.5029 33.4596 32.9913 34.9893 32.2405 36.4085C31.7555 37.3128 31.1766 38.1653 30.513 38.9523C30.2525 39.2692 29.9751 39.5722 29.682 39.8602C28.381 41.1703 26.8329 42.2185 25.1241 42.9462C24.5592 43.1837 23.9808 43.3855 23.3914 43.5505C22.1648 43.8926 20.8961 44.0668 19.6212 44.068C19.1972 44.068 18.7756 44.0445 18.3586 44.0059C16.2751 43.8157 14.2615 43.1682 12.4662 42.1113C10.6492 41.0402 9.09216 39.5915 7.90422 37.8667C7.51472 37.3042 7.1646 36.7164 6.85626 36.1072C6.38791 35.175 6.01889 34.1976 5.75509 33.1908C5.60324 32.5938 5.48783 31.9884 5.40948 31.3778C5.16535 29.5083 5.28261 27.6103 5.75509 25.7836C6.01725 24.7585 6.39155 23.7642 6.87147 22.8183C7.04574 22.4733 7.22995 22.1341 7.42936 21.8052C8.25317 20.4479 9.29626 19.2316 10.5177 18.204C10.8007 17.9676 11.0937 17.744 11.3913 17.5306C11.8592 17.1931 12.3469 16.8843 12.851 16.6072C13.1537 16.441 13.4629 16.2866 13.7779 16.1443C14.8147 15.6672 15.9082 15.3197 17.0329 15.1099C17.4675 15.0289 17.9058 14.9681 18.3463 14.9276C18.5381 14.9098 18.7276 14.8943 18.9218 14.8839C19.1568 14.8839 19.3966 14.8655 19.634 14.8655H20.389C20.6416 14.8655 20.9066 14.8994 21.1645 14.9276C21.9252 15.0159 22.6775 15.164 23.4142 15.3704C26.4726 16.2174 29.1662 18.0775 31.0709 20.6581C31.3473 21.0257 31.606 21.4058 31.8463 21.7971C32.0452 22.1266 32.2299 22.4636 32.4042 22.8103C32.6939 23.3787 32.9421 23.9667 33.1469 24.5698C33.2832 24.9608 33.3989 25.3593 33.5101 25.7658C33.6949 26.4846 33.8259 27.2159 33.9019 27.9542C33.937 28.3044 33.9545 28.6563 33.965 29.014V29.4613C33.965 29.8983 33.9416 30.3307 33.9042 30.7476M64.3434 25.4058H61.1112V30.1151H64.3434V25.4058ZM64.3434 22.3555V15.5038H61.1112V24.6698H64.3434V22.3555ZM65.8387 15.5009H65.0656V18.5875H65.7978C66.2884 18.5875 66.7586 18.7859 67.1054 19.1389C67.4516 19.492 67.6463 19.9709 67.6463 20.47C67.6463 20.9691 67.4516 21.4481 67.1054 21.8012C66.9364 21.9749 66.7335 22.1134 66.5088 22.2082C66.2841 22.3031 66.0423 22.3524 65.7978 22.3532H65.0656V25.4185H65.8387C66.4887 25.4332 67.1347 25.3157 67.7364 25.0735C68.3435 24.8288 68.8939 24.4657 69.3545 24.0063C69.8209 23.5404 70.1895 22.9889 70.4393 22.3831C70.9483 21.1489 70.9483 19.7682 70.4393 18.534C70.1895 17.9282 69.8209 17.3767 69.3545 16.9108C68.8939 16.4512 68.3435 16.0879 67.7364 15.843C67.1347 15.6008 66.4887 15.4833 65.8387 15.498M79.3966 18.5076C80.9726 18.5076 82.0428 19.619 82.0428 21.3883V22.1134H85.2756V21.4292C85.2756 17.767 82.8311 15.3365 79.3966 15.3365C77.939 15.3036 76.5223 15.8124 75.4294 16.7613L77.7019 19.0762C78.1794 18.6935 78.7807 18.4918 79.3966 18.5076ZM76.7475 22.7258V21.3883C76.7304 20.7682 76.8933 20.1561 77.2171 19.6236L74.9218 17.2834C73.968 18.4577 73.4695 19.927 73.5153 21.4292V30.1151H76.7475V22.7258ZM77.4726 25.4208H82.0428V30.1151H85.2756V22.8488H77.4726V25.4208ZM104.7 30.1151H107.935V22.3089L104.7 19.0038V30.1151ZM101.265 15.5038V18.7548H104.457L101.278 15.5038H101.265ZM111.389 18.7548V15.5009H102.295L107.935 21.2676V18.7548H111.389ZM119.028 21.2032C117.715 20.6063 117.088 20.1946 117.088 19.4333C117.088 18.7749 117.654 18.4253 118.2 18.4253C118.866 18.4253 119.311 18.6105 120.038 19.5161L122.22 17.1701C121.008 15.7274 119.795 15.3365 118.2 15.3365C115.927 15.3365 113.833 17.0057 113.833 19.557C113.833 21.4194 114.891 22.9673 116.824 23.9678L119.391 21.3705L119.028 21.2032ZM120.096 21.6994L117.521 24.2972L117.998 24.5158C119.209 25.0712 119.674 25.4829 119.674 26.1436C119.674 26.8048 119.25 27.1929 118.301 27.1929C117.311 27.1929 116.28 26.3908 115.652 25.38L113.207 27.4195C114.197 29.3124 116.058 30.2795 118.361 30.2795C121.028 30.2795 122.927 28.5718 122.927 25.9383C122.927 24.0247 121.891 22.6125 120.096 21.6994ZM88.9469 15.5038V20.7736L94.1212 15.5038H88.9469ZM92.22 24.1863L96.6644 30.1145H100.525L95.8563 23.9189C96.7419 23.5771 97.4874 22.9563 97.9761 22.1536C98.4747 21.338 98.6955 20.3872 98.6066 19.4396C98.5209 18.4953 98.1287 17.6031 97.4878 16.8947C96.8595 16.1991 96.0119 15.7309 95.0808 15.5653L92.1919 18.5076H93.9978C94.1908 18.5007 94.3832 18.5329 94.5639 18.603C94.7446 18.6732 94.9095 18.7795 95.0492 18.9158C95.332 19.1958 95.4913 19.5741 95.4925 19.9686C95.4913 20.1641 95.451 20.3579 95.3744 20.5373C95.2981 20.7156 95.1866 20.8773 95.0463 21.0128C94.9077 21.1467 94.7427 21.2511 94.5615 21.3199C94.382 21.3879 94.1899 21.4183 93.9978 21.409H92.1796V18.5208L88.9469 21.8127V25.771L92.1796 29.0755V24.1891L92.22 24.1863ZM88.9469 30.1151H92.1767L88.9469 26.8123V30.1151ZM129.291 15.5038H126.056V20.8455L129.291 17.5715V15.5038ZM126.058 21.8822V30.1151H129.291V18.6082L126.058 21.8822ZM163.631 18.5076C165.955 18.5076 167.712 20.4626 167.712 22.808C167.719 23.7901 167.399 24.7474 166.801 25.5341L169.05 27.8341C170.371 26.4265 171.1 24.5491 171.079 22.6021C171.059 20.6558 170.293 18.7939 168.943 17.4156C167.594 16.0362 165.769 15.249 163.858 15.222C161.947 15.1956 160.101 15.9304 158.715 17.2707L160.947 19.5518C161.673 18.8792 162.634 18.5056 163.631 18.5076ZM163.632 27.1113C161.311 27.1113 159.543 25.1534 159.543 22.808C159.536 21.8303 159.854 20.877 160.447 20.0923L158.197 17.79C156.876 19.1976 156.149 21.0749 156.169 23.0213C156.188 24.9683 156.955 26.8295 158.304 28.2084C159.653 29.5872 161.478 30.3744 163.39 30.4015C165.301 30.4285 167.147 29.6936 168.533 28.3533L166.301 26.0717C165.574 26.7371 164.617 27.1052 163.624 27.1009M194.121 22.7695C192.543 22.7695 191.472 21.6586 191.472 19.8887V18.8807H188.24V19.8479C188.24 22.9058 189.945 25.0994 192.502 25.7451V30.1174H195.738V25.7451C196.577 25.537 197.356 25.138 198.01 24.5801L195.738 22.2652C195.27 22.6115 194.697 22.7928 194.111 22.7798M191.472 15.5038H188.24V18.1453H191.472V15.5038ZM200 15.5009H196.768V19.8887C196.792 20.537 196.615 21.1771 196.263 21.7253L198.536 24.0713C199.465 23.019 200.005 21.5683 200.005 19.8479L200 15.5009ZM173.604 21.4297V30.1151H176.839V21.3883C176.821 20.7694 176.983 20.1584 177.305 19.6265L175.015 17.2759C174.059 18.4525 173.559 19.9245 173.604 21.4297ZM185.366 21.4297C185.366 17.767 182.919 15.3365 179.485 15.3365C178.03 15.3031 176.616 15.8102 175.525 16.7567L177.798 19.0711C178.276 18.6876 178.878 18.4851 179.495 18.5001C181.071 18.5001 182.142 19.611 182.142 21.3808V22.4711H185.376L185.366 21.4297ZM185.364 23.2145H182.132V30.1145H185.364V23.2145ZM147.674 15.3497C145.935 15.3497 144.45 15.9741 143.407 17.0649C142.364 15.9741 140.881 15.3497 139.139 15.3497C137.701 15.3178 136.301 15.8127 135.212 16.7383L137.485 19.0533C137.958 18.688 138.545 18.4961 139.146 18.5105C140.722 18.5105 141.793 19.6213 141.793 21.3912V22.5096H145.033V21.3906C145.033 19.6213 146.104 18.5099 147.682 18.5099C148.287 18.4962 148.877 18.6911 149.351 19.0607L151.624 16.7458C150.531 15.8123 149.122 15.3144 147.674 15.3497ZM133.26 21.4297V30.1151H136.495V21.3883C136.477 20.7542 136.648 20.1287 136.985 19.588L134.712 17.242C133.801 18.2914 133.27 19.7266 133.27 21.4297M141.788 30.1151H145.028V23.2427H141.788V30.1151ZM152.121 17.2472L149.836 19.5955C150.173 20.1319 150.343 20.7593 150.324 21.3958V30.1226H153.556V21.4297C153.556 19.7294 153.031 18.296 152.121 17.2472Z" fill="white" style="fill:white;fill-opacity:1;"/>
</g>
</g>
<defs>
<clipPath id="clip0_1_916">
<rect width="200" height="46" fill="white" style="fill:white;fill-opacity:1;"/>
</clipPath>
</defs>
</svg>
