<svg width="200" height="49" viewBox="0 0 200 49" fill="none" xmlns="http://www.w3.org/2000/svg">
<g clip-path="url(#clip0_1_952)">
<path d="M29.5974 35.6888V37.8102C29.5974 38.8395 29.0191 39.4169 27.9757 39.4169H1.62171C0.582734 39.4169 0 38.844 0 37.8102V35.6888C0 34.6595 0.578216 34.0821 1.62171 34.0821H27.9802C29.0191 34.0821 29.6019 34.655 29.6019 35.6888H29.5974ZM27.7995 19.6397L20.9287 15.7103C20.7028 15.5805 20.7028 15.2627 20.9287 15.1329L27.7995 11.2035C28.5765 10.7604 28.8384 9.77577 28.3913 9.01048L27.3207 7.17553C26.8736 6.40574 25.8842 6.14617 25.1073 6.58924L18.2363 10.5187C18.0106 10.6485 17.7304 10.4874 17.7304 10.2323V2.36439C17.7304 1.47824 17.0032 0.75769 16.1087 0.75769H13.9675C13.0731 0.75769 12.3458 1.47824 12.3458 2.36439V10.2278C12.3458 10.4829 12.0657 10.644 11.8399 10.5142L4.96904 6.58475C4.19207 6.14168 3.20278 6.40574 2.75557 7.17105L1.68496 9.006C1.23774 9.77577 1.50426 10.7559 2.27673 11.199L9.14757 15.1284C9.37343 15.2582 9.37343 15.576 9.14757 15.7058L2.27673 19.6352C1.49975 20.0783 1.23774 21.0585 1.68496 21.8283L2.75557 23.6631C3.20278 24.4329 4.19207 24.6926 4.96904 24.2495L11.8399 20.32C12.0657 20.1902 12.3458 20.3514 12.3458 20.6064V28.4698C12.3458 29.356 13.0731 30.0766 13.9675 30.0766H16.1087C17.0032 30.0766 17.7304 29.356 17.7304 28.4698V20.6064C17.7304 20.3514 18.0106 20.1902 18.2363 20.32L25.1073 24.2495C25.8842 24.6926 26.8736 24.4285 27.3207 23.6631L28.3913 21.8283C28.8384 21.0585 28.572 20.0783 27.7995 19.6352V19.6397Z" fill="white" style="fill:white;fill-opacity:1;"/>
<path d="M45.7479 20.6415C47.1618 18.4261 50.08 16.8911 53.0931 16.8911C59.2501 16.8911 64.1332 21.9529 64.1332 28.4155C64.1332 34.878 59.2546 39.9398 53.0931 39.9398C50.08 39.9398 47.1618 38.4048 45.7479 36.1894V48.5372C45.7479 48.7206 45.5988 48.8684 45.4136 48.8684H40.7019C40.5167 48.8684 40.3677 48.7206 40.3677 48.5372V17.7639C40.3677 17.5803 40.5167 17.4327 40.7019 17.4327H45.4136C45.5988 17.4327 45.7479 17.5803 45.7479 17.7639V20.6415ZM52.1353 21.5903C48.395 21.5903 45.5219 24.5308 45.5219 28.4155C45.5219 32.3046 48.395 35.2406 52.1353 35.2406C55.9209 35.2406 58.7938 32.3046 58.7938 28.4155C58.7938 24.5263 55.9209 21.5903 52.1353 21.5903Z" fill="white" style="fill:white;fill-opacity:1;"/>
<path d="M84.7589 31.7195C85.4998 32.194 87.4467 33.4336 88.165 33.8902C88.3185 33.9886 88.3637 34.1855 88.2733 34.3421C86.105 37.9628 82.4415 39.9366 78.2629 39.9366C72.0111 39.9366 66.7664 34.9195 66.7664 28.4121C66.7664 21.9049 72.0111 16.8878 78.1726 16.8878C84.6458 16.8878 89.2175 21.8511 89.1271 29.3923C89.1271 29.5757 88.9735 29.7235 88.7883 29.7235H71.8304C72.377 33.2054 75.0691 35.3716 78.2629 35.3716C81.2354 35.3716 82.9112 34.0826 84.289 31.8269C84.3884 31.6659 84.6008 31.6121 84.7589 31.715V31.7195ZM72.0561 26.0626H83.7785C83.4126 23.5786 81.4521 21.4081 78.1681 21.4081C75.2951 21.4081 72.9191 23.2161 72.0561 26.0626Z" fill="white" style="fill:white;fill-opacity:1;"/>
<path d="M106.244 17.752C106.294 17.5863 106.208 17.4163 106.05 17.3491C105.571 17.1522 105.011 17.0225 104.135 17.0225C101.352 17.0225 99.116 18.6919 98.0227 20.8624V17.761C98.0227 17.5774 97.8737 17.4298 97.6885 17.4298H92.9768C92.7916 17.4298 92.6426 17.5774 92.6426 17.761V39.0596C92.6426 39.2432 92.7916 39.3908 92.9768 39.3908H97.6885C97.8737 39.3908 98.0227 39.2432 98.0227 39.0596V28.1843C98.0227 24.6129 100.259 22.2632 103.498 22.2632C103.877 22.2632 104.239 22.2901 104.586 22.3438C104.758 22.3707 104.921 22.2722 104.966 22.111C105.223 21.2384 105.991 18.6112 106.244 17.752Z" fill="white" style="fill:white;fill-opacity:1;"/>
<path d="M107.071 33.8185L111.105 32.3685C111.281 32.3059 111.471 32.3999 111.535 32.5699C112.262 34.4764 113.725 35.7788 115.803 35.7788C117.443 35.7788 118.952 34.7852 118.952 32.9771C118.952 28.8642 108.092 31.6211 108.092 23.7576C108.092 19.9624 111.331 16.8878 115.894 16.8878C119.634 16.8878 122.439 18.9062 123.496 21.8064C123.56 21.9809 123.456 22.1778 123.275 22.2316L119.214 23.4802C119.042 23.5338 118.866 23.4399 118.803 23.2699C118.265 21.7974 117.208 21.0411 115.713 21.0411C114.299 21.0411 113.111 21.945 113.111 23.3907C113.111 27.3202 124.061 24.6124 124.061 32.6549C124.061 36.9021 120.135 39.9321 115.668 39.9321C111.634 39.9321 108.029 37.7123 106.868 34.2259C106.814 34.0557 106.909 33.8723 107.076 33.814L107.071 33.8185Z" fill="white" style="fill:white;fill-opacity:1;"/>
<path d="M138.071 16.8878C144.459 16.8878 149.843 21.9049 149.843 28.4121C149.843 34.9195 144.459 39.9366 138.071 39.9366C131.684 39.9366 126.344 34.9195 126.344 28.4121C126.344 21.9049 131.684 16.8878 138.071 16.8878ZM138.071 35.2417C141.857 35.2417 144.73 32.3059 144.73 28.4166C144.73 24.5274 141.857 21.5916 138.071 21.5916C134.331 21.5916 131.458 24.5319 131.458 28.4166C131.458 32.3059 134.331 35.2417 138.071 35.2417Z" fill="white" style="fill:white;fill-opacity:1;"/>
<path d="M163.078 21.6498C160.11 21.6498 158.149 23.9098 158.149 27.3872V39.0772C158.149 39.2607 158 39.4084 157.815 39.4084H153.104C152.918 39.4084 152.769 39.2607 152.769 39.0772V17.7784C152.769 17.595 152.918 17.4472 153.104 17.4472H157.815C158 17.4472 158.149 17.595 158.149 17.7784V20.3831C159.608 18.3514 161.89 16.9012 164.993 16.9012C170.012 16.9012 172.93 20.3384 172.93 24.8541V39.0727C172.93 39.2562 172.781 39.404 172.596 39.404H167.884C167.699 39.404 167.55 39.2562 167.55 39.0727V26.2998C167.55 23.4534 165.91 21.6453 163.078 21.6453V21.6498Z" fill="white" style="fill:white;fill-opacity:1;"/>
<path d="M199.576 17.765V39.0638C199.576 39.2473 199.426 39.395 199.242 39.395H194.531C194.344 39.395 194.195 39.2473 194.195 39.0638V36.1861C192.826 38.4014 189.908 39.9366 186.896 39.9366C180.739 39.9366 175.856 34.8747 175.856 28.4121C175.856 21.9495 180.739 16.8878 186.896 16.8878C189.908 16.8878 192.826 18.4274 194.195 20.6383V17.7605C194.195 17.5771 194.344 17.4293 194.531 17.4293H199.242C199.426 17.4293 199.576 17.5771 199.576 17.7605V17.765ZM187.804 35.2417C191.59 35.2417 194.463 32.3059 194.463 28.4166C194.463 24.5274 191.59 21.5916 187.804 21.5916C184.063 21.5916 181.19 24.5319 181.19 28.4166C181.19 32.3059 184.063 35.2417 187.804 35.2417Z" fill="white" style="fill:white;fill-opacity:1;"/>
</g>
<defs>
<clipPath id="clip0_1_952">
<rect width="200" height="49" fill="white" style="fill:white;fill-opacity:1;"/>
</clipPath>
</defs>
</svg>
