<svg width="200" height="45" viewBox="0 0 200 45" fill="none" xmlns="http://www.w3.org/2000/svg">
<g clip-path="url(#clip0_1_927)">
<path d="M28.3536 3.3363C32.535 3.3363 34.6356 6.57306 34.6356 9.81978C34.6356 13.0665 32.535 16.2734 28.3536 16.2734H24.0926V22.727H21.2651V3.3363H28.3536ZM28.3536 13.5047C30.7031 13.5047 31.868 11.6722 31.868 9.84966C31.868 7.99724 30.7031 6.16473 28.3536 6.16473H24.0926V13.5047H28.3536Z" fill="#00C58B" style="fill:#00C58B;fill:color(display-p3 0.0000 0.7725 0.5451);fill-opacity:1;"/>
<path d="M46.9309 19.9285H55.9309V22.727H44.1035V3.36621H55.901V6.16476H46.9309V11.6224H55.7119V14.4409H46.9309V19.9285Z" fill="#00C58B" style="fill:#00C58B;fill:color(display-p3 0.0000 0.7725 0.5451);fill-opacity:1;"/>
<path d="M69.3014 12.8972H72.5669C74.9164 12.8972 76.0812 11.2041 76.0812 9.521C76.0812 7.85781 74.9164 6.16473 72.5669 6.16473H68.276V22.727H65.5083V3.3363H72.5669C76.7781 3.3363 78.8788 6.43363 78.8788 9.51104C78.8788 12.2498 77.1863 14.8592 73.8711 15.4368L79.9938 22.727H76.37L69.3114 14.2218V12.8972H69.3014Z" fill="#00C58B" style="fill:#00C58B;fill:color(display-p3 0.0000 0.7725 0.5451);fill-opacity:1;"/>
<path d="M98.9598 8.34585C98.5715 6.60298 96.6899 5.85603 94.9974 5.87595C93.6932 5.90583 92.2596 6.34404 91.4831 7.33996C91.0948 7.83793 90.9554 8.47532 91.0151 9.14259C91.1545 11.1344 93.3448 11.3834 95.4155 11.5826C98.0737 11.9113 101.369 12.6084 102.116 15.7057C102.195 16.124 102.255 16.5921 102.255 16.9805C102.255 20.7252 98.5416 22.8764 95.0572 22.8764C92.0704 22.8764 88.4366 21.1037 88.0782 17.6378L88.0483 17.11L90.8758 17.0602L90.9056 17.4785V17.3689C91.0948 19.1716 93.285 20.1077 95.087 20.1077C97.1678 20.1077 99.4377 18.9425 99.4377 16.9506C99.4377 16.7614 99.4078 16.5324 99.358 16.2834C99.0295 14.8194 97.0284 14.5704 95.097 14.3712C92.0804 14.0625 88.5362 13.4052 88.2275 9.36169V9.39157C88.118 8.08691 88.4466 6.7922 89.2828 5.70665C90.587 4.01357 92.9067 3.1272 95.1567 3.1272C98.1434 3.1272 101.25 4.68084 101.747 8.22634L98.9598 8.34585Z" fill="#00C58B" style="fill:#00C58B;fill:color(display-p3 0.0000 0.7725 0.5451);fill-opacity:1;"/>
<path d="M122.415 17.0204H115.466C114.72 18.7932 113.754 21.1236 113.137 22.7271H110.12L117.905 3.0874H119.956L127.742 22.7271H124.755L122.415 17.0204ZM116.512 14.3912H121.33L118.951 7.54915L116.512 14.3912Z" fill="#00C58B" style="fill:#00C58B;fill:color(display-p3 0.0000 0.7725 0.5451);fill-opacity:1;"/>
<path d="M143.9 3.36621C150.242 3.36621 153.427 8.21637 153.427 13.0665C153.427 17.9167 150.242 22.737 143.9 22.737H136.951V3.36621H143.9ZM143.9 19.9285C148.39 19.9285 150.66 16.4925 150.66 13.0566C150.66 9.62062 148.39 6.1548 143.9 6.1548H139.748V19.9185H143.9V19.9285Z" fill="#00C58B" style="fill:#00C58B;fill:color(display-p3 0.0000 0.7725 0.5451);fill-opacity:1;"/>
<path d="M165.633 6.02538C167.405 4.22276 169.894 3.0874 172.612 3.0874C175.35 3.0874 177.819 4.22276 179.621 6.02538C181.363 7.82801 182.498 10.2879 182.498 13.0367C182.498 15.7755 181.363 18.2454 179.621 20.048C177.819 21.8805 175.36 22.986 172.612 22.986C169.904 22.986 167.405 21.8805 165.633 20.048C163.891 18.2454 162.756 15.7855 162.756 13.0367C162.756 10.2879 163.891 7.81805 165.633 6.02538ZM177.62 8.01723C176.316 6.71257 174.514 5.91583 172.602 5.91583C170.691 5.91583 168.918 6.72253 167.644 8.01723C166.37 9.29202 165.563 11.0648 165.563 13.0267C165.563 14.9887 166.37 16.7714 167.644 18.0362C168.918 19.3409 170.691 20.1376 172.602 20.1376C174.514 20.1376 176.316 19.331 177.62 18.0362C178.864 16.7615 179.671 15.0186 179.671 13.0267C179.671 11.0349 178.874 9.29202 177.62 8.01723Z" fill="#00C58B" style="fill:#00C58B;fill:color(display-p3 0.0000 0.7725 0.5451);fill-opacity:1;"/>
<path d="M8.0442 2.82843V0H0V2.82843H0.0099557V23.215H0V26.0435H8.0442V23.215H2.83737V2.82843H8.0442Z" fill="#00C58B" style="fill:#00C58B;fill:color(display-p3 0.0000 0.7725 0.5451);fill-opacity:1;"/>
<path d="M200 2.82843V0H191.956V2.82843H197.163V23.215H191.956V26.0435H200V23.215H199.99V2.82843H200Z" fill="#00C58B" style="fill:#00C58B;fill:color(display-p3 0.0000 0.7725 0.5451);fill-opacity:1;"/>
<g opacity="0.7">
<path d="M23.9235 40.5044L24.1325 41.9086L24.4312 40.6438L26.5319 33.2341H27.7166L29.7675 40.6438L30.0562 41.9286L30.2852 40.4944L31.9378 33.2341H33.3416L30.763 43.8507H29.4887L27.2985 36.1124L27.1292 35.3057L26.96 36.1124L24.6901 43.8507H23.4157L20.8472 33.2341H22.2509L23.9235 40.5044Z" fill="#00C58B" style="fill:#00C58B;fill:color(display-p3 0.0000 0.7725 0.5451);fill-opacity:1;"/>
<path d="M34.835 39.8271C34.835 39.0503 34.9843 38.3631 35.2929 37.7456C35.6015 37.1282 36.0197 36.6501 36.5573 36.3115C37.0949 35.9729 37.7221 35.8036 38.4091 35.8036C39.4843 35.8036 40.3504 36.1721 41.0174 36.919C41.6845 37.666 42.013 38.6519 42.013 39.8869V39.9865C42.013 40.7533 41.8637 41.4405 41.575 42.058C41.2763 42.6655 40.8582 43.1436 40.3106 43.4822C39.763 43.8208 39.1358 43.9901 38.429 43.9901C37.3637 43.9901 36.4976 43.6216 35.8305 42.8747C35.1635 42.1277 34.835 41.1418 34.835 39.9168V39.8271ZM36.1889 39.9865C36.1889 40.8629 36.388 41.56 36.7962 42.0978C37.2044 42.6257 37.742 42.8946 38.429 42.8946C39.1159 42.8946 39.6635 42.6257 40.0617 42.0879C40.4699 41.5501 40.669 40.7932 40.669 39.8271C40.669 38.9607 40.4599 38.2635 40.0517 37.7257C39.6436 37.1879 39.096 36.919 38.419 36.919C37.752 36.919 37.2144 37.1879 36.8062 37.7158C36.398 38.2436 36.1889 39.0005 36.1889 39.9865Z" fill="#00C58B" style="fill:#00C58B;fill:color(display-p3 0.0000 0.7725 0.5451);fill-opacity:1;"/>
<path d="M48.2652 37.1679C48.0561 37.1381 47.8371 37.1181 47.5981 37.1181C46.7121 37.1181 46.1147 37.4966 45.7962 38.2535V43.8506H44.4521V35.9529H45.7663L45.7862 36.8692C46.2243 36.1621 46.8515 35.8135 47.6678 35.8135C47.9267 35.8135 48.1258 35.8434 48.2652 35.9131V37.1679Z" fill="#00C58B" style="fill:#00C58B;fill:color(display-p3 0.0000 0.7725 0.5451);fill-opacity:1;"/>
<path d="M49.7882 39.8371C49.7882 38.622 50.0769 37.656 50.6444 36.919C51.2118 36.182 51.9685 35.8135 52.8943 35.8135C53.8202 35.8135 54.547 36.1322 55.0846 36.7597V32.6465H56.4286V43.8506H55.1842L55.1145 43.0041C54.5769 43.6614 53.8202 44 52.8645 44C51.9486 44 51.2019 43.6216 50.6244 42.8746C50.047 42.1277 49.7583 41.1517 49.7583 39.9466V39.8371H49.7882ZM51.1322 39.9865C51.1322 40.8828 51.3213 41.5799 51.6897 42.0879C52.0581 42.5958 52.5658 42.8448 53.2229 42.8448C54.0791 42.8448 54.7063 42.4564 55.0946 41.6895V38.0643C54.6864 37.3174 54.0691 36.9489 53.2328 36.9489C52.5758 36.9489 52.0581 37.2078 51.6897 37.7157C51.3213 38.2237 51.1322 38.9905 51.1322 39.9865Z" fill="#00C58B" style="fill:#00C58B;fill:color(display-p3 0.0000 0.7725 0.5451);fill-opacity:1;"/>
<path d="M63.8759 41.7592C63.8759 41.3907 63.7366 41.1119 63.4677 40.9127C63.189 40.7135 62.7111 40.5342 62.0341 40.3948C61.3472 40.2454 60.8096 40.0761 60.4114 39.8669C60.0131 39.6578 59.7145 39.4188 59.5253 39.1399C59.3361 38.8611 59.2366 38.5224 59.2366 38.134C59.2366 37.4867 59.5054 36.9389 60.0529 36.4908C60.6005 36.0426 61.2974 35.8235 62.1536 35.8235C63.0496 35.8235 63.7764 36.0525 64.3339 36.5206C64.8914 36.9788 65.1702 37.5763 65.1702 38.2934H63.8162C63.8162 37.9249 63.6569 37.6062 63.3483 37.3373C63.0297 37.0684 62.6414 36.9389 62.1636 36.9389C61.6757 36.9389 61.2875 37.0485 61.0087 37.2576C60.7299 37.4668 60.5906 37.7556 60.5906 38.0942C60.5906 38.4229 60.72 38.6619 60.9788 38.8312C61.2377 39.0005 61.7056 39.1499 62.3726 39.3092C63.0496 39.4586 63.5872 39.6379 64.0054 39.847C64.4235 40.0562 64.7321 40.3052 64.9312 40.6039C65.1304 40.9027 65.2299 41.2612 65.2299 41.6795C65.2299 42.3866 64.9511 42.9543 64.3837 43.3726C63.8162 43.8008 63.0894 44.01 62.1934 44.01C61.5662 44.01 60.9987 43.9004 60.5209 43.6714C60.043 43.4423 59.6547 43.1336 59.376 42.7352C59.0972 42.3368 58.9678 41.8986 58.9678 41.4305H60.3118C60.3317 41.8787 60.5209 42.2372 60.8594 42.5061C61.1979 42.775 61.6459 42.9045 62.1934 42.9045C62.7012 42.9045 63.1093 42.8049 63.418 42.5958C63.7266 42.3767 63.8759 42.0978 63.8759 41.7592Z" fill="#00C58B" style="fill:#00C58B;fill:color(display-p3 0.0000 0.7725 0.5451);fill-opacity:1;"/>
<path d="M73.4429 35.953L73.4827 36.8294C74.0601 36.1522 74.8367 35.8036 75.8223 35.8036C76.9274 35.8036 77.6741 36.2219 78.0723 37.0684C78.3311 36.69 78.6796 36.3812 79.0977 36.1522C79.5159 35.9231 80.0136 35.8036 80.5911 35.8036C82.3234 35.8036 83.1995 36.7198 83.2293 38.5523V43.8407H81.8853V38.642C81.8853 38.0743 81.7559 37.656 81.4971 37.3771C81.2382 37.0983 80.8101 36.9589 80.2028 36.9589C79.705 36.9589 79.2869 37.1083 78.9583 37.407C78.6298 37.7058 78.4407 38.1042 78.3809 38.6121V43.8507H77.0269V38.6818C77.0269 37.5365 76.4694 36.9589 75.3444 36.9589C74.4584 36.9589 73.8511 37.3373 73.5325 38.0942V43.8606H72.1885V35.953H73.4429Z" fill="#00C58B" style="fill:#00C58B;fill:color(display-p3 0.0000 0.7725 0.5451);fill-opacity:1;"/>
<path d="M90.8854 43.8506C90.8058 43.6912 90.746 43.4224 90.6962 43.024C90.069 43.6713 89.3224 44 88.4463 44C87.6697 44 87.0325 43.7809 86.5348 43.3427C86.037 42.9045 85.7881 42.3468 85.7881 41.6695C85.7881 40.8429 86.0967 40.2055 86.7239 39.7573C87.3511 39.2992 88.2272 39.0801 89.3622 39.0801H90.6763V38.4427C90.6763 37.9746 90.537 37.5962 90.2582 37.3173C89.9794 37.0385 89.5613 36.899 89.0137 36.899C88.5359 36.899 88.1277 37.0185 87.7991 37.2675C87.4706 37.5065 87.3113 37.8053 87.3113 38.1539H85.9573C85.9573 37.7555 86.0967 37.3771 86.3755 37.0086C86.6542 36.6401 87.0326 36.3513 87.5104 36.1322C87.9883 35.923 88.5159 35.8135 89.0934 35.8135C89.9993 35.8135 90.7162 36.0425 91.2339 36.4907C91.7515 36.9488 92.0204 37.5763 92.0403 38.373V42.0081C92.0403 42.7352 92.1299 43.3128 92.319 43.741V43.8606H90.8854V43.8506ZM88.6454 42.8248C89.0635 42.8248 89.4717 42.7152 89.85 42.4961C90.2283 42.277 90.5071 41.9882 90.6763 41.6396V40.0163H89.621C87.9684 40.0163 87.1421 40.5043 87.1421 41.4703C87.1421 41.8886 87.2814 42.2272 87.5602 42.4663C87.839 42.7053 88.1974 42.8248 88.6454 42.8248Z" fill="#00C58B" style="fill:#00C58B;fill:color(display-p3 0.0000 0.7725 0.5451);fill-opacity:1;"/>
<path d="M96.7095 34.0507V35.9629H98.1829V37.0086H96.7095V41.9086C96.7095 42.2273 96.7792 42.4663 96.9086 42.6157C97.038 42.7651 97.267 42.8547 97.5756 42.8547C97.7349 42.8547 97.944 42.8248 98.2128 42.7651V43.8506C97.8544 43.9502 97.5159 44 97.1774 44C96.5701 44 96.1221 43.8208 95.8135 43.4523C95.5048 43.0838 95.3555 42.5659 95.3555 41.8986V37.0086H93.9219V35.9529H95.3555V34.0408H96.7095V34.0507Z" fill="#00C58B" style="fill:#00C58B;fill:color(display-p3 0.0000 0.7725 0.5451);fill-opacity:1;"/>
<path d="M102.334 34.0507V35.9629H103.808V37.0086H102.334V41.9086C102.334 42.2273 102.404 42.4663 102.534 42.6157C102.663 42.7651 102.892 42.8547 103.201 42.8547C103.36 42.8547 103.569 42.8248 103.838 42.7651V43.8506C103.479 43.9502 103.141 44 102.802 44C102.195 44 101.747 43.8208 101.438 43.4523C101.13 43.0838 100.98 42.5659 100.98 41.8986V37.0086H99.5469V35.9529H100.98V34.0408H102.334V34.0507Z" fill="#00C58B" style="fill:#00C58B;fill:color(display-p3 0.0000 0.7725 0.5451);fill-opacity:1;"/>
<path d="M109.403 44C108.338 44 107.462 43.6514 106.795 42.9443C106.128 42.2372 105.789 41.301 105.789 40.1258V39.8769C105.789 39.0901 105.938 38.3929 106.237 37.7755C106.536 37.158 106.954 36.6799 107.491 36.3314C108.029 35.9828 108.607 35.8135 109.234 35.8135C110.259 35.8135 111.056 36.1521 111.623 36.8293C112.191 37.5066 112.479 38.4726 112.479 39.7374V40.2951H107.133C107.153 41.072 107.382 41.6994 107.81 42.1774C108.248 42.6555 108.796 42.8945 109.473 42.8945C109.951 42.8945 110.349 42.7949 110.687 42.6057C111.016 42.4065 111.305 42.1575 111.553 41.8289L112.38 42.4663C111.713 43.4921 110.727 44 109.403 44ZM109.234 36.919C108.686 36.919 108.228 37.1181 107.86 37.5165C107.491 37.9149 107.263 38.4726 107.173 39.1797H111.125V39.0801C111.085 38.3929 110.906 37.8651 110.568 37.4866C110.249 37.1082 109.801 36.919 109.234 36.919Z" fill="#00C58B" style="fill:#00C58B;fill:color(display-p3 0.0000 0.7725 0.5451);fill-opacity:1;"/>
<path d="M118.602 37.1679C118.393 37.1381 118.174 37.1181 117.935 37.1181C117.049 37.1181 116.452 37.4966 116.133 38.2535V43.8506H114.789V35.9529H116.103L116.123 36.8692C116.561 36.1621 117.188 35.8135 118.005 35.8135C118.264 35.8135 118.463 35.8434 118.602 35.9131V37.1679Z" fill="#00C58B" style="fill:#00C58B;fill:color(display-p3 0.0000 0.7725 0.5451);fill-opacity:1;"/>
<path d="M119.717 43.1436C119.717 42.9145 119.787 42.7153 119.926 42.556C120.066 42.3966 120.275 42.3269 120.554 42.3269C120.832 42.3269 121.041 42.4066 121.181 42.556C121.32 42.7153 121.4 42.9045 121.4 43.1436C121.4 43.3627 121.33 43.5519 121.181 43.7013C121.041 43.8507 120.822 43.9303 120.554 43.9303C120.285 43.9303 120.066 43.8507 119.926 43.7013C119.787 43.5519 119.717 43.3627 119.717 43.1436Z" fill="#00C58B" style="fill:#00C58B;fill:color(display-p3 0.0000 0.7725 0.5451);fill-opacity:1;"/>
</g>
</g>
<defs>
<clipPath id="clip0_1_927">
<rect width="200" height="45" fill="white" style="fill:white;fill-opacity:1;"/>
</clipPath>
</defs>
</svg>
