<svg width="200" height="46" viewBox="0 0 200 46" fill="none" xmlns="http://www.w3.org/2000/svg">
<g clip-path="url(#clip0_1_961)">
<path d="M72.4297 7.69048C70.3305 6.52347 67.989 5.93896 65.4072 5.93896C62.8254 5.93896 60.3727 6.50563 58.2557 7.63896C56.1386 8.77234 54.4783 10.3693 53.2728 12.4299C52.0673 14.4905 51.4656 16.8423 51.4656 19.4875V40.6087H57.0938V30.169C57.781 30.7237 58.5277 31.2092 59.3401 31.6193C61.2168 32.5644 63.308 33.036 65.6138 33.036C68.1618 33.036 70.4676 32.4515 72.533 31.2845C74.5984 30.1174 76.215 28.4947 77.3867 26.4163C78.5564 24.3378 79.1423 22.0296 79.1423 19.4875C79.1423 16.9454 78.5485 14.5935 77.3609 12.5329C76.1732 10.4723 74.5289 8.8595 72.4297 7.69048ZM71.1388 25.3602C69.6235 26.9057 67.713 27.6784 65.4072 27.6784C63.1015 27.6784 61.0777 26.9057 59.5465 25.3602C58.0154 23.8147 57.2488 21.8571 57.2488 19.4875C57.2488 17.1177 58.0134 15.1602 59.5465 13.6147C61.0777 12.0693 63.032 11.2966 65.4072 11.2966C67.7825 11.2966 69.6235 12.0693 71.1388 13.6147C72.6521 15.1602 73.4107 17.1177 73.4107 19.4875C73.4107 21.8571 72.6541 23.8147 71.1388 25.3602Z" fill="#00C58B" style="fill:#00C58B;fill:color(display-p3 0.0000 0.7725 0.5451);fill-opacity:1;"/>
<path d="M88.075 14.8511H82.3955V40.6087H88.075V14.8511Z" fill="#00C58B" style="fill:#00C58B;fill:color(display-p3 0.0000 0.7725 0.5451);fill-opacity:1;"/>
<path d="M85.2353 5.16626C84.1331 5.16626 83.2216 5.50903 82.4987 6.19657C81.7758 6.8841 81.4143 7.75986 81.4143 8.82381C81.4143 9.8878 81.7758 10.7636 82.4987 11.4511C83.2216 12.1387 84.1331 12.4814 85.2353 12.4814C86.3378 12.4814 87.249 12.1387 87.9723 11.4511C88.6947 10.7656 89.0568 9.88985 89.0568 8.82381C89.0568 7.75787 88.6947 6.8841 87.9723 6.19657C87.249 5.50903 86.3378 5.16626 85.2353 5.16626Z" fill="#00C58B" style="fill:#00C58B;fill:color(display-p3 0.0000 0.7725 0.5451);fill-opacity:1;"/>
<path d="M111.75 15.9072C109.806 14.7223 107.56 14.1299 105.012 14.1299C102.464 14.1299 100.089 14.7045 98.0932 15.8556C96.0966 17.0068 94.538 18.6038 93.4199 20.6466C92.3018 22.6894 91.7415 25.0352 91.7415 27.6784C91.7415 30.3215 92.3173 32.7348 93.4716 34.8132C94.6234 36.8916 96.2337 38.4966 98.2992 39.6299C100.365 40.7632 102.688 41.3299 105.27 41.3299C108.231 41.3299 110.778 40.5829 112.912 39.089C115.047 37.595 116.612 35.5602 117.611 32.9844H111.725C110.313 35.2511 108.11 36.3845 105.116 36.3845C102.774 36.3845 100.881 35.6117 99.4354 34.0663C98.4406 33.0023 97.7889 31.6628 97.4768 30.0481H117.715C117.817 29.3269 117.869 28.5363 117.869 27.6784C117.869 25.1363 117.335 22.8359 116.268 20.7753C115.2 18.7147 113.695 17.092 111.75 15.9072ZM99.4096 21.445C100.837 19.8996 102.706 19.1268 105.012 19.1268C107.318 19.1268 109.058 19.8996 110.434 21.445C111.401 22.5308 112.001 23.8524 112.237 25.4117H97.4716C97.7768 23.8345 98.4225 22.513 99.4096 21.445Z" fill="#00C58B" style="fill:#00C58B;fill:color(display-p3 0.0000 0.7725 0.5451);fill-opacity:1;"/>
<path d="M138.962 15.5446C137.189 14.6014 135.201 14.1279 132.998 14.1279C130.796 14.1279 128.765 14.5915 127.009 15.5188C125.253 16.4461 123.877 17.7775 122.878 19.5112C121.879 21.2449 121.38 23.2461 121.38 25.5128L121.328 40.6067H127.06L127.112 25.6158C127.112 23.8306 127.646 22.3704 128.713 21.237C129.779 20.1037 131.209 19.537 132.998 19.537C134.788 19.537 136.138 20.0957 137.259 21.2113C138.377 22.3268 138.936 23.7949 138.936 25.6158V40.6067H144.668V25.5128C144.668 23.2461 144.159 21.2548 143.145 19.537C142.128 17.8191 140.736 16.4896 138.962 15.5446Z" fill="#00C58B" style="fill:#00C58B;fill:color(display-p3 0.0000 0.7725 0.5451);fill-opacity:1;"/>
<path d="M161.656 25.4117L157.267 24.8966C155.925 24.7598 154.97 24.4507 154.402 23.9693C153.834 23.4878 153.549 22.8181 153.549 21.9602C153.549 20.9992 153.971 20.2601 154.815 19.745C155.659 19.2299 156.888 18.9723 158.507 18.9723C161.708 18.9723 163.394 20.1235 163.567 22.4238H169.041C169.007 19.8817 168.023 17.8647 166.097 16.3708C164.169 14.8768 161.674 14.1299 158.61 14.1299C155.339 14.1299 152.757 14.851 150.865 16.2935C148.972 17.7359 148.024 19.6935 148.024 22.1662C148.024 24.3655 148.703 26.1329 150.064 27.4723C151.422 28.8117 153.359 29.636 155.873 29.945L160.675 30.5117C161.915 30.6484 162.774 30.9318 163.257 31.3617C163.74 31.7916 163.98 32.4 163.98 33.1905C163.98 34.2208 163.549 35.0292 162.689 35.6117C161.829 36.1962 160.572 36.4874 158.92 36.4874C157.06 36.4874 155.685 36.2042 154.789 35.6375C153.893 35.0708 153.412 34.203 153.343 33.0359H147.87C147.903 35.6454 148.894 37.6802 150.839 39.1405C152.783 40.6008 155.46 41.3299 158.868 41.3299C162.276 41.3299 164.771 40.575 166.665 39.0632C168.558 37.5514 169.505 35.578 169.505 33.139C169.505 28.6056 166.89 26.0299 161.656 25.4117Z" fill="#00C58B" style="fill:#00C58B;fill:color(display-p3 0.0000 0.7725 0.5451);fill-opacity:1;"/>
<path d="M197.567 20.8011C196.379 18.7226 194.735 17.092 192.636 15.9072C190.536 14.7223 188.213 14.1299 185.665 14.1299C183.117 14.1299 180.793 14.7223 178.694 15.9072C176.595 17.092 174.951 18.7226 173.763 20.8011C172.575 22.8795 171.982 25.1898 171.982 27.7299C171.982 30.2699 172.575 32.5208 173.763 34.5814C174.951 36.642 176.595 38.2727 178.694 39.4754C180.793 40.678 183.117 41.2943 185.665 41.3299C188.213 41.2962 190.536 40.678 192.636 39.4754C194.735 38.2727 196.379 36.642 197.567 34.5814C198.754 32.5208 199.348 30.2363 199.348 27.7299C199.348 25.2235 198.754 22.8795 197.567 20.8011ZM191.345 33.6799C189.863 35.2432 187.971 36.0239 185.665 36.0239C183.36 36.0239 181.465 35.2432 179.985 33.6799C178.505 32.1166 177.765 30.1333 177.765 27.7299C177.765 25.3265 178.505 23.2916 179.985 21.7283C181.465 20.1651 183.36 19.3844 185.665 19.3844C187.971 19.3844 189.863 20.1651 191.345 21.7283C192.824 23.2916 193.566 25.2908 193.566 27.7299C193.566 30.1689 192.824 32.1166 191.345 33.6799Z" fill="#00C58B" style="fill:#00C58B;fill:color(display-p3 0.0000 0.7725 0.5451);fill-opacity:1;"/>
<path d="M41.694 14.5767V19.9696L31.7419 25.6471V17.2109L11.2117 5.50809L18.5012 1.34828C20.1416 0.411577 22.17 0.411577 23.8163 1.34828L39.0314 10.0295H39.0374C40.6778 10.9662 41.692 12.7033 41.692 14.5767H41.694ZM8.03911 7.33603L3.31216 10.0354C1.66582 10.9741 0.651611 12.7112 0.651611 14.5846V31.9412C0.651611 33.8205 1.66582 35.5516 3.31216 36.4883L10.6016 40.6482V17.2327L17.9891 13.0155L8.03711 7.33801L8.03911 7.33603ZM13.7603 31.0934V42.4484L18.4872 45.1478C20.1356 46.0845 22.156 46.0845 23.8023 45.1478L39.0174 36.4666C40.6658 35.5299 41.6779 33.7928 41.6779 31.9195V23.5998L21.1497 35.3085L13.7583 31.0934H13.7603Z" fill="#00C58B" style="fill:#00C58B;fill:color(display-p3 0.0000 0.7725 0.5451);fill-opacity:1;"/>
</g>
<defs>
<clipPath id="clip0_1_961">
<rect width="200" height="46" fill="white" style="fill:white;fill-opacity:1;"/>
</clipPath>
</defs>
</svg>
