<svg width="200" height="58" viewBox="0 0 200 58" fill="none" xmlns="http://www.w3.org/2000/svg">
<g clip-path="url(#clip0_1_970)">
<mask id="mask0_1_970" style="mask-type:luminance" maskUnits="userSpaceOnUse" x="0" y="0" width="200" height="58">
<path d="M200 0H0V58H200V0Z" fill="white" style="fill:white;fill-opacity:1;"/>
</mask>
<g mask="url(#mask0_1_970)">
<path d="M74.1694 18.1852C76.8671 18.1852 78.9307 18.6714 80.3602 19.6438C81.8074 20.6161 82.5311 22.1366 82.5311 24.2051C82.5311 25.2835 82.3346 26.2117 81.9414 26.9896C81.5662 27.7498 81.0124 28.3774 80.2799 28.8725C79.5474 29.3498 78.654 29.7034 77.5996 29.9332C76.5456 30.1631 75.3396 30.278 73.9819 30.278H72.2934V36.7488H68.9165V18.636C69.7026 18.4592 70.5691 18.3443 71.5161 18.2913C72.481 18.2205 73.3652 18.1852 74.1694 18.1852ZM74.4106 21.0758C73.5531 21.0758 72.8472 21.1023 72.2934 21.1553V27.4139H73.9282C75.5542 27.4139 76.8046 27.1929 77.6803 26.7509C78.5556 26.2913 78.9932 25.4338 78.9932 24.1785C78.9932 23.5775 78.8774 23.0736 78.6451 22.667C78.4128 22.2603 78.0913 21.9421 77.6803 21.7122C77.2693 21.4824 76.778 21.3233 76.206 21.2349C75.6522 21.1288 75.0536 21.0758 74.4106 21.0758Z" fill="#00C58B" style="fill:#00C58B;fill:color(display-p3 0.0000 0.7725 0.5451);fill-opacity:1;"/>
<path d="M97.659 29.8006C97.659 30.8967 97.498 31.8956 97.1765 32.7972C96.8551 33.6989 96.3993 34.468 95.8096 35.1044C95.2202 35.741 94.5055 36.2359 93.6657 36.5895C92.8437 36.9432 91.9325 37.12 90.9321 37.12C89.9314 37.12 89.0202 36.9432 88.1986 36.5895C87.3766 36.2359 86.6707 35.741 86.0813 35.1044C85.4916 34.468 85.027 33.6989 84.6877 32.7972C84.3659 31.8956 84.2053 30.8967 84.2053 29.8006C84.2053 28.7044 84.3659 27.7144 84.6877 26.8304C85.027 25.9287 85.4916 25.1597 86.0813 24.5232C86.6888 23.8868 87.4035 23.4006 88.2252 23.0647C89.0472 22.7111 89.9496 22.5343 90.9321 22.5343C91.9147 22.5343 92.817 22.7111 93.6391 23.0647C94.4785 23.4006 95.1932 23.8868 95.7829 24.5232C96.3726 25.1597 96.8281 25.9287 97.1499 26.8304C97.4892 27.7144 97.659 28.7044 97.659 29.8006ZM94.3357 29.8006C94.3357 28.4215 94.032 27.3343 93.4245 26.5387C92.8348 25.7254 92.0043 25.3188 90.9321 25.3188C89.86 25.3188 89.0202 25.7254 88.4128 26.5387C87.8231 27.3343 87.5286 28.4215 87.5286 29.8006C87.5286 31.1973 87.8231 32.3022 88.4128 33.1155C89.0202 33.9287 89.86 34.3354 90.9321 34.3354C92.0043 34.3354 92.8348 33.9287 93.4245 33.1155C94.032 32.3022 94.3357 31.1973 94.3357 29.8006Z" fill="#00C58B" style="fill:#00C58B;fill:color(display-p3 0.0000 0.7725 0.5451);fill-opacity:1;"/>
<path d="M105.877 37.0138C104.913 36.9962 104.109 36.8901 103.465 36.6957C102.84 36.501 102.34 36.2271 101.965 35.8735C101.589 35.5023 101.322 35.0514 101.161 34.521C101.018 33.9729 100.946 33.3542 100.946 32.6647V16.7001L104.189 16.1697V32.0547C104.189 32.4437 104.216 32.7708 104.269 33.0359C104.341 33.3011 104.457 33.5309 104.618 33.7254C104.779 33.9022 104.993 34.0437 105.261 34.1497C105.547 34.2382 105.904 34.3088 106.333 34.3619L105.877 37.0138Z" fill="#00C58B" style="fill:#00C58B;fill:color(display-p3 0.0000 0.7725 0.5451);fill-opacity:1;"/>
<path d="M120.4 22.8792C118.953 28.1477 117.273 32.9211 115.361 37.1995C115.004 37.995 114.638 38.6759 114.263 39.2415C113.887 39.8074 113.467 40.2756 113.003 40.6472C112.539 41.0184 112.02 41.2834 111.449 41.4427C110.877 41.6195 110.216 41.7077 109.465 41.7077C108.965 41.7077 108.465 41.6546 107.964 41.5488C107.482 41.4427 107.116 41.3277 106.866 41.204L107.455 38.6316C108.098 38.8791 108.733 39.0028 109.358 39.0028C110.198 39.0028 110.85 38.7996 111.314 38.3929C111.797 38.0041 112.217 37.3939 112.574 36.5629C111.556 34.6184 110.573 32.4968 109.626 30.1985C108.697 27.9001 107.866 25.4604 107.134 22.8792H110.591C110.769 23.6217 110.984 24.4261 111.234 25.2924C111.502 26.1587 111.788 27.0427 112.092 27.9443C112.395 28.8283 112.717 29.7123 113.056 30.5962C113.396 31.4802 113.735 32.3023 114.075 33.0625C114.647 31.4891 115.183 29.8184 115.683 28.0504C116.183 26.2648 116.639 24.541 117.05 22.8792H120.4Z" fill="#00C58B" style="fill:#00C58B;fill:color(display-p3 0.0000 0.7725 0.5451);fill-opacity:1;"/>
<path d="M126.364 34.4414C127.222 34.4414 127.847 34.3442 128.24 34.1497C128.633 33.9376 128.83 33.584 128.83 33.089C128.83 32.6293 128.616 32.2492 128.187 31.9486C127.776 31.6481 127.088 31.321 126.123 30.9674C125.534 30.7553 124.989 30.5343 124.488 30.3044C124.006 30.0569 123.586 29.774 123.229 29.4558C122.871 29.1376 122.585 28.7575 122.371 28.3155C122.174 27.8558 122.076 27.2989 122.076 26.6448C122.076 25.3718 122.55 24.373 123.497 23.6481C124.444 22.9056 125.73 22.5343 127.356 22.5343C128.178 22.5343 128.964 22.6139 129.714 22.7729C130.465 22.9144 131.028 23.0558 131.403 23.1973L130.813 25.7961C130.456 25.6371 130 25.4956 129.447 25.3718C128.892 25.2304 128.249 25.1597 127.517 25.1597C126.856 25.1597 126.32 25.2746 125.909 25.5044C125.498 25.7166 125.292 26.0525 125.292 26.5122C125.292 26.742 125.328 26.9453 125.4 27.1221C125.489 27.2989 125.632 27.4669 125.828 27.626C126.025 27.7674 126.284 27.9177 126.606 28.0768C126.927 28.2182 127.32 28.3685 127.785 28.5276C128.553 28.8105 129.205 29.0934 129.741 29.3763C130.277 29.6414 130.715 29.9508 131.054 30.3044C131.412 30.6403 131.671 31.0293 131.832 31.4713C131.993 31.9133 132.073 32.4437 132.073 33.0624C132.073 34.3884 131.573 35.3961 130.572 36.0855C129.589 36.7576 128.178 37.0933 126.337 37.0933C125.105 37.0933 124.113 36.9874 123.363 36.7751C122.612 36.5807 122.085 36.4215 121.781 36.2978L122.344 33.6193C122.827 33.8138 123.399 33.9995 124.06 34.1762C124.739 34.353 125.507 34.4414 126.364 34.4414Z" fill="#00C58B" style="fill:#00C58B;fill:color(display-p3 0.0000 0.7725 0.5451);fill-opacity:1;"/>
<path d="M134.325 29.8801C134.325 28.6602 134.503 27.5906 134.861 26.6713C135.236 25.752 135.728 24.9917 136.335 24.3906C136.942 23.7718 137.639 23.3122 138.425 23.0116C139.211 22.6934 140.015 22.5343 140.837 22.5343C142.767 22.5343 144.268 23.1265 145.34 24.3111C146.43 25.4956 146.974 27.2635 146.974 29.6149C146.974 29.7917 146.966 29.995 146.948 30.2249C146.948 30.437 146.939 30.6315 146.921 30.8083H137.675C137.764 31.9221 138.157 32.7884 138.854 33.4072C139.569 34.0083 140.596 34.3088 141.936 34.3088C142.722 34.3088 143.437 34.2381 144.08 34.0967C144.741 33.9552 145.259 33.805 145.634 33.6459L146.063 36.2714C145.885 36.3596 145.634 36.457 145.313 36.5628C145.009 36.6514 144.652 36.7308 144.241 36.8015C143.848 36.8901 143.419 36.9607 142.955 37.0138C142.49 37.0669 142.017 37.0933 141.534 37.0933C140.301 37.0933 139.229 36.9164 138.318 36.5628C137.407 36.1916 136.657 35.6879 136.067 35.0514C135.477 34.3972 135.039 33.637 134.754 32.7707C134.468 31.8868 134.325 30.9232 134.325 29.8801ZM143.732 28.4481C143.732 28.0061 143.669 27.5906 143.544 27.2017C143.419 26.7951 143.232 26.4503 142.981 26.1674C142.749 25.8669 142.454 25.6371 142.097 25.4779C141.757 25.3011 141.346 25.2127 140.864 25.2127C140.364 25.2127 139.926 25.31 139.551 25.5044C139.176 25.6812 138.854 25.9199 138.586 26.2205C138.336 26.521 138.139 26.8658 137.996 27.2547C137.854 27.6437 137.755 28.0415 137.702 28.4481H143.732Z" fill="#00C58B" style="fill:#00C58B;fill:color(display-p3 0.0000 0.7725 0.5451);fill-opacity:1;"/>
<path d="M150.413 23.3299C151.038 23.1532 151.851 22.9852 152.852 22.8261C153.852 22.667 154.96 22.5874 156.175 22.5874C157.318 22.5874 158.274 22.7465 159.042 23.0648C159.811 23.3653 160.418 23.7985 160.865 24.3642C161.329 24.9123 161.651 25.5841 161.83 26.3797C162.026 27.1576 162.124 28.015 162.124 28.952V36.7489H158.882V29.4559C158.882 28.7134 158.828 28.0857 158.721 27.573C158.632 27.0426 158.471 26.6183 158.238 26.3001C158.024 25.9642 157.72 25.7255 157.327 25.5841C156.952 25.425 156.487 25.3454 155.934 25.3454C155.523 25.3454 155.094 25.3719 154.647 25.425C154.2 25.478 153.87 25.5222 153.655 25.5576V36.7489H150.413V23.3299Z" fill="#00C58B" style="fill:#00C58B;fill:color(display-p3 0.0000 0.7725 0.5451);fill-opacity:1;"/>
<path d="M165.929 19.2195L169.172 18.6891V22.8791H174.157V25.5576H169.172V31.2062C169.172 32.32 169.351 33.1156 169.708 33.5929C170.065 34.0702 170.673 34.3089 171.53 34.3089C172.12 34.3089 172.638 34.247 173.085 34.1233C173.549 33.9995 173.915 33.8846 174.184 33.7785L174.72 36.3242C174.344 36.4835 173.853 36.6427 173.245 36.8016C172.638 36.9784 171.923 37.067 171.102 37.067C170.101 37.067 169.261 36.9344 168.582 36.6691C167.921 36.404 167.394 36.0237 167.001 35.5287C166.608 35.0161 166.331 34.4062 166.17 33.699C166.01 32.9741 165.929 32.152 165.929 31.2327V19.2195Z" fill="#00C58B" style="fill:#00C58B;fill:color(display-p3 0.0000 0.7725 0.5451);fill-opacity:1;"/>
<path d="M185.278 25.7697C185.01 25.6813 184.635 25.5929 184.152 25.5045C183.688 25.3985 183.143 25.3454 182.517 25.3454C182.16 25.3454 181.776 25.3808 181.365 25.4515C180.972 25.5222 180.695 25.5841 180.534 25.6371V36.7489H177.292V23.5421C177.917 23.3123 178.694 23.1001 179.623 22.9057C180.57 22.6935 181.615 22.5874 182.759 22.5874C182.973 22.5874 183.223 22.6051 183.509 22.6404C183.795 22.6581 184.081 22.6935 184.367 22.7465C184.652 22.7819 184.93 22.8349 185.197 22.9057C185.466 22.9587 185.68 23.0117 185.841 23.0648L185.278 25.7697Z" fill="#00C58B" style="fill:#00C58B;fill:color(display-p3 0.0000 0.7725 0.5451);fill-opacity:1;"/>
<path d="M200.015 22.8792C198.568 28.1477 196.889 32.9211 194.977 37.1995C194.619 37.995 194.253 38.6759 193.878 39.2415C193.503 39.8074 193.083 40.2756 192.618 40.6472C192.154 41.0184 191.636 41.2834 191.064 41.4427C190.492 41.6195 189.831 41.7077 189.081 41.7077C188.581 41.7077 188.08 41.6546 187.58 41.5488C187.098 41.4427 186.731 41.3277 186.481 41.204L187.071 38.6316C187.714 38.8791 188.348 39.0028 188.974 39.0028C189.813 39.0028 190.466 38.7996 190.93 38.3929C191.412 38.0041 191.832 37.3939 192.19 36.5629C191.171 34.6184 190.188 32.4968 189.241 30.1985C188.312 27.9001 187.482 25.4604 186.749 22.8792H190.206C190.385 23.6217 190.599 24.4261 190.85 25.2924C191.117 26.1587 191.403 27.0427 191.707 27.9443C192.011 28.8283 192.333 29.7123 192.672 30.5962C193.012 31.4802 193.351 32.3023 193.69 33.0625C194.262 31.4891 194.798 29.8184 195.299 28.0504C195.799 26.2648 196.254 24.541 196.665 22.8792H200.015Z" fill="#00C58B" style="fill:#00C58B;fill:color(display-p3 0.0000 0.7725 0.5451);fill-opacity:1;"/>
<path fill-rule="evenodd" clip-rule="evenodd" d="M26.0823 43.281C19.5602 35.7758 17.6848 31.5574 14.3257 22.5857C10.6169 22.2104 4.89253 21.3348 4.62663 21.2931L3.66091 21.1471L3.26202 20.2646C0.896719 15.0386 0.182927 8.11697 0.154936 7.82507L0.0429688 6.7618L0.973696 6.17112C12.9332 -1.38292 38.2447 0.125106 39.3154 0.194601L36.5161 3.75273C36.5062 3.75273 36.4603 3.75034 36.3815 3.74623C34.5493 3.65079 14.7921 2.62162 3.87086 8.61731C4.28521 11.8032 5.05505 14.9335 6.16617 17.9504C8.26553 18.2562 13.1221 18.9581 15.7533 19.1666L16.901 19.2569L17.2999 20.3202C20.6589 29.278 22.1984 33.3712 28.8045 40.9807L26.0823 43.281ZM46.6213 42.4957L45.0959 38.5834C51.8863 29.7626 55.9033 19.1471 56.6426 8.06832C53.7499 6.76982 50.7293 5.77303 47.6291 5.09394L40.3651 14.3576L39.2877 14.156C31.2679 12.6619 24.8508 12.4882 15.6135 13.5306L15.2147 9.9794C24.4239 8.9509 30.96 9.06901 38.8678 10.452L46.1595 1.14667L47.2444 1.35515C47.531 1.41075 54.4031 2.74504 59.3857 5.45533L60.3584 5.99044V7.08843C60.3563 7.11212 60.3538 7.15279 60.3499 7.20981C60.2319 8.95874 59.0774 26.1151 46.6213 42.4957ZM29.3152 57.4162L30.1969 58L31.1416 57.5206C37.3417 54.3587 41.3726 48.2571 41.5406 47.9998L42.0795 47.1867L37.5307 36.8947C43.5701 29.4865 48.0415 23.4405 50.477 15.1915L47.0269 14.1908C44.6966 22.1062 40.1829 28.0132 34.0598 35.4907L33.36 36.3386L37.9857 46.8113C35.9254 49.584 33.3709 51.9582 30.4488 53.8166C30.3903 53.7724 30.3294 53.7263 30.2663 53.6788C26.9996 51.2168 17.7928 44.2779 10.3508 28.597L5.8791 28.1452C15.2353 47.9024 28.7343 57.0341 29.3152 57.4162Z" fill="#00C58B" style="fill:#00C58B;fill:color(display-p3 0.0000 0.7725 0.5451);fill-opacity:1;"/>
</g>
</g>
<defs>
<clipPath id="clip0_1_970">
<rect width="200" height="58" fill="white" style="fill:white;fill-opacity:1;"/>
</clipPath>
</defs>
</svg>
