<svg width="200" height="36" viewBox="0 0 200 36" fill="none" xmlns="http://www.w3.org/2000/svg">
<g clip-path="url(#clip0_1_986)">
<path d="M158.9 1.33655L140.458 27.2938" stroke="#00F6FA" style="stroke:#00F6FA;stroke:color(display-p3 0.0000 0.9647 0.9804);stroke-opacity:1;" stroke-width="1.27729" stroke-linecap="round" stroke-linejoin="round"/>
<path d="M158.9 1.33655L150.729 34.6221" stroke="#00F6FA" style="stroke:#00F6FA;stroke:color(display-p3 0.0000 0.9647 0.9804);stroke-opacity:1;" stroke-width="1.27729" stroke-linecap="round" stroke-linejoin="round"/>
<path d="M140.458 9.85657L150.729 34.6221" stroke="#00F6FA" style="stroke:#00F6FA;stroke:color(display-p3 0.0000 0.9647 0.9804);stroke-opacity:1;" stroke-width="1.27729" stroke-linecap="round" stroke-linejoin="round"/>
<path d="M158.9 1.33655L177.389 27.2938" stroke="#00F6FA" style="stroke:#00F6FA;stroke:color(display-p3 0.0000 0.9647 0.9804);stroke-opacity:1;" stroke-width="1.27729" stroke-linecap="round" stroke-linejoin="round"/>
<path d="M140.458 27.2938V9.85657" stroke="#00C58B" style="stroke:#00C58B;stroke:color(display-p3 0.0000 0.7725 0.5451);stroke-opacity:1;" stroke-width="1.27729" stroke-linecap="round" stroke-linejoin="round"/>
<path d="M140.458 9.85657L177.389 27.2938" stroke="#00C58B" style="stroke:#00C58B;stroke:color(display-p3 0.0000 0.7725 0.5451);stroke-opacity:1;" stroke-width="1.27729" stroke-linecap="round" stroke-linejoin="round"/>
<path d="M177.389 27.2938V9.85657" stroke="#00C58B" style="stroke:#00C58B;stroke:color(display-p3 0.0000 0.7725 0.5451);stroke-opacity:1;" stroke-width="1.27729" stroke-linecap="round" stroke-linejoin="round"/>
<path d="M184.118 22.4525H187.336C187.367 24.5214 189.122 26.1766 192.066 26.1766C194.581 26.1766 196.31 25.0842 196.31 23.28C196.31 17.8469 184.821 21.869 184.821 13.7628C184.821 10.7214 187.397 8.16418 191.882 8.16418C195.52 8.16418 199.1 10.0014 199.157 14.1973H195.886C195.856 12.2152 194.428 10.949 191.852 10.949C189.275 10.949 188.061 12.269 188.061 13.709C188.061 18.5628 199.646 14.9131 199.646 23.0442C199.646 26.4042 196.825 29.0194 191.974 29.0194C187.424 29.0028 184.118 26.3297 184.118 22.4525Z" fill="#00C58B" style="fill:#00C58B;fill:color(display-p3 0.0000 0.7725 0.5451);fill-opacity:1;"/>
<path d="M141.865 8.52002H139.048V11.189H141.865V8.52002Z" fill="#00C58B" style="fill:#00C58B;fill:color(display-p3 0.0000 0.7725 0.5451);fill-opacity:1;"/>
<path d="M178.799 8.52002H175.982V11.189H178.799V8.52002Z" fill="#00C58B" style="fill:#00C58B;fill:color(display-p3 0.0000 0.7725 0.5451);fill-opacity:1;"/>
<path d="M160.306 0H157.489V2.66897H160.306V0Z" fill="#00C58B" style="fill:#00C58B;fill:color(display-p3 0.0000 0.7725 0.5451);fill-opacity:1;"/>
<path d="M152.135 33.2855H149.319V35.9545H152.135V33.2855Z" fill="#00C58B" style="fill:#00C58B;fill:color(display-p3 0.0000 0.7725 0.5451);fill-opacity:1;"/>
<path d="M141.865 25.9614H139.048V28.6304H141.865V25.9614Z" fill="#00C58B" style="fill:#00C58B;fill:color(display-p3 0.0000 0.7725 0.5451);fill-opacity:1;"/>
<path d="M178.799 25.9614H175.982V28.6304H178.799V25.9614Z" fill="#00C58B" style="fill:#00C58B;fill:color(display-p3 0.0000 0.7725 0.5451);fill-opacity:1;"/>
<path d="M0 8.52002H7.8821C11.8559 8.52002 14.6725 11.0028 14.6725 14.7807C14.6725 18.5586 11.7336 21.1324 7.8821 21.1324H3.27511V28.6304H0V8.52002ZM7.55022 18.4511C9.82096 18.4511 11.3406 16.8993 11.3406 14.7724C11.3899 13.8067 11.0063 12.8661 10.2843 12.1828C9.5624 11.4995 8.56936 11.137 7.55022 11.1848H3.27511V18.4593L7.55022 18.4511Z" fill="#00C58B" style="fill:#00C58B;fill:color(display-p3 0.0000 0.7725 0.5451);fill-opacity:1;"/>
<path d="M60.3625 8.52002H63.6071V25.9573H72.9564V28.6304H60.3625V8.52002Z" fill="#00C58B" style="fill:#00C58B;fill:color(display-p3 0.0000 0.7725 0.5451);fill-opacity:1;"/>
<path d="M78.3799 25.9573H83.3319V11.1931H78.3799V8.52002H91.5589V11.1931H86.5764V25.9573H91.5589V28.6304H78.3799V25.9573Z" fill="#00C58B" style="fill:#00C58B;fill:color(display-p3 0.0000 0.7725 0.5451);fill-opacity:1;"/>
<path d="M123.079 25.9573V19.7793H131.087V17.1104H123.079V17.0814V11.1931H132.389V8.52002H119.808V28.6304H132.721V25.9573H123.079Z" fill="#00C58B" style="fill:#00C58B;fill:color(display-p3 0.0000 0.7725 0.5451);fill-opacity:1;"/>
<path d="M44.393 25.9573V19.7793H52.4018V17.1104H44.393V17.0814V11.1931H53.6987V8.52002H41.1179V28.6304H54.035V25.9573H44.393Z" fill="#00C58B" style="fill:#00C58B;fill:color(display-p3 0.0000 0.7725 0.5451);fill-opacity:1;"/>
<path d="M20.0349 8.52002H27.6419C32.0087 8.52002 34.7685 11.0483 34.7685 14.6979C34.8089 17.2872 33.1273 19.6211 30.5677 20.5283L35.2795 28.6304H31.7074L27.3712 20.9876H23.2795V28.6304H20.0349V8.52002ZM27.5109 18.2855C29.7205 18.2855 31.441 17.0814 31.441 14.6979C31.441 12.7407 30.0174 11.1931 27.4105 11.1931H23.2795V18.2855H27.5109Z" fill="#00C58B" style="fill:#00C58B;fill:color(display-p3 0.0000 0.7725 0.5451);fill-opacity:1;"/>
<path d="M104.258 20.2221H109.664V21.5917C109.664 23.8593 108.148 26.0441 104.904 26.0441C101.659 26.0441 100.144 23.8593 100.144 21.5917V15.5586C100.144 13.3159 101.817 11.1062 105.031 11.1062C107.555 11.1062 109.044 12.4717 109.568 14.1393H112.886C112.301 10.6428 109.271 8.14758 105.026 8.14758C100.297 8.14758 96.9258 11.2469 96.9258 15.3848V21.7614C96.9258 25.8993 100.17 29.0028 104.9 29.0028C109.629 29.0028 112.873 25.8993 112.873 21.7614V17.549H104.258V20.2221Z" fill="#00C58B" style="fill:#00C58B;fill:color(display-p3 0.0000 0.7725 0.5451);fill-opacity:1;"/>
</g>
<defs>
<clipPath id="clip0_1_986">
<rect width="200" height="36" fill="white" style="fill:white;fill-opacity:1;"/>
</clipPath>
</defs>
</svg>
