<svg width="200" height="38" viewBox="0 0 200 38" fill="none" xmlns="http://www.w3.org/2000/svg">
<g clip-path="url(#clip0_1_1014)">
<path d="M0 16.1363H20.6496V37.2532H36.1358V0.299805H0V16.1363ZM0 37.2532H15.473V21.4301H0V37.2532ZM86.7749 17.8241V12.5728H81.5983V32.6444H86.7749V25.0227C86.7749 19.729 88.6377 17.1056 95.1802 17.6136V12.1095C90.9994 12.1072 88.1845 13.5465 86.7749 17.8241ZM69.9229 4.90862H56.7964V32.6421H62.8005V22.6075H69.9229C75.7191 22.6075 79.6524 18.6276 79.6524 13.5465C79.6524 8.4654 75.7212 4.90862 69.9229 4.90862ZM68.9709 17.8667H62.842V9.65173H68.9709C72.2015 9.65173 73.6921 11.6417 73.6921 13.5465C73.6921 15.8744 72.2015 17.8667 68.9709 17.8667ZM169.484 15.8744C171.842 15.8744 172.795 16.8481 173.25 18.7955H178.426C177.93 14.0098 174.659 12.0625 169.484 12.0625C164.803 12.0625 161.078 14.0098 161.078 18.2874C161.078 22.6074 164.309 23.749 168.572 24.5122C172.298 25.1905 173.253 25.486 173.253 26.9252C173.253 28.3645 171.887 29.1279 169.981 29.1279C167.622 29.1279 166.296 27.8564 165.84 25.486H160.664C161.078 30.2717 164.35 33.1503 169.98 33.1503C175.157 33.1503 178.426 30.7373 178.426 26.4597C178.426 22.1397 175.157 21.1257 170.436 20.2348C167.496 19.6841 166.211 19.2611 166.211 17.8218C166.212 16.6803 167.454 15.8744 169.484 15.8744ZM152.342 9.18616H158.346V3.0463H152.342V9.18616ZM200 22.7351C200 16.5101 196.811 12.0647 190.352 12.0647C184.347 12.0647 180.498 16.3825 180.498 22.6075C180.498 28.8749 184.347 33.1503 190.352 33.1503C195.487 33.1503 198.591 30.7373 199.958 25.9515H194.367C193.746 28.322 192.091 28.9152 190.56 28.9152C187.867 28.9152 186.171 26.8403 185.879 23.9191H200V22.7351ZM185.879 20.5324C186.251 17.9919 187.743 16.087 190.352 16.087C193.002 16.087 194.616 17.8665 194.823 20.5324H185.879ZM105.595 12.0647C99.5907 12.0647 95.7405 16.3825 95.7405 22.6075C95.7405 28.8749 99.5907 33.1503 105.595 33.1503C110.73 33.1503 113.833 30.7373 115.202 25.9515H109.611C108.99 28.322 107.335 28.9152 105.803 28.9152C103.11 28.9152 101.414 26.8403 101.123 23.9191H115.243V22.7328C115.243 16.51 112.054 12.0647 105.595 12.0647ZM101.123 20.5324C101.495 17.9919 102.986 16.087 105.595 16.087C108.245 16.087 109.859 17.8665 110.067 20.5324H101.123ZM142.343 12.0647C139.529 12.0647 137.208 13.0809 135.801 15.8767C134.393 13.0832 132.034 12.0647 129.258 12.0647C126.94 12.0647 124.579 13.0809 123.171 15.8767V12.5728H117.995V32.6444H123.171V21.6785C123.171 18.2918 125.034 16.8101 127.354 16.8101C129.714 16.8101 131.121 18.2918 131.121 21.1704V32.6444H136.298V21.6785C136.298 18.5873 137.705 16.8101 140.439 16.8101C142.799 16.8101 144.206 18.2918 144.206 21.1704V32.6444H149.383V20.2371C149.381 14.9432 146.566 12.0647 142.343 12.0647ZM152.756 32.6421H157.932V12.5706H152.756V32.6421Z" fill="white" style="fill:white;fill-opacity:1;"/>
</g>
<defs>
<clipPath id="clip0_1_1014">
<rect width="200" height="38" fill="white" style="fill:white;fill-opacity:1;"/>
</clipPath>
</defs>
</svg>
