<svg width="201" height="42" viewBox="0 0 201 42" fill="none" xmlns="http://www.w3.org/2000/svg">
<g clip-path="url(#clip0_1_1016)">
<path d="M33.2756 5.96718C33.2756 6.79532 33.0316 7.60487 32.5744 8.29343C32.1173 8.98199 31.4675 9.51863 30.7073 9.8355C29.9471 10.1524 29.1106 10.2352 28.3036 10.0736C27.4966 9.91193 26.7553 9.51305 26.1736 8.92739C25.5919 8.34173 25.1958 7.5956 25.0354 6.78334C24.875 5.97109 24.9575 5.1292 25.2726 4.36416C25.5876 3.59912 26.1209 2.94528 26.8052 2.48535C27.4895 2.02542 28.2939 1.78005 29.1167 1.78027C30.2193 1.78264 31.276 2.22453 32.0556 3.00922C32.8353 3.7939 33.2732 4.85746 33.2756 5.96718Z" fill="white" style="fill:white;fill-opacity:1;"/>
<path d="M35.299 30.1259C35.299 31.1743 34.9901 32.1992 34.4114 33.0709C33.8327 33.9426 33.0101 34.622 32.0478 35.0232C31.0854 35.4244 30.0265 35.5294 29.0048 35.3248C27.9832 35.1203 27.0448 34.6154 26.3082 33.8741C25.5716 33.1328 25.07 32.1883 24.8668 31.1601C24.6636 30.1318 24.7679 29.066 25.1665 28.0974C25.5651 27.1289 26.2402 26.301 27.1063 25.7185C27.9724 25.1361 28.9907 24.8252 30.0323 24.8252C31.4283 24.8279 32.7664 25.3872 33.7535 26.3807C34.7406 27.3742 35.2963 28.7209 35.299 30.1259Z" fill="white" style="fill:white;fill-opacity:1;"/>
<path d="M23.5078 21.638C23.5832 22.8609 23.2967 24.0789 22.6843 25.138C22.072 26.197 21.1614 27.0495 20.0677 27.5877C18.974 28.1259 17.7462 28.3256 16.5398 28.1615C15.3333 27.9974 14.2022 27.4769 13.2897 26.6659C12.3771 25.8548 11.724 24.7897 11.4129 23.605C11.1018 22.4204 11.1467 21.1695 11.5419 20.0106C11.9372 18.8516 12.665 17.8367 13.6333 17.094C14.6017 16.3514 15.7671 15.9145 16.9822 15.8385C18.6103 15.7422 20.2102 16.298 21.4327 17.3845C22.6552 18.471 23.4012 20 23.5078 21.638Z" fill="white" style="fill:white;fill-opacity:1;"/>
<path d="M20.9887 31.1234C20.9887 31.5487 20.8633 31.9645 20.6286 32.3181C20.3938 32.6718 20.0601 32.9475 19.6697 33.1102C19.2792 33.273 18.8496 33.3155 18.4352 33.2326C18.0207 33.1496 17.64 32.9448 17.3411 32.644C17.0423 32.3433 16.8388 31.9601 16.7564 31.5429C16.6739 31.1258 16.7163 30.6934 16.878 30.3004C17.0397 29.9075 17.3136 29.5716 17.6649 29.3353C18.0163 29.099 18.4294 28.9729 18.852 28.9729C19.1327 28.9725 19.4108 29.0278 19.6702 29.1357C19.9296 29.2436 20.1653 29.402 20.3638 29.6018C20.5623 29.8016 20.7197 30.0388 20.8269 30.2999C20.9341 30.561 20.9891 30.8409 20.9887 31.1234Z" fill="white" style="fill:white;fill-opacity:1;"/>
<path d="M28.5433 39.2277C28.545 39.4501 28.5026 39.6706 28.4189 39.8763C28.3351 40.0821 28.2114 40.269 28.0552 40.4262C27.899 40.5835 27.7133 40.7079 27.5088 40.7922C27.3044 40.8765 27.0854 40.9192 26.8644 40.9175C26.4192 40.9175 25.9921 40.7395 25.6773 40.4226C25.3624 40.1057 25.1855 39.6759 25.1855 39.2277C25.1855 38.7796 25.3624 38.3498 25.6773 38.0329C25.9921 37.716 26.4192 37.538 26.8644 37.538C27.0854 37.5364 27.3044 37.579 27.5088 37.6633C27.7133 37.7476 27.899 37.872 28.0552 38.0293C28.2114 38.1865 28.3351 38.3734 28.4189 38.5792C28.5026 38.7849 28.545 39.0054 28.5433 39.2277Z" fill="white" style="fill:white;fill-opacity:1;"/>
<path d="M37.321 9.15445C37.321 9.31392 37.274 9.46978 37.186 9.60238C37.0979 9.73497 36.9728 9.83833 36.8264 9.89936C36.6801 9.96038 36.519 9.97633 36.3636 9.94522C36.2082 9.91411 36.0654 9.83732 35.9534 9.72455C35.8414 9.61179 35.7651 9.46815 35.7341 9.31174C35.7032 9.15534 35.7191 8.9932 35.7797 8.84586C35.8404 8.69853 35.943 8.5726 36.0748 8.48401C36.2065 8.39541 36.3614 8.34814 36.5199 8.34814C36.732 8.34932 36.9351 8.43465 37.085 8.58561C37.235 8.73656 37.3198 8.94097 37.321 9.15445Z" fill="white" style="fill:white;fill-opacity:1;"/>
<path d="M7.93778 22.0215C7.93778 22.8116 7.70501 23.5839 7.2689 24.2408C6.83279 24.8977 6.21293 25.4097 5.48772 25.712C4.7625 26.0144 3.96449 26.0934 3.1946 25.9393C2.42471 25.7852 1.71752 25.4047 1.16246 24.8461C0.6074 24.2874 0.229403 23.5757 0.0762621 22.8008C-0.0768783 22.0259 0.00172181 21.2228 0.302118 20.4929C0.602513 19.7629 1.11121 19.1391 1.76389 18.7002C2.41657 18.2612 3.18392 18.027 3.96889 18.027C4.49199 18.02 5.01118 18.1186 5.49581 18.3169C5.98044 18.5152 6.42071 18.8092 6.79063 19.1815C7.16055 19.5538 7.45263 19.9969 7.64966 20.4847C7.84668 20.9725 7.94465 21.495 7.93778 22.0215Z" fill="white" style="fill:white;fill-opacity:1;"/>
<path d="M5.57228 28.7045C5.57228 29.1071 5.45368 29.5006 5.23147 29.8353C5.00927 30.17 4.69343 30.4309 4.32392 30.5849C3.95441 30.739 3.54781 30.7792 3.15554 30.7007C2.76327 30.6222 2.40294 30.4283 2.12013 30.1437C1.83731 29.8591 1.64472 29.4964 1.56669 29.1016C1.48866 28.7068 1.5287 28.2975 1.68176 27.9256C1.83482 27.5537 2.09401 27.2359 2.42657 27.0122C2.75912 26.7886 3.1501 26.6692 3.55005 26.6692C3.81603 26.6677 4.07965 26.7194 4.32567 26.8211C4.57168 26.9229 4.7952 27.0727 4.98327 27.262C5.17134 27.4513 5.32024 27.6763 5.42134 27.9239C5.52245 28.1715 5.57375 28.4368 5.57228 28.7045Z" fill="white" style="fill:white;fill-opacity:1;"/>
<path d="M26.489 13.9183C26.489 14.5261 26.3099 15.1202 25.9744 15.6256C25.6389 16.131 25.162 16.5249 24.6041 16.7574C24.0462 16.99 23.4323 17.0509 22.84 16.9324C22.2477 16.8138 21.7036 16.5211 21.2766 16.0913C20.8496 15.6615 20.5588 15.1139 20.441 14.5178C20.3232 13.9217 20.3836 13.3038 20.6147 12.7423C20.8458 12.1807 21.2372 11.7008 21.7393 11.3631C22.2414 11.0254 22.8318 10.8452 23.4357 10.8452C24.2447 10.8476 25.02 11.1721 25.5921 11.7479C26.1642 12.3237 26.4867 13.104 26.489 13.9183Z" fill="white" style="fill:white;fill-opacity:1;"/>
<path d="M17.7453 13.3413C17.7458 13.5281 17.7096 13.7131 17.6387 13.8858C17.5679 14.0584 17.4639 14.2153 17.3327 14.3473C17.2015 14.4794 17.0456 14.5841 16.8741 14.6554C16.7025 14.7266 16.5187 14.7631 16.3331 14.7626C15.9586 14.7626 15.5994 14.6129 15.3345 14.3463C15.0697 14.0798 14.9209 13.7182 14.9209 13.3413C14.9209 12.9643 15.0697 12.6028 15.3345 12.3362C15.5994 12.0697 15.9586 11.9199 16.3331 11.9199C16.7039 11.9319 17.0562 12.0856 17.3185 12.3496C17.5808 12.6136 17.7334 12.9681 17.7453 13.3413Z" fill="white" style="fill:white;fill-opacity:1;"/>
<path d="M24.9566 9.04372C24.9566 9.26489 24.8914 9.48111 24.7693 9.66501C24.6473 9.84892 24.4737 9.99226 24.2707 10.0769C24.0677 10.1615 23.8443 10.1837 23.6287 10.1405C23.4132 10.0974 23.2152 9.99085 23.0598 9.83446C22.9044 9.67806 22.7986 9.47882 22.7557 9.26189C22.7129 9.04497 22.7349 8.8201 22.819 8.61575C22.9031 8.41141 23.0455 8.23675 23.2282 8.11387C23.4109 7.99099 23.6257 7.92542 23.8455 7.92542C24.1402 7.92542 24.4228 8.04325 24.6312 8.25297C24.8395 8.4627 24.9566 8.74712 24.9566 9.04372Z" fill="white" style="fill:white;fill-opacity:1;"/>
<path d="M33.7721 22.1368C33.7721 22.5318 33.6557 22.918 33.4377 23.2464C33.2196 23.5749 32.9097 23.8309 32.5471 23.982C32.1845 24.1332 31.7855 24.1728 31.4005 24.0957C31.0156 24.0186 30.662 23.8284 30.3844 23.5491C30.1069 23.2698 29.9179 22.9139 29.8414 22.5264C29.7648 22.139 29.8041 21.7374 29.9543 21.3724C30.1045 21.0075 30.3588 20.6956 30.6852 20.4761C31.0115 20.2567 31.3952 20.1395 31.7877 20.1395C32.0496 20.1345 32.3099 20.1828 32.5529 20.2813C32.796 20.3799 33.0167 20.5269 33.202 20.7133C33.3872 20.8998 33.5332 21.122 33.6312 21.3666C33.7292 21.6112 33.7771 21.8731 33.7721 22.1368Z" fill="white" style="fill:white;fill-opacity:1;"/>
<path d="M29.6501 19.4864C29.6501 19.9878 29.5024 20.4779 29.2256 20.8948C28.9488 21.3118 28.5554 21.6367 28.0951 21.8285C27.6349 22.0204 27.1284 22.0707 26.6398 21.9728C26.1512 21.875 25.7023 21.6336 25.3501 21.279C24.9978 20.9245 24.7579 20.4727 24.6607 19.9809C24.5635 19.4892 24.6134 18.9794 24.804 18.5162C24.9947 18.0529 25.3175 17.657 25.7318 17.3784C26.146 17.0998 26.633 16.9512 27.1312 16.9512C27.7974 16.957 28.4348 17.226 28.9059 17.7002C29.377 18.1744 29.6443 18.8158 29.6501 19.4864Z" fill="white" style="fill:white;fill-opacity:1;"/>
<path d="M24.6512 33.6978C24.6512 34.032 24.5528 34.3586 24.3683 34.6365C24.1838 34.9144 23.9216 35.131 23.6148 35.2589C23.3081 35.3868 22.9705 35.4202 22.6448 35.355C22.3191 35.2898 22.02 35.1289 21.7852 34.8926C21.5504 34.6562 21.3905 34.3552 21.3257 34.0274C21.2609 33.6996 21.2942 33.3599 21.4213 33.0511C21.5483 32.7423 21.7635 32.4784 22.0396 32.2927C22.3157 32.1071 22.6403 32.008 22.9723 32.008C23.1933 32.0063 23.4123 32.0489 23.6167 32.1333C23.8212 32.2176 24.0069 32.342 24.1631 32.4992C24.3193 32.6565 24.443 32.8434 24.5267 33.0492C24.6105 33.2549 24.6529 33.4754 24.6512 33.6978Z" fill="white" style="fill:white;fill-opacity:1;"/>
<path d="M5.11332 15.3006C5.11332 15.7337 4.98572 16.157 4.74667 16.5171C4.50762 16.8772 4.16784 17.1578 3.77031 17.3236C3.37278 17.4893 2.93535 17.5327 2.51333 17.4482C2.09132 17.3637 1.70367 17.1551 1.39942 16.8489C1.09516 16.5427 0.887956 16.1525 0.804011 15.7278C0.720067 15.303 0.763148 14.8628 0.927811 14.4627C1.09247 14.0626 1.37132 13.7206 1.72909 13.48C2.08686 13.2394 2.50748 13.111 2.93777 13.111C3.22351 13.1108 3.50647 13.1673 3.77049 13.2773C4.03451 13.3873 4.27439 13.5486 4.47644 13.752C4.67849 13.9553 4.83873 14.1968 4.94801 14.4625C5.05729 14.7282 5.11347 15.013 5.11332 15.3006Z" fill="white" style="fill:white;fill-opacity:1;"/>
<path d="M6.41133 32.1992C6.41133 32.4498 6.3375 32.6947 6.19917 32.9031C6.06084 33.1115 5.86423 33.2738 5.6342 33.3697C5.40416 33.4656 5.15104 33.4907 4.90684 33.4419C4.66264 33.393 4.43833 33.2723 4.26227 33.0951C4.08621 32.9179 3.96632 32.6921 3.91774 32.4463C3.86917 32.2006 3.8941 31.9458 3.98938 31.7143C4.08467 31.4828 4.24602 31.2849 4.45304 31.1457C4.66006 31.0064 4.90346 30.9321 5.15244 30.9321C5.48331 30.9417 5.79802 31.0783 6.03208 31.3138C6.26614 31.5494 6.40182 31.8661 6.41133 32.1992Z" fill="white" style="fill:white;fill-opacity:1;"/>
<path d="M27.2854 23.9026C27.2854 24.1532 27.2115 24.3981 27.0732 24.6065C26.9349 24.8148 26.7383 24.9772 26.5082 25.0731C26.2782 25.169 26.0251 25.1941 25.7809 25.1452C25.5367 25.0963 25.3124 24.9757 25.1363 24.7985C24.9602 24.6213 24.8403 24.3955 24.7918 24.1497C24.7432 23.9039 24.7681 23.6492 24.8634 23.4177C24.9587 23.1862 25.12 22.9883 25.3271 22.849C25.5341 22.7098 25.7775 22.6355 26.0265 22.6355C26.3552 22.6515 26.6663 22.7902 26.899 23.0244C27.1317 23.2586 27.2695 23.5717 27.2854 23.9026Z" fill="white" style="fill:white;fill-opacity:1;"/>
<path d="M33.6965 10.7289C33.6965 10.9795 33.6227 11.2244 33.4844 11.4328C33.3461 11.6411 33.1496 11.8035 32.9196 11.8994C32.6897 11.9954 32.4366 12.0205 32.1924 11.9717C31.9482 11.9229 31.7239 11.8024 31.5478 11.6253C31.3717 11.4482 31.2517 11.2225 31.203 10.9768C31.1543 10.7311 31.1791 10.4764 31.2742 10.2448C31.3693 10.0133 31.5305 9.81536 31.7374 9.676C31.9443 9.53664 32.1876 9.46214 32.4365 9.46191C32.7695 9.46483 33.088 9.59928 33.3235 9.83626C33.5589 10.0732 33.6925 10.3938 33.6954 10.7289" fill="white" style="fill:white;fill-opacity:1;"/>
<path d="M38.9624 30.855C38.9624 31.1664 38.8706 31.4708 38.6987 31.7297C38.5268 31.9887 38.2825 32.1905 37.9966 32.3096C37.7108 32.4288 37.3962 32.46 37.0927 32.3993C36.7893 32.3385 36.5105 32.1885 36.2917 31.9683C36.0729 31.7481 35.9239 31.4676 35.8636 31.1621C35.8032 30.8567 35.8342 30.5401 35.9526 30.2524C36.071 29.9647 36.2715 29.7188 36.5288 29.5457C36.786 29.3727 37.0885 29.2804 37.3979 29.2804C37.8103 29.2887 38.2034 29.4572 38.4951 29.7507C38.7867 30.0443 38.9541 30.4399 38.9624 30.855Z" fill="white" style="fill:white;fill-opacity:1;"/>
<path d="M35.451 35.3115C35.451 35.4787 35.4017 35.6421 35.3094 35.7812C35.2171 35.9202 35.0859 36.0286 34.9324 36.0926C34.779 36.1566 34.6101 36.1733 34.4471 36.1407C34.2842 36.1081 34.1345 36.0275 34.017 35.9093C33.8995 35.7911 33.8196 35.6404 33.7871 35.4764C33.7547 35.3124 33.7714 35.1424 33.8349 34.9879C33.8985 34.8335 34.0062 34.7014 34.1443 34.6085C34.2825 34.5157 34.4449 34.4661 34.611 34.4661C34.8311 34.4744 35.04 34.5661 35.1958 34.7229C35.3516 34.8797 35.4427 35.0899 35.451 35.3115Z" fill="white" style="fill:white;fill-opacity:1;"/>
<path d="M36.7864 33.5446C36.7864 33.7118 36.7372 33.8753 36.6449 34.0143C36.5526 34.1533 36.4214 34.2617 36.2679 34.3257C36.1144 34.3897 35.9455 34.4064 35.7826 34.3738C35.6196 34.3411 35.4699 34.2606 35.3525 34.1424C35.235 34.0241 35.155 33.8735 35.1226 33.7095C35.0902 33.5455 35.1068 33.3755 35.1704 33.2211C35.234 33.0666 35.3416 32.9345 35.4798 32.8416C35.6179 32.7487 35.7803 32.6991 35.9464 32.6991C36.0574 32.6969 36.1676 32.7172 36.2706 32.7588C36.3735 32.8005 36.467 32.8627 36.5455 32.9417C36.6239 33.0207 36.6857 33.1148 36.7271 33.2184C36.7685 33.322 36.7887 33.4329 36.7864 33.5446Z" fill="white" style="fill:white;fill-opacity:1;"/>
<path d="M13.891 13.2641C13.891 14.0009 13.6739 14.721 13.2672 15.3336C12.8606 15.9462 12.2825 16.4237 11.6062 16.7056C10.93 16.9875 10.1858 17.0613 9.46783 16.9176C8.74989 16.7739 8.09041 16.4191 7.5728 15.8981C7.05519 15.3772 6.7027 14.7134 6.55989 13.9908C6.41708 13.2682 6.49037 12.5193 6.7705 11.8386C7.05063 11.1579 7.52501 10.5762 8.13365 10.1668C8.7423 9.75753 9.45787 9.53906 10.1899 9.53906C11.1711 9.54025 12.1118 9.93306 12.8057 10.6314C13.4995 11.3297 13.8898 12.2765 13.891 13.2641Z" fill="white" style="fill:white;fill-opacity:1;"/>
<path d="M41.0234 25.0958C41.0611 25.711 40.9167 26.3237 40.6085 26.8563C40.3003 27.389 39.8421 27.8177 39.2918 28.0882C38.7415 28.3588 38.1238 28.459 37.517 28.3763C36.9101 28.2935 36.3412 28.0316 35.8822 27.6234C35.4233 27.2153 35.0949 26.6793 34.9385 26.0834C34.7822 25.4874 34.805 24.8581 35.0039 24.2752C35.2029 23.6922 35.5692 23.1818 36.0564 22.8083C36.5436 22.4348 37.1299 22.2151 37.7412 22.177C38.1481 22.1469 38.557 22.1989 38.9437 22.33C39.3304 22.4612 39.6871 22.6689 39.9929 22.9408C40.2987 23.2128 40.5474 23.5435 40.7244 23.9136C40.9014 24.2836 41.003 24.6856 41.0234 25.0958Z" fill="white" style="fill:white;fill-opacity:1;"/>
<path d="M13.8133 3.20282C13.8327 3.48779 13.7676 3.77215 13.6264 4.0199C13.4851 4.26766 13.274 4.46768 13.0198 4.59465C12.7656 4.72162 12.4796 4.76982 12.1982 4.73318C11.9167 4.69653 11.6524 4.57669 11.4386 4.38879C11.2249 4.20089 11.0713 3.95338 10.9973 3.6776C10.9234 3.40183 10.9323 3.11019 11.0231 2.83956C11.1139 2.56893 11.2824 2.33145 11.5073 2.15724C11.7323 1.98303 12.0035 1.87991 12.2866 1.86088C12.6652 1.83807 13.0375 1.96599 13.3231 2.21707C13.6087 2.46814 13.7848 2.82221 13.8133 3.20282Z" fill="white" style="fill:white;fill-opacity:1;"/>
<path d="M32.2078 13.5729C32.2272 13.8578 32.1621 14.1422 32.0209 14.39C31.8797 14.6377 31.6686 14.8377 31.4143 14.9647C31.1601 15.0917 30.8742 15.1399 30.5927 15.1032C30.3112 15.0666 30.0469 14.9467 29.8331 14.7588C29.6194 14.5709 29.4658 14.3234 29.3918 14.0477C29.3179 13.7719 29.3269 13.4802 29.4177 13.2096C29.5085 12.939 29.677 12.7015 29.9019 12.5273C30.1268 12.3531 30.398 12.25 30.6812 12.2309C31.0581 12.215 31.4267 12.3453 31.7108 12.595C31.9949 12.8448 32.1728 13.1948 32.2078 13.5729Z" fill="white" style="fill:white;fill-opacity:1;"/>
<path d="M20.3011 10.8452C20.3205 11.1302 20.2554 11.4146 20.1142 11.6623C19.9729 11.9101 19.7618 12.1101 19.5076 12.2371C19.2534 12.364 18.9674 12.4122 18.686 12.3756C18.4045 12.3389 18.1402 12.2191 17.9264 12.0312C17.7127 11.8433 17.5591 11.5958 17.4851 11.3201C17.4112 11.0443 17.4201 10.7526 17.5109 10.482C17.6017 10.2113 17.7702 9.97391 17.9951 9.7997C18.22 9.62548 18.4912 9.52233 18.7744 9.5033C18.9643 9.47932 19.1571 9.49604 19.3402 9.55234C19.5232 9.60864 19.6924 9.70325 19.8365 9.82997C19.9807 9.95669 20.0966 10.1126 20.1767 10.2876C20.2567 10.4626 20.2991 10.6526 20.3011 10.8452Z" fill="white" style="fill:white;fill-opacity:1;"/>
<path d="M7.97576 6.50401C7.99075 6.69383 7.9495 6.88388 7.8572 7.05009C7.76491 7.21631 7.62572 7.35125 7.45723 7.43785C7.28874 7.52446 7.09852 7.55884 6.91062 7.53665C6.72272 7.51446 6.54558 7.43669 6.40158 7.31318C6.25759 7.18968 6.15321 7.02597 6.10165 6.84277C6.05008 6.65956 6.05365 6.46509 6.11189 6.28392C6.17014 6.10276 6.28045 5.94305 6.42887 5.82497C6.57729 5.7069 6.75717 5.63578 6.94575 5.62058C7.07191 5.6057 7.19976 5.61715 7.32131 5.65427C7.44285 5.69138 7.55548 5.75335 7.65215 5.83627C7.74882 5.91919 7.82746 6.02128 7.88314 6.13618C7.93882 6.25108 7.97035 6.37629 7.97576 6.50401Z" fill="white" style="fill:white;fill-opacity:1;"/>
<path d="M10.1134 4.54586C10.1284 4.73568 10.0872 4.92569 9.99489 5.09191C9.9026 5.25812 9.76341 5.39306 9.59492 5.47967C9.42643 5.56627 9.23622 5.60066 9.04832 5.57847C8.86041 5.55628 8.68327 5.47854 8.53927 5.35503C8.39528 5.23153 8.29091 5.06782 8.23934 4.88462C8.18778 4.70141 8.19134 4.50694 8.24959 4.32577C8.30783 4.14461 8.41814 3.98486 8.56656 3.86679C8.71498 3.74871 8.89486 3.67759 9.08344 3.6624C9.33539 3.64671 9.58355 3.73002 9.77568 3.89481C9.9678 4.0596 10.0889 4.29301 10.1134 4.54586Z" fill="white" style="fill:white;fill-opacity:1;"/>
<path d="M32.4758 16.4133C32.4907 16.6031 32.4495 16.7931 32.3572 16.9594C32.2649 17.1256 32.1257 17.2605 31.9572 17.3471C31.7887 17.4337 31.5985 17.4681 31.4106 17.4459C31.2227 17.4237 31.0456 17.346 30.9016 17.2224C30.7576 17.0989 30.6532 16.9352 30.6016 16.752C30.5501 16.5688 30.5536 16.3744 30.6119 16.1932C30.6701 16.012 30.7804 15.8523 30.9289 15.7342C31.0773 15.6162 31.2572 15.545 31.4457 15.5298C31.5723 15.5125 31.7011 15.5222 31.8237 15.5584C31.9462 15.5945 32.0598 15.6563 32.157 15.7397C32.2543 15.8231 32.3329 15.9262 32.3878 16.0423C32.4427 16.1583 32.4727 16.2848 32.4758 16.4133Z" fill="white" style="fill:white;fill-opacity:1;"/>
<path d="M16.2565 34.0813C16.3092 34.9852 16.0944 35.8846 15.6393 36.6657C15.1842 37.4468 14.5091 38.0745 13.6995 38.4695C12.8899 38.8645 11.9822 39.0089 11.091 38.8846C10.1998 38.7603 9.36531 38.3729 8.69294 37.7712C8.02057 37.1696 7.54056 36.3808 7.31361 35.5045C7.08666 34.6283 7.12297 33.704 7.41794 32.8486C7.71291 31.9931 8.2533 31.2449 8.97077 30.6986C9.68823 30.1522 10.5505 29.8323 11.4487 29.7792C12.6507 29.7175 13.8287 30.1341 14.7282 30.939C15.6277 31.7439 16.1766 32.8726 16.2565 34.0813Z" fill="white" style="fill:white;fill-opacity:1;"/>
<path d="M23.891 29.5868C23.9098 29.8414 23.8533 30.0959 23.7284 30.3181C23.6036 30.5403 23.4161 30.7202 23.1896 30.8351C22.9631 30.9501 22.7079 30.9948 22.4561 30.9637C22.2044 30.9326 21.9675 30.8271 21.7753 30.6605C21.5832 30.4938 21.4445 30.2736 21.3767 30.0276C21.3089 29.7816 21.3152 29.5209 21.3946 29.2785C21.4741 29.0361 21.6232 28.8228 21.8231 28.6657C22.023 28.5086 22.2647 28.4147 22.5176 28.3958C22.8565 28.3712 23.1913 28.4827 23.4487 28.7059C23.7061 28.9291 23.8651 29.2458 23.891 29.5868Z" fill="white" style="fill:white;fill-opacity:1;"/>
<path d="M22.8198 4.04707C22.8726 4.89783 22.6736 5.74526 22.2479 6.48219C21.8223 7.21913 21.189 7.81247 20.4283 8.18718C19.6676 8.5619 18.8135 8.70117 17.9742 8.58737C17.1348 8.47356 16.3478 8.1118 15.7128 7.54783C15.0777 6.98387 14.623 6.24301 14.4063 5.41898C14.1895 4.59494 14.2204 3.72472 14.4951 2.91836C14.7697 2.112 15.2758 1.40574 15.9493 0.888849C16.6227 0.371961 17.4334 0.0676902 18.2787 0.0144944C18.8422 -0.0317728 19.4092 0.0368647 19.9457 0.216292C20.4823 0.39572 20.9774 0.682247 21.4014 1.05874C21.8253 1.43523 22.1695 1.89393 22.4132 2.4074C22.6569 2.92087 22.7952 3.47855 22.8198 4.04707Z" fill="white" style="fill:white;fill-opacity:1;"/>
<path d="M41.0235 14.4942C41.0763 15.3299 40.8817 16.1627 40.4643 16.8871C40.0469 17.6115 39.4255 18.1951 38.6785 18.564C37.9316 18.9329 37.0927 19.0706 36.268 18.9596C35.4433 18.8487 34.6698 18.494 34.0453 17.9406C33.4209 17.3872 32.9735 16.6599 32.7598 15.8505C32.5461 15.0412 32.5756 14.1863 32.8447 13.3938C33.1138 12.6014 33.6103 11.9071 34.2714 11.3987C34.9326 10.8903 35.7287 10.5907 36.5591 10.5377C37.1107 10.5007 37.6641 10.5738 38.1876 10.7529C38.711 10.932 39.1941 11.2136 39.609 11.5813C40.0239 11.949 40.3625 12.3957 40.6052 12.8956C40.848 13.3955 40.9902 13.9388 41.0235 14.4942Z" fill="white" style="fill:white;fill-opacity:1;"/>
<path d="M22.8968 38.267C22.9421 38.9583 22.7827 39.6476 22.4388 40.2477C22.0949 40.8477 21.582 41.3317 20.9648 41.6384C20.3476 41.945 19.6539 42.0606 18.9715 41.9704C18.289 41.8803 17.6485 41.5884 17.1308 41.1319C16.6131 40.6753 16.2416 40.0745 16.0632 39.4054C15.8849 38.7363 15.9076 38.029 16.1286 37.373C16.3497 36.7169 16.759 36.1415 17.305 35.7196C17.8509 35.2977 18.5089 35.0482 19.1957 35.0027C20.1157 34.9453 21.021 35.2562 21.7143 35.8676C22.4075 36.4791 22.8326 37.3415 22.8968 38.267Z" fill="white" style="fill:white;fill-opacity:1;"/>
<path d="M6.14345 8.3101C6.1547 8.47335 6.1176 8.6363 6.03685 8.77833C5.9561 8.92037 5.83533 9.03512 5.68979 9.10808C5.54425 9.18104 5.38049 9.20891 5.2192 9.18821C5.05791 9.16751 4.90634 9.09915 4.78365 8.99177C4.66096 8.88439 4.57266 8.74282 4.52991 8.58493C4.48716 8.42705 4.49187 8.25994 4.54346 8.10475C4.59505 7.94957 4.6912 7.81327 4.81975 7.71307C4.9483 7.61287 5.10349 7.55326 5.26568 7.54182C5.37431 7.52972 5.48425 7.54041 5.58857 7.57321C5.6929 7.60601 5.78933 7.6602 5.8718 7.73239C5.95427 7.80457 6.021 7.89318 6.06775 7.99261C6.1145 8.09204 6.14028 8.20015 6.14345 8.3101Z" fill="white" style="fill:white;fill-opacity:1;"/>
<path d="M15.57 39.9189C15.585 40.1087 15.5437 40.2987 15.4514 40.4649C15.3591 40.6311 15.2199 40.7661 15.0515 40.8527C14.883 40.9393 14.6928 40.9737 14.5049 40.9515C14.317 40.9293 14.1398 40.8515 13.9958 40.728C13.8518 40.6045 13.7474 40.4408 13.6959 40.2576C13.6443 40.0744 13.6479 39.8799 13.7061 39.6988C13.7644 39.5176 13.8747 39.3579 14.0231 39.2398C14.1715 39.1217 14.3514 39.0506 14.54 39.0354C14.7921 39.0189 15.0407 39.1019 15.2331 39.2668C15.4254 39.4318 15.5462 39.6657 15.57 39.9189Z" fill="white" style="fill:white;fill-opacity:1;"/>
<path d="M10.5711 19.7548C10.5853 19.9902 10.5299 20.2246 10.4119 20.4283C10.2938 20.6321 10.1185 20.796 9.9079 20.8995C9.69733 21.003 9.461 21.0413 9.22879 21.0097C8.99657 20.9781 8.77887 20.878 8.60319 20.7219C8.4275 20.5658 8.3017 20.3609 8.24169 20.1329C8.18167 19.9049 8.19014 19.6641 8.266 19.441C8.34186 19.2178 8.48173 19.0223 8.66793 18.8791C8.85414 18.7359 9.07832 18.6515 9.31218 18.6365C9.62305 18.6303 9.92492 18.7418 10.158 18.9488C10.3912 19.1559 10.5386 19.4435 10.5711 19.7548Z" fill="white" style="fill:white;fill-opacity:1;"/>
<path d="M24.5375 40.8794C24.5451 41.0465 24.5032 41.212 24.4173 41.355C24.3313 41.4981 24.2052 41.6124 24.0548 41.6833C23.9044 41.7542 23.7364 41.7786 23.5722 41.7535C23.408 41.7284 23.2548 41.6549 23.1321 41.5422C23.0094 41.4295 22.9227 41.2827 22.8829 41.1203C22.8431 40.958 22.852 40.7875 22.9084 40.6303C22.9649 40.473 23.0664 40.3362 23.2002 40.2371C23.3339 40.1379 23.4938 40.0809 23.6598 40.0732C23.8803 40.0708 24.0936 40.1526 24.2565 40.3023C24.4194 40.4519 24.5198 40.6582 24.5375 40.8794Z" fill="white" style="fill:white;fill-opacity:1;"/>
<path d="M10.2656 22.943C10.2731 23.11 10.2312 23.2755 10.1453 23.4186C10.0594 23.5617 9.93322 23.6759 9.7828 23.7468C9.63238 23.8178 9.46445 23.8422 9.30022 23.8171C9.136 23.792 8.98286 23.7184 8.86017 23.6057C8.73748 23.493 8.65074 23.3462 8.61092 23.1839C8.5711 23.0216 8.57999 22.8511 8.63646 22.6939C8.69293 22.5366 8.79445 22.3998 8.92818 22.3006C9.06191 22.2014 9.22185 22.1444 9.38778 22.1367C9.60631 22.1413 9.81576 22.2256 9.97721 22.3739C10.1387 22.5222 10.2411 22.7244 10.2656 22.943Z" fill="white" style="fill:white;fill-opacity:1;"/>
<path d="M12.8979 6.46715C12.9091 6.7367 12.8406 7.00354 12.7012 7.23393C12.5617 7.46432 12.3575 7.64791 12.1144 7.76152C11.8713 7.87512 11.6001 7.91365 11.3353 7.87219C11.0704 7.83074 10.8237 7.71117 10.6263 7.52863C10.429 7.34608 10.2898 7.10875 10.2264 6.84662C10.163 6.58448 10.1783 6.30931 10.2703 6.05591C10.3623 5.80251 10.5268 5.58223 10.7432 5.42294C10.9595 5.26365 11.2179 5.17249 11.4857 5.16098C11.8448 5.14672 12.1949 5.27611 12.4595 5.52085C12.7241 5.7656 12.8818 6.10581 12.8979 6.46715Z" fill="white" style="fill:white;fill-opacity:1;"/>
<path d="M23.8121 0.819651C23.8202 0.91113 23.8095 1.00332 23.7808 1.09049C23.7521 1.17765 23.7058 1.25796 23.645 1.32641C23.5842 1.39487 23.51 1.45001 23.4272 1.48845C23.3443 1.5269 23.2545 1.54783 23.1632 1.54992C23.0729 1.5552 22.9825 1.54248 22.8971 1.51248C22.8117 1.48248 22.733 1.4358 22.6656 1.37512C22.5982 1.31443 22.5434 1.24093 22.5042 1.15885C22.4651 1.07677 22.4425 0.987717 22.4377 0.896814C22.4296 0.805335 22.4403 0.713174 22.469 0.62601C22.4977 0.538845 22.544 0.458541 22.6048 0.390084C22.6656 0.321627 22.7398 0.266458 22.8226 0.228011C22.9055 0.189565 22.9953 0.168669 23.0866 0.166581C23.2676 0.161104 23.4439 0.225822 23.5789 0.347356C23.7139 0.46889 23.7974 0.637943 23.8121 0.819651Z" fill="white" style="fill:white;fill-opacity:1;"/>
<path d="M1.71778 17.7967C1.72525 17.9333 1.69231 18.0691 1.62311 18.187C1.5539 18.3048 1.45156 18.3993 1.32899 18.4586C1.20643 18.5179 1.06915 18.5393 0.93451 18.5201C0.79987 18.5009 0.673909 18.4419 0.572546 18.3507C0.471184 18.2595 0.398968 18.14 0.365027 18.0075C0.331086 17.875 0.336948 17.7353 0.381862 17.6061C0.426776 17.4769 0.508725 17.364 0.617365 17.2817C0.726004 17.1994 0.856453 17.1513 0.992222 17.1436C1.08262 17.1378 1.17325 17.1503 1.25884 17.1801C1.34442 17.2099 1.42326 17.2565 1.49078 17.3173C1.55829 17.3781 1.61313 17.4518 1.6521 17.5341C1.69107 17.6164 1.71339 17.7056 1.71778 17.7967Z" fill="white" style="fill:white;fill-opacity:1;"/>
<path d="M25.6055 1.0121C25.6129 1.14876 25.58 1.2846 25.5108 1.40242C25.4416 1.52024 25.3393 1.61475 25.2167 1.67404C25.0941 1.73334 24.9568 1.75472 24.8222 1.73551C24.6876 1.7163 24.5616 1.65737 24.4602 1.56613C24.3589 1.47489 24.2867 1.35544 24.2527 1.22291C24.2188 1.09037 24.2246 0.950716 24.2696 0.821531C24.3145 0.692346 24.3964 0.579432 24.5051 0.497112C24.6137 0.414793 24.7441 0.366756 24.8799 0.359031C24.9703 0.353292 25.0609 0.365687 25.1465 0.395514C25.2321 0.425341 25.311 0.472006 25.3785 0.532776C25.446 0.593546 25.5008 0.667197 25.5398 0.749488C25.5788 0.831778 25.6011 0.921048 25.6055 1.0121Z" fill="white" style="fill:white;fill-opacity:1;"/>
<path d="M11.9443 26.7844C11.9746 27.2554 11.8653 27.7248 11.6305 28.1334C11.3956 28.5419 11.0456 28.8712 10.6248 29.0796C10.204 29.2879 9.73129 29.366 9.26639 29.3039C8.80149 29.2419 8.36532 29.0425 8.01303 28.7309C7.66075 28.4194 7.40816 28.0096 7.28722 27.5536C7.16629 27.0976 7.18244 26.6157 7.33362 26.1689C7.4848 25.7221 7.76423 25.3304 8.13657 25.0435C8.50891 24.7565 8.95744 24.5871 9.42544 24.5567C9.73647 24.535 10.0487 24.5756 10.3441 24.676C10.6394 24.7765 10.9121 24.9349 11.1463 25.142C11.3805 25.3491 11.5716 25.6009 11.7086 25.8828C11.8456 26.1647 11.9257 26.4711 11.9443 26.7844Z" fill="white" style="fill:white;fill-opacity:1;"/>
<path d="M41.8246 20.1037C41.8474 20.438 41.7711 20.7716 41.6055 21.0624C41.4398 21.3531 41.1922 21.5878 40.894 21.7369C40.5957 21.8859 40.2603 21.9426 39.93 21.8998C39.5998 21.8569 39.2896 21.7165 39.0387 21.4962C38.7877 21.2758 38.6074 20.9856 38.5204 20.6621C38.4334 20.3386 38.4437 19.9964 38.5499 19.6788C38.6562 19.3612 38.8537 19.0824 39.1173 18.8778C39.381 18.6731 39.6991 18.5518 40.0313 18.5291C40.2522 18.5118 40.4744 18.539 40.6847 18.6091C40.8951 18.6792 41.0895 18.7908 41.2565 18.9374C41.4234 19.084 41.5597 19.2627 41.6573 19.463C41.7548 19.6632 41.8117 19.881 41.8246 20.1037Z" fill="white" style="fill:white;fill-opacity:1;"/>
<path d="M35.9099 7.15827C35.9248 7.401 35.8679 7.6427 35.7463 7.85288C35.6248 8.06305 35.444 8.23225 35.227 8.33909C35.0099 8.44594 34.7663 8.48562 34.5268 8.45315C34.2874 8.42068 34.0628 8.31753 33.8816 8.15668C33.7004 7.99584 33.5706 7.78453 33.5086 7.54948C33.4467 7.31442 33.4553 7.06614 33.5335 6.83604C33.6117 6.60593 33.7559 6.40431 33.9479 6.25665C34.1398 6.10898 34.371 6.02192 34.6121 6.00642C34.7729 5.99413 34.9346 6.01435 35.0875 6.06594C35.2404 6.11753 35.3815 6.19942 35.5024 6.30678C35.6234 6.41414 35.7218 6.54479 35.7918 6.69103C35.8617 6.83727 35.9019 6.99615 35.9099 7.15827Z" fill="white" style="fill:white;fill-opacity:1;"/>
<path d="M57.4699 21.2913C60.1033 21.2913 61.7821 19.7939 61.7821 17.7195V17.6815C61.7821 15.3386 60.1033 14.1096 57.4699 14.1096H53.3866V21.3685L57.4699 21.2913ZM49.8755 12.6491C49.8716 12.416 49.9143 12.1845 50.0012 11.9683C50.088 11.7522 50.2172 11.5558 50.381 11.3909C50.5448 11.2261 50.7399 11.0961 50.9546 11.0087C51.1694 10.9213 51.3994 10.8783 51.631 10.8822H57.7421C62.4355 10.8822 65.3366 13.5326 65.3366 17.6032V17.6804C65.3366 22.2128 61.7499 24.5937 57.3233 24.5937H53.3166V29.4717C53.3208 29.6999 53.2793 29.9266 53.1944 30.1383C53.1096 30.35 52.9832 30.5423 52.8229 30.7037C52.6625 30.8651 52.4715 30.9923 52.2611 31.0776C52.0508 31.163 51.8256 31.2049 51.5988 31.2006C51.3701 31.2055 51.1427 31.1644 50.93 31.0798C50.7173 30.9951 50.5235 30.8685 50.36 30.7075C50.1965 30.5465 50.0666 30.3542 49.9778 30.142C49.8891 29.9298 49.8434 29.7019 49.8433 29.4717L49.881 12.6491H49.8755Z" fill="white" style="fill:white;fill-opacity:1;"/>
<path d="M80.4811 20.8363C83 20.8363 84.6022 19.5301 84.6022 17.4568V17.3695C84.6022 15.2191 83.0378 14.0281 80.4811 14.0281H75.37V20.7882L80.4811 20.8262V20.8363ZM71.8567 12.6503C71.8528 12.4172 71.8955 12.1857 71.9824 11.9695C72.0692 11.7534 72.1984 11.557 72.3622 11.3922C72.526 11.2273 72.7211 11.0973 72.9358 11.0099C73.1506 10.9225 73.3806 10.8795 73.6122 10.8834H80.7867C81.8391 10.8202 82.8936 10.9675 83.8891 11.3168C84.8846 11.6662 85.8015 12.2106 86.5867 12.9187C87.681 14.0909 88.2709 15.6509 88.2278 17.2588V17.336C88.2788 18.7098 87.8537 20.0587 87.0252 21.1518C86.1968 22.2449 85.0166 23.0142 83.6867 23.3279L87.5411 28.2059C87.8906 28.5663 88.0945 29.0446 88.1134 29.5479C88.114 29.7682 88.0708 29.9864 87.9862 30.1896C87.9016 30.3928 87.7773 30.5768 87.6208 30.7308C87.4642 30.8848 87.2786 31.0056 87.0748 31.0862C86.871 31.1667 86.6533 31.2053 86.4345 31.1996C86.0949 31.2004 85.7603 31.1167 85.4606 30.9559C85.1609 30.7951 84.9054 30.5623 84.7167 30.2781L79.7945 23.9787H75.33V29.3946C75.3343 29.6228 75.2927 29.8496 75.2079 30.0612C75.123 30.2729 74.9967 30.4652 74.8363 30.6266C74.6759 30.788 74.4849 30.9152 74.2746 31.0006C74.0643 31.086 73.839 31.1278 73.6122 31.1235C73.3835 31.1284 73.1562 31.0874 72.9435 31.0027C72.7307 30.918 72.5369 30.7915 72.3734 30.6305C72.2099 30.4694 72.08 30.2772 71.9913 30.065C71.9025 29.8527 71.8568 29.6249 71.8567 29.3946V12.6503Z" fill="white" style="fill:white;fill-opacity:1;"/>
<path d="M95.5543 12.4567C95.5658 12.001 95.7537 11.5678 96.0781 11.2495C96.4024 10.9312 96.8374 10.7531 97.2904 10.7531C97.7434 10.7531 98.1785 10.9312 98.5028 11.2495C98.8271 11.5678 99.0151 12.001 99.0265 12.4567V29.3565C99.0306 29.5846 98.989 29.8112 98.9041 30.0228C98.8192 30.2343 98.6928 30.4265 98.5324 30.5877C98.3721 30.749 98.1811 30.8761 97.9708 30.9614C97.7606 31.0467 97.5354 31.0885 97.3088 31.0843C97.0802 31.0892 96.8529 31.0481 96.6402 30.9635C96.4276 30.8789 96.2338 30.7525 96.0704 30.5916C95.9069 30.4307 95.7769 30.2386 95.6881 30.0265C95.5993 29.8144 95.5535 29.5866 95.5532 29.3565L95.5543 12.4567Z" fill="white" style="fill:white;fill-opacity:1;"/>
<path d="M113.108 29.8173L106.124 13.2664C105.991 13.0175 105.913 12.7424 105.896 12.4601C105.896 12.2299 105.941 12.002 106.03 11.7898C106.119 11.5776 106.249 11.3853 106.412 11.2243C106.576 11.0633 106.77 10.9368 106.982 10.8521C107.195 10.7674 107.422 10.7263 107.651 10.7312C108.046 10.7205 108.433 10.8379 108.756 11.0661C109.079 11.2944 109.32 11.6212 109.444 11.9983L115.244 26.516L121.118 11.8808C121.247 11.5392 121.477 11.2457 121.778 11.0397C122.078 10.8338 122.433 10.7254 122.797 10.729C123.02 10.7236 123.243 10.7634 123.451 10.8459C123.659 10.9284 123.849 11.0521 124.009 11.2095C124.169 11.367 124.297 11.5551 124.383 11.7628C124.47 11.9704 124.515 12.1935 124.514 12.4188C124.51 12.6741 124.444 12.9246 124.323 13.149L117.302 29.8564C117.157 30.2779 116.884 30.6425 116.521 30.8978C116.157 31.1532 115.723 31.2862 115.28 31.2778H115.051C114.613 31.2789 114.187 31.1374 113.836 30.8743C113.485 30.6112 113.229 30.2407 113.104 29.8184" fill="white" style="fill:white;fill-opacity:1;"/>
<path d="M131.311 12.4567C131.323 12.001 131.511 11.5678 131.835 11.2495C132.159 10.9312 132.594 10.7531 133.047 10.7531C133.5 10.7531 133.935 10.9312 134.26 11.2495C134.584 11.5678 134.772 12.001 134.783 12.4567V29.3565C134.787 29.5846 134.746 29.8112 134.661 30.0228C134.576 30.2343 134.45 30.4265 134.289 30.5877C134.129 30.749 133.938 30.8761 133.728 30.9614C133.517 31.0467 133.292 31.0885 133.066 31.0843C132.837 31.0892 132.61 31.0481 132.397 30.9635C132.184 30.8789 131.991 30.7525 131.827 30.5916C131.664 30.4307 131.534 30.2386 131.445 30.0265C131.356 29.8144 131.31 29.5866 131.31 29.3565L131.311 12.4567Z" fill="white" style="fill:white;fill-opacity:1;"/>
<path d="M147.987 14.1096H143.098C142.662 14.1096 142.245 13.9356 141.937 13.6258C141.629 13.3161 141.457 12.8959 141.457 12.4579C141.457 12.0198 141.629 11.5997 141.937 11.2899C142.245 10.9802 142.662 10.8062 143.098 10.8062H156.415C156.851 10.8062 157.268 10.9802 157.576 11.2899C157.884 11.5997 158.057 12.0198 158.057 12.4579C158.057 12.8959 157.884 13.3161 157.576 13.6258C157.268 13.9356 156.851 14.1096 156.415 14.1096H151.527V29.3576C151.527 29.8262 151.342 30.2757 151.012 30.607C150.683 30.9384 150.237 31.1246 149.771 31.1246C149.305 31.1246 148.859 30.9384 148.53 30.607C148.2 30.2757 148.015 29.8262 148.015 29.3576L147.978 14.1096H147.987Z" fill="white" style="fill:white;fill-opacity:1;"/>
<path d="M173.516 22.9811L169.968 14.8388L166.419 22.9811H173.516ZM160.428 28.7034L167.872 11.9961C168.042 11.5683 168.338 11.2029 168.719 10.9489C169.101 10.6949 169.551 10.5643 170.009 10.5747H170.2C170.651 10.57 171.094 10.7035 171.469 10.9572C171.843 11.211 172.133 11.5732 172.299 11.9961L179.743 28.7034C179.882 28.9221 179.961 29.1741 179.972 29.4337C179.977 29.6539 179.939 29.873 179.859 30.078C179.779 30.283 179.659 30.4698 179.506 30.6273C179.353 30.7848 179.17 30.9099 178.968 30.9951C178.766 31.0803 178.55 31.124 178.331 31.1234C177.953 31.1243 177.584 31.0063 177.276 30.7857C176.968 30.5651 176.736 30.2531 176.613 29.8933L174.972 26.1291H165.241L163.562 30.0085C163.447 30.3519 163.225 30.6491 162.93 30.8565C162.635 31.0638 162.281 31.1703 161.921 31.1604C161.705 31.162 161.491 31.1204 161.291 31.0379C161.091 30.9555 160.91 30.8339 160.757 30.6802C160.604 30.5265 160.483 30.3438 160.401 30.1426C160.319 29.9415 160.278 29.726 160.28 29.5086C160.249 29.3709 160.247 29.2283 160.273 29.0896C160.299 28.9509 160.353 28.8191 160.432 28.7023" fill="white" style="fill:white;fill-opacity:1;"/>
<path d="M192.368 20.8363C194.887 20.8363 196.489 19.5301 196.489 17.4568V17.3695C196.489 15.219 194.925 14.028 192.368 14.028H187.257V20.7882L192.368 20.8262V20.8363ZM183.668 12.6503C183.664 12.4172 183.707 12.1857 183.794 11.9695C183.88 11.7534 184.01 11.557 184.173 11.3921C184.337 11.2273 184.532 11.0973 184.747 11.0099C184.962 10.9225 185.192 10.8795 185.423 10.8834H192.557C193.609 10.8202 194.664 10.9675 195.659 11.3169C196.655 11.6662 197.571 12.2106 198.357 12.9187C199.452 14.0901 200.043 15.6497 200.001 17.2577V17.3348C200.052 18.7087 199.627 20.0576 198.799 21.1507C197.97 22.2438 196.79 23.013 195.46 23.3267L199.315 28.2047C199.664 28.5652 199.868 29.0434 199.887 29.5467C199.887 29.767 199.844 29.9852 199.76 30.1884C199.675 30.3916 199.551 30.5757 199.394 30.7297C199.238 30.8837 199.052 31.0045 198.848 31.085C198.644 31.1656 198.427 31.2041 198.208 31.1984C197.868 31.1991 197.534 31.1153 197.235 30.9545C196.935 30.7937 196.68 30.561 196.491 30.2769L191.602 24.0144H187.138V29.4304C187.142 29.6585 187.1 29.8851 187.015 30.0967C186.93 30.3082 186.804 30.5003 186.644 30.6616C186.483 30.8229 186.292 30.95 186.082 31.0353C185.872 31.1206 185.647 31.1624 185.42 31.1581C185.191 31.1631 184.964 31.122 184.752 31.0374C184.539 30.9528 184.345 30.8264 184.182 30.6655C184.018 30.5046 183.888 30.3125 183.799 30.1004C183.711 29.8883 183.665 29.6605 183.665 29.4304V12.6503H183.668Z" fill="white" style="fill:white;fill-opacity:1;"/>
</g>
<defs>
<clipPath id="clip0_1_1016">
<rect width="201" height="42.0002" fill="white" style="fill:white;fill-opacity:1;"/>
</clipPath>
</defs>
</svg>
