<svg width="200" height="48" viewBox="0 0 200 48" fill="none" xmlns="http://www.w3.org/2000/svg">
<g clip-path="url(#clip0_1_1074)">
<path d="M168.322 35.0745V13.2302H172.828V15.8001H173.541C173.958 15.0321 174.627 14.3527 175.549 13.7619C176.471 13.1711 177.72 12.8757 179.296 12.8757C180.932 12.8757 182.241 13.2154 183.222 13.8948C184.233 14.5447 184.992 15.3866 185.497 16.4204H186.211C186.716 15.4161 187.445 14.5742 188.397 13.8948C189.378 13.2154 190.761 12.8757 192.546 12.8757C193.973 12.8757 195.237 13.1711 196.337 13.7619C197.438 14.3231 198.315 15.1797 198.969 16.3318C199.624 17.4543 199.951 18.8574 199.951 20.5411V35.0745H195.356V20.8956C195.356 19.5663 194.984 18.5472 194.241 17.8383C193.527 17.0998 192.501 16.7306 191.163 16.7306C189.735 16.7306 188.59 17.1885 187.728 18.1042C186.865 19.0199 186.434 20.3343 186.434 22.0477V35.0745H181.839V20.8956C181.839 19.5663 181.467 18.5472 180.724 17.8383C180.01 17.0998 178.984 16.7306 177.645 16.7306C176.218 16.7306 175.073 17.1885 174.21 18.1042C173.348 19.0199 172.917 20.3343 172.917 22.0477V35.0745H168.322Z" fill="#00C58B" style="fill:#00C58B;fill:color(display-p3 0.0000 0.7725 0.5451);fill-opacity:1;"/>
<path d="M144.296 35.0746V29.4917L157.278 17.7055V17.0853H144.743V13.2303H162.275V18.8576L149.249 30.6438V31.2198H162.632V35.0746H144.296Z" fill="#00C58B" style="fill:#00C58B;fill:color(display-p3 0.0000 0.7725 0.5451);fill-opacity:1;"/>
<path d="M120.33 43.9364V39.9486H132.597C133.43 39.9486 133.846 39.5055 133.846 38.6193V31.8844H133.133C132.865 32.4752 132.449 33.0512 131.884 33.6124C131.348 34.1441 130.62 34.5873 129.698 34.9417C128.776 35.2962 127.616 35.4734 126.218 35.4734C124.553 35.4734 123.066 35.1042 121.757 34.3657C120.449 33.6272 119.422 32.5785 118.679 31.2198C117.935 29.8609 117.564 28.2511 117.564 26.3901V13.2303H122.159V26.0356C122.159 27.9262 122.635 29.3292 123.587 30.2449C124.538 31.1311 125.861 31.5743 127.556 31.5743C129.43 31.5743 130.932 30.9539 132.062 29.7132C133.222 28.4727 133.802 26.6707 133.802 24.3076V13.2303H138.397V39.5498C138.397 40.8791 137.995 41.9425 137.193 42.7401C136.419 43.5377 135.348 43.9364 133.98 43.9364H120.33Z" fill="#00C58B" style="fill:#00C58B;fill:color(display-p3 0.0000 0.7725 0.5451);fill-opacity:1;"/>
<path d="M100.535 35.0745V13.2302H105.04V15.8001H105.754C106.111 14.8844 106.676 14.2198 107.45 13.8063C108.253 13.3631 109.234 13.1416 110.394 13.1416H113.026V17.2623H110.216C108.728 17.2623 107.509 17.6759 106.557 18.503C105.605 19.3005 105.13 20.5412 105.13 22.2249V35.0745H100.535Z" fill="#00C58B" style="fill:#00C58B;fill:color(display-p3 0.0000 0.7725 0.5451);fill-opacity:1;"/>
<path d="M73.5215 35.0745V4.05835H85.923C87.8265 4.05835 89.5222 4.44236 91.0086 5.21038C92.5254 5.94886 93.7004 7.01224 94.5331 8.4006C95.3954 9.75943 95.8265 11.3989 95.8265 13.3189V13.8949C95.8265 15.815 95.3806 17.4692 94.4887 18.8575C93.6257 20.2458 92.4514 21.3092 90.9642 22.0477C89.4771 22.7863 87.7969 23.1555 85.923 23.1555H78.3394V35.0745H73.5215ZM78.3394 18.8132H85.4327C87.1277 18.8132 88.481 18.3701 89.4919 17.4839C90.5035 16.5978 91.0086 15.3866 91.0086 13.8506V13.4075C91.0086 11.8419 90.5035 10.6161 89.4919 9.72991C88.481 8.84373 87.1277 8.4006 85.4327 8.4006H78.3394V18.8132Z" fill="#00C58B" style="fill:#00C58B;fill:color(display-p3 0.0000 0.7725 0.5451);fill-opacity:1;"/>
<path fill-rule="evenodd" clip-rule="evenodd" d="M35.9935 19.7539L40.9024 24.6295L38.859 26.659L40.4116 30.368L46.1892 24.6295L32.0971 10.6328L35.9935 19.7539ZM22.7277 47.9322L13.5518 38.8183H18.8386L22.7277 42.6811L26.6168 38.8183H31.9037L22.7277 47.9322ZM10.1956 19.7539L5.28683 24.6295L7.33019 26.659L5.7776 30.368L0 24.6295L14.092 10.6328L10.1956 19.7539Z" fill="#00C58B" style="fill:#00C58B;fill:color(display-p3 0.0000 0.7725 0.5451);fill-opacity:1;"/>
<path fill-rule="evenodd" clip-rule="evenodd" d="M22.9981 0L8.52051 34.5112H37.4758L22.9981 0ZM22.9981 11.3229L15.1157 30.1127H30.8806L22.9981 11.3229Z" fill="#00C58B" style="fill:#00C58B;fill:color(display-p3 0.0000 0.7725 0.5451);fill-opacity:1;"/>
</g>
<defs>
<clipPath id="clip0_1_1074">
<rect width="200" height="48" fill="white" style="fill:white;fill-opacity:1;"/>
</clipPath>
</defs>
</svg>
