<svg width="200" height="70" viewBox="0 0 200 70" fill="none" xmlns="http://www.w3.org/2000/svg">
<g clip-path="url(#clip0_1_1082)">
<mask id="mask0_1_1082" style="mask-type:luminance" maskUnits="userSpaceOnUse" x="0" y="0" width="200" height="70">
<path d="M199.366 0H0V69.5236H199.366V0Z" fill="white" style="fill:white;fill-opacity:1;"/>
</mask>
<g mask="url(#mask0_1_1082)">
<path d="M56.5557 61.3278H67.5313L73.5605 29.8278H62.5849L56.5557 61.3278Z" fill="#00C58B" style="fill:#00C58B;fill:color(display-p3 0.0000 0.7725 0.5451);fill-opacity:1;"/>
<path d="M85.9509 44.4111C86.6631 40.6875 92.4583 37.5958 97.0241 37.5958C101.092 37.5958 105.151 40.1819 104.341 44.4111L101.102 61.3278H112.078L115.6 42.8944C118.029 30.2069 107.6 28.8167 102.751 28.8167C98.4778 28.8167 88.3509 31.7819 86.1656 43.2055L88.7217 29.8278H77.7461L71.7168 61.3278H82.6924L85.9314 44.4111H85.9509Z" fill="#00C58B" style="fill:#00C58B;fill:color(display-p3 0.0000 0.7725 0.5451);fill-opacity:1;"/>
<path d="M133.102 24.7819L134.565 17.1403H123.726L122.926 21.3014C121.229 30.1972 125.98 30.3236 136.029 30.3236H121.317L117.97 47.5805L117.307 51.0222C116.097 57.3319 118.829 61.3083 125.463 61.3083H136.439L138.156 52.3444H131.102C128.819 52.3444 128.068 51.0805 128.526 48.6791L130.517 38.2666H140.848L142.37 30.3139H139.024C134.39 30.3139 132.283 29.05 133.102 24.7625" fill="#00C58B" style="fill:#00C58B;fill:color(display-p3 0.0000 0.7725 0.5451);fill-opacity:1;"/>
<path d="M170.292 42.7681L152.068 42.6417C152.78 38.9181 158.019 37.2167 162.302 37.2167C166.156 37.2167 170.995 39.1125 170.292 42.7681ZM179.639 48.3195L180.097 45.9181C182.165 35.1264 175.892 29.507 163.707 29.507C151.522 29.507 143.736 34.8056 141.619 45.8597C139.619 56.3403 146 62.0861 157.765 62.0861C168.175 62.0861 175.356 58.8 178.575 50.9153H168.526C167.561 52.9958 164.156 54.3861 159.375 54.3861C154.595 54.3861 150.195 52.432 150.965 48.3875L179.629 48.3195H179.639Z" fill="#00C58B" style="fill:#00C58B;fill:color(display-p3 0.0000 0.7725 0.5451);fill-opacity:1;"/>
<path d="M189.17 17.1403L180.712 61.3278H190.907L199.356 17.1403H189.17Z" fill="#00C58B" style="fill:#00C58B;fill:color(display-p3 0.0000 0.7725 0.5451);fill-opacity:1;"/>
<path d="M72.5363 14.1069C75.4924 15.8861 76.6046 19.7167 75.0339 22.6625C73.4534 25.6083 69.7851 26.5611 66.829 24.7819C63.8729 23.0028 62.7607 19.1722 64.3315 16.2264C65.912 13.2805 69.5803 12.3278 72.5363 14.1069Z" fill="#00C58B" style="fill:#00C58B;fill:color(display-p3 0.0000 0.7725 0.5451);fill-opacity:1;"/>
<path d="M85.8242 1.75973C80.0291 -1.73054 72.8193 0.13612 69.7267 5.92085C68.8291 7.60279 68.3803 9.43057 68.3315 11.2584C70.0291 11.0445 71.834 11.3945 73.473 12.3861C77.3852 14.7389 78.8584 19.8042 76.7803 23.7125C76.7803 23.7222 76.7706 23.732 76.7608 23.7417C82.0876 25.7056 87.9998 23.6542 90.7218 18.5597C93.8145 12.775 91.6193 5.25001 85.8242 1.76946" fill="#00C58B" style="fill:#00C58B;fill:color(display-p3 0.0000 0.7725 0.5451);fill-opacity:1;"/>
<path d="M53.8143 42.5347C54.6338 35.8847 52.624 29.575 48.1753 24.7625C43.5606 19.775 36.6826 16.9458 29.2582 17.0527C14.6436 17.2083 1.8826 27.9611 0.214306 41.5333C-0.458864 46.9972 0.419184 51.5958 2.88748 55.6111C3.54114 56.7194 6.67284 61.5319 12.8289 63.8847C16.7704 65.3916 21.3167 65.1194 25.346 64.3416C25.346 64.3416 38.0679 61.3763 43.024 66.4513C44.6533 68.1236 44.146 69.5333 44.1362 69.5333C53.7948 69.5527 56.3216 63.8166 54.8582 58.7222C54.8582 58.7222 52.8875 51.0708 42.0192 49.7291C39.3558 49.3986 37.6679 49.3986 35.6484 49.6513C29.9509 50.0694 21.9997 54.0652 17.5216 52.3736C15.4533 51.5958 14.2436 49.875 14.0094 49.5152L13.8728 49.2916C13.1997 48.2027 12.4679 46.5111 12.8972 43.0208C13.7948 35.7583 21.346 29.5458 29.4045 29.4486C33.1801 29.3902 36.4777 30.6833 38.6728 33.0555C40.6338 35.175 41.5118 38.0236 41.1411 41.0861C41.024 42.0583 40.7801 43.0208 40.4289 43.9736C40.3899 44.0708 40.3509 44.1777 40.3021 44.2847C40.2728 44.3625 40.2436 44.4402 40.2045 44.518C39.8923 45.2569 39.4045 46.2486 38.7899 47.3375C41.5118 47.143 46.3704 47.3569 51.5704 50.2152C51.6289 50.0888 51.707 49.9625 51.7655 49.8361C51.7948 49.7777 51.824 49.7097 51.8436 49.6513C51.8436 49.6319 51.8631 49.6124 51.8728 49.593C52.8679 47.3277 53.5314 44.9652 53.824 42.5736" fill="#00C58B" style="fill:#00C58B;fill:color(display-p3 0.0000 0.7725 0.5451);fill-opacity:1;"/>
</g>
</g>
<defs>
<clipPath id="clip0_1_1082">
<rect width="200" height="70" fill="white" style="fill:white;fill-opacity:1;"/>
</clipPath>
</defs>
</svg>
