<svg width="200" height="29" viewBox="0 0 200 29" fill="none" xmlns="http://www.w3.org/2000/svg">
<g clip-path="url(#clip0_1_1095)">
<path d="M22.1654 28.5985C20.4408 23.2555 18.7163 17.9094 16.9654 12.4955C17.2151 12.4571 17.383 12.4065 17.5526 12.4065C20.6612 12.4033 23.7653 12.4065 26.874 12.411C27.6076 12.411 27.6661 12.5294 27.4381 13.2365C26.2699 16.8272 25.1139 20.4287 23.9579 24.0256C23.4694 25.5319 22.9808 27.0367 22.4953 28.5462C22.3859 28.5601 22.2765 28.5801 22.1654 28.5985ZM23.739 28.0928C27.5151 22.9187 31.2895 17.7448 35.1057 12.5155C34.8869 12.4495 34.8036 12.4033 34.7188 12.4033C32.817 12.394 30.9182 12.3741 29.0163 12.4233C28.7836 12.4325 28.4383 12.7814 28.3505 13.0381C27.0635 16.8533 25.8028 20.6854 24.5406 24.5098C24.1707 25.6364 23.8116 26.7724 23.4478 27.9037C23.5404 27.9713 23.6373 28.0345 23.739 28.0928ZM12.9598 13.0765H14.014C13.9416 12.9198 13.9369 12.8643 13.9045 12.8398C13.6964 12.6845 13.288 12.4616 13.3172 12.3893C13.4822 11.9267 13.8075 12.2003 14.1141 12.2679C14.5194 12.3525 14.9417 12.4371 15.3471 12.3893C15.9328 12.3218 16.1855 12.5922 16.3504 13.0964C17.0086 15.1362 17.6789 17.1776 18.3494 19.2128C19.248 21.9504 20.1542 24.6896 21.0481 27.4287C21.1036 27.5963 21.1205 27.7731 21.0064 28.0421C20.8123 27.853 20.5811 27.6885 20.4207 27.4749C18.4248 24.7572 16.4475 22.0318 14.4484 19.3142C14.2712 19.0698 13.98 18.9068 13.7595 18.7209C13.8396 18.5871 13.9507 18.3934 14.0677 18.2029C13.8026 18.123 13.5406 18.04 13.2324 17.9461C13.2617 17.694 13.3048 17.4251 13.3172 17.1607C13.3342 16.6719 13.2324 16.3106 12.5912 16.3353C12.3817 16.3446 12.1613 16.0955 11.9255 15.9525C12.7146 15.1531 12.6422 14.8673 11.7143 14.5891C11.6434 14.2786 11.551 13.9712 11.5032 13.6606C11.4785 13.4962 11.4785 13.2855 11.5664 13.1641C11.6342 13.0718 11.9348 13.0088 11.9841 13.0626C12.0982 13.1932 12.1366 13.3992 12.1875 13.5806C12.2075 13.6529 12.1782 13.7405 12.1706 13.8204C12.2414 13.8235 12.3139 13.8281 12.3848 13.8327C12.3848 13.5036 12.3817 13.1733 12.3848 12.8443C12.3848 12.6752 12.3601 12.4953 12.4234 12.3523C12.448 12.297 12.727 12.2633 12.7901 12.3217C12.8996 12.4232 12.9382 12.6045 12.9798 12.7597C13.0013 12.8319 12.972 12.9244 12.9598 13.0765ZM27.0682 11.5438H17.6451C17.679 11.364 17.662 11.2288 17.7206 11.1565C18.5266 10.2357 19.3358 9.31958 20.1588 8.41884C20.2513 8.31278 20.4454 8.24973 20.5935 8.2467C21.0866 8.23747 21.5767 8.30051 21.6476 7.57345C21.6553 7.45512 22.1501 7.3844 22.3859 7.30443C22.3396 6.99703 22.2086 6.69415 22.2841 6.45897C22.3735 6.18993 22.7819 6.42053 22.8375 6.82482C22.859 6.97545 22.8405 7.13532 22.8405 7.35054C23.7899 7.26141 24.1105 8.03613 24.6037 8.54493C25.3589 9.32268 26.0633 10.1512 26.7722 10.9675C26.8908 11.1074 26.9495 11.301 27.0682 11.5438ZM29.3122 11.6038C31.2002 11.6038 33.0898 11.6115 34.9839 11.5946C35.4817 11.59 35.3893 11.2703 35.212 10.9721C34.8869 10.4171 34.5617 9.85765 34.2287 9.30583C33.6307 8.30975 33.0265 7.31219 32.3145 6.13013C31.2094 7.99008 30.1876 9.69785 29.1673 11.4102C29.2228 11.4732 29.2643 11.5409 29.3122 11.6038ZM28.2395 11.5024C27.0542 10.1098 25.9924 8.86001 24.9242 7.61034C24.9535 7.54426 24.9798 7.48122 25.009 7.40901H25.7982C26.1649 7.40901 26.447 7.3798 26.5271 6.88329C26.6242 6.28994 27.1729 6.6189 27.5151 6.58506C27.6907 6.56813 28.0452 6.76643 28.059 6.89245C28.1176 7.55646 28.5014 7.40125 28.7588 7.34285C28.9067 6.97087 28.9869 6.47131 29.1302 6.45439C29.8423 6.36525 29.2859 7.05232 29.6435 7.4059C29.7206 7.14455 29.7283 6.94633 29.83 6.82024C29.9224 6.6988 30.1213 6.57737 30.2599 6.59274C30.3786 6.60657 30.5559 6.80797 30.5635 6.93399C30.5759 7.17841 30.5512 7.45971 30.4325 7.67028C29.7451 8.90303 29.041 10.1143 28.2395 11.5024ZM16.5567 7.84707C16.751 7.7994 17.033 7.69489 17.1424 7.77945C17.5817 8.12837 18.0363 8.06075 18.5048 7.93931C18.6745 7.89319 18.8547 7.7994 18.9688 7.67028C19.0243 7.60724 18.9734 7.32134 18.9225 7.30908C18.7453 7.26141 18.5218 7.22763 18.3569 7.29526C17.9316 7.46894 17.5863 7.49356 17.2272 7.13539C17.1347 7.04315 16.8188 7.13997 16.62 7.1861C16.2747 7.27064 15.9449 7.41669 15.5996 7.47663C15.3761 7.51352 14.9446 7.39673 14.9323 7.4351C14.8275 7.83324 14.6164 8.33126 14.7643 8.64633C15.1866 9.53326 15.7553 10.3541 16.2778 11.1995C16.3194 11.2671 16.4258 11.2871 16.5352 11.3471C16.6786 11.178 16.8049 11.035 16.9359 10.8875C16.8681 10.8844 16.8048 10.8844 16.737 10.8798C16.6661 10.5647 16.5983 10.248 16.5275 9.93296C16.8819 9.88684 17.2395 9.84382 17.594 9.79925C17.6233 9.87456 17.6495 9.94988 17.6741 10.0252C18.1304 9.47952 18.5849 8.93229 19.0829 8.33894C18.5681 8.11603 18.3539 8.18366 18.2352 8.61714C18.1889 8.78004 17.9407 8.96149 17.7589 8.98603C17.6202 9.00754 17.4213 8.83075 17.2904 8.70014C17.1594 8.57412 17.0839 8.40191 16.9822 8.24973C16.8528 8.39733 16.7341 8.56947 16.5861 8.69549C16.4304 8.83075 16.227 9.02905 16.0636 9.01212C15.9065 8.99519 15.7214 8.76312 15.6367 8.58787C15.5566 8.40961 15.5859 8.18359 15.5782 8.09904C15.9696 8.00222 16.2608 7.91012 16.5567 7.84707ZM13.9536 11.5945H14.7843C15.3963 11.5899 15.4764 11.4638 15.1682 10.9089C14.7428 10.1434 14.2912 9.39785 13.8565 8.63703C13.6037 8.19127 13.1907 8.18359 12.7684 8.24197C12.659 8.2589 12.4987 8.43104 12.4864 8.5402C12.4787 8.65085 12.6205 8.86917 12.7145 8.87687C13.1739 8.91071 13.3294 9.1674 13.2786 9.57162C13.2293 9.98817 13.4651 10.5169 12.79 10.7152C12.642 10.7613 12.5034 11.0857 12.4987 11.2871C12.4941 11.3809 12.8023 11.5484 12.9842 11.5776C13.3001 11.6283 13.63 11.5945 13.9536 11.5945ZM11.0808 10.6984C10.9853 10.8537 10.8126 11.0104 10.8126 11.1656C10.8126 11.3132 11.0022 11.4562 11.1024 11.6037C11.255 11.4777 11.4106 11.3547 11.6772 11.141C11.4013 10.9381 11.2411 10.8214 11.0808 10.6984ZM9.58879 11.0933C9.43311 11.1149 9.30216 11.3086 9.15883 11.43C9.28985 11.5607 9.40694 11.7713 9.54566 11.7928C9.68129 11.8097 9.85084 11.6283 10.1375 11.4469C9.87544 11.2671 9.71982 11.0764 9.58879 11.0933ZM4.96969 7.45964C4.92345 7.68713 4.88187 7.91462 4.84023 8.14057C5.02519 8.15285 5.20549 8.17132 5.38736 8.17901L5.31643 7.48883C5.19312 7.48115 5.08373 7.46887 4.96969 7.45964ZM9.13719 3.21565C8.88907 3.16952 8.64401 3.12651 8.39894 3.08498C8.39123 3.27403 8.37893 3.46007 8.36966 3.64912C8.61777 3.63065 8.86752 3.61528 9.11718 3.59842C9.12489 3.47086 9.12948 3.34166 9.13719 3.21565ZM6.64036 4.51462C6.63266 4.37625 6.40916 4.25023 6.2782 4.12422C6.14259 4.25792 5.91448 4.38557 5.90211 4.53153C5.88981 4.67145 6.10094 4.83125 6.29051 5.07411C6.45384 4.822 6.65267 4.66214 6.64036 4.51462ZM14.7057 6.00871C14.4775 5.97485 14.2448 5.94108 14.0167 5.90722C14.0045 6.08402 13.992 6.26074 13.9798 6.43753H14.6795C14.6871 6.29917 14.6964 6.15623 14.7057 6.00871ZM5.28724 9.80235C5.29494 9.94995 5.51075 10.1897 5.6371 10.1897C5.78042 10.1897 6.01623 9.97915 6.0378 9.84079C6.05781 9.70553 5.85134 9.53339 5.67407 9.27663C5.48911 9.5164 5.27798 9.664 5.28724 9.80235ZM14.0678 1.30521H13.3635C13.3728 1.46966 13.3728 1.63418 13.3805 1.79863C13.6131 1.76788 13.849 1.73558 14.0848 1.70484C14.0771 1.56648 14.0725 1.43581 14.0678 1.30521ZM10.3997 0.401433C10.2687 0.393746 10.1208 0.624345 9.98207 0.750363C10.1161 0.87638 10.2302 1.05776 10.3905 1.10388C10.5045 1.13307 10.6771 0.98089 10.9176 0.864109C10.6818 0.636615 10.5508 0.413703 10.3997 0.401433ZM0.000999342 7.7166C-0.0190108 7.80419 0.267637 8.06553 0.309213 8.04558C0.486477 7.95644 0.659075 7.80885 0.756155 7.63671C0.786984 7.59059 0.554286 7.39229 0.386284 7.19865C0.216728 7.41387 0.0395349 7.54751 0.000999342 7.7166ZM17.7499 5.91209C17.7252 5.76449 17.5018 5.6554 17.366 5.52472C17.2366 5.66309 17.0161 5.79376 17.0086 5.94587C16.9993 6.07654 17.2181 6.22717 17.4216 6.4716C17.5818 6.2149 17.776 6.04579 17.7499 5.91209ZM8.26048 4.85607C8.25278 4.9775 8.47932 5.22651 8.5687 5.21423C8.73359 5.18349 8.96481 5.02361 8.99096 4.88526C9.01564 4.75459 8.81222 4.57787 8.63955 4.30884C8.44999 4.56094 8.26819 4.70544 8.26048 4.85607ZM21.5135 4.30426C21.3901 4.31349 21.2854 4.53175 21.1745 4.65777C21.3224 4.75924 21.4658 4.91445 21.626 4.94061C21.7401 4.95754 21.8788 4.79302 22.1654 4.61164C21.8341 4.44875 21.6645 4.28887 21.5135 4.30426ZM27.21 3.98917C27.2577 4.14438 27.4381 4.26279 27.5613 4.39804C27.6661 4.2551 27.8604 4.1075 27.8511 3.97224C27.8435 3.82472 27.6461 3.68326 27.4351 3.41275C27.3117 3.70328 27.1776 3.87233 27.21 3.98917ZM11.4231 1.65414C11.3306 1.64186 11.0995 1.86167 11.1118 1.94926C11.1287 2.10913 11.2675 2.33662 11.3984 2.37506C11.5171 2.40425 11.6897 2.2106 11.9671 2.0415C11.7066 1.8432 11.5756 1.6803 11.4231 1.65414ZM12.2461 9.96236C12.2631 10.093 12.4604 10.3251 12.542 10.3082C12.71 10.2743 12.8488 10.1099 13.0045 10.0008C12.8872 9.86554 12.7686 9.73176 12.562 9.4951C12.4018 9.71491 12.2337 9.84862 12.2461 9.96236ZM25.5284 6.68519C25.5407 6.58837 25.3126 6.35777 25.2202 6.37011C25.0646 6.39162 24.8442 6.53921 24.8102 6.67751C24.781 6.79584 24.9706 6.96805 25.1401 7.23242C25.3343 6.97109 25.5069 6.84196 25.5284 6.68519ZM20.0664 5.89975C20.0695 6.04269 20.2899 6.26863 20.4333 6.28711C20.5595 6.29481 20.7907 6.07654 20.817 5.9336C20.8386 5.79835 20.6475 5.63079 20.4871 5.38179C20.2806 5.60928 20.0618 5.75984 20.0664 5.89975ZM10.6648 16.8872C10.5292 16.8826 10.3905 17.0809 10.2503 17.1946C10.3906 17.3037 10.5169 17.4759 10.6725 17.5096C10.7989 17.5389 10.9639 17.4037 11.2598 17.2822C10.9731 17.0762 10.8205 16.895 10.6648 16.8872ZM11.6389 6.71904C11.4786 6.76671 11.306 6.92193 11.2382 7.07721C11.2089 7.14484 11.4278 7.4169 11.5464 7.42155C11.6928 7.42614 11.8454 7.254 12.1105 7.09413C11.8747 6.90049 11.7267 6.6945 11.6389 6.71904ZM8.28205 6.68216C8.12176 6.74055 7.9522 6.91734 7.90596 7.08179C7.88129 7.15711 8.13406 7.42614 8.23886 7.40921C8.39455 7.39229 8.53476 7.20323 8.77058 7.01416C8.53936 6.84972 8.36528 6.65142 8.28205 6.68216ZM10.5584 12.1835C10.4104 12.2558 10.2594 12.4373 10.2301 12.5924C10.2131 12.68 10.4628 12.9291 10.5368 12.9076C10.694 12.8646 10.8158 12.6938 11.0362 12.5002C10.8127 12.3434 10.6308 12.1497 10.5584 12.1835ZM15.5073 5.1466C15.3624 5.1543 15.236 5.33109 15.0973 5.43714C15.2237 5.57084 15.3286 5.76456 15.4858 5.81527C15.5828 5.84446 15.7508 5.65081 15.9959 5.48784C15.7647 5.31416 15.629 5.13737 15.5073 5.1466ZM13.4312 3.89228C13.6717 3.82465 13.9122 3.76161 14.1525 3.69554C14.1017 3.548 14.0431 3.39582 13.9923 3.24822C13.7688 3.34201 13.5453 3.43418 13.3218 3.52643C13.3511 3.64941 13.3896 3.77084 13.4312 3.89228ZM9.98505 3.56485C10.2131 3.6571 10.4444 3.75392 10.6725 3.85075C10.711 3.67395 10.7495 3.50181 10.7911 3.32502C10.546 3.30352 10.3025 3.28659 10.0606 3.26663L9.98505 3.56485ZM9.7153 14.9643C9.62748 14.9472 9.41167 15.1748 9.40398 15.3009C9.39471 15.4315 9.57197 15.6959 9.65675 15.6928C9.82164 15.6882 9.98194 15.5329 10.2501 15.3762C10.002 15.1702 9.871 14.9934 9.7153 14.9643ZM10.0189 8.33922C10.0697 8.4945 10.2547 8.69584 10.395 8.70508C10.5214 8.71431 10.7695 8.47759 10.7618 8.36073C10.7526 8.21313 10.5368 8.08253 10.3349 7.85962C10.1839 8.08253 9.99269 8.24699 10.0189 8.33922Z" fill="white" style="fill:white;fill-opacity:1;"/>
<path d="M45.2959 7.18298H52.2066C53.1616 7.18298 54.084 7.26903 54.9736 7.44168C55.8629 7.61468 56.6543 7.90945 57.3475 8.3269C58.0401 8.74471 58.5928 9.30755 59.0049 10.0158C59.4165 10.7241 59.623 11.623 59.623 12.7126C59.623 14.1114 59.2248 15.2826 58.4288 16.2266C57.6329 17.1713 56.4951 17.7432 55.0155 17.9427L60.297 26.4692H56.0272L51.4199 18.2971H48.8354V26.4692H45.2959V7.18298ZM51.5885 15.3551C52.0942 15.3551 52.5999 15.3326 53.1054 15.287C53.6111 15.242 54.0747 15.1331 54.4957 14.9601C54.9171 14.7875 55.2588 14.524 55.5213 14.1701C55.7831 13.8158 55.9146 13.3214 55.9146 12.6855C55.9146 12.1229 55.7924 11.6688 55.5493 11.3233C55.3058 10.9786 54.9876 10.7199 54.594 10.5471C54.2006 10.3746 53.7655 10.2611 53.2877 10.2065C52.8104 10.1522 52.3465 10.1248 51.8975 10.1248H48.8352V15.3551H51.5885Z" fill="white" style="fill:white;fill-opacity:1;"/>
<path d="M72.4894 7.18298L81.0574 26.4692H77.012L75.1579 22.0562H66.5333L64.7356 26.4692H60.7744L69.4268 7.18298H72.4894ZM73.922 19.1141L70.8597 11.269L67.7416 19.1141H73.922Z" fill="white" style="fill:white;fill-opacity:1;"/>
<path d="M83.2766 7.18298H89.9625C90.9178 7.18298 91.8399 7.2739 92.7295 7.4552C93.6188 7.63704 94.4011 7.94102 95.0752 8.36784C95.7495 8.79467 96.2876 9.36654 96.6907 10.084C97.0931 10.8014 97.2947 11.6957 97.2947 12.7671C97.2947 13.9837 97.079 14.9648 96.6483 15.7089C96.2175 16.4537 95.637 17.0301 94.9066 17.4387C94.1762 17.8474 93.3284 18.1244 92.3643 18.2697C91.3991 18.4153 90.3929 18.4875 89.3443 18.4875H86.8158V26.469H83.2764L83.2766 7.18298ZM88.9512 15.5456C89.4568 15.5456 89.9807 15.528 90.5242 15.4914C91.0672 15.455 91.5683 15.3461 92.0274 15.1643C92.4861 14.9828 92.8603 14.7105 93.1511 14.3471C93.4412 13.9838 93.5866 13.4755 93.5866 12.8214C93.5866 12.2221 93.455 11.7455 93.193 11.3915C92.9308 11.0372 92.5935 10.7648 92.1817 10.5743C91.7697 10.3838 91.3109 10.261 90.8053 10.2063C90.2996 10.152 89.8124 10.1246 89.3444 10.1246H86.816V15.5456H88.9512Z" fill="white" style="fill:white;fill-opacity:1;"/>
<path d="M100.356 7.18298H103.896V26.4692H100.356V7.18298Z" fill="white" style="fill:white;fill-opacity:1;"/>
<path d="M108.25 7.18298H116.088C117.399 7.18298 118.663 7.37798 119.881 7.76855C121.097 8.15912 122.175 8.7539 123.112 9.55272C124.048 10.3519 124.796 11.3555 125.359 12.5628C125.92 13.7707 126.201 15.1917 126.201 16.8258C126.201 18.479 125.878 19.9088 125.232 21.1162C124.587 22.3244 123.753 23.3227 122.732 24.1129C121.711 24.903 120.578 25.493 119.333 25.8834C118.087 26.274 116.865 26.469 115.667 26.469H108.25V7.18298ZM114.431 23.3638C115.535 23.3638 116.58 23.2411 117.563 22.9961C118.546 22.7508 119.403 22.3694 120.133 21.8519C120.864 21.3343 121.44 20.6624 121.861 19.836C122.283 19.0098 122.494 18.0068 122.494 16.8258C122.494 15.6639 122.306 14.6652 121.931 13.8294C121.557 12.9943 121.036 12.3176 120.372 11.8C119.707 11.2827 118.92 10.901 118.012 10.656C117.104 10.4107 116.106 10.2884 115.02 10.2884H111.79V23.3638H114.431Z" fill="white" style="fill:white;fill-opacity:1;"/>
<path d="M129.572 7.18298H142.411V10.2884H133.112V15.3549H141.877V18.4604H133.112V26.469H129.572V7.18298Z" fill="white" style="fill:white;fill-opacity:1;"/>
<path d="M144.63 16.9076C144.63 15.3642 144.891 13.9615 145.415 12.6989C145.941 11.4371 146.666 10.3612 147.594 9.47115C148.52 8.58142 149.625 7.89571 150.908 7.41422C152.19 6.93346 153.6 6.69226 155.136 6.69226C156.69 6.67458 158.114 6.89665 159.406 7.35993C160.699 7.82283 161.813 8.49969 162.749 9.38942C163.685 10.2792 164.417 11.3505 164.941 12.6034C165.465 13.8567 165.727 15.2551 165.727 16.7989C165.727 18.3063 165.465 19.6775 164.941 20.9118C164.417 22.1473 163.685 23.2096 162.749 24.0993C161.812 24.989 160.699 25.6839 159.406 26.183C158.114 26.6822 156.69 26.9413 155.136 26.9593C153.6 26.9593 152.19 26.7184 150.908 26.2373C149.625 25.7566 148.52 25.0753 147.594 24.1945C146.666 23.3136 145.941 22.2563 145.415 21.0207C144.891 19.7859 144.63 18.4154 144.63 16.9076ZM148.338 16.69C148.338 17.7249 148.502 18.6786 148.829 19.5501C149.156 20.4216 149.62 21.1758 150.22 21.8113C150.819 22.4471 151.536 22.9463 152.37 23.3095C153.202 23.6726 154.134 23.8541 155.165 23.8541C156.195 23.8541 157.131 23.6726 157.973 23.3095C158.817 22.9463 159.537 22.4471 160.137 21.8113C160.736 21.1757 161.2 20.4216 161.527 19.5501C161.855 18.6786 162.019 17.7248 162.019 16.69C162.019 15.7276 161.855 14.8287 161.527 13.9932C161.2 13.1578 160.736 12.4266 160.137 11.8001C159.537 11.1738 158.817 10.6836 157.973 10.3293C157.131 9.97536 156.194 9.79803 155.165 9.79803C154.135 9.79803 153.202 9.97536 152.37 10.3293C151.536 10.6836 150.819 11.1739 150.22 11.8001C149.62 12.4268 149.158 13.1579 148.829 13.9932C148.501 14.8284 148.338 15.7276 148.338 16.69Z" fill="white" style="fill:white;fill-opacity:1;"/>
<path d="M169.099 7.18298H176.009C176.964 7.18298 177.887 7.26903 178.776 7.44168C179.665 7.61468 180.456 7.90945 181.149 8.3269C181.842 8.74471 182.395 9.30755 182.807 10.0158C183.219 10.7241 183.425 11.623 183.425 12.7126C183.425 14.1114 183.028 15.2826 182.231 16.2266C181.435 17.1713 180.297 17.7432 178.818 17.9427L184.1 26.4692H179.83L175.223 18.2971H172.637V26.4692H169.099V7.18298ZM175.391 15.3551C175.896 15.3551 176.402 15.3326 176.908 15.287C177.413 15.242 177.877 15.1331 178.297 14.9601C178.719 14.7875 179.061 14.524 179.324 14.1701C179.585 13.8158 179.717 13.3214 179.717 12.6855C179.717 12.1229 179.595 11.6688 179.352 11.3233C179.108 10.9786 178.79 10.7199 178.396 10.5471C178.003 10.3746 177.567 10.2611 177.09 10.2065C176.613 10.1522 176.149 10.1248 175.7 10.1248H172.637V15.3551H175.391Z" fill="white" style="fill:white;fill-opacity:1;"/>
<path d="M190.364 10.2885H184.268V7.18311H200V10.2885H193.904V26.4693H190.364V10.2885Z" fill="white" style="fill:white;fill-opacity:1;"/>
</g>
<defs>
<clipPath id="clip0_1_1095">
<rect width="200" height="29" fill="white" style="fill:white;fill-opacity:1;"/>
</clipPath>
</defs>
</svg>
