<svg width="199" height="71" viewBox="0 0 199 71" fill="none" xmlns="http://www.w3.org/2000/svg">
<g clip-path="url(#clip0_1_1106)">
<mask id="mask0_1_1106" style="mask-type:alpha" maskUnits="userSpaceOnUse" x="0" y="0" width="62" height="71">
<path d="M61.1765 0H0V39.6764C0 56.976 13.6948 71 30.5882 71C47.4816 71 61.1765 56.976 61.1765 39.6764V0Z" fill="black" style="fill:black;fill-opacity:1;"/>
</mask>
<g mask="url(#mask0_1_1106)">
<path d="M-65.9854 44.7606H24.6244C25.5604 44.7606 26.4582 45.1347 27.1201 45.8005L32.2244 50.9347H-65.9854V44.7606Z" fill="#00C58B" style="fill:#00C58B;fill:color(display-p3 0.0000 0.7725 0.5451);fill-opacity:1;"/>
<path d="M-65.9854 16.9772H24.6244C25.5604 16.9772 26.4582 17.3513 27.1201 18.017L32.2244 23.1512H-65.9854V16.9772Z" fill="#00C58B" style="fill:#00C58B;fill:color(display-p3 0.0000 0.7725 0.5451);fill-opacity:1;"/>
<path d="M-65.9854 3.08545H24.6244C25.5604 3.08545 26.4582 3.45946 27.1201 4.12521L32.2244 9.25936H-65.9854V3.08545Z" fill="#00C58B" style="fill:#00C58B;fill:color(display-p3 0.0000 0.7725 0.5451);fill-opacity:1;"/>
<path d="M-65.9854 58.651H24.6244C25.5604 58.651 26.4582 59.0249 27.1201 59.6907L32.2244 64.8249H-65.9854V58.651Z" fill="#00C58B" style="fill:#00C58B;fill:color(display-p3 0.0000 0.7725 0.5451);fill-opacity:1;"/>
<path d="M-65.9854 30.8676H24.6244C25.5604 30.8676 26.4582 31.2415 27.1201 31.9073L32.2244 37.0414H-65.9854V30.8676Z" fill="#00C58B" style="fill:#00C58B;fill:color(display-p3 0.0000 0.7725 0.5451);fill-opacity:1;"/>
</g>
<mask id="mask1_1_1106" style="mask-type:alpha" maskUnits="userSpaceOnUse" x="0" y="0" width="62" height="71">
<path d="M61.1765 0H0V39.6764C0 56.976 13.6948 71 30.5882 71C47.4816 71 61.1765 56.976 61.1765 39.6764V0Z" fill="black" style="fill:black;fill-opacity:1;"/>
</mask>
<g mask="url(#mask1_1_1106)">
<path d="M30.686 50.9358H128.896V57.1098H38.286C37.35 57.1098 36.4522 56.7358 35.7903 56.07L30.686 50.9358Z" fill="#00C58B" style="fill:#00C58B;fill:color(display-p3 0.0000 0.7725 0.5451);fill-opacity:1;"/>
<path d="M30.686 23.1523H128.896V29.3264H38.286C37.35 29.3264 36.4522 28.9523 35.7903 28.2865L30.686 23.1523Z" fill="#00C58B" style="fill:#00C58B;fill:color(display-p3 0.0000 0.7725 0.5451);fill-opacity:1;"/>
<path d="M30.686 9.26062H128.896V15.4346H38.286C37.35 15.4346 36.4522 15.0605 35.7903 14.3948L30.686 9.26062Z" fill="#00C58B" style="fill:#00C58B;fill:color(display-p3 0.0000 0.7725 0.5451);fill-opacity:1;"/>
<path d="M30.686 64.8262H128.896V71.0001H36.8241L30.686 64.8262Z" fill="#00C58B" style="fill:#00C58B;fill:color(display-p3 0.0000 0.7725 0.5451);fill-opacity:1;"/>
<path d="M30.686 37.0441H128.896V43.2181H38.286C37.35 43.2181 36.4522 42.844 35.7903 42.1783L30.686 37.0441Z" fill="#00C58B" style="fill:#00C58B;fill:color(display-p3 0.0000 0.7725 0.5451);fill-opacity:1;"/>
</g>
<path d="M84.9399 29.8069V10.1815H93.9596C98.0546 10.1815 99.9282 12.5236 99.9282 16.0503C99.9282 18.9847 98.4026 20.8422 95.7261 21.3806V21.946C97.0911 22.269 97.6799 23.0767 98.2688 24.5573L100.303 29.8069H97.0376L94.8964 24.2881C94.2005 22.4575 93.4244 22.2421 91.872 22.2421H87.9108V29.8069H84.9399ZM87.9108 19.9538H93.6117C95.5923 19.9538 96.7967 18.7962 96.7967 17.181V15.4581C96.7967 13.8697 95.6191 12.9005 93.8526 12.9005H87.9108V19.9538Z" fill="#00C58B" style="fill:#00C58B;fill:color(display-p3 0.0000 0.7725 0.5451);fill-opacity:1;"/>
<path d="M102.03 22.6998C102.03 18.0694 104.734 15.3773 108.721 15.3773C112.469 15.3773 115.065 17.7194 115.065 21.7576C115.065 22.2691 115.038 22.8882 114.958 23.3459H104.921V24.1535C104.921 26.361 106.473 27.8686 108.775 27.8686C110.622 27.8686 111.987 26.8994 112.335 25.4726H115.091C114.583 28.2455 112.04 30.0761 108.775 30.0761C104.653 30.0761 102.03 27.1956 102.03 22.6998ZM104.921 21.4076H112.254V20.8961C112.254 18.9309 110.809 17.6117 108.695 17.6117C106.473 17.6117 104.921 18.9847 104.921 21.0038V21.4076Z" fill="#00C58B" style="fill:#00C58B;fill:color(display-p3 0.0000 0.7725 0.5451);fill-opacity:1;"/>
<path d="M116.835 25.8226C116.835 23.2382 118.629 21.9729 121.278 21.8114L126.016 21.5422V19.9808C126.016 18.3925 124.999 17.6117 123.125 17.6117C121.145 17.6117 120.154 18.4732 120.181 20.1961H117.558C117.478 17.2079 119.485 15.3773 123.205 15.3773C126.685 15.3773 128.826 16.8849 128.826 20.0077V27.6263H131.262V29.8069H126.792V27.1686H126.31C125.588 28.9185 123.714 30.0761 121.385 30.0761C118.682 30.0761 116.835 28.4878 116.835 25.8226ZM119.699 25.4188V26.011C119.699 27.1417 120.663 27.8955 122.215 27.8955C123.955 27.8955 125.4 26.9264 126.016 25.4457V23.2651L122.028 23.4805C120.368 23.5882 119.699 24.3958 119.699 25.4188Z" fill="#00C58B" style="fill:#00C58B;fill:color(display-p3 0.0000 0.7725 0.5451);fill-opacity:1;"/>
<path d="M135.881 27.4916H139.708V29.8068H135.453C133.686 29.8068 133.071 28.8646 133.071 27.4916V9.99304H135.881V27.4916Z" fill="#00C58B" style="fill:#00C58B;fill:color(display-p3 0.0000 0.7725 0.5451);fill-opacity:1;"/>
<path d="M141.913 13.3312V9.99304H144.723V13.3312H141.913ZM141.913 29.8068V15.6465H144.723V29.8068H141.913Z" fill="#00C58B" style="fill:#00C58B;fill:color(display-p3 0.0000 0.7725 0.5451);fill-opacity:1;"/>
<path d="M152.119 27.4916H155.945V29.8068H151.691C149.923 29.8068 149.309 28.8646 149.309 27.4916V17.9885H146.605V15.6464H149.309V11.016H152.119V15.6464H155.651V17.9885H152.119V27.4916Z" fill="#00C58B" style="fill:#00C58B;fill:color(display-p3 0.0000 0.7725 0.5451);fill-opacity:1;"/>
<path d="M156.544 15.6465H159.488L161.415 20.1692L163.316 25.1226H163.851L165.804 20.1692L167.759 15.6465H170.676L165.028 28.0839V31.9067C165.028 33.6027 164.065 34.3834 162.619 34.3834H156.57V32.0951H162.217V28.057L156.544 15.6465Z" fill="#00C58B" style="fill:#00C58B;fill:color(display-p3 0.0000 0.7725 0.5451);fill-opacity:1;"/>
<path d="M84.9399 56.7277V37.1024H92.782C98.8308 37.1024 101.133 40.7098 101.133 46.9285C101.133 53.2549 98.7238 56.7277 92.782 56.7277H84.9399ZM87.9108 54.0625H92.7285C96.3952 54.0625 98.0011 52.3934 98.0011 48.5707V45.2864C98.0011 41.2213 96.1544 39.7676 92.7285 39.7676H87.9108V54.0625Z" fill="#00C58B" style="fill:#00C58B;fill:color(display-p3 0.0000 0.7725 0.5451);fill-opacity:1;"/>
<path d="M102.945 49.6206C102.945 44.9902 105.649 42.2981 109.636 42.2981C113.384 42.2981 115.98 44.6402 115.98 48.6783C115.98 49.1898 115.953 49.809 115.873 50.2667H105.836V51.0743C105.836 53.2818 107.388 54.7894 109.69 54.7894C111.537 54.7894 112.902 53.8202 113.25 52.3934H116.006C115.498 55.1663 112.955 56.9969 109.69 56.9969C105.568 56.9969 102.945 54.1163 102.945 49.6206ZM105.836 48.3284H113.169V47.8169C113.169 45.8516 111.724 44.5325 109.61 44.5325C107.388 44.5325 105.836 45.9055 105.836 47.9246V48.3284Z" fill="#00C58B" style="fill:#00C58B;fill:color(display-p3 0.0000 0.7725 0.5451);fill-opacity:1;"/>
<path d="M122.354 39.2022V42.5673H125.753V44.9094H122.354V56.7277H119.543V44.9094H116.813V42.5673H119.543V39.2291C119.543 37.56 120.507 36.9139 122.086 36.9139H126.583V39.2022H122.354Z" fill="#00C58B" style="fill:#00C58B;fill:color(display-p3 0.0000 0.7725 0.5451);fill-opacity:1;"/>
<path d="M126.693 49.6206C126.693 44.9902 129.396 42.2981 133.384 42.2981C137.131 42.2981 139.727 44.6402 139.727 48.6783C139.727 49.1898 139.701 49.809 139.62 50.2667H129.583V51.0743C129.583 53.2818 131.136 54.7894 133.438 54.7894C135.284 54.7894 136.649 53.8202 136.997 52.3934H139.754C139.246 55.1663 136.703 56.9969 133.438 56.9969C129.316 56.9969 126.693 54.1163 126.693 49.6206ZM129.583 48.3284H136.917V47.8169C136.917 45.8516 135.472 44.5325 133.357 44.5325C131.136 44.5325 129.583 45.9055 129.583 47.9246V48.3284Z" fill="#00C58B" style="fill:#00C58B;fill:color(display-p3 0.0000 0.7725 0.5451);fill-opacity:1;"/>
<path d="M142.488 56.7277V42.5673H144.977L145.352 45.1786H145.887C146.69 43.4288 148.51 42.2981 150.704 42.2981C153.515 42.2981 155.307 43.9403 155.307 47.0631V56.7277H152.471V48.0053C152.471 45.8247 151.454 44.6402 149.366 44.6402C146.85 44.6402 145.325 46.5785 145.325 49.2706V56.7277H142.488Z" fill="#00C58B" style="fill:#00C58B;fill:color(display-p3 0.0000 0.7725 0.5451);fill-opacity:1;"/>
<path d="M163.434 56.9969C159.579 56.9969 157.732 54.0625 157.732 49.6475C157.732 44.8287 159.927 42.2981 163.513 42.2981C165.815 42.2981 167.341 43.3749 168.09 45.071H168.653L168.572 42.0289V36.9139H171.382V56.7277H168.893L168.653 54.224H168.09C167.368 55.947 165.494 56.9969 163.434 56.9969ZM164.397 54.6548C166.913 54.6548 168.572 53.0126 168.572 50.5359V48.786C168.572 46.2824 166.913 44.6402 164.371 44.6402C162.122 44.6402 160.65 45.9863 160.65 48.2476V51.0743C160.65 53.201 161.988 54.6548 164.397 54.6548Z" fill="#00C58B" style="fill:#00C58B;fill:color(display-p3 0.0000 0.7725 0.5451);fill-opacity:1;"/>
<path d="M174.05 49.6206C174.05 44.9902 176.753 42.2981 180.741 42.2981C184.488 42.2981 187.084 44.6402 187.084 48.6783C187.084 49.1898 187.057 49.809 186.976 50.2667H176.94V51.0743C176.94 53.2818 178.492 54.7894 180.794 54.7894C182.641 54.7894 184.006 53.8202 184.354 52.3934H187.11C186.601 55.1663 184.059 56.9969 180.794 56.9969C176.672 56.9969 174.05 54.1163 174.05 49.6206ZM176.94 48.3284H184.273V47.8169C184.273 45.8516 182.828 44.5325 180.713 44.5325C178.492 44.5325 176.94 45.9055 176.94 47.9246V48.3284Z" fill="#00C58B" style="fill:#00C58B;fill:color(display-p3 0.0000 0.7725 0.5451);fill-opacity:1;"/>
<path d="M197.693 42.4866C198.041 42.4866 198.496 42.5135 198.71 42.5673V45.1787C198.388 45.1248 198.041 45.0979 197.747 45.0979C195.071 45.0979 193.063 46.7401 193.063 49.8898V56.7277H190.225V44.9094H187.629V42.5673H192.715L193.09 45.4209H193.625C194.24 43.5365 195.846 42.4866 197.693 42.4866Z" fill="#00C58B" style="fill:#00C58B;fill:color(display-p3 0.0000 0.7725 0.5451);fill-opacity:1;"/>
</g>
<defs>
<clipPath id="clip0_1_1106">
<rect width="199" height="71" fill="white" style="fill:white;fill-opacity:1;"/>
</clipPath>
</defs>
</svg>
