<svg width="200" height="30" viewBox="0 0 200 30" fill="none" xmlns="http://www.w3.org/2000/svg">
<g clip-path="url(#clip0_1_1140)">
<path d="M196.626 3.16878C196.636 3.06333 196.618 2.95699 196.571 2.86162C196.525 2.76626 196.452 2.68564 196.363 2.62878C196.191 2.55732 196.005 2.5273 195.82 2.54116H195.261V3.7964H195.996C196.079 3.80163 196.162 3.79006 196.24 3.76239C196.318 3.73471 196.389 3.69152 196.45 3.63544C196.51 3.57422 196.557 3.50106 196.587 3.42068C196.618 3.3403 196.631 3.25449 196.626 3.16878ZM196.86 4.43925L197.785 6.10401C197.799 6.12577 197.807 6.15105 197.807 6.17687C197.807 6.20269 197.799 6.22797 197.785 6.24973C197.774 6.27162 197.758 6.29008 197.737 6.30304C197.716 6.31599 197.692 6.32292 197.668 6.32306H196.979C196.952 6.32308 196.926 6.31634 196.903 6.30351C196.88 6.29067 196.861 6.27216 196.847 6.24973L195.967 4.61449H195.261V6.1764C195.26 6.21474 195.245 6.25124 195.218 6.27836C195.19 6.30548 195.154 6.32114 195.115 6.32211H194.514C194.476 6.32114 194.439 6.30548 194.412 6.27836C194.385 6.25124 194.369 6.21474 194.368 6.1764V1.88401C194.369 1.84567 194.385 1.80917 194.412 1.78205C194.439 1.75493 194.476 1.73926 194.514 1.7383H195.835C196.122 1.72247 196.41 1.75696 196.686 1.8402C196.936 1.92703 197.148 2.09728 197.287 2.32211C197.436 2.56312 197.513 2.84186 197.507 3.12497C197.513 3.38605 197.447 3.64384 197.316 3.86973C197.191 4.0769 197.014 4.24798 196.803 4.36592C196.832 4.39544 196.847 4.42401 196.86 4.43925ZM195.967 0.730681C195.523 0.728944 195.083 0.81843 194.676 0.993538C194.281 1.15568 193.922 1.39398 193.62 1.69473C193.318 1.99547 193.078 2.35272 192.916 2.74592C192.741 3.15228 192.651 3.58966 192.651 4.03163C192.651 4.4736 192.741 4.91098 192.916 5.31735C193.078 5.71055 193.318 6.0678 193.62 6.36854C193.922 6.66929 194.281 6.90759 194.676 7.06973C195.084 7.24342 195.524 7.33297 195.968 7.33297C196.411 7.33297 196.851 7.24342 197.259 7.06973C197.654 6.90759 198.013 6.66929 198.315 6.36854C198.617 6.0678 198.857 5.71055 199.019 5.31735C199.193 4.91079 199.283 4.47349 199.283 4.03163C199.283 3.58978 199.193 3.15247 199.019 2.74592C198.857 2.35272 198.617 1.99547 198.315 1.69473C198.013 1.39398 197.654 1.15568 197.259 0.993538C196.851 0.818173 196.411 0.728681 195.967 0.730681ZM200 4.03068C200.004 4.56805 199.894 5.10019 199.678 5.59259C199.27 6.56243 198.495 7.33359 197.521 7.73925C197.025 7.95114 196.491 8.06041 195.952 8.06041C195.412 8.06041 194.878 7.95114 194.382 7.73925C193.408 7.33359 192.633 6.56243 192.226 5.59259C192.01 5.10019 191.9 4.56805 191.903 4.03068C191.9 3.49331 192.01 2.96118 192.226 2.46878C192.633 1.49857 193.408 0.727045 194.382 0.321157C194.878 0.109267 195.412 0 195.952 0C196.491 0 197.025 0.109267 197.521 0.321157C198.495 0.726821 199.27 1.49798 199.678 2.46782C199.894 2.96022 200.004 3.49331 200 4.03068Z" fill="white" style="fill:white;fill-opacity:1;"/>
<path d="M0 0.727905H5.72208C8.83712 0.727905 11.0796 1.01933 12.3865 1.60124C13.7611 2.12158 14.9126 3.09901 15.646 4.36791C16.485 5.77685 16.9115 7.3913 16.8773 9.02886C16.9436 10.7135 16.46 12.3742 15.4987 13.7622C14.4738 15.1033 13.0567 16.0955 11.4422 16.6022L18.1775 29.2717H12.2459L5.8675 17.1841H5.43315V29.2717H0V0.727905ZM5.43315 11.8708H7.09878C8.31976 11.9779 9.54696 11.7513 10.6482 11.2155C10.9818 10.9474 11.2427 10.6003 11.4072 10.2061C11.5716 9.81186 11.6343 9.38293 11.5896 8.95838C11.6228 8.38068 11.4424 7.81086 11.0825 7.35648C10.7682 6.88616 10.3114 6.52786 9.77852 6.33362C8.81268 6.07514 7.81069 5.97668 6.81272 6.04219H5.35757L5.43315 11.8708Z" fill="white" style="fill:white;fill-opacity:1;"/>
<path d="M40.0574 20.2422H23.1074C23.2597 21.6423 23.9628 22.9253 25.0629 23.8108C26.215 24.7147 27.6535 25.1795 29.1193 25.1212C30.0632 25.123 30.9978 24.9371 31.8685 24.5745C32.7392 24.212 33.5284 23.68 34.1899 23.0098L38.6089 25.1212C37.6179 26.6191 36.2424 27.8259 34.6252 28.6165C32.9003 29.4081 31.0195 29.8061 29.1203 29.7812C27.6483 29.8423 26.1794 29.6006 24.8055 29.0711C23.4316 28.5416 22.1821 27.7358 21.1351 26.7039C20.0881 25.672 19.2662 24.4363 18.7206 23.074C18.175 21.7116 17.9175 20.2519 17.9641 18.786C17.9127 17.3107 18.1622 15.8403 18.6976 14.4637C19.233 13.087 20.0432 11.8327 21.0792 10.7765C22.0736 9.7322 23.2772 8.90743 24.6121 8.35554C25.947 7.80365 27.3835 7.53694 28.8285 7.57266C30.3188 7.51599 31.8044 7.77194 33.1889 8.32389C34.5734 8.87583 35.8258 9.71144 36.8649 10.7765C37.928 11.9035 38.7519 13.2324 39.2872 14.6838C39.8224 16.1351 40.058 17.679 39.9799 19.2231L40.0574 20.2422ZM34.7697 16.0917C34.433 14.9453 33.7186 13.9449 32.7414 13.2517C31.7038 12.5237 30.4614 12.1413 29.1921 12.1593C27.8111 12.1456 26.4633 12.5802 25.3528 13.3974C24.4925 14.1546 23.8227 15.1022 23.3973 16.1641L34.7697 16.0917Z" fill="white" style="fill:white;fill-opacity:1;"/>
<path d="M56.7893 0.000244141H62.077V29.2717H56.7893V27.0145C55.9103 27.927 54.8492 28.6463 53.6743 29.126C52.6194 29.5661 51.4858 29.789 50.342 29.7812C49.01 29.7766 47.6943 29.4884 46.4833 28.936C45.2723 28.3835 44.194 27.5797 43.3208 26.5783C41.3439 24.4399 40.2803 21.6197 40.355 18.7145C40.2167 15.7681 41.2586 12.8875 43.2519 10.705C44.1101 9.70815 45.1778 8.91103 46.3795 8.36995C47.5811 7.82886 48.8874 7.55701 50.2062 7.57358C51.4286 7.55475 52.6403 7.80346 53.7556 8.30215C54.906 8.82098 55.9404 9.56383 56.7979 10.4869L56.7893 0.000244141ZM51.2844 12.5241C50.5222 12.5105 49.7659 12.6595 49.0662 12.9609C48.3666 13.2623 47.7398 13.7093 47.228 14.2717C46.1303 15.4859 45.5576 17.0819 45.6341 18.7136C45.5825 20.3761 46.1794 21.9939 47.2997 23.2279C47.827 23.7806 48.4618 24.2207 49.1654 24.5215C49.869 24.8222 50.6268 24.9773 51.3925 24.9773C52.1582 24.9773 52.916 24.8222 53.6196 24.5215C54.3232 24.2207 54.958 23.7806 55.4853 23.2279C56.6183 21.9722 57.2157 20.3268 57.1509 18.6402C57.1833 17.8269 57.0526 17.0152 56.7667 16.2526C56.4807 15.49 56.0451 14.7917 55.4853 14.1983C54.9308 13.657 54.2741 13.2303 53.5531 12.9429C52.832 12.6556 52.061 12.5132 51.2844 12.5241Z" fill="white" style="fill:white;fill-opacity:1;"/>
<path d="M79.8976 8.1536H85.1853V29.2717H79.8976V27.0107C79.0186 27.9232 77.9575 28.6425 76.7825 29.1222C75.7276 29.5624 74.5941 29.7853 73.4503 29.7774C72.1174 29.7733 70.8007 29.4853 69.5889 28.9327C68.377 28.3801 67.298 27.5757 66.4242 26.5736C64.4474 24.4351 63.3838 21.615 63.4584 18.7098C63.3204 15.7632 64.3626 12.8825 66.3563 10.7003C67.2145 9.7046 68.2817 8.9085 69.4827 8.3681C70.6836 7.8277 71.989 7.55617 73.3068 7.57265C74.5293 7.55382 75.7409 7.80254 76.8562 8.30122C78.0066 8.82005 79.0411 9.5629 79.8985 10.486L79.8976 8.1536ZM74.3927 12.5222C73.6304 12.5087 72.8741 12.6576 72.1745 12.959C71.4748 13.2605 70.8481 13.7074 70.3362 14.2698C69.2385 15.484 68.6659 17.08 68.7424 18.7117C68.6908 20.3742 69.2877 21.992 70.408 23.226C70.9353 23.7787 71.5701 24.2188 72.2737 24.5196C72.9773 24.8203 73.735 24.9754 74.5008 24.9754C75.2665 24.9754 76.0242 24.8203 76.7279 24.5196C77.4315 24.2188 78.0663 23.7787 78.5936 23.226C79.7265 21.9703 80.3239 20.3249 80.2592 18.6384C80.2915 17.825 80.1608 17.0134 79.8748 16.2508C79.5889 15.4882 79.1533 14.7898 78.5936 14.1965C78.0388 13.6553 77.3819 13.2289 76.6607 12.9419C75.9395 12.6549 75.1683 12.5129 74.3917 12.5241L74.3927 12.5222Z" fill="white" style="fill:white;fill-opacity:1;"/>
<path d="M108.076 12.4517L103.657 14.8545C102.967 14.0889 102.13 13.4698 101.194 13.0345C100.3 12.6644 99.3365 12.4906 98.3689 12.525C97.4953 12.4893 96.6232 12.6252 95.8025 12.9251C94.9817 13.2249 94.2283 13.6828 93.5853 14.2726C92.9817 14.8561 92.5084 15.5597 92.1963 16.3375C91.8843 17.1154 91.7405 17.95 91.7743 18.7869C91.7376 19.596 91.8735 20.4037 92.1732 21.1566C92.4728 21.9096 92.9293 22.5909 93.5126 23.1555C94.1275 23.7381 94.8568 24.1877 95.6547 24.476C96.4526 24.7643 97.3018 24.8851 98.1488 24.8307C99.1922 24.8884 100.234 24.7007 101.191 24.2827C102.148 23.8648 102.993 23.2283 103.657 22.425L107.786 25.265C106.67 26.7176 105.217 27.8801 103.552 28.6535C101.888 29.4269 100.06 29.7883 98.2244 29.7069C94.5302 29.7069 91.6327 28.6148 89.5318 26.4307C88.5281 25.4122 87.7364 24.2064 87.2018 22.8827C86.6673 21.5589 86.4005 20.1431 86.4167 18.7164C86.4047 16.7218 86.93 14.7604 87.9379 13.0364C88.9622 11.3146 90.4401 9.90435 92.2115 8.95833C94.0763 7.95008 96.1748 7.44788 98.2962 7.50214C100.227 7.47323 102.138 7.89738 103.874 8.74024C105.572 9.59673 107.019 10.8751 108.076 12.4517Z" fill="white" style="fill:white;fill-opacity:1;"/>
<path d="M110.538 0.364014H115.753V8.15544H118.941V12.7383H115.753V29.2716H110.538V12.7383H107.786V8.15544H110.538V0.364014Z" fill="white" style="fill:white;fill-opacity:1;"/>
<path d="M134.225 8.15361H139.512V29.2717H134.225V27.0108C133.346 27.9233 132.285 28.6425 131.11 29.1222C130.055 29.5624 128.922 29.7853 127.778 29.7774C126.445 29.7733 125.128 29.4853 123.917 28.9327C122.705 28.3801 121.626 27.5757 120.752 26.5736C118.775 24.4351 117.712 21.615 117.786 18.7098C117.648 15.7634 118.69 12.8828 120.683 10.7003C121.541 9.70347 122.609 8.90639 123.811 8.36531C125.012 7.82423 126.319 7.55235 127.637 7.56885C128.859 7.55016 130.071 7.79888 131.186 8.29742C132.337 8.8161 133.371 9.55896 134.229 10.4822L134.225 8.15361ZM128.719 12.5222C127.957 12.5088 127.201 12.6578 126.502 12.9592C125.802 13.2607 125.176 13.7075 124.664 14.2698C123.566 15.484 122.993 17.08 123.07 18.7117C123.019 20.3743 123.616 21.9922 124.737 23.226C125.264 23.7786 125.899 24.2186 126.602 24.5192C127.306 24.8199 128.063 24.9749 128.829 24.9749C129.595 24.9749 130.352 24.8199 131.056 24.5192C131.759 24.2186 132.394 23.7786 132.921 23.226C134.055 21.9705 134.652 20.3251 134.588 18.6384C134.62 17.8249 134.489 17.0132 134.203 16.2506C133.917 15.488 133.481 14.7897 132.921 14.1965C132.367 13.6552 131.71 13.2287 130.988 12.9417C130.267 12.6546 129.496 12.5127 128.719 12.5241V12.5222Z" fill="white" style="fill:white;fill-opacity:1;"/>
<path d="M147.118 0.000244141V10.486C148.007 9.56726 149.065 8.82577 150.233 8.3012C151.348 7.80265 152.559 7.55393 153.781 7.57263C155.101 7.5489 156.41 7.81755 157.613 8.35912C158.815 8.9007 159.882 9.70166 160.736 10.7041C162.688 12.9108 163.724 15.7744 163.633 18.7136C163.707 21.6188 162.644 24.439 160.667 26.5774C159.793 27.5795 158.714 28.3838 157.502 28.9364C156.29 29.489 154.974 29.7771 153.641 29.7812C152.473 29.789 151.316 29.5663 150.236 29.126C149.085 28.6018 148.032 27.888 147.121 27.0145V29.2717H141.905V0.000244141H147.118ZM152.62 12.5241C151.853 12.5066 151.091 12.6462 150.381 12.9344C149.671 13.2226 149.028 13.6532 148.492 14.1993C147.372 15.4048 146.773 17.0002 146.825 18.6412C146.761 20.3279 147.358 21.9734 148.492 23.2288C149.019 23.7814 149.654 24.2214 150.357 24.522C151.061 24.8227 151.818 24.9778 152.584 24.9778C153.35 24.9778 154.107 24.8227 154.811 24.522C155.514 24.2214 156.149 23.7814 156.676 23.2288C157.797 21.995 158.394 20.3772 158.343 18.7145C158.42 17.0828 157.847 15.4868 156.749 14.2726C156.227 13.7031 155.588 13.2521 154.876 12.9504C154.163 12.6486 153.394 12.5032 152.62 12.5241Z" fill="white" style="fill:white;fill-opacity:1;"/>
<path d="M164.431 0.000244141H169.646V29.2717H164.431V0.000244141Z" fill="white" style="fill:white;fill-opacity:1;"/>
<path d="M186.669 8.15552V13.4708H172.977V8.15552H186.669Z" fill="white" style="fill:white;fill-opacity:1;"/>
<path d="M191.667 24.6851V30.0003H172.977V24.6851H191.667Z" fill="white" style="fill:white;fill-opacity:1;"/>
<path d="M191.667 16.384V21.6993H172.977V16.384H191.667Z" fill="white" style="fill:white;fill-opacity:1;"/>
</g>
<defs>
<clipPath id="clip0_1_1140">
<rect width="200" height="30.0003" fill="white" style="fill:white;fill-opacity:1;"/>
</clipPath>
</defs>
</svg>
