<svg width="200" height="42" viewBox="0 0 200 42" fill="none" xmlns="http://www.w3.org/2000/svg">
<g clip-path="url(#clip0_1_1156)">
<path d="M40.3425 18.1868L23.6025 1.57327C22.0325 0.0151291 19.4875 0.0151291 17.9175 1.57327L1.1775 18.1868C-0.3925 19.7449 -0.3925 22.2707 1.1775 23.8288L17.9175 40.4423C19.4875 42.0004 22.0325 42.0004 23.6025 40.4423L40.3425 23.8288C41.9125 22.2707 41.9125 19.7449 40.3425 18.1868ZM20.9608 27.0609C17.4325 27.1733 14.5492 24.3118 14.6608 20.8101C14.7625 17.6393 17.3658 15.0556 20.5608 14.9547C24.0892 14.8422 26.9725 17.7054 26.8592 21.2071C26.7575 24.378 24.1542 26.9616 20.9592 27.0625L20.9608 27.0609Z" fill="white" style="fill:white;fill-opacity:1;"/>
<path d="M54.4024 15.6495H56.3857C56.7307 15.6495 57.024 15.9026 57.0724 16.2417L57.4074 18.5938H57.4774C58.769 16.2036 61.1074 15.4427 62.8174 15.4427C63.069 15.4427 63.2957 15.451 63.5057 15.4659C63.8657 15.494 64.144 15.7934 64.144 16.1523V18.6268C64.144 19.0271 63.8007 19.3464 63.399 19.3133C63.1724 19.2951 62.9424 19.2868 62.7124 19.2868C60.269 19.2868 57.8274 20.7407 57.8274 24.378V33.8708C57.8274 34.2512 57.5174 34.5589 57.134 34.5589H54.404C54.0207 34.5589 53.7107 34.2512 53.7107 33.8708V16.3376C53.7107 15.9572 54.0207 15.6495 54.404 15.6495H54.4024Z" fill="white" style="fill:white;fill-opacity:1;"/>
<path d="M72.449 17.7634H72.519C73.6006 16.2747 75.5557 15.2012 77.824 15.2012C81.9773 15.2012 84.629 17.5913 84.629 22.0242V33.8724C84.629 34.2528 84.319 34.5605 83.9356 34.5605H81.2057C80.8223 34.5605 80.5123 34.2528 80.5123 33.8724V23.2698C80.5123 20.3602 79.2557 18.9411 76.674 18.9411C74.3707 18.9411 72.4507 20.2924 72.4507 23.0283V33.8724C72.4507 34.2528 72.1407 34.5605 71.7573 34.5605H69.0273C68.644 34.5605 68.334 34.2528 68.334 33.8724V7.50645C68.334 7.12602 68.644 6.81836 69.0273 6.81836H71.7573C72.1407 6.81836 72.4507 7.12602 72.4507 7.50645V17.7617L72.449 17.7634Z" fill="white" style="fill:white;fill-opacity:1;"/>
<path d="M88.2573 25.1058C88.2573 19.3562 92.4807 15.2012 97.959 15.2012C103.437 15.2012 107.626 19.3579 107.626 25.1058C107.626 30.8537 103.472 35.0103 97.959 35.0103C92.4457 35.0103 88.2573 30.8537 88.2573 25.1058ZM103.472 25.1058C103.472 21.1922 100.786 18.941 97.959 18.941C95.1323 18.941 92.4107 21.1922 92.4107 25.1058C92.4107 29.0193 95.1323 31.2705 97.959 31.2705C100.786 31.2705 103.472 29.0193 103.472 25.1058Z" fill="white" style="fill:white;fill-opacity:1;"/>
<path d="M137.394 21.9879V33.8707C137.394 34.2512 137.084 34.5588 136.701 34.5588H133.971C133.587 34.5588 133.277 34.2512 133.277 33.8707V22.714C133.277 20.2892 132.336 19.0089 130.067 19.0089C127.799 19.0089 126.542 20.7407 126.542 22.6462V33.8707C126.542 34.2512 126.232 34.5588 125.849 34.5588H123.119C122.736 34.5588 122.426 34.2512 122.426 33.8707V22.714C122.426 20.2892 121.484 19.0089 119.216 19.0089C116.947 19.0089 115.726 20.8449 115.726 22.853V33.8707C115.726 34.2512 115.416 34.5588 115.032 34.5588H112.302C111.919 34.5588 111.609 34.2512 111.609 33.8707V16.3376C111.609 15.9571 111.919 15.6495 112.302 15.6495H114.196C114.536 15.6495 114.826 15.8943 114.881 16.2268L115.239 18.3853H115.344C116.321 16.6188 118.031 15.1996 120.509 15.1996C122.782 15.1996 124.324 16.0696 125.321 17.5451C125.586 17.9371 126.156 17.9751 126.447 17.603C127.594 16.1325 129.214 15.1996 131.327 15.1996C135.481 15.1996 137.399 17.9702 137.399 21.9879H137.394Z" fill="white" style="fill:white;fill-opacity:1;"/>
<path d="M146.642 16.7511C146.642 17.3548 147.376 17.679 147.812 17.2605C149.189 15.9406 151.126 15.1995 153.064 15.1995C157.531 15.1995 161.579 19.0436 161.579 25.1041C161.579 31.1646 157.391 35.0087 152.924 35.0087C150.764 35.0087 148.779 34.137 147.372 32.6169C146.971 32.1836 146.246 32.3953 146.166 32.9775L146.029 33.9633C145.982 34.3041 145.687 34.5571 145.342 34.5571H143.221C142.837 34.5571 142.527 34.2495 142.527 33.8691V7.50645C142.527 7.12602 142.837 6.81836 143.221 6.81836H145.951C146.334 6.81836 146.644 7.12602 146.644 7.50645V16.7511H146.642ZM146.572 25.1058C146.572 28.7414 148.911 31.2705 151.981 31.2705C155.051 31.2705 157.424 28.7414 157.424 25.1405C157.424 21.5396 155.051 18.9411 151.946 18.9411C148.841 18.9411 146.572 21.5032 146.572 25.1058Z" fill="white" style="fill:white;fill-opacity:1;"/>
<path d="M165.207 27.1486V16.3392C165.207 15.9588 165.517 15.6511 165.901 15.6511H168.631C169.014 15.6511 169.324 15.9588 169.324 16.3392V27.1833C169.324 29.7802 170.789 31.2705 173.267 31.2705C175.746 31.2705 177.386 29.7819 177.386 27.1486V16.3392C177.386 15.9588 177.696 15.6511 178.079 15.6511H180.809C181.192 15.6511 181.502 15.9588 181.502 16.3392V27.1138C181.502 31.7552 178.361 35.0104 173.266 35.0104C168.171 35.0104 165.204 31.7552 165.204 27.1486H165.207Z" fill="white" style="fill:white;fill-opacity:1;"/>
<path d="M198.884 17.1679V19.257C198.884 19.7764 198.324 20.1171 197.866 19.869C196.559 19.1594 194.871 18.6979 193.161 18.6979C190.997 18.6979 189.811 19.5283 189.811 20.8449C189.811 22.2658 191.242 22.7852 193.649 23.4766C196.651 24.2738 200.001 25.2778 200.001 29.1566C200.001 32.7245 197.174 35.0104 192.462 35.0104C190.052 35.0104 187.797 34.3901 186.084 33.2075C185.901 33.0818 185.797 32.87 185.797 32.65V30.4104C185.797 29.8514 186.429 29.5305 186.892 29.8497C188.336 30.8405 190.156 31.5468 192.322 31.5468C194.661 31.5468 195.987 30.5775 195.987 29.1914C195.987 27.6332 194.347 27.1139 191.729 26.3166C188.622 25.4168 185.796 24.3086 185.796 20.9491C185.796 17.5897 188.517 15.1996 193.019 15.1996C195.051 15.1996 197.142 15.7322 198.549 16.5774C198.756 16.7015 198.881 16.9264 198.881 17.1663L198.884 17.1679Z" fill="white" style="fill:white;fill-opacity:1;"/>
</g>
<defs>
<clipPath id="clip0_1_1156">
<rect width="200.001" height="42" fill="white" style="fill:white;fill-opacity:1;"/>
</clipPath>
</defs>
</svg>
