<svg width="199" height="46" viewBox="0 0 199 46" fill="none" xmlns="http://www.w3.org/2000/svg">
<g clip-path="url(#clip0_1_1186)">
<path d="M30.0267 17.227L40.0197 11.5432L20.0041 0L10.0706 5.7322L30.0267 17.227Z" fill="#00C58B" style="fill:#00C58B;fill:color(display-p3 0.0000 0.7725 0.5451);fill-opacity:1;"/>
<path d="M20.0211 22.9179L0.13669 11.4645L0 11.5433V22.8397L10.0156 28.6087L20.0211 22.9179Z" fill="#00C58B" style="fill:#00C58B;fill:color(display-p3 0.0000 0.7725 0.5451);fill-opacity:1;"/>
<path d="M29.9714 40.1035L10.0154 28.6086L0.00976562 34.2996L20.0379 45.8356L29.9714 40.1035Z" fill="#00C58B" style="fill:#00C58B;fill:color(display-p3 0.0000 0.7725 0.5451);fill-opacity:1;"/>
<path d="M20.0212 22.918L39.9052 34.3714L40.0197 34.3053V22.9831L30.0267 17.2271L20.0212 22.918Z" fill="#00C58B" style="fill:#00C58B;fill:color(display-p3 0.0000 0.7725 0.5451);fill-opacity:1;"/>
<path d="M116.663 37.7241L125.102 14.8564H118.293L115.369 23.8298C114.553 26.3383 113.787 28.8954 113.019 31.3076H112.827C112.108 28.8472 111.294 26.3383 110.479 23.8298L107.649 14.8564H100.553L109.04 37.7241H116.663Z" fill="#00C58B" style="fill:#00C58B;fill:color(display-p3 0.0000 0.7725 0.5451);fill-opacity:1;"/>
<path d="M133.22 14.8564H126.652V37.7241H133.22V14.8564Z" fill="#00C58B" style="fill:#00C58B;fill:color(display-p3 0.0000 0.7725 0.5451);fill-opacity:1;"/>
<path d="M138.662 45.4912C144.367 45.4912 147.34 43.1753 149.499 37.5792L158.32 14.8564H151.271L148.971 23.3955C148.394 25.5182 147.724 27.8341 147.006 30.246H146.621C145.901 27.8341 145.136 25.3735 144.511 23.2507L141.827 14.8564H134.683L143.266 37.3381C142.258 39.6536 141.108 39.9913 138.758 39.9913C137.799 39.9913 136.841 39.8467 135.833 39.6536L135.067 45.2016C136.217 45.3464 137.129 45.4912 138.662 45.4912Z" fill="#00C58B" style="fill:#00C58B;fill:color(display-p3 0.0000 0.7725 0.5451);fill-opacity:1;"/>
<path d="M166.487 24.3121C166.487 21.7068 168.021 20.1631 170.657 20.1631C173.391 20.1631 174.446 21.948 174.446 24.3121V37.7239H180.967V22.4306C180.967 17.5099 178.906 14.2291 173.966 14.2291C170.323 14.2291 167.59 16.014 166.536 21.2728H166.487V14.8564H159.918V37.7239H166.487V24.3121Z" fill="#00C58B" style="fill:#00C58B;fill:color(display-p3 0.0000 0.7725 0.5451);fill-opacity:1;"/>
<path d="M185.747 30.5356C185.747 34.8775 187.953 38.3993 193.227 38.3993C195.72 38.3993 196.87 38.0616 198.597 37.5309L197.877 31.4524C197.063 31.6452 195.912 31.9828 194.904 31.9828C192.939 31.9828 192.269 31.1146 192.269 29.2814V20.3562H198.262V14.8563H192.269V9.1156H185.747V14.8563H183.11V20.3562H185.747V30.5356Z" fill="#00C58B" style="fill:#00C58B;fill:color(display-p3 0.0000 0.7725 0.5451);fill-opacity:1;"/>
<path d="M93.3376 28.9434C93.3376 31.2592 91.5151 32.8994 88.7355 32.8994C86.2408 32.8994 85.3783 31.7897 85.3783 30.3907C85.3783 29.1365 86.5288 28.268 88.4475 28.268H93.3376V28.9434ZM90.0781 14.3257C83.0315 14.3257 80.2503 17.7489 79.6728 22.5227H86.0046C86.5836 20.5283 87.8882 19.7772 89.7901 19.7772C92.2831 19.7772 93.3376 21.128 93.3376 23.5885V24.5532H87.4401C81.4466 24.5532 79.0022 27.3997 79.0022 31.5488C79.0022 36.0352 81.9739 38.2063 85.9055 38.2063C89.7412 38.2063 92.2343 36.0352 93.2416 32.1275H93.3376V37.7237H99.8585V23.5403C99.8585 17.7028 96.9813 14.3257 90.0781 14.3257Z" fill="#00C58B" style="fill:#00C58B;fill:color(display-p3 0.0000 0.7725 0.5451);fill-opacity:1;"/>
<path d="M76.6448 17.4133C75.6376 12.2031 72.3778 8.10229 64.4673 8.10229C56.9388 8.10229 53.055 11.431 53.055 16.8826C53.055 21.4658 55.5961 24.7946 63.556 26.0005C68.6854 26.7726 70.1728 27.7376 70.1728 29.5709C70.1728 31.4041 68.5421 32.4171 65.6651 32.4171C62.314 32.4171 59.8394 30.7819 58.9744 27.7491H52.0051C52.0227 28.0908 52.048 28.4128 52.048 28.4128C52.7196 33.6715 55.8838 38.3511 65.185 38.3993C73.5284 38.3993 77.2208 34.8294 77.2208 29.3296C77.2208 25.2289 75.063 21.6106 66.8644 20.3077C60.8226 19.3913 60.0553 18.2334 60.0553 16.7379C60.0553 15.0494 61.3978 13.9398 64.0833 13.9398C67.035 13.9398 68.5483 15.1085 69.4337 17.4973H76.6586C76.6524 17.455 76.6448 17.4133 76.6448 17.4133Z" fill="#00C58B" style="fill:#00C58B;fill:color(display-p3 0.0000 0.7725 0.5451);fill-opacity:1;"/>
</g>
<defs>
<clipPath id="clip0_1_1186">
<rect width="199" height="46" fill="white" style="fill:white;fill-opacity:1;"/>
</clipPath>
</defs>
</svg>
