<svg width="200" height="64" viewBox="0 0 200 64" fill="none" xmlns="http://www.w3.org/2000/svg">
<g clip-path="url(#clip0_1_1198)">
<path d="M144.001 63.8785C143.594 63.8786 143.191 63.7987 142.814 63.6434C142.438 63.4881 142.096 63.2604 141.808 62.9734C141.52 62.6864 141.292 62.3456 141.136 61.9706C140.98 61.5956 140.9 61.1937 140.9 60.7878V3.09075C140.9 2.68485 140.98 2.28292 141.136 1.90791C141.292 1.5329 141.52 1.19215 141.808 0.905141C142.096 0.618127 142.438 0.390466 142.814 0.23516C143.191 0.0798547 143.594 -5.34375e-05 144.001 1.0756e-07C144.409 -0.000106988 144.812 0.0797616 145.188 0.235043C145.564 0.390325 145.906 0.617978 146.194 0.904997C146.482 1.19202 146.711 1.53278 146.867 1.90781C147.023 2.28285 147.103 2.68482 147.103 3.09075V60.7878C147.103 61.1937 147.023 61.5957 146.867 61.9707C146.711 62.3457 146.482 62.6865 146.194 62.9735C145.906 63.2605 145.564 63.4882 145.188 63.6435C144.812 63.7988 144.409 63.8786 144.001 63.8785ZM197.038 55.7823C197.301 55.473 197.501 55.1149 197.626 54.7285C197.751 54.3422 197.798 53.9351 197.765 53.5305C197.732 53.126 197.619 52.7319 197.433 52.3708C197.247 52.0096 196.992 51.6885 196.681 51.4258C196.371 51.1631 196.012 50.9638 195.624 50.8394C195.236 50.715 194.828 50.668 194.422 50.701C194.016 50.7339 193.621 50.8463 193.259 51.0316C192.896 51.2169 192.574 51.4715 192.31 51.7809C189.106 55.5406 184.309 57.697 179.148 57.697C170.598 57.697 163.643 50.7642 163.643 42.2429C163.643 33.7215 170.598 26.7891 179.148 26.7891C186.095 26.7891 191.899 31.764 193.159 38.3278H174.185C173.778 38.3278 173.375 38.4077 172.998 38.563C172.622 38.7184 172.28 38.9461 171.992 39.2331C171.704 39.5202 171.476 39.861 171.32 40.236C171.164 40.6111 171.084 41.0131 171.084 41.419C171.084 41.8249 171.164 42.2268 171.32 42.6018C171.476 42.9769 171.704 43.3176 171.992 43.6046C172.28 43.8916 172.622 44.1193 172.999 44.2746C173.375 44.4299 173.778 44.5098 174.185 44.5098H196.514C196.921 44.5099 197.324 44.43 197.701 44.2747C198.077 44.1194 198.419 43.8918 198.707 43.6047C198.995 43.3177 199.223 42.977 199.379 42.6019C199.535 42.2269 199.615 41.8249 199.615 41.419V41.0065C199.615 29.7576 190.434 20.6064 179.147 20.6064C167.177 20.6064 157.438 30.3124 157.438 42.2429C157.438 54.1734 167.178 63.8785 179.148 63.8785C186.132 63.8785 192.653 60.9272 197.038 55.7823ZM130.563 60.7878V41.0053C130.563 29.7563 121.382 20.6056 110.096 20.6056C98.1252 20.6056 88.3869 30.3115 88.3869 42.242C88.3869 54.1725 98.1252 63.8785 110.096 63.8785C110.503 63.8786 110.906 63.7987 111.283 63.6434C111.659 63.4881 112.001 63.2604 112.289 62.9734C112.577 62.6864 112.805 62.3456 112.961 61.9706C113.117 61.5956 113.197 61.1937 113.197 60.7878C113.197 60.3819 113.117 59.9799 112.961 59.6049C112.805 59.2298 112.577 58.8891 112.289 58.602C112.001 58.315 111.659 58.0874 111.283 57.9321C110.906 57.7768 110.503 57.6969 110.096 57.697C101.546 57.697 94.5902 50.7642 94.5902 42.2429C94.5902 33.7215 101.546 26.7891 110.096 26.7891C117.961 26.7891 124.361 33.1667 124.361 41.0073V60.7886C124.361 61.1945 124.441 61.5965 124.597 61.9715C124.753 62.3465 124.981 62.6873 125.269 62.9743C125.557 63.2613 125.899 63.489 126.275 63.6443C126.652 63.7996 127.055 63.8794 127.462 63.8793C128.285 63.879 129.073 63.5532 129.655 62.9734C130.236 62.3937 130.563 61.6075 130.563 60.7878ZM36.6916 51.5151C36.6916 48.4985 35.58 44.3838 30.2835 41.9114C27.1055 40.4276 23.1178 39.8182 19.2614 39.2287C10.2266 37.8481 7.01843 36.6944 7.01843 32.9694C7.01843 28.9113 12.6646 26.7879 18.2426 26.7879C21.7575 26.7879 26.8086 27.4943 30.9158 30.8606C31.2304 31.1185 31.5929 31.3121 31.9826 31.4304C32.3722 31.5487 32.7815 31.5893 33.1869 31.5499C33.5923 31.5105 33.986 31.392 34.3454 31.201C34.7049 31.01 35.0231 30.7503 35.2818 30.4367C35.5406 30.1231 35.7348 29.7618 35.8535 29.3734C35.9721 28.9851 36.0129 28.5772 35.9734 28.1731C35.9339 27.769 35.8149 27.3766 35.6233 27.0184C35.4316 26.6601 35.1711 26.343 34.8565 26.0851C29.3309 21.5554 22.7718 20.6043 18.2434 20.6043C6.27037 20.6043 0.817204 27.0133 0.817204 32.9677C0.817204 36.0047 1.93336 40.1468 7.24992 42.637C10.4454 44.1335 14.4503 44.745 18.3231 45.3373C27.3023 46.7098 30.4904 47.8488 30.4904 51.5135C30.4904 55.2112 26.0614 57.695 19.4712 57.695C12.7244 57.695 7.58244 54.9683 5.11864 53.3422C4.43271 52.8899 3.59464 52.7276 2.78871 52.891C1.98277 53.0545 1.27495 53.5302 0.820885 54.2137C0.59608 54.5522 0.440371 54.9315 0.362652 55.3299C0.284933 55.7284 0.286724 56.1382 0.367925 56.536C0.449126 56.9338 0.608144 57.3117 0.835901 57.6482C1.06366 57.9847 1.35569 58.2732 1.69532 58.4972C6.95258 61.9675 13.2655 63.8785 19.4691 63.8785C31.3665 63.8785 36.6916 57.6685 36.6916 51.5151ZM81.6565 54.7559C82.1116 54.0731 82.2761 53.2381 82.1137 52.4344C81.9514 51.6308 81.4755 50.9243 80.7906 50.4703C80.1055 50.0166 79.2677 49.8527 78.4613 50.0146C77.655 50.1765 76.9462 50.651 76.4908 51.3337C73.8348 55.318 69.3898 57.6958 64.6021 57.6958C56.0524 57.6958 49.0965 50.7634 49.0965 42.242C49.0965 33.7207 56.0524 26.7883 64.6021 26.7883C69.3906 26.7883 73.8348 29.1661 76.4908 33.1504C76.7163 33.4885 77.0063 33.779 77.3444 34.0054C77.6825 34.2317 78.0621 34.3895 78.4614 34.4696C78.8607 34.5497 79.2719 34.5507 79.6715 34.4724C80.0712 34.3941 80.4515 34.2381 80.7906 34.0134C81.1298 33.7887 81.4213 33.4996 81.6484 33.1627C81.8755 32.8257 82.0338 32.4475 82.1142 32.0496C82.1946 31.6516 82.1956 31.2418 82.117 30.8435C82.0385 30.4452 81.882 30.0662 81.6565 29.7282C77.8479 24.0155 71.4716 20.6051 64.6021 20.6051C52.6319 20.6051 42.8937 30.3111 42.8937 42.242C42.8937 54.1725 52.6319 63.8785 64.6021 63.8785C71.4724 63.8785 77.8479 60.4682 81.6565 54.7559Z" fill="white" style="fill:white;fill-opacity:1;"/>
</g>
<defs>
<clipPath id="clip0_1_1198">
<rect width="200" height="64" fill="white" style="fill:white;fill-opacity:1;"/>
</clipPath>
</defs>
</svg>
