<svg width="201" height="54" viewBox="0 0 201 54" fill="none" xmlns="http://www.w3.org/2000/svg">
<path d="M134.999 41.6301C134.999 42.8307 134.967 43.9512 135.017 45.0678C135.035 45.4603 135.088 45.8528 135.103 46.2443C135.117 46.5432 135.009 46.6608 134.698 46.6608C132.315 46.6512 129.933 46.6512 127.548 46.6608C127.239 46.6608 127.112 46.549 127.141 46.2491V0.651857C127.143 0 127.143 0 127.804 0H134.451C135.097 0 135.097 0 135.097 0.669214V18.3764C136.657 16.3475 138.41 14.6485 140.63 13.5164C141.798 12.9277 143.064 12.5605 144.365 12.4335C145.1 12.3206 145.842 12.2609 146.585 12.2551C149.976 12.3766 153.086 13.3284 155.789 15.445C158.966 17.9328 160.834 21.2249 161.784 25.083C162.002 26.0752 162.145 27.082 162.212 28.0964C162.508 31.4572 161.984 34.8399 160.683 37.9514C159.863 39.8328 158.698 41.5433 157.25 42.9946C155.247 44.9723 152.732 46.3484 149.989 46.9675C148.438 47.3355 146.841 47.4678 145.25 47.3599C142.67 47.2294 140.195 46.2928 138.172 44.6811C137.041 43.7444 135.98 42.7246 134.999 41.6301ZM144.735 18.9598C144.118 18.9298 143.501 18.967 142.892 19.0707C139.896 19.7187 137.671 21.4023 136.209 24.0801C135.432 25.5364 134.972 27.1412 134.86 28.7888C134.784 29.9875 134.844 31.191 135.04 32.3759C135.21 33.5909 135.729 34.7085 136.324 35.776C137.264 37.511 138.719 38.9096 140.488 39.7778C142.259 40.6481 144.256 40.9466 146.203 40.6321C148.455 40.2928 150.499 39.12 151.932 37.3449C153.658 35.2678 154.335 32.7876 154.431 30.132C154.449 29.1111 154.354 28.0913 154.147 27.0916C153.811 25.1678 152.933 23.3808 151.615 21.9423C149.775 19.9597 147.479 18.9164 144.735 18.9588V18.9598ZM194.866 36.9649C196.317 38.2281 197.766 39.4885 199.214 40.7449C199.381 40.8925 199.422 41.0082 199.264 41.203C198.262 42.3899 197.106 43.4365 195.826 44.3147C194.229 45.4792 192.424 46.3257 190.509 46.8084C189.567 47.0503 188.607 47.2097 187.638 47.2847C187.176 47.3165 186.714 47.3619 186.25 47.3754C183.71 47.4737 181.178 47.0422 178.813 46.1083C177.246 45.4953 175.782 44.647 174.47 43.5925C172.449 41.9682 170.844 39.883 169.789 37.5107C169.113 35.9961 168.658 34.3918 168.437 32.7471C168.293 31.664 168.227 30.5718 168.239 29.4792C168.27 27.1531 168.729 24.8528 169.594 22.6945C170.599 20.139 172.22 17.8735 174.313 16.1007C176.296 14.3814 178.683 13.1947 181.248 12.6514C182.055 12.4808 182.878 12.4316 183.69 12.3197C184.65 12.1886 185.584 12.3004 186.519 12.367C190.129 12.6337 193.522 14.193 196.08 16.7603C197.544 18.3066 198.695 20.1236 199.467 22.1101C200.087 23.7009 200.52 25.3588 200.757 27.0501C200.968 28.4291 201.039 29.8244 200.969 31.2159C200.918 31.5577 200.886 31.9022 200.873 32.2476C200.873 32.4309 200.768 32.5176 200.588 32.5186H176.051C176.31 34.4067 176.964 36.1327 178.154 37.5888C179.486 39.2265 181.346 40.346 183.414 40.7536C184.543 40.9671 185.696 41.0278 186.841 40.9339C188.913 40.8086 190.901 40.0854 192.564 38.8482C193.372 38.2712 194.141 37.6421 194.866 36.9649ZM184.62 27.3963C187.355 27.3963 190.091 27.3963 192.826 27.406C193.219 27.406 193.289 27.2488 193.219 26.9412C192.92 25.4398 192.547 23.9721 191.74 22.6356C190.801 21.0166 189.318 19.7862 187.556 19.1652C186.347 18.725 185.051 18.5812 183.775 18.7457C182.865 18.8322 181.974 19.0612 181.135 19.4246C179.302 20.2828 178.042 21.7273 177.113 23.4775C176.539 24.5623 176.255 25.7493 176.004 26.9431C175.937 27.2565 176.017 27.406 176.409 27.404C179.143 27.3857 181.878 27.3963 184.62 27.3963ZM46.5212 20.9732C47.3774 19.5087 48.4363 18.1734 49.6664 17.0071C52.6951 14.1596 56.6435 12.4988 60.7914 12.3274C63.4356 12.1924 66.0078 12.4586 68.5068 13.3438C70.0933 13.9069 71.4876 14.8095 72.8318 15.7979C73.6174 16.4112 74.3578 17.0804 75.0472 17.7997C75.2433 17.9955 75.278 18.089 75.0683 18.3099C73.7395 19.7177 72.4164 21.1449 71.0953 22.5633C70.8856 22.7909 70.7433 23.0811 70.4568 23.2653C69.3769 22.105 68.1398 21.1027 66.7818 20.2876C65.776 19.6676 64.6693 19.3686 63.5251 19.1594C62.8151 19.0609 62.0977 19.028 61.3818 19.061C59.5481 19.061 57.9164 19.6946 56.4337 20.7167C54.8376 21.8199 53.7712 23.3396 52.9837 25.0984C52.2859 26.675 51.9497 28.3885 52.0001 30.1127C52.051 32.6642 52.7693 35.018 54.3751 37.0238C55.816 38.8899 57.8999 40.1492 60.2183 40.555C62.4433 40.96 64.5828 40.7295 66.5972 39.7257C67.8155 39.1137 68.9366 38.324 69.9241 37.3825C70.1876 37.1317 70.4866 36.9177 70.7376 36.6564C70.9347 36.4606 70.9895 36.6467 71.076 36.7335C71.8155 37.4625 72.5424 38.205 73.2876 38.9282C73.9526 39.5825 74.6316 40.2223 75.3241 40.8471C75.5404 41.0439 75.5212 41.1789 75.3558 41.3495C74.9905 41.742 74.6424 42.148 74.2433 42.4999C73.2381 43.396 72.1696 44.2181 71.0462 44.9598C69.4075 46.0098 67.5773 46.7233 65.6616 47.0591C63.9116 47.3791 62.1283 47.4767 60.3539 47.3493C57.8343 47.1802 55.3814 46.4646 53.1645 45.252C51.9629 44.581 50.8416 43.7748 49.8222 42.849C48.4241 41.6012 47.3289 40.1201 46.3481 38.5319C47.1539 36.288 47.8068 34.019 47.9962 31.6141C48.2068 29.0553 48.0154 26.4791 47.4289 23.9799C47.178 22.9558 46.751 21.9973 46.5212 20.9732Z" fill="white" style="fill:white;fill-opacity:1;"/>
<path d="M46.5213 20.9733C46.752 21.9983 47.178 22.9616 47.4203 23.9857C48.0059 26.4861 48.1963 29.0617 47.9857 31.6199C47.7895 34.0162 47.1443 36.2938 46.3386 38.5387C45.8607 39.4702 45.4443 40.4354 44.9011 41.3341C44.1386 42.6036 43.2715 43.8067 42.3088 44.9309C40.7432 46.7369 38.9072 48.2876 36.8664 49.5277C35.5001 50.3581 34.0561 51.0525 32.5549 51.6009C30.8656 52.2002 29.1192 52.6235 27.3434 52.8641C25.8491 53.057 24.3376 53.0907 22.8357 52.9634C20.964 52.8291 19.1156 52.4674 17.3309 51.8863C15.2893 51.2376 13.3452 50.3134 11.552 49.1391C9.87741 48.0545 8.35632 46.7483 7.02991 45.2559C3.80473 41.6389 1.75213 37.1241 1.14433 32.3104C0.962745 30.6574 0.950179 28.9902 1.10683 27.3346C1.26892 25.6523 1.61062 23.9922 2.12606 22.383C2.75578 20.3381 3.68308 18.3976 4.87798 16.6243C6.0382 14.8839 7.42661 13.308 9.00587 11.9389C10.7017 10.465 12.5927 9.23346 14.6251 8.2794C16.3609 7.48594 18.1813 6.89389 20.0511 6.51476C24.1843 5.70388 28.4592 6.02907 32.4232 7.4559C35.3857 8.50903 38.1094 10.1431 40.4357 12.2629C42.7576 14.379 44.6344 16.9392 45.9559 19.793C46.1414 20.1874 46.2434 20.6223 46.5203 20.9742L46.5213 20.9733ZM3.80491 29.5313C3.79924 32.2469 4.33031 34.9367 5.36741 37.4452C6.40576 39.9566 7.92886 42.2375 9.84914 44.1566C11.773 46.079 14.0555 47.6026 16.5664 48.6405C19.0806 49.6803 21.7739 50.2147 24.4934 50.2133C35.9818 50.2287 45.2693 41.0246 45.277 29.6277C45.2359 24.1674 43.0394 18.9457 39.1684 15.1056C35.2862 11.2546 30.049 9.09011 24.5886 9.07976C19.1279 9.06503 13.8806 11.2057 9.98087 15.039C6.09213 18.861 3.87148 24.0713 3.80491 29.5313Z" fill="white" style="fill:white;fill-opacity:1;"/>
<path d="M90.374 20.1034C90.9259 19.1314 91.4336 18.1565 92.0855 17.2655C93.2874 15.6234 94.6951 14.1952 96.5451 13.2927C97.6087 12.7878 98.7474 12.4604 99.9163 12.3236C100.618 12.2329 101.312 12.285 102.01 12.2416C102.246 12.2252 102.37 12.2628 102.368 12.5531C102.357 15.0612 102.357 17.5693 102.368 20.0774C102.368 20.4467 102.171 20.4872 101.892 20.4699C100.474 20.4024 99.0557 20.6087 97.7143 21.0764C96.4547 21.498 95.2904 22.1649 94.2884 23.0387C92.348 24.7416 91.3393 26.9412 90.7865 29.3876C90.5119 30.5906 90.3729 31.8207 90.372 33.0547C90.3816 37.3863 90.372 41.7169 90.3855 46.0485C90.3855 46.441 90.3182 46.5827 89.8788 46.5769C87.5791 46.5543 85.2794 46.5543 82.9797 46.5769C82.6105 46.5769 82.5086 46.4979 82.5095 46.116C82.522 35.2138 82.522 24.3106 82.5095 13.4074C82.5095 13.0342 82.5961 12.9378 82.9759 12.9417C85.2922 12.961 87.6086 12.961 89.9259 12.9417C90.3191 12.9417 90.3874 13.0516 90.3855 13.4142C90.3663 15.4884 90.3759 17.5625 90.3759 19.6357L90.374 20.1034ZM109.412 29.8524C109.412 24.4196 109.412 18.9868 109.402 13.554C109.402 13.1394 109.496 13.0294 109.919 13.0333C112.218 13.0574 114.517 13.0574 116.815 13.0333C117.199 13.0333 117.28 13.1336 117.278 13.5029C117.267 24.4025 117.267 35.3022 117.278 46.2018C117.278 46.5731 117.193 46.6724 116.811 46.6685C114.496 46.6492 112.18 46.6492 109.864 46.6685C109.471 46.6685 109.4 46.5692 109.402 46.1999C109.415 40.7536 109.418 35.3035 109.412 29.8524ZM113.255 7.92643H109.483C109.14 7.92643 109.009 7.83482 109.01 7.47321C109.025 5.26824 109.025 3.06319 109.01 0.858213C109.01 0.586284 109.069 0.488892 109.364 0.488892C111.948 0.500463 114.531 0.500463 117.112 0.488892C117.385 0.488892 117.485 0.545784 117.484 0.84182C117.47 3.08055 117.47 5.31934 117.484 7.55807C117.484 7.89557 117.356 7.92836 117.075 7.9245C115.797 7.92064 114.523 7.92643 113.255 7.92643Z" fill="white" style="fill:white;fill-opacity:1;"/>
<path d="M25.1249 46.9752C20.109 46.9048 15.2435 45.2471 11.223 42.2387C10.8941 41.9976 10.8701 41.8288 11.1009 41.4913C12.099 40.0256 13.0816 38.5474 14.0461 37.0556C14.2422 36.7413 14.3797 36.7085 14.6922 36.9331C17.0201 38.6245 19.5566 39.8762 22.3893 40.4923C24.174 40.8732 25.9807 41.0362 27.7663 40.5213C29.2403 40.097 30.3509 39.2744 30.5874 37.6139C30.7586 36.3989 30.2643 35.505 29.3115 34.8127C28.0413 33.8879 26.5586 33.4627 25.0826 33.0095C22.5538 32.2245 19.9865 31.5611 17.6115 30.3818C16.1737 29.6873 14.9171 28.6665 13.9413 27.4002C12.5653 25.6086 12.2961 23.5682 12.473 21.4139C12.8153 17.1007 15.9413 13.6476 20.8441 12.557C24.8268 11.6621 28.674 12.2841 32.4336 13.691C33.8759 14.2377 35.2586 14.9291 36.5615 15.7545C36.8191 15.9165 36.8922 16.0303 36.7172 16.3321C35.8084 17.9116 34.9176 19.5015 34.0451 21.1015C33.872 21.4197 33.748 21.4747 33.4163 21.278C31.2528 20.0032 28.974 19.0061 26.4961 18.5317C25.0509 18.2492 23.5999 18.1701 22.1711 18.5847C20.5413 19.0534 19.5557 20.2539 19.5624 21.7389C19.5585 22.0755 19.6295 22.4087 19.7703 22.7143C19.911 23.0199 20.1179 23.2902 20.3759 23.5055C21.6326 24.6279 23.1893 25.1708 24.7441 25.6992C26.9778 26.46 29.2663 27.0608 31.4288 28.0328C33.5384 28.9855 35.4191 30.2294 36.6913 32.2323C37.6115 33.6806 37.822 35.2852 37.7566 36.9409C37.6701 39.1327 37.0672 41.1519 35.647 42.878C34.0605 44.8085 31.9518 45.8702 29.5701 46.4709C28.1171 46.8335 26.622 47.0031 25.1249 46.9752Z" fill="white" style="fill:white;fill-opacity:1;"/>
</svg>
