<svg width="195" height="36" viewBox="0 0 195 36" fill="none" xmlns="http://www.w3.org/2000/svg">
<g clip-path="url(#clip0_1_1205)">
<path d="M44.0322 22.6868L45.0261 21.3939C45.8781 22.404 47.3182 23.3333 49.1844 23.3333C51.5576 23.3333 52.3081 22.0404 52.3081 20.9899C52.3081 17.5151 44.4582 19.4545 44.4582 14.6262C44.4582 12.404 46.4055 10.8687 49.0221 10.8687C51.0302 10.8687 52.5921 11.5757 53.7077 12.7676L52.7138 14C51.7199 12.8687 50.3203 12.3838 48.8801 12.3838C47.3182 12.3838 46.162 13.2525 46.162 14.5252C46.162 17.5555 54.0119 15.8181 54.0119 20.8687C54.0119 22.808 52.6935 24.8282 49.1235 24.8282C46.8517 24.8282 45.1276 23.9394 44.0322 22.6868Z" fill="#00C58B" style="fill:#00C58B;fill:color(display-p3 0.0000 0.7725 0.5451);fill-opacity:1;"/>
<path d="M55.3711 19.697C55.3711 16.8687 57.3589 14.5657 60.0973 14.5657C62.9979 14.5657 64.7017 16.8687 64.7017 19.8182V20.202H56.9532C57.0749 22.0404 58.3326 23.5758 60.4015 23.5758C61.5171 23.5758 62.6125 23.1313 63.3833 22.3232L64.0932 23.3131C63.1196 24.2828 61.8214 24.8283 60.2798 24.8283C57.4198 24.8283 55.3711 22.7475 55.3711 19.697ZM60.077 15.8182C58.0283 15.8182 57.0141 17.5758 56.933 19.0505H63.2413C63.221 17.6162 62.2676 15.8182 60.077 15.8182Z" fill="#00C58B" style="fill:#00C58B;fill:color(display-p3 0.0000 0.7725 0.5451);fill-opacity:1;"/>
<path d="M66.0605 19.697C66.0605 16.7879 67.9875 14.5657 70.8476 14.5657C72.592 14.5657 73.6265 15.2929 74.3567 16.2626L73.3628 17.1717C72.734 16.2828 71.9023 15.9192 70.9084 15.9192C68.88 15.9192 67.5818 17.5152 67.5818 19.6768C67.5818 21.8384 68.88 23.4546 70.9084 23.4546C71.9023 23.4546 72.7137 23.0505 73.3628 22.1818L74.3567 23.1111C73.6265 24.0808 72.592 24.8081 70.8476 24.8081C67.9875 24.8283 66.0605 22.5859 66.0605 19.697Z" fill="#00C58B" style="fill:#00C58B;fill:color(display-p3 0.0000 0.7725 0.5451);fill-opacity:1;"/>
<path d="M82.4499 24.5859V23.2121C81.7196 24.0606 80.462 24.8283 79.0219 24.8283C77.0137 24.8283 75.959 23.8182 75.959 21.7172V14.8081H77.4397V21.2526C77.4397 22.9697 78.2916 23.4748 79.6101 23.4748C80.7663 23.4748 81.8819 22.7879 82.4296 22V14.8081H83.9103V24.5859H82.4499Z" fill="#00C58B" style="fill:#00C58B;fill:color(display-p3 0.0000 0.7725 0.5451);fill-opacity:1;"/>
<path d="M86.4258 24.5858V14.808H87.9065V16.3636C88.6773 15.3535 89.7929 14.5858 91.1114 14.5858V16.1414C90.9288 16.1212 90.7463 16.101 90.5434 16.101C89.6104 16.101 88.3528 16.8686 87.9268 17.6565V24.5858H86.4258Z" fill="#00C58B" style="fill:#00C58B;fill:color(display-p3 0.0000 0.7725 0.5451);fill-opacity:1;"/>
<path d="M92.2471 12.404C92.2471 11.8383 92.7136 11.3737 93.2613 11.3737C93.8089 11.3737 94.2552 11.8383 94.2552 12.404C94.2552 12.9696 93.8089 13.4141 93.2613 13.4141C92.6933 13.4141 92.2471 12.9696 92.2471 12.404ZM92.4905 24.5858V14.808H93.9712V24.5858H92.4905Z" fill="#00C58B" style="fill:#00C58B;fill:color(display-p3 0.0000 0.7725 0.5451);fill-opacity:1;"/>
<path d="M96.7706 22.5454V16.1414H95.1885V14.808H96.7706V12.1414H98.2716V14.808H100.219V16.1414H98.2716V22.2222C98.2716 22.9494 98.5962 23.4747 99.225 23.4747C99.6712 23.4747 100.036 23.2727 100.239 23.0504L100.685 24.202C100.3 24.5656 99.7727 24.8282 98.9207 24.8282C97.4806 24.8282 96.7706 23.9999 96.7706 22.5454Z" fill="#00C58B" style="fill:#00C58B;fill:color(display-p3 0.0000 0.7725 0.5451);fill-opacity:1;"/>
<path d="M102.308 27.0505C102.531 27.1515 102.876 27.2121 103.12 27.2121C103.769 27.2121 104.215 26.9899 104.56 26.1818L105.189 24.7071L101.172 14.8283H102.795L105.98 22.8485L109.185 14.8081H110.787L105.98 26.5657C105.412 27.9798 104.438 28.5253 103.16 28.5455C102.836 28.5455 102.349 28.4849 102.085 28.4041L102.308 27.0505Z" fill="#00C58B" style="fill:#00C58B;fill:color(display-p3 0.0000 0.7725 0.5451);fill-opacity:1;"/>
<path d="M112.714 22.6868L113.708 21.3939C114.56 22.404 116 23.3333 117.866 23.3333C120.239 23.3333 120.99 22.0404 120.99 20.9899C120.99 17.5151 113.14 19.4545 113.14 14.6262C113.14 12.404 115.087 10.8687 117.704 10.8687C119.712 10.8687 121.274 11.5757 122.389 12.7676L121.395 14C120.401 12.8687 119.002 12.3838 117.562 12.3838C116 12.3838 114.844 13.2525 114.844 14.5252C114.844 17.5555 122.694 15.8181 122.694 20.8687C122.694 22.808 121.375 24.8282 117.805 24.8282C115.513 24.8282 113.809 23.9394 112.714 22.6868Z" fill="#00C58B" style="fill:#00C58B;fill:color(display-p3 0.0000 0.7725 0.5451);fill-opacity:1;"/>
<path d="M124.032 19.697C124.032 16.8081 125.959 14.5657 128.819 14.5657C130.564 14.5657 131.598 15.2929 132.328 16.2626L131.334 17.1717C130.706 16.2828 129.874 15.9192 128.88 15.9192C126.852 15.9192 125.554 17.5152 125.554 19.6768C125.554 21.8384 126.852 23.4546 128.88 23.4546C129.874 23.4546 130.685 23.0505 131.334 22.1818L132.328 23.1111C131.598 24.0808 130.564 24.8081 128.819 24.8081C125.959 24.8283 124.032 22.5859 124.032 19.697Z" fill="#00C58B" style="fill:#00C58B;fill:color(display-p3 0.0000 0.7725 0.5451);fill-opacity:1;"/>
<path d="M132.998 19.697C132.998 16.8687 134.823 14.5657 137.744 14.5657C140.665 14.5657 142.49 16.8485 142.49 19.697C142.49 22.5253 140.665 24.8485 137.744 24.8485C134.823 24.8283 132.998 22.5253 132.998 19.697ZM140.929 19.697C140.929 17.7172 139.793 15.9394 137.744 15.9394C135.695 15.9394 134.559 17.7172 134.559 19.697C134.559 21.697 135.695 23.4748 137.744 23.4748C139.793 23.4748 140.929 21.697 140.929 19.697Z" fill="#00C58B" style="fill:#00C58B;fill:color(display-p3 0.0000 0.7725 0.5451);fill-opacity:1;"/>
<path d="M144.032 24.5858V14.808H145.513V16.3636C146.284 15.3535 147.399 14.5858 148.718 14.5858V16.1414C148.535 16.1212 148.353 16.101 148.15 16.101C147.217 16.101 145.959 16.8686 145.533 17.6565V24.5858H144.032Z" fill="#00C58B" style="fill:#00C58B;fill:color(display-p3 0.0000 0.7725 0.5451);fill-opacity:1;"/>
<path d="M149.529 19.697C149.529 16.8687 151.517 14.5657 154.255 14.5657C157.156 14.5657 158.86 16.8687 158.86 19.8182V20.202H151.111C151.233 22.0404 152.491 23.5758 154.56 23.5758C155.675 23.5758 156.771 23.1313 157.541 22.3232L158.251 23.3131C157.278 24.2828 155.98 24.8283 154.438 24.8283C151.578 24.8283 149.529 22.7475 149.529 19.697ZM154.255 15.8182C152.207 15.8182 151.193 17.5758 151.111 19.0505H157.42C157.379 17.6162 156.426 15.8182 154.255 15.8182Z" fill="#00C58B" style="fill:#00C58B;fill:color(display-p3 0.0000 0.7725 0.5451);fill-opacity:1;"/>
<path d="M160.239 19.697C160.239 16.8081 162.166 14.5657 165.026 14.5657C166.771 14.5657 167.805 15.2929 168.535 16.2626L167.541 17.1717C166.913 16.2828 166.081 15.9192 165.087 15.9192C163.059 15.9192 161.761 17.5152 161.761 19.6768C161.761 21.8384 163.059 23.4546 165.087 23.4546C166.081 23.4546 166.892 23.0505 167.541 22.1818L168.535 23.1111C167.805 24.0808 166.771 24.8081 165.026 24.8081C162.166 24.8283 160.239 22.5859 160.239 19.697Z" fill="#00C58B" style="fill:#00C58B;fill:color(display-p3 0.0000 0.7725 0.5451);fill-opacity:1;"/>
<path d="M176.548 24.5858V23.4747C175.777 24.3636 174.661 24.8282 173.363 24.8282C171.761 24.8282 170.016 23.7171 170.016 21.5959C170.016 19.3939 171.72 18.3838 173.363 18.3838C174.681 18.3838 175.777 18.808 176.548 19.6969V17.9394C176.548 16.6464 175.513 15.8989 174.113 15.8989C172.957 15.8989 172.024 16.303 171.172 17.2525L170.483 16.202C171.517 15.1111 172.754 14.5858 174.316 14.5858C176.365 14.5858 178.028 15.5151 178.028 17.8787V24.606H176.548V24.5858ZM176.548 22.5252V20.6666C175.98 19.8787 174.965 19.4747 173.931 19.4747C172.511 19.4747 171.537 20.3636 171.537 21.5959C171.537 22.8484 172.511 23.7373 173.931 23.7373C174.965 23.7373 175.98 23.3333 176.548 22.5252Z" fill="#00C58B" style="fill:#00C58B;fill:color(display-p3 0.0000 0.7725 0.5451);fill-opacity:1;"/>
<path d="M180.138 24.5858V14.808H181.618V16.3636C182.389 15.3535 183.505 14.5858 184.823 14.5858V16.1414C184.641 16.1212 184.458 16.101 184.255 16.101C183.322 16.101 182.065 16.8686 181.639 17.6565V24.5858H180.138Z" fill="#00C58B" style="fill:#00C58B;fill:color(display-p3 0.0000 0.7725 0.5451);fill-opacity:1;"/>
<path d="M193.16 24.5858V23.1312C192.45 24.1211 191.274 24.8282 189.915 24.8282C187.42 24.8282 185.635 22.8888 185.635 19.6969C185.655 16.5656 187.42 14.5656 189.915 14.5656C191.213 14.5656 192.389 15.212 193.16 16.2827V11.0908H194.641V24.606H193.16V24.5858ZM193.16 21.9191V17.4949C192.653 16.6464 191.477 15.9191 190.3 15.9191C188.353 15.9191 187.197 17.5353 187.197 19.6969C187.197 21.8585 188.353 23.4545 190.3 23.4545C191.477 23.4747 192.653 22.7676 193.16 21.9191Z" fill="#00C58B" style="fill:#00C58B;fill:color(display-p3 0.0000 0.7725 0.5451);fill-opacity:1;"/>
<path d="M24.3164 23.0707V30.3434L30.6653 26.6869L30.645 19.3939L24.3164 15.7576V23.0707Z" fill="#00C58B" style="fill:#00C58B;fill:color(display-p3 0.0000 0.7725 0.5451);fill-opacity:1;"/>
<path d="M9.14404 31.7777L15.4726 35.414L21.8012 31.7777V24.5251L9.14404 31.7777Z" fill="#00C58B" style="fill:#00C58B;fill:color(display-p3 0.0000 0.7725 0.5451);fill-opacity:1;"/>
<path d="M30.6447 16.4848V9.23231L24.3161 5.59595L18.0078 9.21211L30.6447 16.4848Z" fill="#00C58B" style="fill:#00C58B;fill:color(display-p3 0.0000 0.7725 0.5451);fill-opacity:1;"/>
<path d="M9.14404 14.3231V21.5959L15.4726 25.2322L21.8012 21.6161V14.3231L15.4726 10.6868L9.14404 14.3231Z" fill="#00C58B" style="fill:#00C58B;fill:color(display-p3 0.0000 0.7725 0.5451);fill-opacity:1;"/>
<path d="M0.279785 19.4141V26.6868L6.60839 30.3232L12.937 26.6868L0.279785 19.4141Z" fill="#00C58B" style="fill:#00C58B;fill:color(display-p3 0.0000 0.7725 0.5451);fill-opacity:1;"/>
<path d="M6.60839 5.59595L0.279785 9.23231V16.505L6.60839 20.1414V5.59595Z" fill="#00C58B" style="fill:#00C58B;fill:color(display-p3 0.0000 0.7725 0.5451);fill-opacity:1;"/>
<path d="M15.4726 7.77773L21.8012 4.14137L15.4726 0.505005L9.14404 4.14137V11.4141L15.4726 7.77773Z" fill="#00C58B" style="fill:#00C58B;fill:color(display-p3 0.0000 0.7725 0.5451);fill-opacity:1;"/>
</g>
<defs>
<clipPath id="clip0_1_1205">
<rect width="195" height="36" fill="white" style="fill:white;fill-opacity:1;"/>
</clipPath>
</defs>
</svg>
