<svg width="199" height="67" viewBox="0 0 199 67" fill="none" xmlns="http://www.w3.org/2000/svg">
<g clip-path="url(#clip0_1_1232)">
<path d="M33.2966 0C14.9138 0 0 15.0049 0 33.5C0 51.9951 14.9138 67 33.2966 67C51.6794 67 66.5932 51.9951 66.5932 33.5C66.5932 15.0049 51.6794 0 33.2966 0ZM16.9116 53.2104L28.3872 10.3305H34.7678L23.2922 53.2104H16.9116ZM53.5533 37.4577L50.0688 40.2935L44.5245 33.9674L38.7479 40.2935L35.1241 37.6135L39.7081 30.6174L32.1506 27.6413L33.4979 22.7955L41.4736 24.8835L42.1396 16.9213H46.6617L47.3277 24.8835L54.8853 22.9513L56.4339 27.6413L48.9538 30.6174L53.5533 37.4577Z" fill="#00C58B" style="fill:#00C58B;fill:color(display-p3 0.0000 0.7725 0.5451);fill-opacity:1;"/>
<path d="M99.4102 27.6096C98.8992 25.7711 97.304 24.1038 94.2841 24.1038C91.5428 24.1038 89.4677 25.4127 89.4831 27.3135C89.4677 28.9341 90.5827 29.9157 93.4168 30.5545L98.1712 31.5828C103.421 32.736 105.977 35.1822 106.008 39.1711C105.992 44.4843 101.083 48.1147 94.1138 48.1147C87.284 48.1147 82.9787 45.0764 82.1733 39.9189L88.5695 39.2957C89.127 41.8199 91.0938 43.1286 94.0982 43.1286C97.2111 43.1286 99.2862 41.6953 99.2862 39.7787C99.2862 38.1893 98.0938 37.1454 95.5384 36.5845L90.7841 35.5873C85.4411 34.4811 82.9322 31.7699 82.9477 27.6876C82.9322 22.5145 87.5009 19.1957 94.2067 19.1957C100.727 19.1957 104.505 22.2185 105.404 26.9708L99.4102 27.6096Z" fill="#00C58B" style="fill:#00C58B;fill:color(display-p3 0.0000 0.7725 0.5451);fill-opacity:1;"/>
<path d="M106.812 33.7181C106.812 25.0705 112.016 19.1807 119.992 19.1807C126.837 19.1807 132.722 23.4967 132.722 33.3286V35.3542H113.317C113.379 40.1532 116.182 42.958 120.425 42.958C123.26 42.958 125.428 41.7115 126.31 39.3431L132.443 40.0286C131.282 44.9057 126.822 48.0842 120.333 48.0842C111.939 48.0999 106.812 42.5061 106.812 33.7181ZM126.434 30.9135C126.403 27.0961 123.864 24.3226 120.085 24.3226C116.167 24.3226 113.534 27.3299 113.348 30.9135H126.434Z" fill="#00C58B" style="fill:#00C58B;fill:color(display-p3 0.0000 0.7725 0.5451);fill-opacity:1;"/>
<path d="M134.178 19.8819H140.45V24.6341H140.776C141.938 21.44 144.725 19.5079 148.457 19.5079C152.204 19.5079 154.915 21.4555 155.984 24.6341H156.278C157.516 21.5179 160.599 19.5079 164.641 19.5079C169.752 19.5079 173.345 22.8267 173.345 29.0748V47.8816H166.763V30.1187C166.763 26.6597 164.657 25.086 162.008 25.086C158.833 25.086 156.974 27.2674 156.974 30.4305V47.8971H150.532V29.8383C150.532 26.9558 148.627 25.086 145.855 25.086C143.021 25.086 140.745 27.4232 140.745 30.8667V47.8971H134.178V19.8819Z" fill="#00C58B" style="fill:#00C58B;fill:color(display-p3 0.0000 0.7725 0.5451);fill-opacity:1;"/>
<path d="M174.955 40.387C174.955 34.0765 180.126 32.4561 185.516 31.8639C190.426 31.3342 192.408 31.2407 192.408 29.3397V29.2307C192.408 26.4728 190.735 24.9147 187.699 24.9147C184.494 24.9147 182.635 26.5507 181.986 28.4671L175.852 27.5947C177.308 22.4839 181.8 19.8663 187.654 19.8663C192.966 19.8663 198.959 22.0944 198.959 29.4955V48.24H192.655V44.3913H192.438C191.247 46.7442 188.63 48.8009 184.262 48.8009C178.966 48.8009 174.955 45.8871 174.955 40.387ZM192.424 38.19V34.8867C191.572 35.5723 188.133 36.0242 186.399 36.258C183.457 36.6786 181.272 37.7381 181.272 40.278C181.272 42.7086 183.224 43.9551 185.966 43.9551C189.93 43.9551 192.424 41.3063 192.424 38.19Z" fill="#00C58B" style="fill:#00C58B;fill:color(display-p3 0.0000 0.7725 0.5451);fill-opacity:1;"/>
</g>
<defs>
<clipPath id="clip0_1_1232">
<rect width="199" height="67" fill="white" style="fill:white;fill-opacity:1;"/>
</clipPath>
</defs>
</svg>
