<svg width="200" height="34" viewBox="0 0 200 34" fill="none" xmlns="http://www.w3.org/2000/svg">
<g clip-path="url(#clip0_1_1238)">
<path d="M15.8676 0H11.3135V27.3949H15.8676V0Z" fill="white" style="fill:white;fill-opacity:1;"/>
<path fill-rule="evenodd" clip-rule="evenodd" d="M16.9697 34L21.5239 31.1768V7.46132C20.1743 6.4537 18.6186 5.76091 16.9697 5.43323V34Z" fill="white" style="fill:white;fill-opacity:1;"/>
<path fill-rule="evenodd" clip-rule="evenodd" d="M5.65723 31.1768L10.2113 34V5.43311C8.5624 5.76068 7.00671 6.4535 5.65723 7.46126V31.1768Z" fill="white" style="fill:white;fill-opacity:1;"/>
<path fill-rule="evenodd" clip-rule="evenodd" d="M22.6255 1.302V30.6671L24.7507 29.3473C25.51 28.8458 26.1308 28.1593 26.5555 27.3517C26.9801 26.5441 27.1948 25.6416 27.1796 24.7281V10.8704C27.1796 6.8688 22.6255 1.302 22.6255 1.302Z" fill="white" style="fill:white;fill-opacity:1;"/>
<path fill-rule="evenodd" clip-rule="evenodd" d="M0.00125313 24.7281C-0.0140538 25.6416 0.200616 26.5442 0.625289 27.3518C1.04996 28.1594 1.67084 28.8459 2.43015 29.3473L4.55538 30.6671V1.302C4.55538 1.302 0.00125313 6.8688 0.00125313 10.8704V24.7281Z" fill="white" style="fill:white;fill-opacity:1;"/>
<path fill-rule="evenodd" clip-rule="evenodd" d="M136.337 27.7166V6.11297L139.633 4.72498V27.7166H136.337Z" fill="white" style="fill:white;fill-opacity:1;"/>
<path fill-rule="evenodd" clip-rule="evenodd" d="M134.596 19.3576C134.596 17.0597 133.874 15.1973 132.428 13.7705C130.983 12.3438 129.099 11.6304 126.777 11.6305C124.455 11.6305 122.562 12.3726 121.097 13.8567C119.633 15.3408 118.901 17.3181 118.901 19.7885C118.901 22.2589 119.624 24.2409 121.069 25.7346C122.514 27.2283 124.393 27.9752 126.705 27.9752C128.384 28.0328 130.036 27.5442 131.417 26.582C132.652 25.7038 133.574 24.4502 134.047 23.0057H130.492C129.759 24.4803 128.497 25.2176 126.705 25.2176C125.566 25.2537 124.46 24.8355 123.627 24.0542C122.784 23.225 122.301 22.0944 122.283 20.9087H134.481C134.56 20.3956 134.599 19.8769 134.596 19.3576ZM122.312 18.6682C122.371 17.4886 122.872 16.3753 123.713 15.5515C124.537 14.7738 125.634 14.3556 126.763 14.3881C127.904 14.3607 129.012 14.7774 129.856 15.5515C130.281 15.9479 130.617 16.4311 130.841 16.9685C131.065 17.506 131.173 18.0855 131.157 18.6682H122.312Z" fill="white" style="fill:white;fill-opacity:1;"/>
<path fill-rule="evenodd" clip-rule="evenodd" d="M106.031 11.889V14.3881C107.091 12.5496 108.787 11.6304 111.118 11.6305C111.94 11.6042 112.758 11.7489 113.521 12.0553C114.285 12.3618 114.977 12.8234 115.555 13.4114C116.721 14.5988 117.304 16.2553 117.304 18.3809V27.7167H114.038V18.8694C114.038 17.4523 113.681 16.3655 112.968 15.6091C112.588 15.2239 112.132 14.9237 111.629 14.7281C111.126 14.5326 110.587 14.4461 110.049 14.4743C109.508 14.447 108.968 14.5339 108.462 14.7293C107.957 14.9248 107.498 15.2245 107.115 15.6091C106.392 16.3656 106.031 17.4524 106.031 18.8694V27.7167H102.736V11.889H106.031Z" fill="white" style="fill:white;fill-opacity:1;"/>
<path d="M99.8963 11.889H96.6011V27.7167H99.8963V11.889Z" fill="white" style="fill:white;fill-opacity:1;"/>
<path fill-rule="evenodd" clip-rule="evenodd" d="M94.212 14.5605H90.3387V23.3218C90.3166 23.5524 90.3424 23.7852 90.4145 24.0053C90.4867 24.2254 90.6036 24.4279 90.7578 24.6001C91.0373 24.8586 91.5142 24.9879 92.1887 24.9879H94.212V27.7168H91.6106C88.5466 27.7168 87.0146 26.2518 87.0146 23.3218V9.3418L90.3387 7.95374V11.8891H94.212V14.5605Z" fill="white" style="fill:white;fill-opacity:1;"/>
<path fill-rule="evenodd" clip-rule="evenodd" d="M74.2268 11.889V14.3881C75.2867 12.5496 76.9824 11.6304 79.3142 11.6305C80.1358 11.6042 80.9539 11.7489 81.7174 12.0553C82.4808 12.3618 83.1732 12.8234 83.7511 13.4114C84.9169 14.5988 85.4999 16.2553 85.4999 18.3809V27.7167H82.2335V18.8694C82.2335 17.4523 81.877 16.3655 81.164 15.6091C80.7843 15.2239 80.3279 14.9237 79.8248 14.7281C79.3218 14.5326 78.7833 14.4461 78.2447 14.4743C77.704 14.447 77.1636 14.5339 76.6583 14.7293C76.153 14.9248 75.694 15.2245 75.3108 15.6091C74.5881 16.3656 74.2268 17.4524 74.2269 18.8694V27.7167H70.9316V11.889H74.2268Z" fill="white" style="fill:white;fill-opacity:1;"/>
<path fill-rule="evenodd" clip-rule="evenodd" d="M69.1903 19.3576C69.1903 17.0597 68.4677 15.1973 67.0224 13.7705C65.5772 12.3438 63.6935 11.6304 61.3714 11.6305C59.0494 11.6305 57.156 12.3726 55.6914 13.8567C54.2268 15.3408 53.4946 17.3181 53.4946 19.7885C53.4946 22.2589 54.2172 24.2409 55.6625 25.7346C57.1077 27.2283 58.9866 27.9752 61.2991 27.9752C62.9777 28.0328 64.6301 27.5442 66.0108 26.582C67.2454 25.7038 68.1673 24.4502 68.641 23.0057H65.0858C64.3535 24.4803 63.0913 25.2176 61.2991 25.2176C60.1605 25.2537 59.0539 24.8355 58.2206 24.0542C57.3778 23.225 56.8947 22.0944 56.8765 20.9087H69.0746C69.1544 20.3956 69.193 19.8769 69.1903 19.3576ZM56.9056 18.6682C56.9652 17.4886 57.466 16.3753 58.3075 15.5515C59.1313 14.7738 60.2276 14.3556 61.357 14.3881C62.4984 14.3607 63.6064 14.7775 64.4499 15.5515C64.8747 15.9479 65.2106 16.4311 65.4349 16.9685C65.6592 17.506 65.7668 18.0855 65.7506 18.6682H56.9056Z" fill="white" style="fill:white;fill-opacity:1;"/>
<path fill-rule="evenodd" clip-rule="evenodd" d="M44.8741 10.2229C44.0124 10.1841 43.1642 10.4482 42.4749 10.9698C42.1627 11.2332 41.9163 11.5667 41.7557 11.9434C41.595 12.3201 41.5246 12.7295 41.55 13.1386C41.5299 13.5649 41.6206 13.9892 41.8132 14.3695C42.0058 14.7498 42.2937 15.0731 42.6484 15.3073C43.458 15.8374 44.3605 16.2079 45.3077 16.3989C46.3483 16.6287 47.3889 16.892 48.4294 17.1889C49.4534 17.4753 50.3755 18.0481 51.0888 18.8405C51.821 19.6449 52.1871 20.7843 52.1871 22.2589C52.1872 23.7334 51.5609 25.0548 50.3083 26.223C49.0557 27.3911 47.3792 27.9752 45.2787 27.9752C43.1783 27.9752 41.4729 27.4869 40.1625 26.5102C39.5278 26.0509 39.016 25.4406 38.673 24.7339C38.33 24.0271 38.1665 23.2458 38.197 22.46H41.7234C41.7631 23.262 42.1163 24.0157 42.7062 24.5569C43.2844 25.074 44.1323 25.3325 45.2499 25.3325C46.2074 25.3866 47.1506 25.0793 47.8947 24.4707C48.4391 23.9957 48.7815 23.3287 48.8514 22.6072C48.9213 21.8857 48.7134 21.1648 48.2705 20.5929C47.8518 20.137 47.3246 19.7959 46.7385 19.6019C46.061 19.367 45.371 19.1704 44.6717 19.013C43.9202 18.8406 43.1638 18.6396 42.4027 18.4098C41.6769 18.1952 40.9785 17.8963 40.3215 17.5193C39.6771 17.1368 39.1477 16.5859 38.7895 15.925C38.3725 15.1347 38.1683 14.2483 38.197 13.354C38.1702 12.5535 38.3271 11.7575 38.6554 11.0277C38.9838 10.2979 39.4747 9.65398 40.0903 9.14576C41.3525 8.0829 42.9905 7.55149 45.0042 7.55151C47.0179 7.55154 48.627 8.01114 49.8314 8.93032C51.0357 9.84953 51.7054 11.1805 51.8403 12.9232H48.1982C48.1316 12.1776 47.7791 11.4874 47.2154 10.9986C46.5592 10.4541 45.7236 10.1773 44.8741 10.2229Z" fill="white" style="fill:white;fill-opacity:1;"/>
<path fill-rule="evenodd" clip-rule="evenodd" d="M191.803 25.7114C190.636 26.5266 189.239 26.9411 187.819 26.8932C186.754 26.9049 185.701 26.666 184.744 26.1955C183.791 25.7121 182.999 24.9601 182.463 24.0313C181.843 22.9247 181.529 21.6709 181.554 20.4006H195.036C195.129 19.9029 195.177 19.3978 195.181 18.8914C195.185 17.7304 194.891 16.5879 194.329 15.574C193.741 14.519 192.871 13.6509 191.817 13.0681C190.61 12.407 189.251 12.0779 187.876 12.1142C186.503 12.0874 185.146 12.4159 183.936 13.0681C182.791 13.7032 181.854 14.6575 181.236 15.8162C180.557 17.1139 180.22 18.5646 180.255 20.0306C180.217 21.5059 180.555 22.9663 181.236 24.2735C181.854 25.4321 182.791 26.3864 183.936 27.0214C185.146 27.6736 186.503 28.0021 187.876 27.9754C189.859 27.9754 191.49 27.4723 192.77 26.4662C194.033 25.4892 194.875 24.0623 195.123 22.4795H193.766C193.671 23.1233 193.449 23.7413 193.112 24.2966C192.774 24.8519 192.329 25.3331 191.803 25.7114ZM182.463 16.0438C183.007 15.1165 183.803 14.3654 184.759 13.8796C185.722 13.4135 186.777 13.1702 187.846 13.1678C188.915 13.1653 189.971 13.4037 190.937 13.8655C191.889 14.3393 192.675 15.0944 193.189 16.0296C193.773 17.1338 194.024 18.386 193.91 19.6318H181.554C181.529 18.3752 181.844 17.1354 182.463 16.0438Z" fill="white" style="fill:white;fill-opacity:1;"/>
<path fill-rule="evenodd" clip-rule="evenodd" d="M171.76 11.941C173.608 11.941 175.109 12.5105 176.264 13.6495C177.419 14.7885 177.996 16.4686 177.996 18.6898V27.7167H176.697V18.7467C176.697 16.8863 176.225 15.4673 175.282 14.4896C174.339 13.5119 173.05 13.0231 171.414 13.0231C170.656 12.9905 169.901 13.1196 169.197 13.4018C168.493 13.684 167.856 14.113 167.329 14.6604C166.299 15.752 165.784 17.3609 165.784 19.4871V27.7167H164.485V12.2542H165.784V16.3263C166.092 14.9973 166.879 13.8303 167.993 13.0516C169.106 12.3032 170.421 11.9157 171.76 11.941Z" fill="white" style="fill:white;fill-opacity:1;"/>
<path fill-rule="evenodd" clip-rule="evenodd" d="M160.74 12.4273C159.94 10.9094 158.728 9.65054 157.246 8.79663C155.702 7.94654 153.969 7.50098 152.209 7.50098C150.448 7.50098 148.715 7.94654 147.171 8.79663C145.687 9.65263 144.471 10.9106 143.663 12.4273C142.799 14.0555 142.361 15.8785 142.393 17.724C142.361 19.5694 142.799 21.3924 143.663 23.0205C144.473 24.5393 145.688 25.8014 147.171 26.6655C148.712 27.5246 150.446 27.9753 152.209 27.9753C153.971 27.9753 155.705 27.5246 157.246 26.6655C158.727 25.8035 159.937 24.5405 160.74 23.0205C161.595 21.3895 162.027 19.5677 161.995 17.724C162.027 15.8803 161.595 14.0584 160.74 12.4273ZM159.556 22.5079C158.858 23.8299 157.802 24.9259 156.51 25.6687C155.19 26.3973 153.708 26.7792 152.201 26.7792C150.695 26.7792 149.213 26.3973 147.892 25.6687C146.607 24.9224 145.556 23.827 144.861 22.5079C144.094 21.0334 143.712 19.3875 143.75 17.724C143.712 16.0605 144.094 14.4146 144.861 12.9401C145.556 11.621 146.607 10.5255 147.892 9.77929C149.213 9.0507 150.695 8.66875 152.201 8.66875C153.707 8.66875 155.189 9.0507 156.51 9.77929C157.802 10.5221 158.858 11.6181 159.556 12.9401C160.323 14.4146 160.705 16.0605 160.667 17.724C160.705 19.3875 160.323 21.0334 159.556 22.5079Z" fill="white" style="fill:white;fill-opacity:1;"/>
<path d="M198.669 14.0262L198.311 13.4891H198.022V14.0262H197.656V12.3484H198.418C198.812 12.3484 199.048 12.5569 199.048 12.902V12.9067C199.053 13.0208 199.021 13.1336 198.956 13.2276C198.892 13.3216 198.798 13.3916 198.69 13.427L199.098 14.0263L198.669 14.0262ZM198.676 12.9211C198.676 12.763 198.566 12.6814 198.387 12.6814H198.022V13.1632H198.394C198.573 13.1632 198.676 13.0674 198.676 12.9258L198.676 12.9211Z" fill="white" style="fill:white;fill-opacity:1;"/>
<path d="M198.291 14.9522C197.953 14.9522 197.622 14.8515 197.341 14.6627C197.06 14.4739 196.841 14.2055 196.712 13.8916C196.583 13.5776 196.549 13.2321 196.615 12.8988C196.681 12.5655 196.843 12.2593 197.082 12.019C197.321 11.7786 197.626 11.615 197.957 11.5487C198.288 11.4823 198.632 11.5164 198.944 11.6464C199.256 11.7764 199.523 11.9967 199.711 12.2792C199.899 12.5618 199.999 12.894 199.999 13.2339C199.998 13.6894 199.818 14.1261 199.498 14.4483C199.178 14.7704 198.743 14.9516 198.291 14.9522ZM198.291 11.8896C198.026 11.8896 197.768 11.9685 197.548 12.1162C197.328 12.2639 197.157 12.4738 197.056 12.7195C196.954 12.9651 196.928 13.2354 196.98 13.4962C197.031 13.757 197.158 13.9965 197.345 14.1845C197.532 14.3725 197.77 14.5006 198.03 14.5524C198.289 14.6043 198.558 14.5777 198.802 14.4759C199.046 14.3742 199.255 14.2018 199.402 13.9808C199.549 13.7597 199.627 13.4998 199.627 13.2339C199.627 12.8775 199.486 12.5358 199.235 12.2838C198.985 12.0318 198.645 11.8901 198.291 11.8896Z" fill="white" style="fill:white;fill-opacity:1;"/>
</g>
<defs>
<clipPath id="clip0_1_1238">
<rect width="200" height="34" fill="white" style="fill:white;fill-opacity:1;"/>
</clipPath>
</defs>
</svg>
