<svg width="200" height="70" viewBox="0 0 200 70" fill="none" xmlns="http://www.w3.org/2000/svg">
<g clip-path="url(#clip0_1_1263)">
<mask id="mask0_1_1263" style="mask-type:luminance" maskUnits="userSpaceOnUse" x="0" y="0" width="200" height="70">
<path d="M200 0H0V70H200V0Z" fill="white" style="fill:white;fill-opacity:1;"/>
</mask>
<g mask="url(#mask0_1_1263)">
<path d="M33.3563 45.7171C32.6924 46.4973 31.8606 47.1201 30.922 47.5397C29.9835 47.9592 28.962 48.1648 27.9328 48.1414H3.74691V42.8167H27.9281C29.4634 42.8167 29.9952 41.5229 29.9952 40.0237C29.9952 38.5246 29.4646 37.2307 27.9281 37.2307H9.85868C8.82742 37.2539 7.80407 37.0472 6.86415 36.6258C5.92423 36.2044 5.09173 35.579 4.42809 34.7959C3.03785 33.2401 2.29708 31.2178 2.35633 29.1399C2.3103 27.0181 3.07039 24.9568 4.48574 23.3649C5.14432 22.5943 5.96933 21.9806 6.89963 21.5692C7.82994 21.1578 8.84167 20.9593 9.85986 20.9884H34.0399V26.3142H9.80456C8.26221 26.3142 7.73515 27.6232 7.73515 29.1352C7.73515 30.6274 8.27397 31.9014 9.80456 31.9014H27.9116C28.9441 31.877 29.9689 32.082 30.9111 32.5015C31.8532 32.921 32.6887 33.5443 33.3563 34.3257C34.6656 35.9406 35.3793 37.9505 35.3793 40.0226C35.3793 42.0946 34.6656 44.1045 33.3563 45.7194" fill="white" style="fill:white;fill-opacity:1;"/>
<path d="M121.047 27.4342C120.909 27.1012 120.675 26.8163 120.373 26.6158C120.072 26.4153 119.717 26.3083 119.354 26.3084H97.5319V33.5569H119.354C119.714 33.5584 120.066 33.4548 120.366 33.2589C120.667 33.063 120.902 32.7835 121.044 32.4556C121.372 31.6669 121.521 30.816 121.48 29.9636C121.524 29.098 121.377 28.2334 121.051 27.4296M124.872 36.0955C124.256 36.9753 123.431 37.6902 122.469 38.1764C121.507 38.6626 120.438 38.9048 119.359 38.8815H97.533V48.1402H92.1519V20.9872H119.355C120.434 20.9632 121.503 21.205 122.464 21.6908C123.426 22.1766 124.251 22.8913 124.866 23.7709C126.214 25.5551 126.916 27.7375 126.859 29.9659C126.922 32.1769 126.219 34.3425 124.868 36.1026" fill="white" style="fill:white;fill-opacity:1;"/>
<path d="M144.754 20.9861H139.373V48.1344H144.754V20.9861Z" fill="white" style="fill:white;fill-opacity:1;"/>
<path d="M79.1083 21.0105H46.9883V26.2197H79.1083V21.0105Z" fill="white" style="fill:white;fill-opacity:1;"/>
<path d="M79.1083 42.8588H46.9883V48.0679H79.1083V42.8588Z" fill="white" style="fill:white;fill-opacity:1;"/>
<path d="M76.6292 31.9014H46.9609V37.1105H76.6292V31.9014Z" fill="white" style="fill:white;fill-opacity:1;"/>
<path d="M161.101 47.7984C160.824 47.7987 160.551 47.7375 160.301 47.6195C160.051 47.5014 159.831 47.3293 159.656 47.1159C157.801 44.7512 156.486 42.0139 155.805 39.0946C155.124 36.1752 155.092 33.1437 155.712 30.2109C156.941 24.6891 160.305 19.8657 165.081 16.7767C165.29 16.6398 165.524 16.5462 165.771 16.5013C166.017 16.4565 166.269 16.4615 166.514 16.516C166.758 16.5704 166.988 16.6733 167.191 16.8183C167.395 16.9633 167.566 17.1475 167.696 17.3599C167.825 17.5722 167.91 17.8084 167.945 18.0541C167.98 18.2998 167.965 18.55 167.9 18.7898C167.836 19.0295 167.723 19.2538 167.568 19.4492C167.414 19.6445 167.222 19.807 167.002 19.9267C163.136 22.4925 160.401 26.4236 159.355 30.9191C158.856 33.3224 158.882 35.8039 159.431 38.1964C159.981 40.5889 161.041 42.8368 162.541 44.7884C162.762 45.0588 162.9 45.3855 162.941 45.7308C162.982 46.0761 162.924 46.4258 162.772 46.7395C162.621 47.0531 162.384 47.318 162.087 47.5033C161.791 47.6887 161.447 47.7869 161.096 47.7867" fill="white" style="fill:white;fill-opacity:1;"/>
<path d="M176.38 55.3887C172.804 55.3877 169.288 54.4805 166.164 52.7533C165.953 52.6287 165.768 52.4635 165.621 52.2674C165.474 52.0713 165.368 51.8482 165.309 51.6111C165.25 51.374 165.239 51.1275 165.277 50.8862C165.315 50.6448 165.401 50.4134 165.53 50.2053C165.659 49.9973 165.829 49.8167 166.029 49.6743C166.229 49.5318 166.455 49.4303 166.695 49.3755C166.935 49.3208 167.184 49.314 167.427 49.3555C167.669 49.397 167.901 49.486 168.109 49.6172C170.351 50.8394 172.843 51.5412 175.398 51.6697C177.954 51.7983 180.505 51.3502 182.86 50.3592C190.749 46.9432 192.561 40.7156 192.637 40.4519C192.765 39.9796 193.076 39.5767 193.503 39.332C193.93 39.0873 194.437 39.0207 194.913 39.147C195.39 39.2732 195.796 39.5819 196.043 40.0052C196.289 40.4284 196.356 40.9316 196.229 41.4039C196.141 41.7341 193.946 49.5799 184.355 53.7321C181.844 54.8276 179.131 55.3926 176.388 55.3911" fill="white" style="fill:white;fill-opacity:1;"/>
<path d="M195.381 33.5861C194.923 33.5858 194.481 33.4177 194.14 33.1141C193.799 32.8105 193.584 32.3927 193.535 31.9411C192.974 28.7167 191.562 25.6975 189.441 23.1911C187.795 21.2949 185.748 19.7814 183.446 18.7581C181.143 17.7348 178.642 17.2268 176.12 17.2702C175.876 17.2856 175.633 17.2532 175.402 17.1751C175.171 17.097 174.959 16.9746 174.776 16.8149C174.593 16.6552 174.444 16.4614 174.336 16.2444C174.229 16.0275 174.166 15.7917 174.15 15.5506C174.135 15.3094 174.167 15.0676 174.246 14.839C174.325 14.6103 174.448 14.3993 174.609 14.2179C174.77 14.0366 174.966 13.8884 175.185 13.782C175.403 13.6756 175.641 13.6129 175.884 13.5976C178.99 13.5235 182.073 14.1346 184.911 15.3868C187.749 16.6389 190.271 18.5009 192.295 20.8379C194.897 23.8916 196.606 27.5941 197.236 31.5432C197.289 32.0285 197.144 32.5146 196.836 32.8946C196.527 33.2746 196.078 33.5175 195.589 33.5697C195.522 33.577 195.455 33.5805 195.388 33.5802" fill="white" style="fill:white;fill-opacity:1;"/>
<path d="M161.99 39.4734C161.906 39.3951 161.841 39.2989 161.8 39.192C160.563 35.6854 160.668 31.8498 162.094 28.413C164.886 22.3761 168.883 20.8713 169.052 20.8101C169.239 20.7492 169.443 20.7629 169.621 20.8481C169.799 20.9334 169.936 21.0837 170.004 21.2673C170.072 21.451 170.066 21.6538 169.986 21.8329C169.907 22.0121 169.76 22.1537 169.577 22.2279C169.541 22.2408 165.984 23.6278 163.48 29.0348C162.241 32.1059 162.149 35.5147 163.223 38.6454C163.284 38.8046 163.289 38.9796 163.237 39.1421C163.185 39.3046 163.08 39.4449 162.937 39.5403C162.795 39.6357 162.624 39.6805 162.453 39.6674C162.281 39.6543 162.12 39.5842 161.994 39.4683" fill="white" style="fill:white;fill-opacity:1;"/>
<path d="M167.381 46.0112C167.231 45.8769 167.142 45.6891 167.132 45.4891C167.122 45.2891 167.192 45.0934 167.328 44.9449C167.464 44.7965 167.653 44.7074 167.855 44.6975C168.056 44.6875 168.254 44.7573 168.403 44.8917C170.983 46.848 174.178 47.834 177.422 47.6747C180.667 47.5153 183.749 46.2208 186.124 44.0211C186.261 43.8738 186.451 43.7862 186.653 43.7778C186.854 43.7694 187.051 43.8407 187.2 43.9761L187.209 43.9841C187.356 44.1192 187.443 44.3066 187.451 44.5053C187.46 44.704 187.388 44.8979 187.253 45.0449C184.608 47.5376 181.15 49.0075 177.507 49.1879C173.864 49.3683 170.277 48.2471 167.397 46.028L167.381 46.0129" fill="white" style="fill:white;fill-opacity:1;"/>
<path d="M190.295 35.0658C190.211 34.9879 190.145 34.8919 190.103 34.7851C190.062 34.6783 190.045 34.5634 190.055 34.4492C190.09 31.8601 189.37 29.3165 187.98 27.1253C186.139 24.3503 183.391 22.2883 180.198 21.2852C180.011 21.2269 179.853 21.0992 179.759 20.9286C179.664 20.7581 179.639 20.5579 179.69 20.3698C179.74 20.1816 179.862 20.02 180.03 19.9185C180.197 19.8171 180.398 19.7836 180.59 19.8251C184.169 20.912 187.246 23.2161 189.279 26.3319C190.854 28.7925 191.653 31.6629 191.575 34.5769C191.563 34.7179 191.511 34.8527 191.425 34.9658C191.34 35.079 191.223 35.166 191.09 35.2168C190.957 35.2677 190.812 35.2804 190.672 35.2536C190.532 35.2267 190.402 35.1613 190.298 35.0649" fill="white" style="fill:white;fill-opacity:1;"/>
</g>
</g>
<defs>
<clipPath id="clip0_1_1263">
<rect width="200" height="70" fill="white" style="fill:white;fill-opacity:1;"/>
</clipPath>
</defs>
</svg>
