<svg width="198" height="39" viewBox="0 0 198 39" fill="none" xmlns="http://www.w3.org/2000/svg">
<g clip-path="url(#clip0_1_1284)">
<path d="M0.185547 1.72929C0.185547 0.776479 0.971627 0.00231934 1.93911 0.00231934H15.3146C16.282 0.00231934 17.0681 0.776479 17.0681 1.72929C17.0681 2.6821 16.282 3.45627 15.3146 3.45627H1.93911C0.971627 3.45627 0.185547 2.6821 0.185547 1.72929Z" fill="#00C58B" style="fill:#00C58B;fill:color(display-p3 0.0000 0.7725 0.5451);fill-opacity:1;"/>
<path d="M27.4079 0.00231934H27.2869C26.3557 0.00231934 25.5939 0.752657 25.5939 1.66974V8.54189H12.6901C11.7226 8.54189 10.9365 9.31604 10.9365 10.2688C10.9365 11.2217 11.7226 11.9958 12.6901 11.9958H25.5818V25.6686H15.012C14.0446 25.6686 13.2585 26.4428 13.2585 27.3956C13.2585 28.3484 14.0446 29.1226 15.012 29.1226H27.2749H27.3353H27.3958C28.327 29.1226 29.0889 28.3722 29.0889 27.4551V10.2688V1.66974C29.101 0.752657 28.3391 0.00231934 27.4079 0.00231934Z" fill="#00C58B" style="fill:#00C58B;fill:color(display-p3 0.0000 0.7725 0.5451);fill-opacity:1;"/>
<path d="M19.5464 18.7368C19.5464 17.784 18.7603 17.0099 17.7928 17.0099H3.70391V8.73233C3.70391 7.82717 2.9541 7.08875 2.03499 7.08875H1.86568C0.946577 7.08875 0.196777 7.82717 0.196777 8.73233V27.4789C0.196777 28.384 0.946577 29.1225 1.86568 29.1225H2.03499C2.9541 29.1225 3.70391 28.384 3.70391 27.4789V20.4757H17.7928C18.7603 20.4638 19.5464 19.6897 19.5464 18.7368Z" fill="#00C58B" style="fill:#00C58B;fill:color(display-p3 0.0000 0.7725 0.5451);fill-opacity:1;"/>
<path d="M6.86133 27.3954C6.86133 26.4426 7.64741 25.6685 8.61488 25.6685C9.58235 25.6685 10.3684 26.4426 10.3684 27.3954C10.3684 28.3482 9.58235 29.1224 8.61488 29.1224C7.64741 29.1224 6.86133 28.3482 6.86133 27.3954Z" fill="#00C58B" style="fill:#00C58B;fill:color(display-p3 0.0000 0.7725 0.5451);fill-opacity:1;"/>
<path d="M19.5479 1.72929C19.5479 0.776479 20.3339 0.00231934 21.3014 0.00231934C22.2689 0.00231934 23.055 0.776479 23.055 1.72929C23.055 2.6821 22.2689 3.45627 21.3014 3.45627C20.3339 3.45627 19.5479 2.6821 19.5479 1.72929Z" fill="#00C58B" style="fill:#00C58B;fill:color(display-p3 0.0000 0.7725 0.5451);fill-opacity:1;"/>
<path d="M43.2641 21.4639C42.2604 21.0113 41.4743 20.4039 40.8818 19.6417C40.3011 18.8794 39.9745 18.0219 39.9263 17.0929H43.8567C43.9293 17.6765 44.2193 18.1648 44.7273 18.5459C45.2353 18.9271 45.8764 19.1176 46.6383 19.1176C47.3758 19.1176 47.9565 18.9747 48.3796 18.6769C48.803 18.3792 49.0084 18.01 49.0084 17.5574C49.0084 17.0691 48.7545 16.6879 48.2465 16.4497C47.7388 16.1996 46.9283 15.9376 45.8159 15.6398C44.6668 15.3659 43.7236 15.0801 42.986 14.7942C42.2482 14.4965 41.6193 14.0558 41.0994 13.4484C40.5674 12.841 40.3011 12.0311 40.3011 11.0068C40.3011 10.1612 40.5429 9.39895 41.039 8.70815C41.5348 8.01735 42.2363 7.46949 43.1551 7.06456C44.0743 6.6596 45.1507 6.45715 46.3962 6.45715C48.2346 6.45715 49.6977 6.90974 50.7983 7.81491C51.8988 8.72007 52.4913 9.93489 52.6125 11.4713H48.8876C48.8271 10.8639 48.5731 10.3875 48.1256 10.0302C47.6662 9.67286 47.0614 9.49423 46.2994 9.49423C45.5983 9.49423 45.0539 9.62524 44.6668 9.87534C44.292 10.1374 44.0984 10.4828 44.0984 10.9473C44.0984 11.4594 44.3524 11.8524 44.8726 12.1145C45.3925 12.3765 46.2027 12.6504 47.2913 12.9243C48.4037 13.1983 49.3229 13.4841 50.0485 13.77C50.7741 14.0677 51.403 14.5203 51.9232 15.1277C52.4553 15.7351 52.7212 16.545 52.7453 17.5574C52.7453 18.4387 52.5035 19.2248 52.0078 19.9156C51.512 20.6064 50.8105 21.1542 49.8913 21.5473C48.9721 21.9403 47.896 22.1428 46.6743 22.1428C45.4047 22.1309 44.2679 21.9046 43.2641 21.4639Z" fill="#00C58B" style="fill:#00C58B;fill:color(display-p3 0.0000 0.7725 0.5451);fill-opacity:1;"/>
<path d="M69.6034 15.4493H58.3324C58.4292 16.545 58.816 17.4026 59.5056 18.0219C60.1949 18.6412 61.0414 18.9509 62.0329 18.9509C63.4842 18.9509 64.5121 18.3435 65.1168 17.1167H69.3253C68.8778 18.5816 68.0312 19.7846 66.7616 20.7255C65.5039 21.6664 63.9559 22.1428 62.1175 22.1428C60.6302 22.1428 59.2998 21.8212 58.1267 21.1661C56.9538 20.523 56.0346 19.594 55.3694 18.4149C54.7165 17.2239 54.3779 15.8542 54.3779 14.3059C54.3779 12.7338 54.7042 11.3522 55.3572 10.1612C56.0105 8.97018 56.9175 8.06501 58.0907 7.42187C59.2635 6.77872 60.6061 6.45715 62.1297 6.45715C63.5932 6.45715 64.9114 6.7668 66.0723 7.38613C67.2333 8.00546 68.128 8.88682 68.7691 10.0302C69.4102 11.1736 69.7246 12.4837 69.7246 13.9605C69.7124 14.5084 69.6761 15.0086 69.6034 15.4493ZM65.673 12.8648C65.6489 11.8762 65.2981 11.0902 64.5847 10.4947C63.8832 9.89916 63.0126 9.6014 61.9966 9.6014C61.0292 9.6014 60.219 9.88727 59.566 10.4709C58.9127 11.0425 58.5015 11.8405 58.3565 12.8648H65.673Z" fill="#00C58B" style="fill:#00C58B;fill:color(display-p3 0.0000 0.7725 0.5451);fill-opacity:1;"/>
<path d="M71.9503 10.221C72.5914 9.04188 73.462 8.12479 74.5503 7.46973C75.6508 6.81466 76.8481 6.4812 78.1663 6.4812C79.2668 6.4812 80.2345 6.68365 81.081 7.10053C81.9276 7.51738 82.6046 8.0414 83.1248 8.67265V6.69557H87.043V29.1224H83.1248V19.7967C82.6046 20.4518 81.9035 20.9996 81.0325 21.4403C80.1619 21.881 79.1822 22.0954 78.0817 22.0954C76.7877 22.0954 75.5904 21.7619 74.5021 21.0949C73.4138 20.4279 72.5551 19.499 71.9262 18.308C71.2973 17.1169 70.9829 15.7711 70.9829 14.2466C70.9951 12.7459 71.3096 11.4001 71.9503 10.221ZM82.5442 11.8765C82.1574 11.1976 81.6495 10.6855 81.0325 10.3401C80.4158 9.99467 79.7507 9.81603 79.0372 9.81603C78.3479 9.81603 77.6946 9.99467 77.078 10.3401C76.4613 10.6855 75.9534 11.1976 75.5663 11.8646C75.1792 12.5315 74.986 13.3295 74.986 14.2585C74.986 15.1875 75.1792 15.9974 75.5663 16.6881C75.9534 17.3789 76.4613 17.8911 77.078 18.2365C77.6946 18.5819 78.3479 18.7605 79.0372 18.7605C79.7384 18.7605 80.4036 18.5819 81.0325 18.2365C81.6495 17.8911 82.1574 17.3789 82.5442 16.7001C82.9313 16.0212 83.1248 15.2232 83.1248 14.2823C83.1248 13.3652 82.9313 12.5553 82.5442 11.8765Z" fill="#00C58B" style="fill:#00C58B;fill:color(display-p3 0.0000 0.7725 0.5451);fill-opacity:1;"/>
<path d="M104.857 6.69531V21.8807H100.939V19.9632C100.443 20.6182 99.7777 21.1423 98.9794 21.5115C98.1692 21.8807 97.2982 22.0713 96.3549 22.0713C95.1458 22.0713 94.0816 21.8212 93.1502 21.3209C92.2191 20.8207 91.4935 20.0823 90.9614 19.1057C90.4293 18.129 90.1631 16.9618 90.1631 15.616V6.7072H94.0571V15.0681C94.0571 16.271 94.3597 17.2001 94.9763 17.8551C95.5933 18.4982 96.4276 18.8317 97.4799 18.8317C98.556 18.8317 99.4025 18.5101 100.007 17.8551C100.624 17.2119 100.926 16.283 100.926 15.0681V6.7072H104.857V6.69531Z" fill="#00C58B" style="fill:#00C58B;fill:color(display-p3 0.0000 0.7725 0.5451);fill-opacity:1;"/>
<path d="M122.368 15.4493H111.097C111.193 16.545 111.58 17.4026 112.27 18.0219C112.959 18.6412 113.806 18.9509 114.797 18.9509C116.248 18.9509 117.276 18.3435 117.881 17.1167H122.089C121.642 18.5816 120.795 19.7846 119.526 20.7255C118.268 21.6664 116.72 22.1428 114.882 22.1428C113.394 22.1428 112.064 21.8212 110.891 21.1661C109.718 20.523 108.799 19.594 108.134 18.4149C107.481 17.2239 107.142 15.8542 107.142 14.3059C107.142 12.7338 107.468 11.3522 108.122 10.1612C108.775 8.97018 109.682 8.06501 110.855 7.42187C112.028 6.77872 113.37 6.45715 114.894 6.45715C116.357 6.45715 117.676 6.7668 118.836 7.38613C119.997 8.00546 120.892 8.88682 121.533 10.0302C122.174 11.1736 122.489 12.4837 122.489 13.9605C122.477 14.5084 122.44 15.0086 122.368 15.4493ZM118.449 12.8648C118.425 11.8762 118.075 11.0902 117.361 10.4947C116.66 9.89916 115.789 9.6014 114.773 9.6014C113.806 9.6014 112.995 9.88727 112.342 10.4709C111.689 11.0425 111.278 11.8405 111.133 12.8648H118.449Z" fill="#00C58B" style="fill:#00C58B;fill:color(display-p3 0.0000 0.7725 0.5451);fill-opacity:1;"/>
<path d="M137.763 8.19626C138.9 9.33961 139.456 10.9356 139.456 12.9841V21.8929H135.562V13.5082C135.562 12.3052 135.259 11.3762 134.643 10.7212C134.026 10.0781 133.191 9.74457 132.139 9.74457C131.063 9.74457 130.217 10.0661 129.588 10.7212C128.971 11.3643 128.656 12.2933 128.656 13.5082V21.8929H124.762V6.69557H128.656V8.5893C129.176 7.93423 129.842 7.41018 130.652 7.04095C131.462 6.67176 132.345 6.4812 133.312 6.4812C135.138 6.4812 136.626 7.05288 137.763 8.19626Z" fill="#00C58B" style="fill:#00C58B;fill:color(display-p3 0.0000 0.7725 0.5451);fill-opacity:1;"/>
<path d="M147.135 9.8516V17.2001C147.135 17.7123 147.256 18.0815 147.51 18.3078C147.764 18.5341 148.188 18.6532 148.78 18.6532H150.594V21.8927H148.139C144.85 21.8927 143.217 20.3206 143.217 17.1763V9.8516H141.379V6.6954H143.217V2.94373H147.135V6.6954H150.582V9.8516H147.135Z" fill="#00C58B" style="fill:#00C58B;fill:color(display-p3 0.0000 0.7725 0.5451);fill-opacity:1;"/>
<path d="M167.404 6.69531V21.8807H163.473V19.9632C162.978 20.6182 162.313 21.1423 161.514 21.5115C160.704 21.8807 159.833 22.0713 158.878 22.0713C157.669 22.0713 156.605 21.8212 155.673 21.3209C154.742 20.8207 154.016 20.0823 153.484 19.1057C152.952 18.129 152.686 16.9618 152.686 15.616V6.7072H156.58V15.0681C156.58 16.271 156.883 17.2001 157.499 17.8551C158.116 18.4982 158.951 18.8317 160.003 18.8317C161.079 18.8317 161.925 18.5101 162.53 17.8551C163.147 17.2119 163.449 16.283 163.449 15.0681V6.7072H167.404V6.69531Z" fill="#00C58B" style="fill:#00C58B;fill:color(display-p3 0.0000 0.7725 0.5451);fill-opacity:1;"/>
<path d="M194.408 8.19585C195.569 9.33923 196.15 10.9352 196.15 12.9837V21.8925H192.256V13.5078C192.256 12.3168 191.953 11.4116 191.336 10.7803C190.72 10.1491 189.885 9.83944 188.833 9.83944C187.781 9.83944 186.934 10.1491 186.318 10.7803C185.701 11.4116 185.387 12.3168 185.387 13.5078V21.8925H181.48V13.5078C181.48 12.3168 181.178 11.4116 180.561 10.7803C179.945 10.1491 179.11 9.83944 178.058 9.83944C176.982 9.83944 176.135 10.1491 175.506 10.7803C174.889 11.4116 174.575 12.3168 174.575 13.5078V21.8925H170.681V6.69516H174.575V8.52934C175.071 7.8862 175.724 7.38596 176.51 7.01674C177.296 6.64754 178.167 6.46887 179.11 6.46887C180.319 6.46887 181.396 6.71901 182.339 7.21922C183.282 7.71946 184.02 8.43407 184.54 9.37497C185.036 8.49361 185.773 7.79092 186.729 7.26687C187.684 6.74282 188.724 6.46887 189.837 6.46887C191.723 6.48079 193.247 7.05247 194.408 8.19585Z" fill="#00C58B" style="fill:#00C58B;fill:color(display-p3 0.0000 0.7725 0.5451);fill-opacity:1;"/>
<path d="M95.6956 29.0674V30.9149H90.3418V29.0674H95.6956ZM91.5571 26.9428H94.023V35.2105C94.023 35.4375 94.0576 35.6146 94.1272 35.7416C94.1965 35.8646 94.2929 35.9513 94.4165 36.0014C94.5438 36.0512 94.6905 36.0763 94.8562 36.0763C94.972 36.0763 95.0878 36.0668 95.2036 36.0475C95.3194 36.0245 95.408 36.0072 95.4698 35.9957L95.8576 37.8257C95.7343 37.8643 95.5605 37.9084 95.3367 37.9585C95.1129 38.0123 94.841 38.0452 94.5207 38.0567C93.9265 38.0797 93.4056 38.0008 92.9577 37.82C92.5143 37.6391 92.169 37.358 91.9218 36.9769C91.6749 36.5959 91.5533 36.1149 91.5571 35.5337V26.9428ZM98.2797 37.9355V29.0674H100.67V30.6147H100.763C100.925 30.0643 101.197 29.6486 101.579 29.3676C101.961 29.0828 102.401 28.9404 102.898 28.9404C103.022 28.9404 103.155 28.9481 103.298 28.9635C103.441 28.9789 103.566 29.0001 103.674 29.027V31.2094C103.558 31.1747 103.398 31.1439 103.194 31.117C102.989 31.0901 102.802 31.0766 102.632 31.0766C102.269 31.0766 101.945 31.1555 101.66 31.3133C101.378 31.4672 101.154 31.6828 100.988 31.9599C100.826 32.237 100.745 32.5565 100.745 32.9183V37.9355H98.2797ZM111.628 34.1595V29.0674H114.094V37.9355H111.726V36.3245H111.633C111.433 36.8441 111.099 37.2618 110.632 37.5774C110.169 37.8931 109.604 38.051 108.936 38.051C108.342 38.051 107.819 37.9161 107.368 37.6469C106.916 37.3773 106.564 36.9945 106.309 36.498C106.058 36.0014 105.931 35.4066 105.927 34.714V29.0674H108.392V34.275C108.396 34.7987 108.537 35.2122 108.815 35.5164C109.093 35.8205 109.465 35.9726 109.932 35.9726C110.229 35.9726 110.507 35.9052 110.766 35.7704C111.024 35.6319 111.232 35.428 111.391 35.1584C111.553 34.8891 111.632 34.5561 111.628 34.1595ZM124.441 31.5962L122.183 31.7348C122.145 31.5423 122.062 31.3691 121.934 31.2151C121.807 31.0573 121.639 30.9323 121.431 30.8399C121.226 30.7436 120.982 30.6955 120.696 30.6955C120.314 30.6955 119.992 30.7763 119.729 30.938C119.467 31.0958 119.336 31.3075 119.336 31.5731C119.336 31.7848 119.421 31.9638 119.59 32.11C119.76 32.2563 120.051 32.3737 120.464 32.4622L122.073 32.7855C122.938 32.9626 123.582 33.2474 124.007 33.64C124.431 34.0325 124.643 34.5484 124.643 35.1872C124.643 35.7684 124.472 36.2785 124.128 36.7171C123.789 37.1561 123.322 37.4985 122.728 37.7451C122.137 37.9873 121.456 38.1085 120.684 38.1085C119.507 38.1085 118.57 37.8643 117.871 37.3756C117.177 36.8827 116.77 36.2131 116.65 35.3663L119.075 35.2393C119.149 35.5973 119.326 35.8703 119.608 36.059C119.89 36.2439 120.25 36.3361 120.69 36.3361C121.122 36.3361 121.469 36.2534 121.732 36.0878C121.998 35.9184 122.133 35.701 122.137 35.4354C122.133 35.2122 122.039 35.0293 121.854 34.8871C121.668 34.7407 121.383 34.6293 120.997 34.5521L119.457 34.2462C118.589 34.0731 117.943 33.7728 117.518 33.3456C117.098 32.9183 116.887 32.3737 116.887 31.7117C116.887 31.142 117.042 30.6513 117.35 30.2394C117.663 29.8276 118.101 29.51 118.664 29.2868C119.231 29.0636 119.895 28.952 120.655 28.952C121.778 28.952 122.662 29.1886 123.306 29.6621C123.954 30.1355 124.333 30.7802 124.441 31.5962ZM131.902 29.0674V30.9149H126.549V29.0674H131.902ZM127.764 26.9428H130.23V35.2105C130.23 35.4375 130.264 35.6146 130.334 35.7416C130.403 35.8646 130.5 35.9513 130.623 36.0014C130.751 36.0512 130.897 36.0763 131.063 36.0763C131.179 36.0763 131.295 36.0668 131.41 36.0475C131.526 36.0245 131.615 36.0072 131.677 35.9957L132.065 37.8257C131.941 37.8643 131.768 37.9084 131.543 37.9585C131.32 38.0123 131.048 38.0452 130.728 38.0567C130.133 38.0797 129.612 38.0008 129.165 37.82C128.721 37.6391 128.376 37.358 128.129 36.9769C127.882 36.5959 127.76 36.1149 127.764 35.5337V26.9428ZM139.237 37.9355V29.0674H141.702V37.9355H139.237ZM140.475 27.9243C140.109 27.9243 139.794 27.803 139.532 27.5605C139.274 27.3142 139.144 27.0198 139.144 26.6772C139.144 26.3385 139.274 26.0479 139.532 25.8054C139.794 25.5591 140.109 25.4359 140.475 25.4359C140.842 25.4359 141.154 25.5591 141.413 25.8054C141.676 26.0479 141.807 26.3385 141.807 26.6772C141.807 27.0198 141.676 27.3142 141.413 27.5605C141.154 27.803 140.842 27.9243 140.475 27.9243ZM147.121 32.8086V37.9355H144.656V29.0674H147.005V30.632H147.11C147.306 30.1163 147.636 29.7083 148.099 29.4081C148.563 29.104 149.124 28.952 149.784 28.952C150.401 28.952 150.939 29.0867 151.398 29.3561C151.858 29.6255 152.214 30.0104 152.469 30.5108C152.724 31.0073 152.851 31.6001 152.851 32.289V37.9355H150.386V32.7278C150.389 32.1851 150.25 31.7617 149.969 31.4576C149.687 31.1497 149.299 30.9958 148.805 30.9958C148.474 30.9958 148.181 31.067 147.926 31.2094C147.675 31.3518 147.478 31.5596 147.335 31.8329C147.196 32.1023 147.125 32.4276 147.121 32.8086ZM163.799 38.0797C163.123 38.0797 162.512 37.9067 161.964 37.5602C161.42 37.2099 160.988 36.6961 160.667 36.0187C160.351 35.3375 160.193 34.5023 160.193 33.513C160.193 32.4969 160.357 31.652 160.685 30.9784C161.013 30.301 161.449 29.7949 161.993 29.46C162.541 29.1213 163.141 28.952 163.793 28.952C164.291 28.952 164.705 29.0366 165.037 29.206C165.373 29.3715 165.643 29.5793 165.847 29.8295C166.056 30.0759 166.214 30.3183 166.322 30.557H166.397V26.1114H168.857V37.9355H166.426V36.5152H166.322C166.206 36.7615 166.042 37.006 165.83 37.2485C165.622 37.487 165.35 37.6851 165.014 37.843C164.682 38.0008 164.277 38.0797 163.799 38.0797ZM164.58 36.1227C164.977 36.1227 165.313 36.015 165.587 35.7992C165.865 35.5797 166.077 35.2739 166.224 34.8813C166.374 34.4887 166.449 34.0288 166.449 33.5014C166.449 32.9741 166.376 32.5161 166.229 32.1274C166.083 31.7386 165.871 31.4384 165.593 31.2267C165.315 31.015 164.977 30.9092 164.58 30.9092C164.175 30.9092 163.833 31.0188 163.555 31.2382C163.278 31.4576 163.067 31.7617 162.924 32.1505C162.782 32.5392 162.711 32.9895 162.711 33.5014C162.711 34.0173 162.782 34.4732 162.924 34.8698C163.071 35.2624 163.282 35.5702 163.555 35.7935C163.833 36.0129 164.175 36.1227 164.58 36.1227ZM174.397 38.1028C173.83 38.1028 173.325 38.0049 172.881 37.8084C172.437 37.6083 172.086 37.3139 171.828 36.9251C171.573 36.5325 171.446 36.0438 171.446 35.4588C171.446 34.966 171.536 34.5521 171.718 34.2174C171.899 33.8825 172.146 33.613 172.459 33.4091C172.771 33.2051 173.126 33.0511 173.523 32.9472C173.925 32.8433 174.346 32.7701 174.785 32.7278C175.302 32.6739 175.719 32.6239 176.036 32.5777C176.352 32.5276 176.582 32.4545 176.724 32.3583C176.867 32.2621 176.938 32.1196 176.938 31.931V31.8964C176.938 31.5308 176.823 31.2479 176.591 31.0477C176.364 30.8476 176.039 30.7475 175.619 30.7475C175.175 30.7475 174.822 30.8456 174.559 31.0419C174.297 31.2344 174.123 31.4769 174.039 31.7694L171.758 31.5846C171.874 31.0458 172.102 30.5801 172.441 30.1875C172.781 29.791 173.219 29.4869 173.755 29.2753C174.295 29.0597 174.92 28.952 175.63 28.952C176.124 28.952 176.597 29.0097 177.048 29.1251C177.504 29.2406 177.907 29.4196 178.258 29.6621C178.613 29.9046 178.893 30.2163 179.097 30.5974C179.302 30.9746 179.404 31.4268 179.404 31.9541V37.9355H177.066V36.7056H176.996C176.854 36.983 176.663 37.2272 176.423 37.4389C176.184 37.6469 175.897 37.8105 175.561 37.9297C175.225 38.0452 174.838 38.1028 174.397 38.1028ZM175.104 36.4055C175.466 36.4055 175.787 36.3344 176.064 36.1918C176.342 36.0455 176.56 35.8493 176.718 35.6031C176.877 35.3565 176.956 35.0774 176.956 34.7658V33.8247C176.879 33.8747 176.772 33.9211 176.638 33.9634C176.506 34.0017 176.358 34.0383 176.192 34.0731C176.026 34.1036 175.86 34.1328 175.694 34.1595C175.528 34.1825 175.378 34.2039 175.243 34.2232C174.953 34.2655 174.7 34.3329 174.484 34.4251C174.268 34.5175 174.1 34.6425 173.981 34.8004C173.861 34.9545 173.801 35.1469 173.801 35.3779C173.801 35.7128 173.923 35.9686 174.166 36.1457C174.413 36.3188 174.726 36.4055 175.104 36.4055ZM187.024 29.0674V30.9149H181.67V29.0674H187.024ZM182.885 26.9428H185.351V35.2105C185.351 35.4375 185.386 35.6146 185.455 35.7416C185.524 35.8646 185.621 35.9513 185.745 36.0014C185.872 36.0512 186.019 36.0763 186.185 36.0763C186.3 36.0763 186.416 36.0668 186.532 36.0475C186.647 36.0245 186.736 36.0072 186.798 35.9957L187.186 37.8257C187.062 37.8643 186.888 37.9084 186.665 37.9585C186.441 38.0123 186.169 38.0452 185.849 38.0567C185.255 38.0797 184.734 38.0008 184.286 37.82C183.842 37.6391 183.497 37.358 183.25 36.9769C183.003 36.5959 182.881 36.1149 182.885 35.5337V26.9428ZM192.143 38.1028C191.576 38.1028 191.07 38.0049 190.626 37.8084C190.183 37.6083 189.831 37.3139 189.573 36.9251C189.318 36.5325 189.191 36.0438 189.191 35.4588C189.191 34.966 189.282 34.5521 189.463 34.2174C189.644 33.8825 189.891 33.613 190.204 33.4091C190.516 33.2051 190.871 33.0511 191.269 32.9472C191.67 32.8433 192.091 32.7701 192.531 32.7278C193.048 32.6739 193.464 32.6239 193.781 32.5777C194.097 32.5276 194.327 32.4545 194.469 32.3583C194.612 32.2621 194.684 32.1196 194.684 31.931V31.8964C194.684 31.5308 194.568 31.2479 194.336 31.0477C194.109 30.8476 193.785 30.7475 193.364 30.7475C192.92 30.7475 192.567 30.8456 192.305 31.0419C192.043 31.2344 191.869 31.4769 191.784 31.7694L189.503 31.5846C189.619 31.0458 189.847 30.5801 190.187 30.1875C190.526 29.791 190.964 29.4869 191.5 29.2753C192.041 29.0597 192.666 28.952 193.376 28.952C193.869 28.952 194.342 29.0097 194.794 29.1251C195.249 29.2406 195.652 29.4196 196.003 29.6621C196.358 29.9046 196.638 30.2163 196.843 30.5974C197.047 30.9746 197.149 31.4268 197.149 31.9541V37.9355H194.811V36.7056H194.742C194.599 36.983 194.408 37.2272 194.169 37.4389C193.929 37.6469 193.642 37.8105 193.306 37.9297C192.971 38.0452 192.583 38.1028 192.143 38.1028ZM192.849 36.4055C193.212 36.4055 193.532 36.3344 193.81 36.1918C194.087 36.0455 194.305 35.8493 194.464 35.6031C194.622 35.3565 194.701 35.0774 194.701 34.7658V33.8247C194.624 33.8747 194.518 33.9211 194.383 33.9634C194.251 34.0017 194.103 34.0383 193.937 34.0731C193.771 34.1036 193.605 34.1328 193.439 34.1595C193.274 34.1825 193.123 34.2039 192.988 34.2232C192.698 34.2655 192.446 34.3329 192.23 34.4251C192.013 34.5175 191.846 34.6425 191.726 34.8004C191.607 34.9545 191.547 35.1469 191.547 35.3779C191.547 35.7128 191.668 35.9686 191.911 36.1457C192.158 36.3188 192.471 36.4055 192.849 36.4055Z" fill="#00C58B" style="fill:#00C58B;fill:color(display-p3 0.0000 0.7725 0.5451);fill-opacity:1;"/>
</g>
<defs>
<clipPath id="clip0_1_1284">
<rect width="198" height="39" fill="white" style="fill:white;fill-opacity:1;"/>
</clipPath>
</defs>
</svg>
