<svg width="201" height="19" viewBox="0 0 201 19" fill="none" xmlns="http://www.w3.org/2000/svg">
<g clip-path="url(#clip0_1_1300)">
<path d="M0.0520833 17.3511V13.0388H0.0729167C2.70833 14.4339 5.5 15.195 7.875 15.195C9.90625 15.195 10.9479 14.6348 10.9479 13.6518C10.9479 12.6688 10.1771 12.3517 6.42708 11.7176C2.96875 11.1468 0 10.0687 0 6.64416C0 3.58955 2.5625 1 7.91667 1C10.1458 1.01057 12.3438 1.51791 14.3542 2.47974V6.76042H14.3333C12.3438 5.56606 9.76042 4.80505 7.58333 4.80505C5.40625 4.80505 4.54167 5.39695 4.54167 6.32707C4.54167 7.532 6.15625 7.64827 8.98958 8.16618C12.4479 8.77921 15.4688 9.76218 15.4688 13.4404C15.4688 15.8925 13.8542 19 7.73958 19C5.08333 19.0106 2.45833 18.4504 0.0520833 17.3511Z" fill="#00C58B" style="fill:#00C58B;fill:color(display-p3 0.0000 0.7725 0.5451);fill-opacity:1;"/>
<path d="M18.2085 1H22.8439V18.9894H18.2085V1Z" fill="#00C58B" style="fill:#00C58B;fill:color(display-p3 0.0000 0.7725 0.5451);fill-opacity:1;"/>
<path d="M31.8647 5.16442H25.5522L25.7293 1H42.6564L42.8127 5.16442H36.5002V18.9894H31.8647V5.16442Z" fill="#00C58B" style="fill:#00C58B;fill:color(display-p3 0.0000 0.7725 0.5451);fill-opacity:1;"/>
<path d="M45.5415 1H60.6978L60.8748 4.97416H50.1561V7.84909H58.6769V11.633H50.1561V15.0047H61.2082L61.0519 18.9789H45.5415V1Z" fill="#00C58B" style="fill:#00C58B;fill:color(display-p3 0.0000 0.7725 0.5451);fill-opacity:1;"/>
<path d="M70.271 5.16442H63.9585L64.1356 1H81.0627L81.2189 5.16442H74.9064V18.9894H70.271V5.16442Z" fill="#00C58B" style="fill:#00C58B;fill:color(display-p3 0.0000 0.7725 0.5451);fill-opacity:1;"/>
<path d="M83.9585 1H93.8647C98.5002 1 100.75 3.20904 100.75 7.32061C100.75 10.259 99.5106 12.2038 97.1252 13.081L101.479 18.9894H96.146L92.6252 13.9794H88.5939V18.9894H83.9585V1ZM93.4585 10.1321C95.4064 10.1321 96.0939 9.02231 96.0939 7.532C96.0939 6.04169 95.4064 4.98473 93.4585 4.98473H88.5939V10.1321H93.4585Z" fill="#00C58B" style="fill:#00C58B;fill:color(display-p3 0.0000 0.7725 0.5451);fill-opacity:1;"/>
<path d="M113.917 1L123.521 18.9894L113.917 14.5396V1Z" fill="#00C58B" style="fill:#00C58B;fill:color(display-p3 0.0000 0.7725 0.5451);fill-opacity:1;"/>
<path d="M113.917 1L104.312 18.9894L113.917 14.5291V1Z" fill="white" style="fill:white;fill-opacity:1;"/>
<path d="M124.854 10.0687C124.854 5.06926 128.281 0.999967 134.51 0.999967C136.76 0.968259 138.969 1.64471 140.833 2.9342V7.2783H140.812C138.958 6.03109 137.167 4.95299 134.656 4.95299C131.323 4.95299 129.344 7.06691 129.344 10.0475C129.344 12.9647 131.229 15.0469 134.625 15.0469C137.135 15.0469 139 14.138 140.812 12.7745H140.833V17.1609C139.614 18.017 137.271 19 134.229 19C127.823 18.9894 124.854 15.0258 124.854 10.0687Z" fill="#00C58B" style="fill:#00C58B;fill:color(display-p3 0.0000 0.7725 0.5451);fill-opacity:1;"/>
<path d="M164.062 1H179.219L179.396 4.97416H168.677V7.84909H177.198V11.633H168.677V15.0047H179.729L179.573 18.9789H164.062V1Z" fill="#00C58B" style="fill:#00C58B;fill:color(display-p3 0.0000 0.7725 0.5451);fill-opacity:1;"/>
<path d="M182.469 1H192.375C197.01 1 199.271 3.20904 199.271 7.32061C199.271 10.259 198.031 12.2038 195.646 13.081L200.01 18.9894H194.656L191.135 13.9794H187.104V18.9894H182.469V1ZM191.969 10.1321C193.917 10.1321 194.604 9.02231 194.604 7.532C194.604 6.04169 193.917 4.98473 191.969 4.98473H187.104V10.1321H191.969Z" fill="#00C58B" style="fill:#00C58B;fill:color(display-p3 0.0000 0.7725 0.5451);fill-opacity:1;"/>
<path d="M148.198 18.9894H143.562V1H148.198V18.9894Z" fill="#00C58B" style="fill:#00C58B;fill:color(display-p3 0.0000 0.7725 0.5451);fill-opacity:1;"/>
<path d="M148.438 9.89959L155.656 1H160.958V1.02114L153.906 9.63535L161.333 18.9683V18.9894H155.813L148.438 9.89959Z" fill="#00C58B" style="fill:#00C58B;fill:color(display-p3 0.0000 0.7725 0.5451);fill-opacity:1;"/>
</g>
<defs>
<clipPath id="clip0_1_1300">
<rect width="201" height="19.0001" fill="white" style="fill:white;fill-opacity:1;"/>
</clipPath>
</defs>
</svg>
