<svg width="200" height="33" viewBox="0 0 200 33" fill="none" xmlns="http://www.w3.org/2000/svg">
<g clip-path="url(#clip0_1_1317)">
<path d="M17.8761 9.08916C17.8761 7.57369 17.6629 6.26816 17.2775 5.21603C20.014 6.22593 21.8534 8.03641 21.9392 10.6469H17.7903C17.8326 10.1003 17.8761 9.59411 17.8761 9.08916ZM4.87559 27.784C6.84187 28.4573 9.23708 28.7523 11.8884 28.7523C14.5397 28.7523 16.7634 28.3312 18.3896 27.5729C17.5336 29.9734 15.2671 31.7416 11.6329 31.7416C8.38231 31.7416 6.07289 30.3522 4.87621 27.7834M10.9056 1.25781C14.1556 1.25781 16.2934 2.56273 17.2775 5.21603C15.4387 4.54153 13.1721 4.2049 10.7769 4.2049C8.21136 4.2049 6.02999 4.54153 4.36211 5.25765C5.17461 2.98383 7.39824 1.25781 10.9056 1.25781ZM18.7738 25.3425C18.7738 21.511 16.8063 19.8266 13.0005 18.395L7.22729 16.2056C3.50672 14.774 0.812495 13.0474 0.812495 10.0581C0.812495 7.78424 2.09558 6.18492 4.36211 5.25826C4.14888 5.84767 4.0202 6.52156 4.0202 7.19544C4.0202 10.4792 5.81553 11.7431 9.79346 13.2591L15.5667 15.4901C19.4582 17.0062 21.9815 19.1533 21.9815 22.3538C21.9815 24.6698 20.7842 26.4803 18.3896 27.5747C18.6464 26.9014 18.7738 26.1437 18.7738 25.3437M0 21.4681H4.14888C4.06248 22.0998 4.06248 22.7314 4.06248 23.3209C4.06248 25.0897 4.31922 26.563 4.87559 27.784C1.88173 26.7319 0.0428938 24.7525 0 21.4681Z" fill="#00C58B" style="fill:#00C58B;fill:color(display-p3 0.0000 0.7725 0.5451);fill-opacity:1;"/>
<path d="M58.006 25.8474C54.9264 22.8158 53.2156 20.3731 52.7456 17.6372C54.3277 17.8055 55.8676 18.3949 57.6629 20.2476L68.3117 31.1528V31.2378H63.479L58.0054 25.848L58.006 25.8474ZM56.4662 7.23699L61.7689 1.7627H66.3448V1.84716L57.1929 11.6163C55.3535 13.5951 54.071 14.2684 52.6599 14.4795C52.8731 12.0374 53.6433 10.1425 56.4656 7.2376M44.5349 1.7627H48.1697V14.5628H50.9497C51.5912 14.5628 52.147 14.5628 52.6605 14.4783C52.6176 14.9416 52.6176 15.4882 52.6176 16.036C52.6176 16.5838 52.6605 17.0888 52.7463 17.6359C52.147 17.5515 51.5484 17.5515 50.9497 17.5515H48.1697V31.236H44.5349V1.7627Z" fill="#00C58B" style="fill:#00C58B;fill:color(display-p3 0.0000 0.7725 0.5451);fill-opacity:1;"/>
<path d="M137.783 14.4789C138.083 14.5212 138.382 14.5212 138.682 14.5212H152.666V17.5105H138.682C138.382 17.5105 138.083 17.5105 137.783 17.5521V14.4783V14.4789ZM134.063 21.4265C134.063 18.9421 135.175 17.7633 137.784 17.5527V31.2372H134.063V21.4265ZM134.063 10.7313V1.7627H153.436V4.75201H137.784V14.4783C135.175 14.2255 134.063 12.879 134.063 10.7313Z" fill="#00C58B" style="fill:#00C58B;fill:color(display-p3 0.0000 0.7725 0.5451);fill-opacity:1;"/>
<path d="M181.338 1.7627H177.746V31.2372H181.338V1.7627Z" fill="#00C58B" style="fill:#00C58B;fill:color(display-p3 0.0000 0.7725 0.5451);fill-opacity:1;"/>
<mask id="mask0_1_1317" style="mask-type:luminance" maskUnits="userSpaceOnUse" x="0" y="0" width="200" height="33">
<path d="M200 0H0V33H200V0Z" fill="white" style="fill:white;fill-opacity:1;"/>
</mask>
<g mask="url(#mask0_1_1317)">
<path d="M90.7242 1.5448H85.4016L92.1577 14.3773C93.3264 16.5967 95.6526 17.9897 98.192 17.9897L90.7242 1.5448Z" fill="#00C58B" style="fill:#00C58B;fill:color(display-p3 0.0000 0.7725 0.5451);fill-opacity:1;"/>
<path d="M105.626 1.5448H110.948L104.192 14.3773C103.024 16.5967 100.697 17.9897 98.158 17.9897L105.626 1.5448Z" fill="#00C58B" style="fill:#00C58B;fill:color(display-p3 0.0000 0.7725 0.5451);fill-opacity:1;"/>
</g>
<path d="M98.1751 17.9897L104.026 31.2372H92.3235L98.1751 17.9897Z" fill="#00C58B" style="fill:#00C58B;fill:color(display-p3 0.0000 0.7725 0.5451);fill-opacity:1;"/>
<path d="M193.052 4.54819C193.052 6.12732 191.792 7.36736 190.154 7.36736C188.515 7.36736 187.239 6.12732 187.239 4.54819C187.239 2.96907 188.532 1.7627 190.154 1.7627C191.775 1.7627 193.052 3.00274 193.052 4.54819ZM187.963 4.54819C187.963 5.78824 188.895 6.77305 190.171 6.77305C191.447 6.77305 192.328 5.78823 192.328 4.56533C192.328 3.34243 191.413 2.32335 190.154 2.32335C188.895 2.32335 187.964 3.32529 187.964 4.54819H187.963ZM189.705 6.00858H189.05V3.22308C189.308 3.17228 189.671 3.138 190.136 3.138C190.671 3.138 190.913 3.22308 191.12 3.34182C191.275 3.46056 191.396 3.68151 191.396 3.95327C191.396 4.2593 191.154 4.49678 190.81 4.59838V4.63266C191.086 4.73426 191.241 4.93869 191.327 5.31205C191.413 5.73682 191.465 5.90636 191.534 6.00858H190.827C190.741 5.90698 190.689 5.65175 190.603 5.32919C190.551 5.02377 190.379 4.88789 190.016 4.88789H189.706V6.00858H189.705ZM189.722 4.42884H190.032C190.395 4.42884 190.688 4.3101 190.688 4.02121C190.688 3.76659 190.499 3.59644 190.085 3.59644C189.912 3.59644 189.791 3.61357 189.722 3.6301V4.42823V4.42884Z" fill="#00C58B" style="fill:#00C58B;fill:color(display-p3 0.0000 0.7725 0.5451);fill-opacity:1;"/>
</g>
<defs>
<clipPath id="clip0_1_1317">
<rect width="200" height="33" fill="white" style="fill:white;fill-opacity:1;"/>
</clipPath>
</defs>
</svg>
