<svg width="200" height="49" viewBox="0 0 200 49" fill="none" xmlns="http://www.w3.org/2000/svg">
<g clip-path="url(#clip0_1_1333)">
<mask id="mask0_1_1333" style="mask-type:luminance" maskUnits="userSpaceOnUse" x="0" y="0" width="200" height="49">
<path d="M200 0H0V49H200V0Z" fill="white" style="fill:white;fill-opacity:1;"/>
</mask>
<g mask="url(#mask0_1_1333)">
<mask id="mask1_1_1333" style="mask-type:luminance" maskUnits="userSpaceOnUse" x="0" y="0" width="200" height="49">
<path d="M199.816 0H0V48.804H199.816V0Z" fill="white" style="fill:white;fill-opacity:1;"/>
</mask>
<g mask="url(#mask1_1_1333)">
<path d="M42.9939 42.2479C49.329 36.0993 51.5105 27.5813 49.6176 18.9828C49.6111 18.9539 49.5132 18.6618 49.3735 18.2494C45.4882 22.2086 40.8702 25.4322 36.126 28.3037C35.2827 28.814 34.4285 29.3157 33.5675 29.8107C37.4219 31.6743 37.0958 35.9857 33.8669 39.234C29.6399 43.483 16.3501 45.3666 7.22773 37.8718L6.41113 37.3055L6.74176 37.9165C7.36754 38.8102 8.05544 39.6731 8.80323 40.5C18.1009 50.766 33.4078 51.5486 42.9939 42.2479Z" fill="white" style="fill:white;fill-opacity:1;"/>
<path d="M3.83131 27.8391C4.73889 28.2248 5.8351 28.3141 6.8403 28.3163C14.7866 28.3428 22.5843 26.0311 29.8848 22.8766C34.2895 20.9728 38.5499 18.7591 42.7974 16.5164C38.8053 17.8139 32.3658 19.3432 24.517 19.8515C16.4886 20.3709 15.632 13.6963 19.7927 9.51194C24.0199 5.26287 37.3096 3.37911 46.432 10.8741L47.2486 11.4403L46.9181 10.8295C46.2922 9.9355 45.6044 9.07277 44.8565 8.24569C35.5589 -2.02473 20.2498 -2.80721 10.6659 6.4957C4.82101 12.1693 2.51545 19.8604 3.68041 27.7699C3.72924 27.7945 3.78028 27.8167 3.83131 27.8391Z" fill="white" style="fill:white;fill-opacity:1;"/>
<path d="M3.65635 35.0265C5.69561 36.2436 8.18313 36.4286 10.5508 36.3106C17.8536 35.9405 24.7725 33.107 31.2275 29.5536C32.4548 28.878 33.6662 28.1758 34.8602 27.4602C39.8886 24.4439 44.7747 21.0152 48.6956 16.6435C48.7158 16.6213 48.7469 16.5878 48.7845 16.5432C49.0264 16.2712 49.621 15.6047 50.2913 14.849C50.2114 14.8423 50.1313 14.8356 50.0471 14.8356C49.8853 14.8356 49.7142 14.849 49.5346 14.8779C49.306 14.9136 45.8199 15.8677 45.1232 16.0728C44.8213 16.2913 44.5283 16.4942 44.251 16.6747C39.946 19.477 35.4594 22.005 30.806 24.1808C23.4788 27.6072 15.5503 29.9948 7.4664 30.0572C5.41602 30.0728 2.95512 29.6715 2.13631 27.7833C1.52165 26.3678 2.13631 24.7471 2.75098 23.3315C1.5283 23.7707 0.722798 24.9767 0.327814 26.2184C-0.697374 29.4487 0.756084 33.2943 3.65411 35.0287L3.65635 35.0265Z" fill="white" style="fill:white;fill-opacity:1;"/>
<path d="M44.5126 15.3462C44.5126 15.3462 44.5235 15.3573 44.5303 15.3573C44.5303 15.3573 44.5325 15.3573 44.5347 15.3573C44.5347 15.3573 48.5069 14.1691 49.4276 14.0264C49.6472 13.993 49.8559 13.9752 50.0513 13.9752C51.9374 13.9752 52.6764 15.5 53.0578 16.8242C53.0603 16.8331 53.0668 16.8376 53.0758 16.8376C53.0845 16.8376 53.0913 16.8287 53.0935 16.8197C53.0979 16.7885 53.4595 13.6987 54.9396 10.5309C56.6172 6.93945 57.5382 5.92512 57.5625 5.90284C57.5693 5.89613 57.5715 5.88499 57.5625 5.87606C57.5581 5.87163 57.5537 5.86938 57.5469 5.86938C57.5426 5.86938 57.5382 5.86938 57.536 5.87385C57.4671 5.9318 44.5191 15.3216 44.5191 15.3216C44.5104 15.3261 44.508 15.3373 44.5104 15.3462H44.5126Z" fill="white" style="fill:white;fill-opacity:1;"/>
<path d="M63.7155 22.9354H70.0552C71.1182 22.9354 71.7239 22.8507 72.0789 22.621C72.5582 22.3491 72.8089 21.8876 72.8089 21.3214C72.8089 20.6927 72.4961 20.1265 71.9547 19.8545C71.6419 19.665 71.1005 19.5825 70.4103 19.5825H67.8452C66.2386 19.5825 65.1533 19.3105 64.4454 18.7242C63.5691 17.9908 63.0476 16.8382 63.0476 15.5809C63.0476 13.8421 63.9661 12.3127 65.3419 11.7888C66.01 11.5369 66.74 11.4545 68.4509 11.4545H75.3343V13.9491H69.1187C67.825 13.9491 67.3457 13.9914 67.013 14.1586C66.5757 14.4105 66.325 14.872 66.325 15.5006C66.325 16.0446 66.5536 16.5061 66.9509 16.778C67.3258 17.0077 67.7852 17.0924 68.8702 17.0924H71.1026C73.104 17.0924 74.1691 17.3866 74.9814 18.1602C75.6694 18.8089 76.1086 20.0462 76.1086 21.3236C76.1086 22.7704 75.4629 24.0902 74.44 24.8013C73.7299 25.2828 72.8555 25.43 70.7076 25.43H63.7198V22.9354H63.7155Z" fill="white" style="fill:white;fill-opacity:1;"/>
<path d="M83.571 11.452V19.288C83.6555 21.6132 83.6953 21.7603 84.259 22.3266C84.8225 22.8081 85.4906 22.9352 87.3034 22.9352H90.1394V25.4298H86.9906C84.259 25.4721 83.3402 25.2403 82.1509 24.3196C80.9193 23.2094 80.6288 22.224 80.6064 19.2903V11.4542H83.5688L83.571 11.452Z" fill="white" style="fill:white;fill-opacity:1;"/>
<path d="M93.9602 11.452H96.9226V25.4275H93.9602V11.452Z" fill="white" style="fill:white;fill-opacity:1;"/>
<path d="M105.078 25.4275H102.262V11.452H106.036L111.584 21.8651V11.452H114.4V25.4275H110.772L105.078 15.1816V25.4275Z" fill="white" style="fill:white;fill-opacity:1;"/>
<path d="M131.254 17.1301V25.4275H125.038C122.89 25.4275 121.785 25.1556 120.762 24.3374C119.344 23.2272 118.572 21.1941 118.572 18.4922C118.572 15.7903 119.344 13.7772 120.742 12.6469C121.743 11.8511 123.183 11.452 125.164 11.452H131.256V13.9466H125.519C122.87 13.9466 121.827 15.1616 121.827 18.2202C121.827 19.9167 122.202 21.3836 122.786 22.0546C123.349 22.6632 124.226 22.9352 125.622 22.9352H128.291V19.6247H124.412V17.1301H131.254Z" fill="white" style="fill:white;fill-opacity:1;"/>
<path d="M136.637 22.9354H142.977C144.04 22.9354 144.646 22.8507 145.001 22.621C145.48 22.3491 145.731 21.8876 145.731 21.3214C145.731 20.6927 145.418 20.1265 144.877 19.8545C144.564 19.665 144.022 19.5825 143.332 19.5825H140.767C139.16 19.5825 138.077 19.3105 137.367 18.7242C136.491 17.9908 135.969 16.8382 135.969 15.5809C135.969 13.8421 136.888 12.3127 138.264 11.7888C138.932 11.5369 139.662 11.4545 141.371 11.4545H148.254V13.9491H142.038C140.745 13.9491 140.265 13.9914 139.933 14.1586C139.495 14.4105 139.245 14.872 139.245 15.5006C139.245 16.0446 139.473 16.5061 139.871 16.778C140.246 17.0077 140.705 17.0924 141.79 17.0924H144.022C146.024 17.0924 147.089 17.3866 147.901 18.1602C148.589 18.8089 149.028 20.0462 149.028 21.3236C149.028 22.7704 148.383 24.0902 147.36 24.8013C146.65 25.2828 145.775 25.43 143.625 25.43H136.637V22.9354Z" fill="white" style="fill:white;fill-opacity:1;"/>
<path d="M165.38 25.4275H162.418V19.6648H157.056V25.4275H154.094V11.452H157.056V17.1724H162.418V11.452H165.38V25.4275Z" fill="white" style="fill:white;fill-opacity:1;"/>
<path d="M182.67 13.3803C183.589 14.5128 184.111 16.3988 184.111 18.6392C184.111 21.0268 183.38 22.9975 182.067 24.13C181.024 25.0106 179.397 25.5122 177.458 25.5122C174.851 25.5122 172.765 24.674 171.679 23.187C170.825 22.0144 170.386 20.4428 170.386 18.5144C170.386 15.9173 171.074 13.9042 172.367 12.8141C173.453 11.8711 175.203 11.3472 177.247 11.3472C179.646 11.3472 181.627 12.0806 182.67 13.3803ZM174.327 15.0567C173.867 15.7478 173.639 16.8803 173.639 18.4096C173.639 21.6778 174.766 23.167 177.267 23.167C179.768 23.167 180.855 21.68 180.855 18.452C180.855 15.2239 179.75 13.7169 177.267 13.7169C175.953 13.7169 174.911 14.1985 174.327 15.059V15.0567Z" fill="white" style="fill:white;fill-opacity:1;"/>
<path d="M187.823 13.9444V11.4498H199.817V13.9444H195.228V25.4276H192.265V13.9444H187.823Z" fill="white" style="fill:white;fill-opacity:1;"/>
<path d="M66.6002 32.4054H68.5441L72.019 41.0305H70.2438L69.3939 38.8972H65.6882L64.8138 41.0305H63.0498L66.6024 32.4054H66.6002ZM66.0986 37.604H68.9678L67.552 33.9058L66.0986 37.604Z" fill="white" style="fill:white;fill-opacity:1;"/>
<path d="M83.3556 33.6983H80.9104C79.1727 33.6605 78.4272 34.3449 78.3629 36.0637H83.3556V37.3566H78.3629C78.4406 39.0108 79.2259 39.7488 80.9104 39.7354H83.3556V41.0283H80.7305C79.1995 41.0283 78.2719 40.7318 77.6417 40.0207C76.9338 39.2449 76.5986 38.1838 76.5986 36.7749C76.5986 35.1718 77.0624 33.9704 78.0011 33.1544C78.6068 32.6238 79.379 32.4054 80.6395 32.4054H83.3556V33.6983Z" fill="white" style="fill:white;fill-opacity:1;"/>
<path d="M90.525 41.0283H88.9539V32.4032H92.9814C94.1906 32.4032 94.9386 32.5458 95.4135 32.8691C96.0304 33.2838 96.392 33.9928 96.392 34.8086C96.392 35.5332 96.1345 36.1932 95.722 36.6054C95.4266 36.8775 95.1803 37.0201 94.6789 37.174C95.7462 37.5485 96.1724 38.2462 96.25 39.7086C96.3144 40.6273 96.3277 40.7053 96.4697 41.0283H94.7699C94.719 40.8857 94.6923 40.8077 94.6678 40.6538C94.6678 40.5758 94.6413 40.422 94.6302 40.2013L94.5923 39.7866C94.437 38.0924 93.7691 37.5238 91.9405 37.5372H90.525V41.0283ZM93.0214 36.2444C93.6383 36.2444 93.9999 36.1798 94.2173 36.0125C94.5258 35.7919 94.6811 35.4305 94.6811 34.9512C94.6811 34.4207 94.4748 34.0194 94.1021 33.839C93.9089 33.7363 93.6138 33.6961 93.0214 33.6961H90.525V36.2422H93.0214V36.2444Z" fill="white" style="fill:white;fill-opacity:1;"/>
<path d="M109.818 36.7883C109.818 39.6328 108.389 41.1197 105.662 41.1197C104.144 41.1197 102.946 40.6404 102.289 39.7888C101.747 39.1044 101.439 37.9651 101.439 36.7502C101.439 35.3145 101.825 34.113 102.506 33.4265C103.241 32.6884 104.308 32.314 105.673 32.314C108.478 32.314 109.818 33.7629 109.818 36.7883ZM103.152 36.6856C103.152 38.8972 103.911 39.8668 105.635 39.8668C107.359 39.8668 108.107 38.9104 108.107 36.7502C108.107 34.5901 107.362 33.5691 105.675 33.5691C103.989 33.5691 103.152 34.5387 103.152 36.6856Z" fill="white" style="fill:white;fill-opacity:1;"/>
<path d="M115.108 39.7354H118.905C119.562 39.7354 119.908 39.6842 120.154 39.5282C120.489 39.3341 120.669 38.9974 120.669 38.5449C120.669 38.0278 120.438 37.6265 120.025 37.4458C119.795 37.3544 119.473 37.3166 118.867 37.3166H117.76C116.743 37.3166 116.087 37.174 115.649 36.8507C115.084 36.4494 114.762 35.765 114.762 34.9758C114.762 33.9794 115.25 33.1144 116.036 32.7131C116.499 32.4924 117.065 32.4032 118.082 32.4032H121.943V33.6961H118.274C117.618 33.6961 117.272 33.7476 117.001 33.8633C116.679 34.0194 116.473 34.3939 116.473 34.8466C116.473 35.6358 116.95 35.9457 118.197 35.9457H119.111C120.436 35.9457 121.093 36.0883 121.583 36.5006C122.085 36.9153 122.382 37.6777 122.382 38.5183C122.382 39.4745 121.969 40.2637 121.261 40.665C120.798 40.9503 120.27 41.0261 118.996 41.0261H115.108V39.7332V39.7354Z" fill="white" style="fill:white;fill-opacity:1;"/>
<path d="M129.432 41.0283H127.861V32.4032H131.864C133.177 32.4032 133.743 32.5592 134.271 33.0876C134.8 33.6049 135.07 34.3158 135.07 35.1565C135.07 36.0615 134.735 36.8885 134.169 37.3812C133.692 37.7959 133.075 37.9498 131.944 37.9498H129.434V41.0261L129.432 41.0283ZM131.786 36.6591C132.365 36.6591 132.714 36.5676 132.944 36.3492C133.202 36.1283 133.368 35.6514 133.368 35.1206C133.368 34.5901 133.188 34.2022 132.854 33.9326C132.634 33.7653 132.339 33.7007 131.773 33.7007H129.43V36.6613H131.784L131.786 36.6591Z" fill="white" style="fill:white;fill-opacity:1;"/>
<path d="M142.302 32.4054H144.245L147.72 41.0305H145.945L145.095 38.8972H141.39L140.515 41.0305H138.751L142.304 32.4054H142.302ZM141.8 37.604H144.669L143.254 33.9058L141.8 37.604Z" fill="white" style="fill:white;fill-opacity:1;"/>
<path d="M158.867 41.0283H156.062C154.609 41.0283 153.772 40.7964 153.129 40.1879C152.37 39.4767 151.933 38.235 151.933 36.7615C151.933 35.0292 152.55 33.5937 153.555 32.9471C154.121 32.5973 154.984 32.4032 156.051 32.4032H158.869V33.6961H156.193C155.215 33.6961 154.636 33.8902 154.249 34.3427C153.877 34.7952 153.644 35.6736 153.644 36.7081C153.644 37.8206 153.914 38.7122 154.378 39.1781C154.791 39.5794 155.317 39.7332 156.282 39.7332H158.869V41.0261L158.867 41.0283Z" fill="white" style="fill:white;fill-opacity:1;"/>
<path d="M170.603 33.6983H168.157C166.42 33.6605 165.674 34.3449 165.61 36.0637H170.603V37.3566H165.61C165.688 39.0108 166.473 39.7488 168.157 39.7354H170.603V41.0283H167.978C166.447 41.0283 165.519 40.7318 164.889 40.0207C164.181 39.2449 163.846 38.1838 163.846 36.7749C163.846 35.1718 164.31 33.9704 165.248 33.1544C165.854 32.6238 166.626 32.4054 167.887 32.4054H170.603V33.6983Z" fill="white" style="fill:white;fill-opacity:1;"/>
</g>
</g>
</g>
<defs>
<clipPath id="clip0_1_1333">
<rect width="200" height="49" fill="white" style="fill:white;fill-opacity:1;"/>
</clipPath>
</defs>
</svg>
