<svg width="200" height="57" viewBox="0 0 200 57" fill="none" xmlns="http://www.w3.org/2000/svg">
<g clip-path="url(#clip0_1_1364)">
<mask id="mask0_1_1364" style="mask-type:luminance" maskUnits="userSpaceOnUse" x="0" y="0" width="200" height="57">
<path d="M199.816 0H0V56.9578H199.816V0Z" fill="#00C58B" style="fill:#00C58B;fill:color(display-p3 0.0000 0.7725 0.5451);fill-opacity:1;"/>
</mask>
<g mask="url(#mask0_1_1364)">
<path d="M129.168 43.1921C127.757 44.6485 125.627 45.7605 122.665 45.7605C119.703 45.7605 117.618 44.6485 116.208 43.1921C114.155 41.0622 113.637 38.3216 113.637 34.6413C113.637 31.0081 114.155 28.2832 116.208 26.1376C117.618 24.6812 119.719 23.5693 122.665 23.5693C125.611 23.5693 127.757 24.6812 129.168 26.1376C131.221 28.2675 131.739 31.0081 131.739 34.6413C131.723 38.3059 131.221 41.0466 129.168 43.1921ZM125.877 29.0192C125.062 28.2518 123.95 27.8446 122.665 27.8446C121.38 27.8446 120.313 28.2518 119.498 29.0192C118.166 30.272 118.01 32.4175 118.01 34.6413C118.01 36.8652 118.182 39.0106 119.498 40.2635C120.313 41.0309 121.38 41.4851 122.665 41.4851C123.95 41.4851 125.062 41.0466 125.877 40.2635C127.21 39.0106 127.365 36.8652 127.365 34.6413C127.365 32.4332 127.194 30.272 125.877 29.0192Z" fill="#00C58B" style="fill:#00C58B;fill:color(display-p3 0.0000 0.7725 0.5451);fill-opacity:1;"/>
<path d="M78.2819 41.172C82.2625 41.1093 84.2685 39.6999 84.3313 36.9123C84.3626 34.6257 83.0305 33.2633 80.3348 32.7934C79.0968 32.6213 77.749 32.4333 76.2759 32.2297C73.6431 31.7912 71.6371 30.8203 70.2735 29.3169C68.8631 27.7664 68.1579 25.8714 68.1579 23.6477C68.1579 20.9697 69.0512 18.8242 70.822 17.1799C72.546 15.5512 74.9909 14.7367 78.1566 14.7054C81.9647 14.7837 85.2715 15.8487 88.0925 17.8689L85.5067 21.6902C83.2029 20.1867 80.6797 19.388 77.9214 19.341C76.4952 19.341 75.3042 19.7012 74.3483 20.4059C73.361 21.142 72.8438 22.2539 72.8125 23.726C72.8125 24.603 73.1571 25.4017 73.8468 26.122C74.5363 26.8424 75.6333 27.3593 77.1378 27.6254C77.9842 27.7664 79.1281 27.923 80.5856 28.111C83.4536 28.5024 85.5693 29.536 86.9484 31.1962C88.3118 32.8249 88.9857 34.7354 88.9857 36.8966C88.829 42.7537 85.2402 45.7136 78.2349 45.7919C73.7057 45.7919 69.8035 44.398 66.5437 41.5947L69.584 38.1182C72.0132 40.1227 74.9124 41.1406 78.2819 41.172Z" fill="#00C58B" style="fill:#00C58B;fill:color(display-p3 0.0000 0.7725 0.5451);fill-opacity:1;"/>
<path d="M92.4805 23.7732H96.8686V26.0754H96.9469C98.3888 24.3526 100.285 23.4912 102.62 23.4912C104.422 23.4912 106.084 24.1334 107.573 25.4019C109.061 26.6861 109.829 28.5809 109.908 31.0711V45.5572H105.519V32.5901C105.519 31.0711 105.112 29.8965 104.297 29.1135C103.498 28.2991 102.463 27.8919 101.21 27.8919C99.9559 27.8919 98.9216 28.2991 98.1066 29.1135C97.276 29.9122 96.8686 31.0711 96.8686 32.5901V45.5572H92.4805V23.7732Z" fill="#00C58B" style="fill:#00C58B;fill:color(display-p3 0.0000 0.7725 0.5451);fill-opacity:1;"/>
<path d="M135.625 23.7732H140.013V26.0754H140.092C141.534 24.3526 143.43 23.4912 145.764 23.4912C147.52 23.5226 149.041 24.0864 150.34 25.1669L147.159 28.9725C146.235 28.2521 145.28 27.8762 144.276 27.8762C143.164 27.8762 142.192 28.2365 141.408 28.9725C140.515 29.6929 140.044 30.8361 140.029 32.4335V45.5572H135.641V39.5121L135.625 23.7732Z" fill="#00C58B" style="fill:#00C58B;fill:color(display-p3 0.0000 0.7725 0.5451);fill-opacity:1;"/>
<path d="M151.954 14.9557H156.357V33.9991H156.436L164.821 23.7727H170.072L162.549 32.2764L171.089 45.5567H165.588L159.79 35.3773L156.357 39.2767V45.5567H151.954V14.9557Z" fill="#00C58B" style="fill:#00C58B;fill:color(display-p3 0.0000 0.7725 0.5451);fill-opacity:1;"/>
<path d="M195.757 15.2221V35.5182C195.757 41.4224 192.608 41.7042 188.581 41.7042H188.596H181.355C179.82 41.7042 178.598 41.2344 177.657 40.3104C176.654 39.4021 176.152 38.0709 176.152 36.3169H189.74V32.7306C189.709 29.8648 188.815 27.6096 187.075 25.9652C185.351 24.3522 183.251 23.5379 180.759 23.5065C179.726 23.5065 178.675 23.6945 177.61 24.0704C176.529 24.4462 175.557 25.0726 174.695 25.9182C173.833 26.7639 173.144 27.9072 172.595 29.3636C172.046 30.7888 171.78 32.5898 171.78 34.7352C171.78 36.9746 172.093 38.7914 172.721 40.1851C173.3 41.6416 174.037 42.7692 174.961 43.5835C175.431 43.9751 175.949 44.3039 176.498 44.5701C177.014 44.8834 177.547 45.1182 178.096 45.3062C179.192 45.6351 180.306 45.8074 181.45 45.8074H188.596H190.884C197.231 45.8074 199.833 41.3596 199.833 37.1626V12.5598L195.757 15.2221ZM177.516 28.8782C178.362 28.0481 179.428 27.6409 180.744 27.6409C182.06 27.6409 183.142 28.0481 183.973 28.8782C184.835 29.7395 185.29 31.0236 185.335 32.7151H176.152C176.23 31.0236 176.685 29.7552 177.516 28.8782Z" fill="#00C58B" style="fill:#00C58B;fill:color(display-p3 0.0000 0.7725 0.5451);fill-opacity:1;"/>
<path fill-rule="evenodd" clip-rule="evenodd" d="M42.6122 43.6093C41.4633 44.3258 39.7475 45.3967 37.5841 45.325C36.105 45.2756 34.9941 44.789 34.1828 44.0331C33.2548 43.1698 32.7409 41.9688 32.5243 40.6827C32.429 40.1624 32.4547 39.9584 32.7701 39.8283C38.1832 37.8234 41.6327 32.347 41.6831 26.2887C41.7516 18.0393 35.1164 11.2969 26.861 11.2275C18.6054 11.159 11.858 17.7893 11.7885 26.0386C11.7717 28.0491 12.1655 30.294 12.8623 31.727C13.1474 32.2383 12.869 32.3437 12.6144 32.5377C11.5741 33.3316 10.3735 33.8507 9.09647 33.8238C7.99683 33.8003 6.86231 33.373 5.76152 32.3717C4.15237 30.9061 3.64072 28.9304 3.29733 27.6084L3.17496 27.1374C2.28289 28.3933 2.14479 30.211 2.59597 32.0151C2.90791 33.2654 3.5072 34.5056 4.33307 35.5494C5.1488 36.5777 6.18568 37.413 7.38639 37.8717C8.99554 38.4861 10.9334 38.4256 13.0689 37.2493C13.2394 37.1461 13.4503 37.117 13.6523 37.1888C14.0114 37.3166 14.2033 37.718 14.0776 38.0836C13.7724 38.9828 13.2529 39.8204 12.4719 40.5303C11.7795 41.1604 10.8796 41.6863 9.73493 42.0631C7.20798 42.894 4.838 42.3534 3.27146 41.9958C2.94265 41.9207 2.65773 41.8556 2.44787 41.813L2.45573 41.8254C2.90119 42.8378 4.03 43.7281 5.51906 44.3797C7.03171 45.0413 8.89562 45.4494 10.7998 45.4987C12.6973 45.5491 14.6297 45.2453 16.2949 44.4907C17.9972 43.7203 19.4222 42.4667 20.2201 40.6267L20.2314 40.5964C20.3761 40.2343 20.7789 40.0593 21.1347 40.204L21.1357 40.2051L21.138 40.2061V40.2084C21.4837 40.3497 21.6587 40.7478 21.5286 41.1054C20.8305 43.0094 21.0001 44.9291 21.7114 46.6974C22.4005 48.4086 23.5922 49.9838 24.9959 51.2778C26.4065 52.5764 28.028 53.5867 29.5742 54.1697C31.0947 54.7438 32.5164 54.8941 33.5309 54.4724L33.5443 54.4703C33.3648 54.3547 33.1146 54.2011 32.8251 54.024C31.4471 53.183 29.3678 51.9125 28.1087 49.541C27.5397 48.468 27.2458 47.4566 27.1751 46.5157C27.0931 45.4538 27.2907 44.4861 27.6823 43.6206V43.6217C27.7598 43.4467 27.909 43.3054 28.1031 43.2438C28.4678 43.1271 28.855 43.3313 28.9728 43.7001C29.71 46.0606 31.0734 47.4723 32.6601 48.1584C33.8395 48.6675 35.1569 48.7931 36.4473 48.6193C37.7558 48.4455 39.0338 47.969 40.1122 47.285C41.6674 46.2983 42.8109 44.8887 43.0197 43.3548L42.6122 43.6093Z" fill="#00C58B" style="fill:#00C58B;fill:color(display-p3 0.0000 0.7725 0.5451);fill-opacity:1;"/>
<path fill-rule="evenodd" clip-rule="evenodd" d="M30.2083 25.8535C30.2106 25.5607 30.3519 25.2199 30.5338 25.0225L30.5349 25.0203C30.7492 24.7893 31.0353 24.676 31.3238 24.676H31.3428H31.3484H31.3541H31.3754C31.6637 24.6816 31.9442 24.8016 32.1529 25.0349C32.3325 25.2356 32.4683 25.5697 32.466 25.8725C32.4503 27.7776 33.0473 28.8383 34.0134 29.8385C34.9785 30.8365 36.3195 31.4622 37.8063 31.4745C39.2953 31.4867 40.6453 30.8836 41.6283 29.9013C42.609 28.9179 43.224 27.5499 43.2363 26.035C43.2486 24.519 42.6595 23.1432 41.6945 22.1442C40.7272 21.1406 39.3851 20.5149 37.8983 20.5026L24.8659 20.3937C23.3824 20.3815 22.028 20.9847 21.0473 21.9692L21.0439 21.9715C20.0632 22.9537 19.4516 24.3195 19.4392 25.8355C19.4269 27.3503 20.0171 28.7273 20.981 29.7275C21.9461 30.7255 23.2893 31.3512 24.7761 31.3635C26.2629 31.3757 27.6151 30.7726 28.5981 29.7903C29.5777 28.8092 30.1927 27.7585 30.2083 25.8535Z" fill="black" style="fill:black;fill-opacity:1;"/>
<path fill-rule="evenodd" clip-rule="evenodd" d="M32.3014 30.7435C33.6907 30.7546 34.8072 31.7628 34.797 32.9928C34.7869 34.2239 33.6536 35.2118 32.2644 35.2006C30.8762 35.1894 29.7587 34.1814 29.7699 32.9514C29.78 31.7212 30.9134 30.7322 32.3014 30.7435Z" fill="black" style="fill:black;fill-opacity:1;"/>
<path d="M45.2971 28.4835C45.2971 29.4815 45.0962 30.4391 44.7417 31.3148C44.3703 32.2242 43.8249 33.0417 43.1561 33.7245L42.6343 34.1977C42.081 34.6652 41.4572 35.0498 40.7861 35.3335C40.1993 35.5847 39.4586 35.846 38.9032 35.8415L36.6667 35.8224C36.7329 35.7742 36.7981 35.7215 36.8586 35.6644C36.9215 35.6105 36.9821 35.5544 37.036 35.4984C37.0932 35.4424 37.1448 35.3851 37.1941 35.3291C37.2457 35.273 37.2952 35.2135 37.3378 35.1541V35.1508C37.3804 35.097 37.4209 35.0465 37.4535 34.9927C37.468 34.9758 37.4792 34.9591 37.4882 34.9422C37.5229 34.894 37.5544 34.8435 37.5803 34.7954C37.6846 34.6282 37.7654 34.459 37.8349 34.2908C37.8697 34.209 37.9022 34.1237 37.9281 34.0407C37.9628 33.941 37.992 33.8445 38.0156 33.7514C38.0739 33.5181 38.1098 33.3028 38.1322 33.1157C39.4845 33.1178 41.3461 32.73 43.0427 31.0267C43.7003 30.364 44.7898 28.9712 44.9312 26.4035C45.2163 21.3005 40.8456 19.4078 40.8007 19.3875L40.8051 3.94171C40.8063 3.17371 41.1374 2.74201 41.6682 2.49301C42.071 2.30573 42.5468 2.2733 43.0529 2.27444C43.5657 2.2733 44.037 2.30573 44.4432 2.49416C44.9728 2.74316 45.3061 3.17587 45.3049 3.9463L45.2971 28.4835Z" fill="#00C58B" style="fill:#00C58B;fill:color(display-p3 0.0000 0.7725 0.5451);fill-opacity:1;"/>
<path fill-rule="evenodd" clip-rule="evenodd" d="M20.069 30.6764L20.0657 30.6752C18.8458 29.4272 18.1008 27.7128 18.1164 25.829C18.1322 23.9464 18.9064 22.2431 20.1465 21.0152L20.1497 21.012C20.2587 20.9054 20.3686 20.8022 20.4853 20.7024C19.6774 20.9648 18.9536 21.4134 18.3645 21.9964C17.3803 22.9685 16.7678 24.3198 16.7553 25.8167C16.743 27.3125 17.3343 28.6738 18.2983 29.6605C18.8773 30.2525 19.5909 30.7111 20.3922 30.987C20.2811 30.8861 20.1722 30.783 20.069 30.6764Z" fill="black" style="fill:black;fill-opacity:1;"/>
</g>
</g>
<defs>
<clipPath id="clip0_1_1364">
<rect width="199.939" height="56.9578" fill="white" style="fill:white;fill-opacity:1;"/>
</clipPath>
</defs>
</svg>
