<svg width="200" height="32" viewBox="0 0 200 32" fill="none" xmlns="http://www.w3.org/2000/svg">
<g clip-path="url(#clip0_1_1384)">
<mask id="mask0_1_1384" style="mask-type:luminance" maskUnits="userSpaceOnUse" x="0" y="0" width="201" height="32">
<path d="M200.007 0.923218H0V31.0768H200.007V0.923218Z" fill="white" style="fill:white;fill-opacity:1;"/>
</mask>
<g mask="url(#mask0_1_1384)">
<path d="M52.7795 1.8587C52.4315 1.84509 52.0846 1.90507 51.7598 2.03499C51.4351 2.1649 51.1393 2.36203 50.8905 2.61434C50.6582 2.86401 50.477 3.1597 50.3577 3.48369C50.2383 3.80768 50.1833 4.1533 50.196 4.49984C50.1821 4.84652 50.2365 5.19249 50.356 5.51666C50.4753 5.84083 50.6572 6.1364 50.8905 6.38534C51.4042 6.87901 52.0788 7.15332 52.7795 7.15332C53.48 7.15332 54.1547 6.87901 54.6683 6.38534C54.9043 6.12358 55.0873 5.81553 55.2065 5.47935C55.3258 5.14317 55.379 4.78567 55.3629 4.42788C55.3757 4.08995 55.3206 3.75295 55.201 3.43827C55.0814 3.1236 54.9 2.83811 54.6683 2.59994C54.4163 2.35326 54.1196 2.16074 53.7954 2.03352C53.4712 1.9063 53.1259 1.84688 52.7795 1.8587Z" fill="#00C58B" fill-opacity="0.772549" style="fill:#00C58B;fill:color(display-p3 0.0000 0.7725 0.5451);fill-opacity:0.772549;"/>
<path d="M54.8907 9.42957H50.6753V25.7873H54.8907V9.42957Z" fill="#00C58B" fill-opacity="0.772549" style="fill:#00C58B;fill:color(display-p3 0.0000 0.7725 0.5451);fill-opacity:0.772549;"/>
<path d="M65.0166 20.5555L60.9887 9.42957H56.6414L62.7457 25.7873H67.0932L73.2252 9.42957H69.1765L65.0166 20.5555Z" fill="#00C58B" fill-opacity="0.772549" style="fill:#00C58B;fill:color(display-p3 0.0000 0.7725 0.5451);fill-opacity:0.772549;"/>
<path d="M110.616 9.18483C109.579 9.17919 108.557 9.42567 107.629 9.90445C106.731 10.361 105.956 11.0409 105.373 11.8836C104.896 11.0406 104.204 10.3508 103.373 9.89005C102.515 9.4284 101.56 9.19355 100.594 9.20642C99.7056 9.19495 98.8245 9.38146 98.0113 9.75339C97.2377 10.1111 96.5566 10.6537 96.0245 11.3366V9.42953H92.0039V25.7873H96.2122V17.576C96.1339 16.4342 96.4405 15.2996 97.0801 14.3664C97.3603 14.0129 97.715 13.7315 98.1179 13.5442C98.5207 13.3569 98.9594 13.2688 99.3999 13.2868C101.252 13.2868 102.178 14.575 102.178 17.1514V25.7873H106.393V17.576C106.313 16.4351 106.617 15.3005 107.255 14.3664C107.54 14.0105 107.901 13.7279 108.309 13.5406C108.718 13.3534 109.162 13.2665 109.608 13.2868C109.997 13.2655 110.385 13.3413 110.739 13.5079C111.093 13.6745 111.404 13.927 111.643 14.244C112.168 15.1011 112.411 16.1107 112.338 17.1226V25.7585H116.554V16.403C116.554 14.0041 116.019 12.1954 114.949 10.9767C114.392 10.3738 113.718 9.90172 112.971 9.59263C112.223 9.28343 111.42 9.14437 110.616 9.18483Z" fill="#00C58B" fill-opacity="0.772549" style="fill:#00C58B;fill:color(display-p3 0.0000 0.7725 0.5451);fill-opacity:0.772549;"/>
<path d="M167.916 10.2356C166.807 9.5346 165.528 9.17053 164.228 9.18486C163.357 9.13506 162.485 9.30552 161.691 9.68161C160.896 10.0576 160.201 10.6281 159.666 11.3438V9.42956H155.638V31.0768L159.854 29.9037V24.0529C160.388 24.7072 161.06 25.2252 161.82 25.5672C162.578 25.9091 163.403 26.0657 164.228 26.0248C165.528 26.0413 166.806 25.6797 167.916 24.9813C169.035 24.269 169.94 23.2471 170.527 22.0307C171.179 20.6548 171.503 19.1371 171.472 17.6048C171.506 16.0653 171.181 14.5401 170.527 13.1574C169.936 11.951 169.032 10.9392 167.916 10.2356ZM166.166 20.9008C165.831 21.2897 165.421 21.6008 164.962 21.8138C164.503 22.0268 164.006 22.137 163.503 22.137C163 22.137 162.503 22.0268 162.044 21.8138C161.585 21.6008 161.174 21.2897 160.84 20.9008C160.109 19.9744 159.738 18.7994 159.798 17.6048C159.739 16.4103 160.11 15.2356 160.84 14.3088C161.175 13.922 161.587 13.6127 162.045 13.401C162.504 13.1893 163.001 13.0798 163.503 13.0798C164.006 13.0798 164.502 13.1893 164.96 13.401C165.42 13.6127 165.83 13.922 166.166 14.3088C166.891 15.2382 167.259 16.4117 167.201 17.6048C167.26 18.7981 166.891 19.9721 166.166 20.9008Z" fill="#00C58B" fill-opacity="0.772549" style="fill:#00C58B;fill:color(display-p3 0.0000 0.7725 0.5451);fill-opacity:0.772549;"/>
<path d="M197.048 9.78945C196.219 10.1791 195.511 10.8025 195.007 11.5886V9.42963H190.979V25.7874H195.194V18.0583C195.104 16.826 195.469 15.6039 196.215 14.64C196.584 14.2533 197.028 13.952 197.518 13.756C198.008 13.5601 198.531 13.4738 199.056 13.5029C199.215 13.5029 199.527 13.5029 200 13.5605V9.18496C198.986 9.16468 197.979 9.37086 197.048 9.78945Z" fill="#00C58B" fill-opacity="0.772549" style="fill:#00C58B;fill:color(display-p3 0.0000 0.7725 0.5451);fill-opacity:0.772549;"/>
<path d="M149.311 10.2357C148.201 9.53469 146.924 9.17064 145.624 9.18497C144.75 9.13521 143.878 9.30565 143.082 9.6817C142.286 10.0577 141.59 10.6281 141.054 11.3439V9.42965H137.033V31.0769L141.248 29.9038V24.0531C141.782 24.7085 142.454 25.2276 143.213 25.5696C143.972 25.9116 144.797 26.0674 145.624 26.0249C146.923 26.0414 148.2 25.6799 149.311 24.9814C150.425 24.2665 151.327 23.2452 151.915 22.0308C152.57 20.656 152.894 19.1376 152.859 17.6049C152.888 16.0628 152.554 14.5366 151.888 13.1575C151.304 11.9568 150.412 10.9459 149.311 10.2357ZM147.554 20.901C147.219 21.2898 146.808 21.6009 146.35 21.8139C145.89 22.027 145.393 22.1371 144.891 22.1371C144.388 22.1371 143.891 22.027 143.431 21.8139C142.973 21.6009 142.562 21.2898 142.227 20.901C141.502 19.9721 141.133 18.7983 141.192 17.6049C141.135 16.4118 141.503 15.2383 142.227 14.3089C142.563 13.9221 142.974 13.6128 143.433 13.401C143.891 13.1894 144.389 13.08 144.891 13.08C145.393 13.08 145.89 13.1894 146.348 13.401C146.807 13.6128 147.218 13.9221 147.554 14.3089C148.281 15.2367 148.65 16.4113 148.589 17.6049C148.643 18.8025 148.264 19.978 147.526 20.901H147.554Z" fill="#00C58B" fill-opacity="0.772549" style="fill:#00C58B;fill:color(display-p3 0.0000 0.7725 0.5451);fill-opacity:0.772549;"/>
<path d="M45.7182 10.9985C45.1562 10.3916 44.4761 9.91549 43.7231 9.60161C42.9699 9.28773 42.1611 9.14324 41.35 9.17774C40.4631 9.16746 39.5828 9.33865 38.7598 9.68151C37.9892 9.99963 37.2965 10.4913 36.7318 11.1208V3.20459L32.5234 4.39203V25.7874H36.7318V17.6985C36.6499 16.5151 36.9855 15.3413 37.6764 14.3952C37.9954 14.0283 38.3885 13.7387 38.8279 13.5472C39.2672 13.3557 39.7418 13.2668 40.2181 13.287C40.6293 13.2605 41.0408 13.3333 41.4203 13.4993C41.7999 13.6653 42.1372 13.9203 42.4057 14.2441C42.9652 15.0872 43.232 16.102 43.1627 17.1227V25.7586H47.3781V16.4031C47.3781 14.0234 46.8249 12.2218 45.7182 10.9985Z" fill="#00C58B" fill-opacity="0.772549" style="fill:#00C58B;fill:color(display-p3 0.0000 0.7725 0.5451);fill-opacity:0.772549;"/>
<path d="M188.428 18.9145H177.435C177.592 19.8713 178.088 20.7332 178.825 21.3325C179.625 21.948 180.606 22.2604 181.602 22.2177C182.291 22.2334 182.976 22.1036 183.616 21.8363C184.237 21.5584 184.793 21.1463 185.248 20.6272L187.505 23.3692C186.116 25.1395 184.118 26.0247 181.512 26.0247C179.996 26.0574 178.499 25.6831 177.164 24.938C175.931 24.2467 174.917 23.2025 174.241 21.9298C173.546 20.5853 173.194 19.0792 173.22 17.5544C173.196 16.0375 173.545 14.5394 174.234 13.2004C174.872 11.9437 175.833 10.895 177.011 10.1707C178.211 9.4419 179.58 9.06614 180.97 9.08398C182.325 9.06768 183.658 9.42807 184.831 10.1275C185.978 10.8363 186.906 11.87 187.505 13.1068C188.187 14.5041 188.525 16.054 188.491 17.6191C188.512 17.6766 188.484 18.1084 188.428 18.9145ZM178.575 13.6251C177.897 14.2849 177.475 15.1777 177.387 16.1366H184.54C184.442 15.1772 184.016 14.2859 183.339 13.6251C182.693 13.0064 181.841 12.6732 180.963 12.6967C180.083 12.6716 179.227 12.999 178.575 13.6107V13.6251Z" fill="#00C58B" fill-opacity="0.772549" style="fill:#00C58B;fill:color(display-p3 0.0000 0.7725 0.5451);fill-opacity:0.772549;"/>
<path d="M89.107 18.9866H78.1136C78.2707 19.9434 78.7659 20.8053 79.5025 21.4046C80.3036 22.0201 81.284 22.3325 82.2804 22.2898C82.9695 22.3019 83.654 22.1723 84.2944 21.9083C84.9126 21.6255 85.4681 21.214 85.9264 20.6993L88.1973 23.4485C86.8084 25.2235 84.799 26.1112 82.1693 26.1112C80.6539 26.1439 79.1562 25.7696 77.822 25.0245C76.5895 24.3351 75.5763 23.2902 74.9052 22.0163C74.2052 20.6737 73.8512 19.1666 73.8773 17.6408C73.8523 16.1238 74.2013 14.6251 74.8913 13.2869C75.5273 12.0289 76.4893 10.9797 77.6691 10.2571C78.8586 9.55333 80.203 9.17902 81.5726 9.1702C82.9423 9.16138 84.2911 9.51841 85.4888 10.2068C86.6475 10.915 87.587 11.9511 88.1973 13.1933C88.8779 14.5883 89.2166 16.1355 89.1835 17.6984C89.1903 17.7631 89.1626 18.1949 89.107 18.9866ZM79.2525 13.6971C78.5769 14.3552 78.155 15.2452 78.065 16.2015H85.218C85.1218 15.2512 84.7005 14.3679 84.0305 13.7114C83.3867 13.0909 82.5345 12.7553 81.6554 12.7759C80.7696 12.7492 79.9083 13.0794 79.2525 13.6971Z" fill="#00C58B" fill-opacity="0.772549" style="fill:#00C58B;fill:color(display-p3 0.0000 0.7725 0.5451);fill-opacity:0.772549;"/>
<path d="M131.387 10.9983C132.586 12.2074 133.188 14.0282 133.193 16.4605V25.8161H129.248V23.7507C128.457 25.2691 126.984 26.0248 124.817 26.0248C123.815 26.051 122.821 25.8341 121.914 25.3914C121.139 25.0032 120.488 24.391 120.04 23.6283C119.604 22.8536 119.38 21.9702 119.393 21.0735C119.362 20.3929 119.483 19.7139 119.746 19.0896C120.01 18.4654 120.41 17.9129 120.914 17.4753C121.933 16.6021 123.505 16.1679 125.629 16.1727H128.984C129.01 15.7359 128.95 15.298 128.806 14.8868C128.66 14.4756 128.436 14.0999 128.143 13.7834C127.444 13.173 126.541 12.873 125.629 12.9486C124.851 12.9498 124.078 13.0885 123.345 13.3588C122.649 13.6018 122.004 13.9777 121.443 14.4671L119.935 11.1567C120.791 10.4999 121.756 10.012 122.782 9.71738C123.891 9.37132 125.042 9.19673 126.199 9.19921C128.449 9.18962 130.178 9.78938 131.387 10.9983ZM127.782 22.2754C128.357 21.8835 128.779 21.2951 128.977 20.613V18.9146H126.081C124.349 18.9146 123.486 19.5527 123.491 20.8288C123.48 21.1033 123.532 21.3764 123.642 21.6264C123.751 21.8763 123.916 22.0962 124.123 22.2682C124.627 22.6479 125.243 22.836 125.866 22.8007C126.541 22.8223 127.207 22.6398 127.782 22.2754Z" fill="#00C58B" fill-opacity="0.772549" style="fill:#00C58B;fill:color(display-p3 0.0000 0.7725 0.5451);fill-opacity:0.772549;"/>
<path d="M9.79208 25.7657H17.0355L6.16699 19.2672L9.79208 25.7657Z" fill="#00C58B" style="fill:#00C58B;fill:color(display-p3 0.0000 0.7725 0.5451);fill-opacity:1;"/>
<path d="M24.2508 9.45116L22.3896 6.10471H26.5148C26.2655 5.65575 25.9062 5.28292 25.4734 5.02388C25.0405 4.76484 24.5493 4.62878 24.0494 4.62942H21.5702L20.3341 2.39848C20.0798 1.9567 19.7186 1.59147 19.2861 1.339C18.8537 1.08653 18.365 0.955592 17.8687 0.959178L19.9521 4.6726H16.195L14.8963 6.96111C12.2037 6.48764 9.43575 6.87925 6.9641 8.08335C4.49248 9.28744 2.43554 11.2464 1.06948 13.6971C0.639691 14.4761 0.281617 15.2953 0 16.144H7.98639L18.7507 22.6209L22.7369 29.8174C23.3035 29.15 23.8058 28.4269 24.237 27.6584C25.6015 25.2072 26.2098 22.3822 25.9802 19.5623C25.7506 16.7425 24.6939 14.063 22.9522 11.8835L24.2508 9.45116ZM18.8479 19.1017L15.8061 17.281L13.8893 16.1296L10.8128 14.2872L12.5005 11.2719L20.5493 16.0864L18.8479 19.1017Z" fill="#00C58B" style="fill:#00C58B;fill:color(display-p3 0.0000 0.7725 0.5451);fill-opacity:1;"/>
</g>
</g>
<defs>
<clipPath id="clip0_1_1384">
<rect width="200.007" height="32" fill="white" style="fill:white;fill-opacity:1;"/>
</clipPath>
</defs>
</svg>
