<svg width="200" height="48" viewBox="0 0 200 48" fill="none" xmlns="http://www.w3.org/2000/svg">
<g clip-path="url(#clip0_1_1402)">
<path d="M18.0877 16.7999L12.1116 16.1599C6.69323 15.7599 6.3745 15.3599 6.3745 11.6799C6.3745 7.27995 6.77291 6.87995 14.9801 6.87995C19.761 6.87995 22.2311 7.11995 24.1434 7.51995L24.6215 7.19995V5.91995C24.6215 3.27995 23.6653 2.39995 13.7052 2.39995C2.39044 2.31995 0 3.67995 0 12.2399C0 19.5999 1.2749 21.4399 8.28685 22.1599L14.4223 22.7999C19.6016 23.1999 20.1594 23.5999 20.1594 27.2799C20.1594 31.9199 19.761 32.5599 12.0319 32.5599C6.29482 32.5599 2.47012 32.2399 0.318725 31.5999L0 31.8399V33.5199C0 36.6399 1.11554 37.5999 12.1116 37.5999C24.7809 37.5999 26.7729 35.5999 26.7729 27.1999C26.7729 18.7999 25.1793 17.5199 18.0877 16.7999Z" fill="white" style="fill:white;fill-opacity:1;"/>
<path d="M45.0996 12.08C40.8765 12.08 39.1236 13.12 37.8487 15.04C37.5299 12.96 36.7331 12.4 35.0598 12.4H32.271L31.8726 12.96V48L38.0877 47.04V34.96C39.2032 36.96 41.1953 37.28 45.6574 37.28C52.51 37.28 54.1833 35.6 54.1833 24.56C53.9443 13.76 52.7491 12.08 45.0996 12.08ZM42.7092 32.64C38.5658 32.64 37.769 31.84 37.769 28.96V20.88C37.769 17.6 39.0439 17.04 42.6295 17.04C47.251 17.04 47.5698 17.76 47.5698 24.96C47.5698 31.84 47.0917 32.64 42.7092 32.64Z" fill="white" style="fill:white;fill-opacity:1;"/>
<path d="M69.7212 32.16H69.0041C68.0479 32.16 67.9682 32.08 67.7292 31.04L63.1874 12.32H56.4941L62.1515 32.24C63.4264 36.88 64.1435 37.2 68.4463 37.36L67.8089 40.08C67.0121 43.04 66.6933 43.2 63.7451 43.2C62.7093 43.2 61.5937 43.2 60.7172 42.96L60.3188 43.28V44.64C60.3188 47.04 61.275 47.76 65.2591 47.76C70.9961 47.76 71.5539 46.72 73.2272 40.8L81.036 12.24H74.7412L69.7212 32.16Z" fill="white" style="fill:white;fill-opacity:1;"/>
<path d="M101.355 2.23999C88.6056 2.23999 87.012 3.91999 87.012 19.84C87.012 35.76 88.6853 37.44 101.116 37.44C110.04 37.44 111.474 36.64 111.474 34.8V33.68L111.155 33.44C109.482 33.84 106.693 34.16 102.151 34.16C91.8725 34.16 90.996 33.44 90.996 19.92C90.996 6.39999 91.7928 5.67999 102.151 5.67999C106.773 5.67999 109.801 5.99999 111.155 6.31999L111.474 6.07999V5.11999C111.633 3.03999 110.279 2.23999 101.355 2.23999Z" fill="white" style="fill:white;fill-opacity:1;"/>
<path d="M118.167 37.12H121.912V0L118.167 0.64V37.12Z" fill="white" style="fill:white;fill-opacity:1;"/>
<path d="M138.327 12.08C129.323 12.08 128.048 14 128.048 24.8C128.048 35.6 129.323 37.52 138.327 37.52C147.331 37.52 148.606 35.6 148.606 24.8C148.606 14 147.57 12.08 138.327 12.08ZM138.327 34.24C132.59 34.24 131.873 33.44 131.873 24.64C131.873 15.84 132.669 15.04 138.327 15.04C144.064 15.04 144.781 15.84 144.781 24.64C144.861 33.6 143.984 34.24 138.327 34.24Z" fill="white" style="fill:white;fill-opacity:1;"/>
<path d="M169.96 29.9999C169.96 33.6799 167.331 34.2399 163.506 34.2399C159.044 34.2399 158.247 33.5999 158.247 28.6399V12.3999H154.422V28.8799C154.422 36.2399 156.016 37.3599 162.39 37.3599C167.171 37.3599 168.685 36.6399 170.199 34.5599C170.438 36.6399 170.916 36.9599 172.112 36.9599H173.705L173.944 36.6399V12.3199H169.881V29.9199V29.9999H169.96Z" fill="white" style="fill:white;fill-opacity:1;"/>
<path d="M196.096 0.64V14.56C194.98 12.56 192.988 12.24 188.526 12.24C180.877 12.24 179.522 14.16 179.522 24.96C179.522 35.84 180.797 37.68 188.367 37.68C193.307 37.68 194.821 36.72 196.175 34.88C196.414 36.96 196.892 37.28 198.088 37.28H199.681L200 36.96V0L196.096 0.64ZM196.096 29.92C196.096 33.6 193.705 34.32 189.801 34.32C184.064 34.32 183.506 33.52 183.506 24.72C183.506 15.84 184.223 15.12 189.721 15.12C194.98 15.12 196.016 16.24 196.016 19.28L196.096 29.92Z" fill="#727272" style="fill:#727272;fill:color(display-p3 0.4479 0.4479 0.4479);fill-opacity:1;"/>
</g>
<defs>
<clipPath id="clip0_1_1402">
<rect width="200" height="48" fill="white" style="fill:white;fill-opacity:1;"/>
</clipPath>
</defs>
</svg>
