<svg width="200" height="40" viewBox="0 0 200 40" fill="none" xmlns="http://www.w3.org/2000/svg">
<g clip-path="url(#clip0_1_1412)">
<path d="M45.8844 24.7555L43.5776 24.5506C41.767 24.4045 41.0664 23.6719 41.0664 22.4413C41.0664 20.9768 42.176 20.068 44.2786 20.068C45.768 20.068 47.0818 20.42 48.1049 21.211L49.4776 19.8339C48.1914 18.7793 46.3525 18.2816 44.3088 18.2816C41.2426 18.2816 39.0229 19.8622 39.0229 22.5C39.0229 24.8729 40.5127 26.1326 43.3159 26.3671L45.6811 26.5719C47.3455 26.7187 48.0757 27.4216 48.0757 28.6813C48.0757 30.3806 46.6156 31.2297 44.2493 31.2297C42.4676 31.2297 40.92 30.761 39.7799 29.5597L38.3779 30.9661C39.9551 32.4893 41.8532 33.0461 44.277 33.0461C47.7519 33.0461 50.1175 31.4332 50.1175 28.6519C50.1175 25.9558 48.3943 24.9897 45.8828 24.7548L45.8844 24.7555ZM63.8628 18.281C61.5577 18.281 60.1056 18.7368 58.8332 20.3529C58.8159 20.3751 60.2127 21.7374 60.2127 21.7374C61.0593 20.5364 61.9937 20.0974 63.8332 20.0974C66.4615 20.0974 67.513 21.1519 67.513 23.261V24.6377H63.1921C59.9799 24.6377 58.2281 26.2787 58.2281 28.799C58.1943 29.8794 58.5819 30.9305 59.3085 31.7287C60.2139 32.6664 61.3818 33.0471 63.3673 33.0471C65.2946 33.0471 66.3461 32.6664 67.5152 31.4942V32.871H69.6178V23.0855C69.6178 19.951 67.7207 18.2816 63.8651 18.2816L63.8628 18.281ZM67.5143 27.7742C67.5143 28.9758 67.2805 29.7961 66.784 30.2645C65.8789 31.1435 64.7985 31.2322 63.5721 31.2322C61.2943 31.2322 60.2718 30.441 60.2718 28.771C60.2718 27.101 61.3233 26.2226 63.4847 26.2226H67.5143V27.7742ZM77.8516 20.1577C79.2239 20.1577 80.0702 20.5677 81.1512 21.7687C81.1512 21.7687 82.5589 20.3961 82.5474 20.3839C81.0731 18.8016 79.8217 18.2829 77.8528 18.2829C74.2316 18.2829 71.4863 20.7435 71.4863 25.6651C71.4863 30.5868 74.231 33.048 77.8528 33.048C79.8384 33.048 81.094 32.5203 82.5834 30.9093L81.1525 29.5322C80.0721 30.7335 79.2252 31.1729 77.8528 31.1729C76.5381 31.2256 75.2858 30.6084 74.5239 29.5322C73.8522 28.5948 73.5895 27.4816 73.5895 25.6651C73.5895 23.8487 73.8522 22.7355 74.5239 21.798C75.2857 20.7217 76.5381 20.1046 77.8528 20.1577H77.8516ZM95.8593 18.4371H93.2381L86.7236 24.7984L86.7336 12.0116H84.6303V32.871H86.7332L86.7233 27.61L89.2734 25.0426L94.0927 32.871H96.6914L90.73 23.5806L95.8593 18.4371ZM105.574 18.0822C103.42 18.0822 101.964 18.9245 101.068 19.879C99.7528 21.2548 99.4172 22.9113 99.4172 25.5506C99.4172 28.2177 99.7528 29.8732 101.068 31.2503C101.964 32.2048 103.419 33.0474 105.574 33.0474C107.729 33.0474 109.213 32.2048 110.108 31.2503C111.423 29.8745 111.759 28.218 111.759 25.5506C111.759 22.9116 111.423 21.2548 110.108 19.879C109.213 18.9245 107.728 18.0822 105.574 18.0822ZM107.281 29.1164C106.825 29.5584 106.208 29.7919 105.574 29.7616C104.949 29.7919 104.34 29.5579 103.895 29.1164C103.139 28.3584 103.055 27.0671 103.055 25.5506C103.055 24.0342 103.139 22.7713 103.895 22.0132C104.34 21.5717 104.949 21.3376 105.574 21.368C106.208 21.3376 106.825 21.5711 107.281 22.0132C108.037 22.7713 108.121 24.0345 108.121 25.5506C108.121 27.0668 108.037 28.3571 107.281 29.1164ZM121.447 18.25L118.509 27.2903L115.542 18.2493H111.708L117.081 32.8774H119.936L125.281 18.2493L121.447 18.25ZM131.471 18.0816C127.693 18.0816 125.118 20.7768 125.118 25.55C125.118 31.4745 128.42 33.0468 131.862 33.0468C134.493 33.0468 135.921 32.2322 137.404 30.7439L135.193 28.5826C134.27 29.5093 133.486 29.9584 131.89 29.9584C129.847 29.9584 128.7 28.5826 128.7 26.7003H137.824V25.0729C137.824 21.0577 135.529 18.0816 131.471 18.0816ZM128.7 24.2022C128.705 23.6608 128.82 23.126 129.036 22.63C129.495 21.7015 130.438 21.1141 131.471 21.1141C132.504 21.1141 133.447 21.7015 133.906 22.63C134.122 23.1262 134.236 23.6609 134.242 24.2022H128.7ZM143.19 19.6539V18.25H139.636V32.878H143.274V24.0622C143.274 22.209 144.506 21.3664 145.625 21.3664C146.363 21.3409 147.071 21.6582 147.545 22.2264L150.299 19.4574C149.291 18.4464 148.284 18.0816 146.857 18.0816C145.469 18.0651 144.138 18.6358 143.191 19.6539H143.19ZM151.428 16.7251V32.8632H155.066V21.3297H157.753V18.5503H155.066V16.95C155.066 16.1077 155.486 15.6303 156.352 15.6303H157.752V12.5422H155.681C152.714 12.5422 151.427 14.6477 151.427 16.7251H151.428ZM172.73 18.08C170.576 18.08 169.12 18.9222 168.225 19.8768C166.909 21.2526 166.573 22.909 166.573 25.5484C166.573 28.2155 166.909 29.871 168.225 31.2481C169.12 32.2026 170.575 33.0451 172.73 33.0451C174.885 33.0451 176.369 32.2026 177.264 31.2481C178.579 29.8722 178.915 28.2158 178.915 25.5484C178.915 22.9093 178.579 21.2526 177.264 19.8768C176.369 18.9222 174.885 18.08 172.73 18.08ZM174.438 29.1142C173.982 29.5562 173.364 29.7896 172.73 29.7593C172.105 29.7897 171.496 29.5556 171.051 29.1142C170.296 28.3561 170.212 27.0648 170.212 25.5484C170.212 24.0319 170.296 22.769 171.051 22.011C171.496 21.5694 172.105 21.3353 172.73 21.3658C173.364 21.3353 173.982 21.5688 174.438 22.011C175.193 22.769 175.277 24.0322 175.277 25.5484C175.277 27.0645 175.193 28.3548 174.438 29.1142ZM196.104 18.2484L193.753 27.2903L190.759 18.25H188.101L185.134 27.2903L182.783 18.2493H178.921L183.399 32.8774H186.393L189.444 23.6968L192.494 32.8774H195.489L199.939 18.2493L196.104 18.2484ZM163.119 28.47V12.5422H159.482V28.6945C159.482 30.7722 160.742 32.878 163.736 32.878H165.807V29.7893H164.408C163.484 29.7893 163.122 29.3403 163.122 28.47H163.119ZM55.9487 20.7245L57.8927 18.7742H53.912V14.0322H51.8094V29.0039C51.8094 31.1422 53.0358 32.871 55.4889 32.871H56.9776V31.0545H55.8683C54.5252 31.0545 53.912 30.2632 53.912 28.9451V20.7245H55.9487Z" fill="white" style="fill:white;fill-opacity:1;"/>
<path fill-rule="evenodd" clip-rule="evenodd" d="M28.2958 25.8064H31.8328V39.9999H0V25.8064H3.53698V36.4516H28.2958V25.8064Z" fill="white" style="fill:white;fill-opacity:1;"/>
<path d="M7.39138 24.7516L24.7628 28.4145L25.493 24.9306L8.12161 21.2661L7.39138 24.7516ZM9.69009 16.4067L25.7821 23.9254L27.2811 20.6967L11.1888 13.178L9.69009 16.4067ZM14.1428 8.48641L27.7853 19.8835L30.0573 17.1464L16.4149 5.74963L14.1428 8.48641ZM22.9489 0.0618896L20.1001 2.1877L30.6943 16.478L33.5432 14.3525L22.9489 0.0618896ZM7.07373 32.9032H24.7586V29.3548H7.07373V32.9032Z" fill="white" style="fill:white;fill-opacity:1;"/>
</g>
<defs>
<clipPath id="clip0_1_1412">
<rect width="200" height="40" fill="white" style="fill:white;fill-opacity:1;"/>
</clipPath>
</defs>
</svg>
