<svg width="200" height="29" viewBox="0 0 200 29" fill="none" xmlns="http://www.w3.org/2000/svg">
<g clip-path="url(#clip0_1_1417)">
<path d="M0 24.1141L1.48922 22.3937C3.21717 24.3517 6.02509 26.276 9.89025 26.276C15.3583 26.276 16.9271 23.2312 16.9271 20.956C16.9271 13.1121 0.852608 17.1982 0.852608 7.87152C0.852608 3.51377 4.78598 0.751953 9.65151 0.751953C13.6303 0.751953 16.6884 2.1555 18.7346 4.50982L17.2113 6.185C15.2787 3.86465 12.5504 2.8233 9.53784 2.8233C5.95689 2.8233 3.27402 4.8607 3.27402 7.74701C3.27402 14.5949 19.3485 10.8257 19.3485 20.7977C19.3485 24.2386 17.0635 28.3586 9.82204 28.3586C5.38849 28.3586 2.04625 26.5588 0 24.1141Z" fill="white" style="fill:white;fill-opacity:1;"/>
<path d="M35.5705 27.8707V3.26357H26.8057V1.18091H46.6659V3.26357H37.901V27.8707H35.5705Z" fill="white" style="fill:white;fill-opacity:1;"/>
<path d="M72.0623 27.8707L69.4136 21.3059H55.2262L52.5774 27.8707H49.9287L60.8988 1.18091H63.7522L74.7225 27.8707H72.0623ZM62.3427 3.62578L55.9879 19.2345H68.652L62.3427 3.62578Z" fill="white" style="fill:white;fill-opacity:1;"/>
<path d="M98.3904 27.8707L90.876 16.8236H84.9645V27.8707H82.6797V1.18091H92.6836C97.3104 1.18091 100.846 4.10117 100.846 8.97959C100.846 13.8241 97.4354 16.5066 93.4111 16.6651L101.164 27.8707H98.3904ZM98.4358 8.9909C98.4358 5.6292 96.0599 3.2749 92.4904 3.2749H84.976V14.7635H92.4904C96.0599 14.7522 98.4358 12.3526 98.4358 8.9909Z" fill="white" style="fill:white;fill-opacity:1;"/>
<path d="M110.567 27.8707V1.18091H119.127C127.448 1.18091 132.667 7.22517 132.667 14.5485C132.667 21.951 127.437 27.8707 119.127 27.8707H110.567ZM130.268 14.5485C130.268 8.31178 126.244 3.26357 119.138 3.26357H112.863V25.7881H119.138C126.209 25.7993 130.268 20.7964 130.268 14.5485Z" fill="white" style="fill:white;fill-opacity:1;"/>
<path d="M141.396 14.5491C141.396 6.75042 146.545 0.740112 154.423 0.740112C162.256 0.740112 167.44 6.73911 167.44 14.5491C167.44 22.3592 162.256 28.3581 154.423 28.3581C146.545 28.3581 141.396 22.3592 141.396 14.5491ZM165.03 14.5491C165.03 7.79175 160.846 2.82277 154.423 2.82277C147.955 2.82277 143.817 7.78044 143.817 14.5491C143.817 21.2725 147.955 26.2754 154.423 26.2754C160.846 26.2754 165.03 21.2725 165.03 14.5491Z" fill="white" style="fill:white;fill-opacity:1;"/>
<path d="M176.126 14.5491C176.126 6.30898 182.152 0.740112 189.711 0.740112C194.133 0.740112 197.352 2.50586 199.794 5.30162L198.066 6.54668C196.181 4.30556 193.122 2.82277 189.711 2.82277C183.447 2.82277 178.537 7.58801 178.537 14.5491C178.537 21.431 183.436 26.3208 189.711 26.3208C193.292 26.3208 196.146 24.5549 197.59 23.0834V16.677H187.46V14.6397H199.885V23.9664C197.511 26.6036 193.94 28.4034 189.711 28.4034C182.152 28.392 176.126 22.7892 176.126 14.5491Z" fill="white" style="fill:white;fill-opacity:1;"/>
</g>
<defs>
<clipPath id="clip0_1_1417">
<rect width="200" height="29" fill="white" style="fill:white;fill-opacity:1;"/>
</clipPath>
</defs>
</svg>
