<svg width="201" height="49" viewBox="0 0 201 49" fill="none" xmlns="http://www.w3.org/2000/svg">
<g clip-path="url(#clip0_1_1425)">
<path d="M55.788 48.2203L55.2475 46.4916H52.6351L52.0946 48.2203H50.4731L52.9954 41.0327H54.7971L57.3194 48.2203H55.788ZM54.8872 45.2179C54.4368 43.6712 54.1665 42.7614 54.0764 42.5794C54.0112 42.4371 53.9803 42.2812 53.9863 42.1245C53.8963 42.5794 53.5359 43.5802 53.0855 45.2179H54.8872Z" fill="#00C58B" style="fill:#00C58B;fill:color(display-p3 0.0000 0.7725 0.5451);fill-opacity:1;"/>
<path d="M64.436 46.1732C64.4403 46.4694 64.3776 46.7627 64.2527 47.0307C64.1278 47.2988 63.944 47.5345 63.7153 47.7199C63.165 48.1148 62.4974 48.3075 61.8236 48.2658C61.1376 48.2658 60.4604 48.1104 59.8418 47.8109V46.4462C60.2922 46.6281 60.7426 46.8101 61.0129 46.9011C61.3077 46.9721 61.6107 47.0027 61.9137 46.9921C62.1658 46.9982 62.4148 46.9354 62.6343 46.8101C62.7281 46.7566 62.8039 46.6761 62.852 46.5789C62.9002 46.4816 62.9185 46.372 62.9046 46.2642C62.9046 46.0823 62.9046 45.9913 62.8145 45.9003C62.7118 45.7879 62.5897 45.6954 62.4542 45.6273C62.1636 45.4568 61.8627 45.3049 61.5533 45.1724C61.1808 45.0361 60.8425 44.8187 60.5624 44.5356C60.357 44.3466 60.1754 44.1327 60.0219 43.8987C59.9109 43.608 59.85 43.3003 59.8418 42.9889C59.8209 42.7126 59.8674 42.4354 59.9774 42.1816C60.0873 41.9278 60.2573 41.7051 60.4724 41.5332C60.9888 41.1392 61.6281 40.9455 62.274 40.9873C62.6367 40.9723 62.9998 41.0029 63.355 41.0783C63.7277 41.1582 64.0903 41.2803 64.436 41.4422L63.9856 42.6249C63.6252 42.443 63.2649 42.352 63.0847 42.261C62.8521 42.1861 62.6078 42.1553 62.3641 42.17C62.1401 42.1614 61.9192 42.2252 61.7335 42.352C61.6542 42.4197 61.5893 42.503 61.5428 42.5969C61.4964 42.6907 61.4693 42.7931 61.4633 42.8979C61.4498 43.0261 61.4817 43.1551 61.5533 43.2618L61.8236 43.5348C62.1379 43.7448 62.4694 43.9274 62.8145 44.0807C63.3247 44.3229 63.7836 44.6628 64.1657 45.0815C64.39 45.3974 64.4866 45.7878 64.436 46.1732Z" fill="#00C58B" style="fill:#00C58B;fill:color(display-p3 0.0000 0.7725 0.5451);fill-opacity:1;"/>
<path d="M71.8225 44.5811C71.8639 45.074 71.8053 45.5702 71.6504 46.0395C71.4956 46.5088 71.2476 46.9413 70.9216 47.3105C70.591 47.6368 70.1944 47.8871 69.759 48.0441C69.3237 48.2011 68.8598 48.2612 68.3993 48.2203C67.9366 48.2551 67.4717 48.1922 67.0343 48.0355C66.597 47.8789 66.1967 47.632 65.859 47.3105C65.2417 46.5407 64.9217 45.571 64.9582 44.5811C64.9168 44.0881 64.9753 43.5919 65.1302 43.1226C65.2851 42.6533 65.5331 42.2208 65.859 41.8516C66.1897 41.5253 66.5863 41.2751 67.0216 41.118C67.457 40.961 67.9208 40.9009 68.3813 40.9418C68.8411 40.9096 69.3026 40.9738 69.7367 41.1303C70.1707 41.2869 70.568 41.5325 70.9036 41.8516C71.2328 42.2194 71.484 42.6512 71.642 43.1205C71.8 43.5899 71.8614 44.0869 71.8225 44.5811ZM66.6878 44.5811C66.6632 45.2186 66.8195 45.8499 67.1382 46.4007C67.2831 46.6227 67.4861 46.7997 67.7246 46.9121C67.9632 47.0246 68.2279 47.068 68.4894 47.0376C69.6605 47.0376 70.2911 46.2187 70.2911 44.672C70.2911 43.1253 69.6605 42.2155 68.4894 42.2155C68.2279 42.1851 67.9632 42.2285 67.7246 42.3409C67.4861 42.4534 67.2831 42.6304 67.1382 42.8524C66.8183 43.3693 66.6612 43.9721 66.6878 44.5811Z" fill="#00C58B" style="fill:#00C58B;fill:color(display-p3 0.0000 0.7725 0.5451);fill-opacity:1;"/>
<path d="M74.5248 48.2203H73.0654V41.0327H77.1191V42.3065H74.5067V44.1261H76.939V45.3998H74.5067L74.5248 48.2203Z" fill="#00C58B" style="fill:#00C58B;fill:color(display-p3 0.0000 0.7725 0.5451);fill-opacity:1;"/>
<path d="M80.9206 48.2203H79.3712V42.3065H77.4795V41.0327H82.7943V42.3065H80.9026L80.9206 48.2203Z" fill="#00C58B" style="fill:#00C58B;fill:color(display-p3 0.0000 0.7725 0.5451);fill-opacity:1;"/>
<path d="M90.4692 48.2203H88.7576L87.7667 44.49C87.7221 44.2139 87.6619 43.9405 87.5866 43.6712C87.4965 43.2163 87.4965 42.9433 87.4064 42.8523C87.3711 43.1303 87.3108 43.4043 87.2263 43.6712C87.1417 43.938 87.0814 44.2121 87.0461 44.49L86.0552 48.2203H84.3436L82.542 41.0327H83.9833L84.8841 44.9449C85.0643 45.6728 85.1544 46.3097 85.2445 46.8555C85.2445 46.6736 85.3345 46.4006 85.3345 46.0367C85.3768 45.7301 85.437 45.4263 85.5147 45.1269L86.5056 41.1237H87.9469L88.9378 45.1269C89.0174 45.3951 89.0776 45.6687 89.118 45.9457C89.1603 46.2523 89.2204 46.5561 89.2981 46.8555C89.3231 46.5462 89.3835 46.2409 89.4783 45.9457C89.5649 45.6484 89.6252 45.344 89.6585 45.0359L90.5593 41.1237H91.9826L90.4692 48.2203Z" fill="#00C58B" style="fill:#00C58B;fill:color(display-p3 0.0000 0.7725 0.5451);fill-opacity:1;"/>
<path d="M97.2255 48.2203L96.685 46.4916H94.0726L93.5321 48.2203H91.9106L94.4329 41.0327H96.2346L98.7569 48.2203H97.2255ZM96.3247 45.2179C95.8743 43.6712 95.604 42.7614 95.5139 42.5794C95.4487 42.4371 95.4178 42.2812 95.4238 42.1245C95.3338 42.5794 94.9734 43.5802 94.523 45.2179H96.3247Z" fill="#00C58B" style="fill:#00C58B;fill:color(display-p3 0.0000 0.7725 0.5451);fill-opacity:1;"/>
<path d="M100.919 45.4909V48.2203H99.3877V41.0328H101.46C102.22 40.9689 102.98 41.1608 103.622 41.5787C103.859 41.7763 104.048 42.0272 104.173 42.3115C104.299 42.5958 104.356 42.9056 104.342 43.2163C104.359 43.4135 104.336 43.6122 104.274 43.8C104.212 43.9878 104.113 44.1607 103.982 44.3081C103.733 44.6477 103.387 44.9019 102.991 45.036C104.072 46.6736 104.793 47.6744 105.063 48.1293H103.441L101.73 45.3999H100.919V45.4909ZM100.919 44.2171H101.369C101.749 44.2362 102.125 44.1412 102.45 43.9442C102.657 43.7558 102.785 43.496 102.811 43.2163C102.828 43.0727 102.803 42.9271 102.739 42.7976C102.675 42.6682 102.575 42.5607 102.45 42.4885C102.115 42.325 101.74 42.2618 101.369 42.3065H100.919V44.2171Z" fill="#00C58B" style="fill:#00C58B;fill:color(display-p3 0.0000 0.7725 0.5451);fill-opacity:1;"/>
<path d="M109.747 48.2203H105.693V41.0327H109.747V42.3065H107.135V43.8531H109.567V45.1269H107.135V46.9465H109.747V48.2203Z" fill="#00C58B" style="fill:#00C58B;fill:color(display-p3 0.0000 0.7725 0.5451);fill-opacity:1;"/>
<path d="M117.494 48.2203L116.954 46.4916H114.341L113.801 48.2203H112.179L114.701 41.0327H116.503L119.007 48.2203H117.494ZM116.683 45.2179C116.233 43.6712 115.963 42.7614 115.873 42.5794C115.807 42.4371 115.776 42.2812 115.782 42.1245C115.692 42.5794 115.332 43.5802 114.882 45.2179H116.683Z" fill="#00C58B" style="fill:#00C58B;fill:color(display-p3 0.0000 0.7725 0.5451);fill-opacity:1;"/>
<path d="M122.449 44.1716H125.241V47.9019C124.841 48.0701 124.413 48.1626 123.98 48.1748C123.565 48.2536 123.141 48.2842 122.719 48.2658C122.272 48.3069 121.822 48.2466 121.401 48.0892C120.98 47.9317 120.599 47.6812 120.287 47.356C119.7 46.5743 119.412 45.6052 119.476 44.6265C119.435 44.1262 119.502 43.6229 119.674 43.1515C119.845 42.6802 120.115 42.2521 120.467 41.8971C120.818 41.5422 121.242 41.2687 121.709 41.0959C122.176 40.923 122.674 40.8549 123.169 40.8963C123.883 40.9066 124.588 41.0612 125.241 41.3512L124.701 42.5339C124.197 42.2841 123.641 42.1594 123.079 42.17C122.793 42.1491 122.505 42.1958 122.239 42.3063C121.974 42.4168 121.737 42.5882 121.548 42.8069C121.158 43.3285 120.966 43.9742 121.007 44.6265C120.983 45.264 121.139 45.8953 121.458 46.4461C121.625 46.6436 121.832 46.8025 122.065 46.9124C122.298 47.0222 122.552 47.0804 122.809 47.083C123.142 47.0941 123.475 47.0635 123.8 46.992V45.5363H122.449V44.1716Z" fill="#00C58B" style="fill:#00C58B;fill:color(display-p3 0.0000 0.7725 0.5451);fill-opacity:1;"/>
<path d="M131.907 42.17C131.648 42.1592 131.39 42.2114 131.155 42.3222C130.92 42.4331 130.714 42.5993 130.556 42.8069C130.198 43.3406 130.038 43.9853 130.106 44.6265C130.106 46.2642 130.736 46.992 131.907 46.992C132.525 46.9865 133.136 46.863 133.709 46.6281V47.9018C133.083 48.17 132.406 48.2943 131.727 48.2658C131.294 48.2989 130.86 48.2345 130.455 48.0771C130.049 47.9198 129.684 47.6734 129.385 47.3559C128.798 46.5743 128.51 45.6052 128.574 44.6265C128.547 43.9866 128.664 43.3488 128.916 42.7614C129.159 42.2192 129.57 41.772 130.088 41.4876C130.642 41.1882 131.261 41.032 131.889 41.0327C132.614 41.0413 133.325 41.2287 133.961 41.5786L133.511 42.8524C133.24 42.7614 132.97 42.5794 132.7 42.4884C132.453 42.3429 132.186 42.2356 131.907 42.17Z" fill="#00C58B" style="fill:#00C58B;fill:color(display-p3 0.0000 0.7725 0.5451);fill-opacity:1;"/>
<path d="M141.366 44.581C141.407 45.0739 141.349 45.5702 141.194 46.0395C141.039 46.5088 140.791 46.9413 140.465 47.3105C140.134 47.6368 139.738 47.887 139.303 48.0441C138.867 48.2011 138.403 48.2612 137.943 48.2203C137.483 48.2525 137.022 48.1883 136.588 48.0318C136.153 47.8752 135.756 47.6296 135.421 47.3105C134.803 46.5407 134.483 45.571 134.52 44.581C134.478 44.0881 134.537 43.5919 134.692 43.1226C134.847 42.6533 135.095 42.2208 135.421 41.8516C136.132 41.2632 137.023 40.9418 137.943 40.9418C138.862 40.9418 139.754 41.2632 140.465 41.8516C141.082 42.6214 141.403 43.5911 141.366 44.581ZM136.123 44.581C136.099 45.2185 136.255 45.8499 136.574 46.4007C136.732 46.6077 136.938 46.7735 137.173 46.8843C137.408 46.995 137.666 47.0476 137.925 47.0375C139.096 47.0375 139.726 46.2187 139.726 44.672C139.726 43.1253 139.096 42.2155 137.925 42.2155C137.663 42.1851 137.399 42.2285 137.16 42.3409C136.921 42.4534 136.718 42.6304 136.574 42.8524C136.254 43.3693 136.097 43.9721 136.123 44.581Z" fill="#00C58B" style="fill:#00C58B;fill:color(display-p3 0.0000 0.7725 0.5451);fill-opacity:1;"/>
<path d="M145.509 48.2203L143.798 42.5794C143.888 43.7622 143.888 44.49 143.888 44.8539V48.2203H142.537V41.0327H144.609L146.32 46.4916L148.122 41.0327H150.194V48.2203H148.734V44.3081C148.736 43.761 148.766 43.2143 148.824 42.6704L147.023 48.3112H145.491L145.509 48.2203Z" fill="#00C58B" style="fill:#00C58B;fill:color(display-p3 0.0000 0.7725 0.5451);fill-opacity:1;"/>
<path d="M156.409 43.2617C156.423 43.5858 156.366 43.9089 156.241 44.2078C156.117 44.5067 155.928 44.774 155.689 44.9904C155.088 45.4297 154.358 45.6538 153.617 45.6272H152.986V48.2202H151.545V41.0327H153.797C154.5 40.9788 155.2 41.1716 155.779 41.5786C156.005 41.7912 156.18 42.0537 156.289 42.3457C156.398 42.6376 156.44 42.9511 156.409 43.2617ZM153.076 44.3535H153.527C153.879 44.3876 154.231 44.2906 154.518 44.0806C154.629 43.9752 154.718 43.8485 154.78 43.7079C154.841 43.5672 154.875 43.4156 154.878 43.2617C154.889 43.1139 154.871 42.9653 154.825 42.8247C154.778 42.6841 154.705 42.5542 154.608 42.4429C154.484 42.3384 154.34 42.2603 154.185 42.2134C154.03 42.1665 153.868 42.1517 153.707 42.1699H152.986V44.3535H153.076Z" fill="#00C58B" style="fill:#00C58B;fill:color(display-p3 0.0000 0.7725 0.5451);fill-opacity:1;"/>
<path d="M161.814 48.2203L161.274 46.4916H158.643L158.103 48.2203H156.481L159.004 41.0327H160.805L163.328 48.2203H161.814ZM160.913 45.2179C160.463 43.6712 160.193 42.7614 160.103 42.5794C160.038 42.4371 160.007 42.2812 160.013 42.1245C159.923 42.5794 159.562 43.5802 159.112 45.2179H160.913Z" fill="#00C58B" style="fill:#00C58B;fill:color(display-p3 0.0000 0.7725 0.5451);fill-opacity:1;"/>
<path d="M170.282 48.2203H168.39L165.328 42.8523C165.392 43.5175 165.422 44.1856 165.418 44.8539V48.2203H164.048V41.0327H165.94L169.003 46.4006C168.937 45.7356 168.907 45.0674 168.913 44.399V41.0327H170.264L170.282 48.2203Z" fill="#00C58B" style="fill:#00C58B;fill:color(display-p3 0.0000 0.7725 0.5451);fill-opacity:1;"/>
<path d="M173.958 43.8986L175.399 40.9872H177.02L174.678 45.3543V48.2202H173.147V45.4908L170.805 41.0327H172.426L173.958 43.8986Z" fill="#00C58B" style="fill:#00C58B;fill:color(display-p3 0.0000 0.7725 0.5451);fill-opacity:1;"/>
<path d="M64.1654 26.1572C64.2042 27.0143 64.0358 27.8681 63.6749 28.6448C63.3139 29.4215 62.7711 30.0978 62.0935 30.6153C60.4706 31.7872 58.5004 32.3649 56.5084 32.2529C54.4801 32.3268 52.4579 31.9864 50.563 31.2521V28.7956C51.5063 29.1531 52.4687 29.4568 53.4456 29.7054C54.455 29.9111 55.4793 30.0328 56.5084 30.0694C57.8439 30.1616 59.1726 29.8101 60.2918 29.0686C60.6925 28.7598 61.0156 28.36 61.2347 27.9016C61.4538 27.4432 61.5628 26.939 61.553 26.4301C61.5654 25.7939 61.41 25.1659 61.1026 24.6105C60.6986 24.0465 60.1755 23.5804 59.5712 23.2457C58.5303 22.6992 57.4454 22.2426 56.3282 21.881C54.7082 21.3881 53.2266 20.5152 52.0043 19.3335C51.0948 18.2455 50.6422 16.8416 50.7432 15.4213C50.7227 14.6505 50.8834 13.8858 51.2123 13.1899C51.5411 12.494 52.0287 11.8868 52.6349 11.4181C54.0722 10.3733 55.8215 9.85937 57.5894 9.96242C59.6321 9.92335 61.6594 10.3266 63.5348 11.1452L62.7241 13.3287C61.0685 12.6279 59.2943 12.2572 57.4993 12.237C56.3758 12.1626 55.2615 12.4841 54.3464 13.1468C54.0074 13.3922 53.7376 13.7227 53.5638 14.1056C53.39 14.4886 53.3182 14.9108 53.3555 15.3303C53.3431 15.9665 53.4986 16.5946 53.8059 17.15C54.1607 17.6922 54.6203 18.1564 55.1572 18.5147C56.1185 19.0326 57.1114 19.4885 58.1299 19.8794C59.8579 20.4157 61.4542 21.3149 62.8141 22.5179C63.2679 23.0031 63.6211 23.5749 63.8532 24.1999C64.0852 24.8248 64.1913 25.4902 64.1654 26.1572Z" fill="#00C58B" style="fill:#00C58B;fill:color(display-p3 0.0000 0.7725 0.5451);fill-opacity:1;"/>
<path d="M72.6331 30.1604C73.0555 30.1754 73.4782 30.1449 73.8942 30.0694C74.2545 29.9784 74.6149 29.9784 74.8851 29.8875V31.8436C74.5077 32.0039 74.1154 32.1258 73.7141 32.2075C73.2671 32.2774 72.815 32.3078 72.3628 32.2985C69.21 32.2985 67.6786 30.6608 67.6786 27.2945V17.5139H65.3364V16.3767L67.6786 15.3759L68.6695 11.9186H70.1108V15.7398H74.795V17.6504H70.1108V27.2945C70.071 28.1157 70.327 28.9237 70.8314 29.569C71.065 29.8051 71.3483 29.985 71.6602 30.0953C71.9722 30.2056 72.3047 30.2434 72.6331 30.2059" fill="#00C58B" style="fill:#00C58B;fill:color(display-p3 0.0000 0.7725 0.5451);fill-opacity:1;"/>
<path d="M84.7041 15.3303C85.3386 15.3369 85.9715 15.3978 86.5958 15.5123L86.2355 17.7868C85.6465 17.6407 85.0399 17.5794 84.4339 17.6049C83.7904 17.5971 83.1541 17.7411 82.5755 18.0254C81.9968 18.3097 81.4919 18.7264 81.1008 19.2425C80.1925 20.3717 79.7133 21.7913 79.7496 23.2457V31.98H77.3174V15.6033H79.2992L79.5694 18.6057H79.6595C80.1853 17.6311 80.9248 16.7908 81.8215 16.1492C82.6955 15.6277 83.6891 15.3455 84.7041 15.3303Z" fill="#00C58B" style="fill:#00C58B;fill:color(display-p3 0.0000 0.7725 0.5451);fill-opacity:1;"/>
<path d="M95.1538 17.3319C94.5706 17.3199 93.9909 17.4265 93.4493 17.6453C92.9076 17.8641 92.4151 18.1907 92.0009 18.6057C91.1289 19.5773 90.6471 20.8425 90.6497 22.1539H99.1174C99.1871 20.8928 98.8384 19.6441 98.1265 18.6057C97.754 18.186 97.2945 17.8543 96.7807 17.6341C96.267 17.414 95.7115 17.3108 95.1538 17.3319ZM95.7844 32.2529C94.7393 32.3154 93.693 32.153 92.7146 31.7766C91.7363 31.4002 90.8483 30.8183 90.1092 30.0693C88.6704 28.3808 87.9287 26.1986 88.0373 23.9736C87.9166 21.7213 88.5864 19.4983 89.929 17.6958C90.5442 16.9258 91.3285 16.3111 92.2197 15.9005C93.111 15.4899 94.0847 15.2947 95.0637 15.3303C95.9579 15.2747 96.8528 15.4262 97.6803 15.773C98.5077 16.1199 99.2457 16.6531 99.8381 17.3319C101.083 18.8305 101.725 20.7459 101.64 22.6998V24.2465H90.4695C90.4308 25.8275 90.9407 27.3723 91.9108 28.6136C92.4125 29.1266 93.0192 29.5227 93.6882 29.7741C94.3573 30.0255 95.0727 30.1263 95.7844 30.0693C97.5512 30.0577 99.2975 29.6864 100.919 28.9776V31.1611C100.127 31.4886 99.3148 31.7622 98.4868 31.98C97.6001 32.1797 96.6928 32.2713 95.7844 32.2529Z" fill="#00C58B" style="fill:#00C58B;fill:color(display-p3 0.0000 0.7725 0.5451);fill-opacity:1;"/>
<path d="M109.567 30.1604C110.885 30.2175 112.175 29.7616 113.17 28.8867C113.635 28.4287 113.997 27.8744 114.23 27.2619C114.463 26.6495 114.563 25.9933 114.521 25.3384V23.8827L112.089 23.9737C110.626 23.9345 109.175 24.2463 107.855 24.8835C107.428 25.1442 107.083 25.522 106.859 25.9729C106.636 26.4238 106.544 26.9294 106.594 27.431C106.566 27.8053 106.625 28.1809 106.766 28.5283C106.906 28.8757 107.125 29.1853 107.405 29.4326C107.688 29.7099 108.029 29.9193 108.404 30.0452C108.778 30.1712 109.175 30.2106 109.567 30.1604ZM115.152 31.9801L114.701 29.6145H114.611C113.968 30.4892 113.136 31.2048 112.179 31.7071C111.237 32.0963 110.224 32.2822 109.206 32.253C107.831 32.3246 106.48 31.8698 105.423 30.9793C104.958 30.5212 104.596 29.967 104.363 29.3545C104.129 28.742 104.03 28.0858 104.072 27.431C104.072 24.1556 106.684 22.427 111.909 22.245L114.701 22.154V21.1532C114.793 20.1435 114.503 19.1361 113.891 18.3328C113.546 17.9993 113.134 17.7452 112.683 17.5881C112.232 17.4311 111.753 17.3747 111.278 17.423C109.673 17.5055 108.106 17.9402 106.684 18.6967L105.963 16.7861C106.779 16.3201 107.66 15.9826 108.576 15.7853C109.515 15.5302 110.486 15.4077 111.458 15.4214C113.002 15.328 114.53 15.7781 115.782 16.6951C116.273 17.2659 116.646 17.9304 116.878 18.6493C117.11 19.3682 117.197 20.1269 117.134 20.8803V32.071H115.152V31.9801Z" fill="#00C58B" style="fill:#00C58B;fill:color(display-p3 0.0000 0.7725 0.5451);fill-opacity:1;"/>
<path d="M141.816 31.98V21.3352C141.891 20.2989 141.604 19.2689 141.006 18.4238C140.668 18.0755 140.26 17.8055 139.809 17.6327C139.357 17.4599 138.874 17.3883 138.393 17.423C137.758 17.3796 137.121 17.4795 136.529 17.7156C135.937 17.9516 135.405 18.3179 134.97 18.7877C134.165 19.9912 133.784 21.4333 133.889 22.8819V31.98H131.457V21.3352C131.532 20.2989 131.245 19.2689 130.646 18.4238C130.309 18.0755 129.9 17.8055 129.449 17.6327C128.998 17.4599 128.515 17.3883 128.034 17.423C127.41 17.3597 126.781 17.451 126.2 17.6888C125.619 17.9266 125.105 18.3038 124.701 18.7877C123.98 19.6975 123.62 21.2442 123.62 23.3368V31.8891H121.188V15.5124H123.169L123.53 17.7869H123.62C124.045 16.9617 124.748 16.3165 125.602 15.9673C126.465 15.5223 127.425 15.3034 128.394 15.3304C130.916 15.3304 132.538 16.2402 133.349 18.0598H133.439C133.916 17.199 134.638 16.5019 135.511 16.0583C136.492 15.5726 137.571 15.3234 138.663 15.3304C139.416 15.267 140.174 15.3638 140.888 15.6145C141.602 15.8652 142.256 16.2644 142.807 16.7861C143.708 17.6959 144.158 19.2426 144.158 21.3352V31.98H141.816Z" fill="#00C58B" style="fill:#00C58B;fill:color(display-p3 0.0000 0.7725 0.5451);fill-opacity:1;"/>
<path d="M161.184 26.1572C161.223 27.0143 161.054 27.8681 160.693 28.6448C160.332 29.4215 159.79 30.0978 159.112 30.6153C157.489 31.7872 155.519 32.3649 153.527 32.2529C151.499 32.3268 149.476 31.9864 147.582 31.2521V28.7956C148.525 29.1531 149.487 29.4568 150.464 29.7054C151.474 29.9111 152.498 30.0328 153.527 30.0694C154.862 30.1616 156.191 29.8101 157.31 29.0686C157.711 28.7598 158.034 28.36 158.253 27.9016C158.472 27.4432 158.581 26.939 158.572 26.4301C158.584 25.7939 158.429 25.1659 158.121 24.6105C157.717 24.0465 157.194 23.5804 156.59 23.2457C155.549 22.6992 154.464 22.2426 153.347 21.881C151.727 21.3881 150.245 20.5152 149.023 19.3335C148.113 18.2455 147.661 16.8416 147.762 15.4213C147.741 14.6505 147.902 13.8858 148.231 13.1899C148.56 12.494 149.047 11.8868 149.653 11.4181C151.091 10.3733 152.84 9.85937 154.608 9.96242C156.651 9.92335 158.678 10.3266 160.553 11.1452L159.743 13.3287C158.087 12.6279 156.313 12.2572 154.518 12.237C153.394 12.1626 152.28 12.4841 151.365 13.1468C151.004 13.4188 150.716 13.7777 150.527 14.1909C150.338 14.604 150.255 15.0583 150.284 15.5123C150.272 16.1485 150.427 16.7765 150.734 17.3319C151.101 17.8957 151.595 18.3635 152.176 18.6967C153.137 19.2146 154.13 19.6704 155.148 20.0614C156.876 20.5977 158.473 21.4968 159.833 22.6999C160.298 23.1387 160.66 23.6766 160.894 24.2746C161.128 24.8727 161.227 25.5157 161.184 26.1572Z" fill="#00C58B" style="fill:#00C58B;fill:color(display-p3 0.0000 0.7725 0.5451);fill-opacity:1;"/>
<path d="M170.643 17.3319C170.059 17.3199 169.48 17.4265 168.938 17.6453C168.396 17.8641 167.904 18.1907 167.49 18.6057C166.618 19.5773 166.136 20.8425 166.138 22.1539H174.606C174.676 20.8928 174.327 19.6441 173.615 18.6057C173.243 18.186 172.783 17.8543 172.269 17.6341C171.756 17.414 171.2 17.3108 170.643 17.3319ZM171.273 32.2529C170.228 32.3154 169.182 32.153 168.203 31.7766C167.225 31.4002 166.337 30.8183 165.598 30.0693C164.159 28.3808 163.417 26.1986 163.526 23.9736C163.405 21.7213 164.075 19.4983 165.418 17.6958C166.033 16.9258 166.817 16.3111 167.709 15.9005C168.6 15.4899 169.574 15.2947 170.552 15.3303C171.447 15.2747 172.342 15.4262 173.169 15.773C173.996 16.1199 174.734 16.6531 175.327 17.3319C176.571 18.8305 177.214 20.7459 177.128 22.6998V24.2465H165.958C165.92 25.8275 166.429 27.3723 167.4 28.6136C167.901 29.1266 168.508 29.5227 169.177 29.7741C169.846 30.0255 170.561 30.1263 171.273 30.0693C173.04 30.0577 174.786 29.6864 176.408 28.9776V31.1611C175.616 31.4886 174.804 31.7622 173.976 31.98C173.09 32.1848 172.182 32.2764 171.273 32.2529Z" fill="#00C58B" style="fill:#00C58B;fill:color(display-p3 0.0000 0.7725 0.5451);fill-opacity:1;"/>
<path d="M185.866 30.1604C186.289 30.1754 186.712 30.1449 187.128 30.0694C187.488 29.9784 187.848 29.9784 188.119 29.8875V31.8436C187.741 32.0039 187.349 32.1258 186.947 32.2075C186.501 32.2774 186.048 32.3078 185.596 32.2985C182.443 32.2985 180.912 30.6608 180.912 27.2945V17.5139H178.57V16.3767L180.912 15.3759L181.903 11.9186H183.344V15.7398H188.028V17.6504H183.344V27.2945C183.304 28.1157 183.56 28.9237 184.065 29.569C184.298 29.8051 184.582 29.985 184.894 30.0953C185.206 30.2056 185.538 30.2434 185.866 30.2059" fill="#00C58B" style="fill:#00C58B;fill:color(display-p3 0.0000 0.7725 0.5451);fill-opacity:1;"/>
<path d="M200.982 27.5219C201.024 28.2122 200.888 28.9016 200.588 29.5233C200.288 30.145 199.834 30.6778 199.271 31.0702C197.882 31.985 196.242 32.431 194.586 32.3439C192.851 32.4123 191.123 32.0696 189.542 31.3431V28.8866C190.346 29.284 191.192 29.5892 192.064 29.7964C192.911 30.0509 193.792 30.1736 194.676 30.1604C195.706 30.2282 196.735 30.0078 197.649 29.5235C197.98 29.3364 198.25 29.0562 198.426 28.7169C198.602 28.3777 198.676 27.9941 198.64 27.6129C198.639 27.2953 198.565 26.9824 198.424 26.6983C198.284 26.4143 198.08 26.1668 197.829 25.9752C196.853 25.2943 195.793 24.7439 194.676 24.3375C193.555 23.9496 192.47 23.4624 191.433 22.8818C190.867 22.4921 190.378 21.9983 189.992 21.4261C189.696 20.8337 189.541 20.1792 189.542 19.5155C189.526 18.89 189.666 18.2704 189.949 17.714C190.233 17.1575 190.65 16.682 191.163 16.3311C192.484 15.5 194.022 15.088 195.577 15.1484C197.344 15.16 199.09 15.5314 200.712 16.2402L199.811 18.2418C198.413 17.6359 196.917 17.2966 195.397 17.241C194.493 17.1764 193.589 17.3653 192.785 17.7868C192.506 17.9334 192.274 18.1562 192.115 18.4297C191.955 18.7032 191.875 19.0164 191.884 19.3335C191.867 19.5307 191.89 19.7294 191.952 19.9172C192.014 20.105 192.113 20.2779 192.244 20.4253C192.523 20.8152 192.895 21.128 193.325 21.3351C194.235 21.7779 195.167 22.1727 196.118 22.5179C197.525 22.9708 198.837 23.6801 199.991 24.6105C200.622 25.4484 200.97 26.4691 200.982 27.5219Z" fill="#00C58B" style="fill:#00C58B;fill:color(display-p3 0.0000 0.7725 0.5451);fill-opacity:1;"/>
<path d="M12.6387 2.77489C13.8998 2.13802 18.0436 0.50035 22.908 5.95925C26.0609 9.59851 28.0427 9.78048 28.5832 8.59772C28.6733 8.50673 28.6733 8.41575 28.7633 8.23379C29.1237 6.6871 28.0427 3.86667 25.2501 1.77409C19.3047 -2.77499 12.4585 2.86587 12.4585 2.86587C12.5071 2.81646 12.5704 2.78451 12.6387 2.77489Z" fill="#00C58B" style="fill:#00C58B;fill:color(display-p3 0.0000 0.7725 0.5451);fill-opacity:1;"/>
<path d="M8.76498 40.4413C7.59392 39.7134 4.08072 36.802 6.42285 29.8874C7.95424 25.3383 7.14351 23.5187 5.88236 23.6097C5.75538 23.5961 5.62773 23.6283 5.52203 23.7007C4.08072 24.1556 2.189 26.5211 1.73859 29.9784C0.837769 37.5299 9.03523 40.6233 9.03523 40.6233C9.03523 40.6233 8.85506 40.4413 8.76498 40.4413Z" fill="#00C58B" style="fill:#00C58B;fill:color(display-p3 0.0000 0.7725 0.5451);fill-opacity:1;"/>
<path d="M42.9964 24.7014V24.9744C42.9063 26.3391 42.2757 30.8882 35.0692 32.3439C30.3849 33.2537 29.2138 34.8914 30.0246 35.9831C30.1147 36.0741 30.1147 36.1651 30.2948 36.2561C31.3758 37.3479 34.4386 37.8028 37.5014 36.438C44.4377 33.4357 42.9964 24.7014 42.9964 24.7014Z" fill="#00C58B" style="fill:#00C58B;fill:color(display-p3 0.0000 0.7725 0.5451);fill-opacity:1;"/>
<path d="M18.3138 13.7837C28.4029 21.5171 29.574 21.972 31.6459 21.2442C34.3484 20.3344 36.2401 16.1492 34.3484 10.4174C32.4566 4.68552 28.6732 3.04785 28.6732 3.04785C28.8347 3.21994 28.9851 3.40228 29.1236 3.59374C29.8745 4.49822 30.5382 5.47313 31.1054 6.50515C32.907 9.68951 32.9971 12.5099 30.655 13.8747C28.3129 15.2394 24.079 10.5083 22.1873 8.7797C16.1518 3.50276 12.0981 3.41178 9.48573 5.23141C6.06262 7.68792 5.1618 13.4198 5.52212 15.1484C6.24278 12.6919 8.49483 6.32319 18.3138 13.7837Z" fill="#00C58B" style="fill:#00C58B;fill:color(display-p3 0.0000 0.7725 0.5451);fill-opacity:1;"/>
<path d="M15.4131 29.8874C16.9445 17.2409 16.7644 15.9672 15.1429 14.4205C12.9809 12.5099 8.56692 12.9648 4.51323 17.4229C0.459538 21.881 1.00003 26.0661 1.00003 26.0661C1.07667 25.8483 1.16693 25.6356 1.27028 25.4293C1.68948 24.3546 2.20194 23.3194 2.80167 22.3359C4.69339 19.1515 7.03552 17.6958 9.28757 19.0606C11.5396 20.4253 9.6479 26.4301 9.19749 29.0685C7.6661 36.9839 9.6479 40.5322 12.5305 41.897C16.314 43.6256 21.7189 41.533 23.0701 40.3503C20.4577 41.0781 13.8818 42.2609 15.4131 29.8874Z" fill="#00C58B" style="fill:#00C58B;fill:color(display-p3 0.0000 0.7725 0.5451);fill-opacity:1;"/>
<path d="M30.4751 39.1675C26.8718 39.0766 24.3495 37.8028 24.3495 35.0734C24.3495 32.3439 30.4751 31.0702 32.9974 30.1604C40.5643 27.5219 42.6361 24.0646 42.3659 20.8802C42.0056 16.6951 37.5015 13.0558 35.7899 12.4189C37.6816 14.3296 42.0056 19.5155 30.6552 24.3375C19.0347 29.2505 18.0438 30.0694 17.5934 32.2529C17.0529 35.0734 19.6652 38.8036 25.5206 40.0774C31.3759 41.3511 34.6189 38.8036 34.6189 38.8036C34.4142 38.8647 34.2017 38.8954 33.9883 38.8946C32.8364 39.1562 31.6531 39.2481 30.4751 39.1675Z" fill="#00C58B" style="fill:#00C58B;fill:color(display-p3 0.0000 0.7725 0.5451);fill-opacity:1;"/>
</g>
<defs>
<clipPath id="clip0_1_1425">
<rect width="201" height="49" fill="white" style="fill:white;fill-opacity:1;"/>
</clipPath>
</defs>
</svg>
