<svg width="200" height="39" viewBox="0 0 200 39" fill="none" xmlns="http://www.w3.org/2000/svg">
<g clip-path="url(#clip0_1_1461)">
<path d="M41.0052 8.4287V29.8192H36.1178V27.5527C35.0087 29.3942 32.9636 30.4567 29.9827 30.4567C25.026 30.4567 22.565 27.836 22.565 23.657V8.4287H27.9029V22.205C27.9029 24.4362 29.0815 25.7465 31.3691 25.7465C34.0381 25.7465 35.6672 24.1883 35.6672 21.3197V8.4287H41.0052ZM75.6672 14.8742V29.8192H70.3293V16.5033C70.3293 13.9534 69.3241 12.3952 67.0017 12.3952C64.6794 12.3952 63.3276 14.1659 63.3276 16.6449V29.8192H57.9896V16.5033C57.9896 13.7763 56.8804 12.3952 54.662 12.3952C52.305 12.3952 50.9879 14.1659 50.9879 16.6449V29.8192H45.6499V8.4287H50.6066V10.8015C51.8198 8.74744 53.8302 7.72041 56.5685 7.72041C59.2374 7.72041 61.2478 8.85368 62.3917 10.8723C63.8128 8.78285 65.9272 7.72041 68.6655 7.72041C73.1369 7.72041 75.6672 10.4473 75.6672 14.8742ZM118.51 29.8192H113.172V0.0708295H118.51V29.8192ZM176.395 29.8192H171.057V8.4287H176.395V29.8192ZM170.953 5.20596H176.464V0H170.953V5.20596ZM196.395 22.5238C194.211 24.8966 192.721 25.8173 190.711 25.8173C188.319 25.8173 186.62 24.4007 185.858 22.205V15.972C186.655 13.7409 188.354 12.3243 190.78 12.3243C192.548 12.3243 193.969 12.9618 196.222 15.1221L199.549 11.7577C196.88 8.78285 194.281 7.685 190.78 7.685C185.893 7.685 182.114 10.3057 180.624 14.6971V23.48C182.08 27.8714 185.789 30.4567 190.641 30.4567C194.419 30.4567 197.019 29.1817 199.931 25.4986L196.395 22.5238ZM10.9879 16.6449C9.53206 16.3262 8.4922 16.0429 7.90295 15.9012C7.17504 15.6887 6.62045 15.4054 6.34315 15.0158V13.3868C6.82842 12.6076 8.00693 12.1118 9.63605 12.1118C11.8891 12.1118 13.4489 12.6431 15.9099 14.6263L18.7868 11.0848C15.8752 8.60578 13.3795 7.72041 9.7747 7.72041C5.61525 7.72041 2.7383 9.45573 1.59445 11.9348V17.3178C2.49567 19.124 4.57539 20.151 8.73484 21.0718C10.2253 21.4259 11.2305 21.6738 11.8198 21.7801C12.5823 22.028 13.2756 22.3467 13.6568 22.9133V24.7903C13.1369 25.6403 11.8891 26.1007 10.26 26.1007C9.08146 26.1361 7.93761 25.8882 6.86308 25.4278C5.82322 25.0028 4.61005 24.1883 3.08492 22.9133L0 26.4194C3.32756 29.4296 6.13518 30.4567 10.1213 30.4567C14.3847 30.4567 17.4003 28.7922 18.5442 26.1361V20.7176C17.5737 18.699 15.2513 17.6365 10.9879 16.6449ZM89.6707 7.685C84.8527 7.685 81.0745 10.3411 79.5147 14.5909V23.5862C81.0399 27.836 84.8527 30.4921 89.6707 30.4921C94.4887 30.4921 98.2322 27.836 99.7574 23.6216V14.5555C98.1976 10.3411 94.4194 7.685 89.6707 7.685ZM94.5927 22.2404C93.7608 24.507 91.9931 25.8527 89.636 25.8527C87.3137 25.8527 85.4766 24.507 84.6447 22.2404V15.9366C85.4766 13.6701 87.2444 12.2889 89.636 12.2889C91.9931 12.2889 93.7262 13.6701 94.5581 15.9366L94.5927 22.2404ZM132.79 7.685C127.972 7.685 124.194 10.3411 122.634 14.5909V23.5862C124.194 27.836 127.972 30.4921 132.79 30.4921C137.608 30.4921 141.352 27.836 142.877 23.6216V14.5555C141.352 10.3411 137.574 7.685 132.79 7.685ZM137.712 22.2404C136.88 24.507 135.113 25.8527 132.79 25.8527C130.468 25.8527 128.631 24.507 127.799 22.2404V15.9366C128.631 13.6701 130.399 12.2889 132.79 12.2889C135.182 12.2889 136.88 13.6701 137.712 15.9366V22.2404ZM161.456 8.4287V10.8015C160.104 8.74744 157.99 7.72041 155.078 7.72041C151.127 7.72041 147.938 10.1994 146.551 14.1305V22.9487C147.903 26.8798 151.092 29.3234 155.078 29.3234C157.747 29.3234 159.757 28.4026 161.179 26.5965V28.2964C161.179 31.8378 159.168 33.5023 156.049 33.5023C153.726 33.5023 151.82 32.794 148.769 30.9525L146.17 34.8835C149.116 36.9021 152.582 38 156.118 38.0354C162.01 38.0354 166.343 34.8127 166.343 28.7922V8.4287H161.456ZM160.797 21.4259C160 23.4445 158.336 24.7195 156.256 24.7195C154.177 24.7195 152.513 23.48 151.716 21.4259V15.5825C152.513 13.5638 154.142 12.3243 156.256 12.3243C158.371 12.3243 160 13.5638 160.797 15.5825V21.4259Z" fill="white" style="fill:white;fill-opacity:1;"/>
</g>
<defs>
<clipPath id="clip0_1_1461">
<rect width="200" height="39" fill="white" style="fill:white;fill-opacity:1;"/>
</clipPath>
</defs>
</svg>
