<svg width="200" height="42" viewBox="0 0 200 42" fill="none" xmlns="http://www.w3.org/2000/svg">
<g clip-path="url(#clip0_1_1465)">
<path d="M54.8265 33.4923C53.2726 33.4923 51.8786 33.2304 50.6471 32.709C49.4156 32.1875 48.4095 31.4382 47.6338 30.4608L50.298 28.1617C50.9647 28.9159 51.7065 29.4616 52.5283 29.7939C53.3501 30.1261 54.2156 30.2935 55.1247 30.2935C55.5029 30.2935 55.8398 30.2498 56.1405 30.1601C56.4411 30.0728 56.7005 29.9394 56.9235 29.7599C57.1441 29.5829 57.3162 29.3767 57.4398 29.1439C57.5611 28.9111 57.6241 28.6492 57.6241 28.3605C57.6241 27.827 57.4253 27.405 57.0253 27.0946C56.8023 26.9394 56.4532 26.772 55.9756 26.595C55.498 26.4179 54.8823 26.2409 54.1283 26.0614C52.9283 25.751 51.9295 25.3897 51.132 24.9798C50.332 24.5699 49.7114 24.1091 49.2677 23.5974C48.8895 23.1754 48.6059 22.6977 48.4192 22.1641C48.2302 21.6306 48.1356 21.0534 48.1356 20.4325C48.1356 19.6564 48.3077 18.9507 48.652 18.3177C48.9962 17.6847 49.4689 17.1342 50.0677 16.6686C50.6665 16.2029 51.3671 15.8464 52.1647 15.6039C52.9647 15.3589 53.7962 15.2377 54.6617 15.2377C55.5271 15.2377 56.4095 15.3492 57.2411 15.5699C58.0726 15.793 58.8508 16.1083 59.5708 16.5182C60.2908 16.9305 60.9089 17.4228 61.418 18L59.1538 20.498C58.732 20.0978 58.2714 19.7437 57.772 19.4333C57.2726 19.1229 56.7683 18.8731 56.2568 18.6839C55.7453 18.4947 55.2677 18.4002 54.8241 18.4002C54.3805 18.4002 54.0241 18.439 53.692 18.5166C53.3598 18.5942 53.0811 18.7106 52.8605 18.8658C52.6374 19.021 52.4653 19.215 52.3441 19.4479C52.2229 19.6807 52.1598 19.9523 52.1598 20.2627C52.1817 20.5295 52.2544 20.7793 52.3756 21.0121C52.4968 21.2449 52.6689 21.439 52.892 21.5942C53.1368 21.7494 53.5029 21.9264 53.9902 22.1277C54.4774 22.3266 55.1101 22.5158 55.8883 22.6928C56.9768 22.9814 57.8859 23.304 58.618 23.658C59.3502 24.0146 59.9271 24.4244 60.3489 24.8901C60.7708 25.2902 61.0689 25.7559 61.2483 26.2894C61.4253 26.823 61.515 27.4123 61.515 28.055C61.515 29.1002 61.2217 30.0315 60.6326 30.8537C60.0435 31.6758 59.2459 32.3185 58.235 32.7866C57.2241 33.2522 56.0871 33.485 54.8217 33.485L54.8265 33.4923Z" fill="#00B295" style="fill:#00B295;fill:color(display-p3 0.0000 0.6980 0.5843);fill-opacity:1;"/>
<path d="M76.8025 15.6039V26.1293C76.8025 26.6847 76.7031 27.2013 76.5019 27.6791C76.3031 28.1568 76.0244 28.5667 75.6704 28.9111C75.3141 29.2555 74.8995 29.5222 74.4219 29.7114C73.9444 29.9006 73.4183 29.9952 72.8413 29.9952C72.0631 29.9952 71.3989 29.8181 70.8438 29.4616C70.2886 29.1075 69.8668 28.6007 69.5783 27.9458C69.2898 27.291 69.1444 26.4956 69.1444 25.5643V15.6039H65.0498V26.4301C65.0498 27.8949 65.2947 29.156 65.7819 30.211C66.2692 31.266 66.9795 32.076 67.9128 32.6435C68.8462 33.2086 69.9444 33.4923 71.2098 33.4923C72.1868 33.4923 73.108 33.2983 73.9734 32.9103C74.8389 32.5222 75.588 32.0008 76.2207 31.3436C76.4583 31.0986 76.6692 30.8391 76.8559 30.5651L76.9019 33.1576H80.8971V15.6039H76.8025Z" fill="#00B295" style="fill:#00B295;fill:color(display-p3 0.0000 0.6980 0.5843);fill-opacity:1;"/>
<path d="M96.1307 15.3371C95.7865 15.2716 95.4252 15.2377 95.0495 15.2377C94.184 15.2377 93.3574 15.4438 92.5695 15.8537C91.7816 16.266 91.0883 16.8262 90.4895 17.5368C90.2059 17.8739 89.9634 18.2304 89.7598 18.6063L89.7234 15.6039H85.6943V33.1576H89.8228V23.7987C89.8228 23.1778 89.9271 22.6152 90.138 22.1156C90.3489 21.616 90.6422 21.177 91.0204 20.8011C91.3986 20.4228 91.8349 20.1293 92.3368 19.9183C92.8362 19.7074 93.3622 19.6031 93.9174 19.6031C94.2713 19.6031 94.6277 19.6467 94.9816 19.7365C95.3355 19.8262 95.6362 19.9353 95.881 20.0687L96.9792 15.5724C96.7562 15.4826 96.4749 15.405 96.1307 15.3395V15.3371Z" fill="#00B295" style="fill:#00B295;fill:color(display-p3 0.0000 0.6980 0.5843);fill-opacity:1;"/>
<path d="M114.86 23.8642C114.882 22.62 114.698 21.4705 114.31 20.4155C113.922 19.3606 113.362 18.4511 112.628 17.6847C111.896 16.9184 111.03 16.3145 110.031 15.8682C109.033 15.4244 107.956 15.2013 106.802 15.2013C105.493 15.2013 104.288 15.4293 103.19 15.8852C102.092 16.3411 101.147 16.9838 100.361 17.8181C99.5732 18.65 98.9575 19.6346 98.5138 20.7672C98.0702 21.8998 97.8472 23.1536 97.8472 24.5311C97.8472 26.2627 98.2399 27.8003 99.0302 29.1439C99.8181 30.4875 100.916 31.5473 102.327 32.3258C103.736 33.1043 105.362 33.4923 107.205 33.4923C108.027 33.4923 108.858 33.3808 109.702 33.1601C110.545 32.9394 111.35 32.6338 112.116 32.2433C112.882 31.8553 113.564 31.3824 114.165 30.827L112.133 27.9968C111.333 28.6855 110.589 29.1633 109.903 29.4301C109.214 29.6968 108.461 29.8302 107.639 29.8302C106.463 29.8302 105.435 29.6023 104.56 29.1463C103.682 28.6904 103.006 28.0428 102.528 27.1964C102.208 26.6289 101.997 25.996 101.891 25.2975H114.831L114.865 23.8642H114.86ZM104.056 19.4673C104.8 19.0453 105.714 18.8343 106.802 18.8343C107.513 18.8343 108.162 18.9846 108.749 19.2829C109.338 19.5837 109.821 19.9935 110.199 20.515C110.577 21.0364 110.797 21.6427 110.865 22.3314V22.4988H101.976C102.07 22.0525 102.201 21.6475 102.376 21.2838C102.754 20.4956 103.314 19.8917 104.058 19.4673H104.056Z" fill="#00B295" style="fill:#00B295;fill:color(display-p3 0.0000 0.6980 0.5843);fill-opacity:1;"/>
<path d="M128.877 24.9628C128.434 24.5845 127.871 24.2571 127.195 23.9806C126.519 23.7041 125.692 23.4301 124.715 23.1657C123.871 22.945 123.166 22.7268 122.601 22.5158C122.036 22.3048 121.597 22.0768 121.285 21.8319C121.04 21.633 120.851 21.3978 120.717 21.1334C120.584 20.8666 120.519 20.5683 120.519 20.2336C120.519 19.8335 120.601 19.4673 120.768 19.135C120.936 18.8028 121.178 18.519 121.5 18.2862C121.823 18.0534 122.211 17.8691 122.666 17.7357C123.122 17.6023 123.614 17.5368 124.148 17.5368C124.746 17.5368 125.331 17.6362 125.896 17.8375C126.46 18.0364 127.001 18.3153 127.51 18.6694C128.022 19.0259 128.487 19.4236 128.909 19.8674L130.441 18.2013C129.951 17.6241 129.365 17.1245 128.676 16.7025C127.988 16.2805 127.246 15.958 126.446 15.7373C125.646 15.5166 124.836 15.405 124.014 15.405C123.149 15.405 122.344 15.5214 121.6 15.7543C120.856 15.9871 120.213 16.3315 119.668 16.7874C119.125 17.2433 118.703 17.7696 118.402 18.3687C118.102 18.9677 117.954 19.6225 117.954 20.3331C117.954 20.8885 118.036 21.3978 118.203 21.8658C118.371 22.3315 118.62 22.7656 118.953 23.1657C119.418 23.6556 120.063 24.0825 120.885 24.4487C121.706 24.8149 122.737 25.1762 123.98 25.5303C124.734 25.7292 125.379 25.9353 125.913 26.1463C126.446 26.3573 126.856 26.5635 127.144 26.7623C127.789 27.2522 128.109 27.861 128.109 28.5934C128.109 28.9936 128.019 29.3598 127.842 29.692C127.665 30.0243 127.408 30.3129 127.076 30.5578C126.744 30.8028 126.354 30.9847 125.91 31.1083C125.466 31.2296 124.967 31.2927 124.412 31.2927C123.323 31.2927 122.342 31.0938 121.466 30.6936C120.589 30.2935 119.83 29.7066 119.185 28.9281L117.42 30.4608C118.109 31.3727 119.04 32.1051 120.218 32.6605C121.394 33.2159 122.727 33.4923 124.213 33.4923C125.433 33.4923 126.521 33.2765 127.476 32.8424C128.431 32.4083 129.18 31.8165 129.723 31.0598C130.266 30.3056 130.538 29.4398 130.538 28.4624C130.538 27.73 130.41 27.0752 130.155 26.498C129.9 25.9208 129.471 25.4115 128.873 24.9653L128.877 24.9628Z" fill="#00C58B" style="fill:#00C58B;fill:color(display-p3 0.0000 0.7725 0.5451);fill-opacity:1;"/>
<path d="M139.367 11.2069H136.868V15.7712H132.94V18.1697H136.868V33.1576H139.367V18.1697H143.762V15.7712H139.367V11.2069Z" fill="#00C58B" style="fill:#00C58B;fill:color(display-p3 0.0000 0.7725 0.5451);fill-opacity:1;"/>
<path d="M159.876 18.8391C159.828 18.7543 159.782 18.6694 159.729 18.5869C159.319 17.9539 158.807 17.3986 158.196 16.9208C157.586 16.443 156.892 16.072 156.116 15.8052C155.338 15.5384 154.497 15.405 153.586 15.405C152.053 15.405 150.672 15.7931 149.44 16.5716C148.209 17.3501 147.227 18.4147 146.492 19.7704C145.76 21.1261 145.394 22.6807 145.394 24.4341C145.394 26.1876 145.748 27.7155 146.461 29.0809C147.171 30.4463 148.136 31.5231 149.358 32.3113C150.579 33.0994 151.944 33.4948 153.452 33.4948C154.318 33.4948 155.144 33.3614 155.932 33.0946C156.72 32.8278 157.43 32.4616 158.063 31.996C158.696 31.5303 159.234 30.9919 159.678 30.3808C159.763 30.2644 159.838 30.1455 159.91 30.0267V33.1601H162.441V15.7712H159.944L159.876 18.8391ZM159.261 27.8779C158.74 28.8893 158.022 29.6775 157.113 30.2425C156.204 30.8076 155.171 31.0914 154.017 31.0914C152.863 31.0914 151.796 30.8028 150.887 30.2256C149.976 29.6484 149.268 28.8553 148.756 27.844C148.245 26.8327 147.99 25.6952 147.99 24.4293C147.99 23.1633 148.25 21.9968 148.773 20.9976C149.295 19.9984 150.005 19.2102 150.904 18.633C151.804 18.0558 152.841 17.7672 154.017 17.7672C155.193 17.7672 156.204 18.0558 157.113 18.633C158.022 19.2102 158.74 19.9984 159.261 20.9976C159.782 21.9968 160.044 23.1415 160.044 24.4293C160.044 25.7171 159.782 26.8666 159.261 27.8779Z" fill="#00C58B" style="fill:#00C58B;fill:color(display-p3 0.0000 0.7725 0.5451);fill-opacity:1;"/>
<path d="M171.598 18.6184C172.531 18.0291 173.583 17.7356 174.761 17.7356C175.428 17.7356 176.097 17.852 176.776 18.0849C177.452 18.3177 178.085 18.6451 178.674 19.0671C179.263 19.4891 179.767 19.979 180.189 20.5319L181.653 18.7324C180.921 17.6896 179.944 16.8723 178.722 16.2829C177.501 15.696 176.148 15.4001 174.659 15.4001C172.994 15.4001 171.518 15.7882 170.23 16.5667C168.943 17.3452 167.927 18.4147 167.183 19.7801C166.439 21.1455 166.068 22.6952 166.068 24.4268C166.068 26.1584 166.439 27.7081 167.183 29.0735C167.927 30.4389 168.943 31.5157 170.23 32.3039C171.518 33.0921 172.982 33.4875 174.625 33.4875C175.978 33.4875 177.29 33.1867 178.555 32.5877C179.821 31.9887 180.829 31.1883 181.585 30.1892L180.121 28.3896C179.632 28.9887 179.101 29.4883 178.524 29.8884C177.947 30.2886 177.336 30.5942 176.693 30.8052C176.048 31.0162 175.394 31.1204 174.73 31.1204C173.576 31.1204 172.531 30.8318 171.6 30.2546C170.669 29.6774 169.93 28.8844 169.387 27.8731C168.844 26.8617 168.572 25.7146 168.572 24.4244C168.572 23.1342 168.844 21.9919 169.387 20.9927C169.93 19.9935 170.669 19.2005 171.6 18.6111L171.598 18.6184Z" fill="#00C58B" style="fill:#00C58B;fill:color(display-p3 0.0000 0.7725 0.5451);fill-opacity:1;"/>
<path d="M196.737 33.1576H200L191.501 23.3088L199.399 15.7712H196.036L187.311 24.3056V8.50769H184.814V33.1576H187.311V27.308L189.714 25.0162L196.737 33.1576Z" fill="#00C58B" style="fill:#00C58B;fill:color(display-p3 0.0000 0.7725 0.5451);fill-opacity:1;"/>
<path d="M23.6945 22.4115L25.6703 21.1673L26.0558 20.9224L27.6436 19.9232L29.6194 18.6766L31.5927 17.4325L32.897 16.6103L33.5661 16.1859L35.5418 14.9418L37.5152 13.6977L39.4909 12.4511L39.2461 12.2959L37.5152 11.207L35.5418 9.96039L33.5661 8.71625L32.4048 7.98383L31.5927 7.46968L29.6194 6.22555L27.6436 4.98141L25.6703 6.22555L23.6945 7.46968L22.8824 7.98383L21.7188 8.71625L19.7455 9.96039L17.7697 11.207L16.0436 12.2959L15.7964 12.4511L13.8206 13.6977L11.8473 14.9418L9.87152 13.6952L7.89818 12.4511L8.14303 12.2959L9.87152 11.207L11.8473 9.96039L13.8206 8.71625L14.9842 7.98383L15.7964 7.46968L17.7697 6.22555L19.7455 4.98141L21.7188 3.73484V3.66936H21.823L23.6945 2.4907L21.7188 1.24656L19.7455 0L17.7697 1.24656L15.7964 2.4907L13.9248 3.66936L13.8206 3.73484L11.8473 4.98141L9.87152 6.22555L7.89818 7.46968L7.08606 7.98383L5.92485 8.71625L3.94909 9.96039L1.97576 11.207L0.244848 12.2959L0 12.4511L1.97576 13.6977L3.94909 14.9418L5.92485 16.1859L6.59394 16.6103L7.89818 17.4325L9.87152 18.6766L11.8473 19.9232L13.8206 18.6766L15.7964 17.4325L17.1006 16.6103L17.7697 16.1859L19.7455 14.9418L21.7188 13.6977L23.6945 12.4511L23.9394 12.2959L25.6703 11.207L27.6436 9.96039L29.6194 11.207L31.3479 12.2959L31.5927 12.4511L29.6194 13.6977L27.6436 14.9418L25.6703 16.1859L24.9988 16.6103L23.6945 17.4325L21.7188 18.6766L19.7455 19.9232L18.1576 20.9224L17.7697 21.1673L15.7964 22.4115L17.7697 23.658L19.7455 24.9022L21.7188 23.658L23.6945 22.4115Z" fill="#00B295" style="fill:#00B295;fill:color(display-p3 0.0000 0.6980 0.5843);fill-opacity:1;"/>
<path d="M19.7455 30.6693L0.00732422 18.2207L0.0364151 14.1002L19.7455 26.5295L39.4546 14.1002L39.491 18.2182L19.7455 30.6693Z" fill="#00C58B" style="fill:#00C58B;fill:color(display-p3 0.0000 0.7725 0.5451);fill-opacity:1;"/>
<path d="M19.7455 36.4607L0.00732422 24.0145L0.0364151 19.894L19.7455 32.3209L39.4546 19.894L39.491 24.0096L19.7455 36.4607Z" fill="#00C58B" style="fill:#00C58B;fill:color(display-p3 0.0000 0.7725 0.5451);fill-opacity:1;"/>
<path d="M19.7455 42L0.00732422 29.5538L0.0364151 25.4333L19.7455 37.8602L39.4546 25.4333L39.491 29.549L19.7455 42Z" fill="#00C58B" style="fill:#00C58B;fill:color(display-p3 0.0000 0.7725 0.5451);fill-opacity:1;"/>
</g>
<defs>
<clipPath id="clip0_1_1465">
<rect width="200" height="42" fill="white" style="fill:white;fill-opacity:1;"/>
</clipPath>
</defs>
</svg>
