<svg width="192" height="49" viewBox="0 0 192 49" fill="none" xmlns="http://www.w3.org/2000/svg">
<g clip-path="url(#clip0_1_1480)">
<path d="M63.6588 21.1758C63.6588 20.3919 64.3853 19.9998 65.4478 19.9998C66.5728 19.9998 68.3384 20.5757 69.8307 21.4798L71.0571 18.7838C69.6509 17.8398 67.6822 17.2238 65.7135 17.2238C62.4556 17.2238 60.2681 18.8718 60.2681 21.4798C60.2681 26.5838 67.7604 24.9998 67.7604 27.7118C67.7604 28.5999 66.9791 29.0878 65.6743 29.0878C64.19 29.0878 62.1353 28.2479 60.6899 26.9278L59.4243 29.5838C61.0104 30.9598 63.3228 31.8639 65.6353 31.8639C68.7525 31.8639 71.1432 30.3438 71.1432 27.5198C71.1509 22.3518 63.6588 23.8318 63.6588 21.1758Z" fill="#00C58B" style="fill:#00C58B;fill:color(display-p3 0.0000 0.7725 0.5451);fill-opacity:1;"/>
<path d="M87.3642 28.2397L84.3955 17.3757H81.2783L78.3487 28.2397L75.3877 17.3757H71.9736L76.6143 31.7757H79.8955L82.7862 21.5037L85.6221 31.7757H88.8955L93.5518 17.3757H90.3018L87.3642 28.2397Z" fill="#00C58B" style="fill:#00C58B;fill:color(display-p3 0.0000 0.7725 0.5451);fill-opacity:1;"/>
<path d="M98.539 25.8877H106.094V23.1917H98.539V20.0637H106.969V17.3757H95.3672V31.7757H106.969V29.0797H98.539V25.8877Z" fill="#00C58B" style="fill:#00C58B;fill:color(display-p3 0.0000 0.7725 0.5451);fill-opacity:1;"/>
<path d="M111.933 25.8877H119.487V23.1917H111.933V20.0637H120.362V17.3757H108.753V31.7757H120.362V29.0797H111.933V25.8877Z" fill="#00C58B" style="fill:#00C58B;fill:color(display-p3 0.0000 0.7725 0.5451);fill-opacity:1;"/>
<path d="M122.128 20.1277H126.276V31.7757H129.456V20.1277H133.667V17.3757H122.128V20.1277Z" fill="#00C58B" style="fill:#00C58B;fill:color(display-p3 0.0000 0.7725 0.5451);fill-opacity:1;"/>
<path d="M146.852 22.3757C146.852 19.1837 144.766 17.3757 141.086 17.3757H135.305V31.7757H138.157V27.6637H141.093H141.399L143.626 31.7757H147.218L144.227 27.0237C145.921 26.1996 146.852 24.5917 146.852 22.3757ZM141.078 24.9437H138.141V20.0637H141.078C142.828 20.0637 143.828 20.8637 143.828 22.4716C143.835 24.1196 142.828 24.9437 141.078 24.9437Z" fill="#00C58B" style="fill:#00C58B;fill:color(display-p3 0.0000 0.7725 0.5451);fill-opacity:1;"/>
<path d="M165.98 21.1758C165.98 20.3919 166.707 19.9998 167.769 19.9998C168.894 19.9998 170.661 20.5757 172.152 21.4798L173.379 18.7838C171.973 17.8398 170.004 17.2238 168.035 17.2238C164.778 17.2238 162.59 18.8718 162.59 21.4798C162.59 26.5838 170.082 24.9998 170.082 27.7118C170.082 28.5999 169.302 29.0878 167.996 29.0878C166.511 29.0878 164.456 28.2479 163.011 26.9278L161.747 29.5838C163.332 30.9598 165.645 31.8639 167.956 31.8639C171.075 31.8639 173.465 30.3438 173.465 27.5198C173.473 22.3518 165.98 23.8318 165.98 21.1758Z" fill="#00C58B" style="fill:#00C58B;fill:color(display-p3 0.0000 0.7725 0.5451);fill-opacity:1;"/>
<path d="M183.682 17.3757V23.3837H177.682V17.3757H174.901V31.7757H177.682V26.0957H183.682V31.7757H186.463V17.3757H183.682Z" fill="#00C58B" style="fill:#00C58B;fill:color(display-p3 0.0000 0.7725 0.5451);fill-opacity:1;"/>
<path d="M157.352 28.9921H154.773C152.914 28.968 151.634 27.76 151.618 25.712V17.416L148.548 17.472V25.76C148.548 32.1199 154.828 31.8001 154.828 31.8001H160.266V17.416H157.359V28.9921H157.352Z" fill="#00C58B" style="fill:#00C58B;fill:color(display-p3 0.0000 0.7725 0.5451);fill-opacity:1;"/>
<path d="M191.034 17.7839C191.292 17.936 191.503 18.144 191.652 18.416C191.8 18.68 191.878 18.984 191.878 19.304C191.878 19.632 191.8 19.928 191.652 20.2C191.496 20.472 191.292 20.688 191.027 20.84C190.761 21 190.472 21.0719 190.152 21.0719C189.831 21.0719 189.542 20.9919 189.285 20.84C189.027 20.68 188.816 20.472 188.668 20.2C188.518 19.928 188.441 19.632 188.441 19.312C188.441 18.992 188.518 18.696 188.668 18.424C188.816 18.152 189.027 17.9439 189.292 17.7839C189.558 17.624 189.847 17.552 190.168 17.552C190.487 17.552 190.776 17.632 191.034 17.7839ZM190.917 20.6481C191.144 20.5121 191.324 20.328 191.456 20.088C191.589 19.848 191.652 19.5919 191.652 19.304C191.652 19.016 191.589 18.76 191.456 18.528C191.331 18.2959 191.152 18.112 190.925 17.976C190.699 17.8401 190.448 17.776 190.159 17.776C189.878 17.776 189.628 17.848 189.394 17.984C189.168 18.12 188.987 18.304 188.855 18.544C188.723 18.776 188.659 19.04 188.659 19.3199C188.659 19.6 188.723 19.8641 188.855 20.096C188.987 20.328 189.168 20.52 189.394 20.656C189.62 20.792 189.871 20.8641 190.152 20.8641C190.432 20.856 190.683 20.784 190.917 20.6481ZM190.925 19.384C190.855 19.488 190.754 19.568 190.62 19.6159L191.066 20.3199H190.73L190.324 19.68H190.238H189.792V20.3199H189.463V18.3199H190.245C190.487 18.3199 190.683 18.384 190.824 18.504C190.963 18.624 191.034 18.792 191.034 19.0001C191.034 19.144 191.003 19.272 190.925 19.384ZM190.582 19.288C190.668 19.2161 190.714 19.12 190.714 18.992C190.714 18.8639 190.668 18.768 190.582 18.6959C190.496 18.624 190.37 18.5919 190.214 18.5919H189.785V19.384H190.214C190.378 19.3999 190.496 19.36 190.582 19.288Z" fill="#00C58B" style="fill:#00C58B;fill:color(display-p3 0.0000 0.7725 0.5451);fill-opacity:1;"/>
<path d="M52.5912 27.1038L52.6381 27.0557L52.646 11.4318L41.5522 0.991785L41.5053 0.951782H33.0522L26.474 7.15178L24.7632 5.54379V19.2878L26.474 20.8958L36.8725 11.0798L42.9897 16.8398V22.4157L26.474 37.9598L24.7632 36.3518V48.1598H30.224L52.5912 27.1038Z" fill="url(#paint0_linear_1_1480)"/>
<path d="M26.4741 37.9598L20.2476 32.0958L14.9507 33.8238L15.8179 27.9278L9.95068 22.4157V16.8398L16.0679 11.0798L26.4741 20.8958V7.15178L19.8882 0.951782H11.4351L0.34912 11.3918L0.302246 11.4318V27.0557L7.13818 33.4797L4.19287 45.7838L15.0835 40.9597L22.7163 48.1598H26.4741V37.9598Z" fill="url(#paint1_linear_1_1480)"/>
<mask id="mask0_1_1480" style="mask-type:luminance" maskUnits="userSpaceOnUse" x="0" y="0" width="53" height="49">
<path d="M41.5523 0.991785L41.5054 0.951782H33.0523L26.4663 7.15978L19.8804 0.951782H11.4351L0.34912 11.3918L0.302246 11.4398V27.0638L7.13818 33.4879L4.20068 45.7917L15.0835 40.9597L22.7163 48.1598H30.2163L52.5835 27.1038L52.6304 27.0557V11.4318L41.5523 0.991785ZM42.9897 16.8398V22.4157L26.4741 37.9598L20.2476 32.0958L14.9585 33.8238L15.8179 27.9278L9.95849 22.4157V16.8398L16.0756 11.0798L26.482 20.8958L36.8882 11.0798L42.9897 16.8398Z" fill="white" style="fill:white;fill-opacity:1;"/>
</mask>
<g mask="url(#mask0_1_1480)">
<path d="M53.2695 11.0724L41.7305 0.184448L40.9492 2.72845L43.457 16.5925L53.2695 11.0724Z" fill="#00C58B" style="fill:#00C58B;fill:color(display-p3 0.0000 0.7725 0.5451);fill-opacity:1;"/>
<path d="M21.1571 30.6482L21.1102 30.6562L15.0635 41.0001L26.4697 38.2002L26.4618 37.8723L21.1571 30.6482Z" fill="#00C58B" style="fill:#00C58B;fill:color(display-p3 0.0000 0.7725 0.5451);fill-opacity:1;"/>
<path d="M15.0084 33.7679L16.2974 27.5678L16.2739 27.5438L7.10205 33.4798L14.7427 34.0798L15.0084 33.7679Z" fill="#00C58B" style="fill:#00C58B;fill:color(display-p3 0.0000 0.7725 0.5451);fill-opacity:1;"/>
<path d="M7.10205 33.4803L16.2739 27.5443L9.96143 22.3843L9.77392 22.4963L7.10205 33.4803Z" fill="#00C58B" style="fill:#00C58B;fill:color(display-p3 0.0000 0.7725 0.5451);fill-opacity:1;"/>
<path d="M21.1137 30.6559L15.0044 33.7599L14.7388 34.0799L15.0669 40.9999L21.1137 30.6559Z" fill="#00C58B" style="fill:#00C58B;fill:color(display-p3 0.0000 0.7725 0.5451);fill-opacity:1;"/>
<path d="M30.2129 48.1842L43.2363 22.5361L42.9473 22.4001L26.4629 37.8721L26.4708 38.2001L30.2129 48.1842Z" fill="#71BE5A" style="fill:#71BE5A;fill:color(display-p3 0.4431 0.7451 0.3529);fill-opacity:1;"/>
<path d="M26.4742 38.1761L22.6226 48.4481L25.9742 49.0321L30.2633 48.2481L26.4742 38.1761Z" fill="#00C58B" style="fill:#00C58B;fill:color(display-p3 0.0000 0.7725 0.5451);fill-opacity:1;"/>
<path d="M26.2118 38.0325L15.1102 40.7765L15.0635 41.0005L22.6102 48.4485H22.6181L26.4618 38.1764L26.2118 38.0325Z" fill="#00C58B" style="fill:#00C58B;fill:color(display-p3 0.0000 0.7725 0.5451);fill-opacity:1;"/>
<path d="M42.9614 22.4086L43.188 22.5045L30.0942 47.8406L30.2583 48.2486L52.6647 27.0725L52.6568 27.0645L42.9614 22.4086Z" fill="#00C58B" style="fill:#00C58B;fill:color(display-p3 0.0000 0.7725 0.5451);fill-opacity:1;"/>
<path d="M20.0313 0.560547H20.0236L11.4454 0.920542H11.4375L11.5236 1.22455L16.0547 11.1285L20.0313 0.560547Z" fill="#D00C58" fill-opacity="0.698039" style="fill:#D00C58;fill:color(display-p3 0.8157 0.0471 0.3451);fill-opacity:0.698039;"/>
<path d="M16.0571 11.1283L16.065 10.8563L11.4868 1.15234L9.72119 16.7443L9.96337 16.8404L16.0571 11.1283Z" fill="#00C58B" style="fill:#00C58B;fill:color(display-p3 0.0000 0.7725 0.5451);fill-opacity:1;"/>
<path d="M16.0668 11.1279L26.5044 23.7918L26.4653 7.46387L16.0668 10.8639L16.0591 11.1279H16.0668Z" fill="#00C58B" style="fill:#00C58B;fill:color(display-p3 0.0000 0.7725 0.5451);fill-opacity:1;"/>
<path d="M7.10399 33.4804L3.61963 46.3925L15.0649 41.0005L15.1041 40.7765L7.30712 33.4244L7.10399 33.4804Z" fill="#00C58B" style="fill:#00C58B;fill:color(display-p3 0.0000 0.7725 0.5451);fill-opacity:1;"/>
<path d="M11.5107 1.14392L11.4404 0.919922L-0.473633 10.9919L9.75293 16.7199L11.5107 1.14392Z" fill="#00C58B" style="fill:#00C58B;fill:color(display-p3 0.0000 0.7725 0.5451);fill-opacity:1;"/>
<path d="M9.79199 16.7682L-0.473633 10.9922V11.9842L0.221677 27.0962L0.51855 26.9522L9.79199 16.7682Z" fill="#00C58B" style="fill:#00C58B;fill:color(display-p3 0.0000 0.7725 0.5451);fill-opacity:1;"/>
<path d="M9.82129 22.5681L0.219727 27.096L7.10254 33.4801L7.29785 33.4321L9.82129 22.5681Z" fill="#00C58B" style="fill:#00C58B;fill:color(display-p3 0.0000 0.7725 0.5451);fill-opacity:1;"/>
<path d="M9.96582 22.3839V16.84L9.78613 16.7679L0.489258 26.9199L9.78613 22.4959L9.96582 22.3839Z" fill="#00C58B" style="fill:#00C58B;fill:color(display-p3 0.0000 0.7725 0.5451);fill-opacity:1;"/>
<path d="M26.4668 7.10455L20.0371 0.560547L16.1309 10.8805L26.4589 7.55254L26.4668 7.10455Z" fill="#00C58B" style="fill:#00C58B;fill:color(display-p3 0.0000 0.7725 0.5451);fill-opacity:1;"/>
<path d="M42.7866 16.9443L42.9428 22.4084H42.9662L52.4038 26.9444L43.1538 16.7604L42.7866 16.9443Z" fill="#CBD00C" fill-opacity="0.345098" style="fill:#CBD00C;fill:color(display-p3 0.7961 0.8157 0.0471);fill-opacity:0.345098;"/>
<path d="M52.6611 27.0641H52.669L53.458 12.472L53.2705 11.072L43.458 16.5921L52.6611 27.0641Z" fill="#00C58B" style="fill:#00C58B;fill:color(display-p3 0.0000 0.7725 0.5451);fill-opacity:1;"/>
<path d="M14.7787 34.048L7.3335 33.48L15.06 40.7519L14.7787 34.048Z" fill="#00C58B" style="fill:#00C58B;fill:color(display-p3 0.0000 0.7725 0.5451);fill-opacity:1;"/>
<path d="M26.4629 7.11206L26.5019 23.7921L36.8691 11.0801L26.4629 7.11206Z" fill="#00C58B" style="fill:#00C58B;fill:color(display-p3 0.0000 0.7725 0.5451);fill-opacity:1;"/>
<path d="M36.8691 11.0802V10.7762L32.7363 0.144165L26.4629 7.11217L36.8691 11.0802Z" fill="#00C58B" style="fill:#00C58B;fill:color(display-p3 0.0000 0.7725 0.5451);fill-opacity:1;"/>
<path d="M42.7862 16.9443L43.1533 16.7603L41.4659 1.43231L41.2628 1.32031L36.8721 10.4163V11.0803L42.7862 16.9443Z" fill="#00C58B" style="fill:#00C58B;fill:color(display-p3 0.0000 0.7725 0.5451);fill-opacity:1;"/>
<path d="M36.9068 8.27216L41.3677 1.33616L41.6568 0.384167L32.7428 0.144165H32.7349L36.8677 10.8642L36.9068 8.27216Z" fill="#00C58B" style="fill:#00C58B;fill:color(display-p3 0.0000 0.7725 0.5451);fill-opacity:1;"/>
</g>
<mask id="mask1_1_1480" style="mask-type:luminance" maskUnits="userSpaceOnUse" x="0" y="0" width="53" height="49">
<path d="M41.5523 0.991785L41.5054 0.951782H33.0523L26.4663 7.15978L19.8804 0.951782H11.4351L0.34912 11.3918L0.302246 11.4398V27.0638L7.13818 33.4879L4.20068 45.7917L15.0835 40.9597L22.7163 48.1598H30.2163L52.5835 27.1038L52.6304 27.0557V11.4318L41.5523 0.991785ZM42.9897 16.8398V22.4157L26.4741 37.9598L20.2476 32.0958L14.9585 33.8238L15.8179 27.9278L9.95849 22.4157V16.8398L16.0756 11.0798L26.482 20.8958L36.8882 11.0798L42.9897 16.8398Z" fill="white" style="fill:white;fill-opacity:1;"/>
</mask>
<g mask="url(#mask1_1_1480)">
<path d="M56.0528 -0.360352H-1.15039V50.0397H56.0528V-0.360352Z" fill="#00C58B" fill-opacity="0.25" style="fill:#00C58B;fill:color(display-p3 0.0000 0.7725 0.5451);fill-opacity:0.25;"/>
</g>
<path d="M20.2071 32.28L20.1602 32.2881L15.1133 40.7761L26.4648 38.1761L20.2071 32.28Z" fill="#00C58B" style="fill:#00C58B;fill:color(display-p3 0.0000 0.7725 0.5451);fill-opacity:1;"/>
<path d="M14.7593 34.0557L15.6422 27.9918L15.6186 27.9678L7.30615 33.4317L14.7593 34.0557Z" fill="#00C58B" style="fill:#00C58B;fill:color(display-p3 0.0000 0.7725 0.5451);fill-opacity:1;"/>
<path d="M7.30615 33.4323L15.6186 27.9682L9.79053 22.4882L7.30615 33.4323Z" fill="#00C58B" style="fill:#00C58B;fill:color(display-p3 0.0000 0.7725 0.5451);fill-opacity:1;"/>
<path d="M20.1592 32.2877L14.7686 34.0558H14.7607L15.1123 40.7758L20.1592 32.2877Z" fill="#00C58B" style="fill:#00C58B;fill:color(display-p3 0.0000 0.7725 0.5451);fill-opacity:1;"/>
<path d="M30.1616 48.0079L43.1382 22.4958L26.4741 38.1759L30.1616 48.0079Z" fill="#71BE5A" style="fill:#71BE5A;fill:color(display-p3 0.4431 0.7451 0.3529);fill-opacity:1;"/>
<path d="M26.4722 38.176L22.7769 48.008H26.4643H26.4722H30.1597L26.4722 38.176Z" fill="#00C58B" style="fill:#00C58B;fill:color(display-p3 0.0000 0.7725 0.5451);fill-opacity:1;"/>
<path d="M26.4727 38.176H26.4648L15.1133 40.776L22.7774 48.008L26.4727 38.176Z" fill="#00C58B" style="fill:#00C58B;fill:color(display-p3 0.0000 0.7725 0.5451);fill-opacity:1;"/>
<path d="M43.145 22.4882L43.1373 22.4963L30.1606 48.0081L52.4809 26.9922V26.9842L43.145 22.4882Z" fill="#00C58B" style="fill:#00C58B;fill:color(display-p3 0.0000 0.7725 0.5451);fill-opacity:1;"/>
<path d="M19.8213 1.11206H11.4932L16.0634 10.8641L19.8213 1.11206Z" fill="#00C58B" fill-opacity="0.698039" style="fill:#00C58B;fill:color(display-p3 0.0000 0.7725 0.5451);fill-opacity:0.698039;"/>
<path d="M16.0664 10.8641L11.4961 1.11206L9.79297 16.768L16.0664 10.8641Z" fill="#00C58B" style="fill:#00C58B;fill:color(display-p3 0.0000 0.7725 0.5451);fill-opacity:1;"/>
<path d="M16.0649 10.864L26.4634 20.6801V7.36804L16.0649 10.864Z" fill="#00C58B" style="fill:#00C58B;fill:color(display-p3 0.0000 0.7725 0.5451);fill-opacity:1;"/>
<path d="M7.30811 33.432L4.41748 45.5119L15.1127 40.776L7.30811 33.432Z" fill="#00C58B" style="fill:#00C58B;fill:color(display-p3 0.0000 0.7725 0.5451);fill-opacity:1;"/>
<path d="M9.79249 16.768L11.4956 1.11206L0.456543 11.5041V11.5121L9.79249 16.768Z" fill="#00C58B" style="fill:#00C58B;fill:color(display-p3 0.0000 0.7725 0.5451);fill-opacity:1;"/>
<path d="M9.79249 16.7679L0.456543 11.5118V12.4799V26.9838L9.79249 16.7679Z" fill="#00C58B" style="fill:#00C58B;fill:color(display-p3 0.0000 0.7725 0.5451);fill-opacity:1;"/>
<path d="M9.79249 22.4882L0.456543 26.9842V26.9922L7.30811 33.4323L9.79249 22.4882Z" fill="#00C58B" style="fill:#00C58B;fill:color(display-p3 0.0000 0.7725 0.5451);fill-opacity:1;"/>
<path d="M9.79249 22.4878V16.7678L0.456543 26.9839L9.79249 22.4878Z" fill="#00C58B" style="fill:#00C58B;fill:color(display-p3 0.0000 0.7725 0.5451);fill-opacity:1;"/>
<path d="M26.4634 7.36806L19.8227 1.11206L16.0649 10.8641L26.4634 7.36806Z" fill="#00C58B" style="fill:#00C58B;fill:color(display-p3 0.0000 0.7725 0.5451);fill-opacity:1;"/>
<path d="M43.1445 16.7678V22.4878L52.4804 26.9839L43.1445 16.7678Z" fill="#CBD00C" fill-opacity="0.345098" style="fill:#CBD00C;fill:color(display-p3 0.7961 0.8157 0.0471);fill-opacity:0.345098;"/>
<path d="M52.4804 26.9838V12.4799V11.5118L43.1445 16.7679L52.4804 26.9838Z" fill="#00C58B" style="fill:#00C58B;fill:color(display-p3 0.0000 0.7725 0.5451);fill-opacity:1;"/>
<path d="M14.7593 34.056L7.30615 33.432L15.1109 40.776L14.7593 34.056Z" fill="#00C58B" style="fill:#00C58B;fill:color(display-p3 0.0000 0.7725 0.5451);fill-opacity:1;"/>
<path d="M26.4634 7.36804V20.6801H26.4713L36.8696 10.864L26.4713 7.36804H26.4634Z" fill="#00C58B" style="fill:#00C58B;fill:color(display-p3 0.0000 0.7725 0.5451);fill-opacity:1;"/>
<path d="M52.4781 11.5121V11.5041L41.439 1.11206L43.1421 16.768L52.4781 11.5121Z" fill="#00C58B" style="fill:#00C58B;fill:color(display-p3 0.0000 0.7725 0.5451);fill-opacity:1;"/>
<path d="M36.8726 10.8641L33.1148 1.11206L26.4741 7.36806L36.8726 10.8641Z" fill="#00C58B" style="fill:#00C58B;fill:color(display-p3 0.0000 0.7725 0.5451);fill-opacity:1;"/>
<path d="M43.1461 16.768L41.443 1.11206L36.8726 10.8641L43.1461 16.768Z" fill="#00C58B" style="fill:#00C58B;fill:color(display-p3 0.0000 0.7725 0.5451);fill-opacity:1;"/>
<path d="M36.8725 10.8641L41.4428 1.11206H33.1147L36.8725 10.8641Z" fill="#00C58B" style="fill:#00C58B;fill:color(display-p3 0.0000 0.7725 0.5451);fill-opacity:1;"/>
</g>
<defs>
<linearGradient id="paint0_linear_1_1480" x1="38.7045" y1="4.76062" x2="38.7045" y2="47.1993" gradientUnits="userSpaceOnUse">
<stop stop-color="#FBB514" style="stop-color:#FBB514;stop-color:color(display-p3 0.9843 0.7098 0.0784);stop-opacity:1;"/>
<stop offset="0.2234" stop-color="#FFF000" style="stop-color:#FFF000;stop-color:color(display-p3 1.0000 0.9412 0.0000);stop-opacity:1;"/>
<stop offset="0.3539" stop-color="#D9DF20" style="stop-color:#D9DF20;stop-color:color(display-p3 0.8510 0.8745 0.1255);stop-opacity:1;"/>
<stop offset="0.609" stop-color="#B6D233" style="stop-color:#B6D233;stop-color:color(display-p3 0.7137 0.8235 0.2000);stop-opacity:1;"/>
<stop offset="0.8078" stop-color="#85C340" style="stop-color:#85C340;stop-color:color(display-p3 0.5216 0.7647 0.2510);stop-opacity:1;"/>
<stop offset="0.9984" stop-color="#00AF97" style="stop-color:#00AF97;stop-color:color(display-p3 0.0000 0.6863 0.5922);stop-opacity:1;"/>
</linearGradient>
<linearGradient id="paint1_linear_1_1480" x1="13.3859" y1="6.93549" x2="13.3859" y2="47.4622" gradientUnits="userSpaceOnUse">
<stop stop-color="#EF564B" style="stop-color:#EF564B;stop-color:color(display-p3 0.9373 0.3373 0.2941);stop-opacity:1;"/>
<stop offset="0.2148" stop-color="#ED5288" style="stop-color:#ED5288;stop-color:color(display-p3 0.9294 0.3216 0.5333);stop-opacity:1;"/>
<stop offset="0.3844" stop-color="#802C74" style="stop-color:#802C74;stop-color:color(display-p3 0.5020 0.1725 0.4549);stop-opacity:1;"/>
<stop offset="0.5191" stop-color="#425493" style="stop-color:#425493;stop-color:color(display-p3 0.2588 0.3294 0.5765);stop-opacity:1;"/>
<stop offset="0.6499" stop-color="#0098DC" style="stop-color:#0098DC;stop-color:color(display-p3 0.0000 0.5961 0.8627);stop-opacity:1;"/>
<stop offset="0.7861" stop-color="#0097BB" style="stop-color:#0097BB;stop-color:color(display-p3 0.0000 0.5922 0.7333);stop-opacity:1;"/>
<stop offset="0.8831" stop-color="#00ACB6" style="stop-color:#00ACB6;stop-color:color(display-p3 0.0000 0.6745 0.7137);stop-opacity:1;"/>
<stop offset="1" stop-color="#62C2AD" style="stop-color:#62C2AD;stop-color:color(display-p3 0.3843 0.7608 0.6784);stop-opacity:1;"/>
</linearGradient>
<clipPath id="clip0_1_1480">
<rect width="192" height="49" fill="white" style="fill:white;fill-opacity:1;"/>
</clipPath>
</defs>
</svg>
