<svg width="200" height="64" viewBox="0 0 200 64" fill="none" xmlns="http://www.w3.org/2000/svg">
<g clip-path="url(#clip0_1_1552)">
<path d="M104.373 18.2109H93.1778C92.7697 18.2109 92.4781 18.5018 92.4781 18.909V53.0618C92.4781 53.469 92.1866 53.76 91.7784 53.76H84.5481C84.1399 53.76 83.8484 53.469 83.8484 53.0618V18.909C83.8484 18.5018 83.5568 18.2109 83.1487 18.2109H71.895C71.4869 18.2109 71.1953 17.9199 71.1953 17.5127V11.3454C71.1953 10.9381 71.4869 10.6472 71.895 10.6472H104.373C104.781 10.6472 105.073 10.9381 105.073 11.3454V17.5127C105.073 17.9199 104.723 18.2109 104.373 18.2109ZM199.475 22.749V29.4399C199.475 29.8472 199.184 30.1381 198.775 30.1381C192.42 30.429 188.338 34.909 188.338 40.2036V53.0618C188.338 53.469 188.047 53.76 187.638 53.76H180.933C180.525 53.76 180.233 53.469 180.233 53.0618V23.7381C180.233 23.3309 180.525 23.0399 180.933 23.0399H187.638C188.047 23.0399 188.338 23.3309 188.338 23.7381V25.8327C188.338 26.1236 188.688 26.2399 188.863 26.0072C191.37 22.749 194.402 22.109 198.775 22.0509C199.125 22.0509 199.475 22.3999 199.475 22.749Z" fill="#00C58B" style="fill:#00C58B;fill:color(display-p3 0.0000 0.7725 0.5451);fill-opacity:1;"/>
<path d="M121.05 23.1563V24.32C118.076 22.4 114.461 21.4109 110.612 21.8763C103.207 22.6909 97.2595 28.6254 96.4432 35.9563C95.3936 45.6145 102.915 53.76 112.362 53.76C115.569 53.76 118.542 52.8291 121.05 51.2V53.0618C121.05 53.4691 121.341 53.76 121.749 53.76H128.513C128.921 53.76 129.213 53.4691 129.213 53.0618V23.1563C129.213 22.7491 128.921 22.4582 128.513 22.4582H121.749C121.341 22.4582 121.05 22.7491 121.05 23.1563ZM113.469 46.3709C107.755 47.0691 102.974 42.2982 103.732 36.5963C104.198 32.6982 107.347 29.6145 111.254 29.0909C116.968 28.3927 121.749 33.1636 120.991 38.8654C120.467 42.7636 117.318 45.8472 113.469 46.3709ZM176.618 53.76H169.913C169.504 53.76 169.213 53.4691 169.213 53.0618V36.8291C169.213 34.0363 168.98 32.64 168.863 32C168.746 31.36 168.338 30.7782 167.697 30.3127C166.472 29.3818 163.907 29.2072 161.808 30.7782C160.7 31.5927 160 32.64 159.592 33.8618C159.125 35.3163 158.892 37.7018 158.892 40.96V53.0036C158.892 53.4109 158.601 53.7018 158.192 53.7018H151.662C151.254 53.7018 150.962 53.4109 150.962 53.0036V37.76C150.962 34.4436 150.729 32.9309 150.554 32.1745C150.379 31.4182 149.971 30.8363 149.329 30.3127C148.047 29.2654 145.773 29.2654 143.907 30.4872C142.915 31.1854 142.157 32.0582 141.574 33.28C141.166 34.0945 140.641 35.9563 140.641 40.0872V53.0036C140.641 53.4109 140.35 53.7018 139.942 53.7018H133.295C132.886 53.7018 132.595 53.4109 132.595 53.0036V23.0982C132.595 22.6909 132.886 22.4 133.295 22.4H139.942C140.35 22.4 140.641 22.6909 140.641 23.0982V23.7382C144.665 21.0618 150.204 20.9454 154.227 23.7963C155.102 24.3782 155.802 25.1345 156.443 25.9491C157.26 25.0763 158.134 24.32 159.067 23.7382C163.382 20.9454 169.563 20.7709 173.936 24.9018C176.268 27.1127 177.376 31.0109 177.376 36.8291V53.0036C177.376 53.4109 177.026 53.76 176.618 53.76Z" fill="#00C58B" style="fill:#00C58B;fill:color(display-p3 0.0000 0.7725 0.5451);fill-opacity:1;"/>
<path d="M39.5334 31.9418C39.5334 37.5273 33.0611 41.6582 27.1719 37.1782C22.6821 31.3018 26.7637 24.8436 32.4197 24.8436C36.3264 24.8436 39.5334 28.0436 39.5334 31.9418Z" fill="#00C58B" style="fill:#00C58B;fill:color(display-p3 0.0000 0.7725 0.5451);fill-opacity:1;"/>
<path d="M15.3938 35.4909C12.5949 35.4909 10.4958 32.2327 12.7698 29.3236C15.7436 27.0546 18.9506 29.1491 18.9506 31.9418C18.9506 33.92 17.3763 35.4909 15.3938 35.4909ZM49.3879 35.4909C52.1868 35.4909 54.2859 32.2327 52.0118 29.3236C49.0381 27.0546 45.8311 29.1491 45.8311 31.9418C45.7728 33.92 47.4054 35.4909 49.3879 35.4909ZM35.9768 48.9309C35.9768 51.7236 32.7115 53.8182 29.7961 51.5491C27.522 48.5818 29.6212 45.3818 32.42 45.3818C34.3442 45.3237 35.9768 46.9527 35.9768 48.9309ZM35.9768 15.0109C35.9768 12.2182 32.7115 10.1236 29.7961 12.3927C27.522 15.36 29.6212 18.56 32.42 18.56C34.3442 18.56 35.9768 16.9891 35.9768 15.0109ZM22.9156 46.4873C20.9331 48.4655 17.143 47.6509 16.6766 43.9855C17.2013 40.32 20.9331 39.4473 22.9156 41.4837C24.315 42.8218 24.315 45.0909 22.9156 46.4873ZM46.9389 22.5164C48.9215 20.5382 48.1051 16.7564 44.4317 16.2909C40.7582 16.8146 39.8836 20.5382 41.9244 22.5164C43.2655 23.8546 45.5395 23.8546 46.9389 22.5164ZM46.9389 41.4255C48.9215 43.4036 48.1051 47.1273 44.4317 47.6509C40.7582 47.1855 39.8836 43.4036 41.9244 41.4255C43.2655 40.0291 45.5395 40.0291 46.9389 41.4255ZM22.9156 17.4546C20.9331 15.4764 17.143 16.2909 16.6766 19.9564C17.2013 23.6218 20.9331 24.4946 22.9156 22.4582C24.315 21.12 24.315 18.8509 22.9156 17.4546Z" fill="#00C58B" style="fill:#00C58B;fill:color(display-p3 0.0000 0.7725 0.5451);fill-opacity:1;"/>
<path d="M3.96504 35.4909C1.16621 35.4909 -0.932918 32.2327 1.34113 29.3236C4.31489 27.1127 7.52189 29.1491 7.52189 31.9418C7.52189 33.92 5.94755 35.4909 3.96504 35.4909ZM60.8164 35.4909C63.6152 35.4909 65.7143 32.2327 63.4403 29.3236C60.4665 27.1127 57.2595 29.1491 57.2595 31.9418C57.2012 33.92 58.8338 35.4909 60.8164 35.4909ZM35.9767 60.3345C35.9767 63.1272 32.7114 65.2218 29.7959 62.9527C27.5802 59.9854 29.621 56.7854 32.4198 56.7854C34.344 56.7272 35.9767 58.3563 35.9767 60.3345ZM35.9767 3.60723C35.9767 0.814507 32.7114 -1.28004 29.7959 0.989053C27.5802 3.95633 29.621 7.15633 32.4198 7.15633C34.344 7.15633 35.9767 5.58542 35.9767 3.60723ZM14.8105 54.5163C12.828 56.4945 9.03793 55.68 8.57146 52.0145C9.09624 48.3491 12.828 47.4763 14.8105 49.5127C16.2099 50.909 16.2099 53.12 14.8105 54.5163ZM54.9855 14.4291C56.968 12.4509 56.1516 8.66905 52.4782 8.2036C48.8047 8.72723 47.9301 12.4509 49.9709 14.4291C51.3703 15.8254 53.586 15.8254 54.9855 14.4291ZM54.9855 49.5127C56.968 51.4909 56.1516 55.2145 52.4782 55.7381C48.8047 55.2727 47.9301 51.4909 49.9709 49.5127C51.3703 48.1163 53.586 48.1163 54.9855 49.5127ZM14.8105 9.36724C12.828 7.38905 9.03793 8.2036 8.57146 11.8691C9.09624 15.5345 12.828 16.4072 14.8105 14.3709C16.2099 13.0327 16.2099 10.7636 14.8105 9.36724Z" fill="#00C58B" style="fill:#00C58B;fill:color(display-p3 0.0000 0.7725 0.5451);fill-opacity:1;"/>
</g>
<defs>
<clipPath id="clip0_1_1552">
<rect width="200" height="64" fill="white" style="fill:white;fill-opacity:1;"/>
</clipPath>
</defs>
</svg>
