<svg width="200" height="43" viewBox="0 0 200 43" fill="none" xmlns="http://www.w3.org/2000/svg">
<g clip-path="url(#clip0_1_1559)">
<path d="M73.8213 12.3961H65.824V34.9302H59.232V12.3961H51.2373V7.31522H73.8213V12.3961ZM144.451 20.7059C144.821 21.951 145.005 23.3624 145.005 24.9426C145.005 26.4199 144.797 27.7864 144.371 29.0368C143.984 30.2213 143.384 31.3266 142.597 32.2974C141.853 33.2049 140.923 33.9409 139.867 34.4553C138.771 34.9829 137.565 35.2494 136.347 35.2336C135.291 35.2336 134.408 35.0885 133.693 34.7983C132.984 34.5107 132.325 34.115 131.741 33.6217V41.1639H125.696V15.2742H129.44L129.624 15.2821C129.896 15.2953 130.157 15.3797 130.387 15.5195C130.651 15.6936 130.84 15.9574 130.925 16.2608L131.371 17.7012L131.669 17.3952C131.973 17.0971 132.296 16.8201 132.629 16.5642C134.072 15.4615 135.848 14.8732 137.672 14.8969C138.728 14.8969 139.701 15.1238 140.597 15.5775C141.515 16.0498 142.309 16.7251 142.92 17.5508C143.571 18.4082 144.08 19.4607 144.451 20.7059ZM138.765 24.9426C138.765 23.9058 138.685 23.0353 138.531 22.3256C138.376 21.6186 138.157 21.0462 137.877 20.6109C137.597 20.1756 137.261 19.8644 136.872 19.6718C136.483 19.4845 136.048 19.3895 135.565 19.3895C135.123 19.3895 134.725 19.4317 134.368 19.5135C134.011 19.5926 133.677 19.7114 133.373 19.8644C133.064 20.0174 132.779 20.2099 132.525 20.4421C132.248 20.6927 131.987 20.9618 131.744 21.2467V29.5855L131.941 29.786C132.304 30.1501 132.744 30.4323 133.227 30.617C133.76 30.8148 134.317 30.9098 134.904 30.9098C135.437 30.9151 135.963 30.8069 136.443 30.588C136.912 30.3717 137.317 30.0287 137.661 29.5565C138.008 29.0843 138.275 28.467 138.472 27.7072C138.667 26.9501 138.763 26.0294 138.763 24.9399L138.765 24.9426ZM89.2186 20.1756C89.6666 21.2915 89.8933 22.5604 89.8933 23.9744C89.8933 24.4176 89.872 24.7764 89.8346 25.056C89.8106 25.2882 89.736 25.515 89.6213 25.7208C89.5253 25.8791 89.376 26.0004 89.2 26.0637C89.024 26.1244 88.8026 26.1561 88.528 26.1561H76.8666L76.9093 26.4779C77.1306 27.9552 77.6293 29.0394 78.408 29.728C79.2373 30.4666 80.312 30.836 81.6266 30.836C82.328 30.836 82.9333 30.7542 83.44 30.588C83.9066 30.4402 84.36 30.2556 84.7973 30.0366C85.192 29.8361 85.5573 29.6515 85.8906 29.4879C86.2213 29.3217 86.568 29.2399 86.9306 29.2399C87.4133 29.2399 87.776 29.4114 88.024 29.7544L89.7786 31.8595L89.5093 32.1497C88.9626 32.7142 88.3786 33.1838 87.76 33.5558C87.04 33.9937 86.2986 34.334 85.536 34.5767C84.7733 34.8247 84.0133 34.9961 83.2533 35.0911C82.4906 35.1834 81.768 35.2336 81.0773 35.2336C79.6613 35.2336 78.3306 35.0093 77.0906 34.5609C75.848 34.1098 74.7626 33.445 73.8346 32.5612C72.904 31.6775 72.1706 30.5774 71.632 29.2637C71.0906 27.9499 70.8213 26.4199 70.8213 24.6788C70.8133 23.402 71.048 22.1357 71.5146 20.9433C71.96 19.7905 72.6373 18.7406 73.504 17.8542C74.3973 16.9493 75.464 16.2371 76.6453 15.7517C77.8746 15.232 79.2613 14.9734 80.8106 14.9734C82.0613 14.9576 83.3066 15.1634 84.4853 15.5775C85.5573 15.9574 86.5333 16.5589 87.352 17.3424C88.1733 18.1444 88.8106 19.1099 89.224 20.1756H89.2186ZM84.4693 22.7425C84.4693 22.2834 84.408 21.8244 84.2853 21.3786C84.168 20.946 83.9626 20.5423 83.68 20.1941C83.3813 19.8327 83.0053 19.5452 82.5786 19.3526C82.1226 19.1363 81.5706 19.0281 80.92 19.0281C79.7626 19.0281 78.8586 19.3473 78.208 19.9857C77.56 20.6215 77.1306 21.5421 76.92 22.7425H84.4666H84.4693ZM121.555 20.1756C122 21.2915 122.227 22.5604 122.227 23.9744C122.227 24.4176 122.211 24.7764 122.168 25.056C122.144 25.2882 122.069 25.515 121.955 25.7208C121.859 25.8791 121.709 26.0004 121.536 26.0637C121.32 26.1323 121.093 26.164 120.864 26.1561H109.2L109.243 26.4779C109.464 27.9552 109.963 29.0394 110.741 29.728C111.571 30.4693 112.645 30.836 113.96 30.836C114.661 30.836 115.267 30.7568 115.773 30.5906C116.237 30.4429 116.691 30.2609 117.128 30.0419C117.525 29.8388 117.891 29.6541 118.221 29.4932C118.552 29.327 118.901 29.2452 119.264 29.2452C119.747 29.2452 120.109 29.414 120.357 29.757L122.112 31.8621L121.84 32.1523C121.32 32.6931 120.733 33.1653 120.093 33.5584C119.371 33.9963 118.632 34.3366 117.872 34.582C117.128 34.8247 116.363 34.9961 115.589 35.0937C114.827 35.1861 114.104 35.2362 113.416 35.2362C112.056 35.2467 110.707 35.0172 109.427 34.5635C108.211 34.1309 107.099 33.4502 106.168 32.5639C105.237 31.6801 104.504 30.5827 103.965 29.269C103.427 27.9526 103.155 26.4252 103.155 24.6814C103.155 23.365 103.387 22.1225 103.848 20.946C104.293 19.7931 104.971 18.7432 105.837 17.8568C106.731 16.9546 107.797 16.2397 108.976 15.7543C110.205 15.2346 111.592 14.9761 113.139 14.9761C114.389 14.9629 115.635 15.1687 116.816 15.5828C117.888 15.9627 118.864 16.5642 119.683 17.345C120.483 18.118 121.107 19.0624 121.555 20.1783V20.1756ZM116.805 22.7425C116.805 22.2729 116.744 21.8218 116.621 21.3786C116.496 20.938 116.296 20.5397 116.016 20.1941C115.733 19.8459 115.368 19.5663 114.912 19.3499C114.456 19.1363 113.907 19.0307 113.253 19.0307C112.096 19.0307 111.192 19.3499 110.544 19.9857C109.893 20.6241 109.464 21.5421 109.256 22.7425H116.803H116.805ZM166.803 20.8563C167.304 22.0988 167.555 23.4996 167.555 25.0534C167.555 26.6072 167.304 28.0317 166.803 29.2901C166.301 30.5458 165.6 31.6115 164.696 32.4926C163.768 33.3843 162.661 34.0755 161.448 34.5187C160.187 34.9935 158.789 35.2309 157.256 35.2309C155.723 35.2309 154.301 34.9935 153.032 34.5187C151.811 34.0755 150.696 33.3843 149.755 32.4926C148.84 31.6115 148.131 30.5458 147.629 29.2901C147.128 28.0317 146.88 26.6204 146.88 25.0534C146.88 23.4864 147.131 22.0988 147.629 20.8563C148.099 19.6586 148.824 18.5744 149.755 17.6827C150.696 16.7963 151.811 16.1131 153.032 15.6725C154.299 15.2056 155.707 14.9734 157.256 14.9734C158.805 14.9734 160.187 15.2056 161.448 15.6725C162.659 16.1104 163.765 16.7937 164.696 17.6827C165.619 18.5823 166.336 19.6639 166.803 20.8563ZM161.309 25.0929C161.309 23.1461 160.981 21.6978 160.325 20.7534C159.669 19.8037 158.643 19.3315 157.256 19.3315C155.869 19.3315 154.779 19.8063 154.115 20.7534C153.451 21.6978 153.12 23.1487 153.12 25.0929C153.12 27.0372 153.451 28.4881 154.115 29.4404C154.776 30.3954 155.824 30.8729 157.256 30.8729C158.688 30.8729 159.669 30.3954 160.325 29.4404C160.981 28.4855 161.309 27.0372 161.309 25.0929ZM197.901 30.741C197.784 30.5642 197.669 30.435 197.56 30.3532C197.432 30.2635 197.28 30.2213 197.123 30.2292C197.005 30.2292 196.888 30.2503 196.781 30.2952C196.683 30.34 196.579 30.3901 196.467 30.4482C196.176 30.5985 195.848 30.6724 195.52 30.6671C195.093 30.6671 194.763 30.5167 194.539 30.2213C194.344 29.9654 194.229 29.6515 194.203 29.2848L194.195 29.0922V19.3315H199.109V15.3137H194.195V9.57074H191.035C190.368 9.57074 189.941 9.82663 189.755 10.3331L189.712 10.4782L188.52 15.2742L185.304 15.8809V18.1707C185.304 18.5506 185.413 18.8382 185.635 19.0334C185.816 19.1943 186.04 19.2945 186.283 19.3183L186.435 19.3262H188.152V29.4853C188.141 30.2899 188.275 31.0918 188.544 31.8542C188.784 32.5322 189.176 33.1495 189.685 33.6639C190.211 34.1783 190.843 34.574 191.536 34.822C192.272 35.0911 193.12 35.2283 194.083 35.2283C195.123 35.2283 196.131 35.0858 197.107 34.8009C197.936 34.5635 198.723 34.2021 199.443 33.7299L199.739 33.5241L197.907 30.7383L197.901 30.741ZM93.5573 34.9275H99.6V6.5581H93.5573V34.9275ZM179.04 15.8625C178.165 16.4903 177.405 17.2553 176.792 18.1338L176.541 18.4952L176.211 16.6591C176.168 16.4402 176.107 16.2239 176.024 16.0128C175.96 15.8466 175.853 15.6989 175.712 15.5855C175.563 15.472 175.389 15.3929 175.205 15.348C175.029 15.3058 174.851 15.2821 174.669 15.2768L174.453 15.2715H170.867V34.9249H176.912V22.8691C177.821 21.2256 179.069 20.4078 180.656 20.4078C181.112 20.4078 181.491 20.4368 181.789 20.4922C182.088 20.5502 182.347 20.5793 182.571 20.5793C182.829 20.5793 183.04 20.5265 183.195 20.4183C183.331 20.3155 183.429 20.1704 183.472 20.0068L183.509 19.8591L184.288 15.538C183.728 15.108 182.987 14.8917 182.064 14.8917C180.973 14.8917 179.963 15.2161 179.04 15.8598V15.8625ZM41.3573 27.4988L37.1706 23.9718L37.248 23.4943C37.336 22.848 37.3653 22.1726 37.3653 21.5052C37.3653 20.6769 37.3226 19.8248 37.1706 19.0387L41.3573 15.5169L41.4506 15.4404C41.5626 15.3322 41.6373 15.1898 41.6666 15.0394C41.696 14.8864 41.6773 14.7281 41.6133 14.5856C40.76 12.0347 39.2853 9.60767 37.472 7.59485C37.216 7.3073 36.8533 7.20178 36.512 7.34687L31.2373 9.12755L30.8 8.79252C29.6 7.90878 28.2826 7.19123 26.8853 6.66098L25.84 1.35589L25.8106 1.24509C25.7573 1.09473 25.6666 0.962824 25.544 0.862579C25.4213 0.759696 25.272 0.693745 25.1146 0.670002C22.3813 0.129205 19.568 0.129205 16.8346 0.670002C16.656 0.696383 16.4933 0.775524 16.3626 0.899512C16.232 1.0235 16.144 1.18178 16.1093 1.35589L15.064 6.66098L14.5893 6.84828C13.1893 7.41546 11.8826 8.18313 10.7093 9.12755L5.43731 7.34423L5.31997 7.3073C5.16531 7.27037 5.00531 7.27828 4.85597 7.32841C4.70664 7.38117 4.57331 7.47086 4.47464 7.59221C2.65864 9.60503 1.18664 12.032 0.333307 14.583C0.261307 14.7439 0.245307 14.9233 0.293307 15.0921C0.33864 15.261 0.445307 15.4114 0.589307 15.5142L4.77331 19.036L4.69331 19.5135C4.60531 20.1598 4.57864 20.8378 4.57864 21.4999C4.56797 22.3256 4.63197 23.1513 4.77331 23.9665L0.589307 27.4936L0.495973 27.5674C0.383973 27.6782 0.309307 27.818 0.279973 27.971C0.25064 28.124 0.269307 28.2823 0.333307 28.4248C1.18664 30.9784 2.65864 33.4028 4.47197 35.4103C4.73064 35.7005 5.09331 35.806 5.43197 35.6609L10.704 33.8776L11.088 34.1836C12.2986 35.0885 13.6373 35.8166 15.0586 36.3442L16.104 41.6519L16.1333 41.7627C16.1866 41.9104 16.2773 42.045 16.4026 42.1452C16.5253 42.2481 16.6746 42.3114 16.832 42.3378C18.1973 42.5858 19.5653 42.7282 20.9733 42.7282C22.3813 42.7282 23.7466 42.5831 25.1146 42.3378C25.2906 42.3088 25.456 42.2296 25.5866 42.1083C25.7173 41.9843 25.8053 41.826 25.8426 41.6519L26.888 36.3442L27.4106 36.1358C28.792 35.558 30.0853 34.7983 31.2426 33.8776L36.5146 35.6609L36.6293 35.7005C36.936 35.7823 37.2453 35.6715 37.4746 35.4129C39.2906 33.4028 40.7626 30.9784 41.6133 28.4274C41.688 28.2665 41.7013 28.0845 41.656 27.9156C41.608 27.7468 41.504 27.5964 41.36 27.4962L41.3573 27.4988ZM20.9733 33.9277C14.024 33.9277 8.38931 28.3641 8.38931 21.5026C8.38931 14.641 14.0186 9.07479 20.9706 9.07479C27.9226 9.07479 33.5546 14.641 33.5546 21.5026C33.5546 28.3641 27.92 33.9277 20.9706 33.9277H20.9733ZM20.9733 13.0055C16.232 13.0055 12.376 16.8174 12.376 21.4999C12.376 26.1825 16.232 29.9944 20.9733 29.9944C25.7146 29.9944 29.5706 26.1851 29.5706 21.4999C29.5706 16.8148 25.7146 13.0055 20.9733 13.0055ZM20.9733 26.4937C18.184 26.4937 15.9146 24.254 15.9146 21.5026C15.9146 18.7511 18.184 16.5114 20.9706 16.5114C23.7573 16.5114 26.0293 18.7511 26.0293 21.5026C26.0293 24.254 23.76 26.4937 20.9706 26.4937H20.9733Z" fill="white" style="fill:white;fill-opacity:1;"/>
</g>
<defs>
<clipPath id="clip0_1_1559">
<rect width="200" height="43" fill="white" style="fill:white;fill-opacity:1;"/>
</clipPath>
</defs>
</svg>
