<svg width="200" height="39" viewBox="0 0 200 39" fill="none" xmlns="http://www.w3.org/2000/svg">
<g clip-path="url(#clip0_1_1561)">
<path d="M194.061 17.5137V15.0789H191.187V11.5548H188.76V15.0789H186.44V17.5137H188.718V24.5619C188.718 26.591 190.399 28.2782 192.422 28.2782H194.061V25.8434H192.422C191.719 25.8434 191.144 25.2881 191.144 24.5619V17.5137H194.061Z" fill="#00C58B" style="fill:#00C58B;fill:color(display-p3 0.0000 0.7725 0.5451);fill-opacity:1;"/>
<path d="M179.862 14.8439C182.48 14.8439 184.566 16.9797 184.566 19.6067V23.5794C184.566 26.1637 182.437 28.3422 179.862 28.3422H178.925C176.349 28.3422 174.22 26.2064 174.22 23.5794V19.6067C174.22 16.9797 176.349 14.8439 178.925 14.8439H179.862ZM176.69 19.6067V23.5794C176.69 24.8608 177.733 25.8647 178.967 25.8647H179.904C181.181 25.8647 182.182 24.8181 182.182 23.5794V19.6067C182.182 18.3253 181.203 17.3214 179.904 17.3214H178.967C177.733 17.2573 176.69 18.3039 176.69 19.6067Z" fill="#00C58B" style="fill:#00C58B;fill:color(display-p3 0.0000 0.7725 0.5451);fill-opacity:1;"/>
<path d="M171.559 19.6067V23.5794C171.559 26.2064 169.431 28.3422 166.855 28.3422H166.557C165.471 28.3422 164.428 27.9364 163.64 27.2957V32.5498H161.213V15.0788H163.64V15.8691C164.428 15.2283 165.428 14.8225 166.557 14.8225H166.855C169.431 14.8439 171.559 16.9797 171.559 19.6067ZM169.132 19.6067C169.132 18.368 168.153 17.3214 166.855 17.3214H165.918C164.683 17.3214 163.64 18.368 163.64 19.6067V23.5794C163.64 24.8608 164.683 25.8647 165.918 25.8647H166.855C168.132 25.8647 169.132 24.8181 169.132 23.5794V19.6067Z" fill="#00C58B" style="fill:#00C58B;fill:color(display-p3 0.0000 0.7725 0.5451);fill-opacity:1;"/>
<path d="M149.846 24.0065C150.101 25.0531 150.974 25.8433 152.123 25.8433H153.805C155.04 25.8433 156.083 24.7968 156.083 23.558C156.083 22.127 155.189 21.2727 153.912 20.7814L151.676 19.9485C149.59 19.1582 147.866 17.7699 147.866 15.1429C147.866 12.5158 149.995 10.38 152.57 10.38H153.763C155.934 10.38 157.807 11.8751 158.318 13.9468L155.934 14.6516C155.742 13.6051 154.806 12.8576 153.699 12.8576H152.507C151.229 12.8576 150.229 13.9041 150.229 15.1429C150.229 16.1253 150.569 16.8729 152.549 17.6631L154.784 18.5602C157.062 19.4999 158.488 21.1872 158.488 23.558C158.488 26.185 156.36 28.2781 153.784 28.2781H152.102C149.867 28.2781 148.057 26.7404 147.504 24.7113L149.846 24.0065Z" fill="#00C58B" style="fill:#00C58B;fill:color(display-p3 0.0000 0.7725 0.5451);fill-opacity:1;"/>
<path d="M145.184 17.5137V15.0789H142.31V11.5548H139.883V15.0789H137.626V17.5137H139.904V24.5619C139.904 26.591 141.586 28.2782 143.608 28.2782H145.248V25.8434H143.608C142.906 25.8434 142.331 25.2881 142.331 24.5619V17.5137H145.184Z" fill="#00C58B" style="fill:#00C58B;fill:color(display-p3 0.0000 0.7725 0.5451);fill-opacity:1;"/>
<path d="M135.455 19.6068V28.086H133.028V19.6068C133.028 18.3253 132.049 17.3215 130.75 17.3215H129.814C128.579 17.3215 127.536 18.368 127.536 19.6068V28.086H125.109V10.615H127.536V15.8691C128.324 15.2284 129.324 14.8225 130.452 14.8225H130.75C133.369 14.8439 135.455 16.9797 135.455 19.6068Z" fill="#00C58B" style="fill:#00C58B;fill:color(display-p3 0.0000 0.7725 0.5451);fill-opacity:1;"/>
<path d="M121.937 15.0789V27.9792C121.937 30.6063 119.851 32.6994 117.233 32.6994H116.253C114.018 32.6994 112.209 31.1616 111.698 29.1326L114.018 28.4278C114.274 29.4102 115.146 30.2218 116.253 30.2218H117.233C118.467 30.2218 119.51 29.1753 119.51 27.9365V26.3987C118.723 27.0395 117.722 27.4453 116.594 27.4453H116.296C113.72 27.4453 111.591 25.3095 111.591 22.6824V19.5001C111.591 16.873 113.72 14.7372 116.296 14.7372H116.594C117.68 14.7372 118.723 15.143 119.51 15.7837V14.9935L121.937 15.0789ZM119.532 22.7678V19.6068C119.532 18.3254 118.552 17.3215 117.254 17.3215H116.317C115.083 17.3215 114.039 18.3681 114.039 19.6068V22.7678C114.039 24.0066 115.083 25.0532 116.317 25.0532H117.254C118.489 25.0532 119.532 24.0066 119.532 22.7678Z" fill="#00C58B" style="fill:#00C58B;fill:color(display-p3 0.0000 0.7725 0.5451);fill-opacity:1;"/>
<path d="M100.926 15.0789V23.558C100.926 24.8395 101.905 25.8434 103.204 25.8434H104.141C105.418 25.8434 106.418 24.7968 106.418 23.558V15.0789H108.845V23.558C108.845 26.1851 106.716 28.2782 104.141 28.2782H103.204C100.585 28.2782 98.4993 26.1424 98.4993 23.5153V15.0789H100.926Z" fill="#00C58B" style="fill:#00C58B;fill:color(display-p3 0.0000 0.7725 0.5451);fill-opacity:1;"/>
<path d="M90.9421 14.8439C93.5605 14.8439 95.6467 16.9797 95.6467 19.6067V23.5794C95.6467 26.1637 93.5179 28.3422 90.9421 28.3422H90.0054C87.4296 28.3422 85.3008 26.2064 85.3008 23.5794V19.6067C85.3008 16.9797 87.4296 14.8439 90.0054 14.8439H90.9421ZM87.7276 19.6067V23.5794C87.7276 24.8608 88.7707 25.8647 90.0054 25.8647H90.9421C92.2194 25.8647 93.2199 24.8181 93.2199 23.5794V19.6067C93.2199 18.3253 92.2406 17.3214 90.9421 17.3214H90.0054C88.7707 17.2573 87.7276 18.3039 87.7276 19.6067Z" fill="#00C58B" style="fill:#00C58B;fill:color(display-p3 0.0000 0.7725 0.5451);fill-opacity:1;"/>
<path d="M82.4907 19.6068V28.086H80.0639V19.6068C80.0639 18.3253 79.0846 17.3215 77.7861 17.3215H76.8494C75.6147 17.3215 74.5716 18.368 74.5716 19.6068V28.086H72.1448V10.615H74.5716V15.8691C75.3593 15.2284 76.3598 14.8225 77.488 14.8225H77.7861C80.3619 14.8439 82.4907 16.9797 82.4907 19.6068Z" fill="#00C58B" style="fill:#00C58B;fill:color(display-p3 0.0000 0.7725 0.5451);fill-opacity:1;"/>
<path d="M69.5264 10.615V13.0498H64.6302V28.0432H62.2034V13.1139H57.3071V10.6791L69.5264 10.615Z" fill="#00C58B" style="fill:#00C58B;fill:color(display-p3 0.0000 0.7725 0.5451);fill-opacity:1;"/>
<path d="M34.0607 38.9999C36.7413 38.9999 38.9143 36.8197 38.9143 34.1303C38.9143 31.4408 36.7413 29.2606 34.0607 29.2606C31.3801 29.2606 29.207 31.4408 29.207 34.1303C29.207 36.8197 31.3801 38.9999 34.0607 38.9999Z" fill="#00C58B" style="fill:#00C58B;fill:color(display-p3 0.0000 0.7725 0.5451);fill-opacity:1;"/>
<path d="M38.5737 9.67529H0V12.1101H13.2411V38.701H15.6679V12.1101H18.0947V38.701H20.4577V12.1101H22.8845V38.701H25.3113V12.1101H38.5737V9.67529Z" fill="#00C58B" style="fill:#00C58B;fill:color(display-p3 0.0000 0.7725 0.5451);fill-opacity:1;"/>
<path d="M38.5737 4.86963H0V7.30446H38.5737V4.86963Z" fill="#00C58B" style="fill:#00C58B;fill:color(display-p3 0.0000 0.7725 0.5451);fill-opacity:1;"/>
<path d="M38.5737 0H0V2.43483H38.5737V0Z" fill="#00C58B" style="fill:#00C58B;fill:color(display-p3 0.0000 0.7725 0.5451);fill-opacity:1;"/>
<path d="M197.999 28.3422C199.085 28.3422 199.979 27.4452 199.979 26.3559C199.979 25.2667 199.085 24.3696 197.999 24.3696C196.871 24.3696 196.019 25.2667 196.019 26.3559C196.019 27.4452 196.871 28.3422 197.999 28.3422ZM197.999 27.9792C197.105 27.9792 196.424 27.2316 196.424 26.3346C196.424 25.4375 197.126 24.69 197.999 24.69C198.893 24.69 199.574 25.4375 199.574 26.3346C199.574 27.2316 198.893 27.9792 197.999 27.9792ZM197.658 27.4879V26.5909H197.914L198.467 27.4879H198.914L198.361 26.5482C198.659 26.4414 198.914 26.2491 198.914 25.9074C198.914 25.7152 198.808 25.5016 198.659 25.3521C198.51 25.2453 198.318 25.2026 198.063 25.2026H197.275V27.4452H197.679V27.4879H197.658ZM197.999 26.2491H197.658V25.5443H197.999C198.297 25.5443 198.488 25.6511 198.488 25.8861C198.51 26.1424 198.297 26.2491 197.999 26.2491Z" fill="#00C58B" style="fill:#00C58B;fill:color(display-p3 0.0000 0.7725 0.5451);fill-opacity:1;"/>
</g>
<defs>
<clipPath id="clip0_1_1561">
<rect width="200" height="39" fill="white" style="fill:white;fill-opacity:1;"/>
</clipPath>
</defs>
</svg>
