<svg width="200" height="42" viewBox="0 0 200 42" fill="none" xmlns="http://www.w3.org/2000/svg">
<g clip-path="url(#clip0_1_1582)">
<path d="M11.5562 27.2857C11.4853 27 11.2726 26.8571 10.989 26.8571C10.9181 26.8571 10.8472 26.8571 10.7763 26.8571C10.4218 26.9285 10.2091 27 9.92556 27C9.35838 27 9.28749 26.7857 9.21659 26.2143V17.7143C9.21659 17.5 9.0748 17.3571 8.933 17.2143L8.86211 17.1428C8.86211 17.1428 8.8621 17.1428 8.79121 17.0714C8.36583 16.7857 7.58596 16.5714 6.94789 16.4285H6.87699C6.09713 16.2143 5.24637 16.1428 4.3956 16.1428C3.89933 16.1428 3.47395 16.1428 3.26125 16.2143C2.90677 16.2143 1.91421 16.4285 1.55973 16.5714C1.48883 16.5714 1.13435 16.7143 1.13435 17.0714C1.13435 17.2143 1.27614 17.7143 1.27614 17.7143C1.41794 18.0714 1.48883 18.1428 1.70152 18.2143C1.84332 18.2143 2.2687 18.1428 2.48139 18.1428C3.11946 18 3.54484 18 3.82843 18C4.18291 18 4.67919 18 5.31726 18.0714C6.38072 18.2143 6.8061 18.5714 6.8061 18.5714V21.8571H6.94789L4.60829 21.9285C1.41794 21.9285 0 23.2143 0 25.7143C0 26.8571 0.354484 27.7857 1.06345 28.3571C1.70152 28.9285 2.62318 29.2143 3.75753 29.2143C5.03368 29.2143 6.16802 28.7857 7.23148 27.9285L7.30237 27.8571L7.37327 28C7.65686 28.5714 8.08224 28.9285 8.64941 29.0714C8.933 29.1428 9.21659 29.2143 9.64197 29.2143C9.71287 29.2143 9.85466 29.2143 9.92556 29.2143C10.28 29.1428 10.7763 29.0714 11.2726 28.8571C11.5562 28.7143 11.7689 28.5714 11.7689 28.2143C11.7689 27.9285 11.5562 27.2857 11.5562 27.2857ZM7.16058 26.5L7.08968 26.5714C6.30982 27.1428 5.17547 27.5 4.18291 27.5C2.76498 27.5 2.2687 27 2.2687 25.6428C2.2687 24.0714 2.83587 23.5714 4.5374 23.5L6.94789 23.3571H7.01879H7.08968V26.5H7.16058Z" fill="white" style="fill:white;fill-opacity:1;"/>
<path d="M46.2247 29.1429H45.0904C44.9486 29.1429 44.7359 29.0715 44.665 29C44.5941 28.9286 44.5232 28.7143 44.5232 28.5715V17.6429C44.5232 17.4286 44.5941 17.2857 44.665 17.2143C44.7359 17.1429 44.8777 17.0715 45.0904 17.0715H46.1538C46.3665 17.0715 46.5083 17.0715 46.5792 17.2143C46.6501 17.2857 46.721 17.4286 46.721 17.6429V17.9286V18.1429L46.8628 18C47.3591 17.5 48.1389 16.8572 49.3442 16.8572C49.486 16.8572 49.8405 16.8572 50.0531 16.9286C50.2658 17 50.3367 17.2143 50.3367 17.2857C50.3367 17.3572 50.3367 17.3572 50.3367 17.4286L50.1949 18.5C50.1949 18.7143 49.9823 18.8572 49.8405 18.8572C49.6987 18.8572 49.6278 18.8572 49.5569 18.8572C49.4151 18.8572 49.2733 18.7857 49.0606 18.7857C48.2807 18.7857 47.3591 19.3572 46.7919 20.1429V28.5715C46.7919 28.7857 46.721 28.9286 46.6501 29C46.5792 29.1429 46.4374 29.1429 46.2247 29.1429Z" fill="white" style="fill:white;fill-opacity:1;"/>
<path d="M36.7245 16.3572C33.8178 16.3572 31.5491 18.4286 31.5491 23.0715C31.5491 27.3572 33.5342 29.5 37.2917 29.5C37.8589 29.5 38.5679 29.4286 39.2768 29.2857C39.3477 29.2857 39.4895 29.2143 39.5604 29.2143C39.9858 29.0715 40.4112 28.9286 40.553 28.8572C40.7657 28.7857 40.9784 28.5715 40.9784 28.3572C40.9075 28 40.8366 27.6429 40.7657 27.3572C40.6948 27.1429 40.4821 27 40.2694 27C40.1985 27 39.2059 27.2143 39.135 27.2143C38.5679 27.3572 37.9298 27.4286 37.2917 27.4286C34.5976 27.4286 33.8178 26.1429 33.8178 23.5V23.2857H40.8366C41.0492 23.2857 41.191 23.1429 41.2619 22.9286V22.8572C41.2619 22.3572 41.2619 21.9286 41.2619 21.5C41.4037 18.2143 39.7731 16.3572 36.7245 16.3572ZM39.2059 21.7857H33.9596C34.0305 19.1429 35.023 18 36.7245 18C38.3552 18 39.2768 18.8572 39.2768 21C39.2059 21.2143 39.2059 21.5715 39.2059 21.7857Z" fill="white" style="fill:white;fill-opacity:1;"/>
<path d="M53.3145 34.0714H53.2436C52.8183 34.0714 52.4638 34.0714 52.1802 34C51.9675 34 51.8966 33.7143 51.9675 33.3571C51.9675 33.3571 51.9675 33 52.0384 32.7143C52.1093 32.4286 52.2511 32.2857 52.3929 32.2857H52.5347C52.6056 32.2857 52.6765 32.2857 52.7474 32.2857C52.9601 32.2857 53.1727 32.3571 53.3145 32.3571C54.6616 32.3571 55.4414 31.8571 55.9377 30.5714L56.5758 29L56.6467 28.8571V28.7857V28.7143L52.4638 17.5C52.4638 17.4286 52.4638 17.4286 52.4638 17.3571C52.4638 17.2857 52.4638 17.2143 52.5347 17.1428C52.6056 17.0714 52.6765 17.0714 52.7474 17.0714H54.3071C54.5198 17.0714 54.7325 17.2143 54.7325 17.3571L57.4266 25.3571L57.6393 25.9286L57.8519 25.3571L60.6878 17.4286C60.7587 17.2143 60.9005 17.0714 61.1132 17.0714H61.1841H62.5311C62.6729 17.0714 62.7438 17.0714 62.7438 17.1428C62.8147 17.2143 62.8147 17.2857 62.8147 17.2857C62.8147 17.3571 62.8147 17.4286 62.7438 17.5L58.0646 30.2143C57.0721 33 55.7959 34.0714 53.3145 34.0714Z" fill="white" style="fill:white;fill-opacity:1;"/>
<path d="M72.2438 29.1429C71.9602 29.1429 71.7475 29 71.6057 28.7857L69.1243 24.8572L69.0535 24.7143L68.9826 24.8572L66.5012 28.7857C66.3594 29 66.1467 29.1429 65.8631 29.1429H65.7922H64.4452C64.3743 29.1429 64.2325 29.1429 64.1616 29.0715C64.0907 29 64.0198 28.9286 64.0198 28.8572C64.0198 28.7143 64.0198 28.6429 64.1616 28.5L67.7773 22.9286L67.8482 22.8572L67.7773 22.7857L64.4452 17.5715C64.3743 17.5 64.3743 17.4286 64.3743 17.2857C64.3743 17.0715 64.587 16.9286 64.7287 16.9286H66.0049C66.2885 16.9286 66.5012 17.0715 66.5721 17.2143L68.9117 20.7857L68.9826 20.9286L69.0535 20.7857L71.393 17.2143C71.5348 17 71.7475 16.8572 71.9602 16.8572H73.2364C73.4491 16.8572 73.6617 17 73.6617 17.2143C73.6617 17.2857 73.6617 17.3572 73.5908 17.5L70.2587 22.7143L70.1878 22.8572L70.2587 22.9286L73.8744 28.5C73.9453 28.5715 74.0162 28.7143 74.0162 28.8572C74.0162 28.9286 73.9453 29.0715 73.9453 29.1429C73.8744 29.2143 73.8035 29.2143 73.6617 29.2143L72.2438 29.1429Z" fill="white" style="fill:white;fill-opacity:1;"/>
<path d="M17.866 29.2143C17.2989 29.2143 16.7317 29.1429 16.2354 28.9286C15.81 28.7857 15.4555 28.5714 15.172 28.2857C14.463 27.5 14.3921 26.5 14.3921 25.2143V12.7143C14.3921 12.6429 14.3921 12.5714 14.463 12.5C14.8884 12 15.4555 11.6429 16.0936 11.4286C16.1645 11.4286 16.1645 11.4286 16.1645 11.4286C16.2354 11.4286 16.3772 11.4286 16.4481 11.5714C16.519 11.6429 16.5899 11.8572 16.5899 12V25.2143C16.5899 25.9286 16.7317 26.4286 17.0862 26.7857C17.3698 27.0714 17.7951 27.2143 18.2914 27.2143C18.4332 27.2143 18.575 27.2143 18.7168 27.2143C19.0713 27.1429 19.4967 27.0714 19.7094 27C19.7803 27 19.8511 26.9286 19.922 26.9286C20.1347 26.9286 20.2765 27.0714 20.3474 27.2857C20.3474 27.2857 20.5601 27.9286 20.5601 28.2143C20.5601 28.5 20.3474 28.6429 20.1347 28.7143C19.8511 28.8572 18.9295 29.2143 17.866 29.2143Z" fill="white" style="fill:white;fill-opacity:1;"/>
<path d="M29.3514 27.2858C29.2805 27.0715 29.0678 26.9286 28.8551 26.9286C28.7842 26.9286 28.7133 26.9286 28.6424 27.0001C28.2879 27.1429 27.7917 27.2858 27.2245 27.2858H27.1536C26.5864 27.2858 26.2319 27.1429 25.9483 26.8572C25.7356 26.5715 25.523 26.1429 25.523 25.2858C25.523 25.2858 25.523 25.2858 25.523 25.2143L25.5939 18.6429H28.3588C28.5006 18.6429 28.6424 18.6429 28.7133 18.5715C28.8551 18.5001 28.8551 18.2858 28.8551 18.2143V17.4286C28.8551 17.2858 28.7842 17.1429 28.7133 17.0715C28.5715 17.0001 28.4297 17.0001 28.3588 17.0001H25.6648V14.2143V12.8572C25.6648 12.6429 25.5939 12.5001 25.523 12.4286C25.3812 12.2858 25.2394 12.2858 25.2394 12.2858C25.2394 12.2858 25.1685 12.2858 25.0976 12.2858C24.9558 12.3572 24.5304 12.5001 24.0341 12.7858C23.8923 12.9286 23.6796 13.0715 23.5378 13.2143C23.4669 13.2858 23.4669 13.3572 23.4669 13.4286L23.3961 16.8572H22.049C21.9072 16.8572 21.7654 16.8572 21.6945 17.0001C21.6236 17.1429 21.5527 17.2858 21.5527 17.4286V18.1429C21.5527 18.2858 21.5527 18.4286 21.6945 18.5715C21.8363 18.7143 21.9781 18.7143 22.1199 18.7143H23.3961L23.2543 24.8572V25.1429C23.2543 26.4286 23.3252 27.4286 24.0341 28.2143C24.6013 28.7858 25.5939 29.1429 26.7991 29.1429C27.8626 29.1429 28.7133 28.8572 29.0678 28.7143C29.2805 28.6429 29.4932 28.5001 29.4932 28.2143C29.5641 28.0001 29.3514 27.2858 29.3514 27.2858Z" fill="white" style="fill:white;fill-opacity:1;"/>
<path d="M93.8674 42C93.442 42 93.1584 41.6429 93.1584 41.2857V0.714286C93.1584 0.285714 93.5129 0 93.8674 0C94.2928 0 94.5764 0.357143 94.5764 0.714286V41.2143C94.5764 41.6429 94.2219 42 93.8674 42Z" fill="white" style="fill:white;fill-opacity:1;"/>
<path d="M117.76 18.7143H113.577V17.1428H123.715V18.6428H119.532V29.4285H117.83V18.7143H117.76Z" fill="white" style="fill:white;fill-opacity:1;"/>
<path d="M133.782 29.5L131.159 25.7143C130.947 25.7143 130.663 25.7857 130.379 25.7857H127.331V29.5H125.558V17.1428H130.308C133.499 17.1428 135.413 18.7857 135.413 21.4285C135.413 23.3571 134.42 24.7143 132.719 25.3571L135.626 29.5H133.782ZM133.711 21.4285C133.711 19.6428 132.506 18.6428 130.308 18.6428H127.331V24.2143H130.308C132.577 24.2143 133.711 23.2143 133.711 21.4285Z" fill="white" style="fill:white;fill-opacity:1;"/>
<path d="M138.32 17.1428H140.092V29.5H138.32V17.1428Z" fill="white" style="fill:white;fill-opacity:1;"/>
<path d="M145.48 18.7143V23H151.648V24.5H145.48V29.5H143.708V17.1428H152.357V18.7143H145.48Z" fill="white" style="fill:white;fill-opacity:1;"/>
<path d="M162.07 26.4285H155.548L154.201 29.5H152.428L157.958 17.1428H159.66L165.19 29.5H163.346L162.07 26.4285ZM161.432 25L158.809 18.9285L156.186 25H161.432Z" fill="white" style="fill:white;fill-opacity:1;"/>
<path d="M165.899 23.3571C165.899 19.7143 168.664 17.0714 172.421 17.0714C174.335 17.0714 175.966 17.7143 177.1 19L175.966 20.0714C175.044 19.0714 173.839 18.6428 172.492 18.6428C169.727 18.6428 167.671 20.6428 167.671 23.3571C167.671 26.0714 169.727 28.0714 172.492 28.0714C173.839 28.0714 174.973 27.5714 175.966 26.5714L177.1 27.6428C175.966 28.9286 174.335 29.5714 172.421 29.5714C168.664 29.6428 165.899 27 165.899 23.3571Z" fill="white" style="fill:white;fill-opacity:1;"/>
<path d="M181.85 18.7143H177.667V17.1428H187.806V18.6428H183.623V29.4285H181.921V18.7143H181.85Z" fill="white" style="fill:white;fill-opacity:1;"/>
<path d="M196.881 26.4285H190.358L189.011 29.5H187.168L192.698 17.1428H194.399L199.929 29.5H198.086L196.881 26.4285ZM196.243 25L193.619 18.9285L190.996 25H196.243Z" fill="white" style="fill:white;fill-opacity:1;"/>
</g>
<defs>
<clipPath id="clip0_1_1582">
<rect width="200" height="42" fill="white" style="fill:white;fill-opacity:1;"/>
</clipPath>
</defs>
</svg>
