<svg width="188" height="30" viewBox="0 0 188 30" fill="none" xmlns="http://www.w3.org/2000/svg">
<g clip-path="url(#clip0_1_1600)">
<path d="M25.4328 7.73453L19.1424 4.10255L12.8513 0.469116L6.56017 4.10255L0.269775 7.73453L12.8512 15.0006V22.2676V29.5309L19.1395 25.8989L25.4328 22.2648V15.0036V7.73472V7.73453ZM21.7498 21.6362L18.4298 23.5539L15.1119 25.4687V22.1913L18.4298 20.275L21.7498 18.3587C22.5323 17.9052 23.1693 18.2725 23.1693 19.1781C23.1693 20.0828 22.5323 21.1847 21.7498 21.6362ZM21.7498 15.8992L18.4298 17.8148L15.1119 19.7311V16.4537L18.4298 14.5373L21.7498 12.6211C22.5323 12.1676 23.1693 12.5349 23.1693 13.4405C23.1693 14.346 22.5323 15.4457 21.7498 15.8992Z" fill="white" style="fill:white;fill-opacity:1;"/>
<path d="M5.17371 12.8791L0.269043 10.0468V22.2657L10.8483 28.3756V22.7107L5.17371 19.4333V12.8791Z" fill="white" style="fill:white;fill-opacity:1;"/>
<path d="M36.7483 20.4865C35.3422 20.4865 34.2751 20.1148 33.5465 19.371C32.8182 18.6272 32.4541 17.5421 32.4541 16.1156V9.65039H33.6984V16.0549C33.6984 18.2706 34.7149 19.3786 36.7483 19.3786C38.7614 19.3786 39.768 18.2706 39.768 16.0549V9.65039H41.0123V16.1157C41.0123 17.5422 40.6505 18.6273 39.9274 19.3711C39.2041 20.1148 38.1443 20.4865 36.7483 20.4865Z" fill="white" style="fill:white;fill-opacity:1;"/>
<path d="M45.0486 20.35V9.65039H49.2823C50.4355 9.65039 51.318 9.9187 51.9302 10.4549C52.5423 10.9912 52.8482 11.7551 52.8482 12.7463C52.8482 13.5355 52.6332 14.1835 52.2034 14.6889C51.7734 15.1951 51.164 15.5238 50.375 15.6754C50.8401 15.8375 51.2398 16.2321 51.5737 16.8592L53.4552 20.3501H52.0896L50.2382 16.92C50.0055 16.495 49.7375 16.207 49.434 16.055C49.1306 15.9031 48.7308 15.8273 48.2353 15.8273H46.293V20.3501H45.0486V20.35ZM46.2929 14.8407H49.1002C50.7793 14.8407 51.619 14.1427 51.619 12.7462C51.619 11.3703 50.7792 10.6821 49.1002 10.6821H46.2929V14.8407Z" fill="white" style="fill:white;fill-opacity:1;"/>
<path d="M56.6719 20.35V9.65039H60.9511C62.0536 9.65039 62.906 9.89587 63.508 10.3862C64.1096 10.8771 64.4109 11.5625 64.4109 12.4429C64.4109 13.0296 64.259 13.5308 63.9557 13.9455C63.6521 14.3602 63.2323 14.664 62.6961 14.8562C63.3132 15.0179 63.7963 15.3166 64.1452 15.7515C64.4944 16.1867 64.6687 16.738 64.6687 17.4057C64.6687 18.357 64.36 19.0855 63.7432 19.5913C63.1259 20.0971 62.2561 20.3501 61.1332 20.3501H56.6719V20.35ZM57.8859 14.4312H60.7691C62.3776 14.4312 63.1819 13.8038 63.1819 12.549C63.1819 11.2844 62.3777 10.6522 60.7691 10.6522H57.8859V14.4312ZM57.8859 19.3481H61.0119C62.6303 19.3481 63.4398 18.6955 63.4398 17.3905C63.4398 16.0852 62.6303 15.4326 61.0119 15.4326H57.8859V19.3481Z" fill="white" style="fill:white;fill-opacity:1;"/>
<path d="M67.2485 20.35L71.9677 9.65039H73.03L77.7491 20.35H76.4593L75.2757 17.6182H69.7067L68.5384 20.35H67.2485ZM72.4835 11.1071L70.162 16.5709H74.8358L72.514 11.1071H72.4835Z" fill="white" style="fill:white;fill-opacity:1;"/>
<path d="M80.814 20.35V9.65039H81.7852L88.2341 18.2555V9.65039H89.3873V20.35H88.4466L81.9824 11.7145V20.35H80.814Z" fill="white" style="fill:white;fill-opacity:1;"/>
<path d="M93.5146 20.35V9.65039H100.131V10.6976H94.759V14.4312H99.8272V15.478H94.759V20.35H93.5146Z" fill="white" style="fill:white;fill-opacity:1;"/>
<path d="M107.536 20.4865C106.544 20.4865 105.682 20.2616 104.948 19.8109C104.215 19.3611 103.648 18.7259 103.249 17.9063C102.849 17.0867 102.649 16.1156 102.649 14.9927C102.649 13.8693 102.847 12.8982 103.241 12.0787C103.636 11.2591 104.2 10.627 104.933 10.1815C105.667 9.73635 106.534 9.51379 107.536 9.51379C108.547 9.51379 109.42 9.73635 110.153 10.1815C110.887 10.627 111.453 11.2567 111.853 12.0712C112.252 12.8856 112.452 13.8543 112.452 14.9773C112.452 16.1003 112.25 17.0745 111.845 17.8988C111.44 18.7234 110.871 19.3611 110.138 19.8109C109.405 20.2616 108.537 20.4865 107.536 20.4865ZM107.536 19.3785C108.679 19.3785 109.564 18.9942 110.191 18.2251C110.818 17.4564 111.132 16.3788 111.132 14.9927C111.132 13.6065 110.818 12.5316 110.191 11.7673C109.564 11.0038 108.679 10.6218 107.536 10.6218C106.413 10.6218 105.538 11.0038 104.91 11.7673C104.283 12.5316 103.97 13.6065 103.97 14.9927C103.97 16.3686 104.283 17.4435 104.91 18.2176C105.538 18.9913 106.413 19.3785 107.536 19.3785Z" fill="white" style="fill:white;fill-opacity:1;"/>
<path d="M120.646 20.4865C119.655 20.4865 118.792 20.2616 118.059 19.8109C117.326 19.3611 116.759 18.7259 116.359 17.9063C115.96 17.0867 115.76 16.1156 115.76 14.9927C115.76 13.8693 115.957 12.8982 116.352 12.0787C116.746 11.2592 117.31 10.627 118.044 10.1815C118.777 9.73635 119.645 9.51379 120.646 9.51379C121.658 9.51379 122.53 9.73635 123.264 10.1815C123.997 10.627 124.563 11.2567 124.963 12.0712C125.363 12.8856 125.563 13.8543 125.563 14.9773C125.563 16.1003 125.36 17.0745 124.956 17.8988C124.551 18.7234 123.982 19.3611 123.249 19.8109C122.515 20.2616 121.648 20.4865 120.646 20.4865ZM120.646 19.3785C121.789 19.3785 122.674 18.9942 123.302 18.2251C123.929 17.4564 124.243 16.3788 124.243 14.9927C124.243 13.6065 123.929 12.5316 123.302 11.7673C122.674 11.0038 121.789 10.6218 120.646 10.6218C119.523 10.6218 118.648 11.0038 118.021 11.7673C117.394 12.5316 117.08 13.6065 117.08 14.9927C117.08 16.3686 117.394 17.4435 118.021 18.2176C118.648 18.9913 119.523 19.3785 120.646 19.3785Z" fill="white" style="fill:white;fill-opacity:1;"/>
<path d="M131.223 20.35V10.728H127.338V9.65039H136.367V10.728H132.482V20.35H131.223Z" fill="white" style="fill:white;fill-opacity:1;"/>
<path d="M139.204 20.35V9.65039H143.438C144.591 9.65039 145.474 9.929 146.086 10.4849C146.698 11.0417 147.004 11.836 147.004 12.8679C147.004 13.8898 146.698 14.6814 146.086 15.2429C145.474 15.8044 144.591 16.0853 143.438 16.0853H140.449V20.35H139.204ZM140.448 15.038H143.286C144.945 15.038 145.774 14.3148 145.774 12.8678C145.774 11.4109 144.945 10.6821 143.286 10.6821H140.448V15.038Z" fill="white" style="fill:white;fill-opacity:1;"/>
<path d="M150.281 20.35V9.65039H154.515C155.668 9.65039 156.551 9.9187 157.163 10.4549C157.775 10.9912 158.081 11.7551 158.081 12.7463C158.081 13.5355 157.866 14.1835 157.436 14.6889C157.006 15.1951 156.397 15.5238 155.608 15.6754C156.073 15.8375 156.472 16.2321 156.806 16.8592L158.688 20.3501H157.322L155.471 16.92C155.238 16.495 154.97 16.207 154.667 16.055C154.363 15.9031 153.963 15.8273 153.468 15.8273H151.526V20.3501H150.281V20.35ZM151.526 14.8407H154.333C156.012 14.8407 156.852 14.1427 156.852 12.7462C156.852 11.3703 156.012 10.6821 154.333 10.6821H151.526V14.8407Z" fill="white" style="fill:white;fill-opacity:1;"/>
<path d="M161.905 20.35V9.65039H163.149V20.35H161.905Z" fill="white" style="fill:white;fill-opacity:1;"/>
<path d="M167.261 20.35V9.65039H168.233L174.681 18.2555V9.65039H175.835V20.35H174.894L168.43 11.7145V20.35H167.261Z" fill="white" style="fill:white;fill-opacity:1;"/>
<path d="M182.587 20.35V10.728H178.702V9.65039H187.731V10.728H183.846V20.35H182.587Z" fill="white" style="fill:white;fill-opacity:1;"/>
</g>
<defs>
<clipPath id="clip0_1_1600">
<rect width="188" height="30" fill="white" style="fill:white;fill-opacity:1;"/>
</clipPath>
</defs>
</svg>
