<svg width="200" height="27" viewBox="0 0 200 27" fill="none" xmlns="http://www.w3.org/2000/svg">
<g clip-path="url(#clip0_1_1620)">
<mask id="mask0_1_1620" style="mask-type:luminance" maskUnits="userSpaceOnUse" x="0" y="0" width="200" height="27">
<path d="M199.515 0H0V27H199.515V0Z" fill="white" style="fill:white;fill-opacity:1;"/>
</mask>
<g mask="url(#mask0_1_1620)">
<path d="M0 0.33728L9.26247 25.666L12.0187 17.7357L5.96623 0.33728H0Z" fill="#00C58B" style="fill:#00C58B;fill:color(display-p3 0.0000 0.7725 0.5451);fill-opacity:1;"/>
<mask id="mask1_1_1620" style="mask-type:luminance" maskUnits="userSpaceOnUse" x="11" y="0" width="16" height="27">
<path d="M20.5948 0.33728L13.4511 20.8782H13.4361L11.4412 26.6258H16.9499L26.5611 0.33728H20.5948Z" fill="white" style="fill:white;fill-opacity:1;"/>
</mask>
<g mask="url(#mask1_1_1620)">
<path d="M26.5611 0.33728H11.4412V26.6258H26.5611V0.33728Z" fill="#064F39" style="fill:#064F39;fill:color(display-p3 0.0244 0.3093 0.2254);fill-opacity:1;"/>
</g>
<path d="M35.0774 15.5085H46.3986V11.1172H35.0774V5.22144H47.5386V0.33728H29.3774V26.6258H47.9212V21.7416H35.0774V15.5085Z" fill="#00C58B" style="fill:#00C58B;fill:color(display-p3 0.0000 0.7725 0.5451);fill-opacity:1;"/>
<path d="M72.1273 9.12358C72.1273 3.98002 69.0486 0.33728 61.9798 0.33728H51.2249V26.6258H56.9249V17.8765H61.7136L66.7686 26.6258H72.3936L66.8061 17.1614C70.4923 15.8458 72.1273 12.8442 72.1273 9.12358ZM61.7924 12.9923H56.9286V5.22144H61.7924C64.9086 5.22144 66.2773 6.75932 66.2773 9.12729C66.2773 11.4952 64.9086 12.9961 61.7924 12.9961" fill="#00C58B" style="fill:#00C58B;fill:color(display-p3 0.0000 0.7725 0.5451);fill-opacity:1;"/>
<path d="M84.176 0.33728L74.561 26.622H80.5273L82.2373 21.7046H93.446L95.156 26.622H101.122L91.511 0.33728H84.176ZM83.681 17.5356L87.671 6.08117H88.0123L92.0022 17.5356H83.681Z" fill="#00C58B" style="fill:#00C58B;fill:color(display-p3 0.0000 0.7725 0.5451);fill-opacity:1;"/>
<path d="M113.591 4.8434C116.328 4.8434 118.492 6.19599 119.254 9.46075H124.803C124.267 2.92753 119.595 0 113.778 0C106.065 0 101.201 4.99533 101.201 13.4814C101.201 21.9676 106.065 27 113.704 27C119.595 27 124.267 24.0688 124.8 17.4985H119.249C118.489 20.804 116.325 22.1566 113.587 22.1566C108.915 22.1566 107.013 18.3249 107.013 13.4814C107.013 8.63808 108.952 4.8434 113.587 4.8434" fill="#00C58B" style="fill:#00C58B;fill:color(display-p3 0.0000 0.7725 0.5451);fill-opacity:1;"/>
<path d="M139.774 0C132.097 0 127.08 5.40667 127.08 13.4814C127.08 21.5563 132.097 27 139.774 27C147.449 27 152.467 21.5155 152.467 13.4814C152.467 5.44743 147.449 0 139.774 0ZM139.774 22.1566C135.404 22.1566 132.933 18.7029 132.933 13.4814C132.933 8.26009 135.404 4.8434 139.774 4.8434C144.142 4.8434 146.613 8.22303 146.613 13.4814C146.613 18.7399 144.142 22.1566 139.774 22.1566Z" fill="#00C58B" style="fill:#00C58B;fill:color(display-p3 0.0000 0.7725 0.5451);fill-opacity:1;"/>
<path d="M165.465 0.33728H155.396V26.622H165.465C173.748 26.622 178.042 21.9269 178.042 13.4778C178.042 5.02874 173.748 0.33728 165.465 0.33728ZM164.894 21.7416H161.095V5.22144H164.894C170.328 5.22144 172.23 7.70058 172.23 13.4816C172.23 19.2625 170.328 21.7416 164.894 21.7416Z" fill="#00C58B" style="fill:#00C58B;fill:color(display-p3 0.0000 0.7725 0.5451);fill-opacity:1;"/>
<path d="M186.667 21.7416V15.5085H197.992V11.1172H186.667V5.22144H199.132V0.33728H180.967V26.6258H199.515V21.7416H186.667Z" fill="#00C58B" style="fill:#00C58B;fill:color(display-p3 0.0000 0.7725 0.5451);fill-opacity:1;"/>
</g>
</g>
<defs>
<clipPath id="clip0_1_1620">
<rect width="200" height="27" fill="white" style="fill:white;fill-opacity:1;"/>
</clipPath>
</defs>
</svg>
