<svg width="200" height="53" viewBox="0 0 200 53" fill="none" xmlns="http://www.w3.org/2000/svg">
<g clip-path="url(#clip0_1_1638)">
<path d="M77.5673 32.2832L75.3453 40.1079L73.1054 32.2759L69.6745 21.7983H64.6592L71.4476 42.1039C72.0025 43.7642 73.5326 44.8795 75.2552 44.8795C76.9781 44.8795 78.5008 43.7696 79.0595 42.1168L85.929 21.7983H81.0849L77.5656 32.2832H77.5673Z" fill="#00C58B" style="fill:#00C58B;fill:color(display-p3 0.0000 0.7725 0.5451);fill-opacity:1;"/>
<path d="M103.512 25.0182C102.708 24.0137 101.688 23.2156 100.485 22.6494C99.2818 22.0851 97.8729 21.7983 96.3015 21.7983C94.73 21.7983 93.3588 22.0705 92.143 22.6075C90.9255 23.1444 89.8724 23.9261 89.0142 24.9305C88.158 25.9333 87.4928 27.1623 87.0369 28.585C86.5828 30.0024 86.354 31.6021 86.354 33.3389C86.354 35.0759 86.5846 36.6757 87.0369 38.0929C87.491 39.5156 88.158 40.7465 89.0142 41.7474C89.8724 42.7519 90.9255 43.5354 92.143 44.0704C93.3588 44.6073 94.7586 44.8795 96.3015 44.8795C98.3092 44.8795 100.097 44.4704 101.617 43.665C103.138 42.858 104.317 41.7566 105.121 40.3922L105.194 40.2699L102.321 37.3715L102.201 37.5614C101.59 38.5312 100.839 39.3073 99.9667 39.8717C99.0996 40.4307 98.0178 40.7156 96.7504 40.7156C95.0126 40.7156 93.6592 40.1986 92.733 39.1759C91.8015 38.1515 91.3294 36.8182 91.3294 35.2146V34.6924H105.922V32.7984C105.922 31.2843 105.72 29.8489 105.321 28.5267C104.921 27.2026 104.311 26.0226 103.51 25.0201L103.512 25.0182ZM91.3294 31.3191V31.2095C91.3294 30.3986 91.4493 29.6481 91.6871 28.9741C91.9231 28.3036 92.2627 27.7193 92.6936 27.2391C93.1228 26.7605 93.6537 26.3807 94.2671 26.1139C94.882 25.8473 95.5666 25.7104 96.3015 25.7104C97.7104 25.7104 98.835 26.2016 99.6395 27.1696C100.453 28.1484 100.864 29.4637 100.864 31.0816V31.3174H91.3294V31.3191Z" fill="#00C58B" style="fill:#00C58B;fill:color(display-p3 0.0000 0.7725 0.5451);fill-opacity:1;"/>
<path d="M116.09 23.1284C115.218 23.8928 114.598 24.7837 114.245 25.7775V21.8002H109.324V41.9349C109.324 43.3226 110.428 44.4522 111.784 44.4522C113.141 44.4522 114.245 43.3226 114.245 41.9349V30.0386C114.245 28.9239 114.69 28.1051 115.605 27.5359C116.536 26.9558 117.908 26.6613 119.682 26.6613H121.66V21.7983H120.268C118.5 21.7983 117.095 22.2465 116.09 23.1284Z" fill="#00C58B" style="fill:#00C58B;fill:color(display-p3 0.0000 0.7725 0.5451);fill-opacity:1;"/>
<path d="M141.108 29.5811C141.108 27.088 140.343 25.1445 138.836 23.8057C137.337 22.4742 135.166 21.7983 132.38 21.7983C130.282 21.7983 128.56 22.2075 127.256 23.0148C126.55 23.4514 125.921 23.9591 125.386 24.5272C125.003 24.9326 124.803 25.4661 124.821 26.0284C124.838 26.5892 125.072 27.1044 125.479 27.4806C126.261 28.2037 127.479 28.1746 128.253 27.4149C128.524 27.148 128.817 26.9015 129.127 26.6842C129.885 26.151 130.882 25.8806 132.093 25.8806C133.535 25.8806 134.609 26.2276 135.28 26.9124C135.95 27.5975 136.291 28.5946 136.291 29.8733V31.5281H132.625C129.628 31.5281 127.316 32.0869 125.753 33.1883C124.168 34.3044 123.365 35.9992 123.365 38.224C123.365 40.2423 123.981 41.8751 125.198 43.0751C126.413 44.2733 128.168 44.8795 130.415 44.8795C131.996 44.8795 133.361 44.5199 134.478 43.8074C135.523 43.1408 136.272 42.1672 136.71 40.9072C136.883 41.8585 137.266 42.6604 137.853 43.2978C138.511 44.0156 139.465 44.3791 140.683 44.3791H143.358V40.2971H141.108V29.5811ZM136.291 34.8175V37.7671C136.291 38.7702 135.874 39.548 135.019 40.1436C134.153 40.7463 133.031 41.0511 131.683 41.0511C130.61 41.0511 129.757 40.8176 129.153 40.3572C128.555 39.9024 128.263 39.234 128.263 38.3115V37.5592C128.263 35.7144 129.716 34.8194 132.708 34.8194H136.291V34.8175Z" fill="#00C58B" style="fill:#00C58B;fill:color(display-p3 0.0000 0.7725 0.5451);fill-opacity:1;"/>
<path d="M156.46 31.2359L154.51 30.9856C153.402 30.7973 152.592 30.4998 152.101 30.1033C151.624 29.7199 151.394 29.1519 151.394 28.3681C151.394 27.5846 151.66 27.0149 152.209 26.5454C152.758 26.0741 153.631 25.8367 154.808 25.8367C155.914 25.8367 156.909 26.0761 157.764 26.5454C158.624 27.0202 159.327 27.5884 159.854 28.235L159.975 28.3846L162.971 25.4549L162.856 25.3235C161.892 24.2257 160.783 23.3546 159.557 22.7353C158.325 22.1126 156.728 21.7983 154.805 21.7983C153.624 21.7983 152.527 21.9555 151.548 22.266C150.565 22.5783 149.708 23.0313 148.999 23.6139C148.287 24.2002 147.728 24.9235 147.337 25.7654C146.946 26.6075 146.748 27.5811 146.748 28.6624C146.748 30.7171 147.396 32.2878 148.672 33.3363C149.931 34.3701 151.683 35.0366 153.885 35.3161L155.845 35.5665C156.912 35.6997 157.665 35.9975 158.082 36.4504C158.504 36.907 158.708 37.4458 158.708 38.0997C158.708 38.9671 158.416 39.6229 157.816 40.1071C157.213 40.5928 156.269 40.8394 155.009 40.8394C153.749 40.8394 152.661 40.5728 151.728 40.0486C150.786 39.5189 149.919 38.7683 149.147 37.8166L149.027 37.6688L145.909 40.5855L146.014 40.7189C147.032 42.0138 148.246 43.0403 149.622 43.7729C151.002 44.507 152.732 44.8795 154.765 44.8795C156.055 44.8795 157.241 44.7078 158.288 44.3699C159.339 44.0303 160.252 43.5426 161 42.9181C161.75 42.2916 162.336 41.5333 162.742 40.6624C163.145 39.7911 163.35 38.8028 163.35 37.7235C163.35 35.9262 162.79 34.4687 161.683 33.393C160.587 32.3281 158.831 31.6029 156.46 31.2359Z" fill="#00C58B" style="fill:#00C58B;fill:color(display-p3 0.0000 0.7725 0.5451);fill-opacity:1;"/>
<path d="M183.063 25.0182C182.258 24.0137 181.238 23.2156 180.036 22.6494C178.831 22.0851 177.424 21.7983 175.853 21.7983C174.281 21.7983 172.91 22.0705 171.694 22.6075C170.477 23.1444 169.422 23.9261 168.564 24.9305C167.708 25.9333 167.043 27.1623 166.587 28.585C166.133 30.0024 165.904 31.6021 165.904 33.3389C165.904 35.0759 166.135 36.6757 166.587 38.0929C167.043 39.5173 167.708 40.7465 168.564 41.7474C169.422 42.7519 170.475 43.5354 171.694 44.0704C172.91 44.6073 174.31 44.8795 175.853 44.8795C177.86 44.8795 179.648 44.4704 181.167 43.665C182.689 42.8559 183.867 41.7566 184.671 40.3922L184.744 40.2699L181.871 37.3715L181.752 37.5614C181.141 38.5312 180.39 39.3073 179.517 39.8717C178.65 40.4307 177.569 40.7156 176.301 40.7156C174.564 40.7156 173.211 40.1986 172.285 39.1759C171.353 38.1515 170.881 36.8182 170.881 35.2146V34.6924H185.472V32.7984C185.472 31.2861 185.27 29.8489 184.871 28.5267C184.471 27.2026 183.861 26.0226 183.06 25.0201L183.063 25.0182ZM170.881 31.3191V31.2095C170.881 30.4004 171.001 29.6481 171.238 28.9741C171.475 28.3036 171.812 27.7213 172.245 27.2391C172.676 26.7605 173.205 26.3807 173.819 26.1139C174.433 25.8473 175.117 25.7104 175.853 25.7104C177.261 25.7104 178.386 26.2016 179.19 27.1696C180.002 28.1484 180.415 29.4637 180.415 31.0816V31.3174H170.881V31.3191Z" fill="#00C58B" style="fill:#00C58B;fill:color(display-p3 0.0000 0.7725 0.5451);fill-opacity:1;"/>
<path d="M199.931 26.6122V22.4764H195.41V16.2424H190.986V20.4969C190.986 21.2114 190.854 21.7273 190.596 22.0298C190.342 22.3251 189.864 22.4764 189.174 22.4764H187.169V26.6122H190.53V39.9076C190.53 41.4772 190.953 42.7112 191.784 43.5752C192.618 44.4409 193.86 44.8802 195.479 44.8802H199.599V40.7444H195.41V26.614H199.931V26.6122Z" fill="#00C58B" style="fill:#00C58B;fill:color(display-p3 0.0000 0.7725 0.5451);fill-opacity:1;"/>
<path d="M52.3229 12.0608C52.3229 10.5925 51.18 9.40222 49.7707 9.40222C48.361 9.40222 47.2183 10.5925 47.2183 12.0608V22.9861C47.2183 24.4543 48.361 25.6444 49.7707 25.6444C51.18 25.6444 52.3229 24.4543 52.3229 22.9861V12.0608Z" fill="#00C58B" style="fill:#00C58B;fill:color(display-p3 0.0000 0.7725 0.5451);fill-opacity:1;"/>
<path d="M52.3229 12.0608C52.3229 10.5925 51.18 9.40222 49.7707 9.40222C48.361 9.40222 47.2183 10.5925 47.2183 12.0608V22.9861C47.2183 24.4543 48.361 25.6444 49.7707 25.6444C51.18 25.6444 52.3229 24.4543 52.3229 22.9861V12.0608Z" fill="#00C58B" style="fill:#00C58B;fill:color(display-p3 0.0000 0.7725 0.5451);fill-opacity:1;"/>
<path d="M5.1047 12.4895C5.1047 11.0212 3.96197 9.83093 2.55234 9.83093C1.14273 9.83093 0 11.0212 0 12.4895V23.4148C0 24.883 1.14273 26.0732 2.55234 26.0732C3.96197 26.0732 5.1047 24.883 5.1047 23.4148V12.4895Z" fill="#00C58B" style="fill:#00C58B;fill:color(display-p3 0.0000 0.7725 0.5451);fill-opacity:1;"/>
<path d="M17.0168 2.66823C17.0168 1.19462 15.8741 0 14.4645 0C13.0549 0 11.9121 1.19462 11.9121 2.66823V25.1147C11.9121 26.5882 13.0549 27.7829 14.4645 27.7829C15.8741 27.7829 17.0168 26.5882 17.0168 25.1147V2.66823Z" fill="#00C58B" style="fill:#00C58B;fill:color(display-p3 0.0000 0.7725 0.5451);fill-opacity:1;"/>
<path d="M28.9245 12.0624C28.9245 10.5932 27.6865 9.40222 26.1595 9.40222C24.6324 9.40222 23.3945 10.5932 23.3945 12.0624V50.3397C23.3945 51.8091 24.6324 53 26.1595 53C27.6865 53 28.9245 51.8091 28.9245 50.3397V12.0624Z" fill="#00C58B" style="fill:#00C58B;fill:color(display-p3 0.0000 0.7725 0.5451);fill-opacity:1;"/>
<path d="M40.4113 19.3377C40.4113 17.864 39.2685 16.6694 37.8588 16.6694C36.4492 16.6694 35.3066 17.864 35.3066 19.3377V41.7841C35.3066 43.2577 36.4492 44.4524 37.8588 44.4524C39.2685 44.4524 40.4113 43.2577 40.4113 41.7841V19.3377Z" fill="#00C58B" style="fill:#00C58B;fill:color(display-p3 0.0000 0.7725 0.5451);fill-opacity:1;"/>
</g>
<defs>
<clipPath id="clip0_1_1638">
<rect width="200" height="53" fill="white" style="fill:white;fill-opacity:1;"/>
</clipPath>
</defs>
</svg>
