<svg width="200" height="46" viewBox="0 0 200 46" fill="none" xmlns="http://www.w3.org/2000/svg">
<g clip-path="url(#clip0_1_1652)">
<path d="M168.607 44.1394H178.402V26.1653C178.402 22.0654 180.788 19.164 184.304 19.164C187.695 19.164 189.453 21.5612 189.453 24.9672V44.1398H199.248V23.0755C199.248 15.9478 194.978 10.9022 188.071 10.9022C183.677 10.9022 180.599 12.7946 178.276 16.2632H178.088V11.8486H168.607V44.1394H168.607ZM149.394 10.9652C139.159 10.9652 132.315 18.3443 132.315 28.057C132.315 37.707 139.159 45.1491 149.394 45.1491C159.628 45.1491 166.472 37.707 166.472 28.057C166.472 18.344 159.628 10.9652 149.394 10.9652ZM149.331 37.8957C144.684 37.8957 142.236 33.9859 142.236 28.057C142.236 22.0654 144.684 18.218 149.331 18.218C153.977 18.218 156.551 22.0651 156.551 28.057C156.551 33.9859 153.977 37.8957 149.331 37.8957ZM104.437 44.1394H131.938V36.3825H116.367V36.1924L131.248 19.4161V11.8486H104.437V19.6055H119.506V19.7949L104.437 36.6973V44.1394ZM91.8776 44.1394H101.735V11.8486H91.8776V44.1394ZM69.0223 44.1394H78.8173V29.3188C78.8173 22.5699 82.8359 19.6055 88.9891 20.4258H89.1776V11.9116C88.675 11.7222 88.1103 11.6592 87.1685 11.6592C83.3385 11.6592 80.764 13.4248 78.566 17.2089H78.3774V11.8486H69.0223V44.1394ZM51.0022 37.9594C46.6696 37.9594 44.0327 35.1204 43.5301 30.7697H66.6991C66.7619 23.8311 64.9406 18.281 61.1106 14.8123C58.4113 12.2897 54.8316 10.9019 50.3111 10.9019C40.6422 10.9019 33.9233 18.281 33.9233 27.9306C33.9233 37.643 40.3278 45.0851 50.9392 45.0851C54.9577 45.0851 58.1597 44.013 60.7969 42.1837C63.6227 40.2296 65.6315 37.3905 66.1962 34.5528H56.7783C55.8368 36.6973 53.8901 37.9594 51.0022 37.9594ZM50.4996 17.9655C53.9529 17.9655 56.3388 20.5522 56.7156 24.3359H43.5928C44.3468 20.4882 46.4183 17.9655 50.4996 17.9655ZM91.8776 0.368896H101.735V9.13587H91.8776V0.368896Z" fill="white" style="fill:white;fill-opacity:1;"/>
<path d="M9.92139 12.3485L21.8813 43.6405H13.1489C13.0981 43.6405 13.0514 43.6091 13.0327 43.5604V43.5594L1.104 12.3485H9.92139Z" fill="#00C58B" fill-opacity="0.2" stroke="black" style="fill:#00C58B;fill:color(display-p3 0.0000 0.7725 0.5451);fill-opacity:0.2;stroke:black;stroke-opacity:1;"/>
<path d="M13.7308 43.7377L25.919 11.8485H35.8071L23.6189 43.7377C23.5265 43.9808 23.2943 44.14 23.0361 44.14H13.1479C13.4065 44.14 13.6387 43.9808 13.7308 43.7377Z" fill="white" style="fill:white;fill-opacity:1;"/>
</g>
<defs>
<clipPath id="clip0_1_1652">
<rect width="200" height="46" fill="white" style="fill:white;fill-opacity:1;"/>
</clipPath>
</defs>
</svg>
