<svg width="200" height="38" viewBox="0 0 200 38" fill="none" xmlns="http://www.w3.org/2000/svg">
<g clip-path="url(#clip0_1_1658)">
<mask id="mask0_1_1658" style="mask-type:luminance" maskUnits="userSpaceOnUse" x="0" y="0" width="200" height="38">
<path d="M200 0.872803H0V37.1267H200V0.872803Z" fill="white" style="fill:white;fill-opacity:1;"/>
</mask>
<g mask="url(#mask0_1_1658)">
<path d="M13.6649 36.9582L0 13.9012H8.03161L13.7021 24.4718L19.3633 13.9012H27.4041L13.7392 36.9582V37.0798L13.7021 37.0238L13.6649 37.0798V36.9582Z" fill="#00C58B" style="fill:#00C58B;fill:color(display-p3 0.0000 0.7725 0.5451);fill-opacity:1;"/>
<path d="M51.6103 5.91974H39.2654V14.4809H51.1735V19.5278H39.2654V36.4819H33.9204V0.872803H51.6103V5.91974Z" fill="#00C58B" style="fill:#00C58B;fill:color(display-p3 0.0000 0.7725 0.5451);fill-opacity:1;"/>
<path d="M61.0362 14.0134V26.9018C61.0362 30.6217 62.4957 32.4814 65.4146 32.4814C68.3335 32.4814 69.7929 30.6217 69.7929 26.9018V14.0134H74.9521V27.0234C74.9521 28.8271 74.7289 30.3786 74.2828 31.6777C73.8552 32.8459 73.1114 33.9022 72.0611 34.8368C70.3228 36.3601 68.101 37.1173 65.4146 37.1173C62.728 37.1173 60.525 36.3601 58.7866 34.8368C57.7176 33.9022 56.9554 32.8459 56.5184 31.6777C56.0908 30.631 55.877 29.0795 55.877 27.0234V14.0134H61.0362Z" fill="#00C58B" style="fill:#00C58B;fill:color(display-p3 0.0000 0.7725 0.5451);fill-opacity:1;"/>
<path d="M80.065 14.0134H85.252V16.0882C87.0555 14.2844 89.0913 13.3872 91.3502 13.3872C93.953 13.3872 95.9794 14.2097 97.4297 15.8545C98.6846 17.2566 99.3075 19.5371 99.3075 22.7053V36.4722H94.1204V23.9297C94.1204 21.7146 93.8136 20.1913 93.2001 19.3407C92.6051 18.4808 91.5176 18.0509 89.9465 18.0509C88.2361 18.0509 87.0183 18.6211 86.3026 19.7613C85.596 20.8829 85.2428 22.8456 85.2428 25.64V36.4816H80.0557V14.0134H80.065Z" fill="#00C58B" style="fill:#00C58B;fill:color(display-p3 0.0000 0.7725 0.5451);fill-opacity:1;"/>
<path d="M121.85 14.9854V21.8829C120.67 20.4435 119.619 19.4435 118.68 18.9109C117.76 18.3594 116.691 18.079 115.445 18.079C113.503 18.079 111.894 18.7612 110.602 20.1351C109.319 21.4998 108.678 23.2194 108.678 25.2755C108.678 27.3317 109.301 29.1075 110.537 30.4627C111.792 31.8179 113.391 32.4908 115.334 32.4908C116.57 32.4908 117.667 32.2197 118.615 31.6777C119.535 31.1543 120.614 30.1449 121.85 28.6308V35.4815C119.759 36.5752 117.658 37.1171 115.566 37.1171C112.108 37.1171 109.217 35.9957 106.893 33.7525C104.569 31.4908 103.407 28.687 103.407 25.3316C103.407 21.9763 104.588 19.1537 106.94 16.8452C109.291 14.5368 112.183 13.3872 115.613 13.3872C117.816 13.3872 119.889 13.9199 121.85 14.9761" fill="#00C58B" style="fill:#00C58B;fill:color(display-p3 0.0000 0.7725 0.5451);fill-opacity:1;"/>
<path d="M133.581 18.8643V36.4819H128.422V18.8643H126.219V14.0137H128.422V5.78906H133.581V14.0137H137.588V18.8643H133.581Z" fill="#00C58B" style="fill:#00C58B;fill:color(display-p3 0.0000 0.7725 0.5451);fill-opacity:1;"/>
<path d="M147.86 36.4815H142.701V14.0132H147.86V36.4722V36.4815ZM141.92 4.67639C141.92 3.7698 142.245 2.98472 142.905 2.32115C143.565 1.65756 144.346 1.33044 145.267 1.33044C146.187 1.33044 146.996 1.65756 147.656 2.32115C148.316 2.96602 148.641 3.76046 148.641 4.69507C148.641 5.6297 148.316 6.43346 147.656 7.09705C147.014 7.76063 146.224 8.08774 145.294 8.08774C144.365 8.08774 143.565 7.76063 142.905 7.09705C142.245 6.43346 141.92 5.6297 141.92 4.67639Z" fill="#00C58B" style="fill:#00C58B;fill:color(display-p3 0.0000 0.7725 0.5451);fill-opacity:1;"/>
<path d="M157.861 25.182C157.861 27.4251 158.457 29.2009 159.647 30.5094C160.874 31.8272 162.482 32.4908 164.49 32.4908C166.498 32.4908 168.124 31.8366 169.334 30.5281C170.542 29.2196 171.146 27.4718 171.146 25.2942C171.146 23.1165 170.542 21.3688 169.334 20.0604C168.115 18.7425 166.498 18.079 164.49 18.079C162.482 18.079 160.92 18.7425 159.693 20.0604C158.466 21.3875 157.861 23.0885 157.861 25.182ZM152.591 25.0885C152.591 21.8454 153.744 19.0883 156.059 16.8079C158.364 14.5367 161.181 13.3965 164.499 13.3965C167.817 13.3965 170.663 14.5461 172.986 16.8359C175.282 19.1257 176.425 21.939 176.425 25.2755C176.425 28.6121 175.272 31.4627 172.959 33.7432C170.635 36.005 167.781 37.1358 164.406 37.1358C161.031 37.1358 158.252 35.9862 155.984 33.6777C153.725 31.3972 152.591 28.5467 152.591 25.0979" fill="#00C58B" style="fill:#00C58B;fill:color(display-p3 0.0000 0.7725 0.5451);fill-opacity:1;"/>
<path d="M180.748 14.0134H185.936V16.0882C187.739 14.2844 189.775 13.3872 192.033 13.3872C194.636 13.3872 196.654 14.2097 198.112 15.8545C199.367 17.2566 199.991 19.5371 199.991 22.7053V36.4722H194.803V23.9297C194.803 21.7146 194.496 20.1913 193.884 19.3407C193.288 18.4808 192.2 18.0509 190.63 18.0509C188.92 18.0509 187.701 18.6211 186.986 19.7613C186.279 20.8829 185.926 22.8456 185.926 25.64V36.4816H180.739V14.0134H180.748Z" fill="#00C58B" style="fill:#00C58B;fill:color(display-p3 0.0000 0.7725 0.5451);fill-opacity:1;"/>
</g>
</g>
<defs>
<clipPath id="clip0_1_1658">
<rect width="200" height="38" fill="white" style="fill:white;fill-opacity:1;"/>
</clipPath>
</defs>
</svg>
