<svg width="200" height="67" viewBox="0 0 200 67" fill="none" xmlns="http://www.w3.org/2000/svg">
<g clip-path="url(#clip0_1_1672)">
<path d="M39.3748 15.1956V31.331C39.3748 35.1241 38.3737 38.1211 36.3716 40.3221C34.3695 42.5231 31.6823 43.6236 28.3098 43.6236C26.6318 43.6383 24.974 43.2582 23.4714 42.5143C21.9727 41.7669 20.6753 40.6737 19.6875 39.3257C18.6596 40.6713 17.3414 41.77 15.8301 42.5408C14.3553 43.2697 12.7282 43.6408 11.0817 43.6236C7.7071 43.6236 5.01538 42.5165 3.0066 40.3022C0.997828 38.0879 -0.00322256 35.0986 0.00345112 31.3343V15.1956H5.00537V32.2178C5.00537 34.1908 5.56151 35.7806 6.67379 36.9874C7.78607 38.1942 9.25761 38.7965 11.0884 38.7943C11.915 38.8231 12.7383 38.6752 13.5027 38.3607C14.267 38.0461 14.9548 37.5722 15.5197 36.9708C16.6654 35.7574 17.2382 34.1731 17.2382 32.2178V15.1956H22.2101V32.2178C22.2101 34.1908 22.7662 35.7806 23.8785 36.9874C24.9908 38.1942 26.4623 38.7965 28.2932 38.7943C29.1169 38.8228 29.9371 38.674 30.6979 38.3582C31.4586 38.0424 32.1419 37.5669 32.7011 36.9642C33.8312 35.7507 34.3973 34.1664 34.3996 32.2112V15.1956H39.3748Z" fill="#00C58B" style="fill:#00C58B;fill:color(display-p3 0.0000 0.7725 0.5451);fill-opacity:1;"/>
<path d="M63.8173 43.1121V29.1953C63.8173 26.2747 62.9875 23.9076 61.328 22.0941C59.6685 20.2806 57.5151 19.375 54.8679 19.3772C52.2384 19.3772 50.0795 20.274 48.3911 22.0675C46.7026 23.8611 45.8595 26.1706 45.8617 28.996C45.8617 31.8746 46.7293 34.2372 48.4645 36.0839C50.1996 37.9306 52.4108 38.8562 55.0981 38.8606C56.3117 38.8613 57.5158 38.6488 58.6552 38.2329C59.9033 37.7643 61.0741 37.1128 62.1288 36.2998V41.6772C60.9941 42.3174 59.7772 42.8012 58.5117 43.1154C57.2066 43.432 55.8675 43.5893 54.5242 43.5837C53.1759 43.5822 51.8358 43.3761 50.55 42.9726C49.2769 42.5841 48.0715 42.0027 46.9762 41.2487C45.0187 39.9331 43.4258 38.1477 42.3447 36.0574C41.2602 33.908 40.7109 31.5306 40.743 29.1255C40.743 24.9428 42.0666 21.4896 44.7139 18.766C47.3611 16.0425 50.7257 14.6818 54.8078 14.684C57.4071 14.659 59.9616 15.3585 62.1822 16.7034C64.3958 18.027 66.1833 19.9527 67.3343 22.2535C67.898 23.3511 68.2971 24.525 68.5189 25.7377C68.7988 27.6063 68.9183 29.4953 68.8759 31.3841V43.1087L63.8173 43.1121Z" fill="#00C58B" style="fill:#00C58B;fill:color(display-p3 0.0000 0.7725 0.5451);fill-opacity:1;"/>
<path d="M76.8274 2.36157H71.7954V43.1121H76.8274V2.36157Z" fill="#00C58B" style="fill:#00C58B;fill:color(display-p3 0.0000 0.7725 0.5451);fill-opacity:1;"/>
<path d="M80.2344 43.1121V2.36157H85.2663V25.3259H87.4953C88.7248 25.378 89.9427 25.0708 90.999 24.4424C91.9044 23.8534 92.881 22.6964 93.9288 20.9715L97.5025 15.1956H103.362L99.2477 21.8384C98.6258 22.8845 97.9075 23.8708 97.1021 24.7845C96.5392 25.4521 95.8612 26.0145 95.1 26.4452C97.4069 26.8881 99.1086 27.8325 100.205 29.2784C101.302 30.7243 101.849 32.7781 101.847 35.4396V43.1121H96.7884V36.0541C96.7884 34.0612 96.3446 32.5666 95.4537 31.63C94.5628 30.6933 93.1646 30.225 91.2426 30.225H85.2663V43.1121H80.2344Z" fill="#00C58B" style="fill:#00C58B;fill:color(display-p3 0.0000 0.7725 0.5451);fill-opacity:1;"/>
<path fill-rule="evenodd" clip-rule="evenodd" d="M180.873 0H124.074C121.561 -3.80517e-08 119.074 0.492553 116.753 1.44953C114.432 2.40651 112.324 3.80916 110.548 5.57739C108.772 7.34562 107.363 9.44479 106.402 11.755C105.441 14.0652 104.946 16.5413 104.947 19.0417V37.4059C104.944 39.9077 105.437 42.3855 106.397 44.6977C107.357 47.0098 108.765 49.1109 110.542 50.8809C112.318 52.6509 114.428 54.0551 116.749 55.0131C119.071 55.9711 121.56 56.4642 124.074 56.4642H138.789L152.263 66.0166L165.737 56.4642H180.873C183.385 56.4642 185.873 55.9716 188.193 55.0147C190.514 54.0577 192.623 52.655 194.399 50.8868C196.175 49.1186 197.584 47.0194 198.545 44.7092C199.506 42.3989 200 39.9229 200 37.4225V19.0417C200 13.9921 197.985 9.14928 194.398 5.57836C190.811 2.00744 185.946 0.000880796 180.873 0Z" fill="black" style="fill:black;fill-opacity:1;"/>
<path d="M117.978 42.5142V26.3588C117.978 22.5657 118.979 19.5687 120.981 17.3677C122.983 15.1667 125.679 14.0662 129.069 14.0662C130.735 14.0503 132.381 14.4258 133.874 15.1623C135.374 15.9201 136.676 17.0166 137.675 18.3641C138.691 17.0168 140.002 15.9173 141.509 15.149C142.992 14.4191 144.627 14.0481 146.281 14.0662C149.637 14.0662 152.32 15.1733 154.329 17.3876C156.338 19.6019 157.339 22.5912 157.332 26.3554V42.5142H152.37V25.4221C152.37 23.4691 151.809 21.8937 150.685 20.6957C149.509 19.5486 147.929 18.906 146.282 18.906C144.636 18.906 143.055 19.5486 141.879 20.6957C140.754 21.8915 140.191 23.4669 140.191 25.4221V42.5142H135.219V25.4221C135.219 23.4691 134.646 21.8937 133.501 20.6957C132.93 20.1034 132.241 19.6378 131.477 19.3293C130.713 19.0207 129.893 18.8763 129.069 18.9055C127.241 18.9055 125.769 19.5022 124.655 20.6957C123.54 21.8892 122.984 23.4647 122.986 25.4221V42.5142H117.978Z" fill="#00C58B" style="fill:#00C58B;fill:color(display-p3 0.0000 0.7725 0.5451);fill-opacity:1;"/>
<path d="M186.97 30.1453C186.262 34.131 184.642 37.2808 182.108 39.5947C179.574 41.9087 176.488 43.0656 172.848 43.0656C171.608 43.0648 170.373 42.8972 169.178 42.5674C167.976 42.2391 166.826 41.7462 165.761 41.1027C162.769 39.2745 160.525 36.4508 159.425 33.1324C158.326 29.814 158.442 26.2153 159.754 22.9743C160.471 21.2241 161.518 19.6265 162.838 18.2679C164.139 16.9194 165.702 15.8481 167.432 15.119C169.162 14.3899 171.023 14.0182 172.902 14.0264C175.609 13.9826 178.266 14.7561 180.523 16.2451C182.759 17.7331 184.574 19.8998 185.969 22.7452L167.586 32.8821L165.467 29.099L179.105 21.5229C178.319 20.6324 177.355 19.9152 176.275 19.4171C175.198 18.9369 174.029 18.6944 172.848 18.7063C171.647 18.6875 170.457 18.9284 169.359 19.4124C168.261 19.8964 167.281 20.6119 166.488 21.5096C164.762 23.3762 163.899 25.6857 163.899 28.4381C163.899 31.1904 164.766 33.4955 166.501 35.3533C167.275 36.2012 168.211 36.8871 169.254 37.3706C170.297 37.8541 171.426 38.1257 172.576 38.1693C173.726 38.2129 174.873 38.0277 175.949 37.6246C177.026 37.2215 178.012 36.6085 178.848 35.8216C180.458 34.2583 181.459 32.1105 181.851 29.378L186.97 30.1453Z" fill="#00C58B" style="fill:#00C58B;fill:color(display-p3 0.0000 0.7725 0.5451);fill-opacity:1;"/>
</g>
<defs>
<clipPath id="clip0_1_1672">
<rect width="200" height="67" fill="white" style="fill:white;fill-opacity:1;"/>
</clipPath>
</defs>
</svg>
