<svg width="200" height="62" viewBox="0 0 200 62" fill="none" xmlns="http://www.w3.org/2000/svg">
<g clip-path="url(#clip0_1_1684)">
<mask id="mask0_1_1684" style="mask-type:luminance" maskUnits="userSpaceOnUse" x="0" y="0" width="200" height="62">
<path d="M0 0H199.383V62H0V0Z" fill="white" style="fill:white;fill-opacity:1;"/>
</mask>
<g mask="url(#mask0_1_1684)">
<path d="M9.6653 54.6549C21.5153 43.0183 40.6365 42.9796 52.4884 54.6549L45.223 61.9729C41.9018 58.7876 37.2326 56.9702 31.1268 56.9702C25.0211 56.9702 20.2999 58.7973 16.9538 62L9.6653 54.6549ZM61.9326 16.864L48.1057 30.8024V31.1744L61.9326 45.1128L53.9345 53.1669L33.1999 32.2691H28.9499L8.20761 53.1669L0.213379 45.1128L14.0461 31.1744V30.8024L0.213379 16.864L8.20761 8.80981L28.9499 29.7057H33.1999L53.9345 8.80981L61.9326 16.864ZM16.9557 0C20.298 3.20269 25.0441 5.02975 31.1268 5.02975C37.2095 5.02975 41.8999 3.21238 45.223 0.027125L52.4865 7.34506C40.6345 19.0282 21.5153 18.9875 9.66338 7.34506L16.9557 0ZM115.994 16.8679H109.363L101.413 27.9523H99.1114L91.1595 16.8679H84.5288L95.6884 30.9845L84.5307 45.1011H91.1595L99.1114 34.0147H101.413L109.363 45.1011H115.994L104.835 30.9845L115.994 16.8679Z" fill="white" style="fill:white;fill-opacity:1;"/>
<path d="M129.044 16.213C119.905 16.213 114.48 22.6823 114.48 31.062C114.48 39.4417 120.019 45.6785 129.044 45.6785C137.89 45.6785 143.552 39.6141 143.552 31.062C143.552 22.5079 138.182 16.213 129.044 16.213ZM129.044 41.3423C122.969 41.3423 119.905 37.1225 119.905 30.9418C119.905 24.7612 123.09 20.5433 129.044 20.5433C134.996 20.5433 138.121 24.7612 138.121 30.9418C138.121 37.1225 134.996 41.3423 129.044 41.3423ZM162.417 16.213C157.465 16.213 154.609 18.7085 153.371 21.5023H152.217V16.864H147.265V45.0992H152.4V30.1184C152.865 24.769 156.348 20.7893 160.886 20.7893C165.425 20.7893 166.013 24.1141 166.013 28.334V45.0992H171.202V25.3037C171.202 19.4215 167.725 16.213 162.417 16.213ZM195.759 18.1098C193.873 16.862 191.336 16.2072 187.913 16.2072C180.365 16.2072 175.65 19.9485 175.65 25.6525C175.65 25.9528 175.65 26.4856 175.711 26.784H180.607C180.607 23.6355 182.198 20.427 187.684 20.427C192.28 20.427 194.344 22.504 194.344 26.3073V27.3168L191.925 27.7333C186.559 28.6866 182.907 29.5178 180.309 30.5272C176.536 32.0113 174.886 34.3887 174.886 37.7773C174.886 42.5882 178.423 45.6203 184.2 45.6203C188.563 45.6203 191.275 44.1905 193.513 41.755H194.225V45.1011H199.357V25.7765C199.357 21.9112 197.998 19.5958 195.759 18.1098ZM194.225 32.8425V35.8147C193.575 39.1995 190.565 41.755 185.79 41.755C182.313 41.755 180.188 40.0927 180.188 37.477C180.188 34.8614 182.021 33.79 186.323 32.8425L192.871 31.4185L194.169 30.2308L195.23 30.8411L194.225 32.8425Z" fill="white" style="fill:white;fill-opacity:1;"/>
</g>
</g>
<defs>
<clipPath id="clip0_1_1684">
<rect width="200" height="62" fill="white" style="fill:white;fill-opacity:1;"/>
</clipPath>
</defs>
</svg>
