<svg width="200" height="23" viewBox="0 0 200 23" fill="none" xmlns="http://www.w3.org/2000/svg">
<g clip-path="url(#clip0_1_1691)">
<path d="M199.893 19.9829V22.897H193.794L185.083 14.8844L183.066 16.4874V22.897H176.755V0.00646973H183.066V8.47704L193.666 0.00646973H199.893V3.06647L190.049 10.9129L199.893 19.9873V19.9829Z" fill="#00C58B" style="fill:#00C58B;fill:color(display-p3 0.0000 0.7725 0.5451);fill-opacity:1;"/>
<path d="M146.237 0.00476074C146.67 0.00476074 147.078 0.0878276 147.455 0.253961C147.834 0.420094 148.166 0.642355 148.444 0.920741C148.74 1.19913 148.971 1.53139 149.139 1.91979C149.307 2.29471 149.391 2.69658 149.391 3.12762V22.8975H143.081V17.6957H132.562V22.8975H126.251V3.12762C126.251 2.69658 126.328 2.29471 126.483 1.91979C126.65 1.53139 126.875 1.19913 127.156 0.920741C127.451 0.642355 127.786 0.42234 128.166 0.253961C128.545 0.0878276 128.951 0.00476074 129.387 0.00476074H146.237ZM132.564 6.24824V11.45H143.083V6.24824H132.564Z" fill="#00C58B" style="fill:#00C58B;fill:color(display-p3 0.0000 0.7725 0.5451);fill-opacity:1;"/>
<path d="M124.142 0.00476074V22.8953H117.831V12.3593L114.826 17.6781H110.286L107.315 12.3593V22.8953H101.004V0.00476074H107.315L112.573 10.196L117.831 0.00476074H124.144H124.142Z" fill="#00C58B" style="fill:#00C58B;fill:color(display-p3 0.0000 0.7725 0.5451);fill-opacity:1;"/>
<path d="M78.9076 22.895C78.472 22.895 78.0589 22.812 77.6663 22.6458C77.2873 22.4797 76.9583 22.2574 76.6769 21.9791C76.3955 21.7006 76.1731 21.3751 76.003 21.0002C75.835 20.6118 75.751 20.2032 75.751 19.7722V3.12286C75.751 2.69182 75.835 2.28996 76.003 1.91503C76.1709 1.52664 76.3955 1.19437 76.6769 0.91598C76.9583 0.637594 77.2873 0.41758 77.6663 0.2492C78.0589 0.083067 78.472 0 78.9076 0H95.7372C96.1728 0 96.5791 0.083067 96.9581 0.2492C97.3506 0.415334 97.6865 0.637594 97.9679 0.91598C98.2493 1.19437 98.474 1.52664 98.6418 1.91503C98.8098 2.28996 98.8938 2.69182 98.8938 3.12286V19.7722C98.8938 20.2032 98.8098 20.6118 98.6418 21.0002C98.474 21.3751 98.2493 21.7006 97.9679 21.9791C97.6888 22.2574 97.3506 22.4797 96.9581 22.6458C96.5791 22.812 96.1728 22.895 95.7372 22.895H78.9076ZM92.5805 6.24797H82.062V16.6537H92.5805V6.24797Z" fill="#00C58B" style="fill:#00C58B;fill:color(display-p3 0.0000 0.7725 0.5451);fill-opacity:1;"/>
<path d="M48.3892 8.32886V14.5723H31.562V16.6536H48.3892V22.897H25.251V0.00646973H48.3892V6.24994H31.562V8.33111H48.3892V8.32886Z" fill="#00C58B" style="fill:#00C58B;fill:color(display-p3 0.0000 0.7725 0.5451);fill-opacity:1;"/>
<path d="M9.99193 16.6539H23.1383V22.8974H0V16.6539L13.1463 6.24811H0V0.00463867H23.1383V6.24811L9.99193 16.6539Z" fill="#00C58B" style="fill:#00C58B;fill:color(display-p3 0.0000 0.7725 0.5451);fill-opacity:1;"/>
<path d="M73.6494 14.5723C73.6494 14.9607 73.5791 15.329 73.4406 15.6747C73.3136 16.0205 73.123 16.3324 72.871 16.6109C72.6328 16.8892 72.3536 17.1182 72.0291 17.2978C71.7069 17.4774 71.3574 17.5964 70.9785 17.6526L73.6494 20.295V22.897H68.4731L63.215 17.6952H56.8223V22.897H50.5112V0.00646973H70.495C70.9285 0.00646973 71.337 0.0895366 71.7138 0.25567C72.1063 0.421804 72.4445 0.644063 72.7236 0.922448C73.005 1.20083 73.2296 1.53311 73.3975 1.9215C73.5655 2.29641 73.6494 2.69828 73.6494 3.12933V14.5746V14.5723ZM67.3384 6.2477H56.8223V11.4495H67.3384V6.2477Z" fill="#00C58B" style="fill:#00C58B;fill:color(display-p3 0.0000 0.7725 0.5451);fill-opacity:1;"/>
<path d="M174.63 14.5723C174.63 14.9607 174.561 15.329 174.423 15.6747C174.295 16.0205 174.104 16.3324 173.852 16.6109C173.615 16.8892 173.335 17.1182 173.011 17.2978C172.688 17.4774 172.339 17.5964 171.959 17.6526L174.63 20.295V22.897H169.455L164.197 17.6952H157.803V22.897H151.492V0.00646973H171.477C171.91 0.00646973 172.318 0.0895366 172.695 0.25567C173.088 0.421804 173.426 0.644063 173.705 0.922448C173.987 1.20083 174.211 1.53311 174.379 1.9215C174.546 2.29641 174.63 2.69828 174.63 3.12933V14.5746V14.5723ZM168.319 6.2477H157.803V11.4495H168.319V6.2477Z" fill="#00C58B" style="fill:#00C58B;fill:color(display-p3 0.0000 0.7725 0.5451);fill-opacity:1;"/>
</g>
<defs>
<clipPath id="clip0_1_1691">
<rect width="200" height="23" fill="white" style="fill:white;fill-opacity:1;"/>
</clipPath>
</defs>
</svg>
