<svg width="200" height="48" viewBox="0 0 200 48" fill="none" xmlns="http://www.w3.org/2000/svg">
<g clip-path="url(#clip0_1_1700)">
<mask id="mask0_1_1700" style="mask-type:luminance" maskUnits="userSpaceOnUse" x="0" y="0" width="200" height="48">
<path d="M200 0H0V48H200V0Z" fill="white" style="fill:white;fill-opacity:1;"/>
</mask>
<g mask="url(#mask0_1_1700)">
<path d="M23.9572 20.3015C27.0109 20.3016 29.4872 22.7816 29.4872 25.84C29.4872 28.8984 27.0109 31.3784 23.9572 31.3785C20.9034 31.3785 18.4272 28.8985 18.4272 25.84C18.4272 22.7815 20.9034 20.3015 23.9572 20.3015Z" fill="#00C58B" style="fill:#00C58B;fill:color(display-p3 0.0000 0.7725 0.5451);fill-opacity:1;"/>
<path fill-rule="evenodd" clip-rule="evenodd" d="M25.8064 -0.00610352C36.2338 -0.00610352 41.4473 -0.00586781 44.6867 3.23849C47.9258 6.48283 47.9263 11.7043 47.9263 22.1477V25.8401C47.9263 36.2835 47.9258 41.505 44.6867 44.7493C41.4473 47.9936 36.2338 47.9941 25.8064 47.9941H22.1198C11.6924 47.9941 6.47899 47.9936 3.23961 44.7493C0.000235342 41.505 0 36.2835 0 25.8401V22.1477C0 11.7043 0.000235342 6.48283 3.23961 3.23849C6.47899 -0.00586781 11.6924 -0.00610352 22.1198 -0.00610352H25.8064ZM9.2106 7.37849C8.1906 7.37849 7.36728 8.20312 7.36728 9.22464C7.36728 10.2462 8.1906 11.0708 9.2106 11.0708H22.1138V16.7938C17.9049 17.6491 14.7406 21.3723 14.7406 25.8401C14.7406 30.3078 17.9049 34.0309 22.1138 34.8863V40.6093C22.1138 41.6308 22.9371 42.4555 23.9571 42.4555C24.977 42.4554 25.8005 41.6308 25.8005 40.6093V34.8863C30.0093 34.0309 33.1737 30.3077 33.1737 25.8401C33.1737 21.3724 30.0093 17.6492 25.8005 16.7938V11.0708H38.7037C39.7236 11.0708 40.547 10.2462 40.547 9.22464C40.547 8.20317 39.7236 7.37858 38.7037 7.37849H9.2106Z" fill="#00C58B" style="fill:#00C58B;fill:color(display-p3 0.0000 0.7725 0.5451);fill-opacity:1;"/>
<path fill-rule="evenodd" clip-rule="evenodd" d="M38.7099 7.38464C39.7298 7.38474 40.5533 8.20932 40.5533 9.2308C40.5533 10.2523 39.7298 11.0769 38.7099 11.077H25.8067V16.7999C30.0156 17.6554 33.18 21.3785 33.18 25.8462C33.18 30.3138 30.0156 34.037 25.8067 34.8925V40.6154C25.8067 41.6369 24.9833 42.4615 23.9634 42.4616C22.9434 42.4616 22.1201 41.6369 22.1201 40.6154V34.8925C17.9112 34.0371 14.7468 30.3139 14.7468 25.8462C14.7468 21.3785 17.9112 17.6553 22.1201 16.7999V11.077H9.21685C8.1969 11.077 7.37354 10.2523 7.37354 9.2308C7.37354 8.20927 8.1969 7.38464 9.21685 7.38464H38.7099ZM23.9634 20.3077C20.9096 20.3077 18.4334 22.7877 18.4334 25.8462C18.4334 28.9047 20.9096 31.3846 23.9634 31.3846C27.0171 31.3846 29.4934 28.9046 29.4934 25.8462C29.4934 22.7878 27.0171 20.3078 23.9634 20.3077Z" fill="black" style="fill:black;fill-opacity:1;"/>
<path d="M123.042 17.2308C127.791 17.2308 131.644 21.0893 131.644 25.8462C131.644 30.6032 127.791 34.4616 123.042 34.4616C118.292 34.4616 114.439 30.6032 114.439 25.8462C114.439 21.0893 118.292 17.2308 123.042 17.2308ZM68.2273 17.5385C68.2273 17.5385 68.2582 17.5385 68.2766 17.5385C68.289 17.5385 68.301 17.5385 68.3195 17.5385C68.3379 17.5385 68.3503 17.5385 68.3688 17.5447C68.3812 17.5447 68.3996 17.5447 68.4116 17.5509C68.4241 17.5509 68.4425 17.557 68.4549 17.5631C68.4669 17.5631 68.4854 17.5693 68.4978 17.5755C68.5162 17.5755 68.5287 17.5878 68.5407 17.5939C68.5531 17.5939 68.5655 17.6063 68.5775 17.6063C68.59 17.6124 68.6084 17.6185 68.6208 17.6247C68.6328 17.6308 68.6513 17.637 68.6637 17.6493C68.6761 17.6493 68.6821 17.6616 68.6946 17.6678C68.713 17.6801 68.725 17.6924 68.7434 17.6986C68.7434 17.6986 68.7559 17.7047 68.7559 17.7108C68.7559 17.7108 68.7619 17.717 68.7683 17.7232C68.7803 17.7355 68.7987 17.7478 68.8112 17.7601C68.8236 17.7662 68.8296 17.7785 68.842 17.7847C68.854 17.797 68.8665 17.8093 68.8789 17.8216C68.8849 17.8339 68.8973 17.8401 68.9093 17.8524C68.9218 17.8647 68.9278 17.877 68.9402 17.8893C68.9462 17.9016 68.9586 17.9139 68.9646 17.9201C68.9771 17.9324 68.9831 17.9508 68.9955 17.9632C68.9955 17.9755 69.0079 17.9816 69.0139 17.9939C69.0199 18.0124 69.0324 18.0247 69.0384 18.0431C69.0384 18.0555 69.0508 18.0678 69.0568 18.0801C69.0632 18.0924 69.0692 18.1108 69.0752 18.1232C69.0752 18.1355 69.0817 18.1478 69.0877 18.1601C69.0877 18.1786 69.1001 18.197 69.1001 18.2093C69.1001 18.2216 69.1061 18.2339 69.1061 18.2462C69.1061 18.2647 69.1121 18.2831 69.1185 18.3016C69.1185 18.3139 69.1185 18.3201 69.1185 18.3324C69.1185 18.3509 69.1185 18.3693 69.1185 18.3878C69.1185 18.4001 69.1185 18.4124 69.1185 18.4247C69.1185 18.4308 69.1185 18.4432 69.1185 18.4493C69.1185 18.4555 69.1185 18.4678 69.1185 18.4739C69.1185 18.4924 69.1185 18.5047 69.1185 18.5231C69.1185 18.5355 69.1185 18.5478 69.1185 18.5601C69.1185 18.5785 69.1185 18.597 69.1121 18.6093C69.1121 18.6216 69.1121 18.6401 69.1061 18.6524C69.1061 18.6647 69.1001 18.677 69.0937 18.6955C69.0937 18.7139 69.0817 18.7324 69.0752 18.7447C69.0752 18.757 69.0692 18.7631 69.0632 18.7755C69.0568 18.7939 69.0508 18.8124 69.0384 18.8308C69.0384 18.837 69.0324 18.8493 69.0264 18.8554C69.0139 18.8739 69.0015 18.8986 68.9895 18.917C68.9895 18.917 68.9895 18.9293 68.9831 18.9293C68.9711 18.9478 68.9586 18.9662 68.9462 18.9847C68.9462 18.9847 68.9402 18.997 68.9342 19.0031L58.9803 32.2954H68.1969C68.7066 32.2954 69.1185 32.7078 69.1185 33.2185C69.1185 33.7293 68.7066 34.1416 68.1969 34.1416H57.137C57.137 34.1416 57.1185 34.1416 57.1121 34.1416C57.0937 34.1416 57.0817 34.1416 57.0632 34.1416C57.0508 34.1416 57.0384 34.1416 57.0264 34.1416C57.0079 34.1416 56.9895 34.1416 56.9771 34.1355C56.9646 34.1355 56.9462 34.1355 56.9342 34.1293C56.9218 34.1293 56.9033 34.1231 56.8909 34.117C56.8789 34.117 56.8665 34.1109 56.854 34.1047C56.8356 34.1047 56.8172 34.0924 56.7987 34.0862C56.7927 34.0862 56.7803 34.0801 56.7743 34.0739C56.7559 34.0678 56.7434 34.0555 56.725 34.0493C56.713 34.0432 56.7006 34.037 56.6881 34.0308C56.6761 34.0247 56.6637 34.0186 56.6577 34.0124C56.6453 34.0001 56.6268 33.9939 56.6144 33.9816C56.6144 33.9816 56.6024 33.9754 56.596 33.9693C56.59 33.9693 56.584 33.957 56.5775 33.9508C56.5655 33.9447 56.5591 33.9324 56.5471 33.9262C56.5347 33.9139 56.5222 33.9016 56.5038 33.8893C56.4978 33.8831 56.4854 33.877 56.4794 33.8647C56.4669 33.8524 56.4549 33.8339 56.4365 33.8216C56.4301 33.8155 56.4241 33.8032 56.4181 33.797C56.4056 33.7847 56.3932 33.7662 56.3872 33.7539C56.3812 33.7416 56.3748 33.7355 56.3688 33.7232C56.3563 33.7109 56.3503 33.6924 56.3443 33.6801C56.3379 33.6678 56.3319 33.6555 56.3259 33.6431C56.3195 33.6309 56.3135 33.6185 56.3075 33.6001C56.3075 33.5878 56.295 33.5755 56.295 33.5693C56.289 33.5508 56.2826 33.5324 56.2766 33.5139C56.2766 33.5016 56.2706 33.4893 56.2642 33.477C56.2642 33.4647 56.2582 33.4463 56.2522 33.4339C56.2522 33.4216 56.2522 33.4031 56.2457 33.3909C56.2457 33.3724 56.2457 33.3601 56.2397 33.3416C56.2397 33.3293 56.2397 33.3232 56.2397 33.3108C56.2397 33.2862 56.2397 33.2678 56.2397 33.2432C56.2397 33.2432 56.2397 33.237 56.2397 33.2309C56.2397 33.2247 56.2397 33.2247 56.2397 33.2185C56.2397 33.1939 56.2397 33.1693 56.2397 33.1509C56.2397 33.1447 56.2397 33.1324 56.2397 33.1262C56.2397 33.1078 56.2397 33.0893 56.2457 33.0708C56.2457 33.0586 56.2457 33.0401 56.2522 33.0278C56.2522 33.0154 56.2582 32.997 56.2642 32.9847C56.2642 32.9724 56.2706 32.9601 56.2766 32.9478C56.2766 32.9293 56.289 32.9109 56.295 32.8985C56.295 32.8862 56.301 32.8801 56.3075 32.8678C56.3135 32.8555 56.3195 32.837 56.3259 32.8247C56.3319 32.8124 56.3379 32.7939 56.3503 32.7816C56.3503 32.7693 56.3628 32.7632 56.3688 32.7508C56.3812 32.7385 56.3872 32.7201 56.3996 32.7078C56.3996 32.7078 56.4056 32.6955 56.4116 32.6893L66.3655 19.397H57.149C56.6393 19.397 56.2273 18.9847 56.2273 18.4739C56.2273 17.9632 56.6393 17.5509 57.149 17.5509H68.2089C68.2089 17.5509 68.2273 17.5509 68.2337 17.5509L68.2273 17.5385ZM87.5577 17.5385C88.0678 17.5385 88.4794 17.9508 88.4794 18.4616C88.4794 18.9724 88.0678 19.3847 87.5577 19.3847H79.2628V24.9232H85.7144C86.2245 24.9232 86.636 25.3355 86.636 25.8462C86.636 26.357 86.2245 26.7693 85.7144 26.7693H79.2628V32.3078H87.5577C88.0678 32.3078 88.4794 32.7201 88.4794 33.2309C88.4794 33.7416 88.0678 34.1539 87.5577 34.1539H78.3411C77.831 34.1539 77.4195 33.7416 77.4195 33.2309V18.4616C77.4195 18.4308 77.4195 18.4001 77.4195 18.3632C77.4623 17.9324 77.8066 17.5816 78.243 17.5385C78.2734 17.5385 78.3043 17.5385 78.3351 17.5385H87.5517H87.5577ZM103.226 17.5385C105.77 17.5385 107.834 19.6062 107.834 22.1539C107.834 23.9016 106.863 25.4216 105.432 26.2093L104.651 26.6339L107.736 32.8186C107.963 33.2739 107.779 33.8278 107.324 34.0555C106.87 34.2832 106.317 34.0985 106.089 33.6431L102.654 26.7693H98.6176V33.2309C98.6176 33.7416 98.2061 34.1539 97.696 34.1539C97.1858 34.1539 96.7743 33.7416 96.7743 33.2309V18.4616C96.7743 18.4308 96.7743 18.4001 96.7743 18.3632C96.8236 17.9016 97.2167 17.5385 97.69 17.5385H103.22H103.226ZM147.926 17.5385C148.437 17.5385 148.848 17.9508 148.848 18.4616C148.848 18.9724 148.437 19.3847 147.926 19.3847H143.318V33.2309C143.318 33.7416 142.907 34.1539 142.396 34.1539C141.886 34.1539 141.475 33.7416 141.475 33.2309V19.3847H136.866C136.356 19.3847 135.945 18.9724 135.945 18.4616C135.945 17.9508 136.356 17.5385 136.866 17.5385H147.926ZM157.604 17.5385C158.114 17.5385 158.525 17.9508 158.525 18.4616V33.2309C158.525 33.7416 158.114 34.1539 157.604 34.1539C157.094 34.1539 156.682 33.7416 156.682 33.2309V18.4616C156.682 17.9508 157.094 17.5385 157.604 17.5385ZM178.802 17.5385C179.312 17.5385 179.724 17.9508 179.724 18.4616C179.724 18.9724 179.312 19.3847 178.802 19.3847H170.507V24.9232H176.959C177.469 24.9232 177.88 25.3355 177.88 25.8462C177.88 26.357 177.469 26.7693 176.959 26.7693H170.507V32.3078H178.802C179.312 32.3078 179.724 32.7201 179.724 33.2309C179.724 33.7416 179.312 34.1539 178.802 34.1539H169.585C169.075 34.1539 168.664 33.7416 168.664 33.2309V18.4616C168.664 18.4308 168.664 18.4001 168.664 18.3632C168.707 17.9324 169.051 17.5816 169.487 17.5385C169.518 17.5385 169.548 17.5385 169.579 17.5385H178.796H178.802ZM195.392 17.5385C197.936 17.5385 200 19.6062 200 22.1539C200 23.9016 199.029 25.4216 197.598 26.2093L196.817 26.6339L199.908 32.8186C200.135 33.2739 199.951 33.8278 199.496 34.0555C199.042 34.2832 198.489 34.0985 198.261 33.6431L194.833 26.7693H190.796V33.2309C190.796 33.7416 190.384 34.1539 189.874 34.1539C189.364 34.1539 188.953 33.7416 188.953 33.2309V18.4616C188.953 18.4308 188.953 18.4001 188.953 18.3632C189.001 17.9016 189.395 17.5385 189.868 17.5385H195.392ZM123.042 19.1447C119.349 19.1447 116.35 22.1478 116.35 25.8462C116.35 29.5447 119.349 32.5478 123.042 32.5478C126.734 32.5478 129.733 29.5509 129.733 25.8462C129.733 22.1416 126.734 19.1447 123.042 19.1447ZM98.6176 24.9232H103.201C103.201 24.9232 103.226 24.9232 103.238 24.9232H103.257H103.41C104.848 24.8247 105.991 23.6247 105.991 22.1601C105.991 20.6955 104.756 19.3908 103.226 19.3908H98.6176V24.9232ZM190.784 24.9232H195.367C195.367 24.9232 195.392 24.9232 195.404 24.9232H195.423H195.576C197.014 24.8247 198.157 23.6247 198.157 22.1601C198.157 20.6955 196.916 19.3908 195.392 19.3908H190.784V24.9232Z" fill="#00C58B" style="fill:#00C58B;fill:color(display-p3 0.0000 0.7725 0.5451);fill-opacity:1;"/>
</g>
</g>
<defs>
<clipPath id="clip0_1_1700">
<rect width="200" height="48" fill="white" style="fill:white;fill-opacity:1;"/>
</clipPath>
</defs>
</svg>
